%FSLAX44Y44*%
%MOMM*%
%LPD*%
G04 Layer: Top Silkscreen*%
G04 Generated by WindDragons EDA Generator (100% Planar Zero-Crossing)*%
%ADD10C,0.1500*%
D10*
X15000Y15000D02*
X685000Y15000D01*
X685000Y485000D01*
X15000Y485000D01*
X15000Y15000D01*
X221000Y46000D02*
X249000Y46000D01*
X249000Y455000D01*
X221000Y455000D01*
X221000Y46000D01*
X449600Y46000D02*
X477600Y46000D01*
X477600Y455000D01*
X449600Y455000D01*
X449600Y46000D01*
X205000Y40000D02*
X493600Y40000D01*
X493600Y470000D01*
X205000Y470000D01*
X205000Y40000D01*
X280000Y150000D02*
X420000Y150000D01*
X420000Y410000D01*
X280000Y410000D01*
X280000Y150000D01*
X310000Y455000D02*
X390000Y455000D01*
X390000Y490000D01*
X310000Y490000D01*
X310000Y455000D01*
X55000Y40000D02*
X180000Y40000D01*
X180000Y460000D01*
X55000Y460000D01*
X55000Y40000D01*
X86000Y198400D02*
X114000Y198400D01*
X114000Y302600D01*
X86000Y302600D01*
X86000Y198400D01*
X566000Y46000D02*
X619400Y46000D01*
X619400Y74000D01*
X566000Y74000D01*
X566000Y46000D01*
X566000Y96800D02*
X619400Y96800D01*
X619400Y124800D01*
X566000Y124800D01*
X566000Y96800D01*
X566000Y122200D02*
X619400Y122200D01*
X619400Y150200D01*
X566000Y150200D01*
X566000Y122200D01*
X566000Y147600D02*
X619400Y147600D01*
X619400Y175600D01*
X566000Y175600D01*
X566000Y147600D01*
X170000Y240000D02*
X170000Y252000D01*
X170000Y252000D02*
X176857Y252000D01*
X170000Y246000D02*
X175143Y246000D01*
X170000Y240000D02*
X176857Y240000D01*
X185771Y250286D02*
X182343Y252000D01*
X182343Y252000D02*
X178914Y250286D01*
X178914Y250286D02*
X178914Y247714D01*
X178914Y247714D02*
X185771Y245143D01*
X185771Y245143D02*
X185771Y241714D01*
X185771Y241714D02*
X182343Y240000D01*
X182343Y240000D02*
X178914Y241714D01*
X187829Y240000D02*
X187829Y252000D01*
X187829Y252000D02*
X192971Y252000D01*
X192971Y252000D02*
X194686Y249429D01*
X194686Y249429D02*
X192971Y246857D01*
X192971Y246857D02*
X187829Y246857D01*
X196743Y252000D02*
X203600Y252000D01*
X203600Y252000D02*
X200171Y246857D01*
X200171Y246857D02*
X202743Y246857D01*
X202743Y246857D02*
X203600Y244286D01*
X203600Y244286D02*
X201886Y240000D01*
X201886Y240000D02*
X196743Y240000D01*
X205657Y250286D02*
X207371Y252000D01*
X207371Y252000D02*
X210800Y252000D01*
X210800Y252000D02*
X212514Y248571D01*
X212514Y248571D02*
X205657Y240000D01*
X205657Y240000D02*
X212514Y240000D01*
X214571Y240000D02*
X221429Y240000D01*
X223486Y252000D02*
X223486Y240000D01*
X223486Y240000D02*
X230343Y240000D01*
X488600Y240000D02*
X488600Y252000D01*
X488600Y252000D02*
X495457Y252000D01*
X488600Y246000D02*
X493743Y246000D01*
X488600Y240000D02*
X495457Y240000D01*
X504371Y250286D02*
X500943Y252000D01*
X500943Y252000D02*
X497514Y250286D01*
X497514Y250286D02*
X497514Y247714D01*
X497514Y247714D02*
X504371Y245143D01*
X504371Y245143D02*
X504371Y241714D01*
X504371Y241714D02*
X500943Y240000D01*
X500943Y240000D02*
X497514Y241714D01*
X506429Y240000D02*
X506429Y252000D01*
X506429Y252000D02*
X511571Y252000D01*
X511571Y252000D02*
X513286Y249429D01*
X513286Y249429D02*
X511571Y246857D01*
X511571Y246857D02*
X506429Y246857D01*
X515343Y252000D02*
X522200Y252000D01*
X522200Y252000D02*
X518771Y246857D01*
X518771Y246857D02*
X521343Y246857D01*
X521343Y246857D02*
X522200Y244286D01*
X522200Y244286D02*
X520486Y240000D01*
X520486Y240000D02*
X515343Y240000D01*
X524257Y250286D02*
X525971Y252000D01*
X525971Y252000D02*
X529400Y252000D01*
X529400Y252000D02*
X531114Y248571D01*
X531114Y248571D02*
X524257Y240000D01*
X524257Y240000D02*
X531114Y240000D01*
X533171Y240000D02*
X540029Y240000D01*
X542086Y240000D02*
X542086Y252000D01*
X542086Y252000D02*
X547229Y252000D01*
X547229Y252000D02*
X548943Y249429D01*
X548943Y249429D02*
X547229Y246857D01*
X547229Y246857D02*
X542086Y246857D01*
X545514Y246857D02*
X548943Y240000D01*
X296429Y277143D02*
X297857Y280000D01*
X297857Y280000D02*
X297857Y270000D01*
X296429Y270000D02*
X299286Y270000D01*
X304571Y270000D02*
X306000Y270000D01*
X306000Y270000D02*
X306000Y271429D01*
X306000Y271429D02*
X304571Y271429D01*
X304571Y271429D02*
X304571Y270000D01*
X314143Y270000D02*
X314143Y280000D01*
X314143Y280000D02*
X309857Y272857D01*
X309857Y272857D02*
X315571Y272857D01*
X317286Y280000D02*
X323000Y280000D01*
X323000Y280000D02*
X319429Y270000D01*
X333571Y280000D02*
X336429Y280000D01*
X335000Y280000D02*
X335000Y270000D01*
X333571Y270000D02*
X336429Y270000D01*
X339571Y270000D02*
X339571Y280000D01*
X339571Y280000D02*
X345286Y270000D01*
X345286Y270000D02*
X345286Y280000D01*
X352714Y278571D02*
X349857Y280000D01*
X349857Y280000D02*
X348429Y278571D01*
X348429Y278571D02*
X347000Y275000D01*
X347000Y275000D02*
X348429Y271429D01*
X348429Y271429D02*
X349857Y270000D01*
X349857Y270000D02*
X352714Y271429D01*
X354429Y270000D02*
X354429Y280000D01*
X360143Y270000D02*
X360143Y280000D01*
X354429Y275000D02*
X360143Y275000D01*
X369286Y280000D02*
X369286Y270000D01*
X369286Y270000D02*
X375000Y270000D01*
X382429Y278571D02*
X379571Y280000D01*
X379571Y280000D02*
X378143Y278571D01*
X378143Y278571D02*
X376714Y275000D01*
X376714Y275000D02*
X378143Y271429D01*
X378143Y271429D02*
X379571Y270000D01*
X379571Y270000D02*
X382429Y271429D01*
X384143Y270000D02*
X384143Y280000D01*
X384143Y280000D02*
X387714Y280000D01*
X387714Y280000D02*
X389857Y277143D01*
X389857Y277143D02*
X389857Y272857D01*
X389857Y272857D02*
X387714Y270000D01*
X387714Y270000D02*
X384143Y270000D01*
X330000Y473000D02*
X330000Y466714D01*
X330000Y466714D02*
X331714Y465000D01*
X331714Y465000D02*
X332857Y465000D01*
X332857Y465000D02*
X334571Y466714D01*
X334571Y466714D02*
X334571Y473000D01*
X340514Y471857D02*
X338229Y473000D01*
X338229Y473000D02*
X335943Y471857D01*
X335943Y471857D02*
X335943Y470143D01*
X335943Y470143D02*
X340514Y468429D01*
X340514Y468429D02*
X340514Y466143D01*
X340514Y466143D02*
X338229Y465000D01*
X338229Y465000D02*
X335943Y466143D01*
X341886Y465000D02*
X341886Y473000D01*
X341886Y473000D02*
X345314Y473000D01*
X345314Y473000D02*
X346457Y471286D01*
X346457Y471286D02*
X345314Y469571D01*
X345314Y469571D02*
X341886Y469571D01*
X345314Y469571D02*
X346457Y467286D01*
X346457Y467286D02*
X345314Y465000D01*
X345314Y465000D02*
X341886Y465000D01*
X348400Y469000D02*
X351829Y469000D01*
X358343Y471857D02*
X356057Y473000D01*
X356057Y473000D02*
X354914Y471857D01*
X354914Y471857D02*
X353771Y469000D01*
X353771Y469000D02*
X354914Y466143D01*
X354914Y466143D02*
X356057Y465000D01*
X356057Y465000D02*
X358343Y466143D01*
X70000Y429000D02*
X70000Y420000D01*
X70000Y420000D02*
X75143Y420000D01*
X77971Y429000D02*
X80543Y429000D01*
X80543Y429000D02*
X81829Y426429D01*
X81829Y426429D02*
X81829Y422571D01*
X81829Y422571D02*
X80543Y420000D01*
X80543Y420000D02*
X77971Y420000D01*
X77971Y420000D02*
X76686Y422571D01*
X76686Y422571D02*
X76686Y426429D01*
X76686Y426429D02*
X77971Y429000D01*
X83371Y420000D02*
X83371Y429000D01*
X83371Y429000D02*
X87229Y429000D01*
X87229Y429000D02*
X88514Y427071D01*
X88514Y427071D02*
X87229Y425143D01*
X87229Y425143D02*
X83371Y425143D01*
X85943Y425143D02*
X88514Y420000D01*
X90057Y420000D02*
X90057Y426429D01*
X90057Y426429D02*
X92629Y429000D01*
X92629Y429000D02*
X95200Y426429D01*
X95200Y426429D02*
X95200Y420000D01*
X90057Y423857D02*
X95200Y423857D01*
X103429Y420000D02*
X103429Y429000D01*
X103429Y429000D02*
X107286Y429000D01*
X107286Y429000D02*
X108571Y427071D01*
X108571Y427071D02*
X107286Y425143D01*
X107286Y425143D02*
X103429Y425143D01*
X106000Y425143D02*
X108571Y420000D01*
X110114Y420000D02*
X110114Y426429D01*
X110114Y426429D02*
X112686Y429000D01*
X112686Y429000D02*
X115257Y426429D01*
X115257Y426429D02*
X115257Y420000D01*
X110114Y423857D02*
X115257Y423857D01*
X117443Y424500D02*
X121300Y424500D01*
X124771Y429000D02*
X127343Y429000D01*
X127343Y429000D02*
X128629Y426429D01*
X128629Y426429D02*
X128629Y422571D01*
X128629Y422571D02*
X127343Y420000D01*
X127343Y420000D02*
X124771Y420000D01*
X124771Y420000D02*
X123486Y422571D01*
X123486Y422571D02*
X123486Y426429D01*
X123486Y426429D02*
X124771Y429000D01*
X123486Y421286D02*
X128629Y427714D01*
X130171Y427714D02*
X131457Y429000D01*
X131457Y429000D02*
X134029Y429000D01*
X134029Y429000D02*
X135314Y426429D01*
X135314Y426429D02*
X130171Y420000D01*
X130171Y420000D02*
X135314Y420000D01*
X80000Y330829D02*
X81714Y327400D01*
X81714Y327400D02*
X85143Y327400D01*
X85143Y327400D02*
X85143Y339400D01*
X81714Y339400D02*
X86857Y339400D01*
X90629Y339400D02*
X94057Y339400D01*
X94057Y339400D02*
X95771Y335971D01*
X95771Y335971D02*
X95771Y330829D01*
X95771Y330829D02*
X94057Y327400D01*
X94057Y327400D02*
X90629Y327400D01*
X90629Y327400D02*
X88914Y330829D01*
X88914Y330829D02*
X88914Y335971D01*
X88914Y335971D02*
X90629Y339400D01*
X97829Y339400D02*
X101257Y333400D01*
X104686Y339400D02*
X101257Y333400D01*
X101257Y333400D02*
X101257Y327400D01*
X113600Y337686D02*
X110171Y339400D01*
X110171Y339400D02*
X106743Y337686D01*
X106743Y337686D02*
X106743Y335114D01*
X106743Y335114D02*
X113600Y332543D01*
X113600Y332543D02*
X113600Y329114D01*
X113600Y329114D02*
X110171Y327400D01*
X110171Y327400D02*
X106743Y329114D01*
X115657Y339400D02*
X122514Y339400D01*
X119086Y339400D02*
X119086Y327400D01*
X126286Y339400D02*
X129714Y339400D01*
X128000Y339400D02*
X128000Y327400D01*
X126286Y327400D02*
X129714Y327400D01*
X140343Y337686D02*
X136914Y339400D01*
X136914Y339400D02*
X135200Y337686D01*
X135200Y337686D02*
X133486Y333400D01*
X133486Y333400D02*
X135200Y329114D01*
X135200Y329114D02*
X136914Y327400D01*
X136914Y327400D02*
X140343Y329114D01*
X142400Y327400D02*
X142400Y339400D01*
X142400Y333400D02*
X149257Y339400D01*
X142400Y333400D02*
X149257Y327400D01*
X120000Y212400D02*
X124571Y220400D01*
X120000Y220400D02*
X124571Y212400D01*
X131886Y220400D02*
X134171Y216400D01*
X136457Y220400D02*
X134171Y216400D01*
X134171Y216400D02*
X134171Y212400D01*
X143771Y220400D02*
X148343Y220400D01*
X148343Y220400D02*
X146057Y216971D01*
X146057Y216971D02*
X147771Y216971D01*
X147771Y216971D02*
X148343Y215257D01*
X148343Y215257D02*
X147200Y212400D01*
X147200Y212400D02*
X143771Y212400D01*
X149714Y220400D02*
X152000Y212400D01*
X152000Y212400D02*
X154286Y220400D01*
X166171Y219257D02*
X163886Y220400D01*
X163886Y220400D02*
X161600Y218114D01*
X161600Y218114D02*
X161600Y214686D01*
X161600Y214686D02*
X163886Y212400D01*
X163886Y212400D02*
X166171Y212400D01*
X166171Y212400D02*
X166171Y215829D01*
X166171Y215829D02*
X163886Y215829D01*
X565000Y85000D02*
X565000Y97000D01*
X565000Y97000D02*
X570143Y97000D01*
X570143Y97000D02*
X571857Y94429D01*
X571857Y94429D02*
X570143Y91857D01*
X570143Y91857D02*
X565000Y91857D01*
X573914Y97000D02*
X575629Y85000D01*
X575629Y85000D02*
X577343Y91000D01*
X577343Y91000D02*
X579057Y85000D01*
X579057Y85000D02*
X580771Y97000D01*
X582829Y85000D02*
X582829Y97000D01*
X582829Y97000D02*
X587971Y97000D01*
X587971Y97000D02*
X589686Y94429D01*
X589686Y94429D02*
X587971Y91857D01*
X587971Y91857D02*
X582829Y91857D01*
X586257Y91857D02*
X589686Y85000D01*
X607514Y97000D02*
X600657Y97000D01*
X600657Y97000D02*
X600657Y91857D01*
X600657Y91857D02*
X605800Y91857D01*
X605800Y91857D02*
X607514Y89286D01*
X607514Y89286D02*
X605800Y85000D01*
X605800Y85000D02*
X600657Y85000D01*
X609571Y97000D02*
X613000Y85000D01*
X613000Y85000D02*
X616429Y97000D01*
X565000Y135800D02*
X565000Y147800D01*
X565000Y147800D02*
X570143Y147800D01*
X570143Y147800D02*
X571857Y145229D01*
X571857Y145229D02*
X570143Y142657D01*
X570143Y142657D02*
X565000Y142657D01*
X570143Y142657D02*
X571857Y139229D01*
X571857Y139229D02*
X570143Y135800D01*
X570143Y135800D02*
X565000Y135800D01*
X573914Y147800D02*
X580771Y147800D01*
X577343Y147800D02*
X577343Y135800D01*
X582829Y135800D02*
X582829Y147800D01*
X582829Y147800D02*
X589686Y135800D01*
X589686Y135800D02*
X589686Y147800D01*
X600657Y147800D02*
X600657Y138371D01*
X600657Y138371D02*
X603229Y135800D01*
X603229Y135800D02*
X604943Y135800D01*
X604943Y135800D02*
X607514Y138371D01*
X607514Y138371D02*
X607514Y147800D01*
X609571Y135800D02*
X609571Y147800D01*
X609571Y147800D02*
X614714Y147800D01*
X614714Y147800D02*
X616429Y145229D01*
X616429Y145229D02*
X614714Y142657D01*
X614714Y142657D02*
X609571Y142657D01*
X565000Y161200D02*
X565000Y173200D01*
X565000Y173200D02*
X570143Y173200D01*
X570143Y173200D02*
X571857Y170629D01*
X571857Y170629D02*
X570143Y168057D01*
X570143Y168057D02*
X565000Y168057D01*
X570143Y168057D02*
X571857Y164629D01*
X571857Y164629D02*
X570143Y161200D01*
X570143Y161200D02*
X565000Y161200D01*
X573914Y173200D02*
X580771Y173200D01*
X577343Y173200D02*
X577343Y161200D01*
X582829Y161200D02*
X582829Y173200D01*
X582829Y173200D02*
X589686Y161200D01*
X589686Y161200D02*
X589686Y173200D01*
X600657Y161200D02*
X600657Y173200D01*
X600657Y173200D02*
X604943Y173200D01*
X604943Y173200D02*
X607514Y169771D01*
X607514Y169771D02*
X607514Y164629D01*
X607514Y164629D02*
X604943Y161200D01*
X604943Y161200D02*
X600657Y161200D01*
X611286Y173200D02*
X614714Y173200D01*
X614714Y173200D02*
X616429Y169771D01*
X616429Y169771D02*
X616429Y164629D01*
X616429Y164629D02*
X614714Y161200D01*
X614714Y161200D02*
X611286Y161200D01*
X611286Y161200D02*
X609571Y164629D01*
X609571Y164629D02*
X609571Y169771D01*
X609571Y169771D02*
X611286Y173200D01*
X618486Y173200D02*
X620200Y161200D01*
X620200Y161200D02*
X621914Y167200D01*
X621914Y167200D02*
X623629Y161200D01*
X623629Y161200D02*
X625343Y173200D01*
X627400Y161200D02*
X627400Y173200D01*
X627400Y173200D02*
X634257Y161200D01*
X634257Y161200D02*
X634257Y173200D01*
X565000Y186600D02*
X565000Y198600D01*
X565000Y198600D02*
X570143Y198600D01*
X570143Y198600D02*
X571857Y196029D01*
X571857Y196029D02*
X570143Y193457D01*
X570143Y193457D02*
X565000Y193457D01*
X570143Y193457D02*
X571857Y190029D01*
X571857Y190029D02*
X570143Y186600D01*
X570143Y186600D02*
X565000Y186600D01*
X573914Y198600D02*
X580771Y198600D01*
X577343Y198600D02*
X577343Y186600D01*
X582829Y186600D02*
X582829Y198600D01*
X582829Y198600D02*
X589686Y186600D01*
X589686Y186600D02*
X589686Y198600D01*
X600657Y186600D02*
X600657Y198600D01*
X600657Y198600D02*
X604086Y192600D01*
X604086Y192600D02*
X607514Y198600D01*
X607514Y198600D02*
X607514Y186600D01*
X611286Y198600D02*
X614714Y198600D01*
X614714Y198600D02*
X616429Y195171D01*
X616429Y195171D02*
X616429Y190029D01*
X616429Y190029D02*
X614714Y186600D01*
X614714Y186600D02*
X611286Y186600D01*
X611286Y186600D02*
X609571Y190029D01*
X609571Y190029D02*
X609571Y195171D01*
X609571Y195171D02*
X611286Y198600D01*
X618486Y186600D02*
X618486Y198600D01*
X618486Y198600D02*
X622771Y198600D01*
X622771Y198600D02*
X625343Y195171D01*
X625343Y195171D02*
X625343Y190029D01*
X625343Y190029D02*
X622771Y186600D01*
X622771Y186600D02*
X618486Y186600D01*
X627400Y186600D02*
X627400Y198600D01*
X627400Y198600D02*
X634257Y198600D01*
X627400Y192600D02*
X632543Y192600D01*
X627400Y186600D02*
X634257Y186600D01*
X150000Y37000D02*
X151714Y25000D01*
X151714Y25000D02*
X153429Y31000D01*
X153429Y31000D02*
X155143Y25000D01*
X155143Y25000D02*
X156857Y37000D01*
X160629Y37000D02*
X164057Y37000D01*
X162343Y37000D02*
X162343Y25000D01*
X160629Y25000D02*
X164057Y25000D01*
X167829Y25000D02*
X167829Y37000D01*
X167829Y37000D02*
X174686Y25000D01*
X174686Y25000D02*
X174686Y37000D01*
X176743Y25000D02*
X176743Y37000D01*
X176743Y37000D02*
X181029Y37000D01*
X181029Y37000D02*
X183600Y33571D01*
X183600Y33571D02*
X183600Y28429D01*
X183600Y28429D02*
X181029Y25000D01*
X181029Y25000D02*
X176743Y25000D01*
X185657Y25000D02*
X185657Y37000D01*
X185657Y37000D02*
X189943Y37000D01*
X189943Y37000D02*
X192514Y33571D01*
X192514Y33571D02*
X192514Y28429D01*
X192514Y28429D02*
X189943Y25000D01*
X189943Y25000D02*
X185657Y25000D01*
X194571Y25000D02*
X194571Y37000D01*
X194571Y37000D02*
X199714Y37000D01*
X199714Y37000D02*
X201429Y34429D01*
X201429Y34429D02*
X199714Y31857D01*
X199714Y31857D02*
X194571Y31857D01*
X198000Y31857D02*
X201429Y25000D01*
X203486Y25000D02*
X203486Y33571D01*
X203486Y33571D02*
X206914Y37000D01*
X206914Y37000D02*
X210343Y33571D01*
X210343Y33571D02*
X210343Y25000D01*
X203486Y30143D02*
X210343Y30143D01*
X219257Y35286D02*
X215829Y37000D01*
X215829Y37000D02*
X212400Y33571D01*
X212400Y33571D02*
X212400Y28429D01*
X212400Y28429D02*
X215829Y25000D01*
X215829Y25000D02*
X219257Y25000D01*
X219257Y25000D02*
X219257Y30143D01*
X219257Y30143D02*
X215829Y30143D01*
X223029Y37000D02*
X226457Y37000D01*
X226457Y37000D02*
X228171Y33571D01*
X228171Y33571D02*
X228171Y28429D01*
X228171Y28429D02*
X226457Y25000D01*
X226457Y25000D02*
X223029Y25000D01*
X223029Y25000D02*
X221314Y28429D01*
X221314Y28429D02*
X221314Y33571D01*
X221314Y33571D02*
X223029Y37000D01*
X230229Y25000D02*
X230229Y37000D01*
X230229Y37000D02*
X237086Y25000D01*
X237086Y25000D02*
X237086Y37000D01*
X246000Y35286D02*
X242571Y37000D01*
X242571Y37000D02*
X239143Y35286D01*
X239143Y35286D02*
X239143Y32714D01*
X239143Y32714D02*
X246000Y30143D01*
X246000Y30143D02*
X246000Y26714D01*
X246000Y26714D02*
X242571Y25000D01*
X242571Y25000D02*
X239143Y26714D01*
X256971Y25000D02*
X256971Y37000D01*
X256971Y37000D02*
X262114Y37000D01*
X262114Y37000D02*
X263829Y34429D01*
X263829Y34429D02*
X262114Y31857D01*
X262114Y31857D02*
X256971Y31857D01*
X262114Y31857D02*
X263829Y28429D01*
X263829Y28429D02*
X262114Y25000D01*
X262114Y25000D02*
X256971Y25000D01*
X265886Y25000D02*
X265886Y33571D01*
X265886Y33571D02*
X269314Y37000D01*
X269314Y37000D02*
X272743Y33571D01*
X272743Y33571D02*
X272743Y25000D01*
X265886Y30143D02*
X272743Y30143D01*
X281657Y35286D02*
X278229Y37000D01*
X278229Y37000D02*
X274800Y35286D01*
X274800Y35286D02*
X274800Y32714D01*
X274800Y32714D02*
X281657Y30143D01*
X281657Y30143D02*
X281657Y26714D01*
X281657Y26714D02*
X278229Y25000D01*
X278229Y25000D02*
X274800Y26714D01*
X283714Y25000D02*
X283714Y37000D01*
X283714Y37000D02*
X290571Y37000D01*
X283714Y31000D02*
X288857Y31000D01*
X283714Y25000D02*
X290571Y25000D01*
X308400Y35286D02*
X304971Y37000D01*
X304971Y37000D02*
X301543Y35286D01*
X301543Y35286D02*
X301543Y32714D01*
X301543Y32714D02*
X308400Y30143D01*
X308400Y30143D02*
X308400Y26714D01*
X308400Y26714D02*
X304971Y25000D01*
X304971Y25000D02*
X301543Y26714D01*
X310457Y37000D02*
X317314Y37000D01*
X313886Y37000D02*
X313886Y25000D01*
X319371Y25000D02*
X319371Y33571D01*
X319371Y33571D02*
X322800Y37000D01*
X322800Y37000D02*
X326229Y33571D01*
X326229Y33571D02*
X326229Y25000D01*
X319371Y30143D02*
X326229Y30143D01*
X328286Y37000D02*
X335143Y37000D01*
X331714Y37000D02*
X331714Y25000D01*
X338914Y37000D02*
X342343Y37000D01*
X340629Y37000D02*
X340629Y25000D01*
X338914Y25000D02*
X342343Y25000D01*
X347829Y37000D02*
X351257Y37000D01*
X351257Y37000D02*
X352971Y33571D01*
X352971Y33571D02*
X352971Y28429D01*
X352971Y28429D02*
X351257Y25000D01*
X351257Y25000D02*
X347829Y25000D01*
X347829Y25000D02*
X346114Y28429D01*
X346114Y28429D02*
X346114Y33571D01*
X346114Y33571D02*
X347829Y37000D01*
X355029Y25000D02*
X355029Y37000D01*
X355029Y37000D02*
X361886Y25000D01*
X361886Y25000D02*
X361886Y37000D01*
X372857Y37000D02*
X376286Y25000D01*
X376286Y25000D02*
X379714Y37000D01*
X381771Y37000D02*
X388629Y37000D01*
X388629Y37000D02*
X385200Y31857D01*
X385200Y31857D02*
X387771Y31857D01*
X387771Y31857D02*
X388629Y29286D01*
X388629Y29286D02*
X386914Y25000D01*
X386914Y25000D02*
X381771Y25000D01*
X393257Y25000D02*
X394971Y25000D01*
X394971Y25000D02*
X394971Y26714D01*
X394971Y26714D02*
X393257Y26714D01*
X393257Y26714D02*
X393257Y25000D01*
X401314Y37000D02*
X404743Y37000D01*
X404743Y37000D02*
X406457Y33571D01*
X406457Y33571D02*
X406457Y28429D01*
X406457Y28429D02*
X404743Y25000D01*
X404743Y25000D02*
X401314Y25000D01*
X401314Y25000D02*
X399600Y28429D01*
X399600Y28429D02*
X399600Y33571D01*
X399600Y33571D02*
X401314Y37000D01*
X399600Y26714D02*
X406457Y35286D01*
M02*
