M48
; DRILL file for WindDragons PCB
METRIC,TZ
FMAT,2
T2C1.000
T1C3.200
%
G90
G05
T2
X23500Y6000
X23500Y8540
X23500Y11080
X23500Y13620
X23500Y16160
X23500Y18700
X23500Y21240
X23500Y23780
X23500Y26320
X23500Y28860
X23500Y31400
X23500Y33940
X23500Y36480
X23500Y39020
X23500Y41560
X23500Y44100
X46360Y6000
X46360Y8540
X46360Y11080
X46360Y13620
X46360Y16160
X46360Y18700
X46360Y21240
X46360Y23780
X46360Y26320
X46360Y28860
X46360Y31400
X46360Y33940
X46360Y36480
X46360Y39020
X46360Y41560
X46360Y44100
X10000Y6000
X10000Y8540
X10000Y11080
X10000Y13620
X10000Y16160
X10000Y18700
X10000Y31400
X10000Y36480
X10000Y21240
X10000Y23780
X10000Y26320
X10000Y28860
X58000Y6000
X60540Y6000
X58000Y11080
X60540Y11080
X58000Y13620
X60540Y13620
X58000Y16160
X60540Y16160
T1
X4000Y4000
X66000Y4000
X4000Y46000
X66000Y46000
M30
