<?xml version="1.0" encoding="UTF-8" standalone="no"?>
<!-- Created with Inkscape (http://www.inkscape.org/) -->

<svg
   width="632.79602mm"
   height="733.58081mm"
   viewBox="0 0 632.79602 733.58081"
   version="1.1"
   id="svg1"
   xml:space="preserve"
   sodipodi:docname="tshirt_back_green.svg"
   inkscape:version="1.4.4 (dcaf3e7, 2026-05-05)"
   xmlns:inkscape="http://www.inkscape.org/namespaces/inkscape"
   xmlns:sodipodi="http://sodipodi.sourceforge.net/DTD/sodipodi-0.dtd"
   xmlns="http://www.w3.org/2000/svg"
   xmlns:svg="http://www.w3.org/2000/svg"><sodipodi:namedview
     id="namedview1"
     pagecolor="#ffffff"
     bordercolor="#000000"
     borderopacity="0.25"
     inkscape:showpageshadow="2"
     inkscape:pageopacity="0.0"
     inkscape:pagecheckerboard="0"
     inkscape:deskcolor="#d1d1d1"
     inkscape:document-units="mm"
     inkscape:zoom="0.16505155"
     inkscape:cx="1132.9794"
     inkscape:cy="1554.06"
     inkscape:window-width="1512"
     inkscape:window-height="864"
     inkscape:window-x="0"
     inkscape:window-y="34"
     inkscape:window-maximized="1"
     inkscape:current-layer="g169-5" /><defs
     id="defs1" /><g
     id="layer1"
     transform="translate(-7622.8294,63.020007)"><g
       id="g171-6"
       transform="translate(3439.3228,108.51821)"><g
         id="g169-5"
         transform="translate(-18.008742,71.782115)"><g
           id="g249-8"
           style="fill:#1a1a1a;fill-opacity:1"
           transform="translate(-1078.3082,-845.91952)"><g
             id="g248-0-90"
             transform="translate(1557.0936,-328.77722)"
             style="fill:#1a1a1a;fill-opacity:1"><path
               style="fill:#1a1a1a;fill-opacity:1;stroke:none;stroke-width:0.350094;stroke-linecap:round;stroke-linejoin:round;stroke-opacity:1"
               d="m 4018.8896,1448.8504 c -20.6412,-2.8401 -34.0818,-7.1024 -55.2787,-17.5302 -23.9815,-11.7976 -41.7962,-24.5329 -59.4308,-42.4857 -16.9132,-17.2181 -23.8758,-26.4668 -34.9002,-46.3589 -17.9059,-32.3091 -26.6052,-66.7879 -25.3309,-100.3969 1.9825,-52.2903 20.7474,-104.1123 47.6735,-131.657 9.4552,-9.6725 15.1054,-13.5133 17.2551,-11.7293 4.1721,3.4624 3.8862,4.7921 -2.416,11.2426 -55.3407,56.6425 -69.3337,147.0505 -33.9518,219.3601 14.7558,30.1565 34.1309,53.2874 62.4445,74.5497 35.0631,26.3306 84.0481,40.6521 128.0499,37.4371 16.683,-1.2189 39.2932,-5.4836 52.4597,-9.8948 31.1698,-10.4428 64.5405,-35.125 90.987,-67.2969 16.4335,-19.9914 31.3004,-45.3784 36.6008,-62.4998 2.2924,-7.4048 2.5123,-7.7184 5.3981,-7.7038 5.3573,0.027 5.5041,0.6978 2.4238,11.0794 -11.4695,38.6543 -40.0549,78.3774 -75.6119,105.071 -23.6526,17.7568 -57.0859,30.9163 -94.6502,37.2545 -15.8119,2.6681 -47.7907,3.4757 -61.7219,1.5589 z"
               id="path30-3-2-3-9" /><path
               style="fill:#1a1a1a;fill-opacity:1;stroke:none;stroke-width:0.350094;stroke-linecap:round;stroke-linejoin:round;stroke-opacity:1"
               d="m 4034.4766,1354.1386 c -9.3095,-3.8272 -12.2586,-6.8201 -16.7115,-16.9587 -2.1649,-4.9289 -4.8072,-10.9165 -5.8719,-13.3059 -1.7954,-4.0287 -1.8088,-4.29 -0.1807,-3.5966 0.9654,0.4112 5.6089,0.9611 10.3193,1.2219 11.4213,0.6324 18.7513,-1.4378 24.1278,-6.8144 2.1434,-2.1432 4.2595,-3.8968 4.7024,-3.8968 0.9791,0 12.2162,14.5165 16.5771,21.4143 4.754,7.52 11.2021,20.8312 10.4433,21.5595 -1.2403,1.191 -17.3384,2.843 -27.4717,2.8191 -8.3269,-0.02 -11.0595,-0.4384 -15.9341,-2.4424 z"
               id="path106-4-2-06-7" /><path
               style="fill:#1a1a1a;fill-opacity:1;stroke:none;stroke-width:0.350094;stroke-linecap:round;stroke-linejoin:round;stroke-opacity:1"
               d="m 4046.7266,1396.0922 c -15.562,-6.4016 -19.5464,-12.0746 -21.7392,-30.9525 -0.5684,-4.8924 -0.8808,-9.0478 -0.6943,-9.2344 0.1865,-0.1865 2.7576,0.7827 5.713,2.1537 9.5107,4.4118 13.9701,4.9231 31.9384,3.6615 20.0981,-1.4112 19.1381,-2.0841 18.2832,12.8124 -0.9791,17.0631 -0.8658,16.7423 -6.8839,19.4975 -5.3174,2.4344 -13.6915,4.4261 -18.4285,4.3831 -1.4317,-0.013 -5.1165,-1.0576 -8.1887,-2.3213 z"
               id="path108-7-3-5-2" /><path
               style="fill:#1a1a1a;fill-opacity:1;stroke:none;stroke-width:10.6709;stroke-linecap:round;stroke-linejoin:round;stroke-dasharray:none;stroke-opacity:1"
               d="m 15850.699,5018.8273 c -22.595,-2.3579 -45.867,-6.5927 -51.369,-9.3478 -7.265,-3.6373 -20.757,-13.0799 -27.426,-19.194 -11.127,-10.2025 -20.893,-24.6942 -25.328,-37.5836 -3.532,-10.2663 -5.802,-25.3281 -5.191,-34.4443 1.863,-27.7849 18.634,-53.4079 42.495,-64.9251 10.19,-4.9182 15.598,-6.129 27.376,-6.129 14.481,0 18.547,3.2819 30.714,24.7936 7.286,12.8819 11.829,18.9518 14.918,19.9322 2.844,0.9024 6.187,-1.7888 8.918,-7.1775 l 2.416,-4.768 -6.483,-11.9199 c -16.739,-30.7786 -34.868,-55.3886 -61.687,-83.7385 -21.731,-22.972 -43.38,-42.7171 -89.463,-81.5948 -32.094,-27.0766 -32.662,-27.5036 -49.667,-37.3611 -19.108,-11.0767 -29.611,-18.9223 -34,-25.3981 -3.924,-5.7884 -5.765,-11.8879 -4.869,-16.1257 0.604,-2.855 4.155,-11.9205 4.67,-11.9205 0.136,0 7.213,1.6903 15.727,3.7563 30.289,7.3501 67.652,14.0626 96.724,17.377 27.572,3.1434 45.263,3.7193 78.271,2.5481 39.297,-1.3945 43.6,-1.9963 83.133,-11.6282 16.708,-4.0708 25.437,-6.683 30.116,-9.0118 16.491,-8.2091 21.746,-14.0188 20.985,-23.1992 -0.581,-7.0074 -3.878,-13.096 -15.327,-28.3095 -11.56,-15.3612 -16.075,-23.8409 -17.286,-32.4684 -0.473,-3.3645 -1.834,-9.5053 -3.025,-13.6462 -1.886,-6.5574 -2.173,-9.7147 -2.226,-24.4689 -0.07,-20.0624 1.378,-27.02 8.831,-42.3501 7.376,-15.1716 17.35,-25.4367 33.59,-34.5701 2.515,-1.4147 7.289,-4.2689 10.609,-6.3425 14.4,-8.9948 33.367,-13.2912 58.43,-13.236 25.692,0.057 47.817,5.1131 69.172,15.8084 36.686,18.3733 59.961,49.476 68.296,91.2632 2.558,12.8218 3.486,39.6872 1.897,54.867 -1.803,17.2219 -6.746,42.3978 -10.884,55.4349 -0.492,1.5485 0.37,2.3473 5.12,4.745 55.305,27.9179 78.828,90.1 57.911,153.0855 -6.869,20.6859 -18.138,38.8388 -33.818,54.4781 -18.485,18.4361 -38.133,28.9821 -63.411,34.0359 -12.301,2.4594 -35.044,2.1998 -49.109,-0.5606 -10.627,-2.0856 -28.39,-7.5401 -36.662,-11.2578 -2.306,-1.0366 -4.488,-1.7025 -4.848,-1.4799 -1.994,1.2325 -7.976,11.9013 -10.416,18.5762 -1.55,4.2419 -5.973,20.3317 -9.83,35.755 -7.39,29.557 -10.981,40.699 -17.657,54.7934 -15.715,33.1755 -41.536,52.7539 -80.159,60.7796 -7.688,1.5976 -13.556,1.9959 -32.886,2.2326 -12.94,0.1584 -25.222,0.1112 -27.292,-0.1049 z m 126.13,-164.3302 c -5.59,-51.7917 -39.813,-96.0589 -104.014,-134.5397 -26.05,-15.6139 -43.622,-23.8604 -91.925,-43.141 -16.99,-6.7814 -32.332,-13.1693 -34.094,-14.1955 -2.711,-1.5789 -3.616,-1.6952 -5.882,-0.7565 -1.473,0.6101 -2.678,1.4353 -2.678,1.8338 0,1.7027 16.825,16.449 24.763,21.7042 7.887,5.2206 24.594,13.7793 53.318,27.3135 36.821,17.3496 63.255,33.881 94.347,59.0026 22.939,18.5345 33.006,31.4247 46.88,60.0294 5.584,11.5128 9.815,18.8909 13.087,22.822 2.659,3.1951 5.284,5.8092 5.833,5.8092 0.666,0 0.788,-1.9615 0.365,-5.882 z m 115.479,-77.0438 c 11.774,-5.9435 20.384,-18.1537 22.457,-31.8484 2.16,-14.2644 -0.973,-27.7509 -8.887,-38.2582 -12.069,-16.0247 -29.068,-24.194 -50.016,-24.0367 -17.898,0.1344 -29.969,5.8796 -45.644,21.7237 -14.202,14.3551 -17.954,22.0746 -18.199,37.4437 -0.148,9.3191 -0.07,9.6997 2.422,12.2003 1.586,1.5895 2.886,2.2327 3.384,1.6742 0.445,-0.4988 2.184,-4.9302 3.865,-9.8475 8.359,-24.4552 20.75,-37.9979 39.153,-42.7913 6.999,-1.8231 10.939,-1.8129 19.999,0.052 12.383,2.5489 24.68,11.7352 30.757,22.9757 2.496,4.6179 2.837,6.2505 3.157,15.1385 0.515,14.278 -0.661,18.771 -6.941,26.5247 -5.121,6.3228 -5.149,6.3928 -3.71,9.1758 0.797,1.5425 1.663,2.8045 1.923,2.8045 0.261,0 3.087,-1.3191 6.28,-2.9312 z m -75.503,-152.2839 c 9.041,-3.0456 19.931,-9.9128 23.823,-15.0216 8.79,-11.5373 16.514,-26.8564 18.892,-37.4646 3.155,-14.0807 1.278,-37.2099 -3.622,-44.626 -3.539,-5.3559 -13.902,-15.1039 -19.882,-18.7025 -9.272,-5.5796 -16.359,-7.4877 -27.913,-7.5154 l -10.114,-0.024 -3.541,3.1983 c -1.947,1.759 -4.507,4.9198 -5.69,7.0238 l -2.15,3.8256 15.805,-0.2008 c 14.982,-0.1903 15.983,-0.09 19.242,1.9373 11.27,7.0078 17.694,21.2923 17.723,39.407 0.02,12.9196 -3.873,24.1426 -12.686,36.5673 -4.47,6.3015 -22.988,24.6299 -29.885,29.5795 -2.459,1.7644 -4.47,3.6163 -4.47,4.1154 0,1.655 17.878,0.1214 24.468,-2.099 z"
               id="path174-0-4"
               transform="scale(0.26458333)" /><path
               style="fill:#1a1a1a;fill-opacity:1;stroke:none;stroke-width:10.6709;stroke-linecap:round;stroke-linejoin:round;stroke-dasharray:none;stroke-opacity:1"
               d="m 15850.699,5018.8273 c -22.595,-2.3579 -45.867,-6.5927 -51.369,-9.3478 -7.265,-3.6373 -20.757,-13.0799 -27.426,-19.194 -11.127,-10.2025 -20.893,-24.6942 -25.328,-37.5836 -3.532,-10.2663 -5.802,-25.3281 -5.191,-34.4443 1.863,-27.7849 18.634,-53.4079 42.495,-64.9251 10.19,-4.9182 15.598,-6.129 27.376,-6.129 14.481,0 18.547,3.2819 30.714,24.7936 7.286,12.8819 11.829,18.9518 14.918,19.9322 2.844,0.9024 6.187,-1.7888 8.918,-7.1775 l 2.416,-4.768 -6.483,-11.9199 c -16.739,-30.7786 -34.868,-55.3886 -61.687,-83.7385 -21.731,-22.972 -43.38,-42.7171 -89.463,-81.5948 -32.094,-27.0766 -32.662,-27.5036 -49.667,-37.3611 -19.108,-11.0767 -29.611,-18.9223 -34,-25.3981 -3.924,-5.7884 -5.765,-11.8879 -4.869,-16.1257 0.604,-2.855 4.155,-11.9205 4.67,-11.9205 0.136,0 7.213,1.6903 15.727,3.7563 30.289,7.3501 67.652,14.0626 96.724,17.377 27.572,3.1434 45.263,3.7193 78.271,2.5481 39.297,-1.3945 43.6,-1.9963 83.133,-11.6282 16.708,-4.0708 25.437,-6.683 30.116,-9.0118 16.491,-8.2091 21.746,-14.0188 20.985,-23.1992 -0.581,-7.0074 -3.878,-13.096 -15.327,-28.3095 -11.56,-15.3612 -16.075,-23.8409 -17.286,-32.4684 -0.473,-3.3645 -1.834,-9.5053 -3.025,-13.6462 -1.886,-6.5574 -2.173,-9.7147 -2.226,-24.4689 -0.07,-20.0624 1.378,-27.02 8.831,-42.3501 7.376,-15.1716 17.35,-25.4367 33.59,-34.5701 2.515,-1.4147 7.289,-4.2689 10.609,-6.3425 14.4,-8.9948 33.367,-13.2912 58.43,-13.236 25.692,0.057 47.817,5.1131 69.172,15.8084 36.686,18.3733 59.961,49.476 68.296,91.2632 2.558,12.8218 3.486,39.6872 1.897,54.867 -1.803,17.2219 -6.746,42.3978 -10.884,55.4349 -0.492,1.5485 0.37,2.3473 5.12,4.745 55.305,27.9179 78.828,90.1 57.911,153.0855 -6.869,20.6859 -18.138,38.8388 -33.818,54.4781 -18.485,18.4361 -38.133,28.9821 -63.411,34.0359 -12.301,2.4594 -35.044,2.1998 -49.109,-0.5606 -10.627,-2.0856 -28.39,-7.5401 -36.662,-11.2578 -2.306,-1.0366 -4.488,-1.7025 -4.848,-1.4799 -1.994,1.2325 -7.976,11.9013 -10.416,18.5762 -1.55,4.2419 -5.973,20.3317 -9.83,35.755 -7.39,29.557 -10.981,40.699 -17.657,54.7934 -15.715,33.1755 -41.536,52.7539 -80.159,60.7796 -7.688,1.5976 -13.556,1.9959 -32.886,2.2326 -12.94,0.1584 -25.222,0.1112 -27.292,-0.1049 z m 126.13,-164.3302 c -5.59,-51.7917 -39.813,-96.0589 -104.014,-134.5397 -26.05,-15.6139 -43.622,-23.8604 -91.925,-43.141 -16.99,-6.7814 -32.332,-13.1693 -34.094,-14.1955 -2.711,-1.5789 -3.616,-1.6952 -5.882,-0.7565 -1.473,0.6101 -2.678,1.4353 -2.678,1.8338 0,1.7027 16.825,16.449 24.763,21.7042 7.887,5.2206 24.594,13.7793 53.318,27.3135 36.821,17.3496 63.255,33.881 94.347,59.0026 22.939,18.5345 33.006,31.4247 46.88,60.0294 5.584,11.5128 9.815,18.8909 13.087,22.822 2.659,3.1951 5.284,5.8092 5.833,5.8092 0.666,0 0.788,-1.9615 0.365,-5.882 z m 115.479,-77.0438 c 11.774,-5.9435 20.384,-18.1537 22.457,-31.8484 2.16,-14.2644 -0.973,-27.7509 -8.887,-38.2582 -12.069,-16.0247 -29.068,-24.194 -50.016,-24.0367 -17.898,0.1344 -29.969,5.8796 -45.644,21.7237 -14.202,14.3551 -17.954,22.0746 -18.199,37.4437 -0.148,9.3191 -0.07,9.6997 2.422,12.2003 1.586,1.5895 2.886,2.2327 3.384,1.6742 0.445,-0.4988 2.184,-4.9302 3.865,-9.8475 8.359,-24.4552 20.75,-37.9979 39.153,-42.7913 6.999,-1.8231 10.939,-1.8129 19.999,0.052 12.383,2.5489 24.68,11.7352 30.757,22.9757 2.496,4.6179 2.837,6.2505 3.157,15.1385 0.515,14.278 -0.661,18.771 -6.941,26.5247 -5.121,6.3228 -5.149,6.3928 -3.71,9.1758 0.797,1.5425 1.663,2.8045 1.923,2.8045 0.261,0 3.087,-1.3191 6.28,-2.9312 z m -75.503,-152.2839 c 9.041,-3.0456 19.931,-9.9128 23.823,-15.0216 8.79,-11.5373 16.514,-26.8564 18.892,-37.4646 3.155,-14.0807 1.278,-37.2099 -3.622,-44.626 -3.539,-5.3559 -13.902,-15.1039 -19.882,-18.7025 -9.272,-5.5796 -16.359,-7.4877 -27.913,-7.5154 l -10.114,-0.024 -3.541,3.1983 c -1.947,1.759 -4.507,4.9198 -5.69,7.0238 l -2.15,3.8256 15.805,-0.2008 c 14.982,-0.1903 15.983,-0.09 19.242,1.9373 11.27,7.0078 17.694,21.2923 17.723,39.407 0.02,12.9196 -3.873,24.1426 -12.686,36.5673 -4.47,6.3015 -22.988,24.6299 -29.885,29.5795 -2.459,1.7644 -4.47,3.6163 -4.47,4.1154 0,1.655 17.878,0.1214 24.468,-2.099 z"
               id="path176-6-4"
               transform="scale(0.26458333)" /><path
               style="fill:#1a1a1a;fill-opacity:1;stroke:none;stroke-width:10.6709;stroke-linecap:round;stroke-linejoin:round;stroke-dasharray:none;stroke-opacity:1"
               d="m 15430.257,4832.1451 c -2.811,-1.7644 -1.809,-4.8965 4.053,-12.6704 6.716,-8.9072 9.891,-15.1968 11.063,-21.9149 l 0.861,-4.9409 h -15.277 c -15.557,0 -27.229,-1.4041 -36.933,-4.4431 l -4.941,-1.5473 v -4.0605 c 0,-3.3563 0.757,-5.081 4.363,-9.9451 6.606,-8.9115 7.835,-12.2095 7.801,-20.9424 -0.08,-20.0652 -5.94,-33.6718 -23.928,-55.5257 -18.04,-21.9179 -37.223,-36.4668 -64.31,-48.7738 -26.704,-12.1329 -55.629,-18.6331 -82.7,-18.585 -19.184,0.034 -32.274,2.1636 -67.291,10.9466 -9.166,2.2992 -17.129,4.1805 -17.693,4.1805 -1.362,0 -3.755,-5.8425 -3.755,-9.1671 0,-3.4479 3.741,-13.05 13.608,-34.9263 7.589,-16.826 9.839,-24.6079 7.114,-24.6079 -1.894,0 -71.099,13.2531 -76.464,14.6433 -3.07,0.7956 -7.983,2.5129 -10.917,3.8162 -8.409,3.7346 -39.78,10.9354 -41.248,9.4678 -2.025,-2.0256 17.972,-45.8276 29.291,-64.1602 16.341,-26.4646 38.011,-49.7612 58.672,-63.0743 3.196,-2.0596 5.815,-4.0364 5.819,-4.3929 0.01,-1.1937 -8.641,-1.9618 -15.882,-1.4093 -3.942,0.3008 -12.037,1.0404 -17.99,1.6436 -19.465,1.9723 -47.004,0.073 -68.544,-4.7264 -16.9,-3.766 -41.823,-12.8586 -54.506,-19.8852 -2.718,-1.5055 -7.341,-4.0794 -10.274,-5.7197 l -5.334,-2.9823 11.216,-2.5784 c 29.087,-6.6871 56.391,-17.9806 110.032,-45.5106 21.475,-11.0218 22.601,-11.7329 22.875,-14.4509 l 0.289,-2.8587 -5.935,-0.5539 c -3.265,-0.3046 -12.712,-1.0011 -20.994,-1.5478 -53.941,-3.5607 -100.906,-16.8659 -126.648,-35.879 -11.746,-8.6753 -30.614,-27.8736 -37.289,-37.9403 -14.408,-21.7317 -26.525,-42.9528 -44.062,-77.1712 -6.632,-12.9403 -14.5,-27.3394 -17.483,-31.9979 -2.984,-4.6585 -5.715,-9.6423 -6.07,-11.0752 -0.627,-2.5332 -0.571,-2.5773 2.012,-1.5952 1.461,0.5555 5.003,2.4225 7.87,4.149 3.271,1.9693 15.209,6.3708 32.036,11.8124 31.752,10.2677 39.395,13.1656 57.107,21.6539 23.989,11.4963 37.313,19.9827 71.654,45.6386 l 22.675,16.94 -2.547,2.4985 c -2.412,2.3671 -3.312,2.5554 -17.133,3.5832 -33.25,2.4727 -50.784,7.0869 -70.824,18.6379 -6.442,3.713 -8.884,5.5882 -8.188,6.2851 1.774,1.7732 24.696,1.0638 40.426,-1.2511 10.992,-1.6177 20.619,-2.2718 39.061,-2.654 34.027,-0.7052 50.877,1.2573 95.422,11.1137 6.934,1.5344 13.021,2.6518 13.527,2.4832 2.27,-0.7564 -13.597,-13.2757 -28.915,-22.8153 -19.628,-12.2237 -38.829,-25.8156 -63.665,-45.0671 -45.716,-35.4359 -77.668,-52.4963 -133.072,-71.0513 -20.25,-6.7819 -62.295,-18.9313 -65.515,-18.9313 -3.61,0 -13.767,-6.5063 -20.282,-12.9926 -3.279,-3.2639 -5.961,-6.3343 -5.961,-6.8231 0,-1.2061 29.659,-1.1375 43.291,0.1001 51.007,4.6307 98.417,17.5046 153.637,41.7189 26.333,11.5476 31.325,14.669 76.675,47.9482 15.23,11.176 27.684,19.0842 38.954,24.7346 9.133,4.5791 20.58,9.1672 21.236,8.5114 0.219,-0.2194 -0.879,-2.4135 -2.441,-4.8758 -6.402,-10.0953 -11.374,-26.4464 -11.374,-37.4074 0,-12.5625 4.751,-25.2987 12.892,-34.5632 2.502,-2.8468 5.791,-7.0137 7.308,-9.2596 6.128,-9.0696 16.454,-15.5193 30.316,-18.9363 4.049,-0.9983 15.118,-2.7074 24.596,-3.798 16.5,-1.8987 27.094,-4.2922 30.44,-6.8775 1.187,-0.9169 3.77,-1.0215 10.823,-0.438 9.395,0.7771 13.499,0.4402 13.499,-1.108 0,-1.0772 -9.471,-4.6708 -33.41,-12.6772 -24.77,-8.2846 -29.036,-10.5991 -33.095,-17.9594 -6.999,-12.6888 -2.744,-23.0635 12.391,-30.2097 10.1,-4.7688 19.847,-6.3449 35.67,-5.7674 7.855,0.2867 15.571,1.1133 18.915,2.0262 13.993,3.8212 26.093,11.9905 30.346,20.4889 3.411,6.8145 12.771,14.8736 17.275,14.8736 3.641,0 4.38,-2.9348 4.972,-19.7633 0.496,-14.0991 1.932,-22.5671 3.94,-23.2365 0.532,-0.1773 4.123,3.602 7.979,8.3984 25.24,31.3916 49.855,48.7287 93.595,65.9236 11.436,4.4957 63.623,22.7768 78.583,27.5273 22.073,7.0096 43.166,25.8446 52.842,47.1845 8.721,19.2342 8.649,41.195 -0.194,58.7959 -1.846,3.6748 -5.864,8.9684 -10.416,13.7243 -7.544,7.8808 -9.359,11.3382 -5.294,10.0823 1.165,-0.3598 6.247,-2.2908 11.294,-4.2912 l 9.177,-3.637 8.234,8.2275 c 13.296,13.2851 27.817,20.4755 49.209,24.3655 13.89,2.5259 42.398,2.127 73.37,-1.0265 13.717,-1.3967 26.9,-2.2899 29.296,-1.9851 6.424,0.8173 16.922,4.6254 25.862,9.3814 47.468,25.2517 72.46,90.8886 58.26,153.0098 -1.243,5.4349 -2.928,12.8448 -3.745,16.4665 -4.348,19.278 -16.097,31.4595 -33.244,34.4698 -18.027,3.1646 -42.994,-6.1088 -60.448,-22.4518 -6.624,-6.2034 -8.248,-7.1898 -18.303,-11.1214 -46.406,-18.1451 -91.636,-24.6566 -189.194,-27.237 -30.328,-0.8022 -41.723,-2.1392 -84.23,-9.8832 -38.335,-6.9839 -57.111,-8.9943 -76.23,-8.1624 -23.461,1.0209 -42.089,5.6417 -56.097,13.9155 -11.087,6.549 -10.664,7.4149 3.63,7.4216 13.86,0.01 20.827,1.041 27.459,4.0774 6.455,2.9552 9.355,6.9056 11.82,16.1039 10.438,38.9536 36.87,80.4209 81.023,127.1161 12.259,12.9646 17.446,19.3499 36.377,44.7787 26.453,35.5328 40.156,50.5279 55.634,60.8811 14.05,9.3975 22.47,11.6048 41.767,10.949 18.067,-0.6141 30.395,-3.8463 41.128,-10.7831 3.177,-2.0534 6.202,-3.7335 6.723,-3.7335 0.521,0 2.656,0.8719 4.745,1.9376 5.162,2.6334 6.797,6.6585 6.883,16.9435 0.06,7.6787 -0.127,8.4489 -4.037,16.3512 -7.558,15.2768 -25.628,30.5028 -51.422,43.3291 -21.922,10.901 -42.851,17.3186 -69.172,21.2107 -15.988,2.3641 -33.74,3.2851 -35.997,1.8675 z m 289.045,-387.2137 c 1.388,-5.514 1.27,-12.3893 -0.289,-16.7568 -0.692,-1.9401 -4.536,-9.5631 -8.541,-16.94 -5.957,-10.9713 -8.59,-14.7483 -14.464,-20.7507 -14.014,-14.3213 -26.079,-20.3213 -42.525,-21.148 -5.029,-0.2527 -11.179,0.017 -13.95,0.6109 -10.483,2.2482 -19.872,8.4054 -25.772,16.9013 l -3.046,4.3861 v 12.705 c 0,12.5917 0.02,12.7371 2.748,16.2974 1.512,1.9759 4.667,4.5679 7.013,5.7601 4.025,2.0452 4.494,2.0898 8.31,0.7894 4.648,-1.5837 4.551,-1.0691 2.628,-13.8243 -0.773,-5.1311 -1.406,-10.9737 -1.406,-12.9836 0,-3.4855 0.226,-3.7592 4.888,-5.919 6.093,-2.8232 12.856,-3.706 21.899,-2.8586 8.711,0.8163 15.387,4.5659 24.996,14.0381 5.891,5.8077 6.566,6.8488 6.566,10.1314 v 3.6586 l -4.538,-2.2993 c -2.495,-1.2646 -7.109,-2.9658 -10.252,-3.7803 -5.936,-1.5382 -18.149,-2.0355 -18.149,-0.739 0,1.6023 15.432,18.3306 20.963,22.7232 10.465,8.312 25.081,14.0326 36.098,14.1289 l 5.77,0.05 z m -343.395,-44.3018 c 18.549,-2.9455 27.47,-7.3846 36.058,-17.9429 5.258,-6.4641 17.55,-30.7902 18.27,-36.1548 l 0.491,-3.66 11.411,0.026 c 14.077,0.032 21.768,-1.6368 31.942,-6.9298 18.93,-9.8487 26.94,-24.7725 26.98,-50.2684 0.02,-12.212 -2.339,-21.9029 -8.415,-34.5767 -9.367,-19.5393 -28.807,-42.2596 -44.426,-51.9207 -21.292,-13.1708 -40.423,-20.7739 -61.376,-24.3923 -9.831,-1.6977 -34.621,-1.7911 -43.874,-0.1654 -5.929,1.0419 -6.126,1.167 -6.408,4.0822 -0.326,3.3692 -1.202,2.9638 14.913,6.9041 40.565,9.9187 67.834,22.2161 91.381,41.2096 24.541,19.7943 35.928,38.2699 37.237,60.4178 0.932,15.76 -3.015,27.0662 -10.957,31.3886 -10.713,5.831 -25.346,6.9559 -37.535,2.8853 -15.122,-5.0498 -22.329,-9.7848 -57.327,-37.6632 -30.472,-24.2728 -39.154,-30.506 -49.655,-35.6492 -11.412,-5.5895 -16.846,-6.4878 -35.989,-5.9497 -14.659,0.412 -16.404,0.657 -24.713,3.4699 -8.463,2.8651 -28.694,12.7522 -37.409,18.2824 -2.492,1.5808 -4,3.2367 -4,4.3905 0,2.0375 -0.771,2.0435 16.94,-0.1316 9.435,-1.1587 26.131,-4.6208 38.391,-7.9608 4.811,-1.3106 9.15,-2.248 9.643,-2.083 0.493,0.1649 -1.256,3.8806 -3.887,8.257 -11.425,19.0035 -13.297,25.4665 -13.236,45.6864 0.06,19.3562 1.812,29.8239 6.607,39.4534 8.346,16.7617 27.501,35.5917 43.474,42.7378 5.883,2.6319 18.204,6.2452 23.942,7.0212 6.906,0.934 23.345,0.5359 31.527,-0.7635 z"
               id="path178-2-0"
               transform="scale(0.26458333)" /><path
               style="fill:#1a1a1a;fill-opacity:1;stroke:none;stroke-width:10.6709;stroke-linecap:round;stroke-linejoin:round;stroke-dasharray:none;stroke-opacity:1"
               d="m 15636.359,4526.8427 c 0.343,-17.4472 0.815,-21.5593 2.408,-20.9665 0.618,0.2298 9.496,2.4803 19.731,5.0013 18.509,4.5593 18.605,4.5961 18.057,6.9364 -0.303,1.294 -1.266,3.0349 -2.139,3.8685 -0.873,0.8337 -9.86,5.7437 -19.971,10.9111 l -18.383,9.3953 z"
               id="path179-5-31"
               transform="scale(0.26458333)" /><path
               style="fill:#1a1a1a;fill-opacity:1;stroke:none;stroke-width:10.6709;stroke-linecap:round;stroke-linejoin:round;stroke-dasharray:none;stroke-opacity:1"
               d="m 15525.395,4716.117 c 0.416,-30.4999 -1.307,-45.8428 -5.148,-45.8428 -0.677,0 -5.914,4.4263 -11.639,9.8362 -10.964,10.3623 -19.71,15.7455 -30.835,18.9795 -4.88,1.4188 -5.241,1.4057 -6.843,-0.2482 -2.27,-2.3439 -34.972,-45.215 -60.197,-78.917 -30.33,-40.5233 -50.863,-69.1249 -52.917,-73.7128 -6.894,-15.3956 1.104,-31.5851 16.655,-33.7167 2.966,-0.4065 6.107,0 10.591,1.3752 3.505,1.0742 10.609,2.7667 15.785,3.7611 37.717,7.2457 71.77,39.089 82.47,77.1193 2.582,9.1752 17.935,40.1561 25.796,52.0536 6.895,10.437 16.843,20.269 24.097,23.8181 2.79,1.3652 8.33,3.1053 12.31,3.8669 9.268,1.7733 14.888,4.4437 19.053,9.0538 2.744,3.0377 3.321,4.3983 3.321,7.8308 0,7.9144 -4.967,15.8693 -17.5,28.0222 -6.403,6.2094 -14.18,12.5903 -21.556,17.6874 l -3.764,2.6013 z"
               id="path181-8-8"
               transform="scale(0.26458333)" /><path
               style="fill:#1a1a1a;fill-opacity:1;stroke:none;stroke-width:10.6709;stroke-linecap:round;stroke-linejoin:round;stroke-dasharray:none;stroke-opacity:1"
               d="m 15496.679,4724.9596 c -5.782,-4.9728 -10.546,-9.334 -10.587,-9.6916 -0.07,-0.5651 27.509,-24.3309 27.798,-23.9593 0.297,0.3829 -5.821,41.9404 -6.227,42.2883 -0.259,0.2222 -5.201,-3.6646 -10.984,-8.6374 z"
               id="path182-6-4"
               transform="scale(0.26458333)" /><path
               style="fill:#1a1a1a;fill-opacity:1;stroke:none;stroke-width:10.6709;stroke-linecap:round;stroke-linejoin:round;stroke-dasharray:none;stroke-opacity:1"
               d="m 15983.262,4371.2146 c -2.578,-2.0795 -4.328,-5.7343 -6.413,-13.39 -2.408,-8.8438 -5.626,-15.4607 -16.02,-32.9389 -90.296,-151.8456 -217.675,-256.8796 -377.353,-311.1554 -55.011,-18.699 -111.69,-30.8656 -172.321,-36.9901 -29.014,-2.9308 -48.457,-3.8316 -82.502,-3.8224 -46.365,0.012 -68.115,1.5938 -112.735,8.1968 -27.206,4.0261 -40.805,4.5085 -48.938,1.7358 -5.854,-1.9957 -15.78,-9.2147 -26.701,-19.418 l -7.408,-6.9217 2.703,-0.7402 c 5.076,-1.3904 43.147,-9.0879 54.464,-11.012 17.39,-2.9568 59.326,-8.3044 78.138,-9.9642 92.95,-8.2007 196.936,1.6755 287.715,27.3262 161.724,45.6968 295.151,139.7795 398.478,280.9783 32.747,44.7487 48.31,69.2956 59.611,94.0221 3.983,8.7139 11.295,28.1653 11.295,30.046 0,0.7792 -12.895,3.3825 -23.527,4.7498 -10.711,1.3773 -16.164,1.1702 -18.486,-0.7021 z"
               id="path187-4-8"
               transform="scale(0.26458333)" /><path
               style="fill:#1a1a1a;fill-opacity:1;stroke:none;stroke-width:10.6709;stroke-linecap:round;stroke-linejoin:round;stroke-dasharray:none;stroke-opacity:1"
               d="m 15341.158,4389.2771 c -12.695,-4.3237 -26.952,-14.2887 -36.011,-25.1696 -6.568,-7.8893 -13.632,-22.898 -15.861,-33.7018 -2.515,-12.1889 -2.529,-29.8985 -0.03,-37.3123 3.614,-10.7197 9.869,-19.4395 17.633,-24.5819 7.426,-4.919 8.491,-4.6134 29.96,8.6005 12.66,7.7917 18.486,12.5311 20.782,16.9055 1.808,3.4432 1.719,3.8207 -1.295,5.5349 -3.168,1.8014 -8.943,12.3987 -11.032,20.2439 -4.661,17.4991 1.341,41.3922 13.5,53.7474 l 5.093,5.1745 7.18,-0.3442 c 5.621,-0.2695 8.546,-0.9879 13.467,-3.3078 7.146,-3.369 9.862,-6.6931 13.421,-16.4264 1.205,-3.2952 3.133,-8.5323 4.283,-11.638 1.647,-4.4445 1.974,-6.7987 1.535,-11.058 -0.306,-2.9763 -0.196,-5.4114 0.245,-5.4114 0.44,0 2.92,0.8806 5.51,1.9568 l 4.708,1.9569 0.578,5.8073 c 1.15,11.5605 -5.154,29.4101 -13.407,37.9612 -11.175,11.5788 -42.084,17.2531 -60.261,11.0625 z"
               id="path191-7-8"
               transform="scale(0.26458333)" /><path
               style="fill:#1a1a1a;fill-opacity:1;stroke:none;stroke-width:10.6709;stroke-linecap:round;stroke-linejoin:round;stroke-dasharray:none;stroke-opacity:1"
               d="m 15141.57,4079.1069 c -4.4,-3.1688 -13.717,-9.5704 -20.704,-14.2257 -21.93,-14.6096 -34.813,-25.6247 -49.231,-42.0928 -35.794,-40.8824 -58.618,-81.9373 -65.999,-118.7144 -3,-14.9531 -3.958,-38.4516 -1.567,-38.4516 0.366,0 2.512,3.2822 4.769,7.2937 12.339,21.9333 25.028,38.4974 44.216,57.72 24.637,24.6827 54.005,47.597 103.574,80.8143 23.38,15.6674 35.453,23.0017 49.278,29.936 12.469,6.2545 20.564,11.375 19.838,12.5497 -0.289,0.4676 -1.908,0.8501 -3.598,0.8501 -5.729,0 -20.777,2.9718 -29.285,5.7835 -9.985,3.2992 -18.01,7.6034 -25.395,13.6191 -5.775,4.7044 -15.285,10.7234 -16.9,10.6963 -0.548,-0.01 -4.596,-2.6093 -8.996,-5.7782 z"
               id="path198-8-7"
               transform="scale(0.26458333)" /><path
               style="fill:#1a1a1a;fill-opacity:1;stroke:none;stroke-width:10.6709;stroke-linecap:round;stroke-linejoin:round;stroke-dasharray:none;stroke-opacity:1"
               d="m 15087.455,4203.8841 c -44.288,-32.3594 -80.953,-54.1447 -124.713,-74.1005 -76.076,-34.6933 -121.246,-65.2295 -161.967,-109.4945 -24.139,-26.2402 -40.294,-52.569 -49.764,-81.1064 -5.24,-15.7895 -6.64,-23.3151 -7.248,-38.9743 -0.61,-15.7085 -0.05,-16.8402 4.881,-9.8616 9.783,13.8437 33.912,38.4329 51.773,52.7605 21.947,17.6055 53.989,37.1482 82.023,50.0269 27.349,12.5636 51.251,21.4089 95.376,35.296 51.957,16.3517 73.412,25.1291 108.867,44.5392 25.398,13.9047 43.455,24.9616 57.648,35.3014 11.641,8.4799 30.611,24.7432 32.094,27.5139 0.723,1.3516 -0.423,2.0376 -7.828,4.6859 -12.713,4.5466 -25.702,11.3683 -32.753,17.2018 -8.646,7.1521 -14.795,15.7527 -22.996,32.1637 -3.88,7.7642 -8.64,15.9577 -10.578,18.2077 l -3.523,4.0909 z"
               id="path199-0-2"
               transform="scale(0.26458333)" /><path
               style="fill:#1a1a1a;fill-opacity:1;stroke:none;stroke-width:10.6709;stroke-linecap:round;stroke-linejoin:round;stroke-dasharray:none;stroke-opacity:1"
               d="m 14825.827,4352.1326 c -25.211,-6.5703 -57.037,-10.9263 -92.935,-12.7201 -10.964,-0.5479 -11.999,-0.7544 -11.999,-2.393 0,-3.7082 32.905,-35.3601 53.172,-51.1468 26.013,-20.2619 52.107,-32.4678 71.803,-33.5867 l 5.924,-0.3366 2.205,5.4114 c 1.213,2.9763 7.846,14.4109 14.739,25.4101 11.625,18.5483 16.774,28.2712 16.829,31.7757 0.01,0.7836 -1.669,2.4701 -3.736,3.7477 -2.067,1.2776 -7.019,6.2854 -11.004,11.1285 -10.009,12.1643 -19.817,21.782 -24.294,23.8219 -5,2.2785 -8.393,2.0962 -20.704,-1.1121 z"
               id="path205-7-8"
               transform="scale(0.26458333)" /><path
               style="fill:#1a1a1a;fill-opacity:1;stroke:none;stroke-width:10.6709;stroke-linecap:round;stroke-linejoin:round;stroke-dasharray:none;stroke-opacity:1"
               d="m 14638.435,4562.3251 c 0.283,-0.9298 2.042,-6.7726 3.908,-12.9839 9.141,-30.4219 26.2,-64.7037 44.734,-89.8973 21.266,-28.9061 52.877,-56.0709 84.636,-72.732 16.801,-8.8139 31.573,-13.5056 47.878,-15.206 l 5.999,-0.6256 -0.634,2.5254 c -0.348,1.389 -1.82,4.0629 -3.27,5.942 -6.192,8.022 -22.057,30.6081 -28.696,40.8534 -15.103,23.3027 -25.105,42.6316 -35.345,68.3022 -11.516,28.8686 -13.155,30.6797 -34.112,37.6949 -15.811,5.2929 -48.783,19.3636 -68.36,29.173 -12.628,6.3274 -17.115,8.1914 -16.738,6.9539 z"
               id="path212-1-6"
               transform="scale(0.26458333)" /><path
               style="fill:#1a1a1a;fill-opacity:1;stroke:none;stroke-width:10.6709;stroke-linecap:round;stroke-linejoin:round;stroke-dasharray:none;stroke-opacity:1"
               d="m 14901.282,4398.8411 c -21.649,-12.5937 -39.765,-23.3017 -40.259,-23.7956 -0.57,-0.5699 7.342,-7.5968 21.656,-19.2328 l 22.554,-18.3348 6.876,6.5178 c 17.067,16.1774 42.802,28.8087 91.392,44.8564 13.69,4.5211 13.526,4.0781 4.01,10.8272 -7.847,5.566 -17.709,10.3534 -29.353,14.2496 -10.403,3.4813 -29.945,7.8992 -34.692,7.8432 -1.943,-0.023 -15.092,-7.1702 -42.184,-22.931 z"
               id="path218-6-5"
               transform="scale(0.26458333)" /><path
               style="fill:#1a1a1a;fill-opacity:1;stroke:none;stroke-width:10.6709;stroke-linecap:round;stroke-linejoin:round;stroke-dasharray:none;stroke-opacity:1"
               d="m 14841.713,4476.49 c -4.346,-2.6501 -5.063,-6.0077 -5.063,-23.6853 0,-26.6898 3.014,-40.4157 11.12,-50.6344 l 1.777,-2.2395 6.989,5.5334 c 3.845,3.0433 15.394,11.6741 25.666,19.1795 20.394,14.9017 33.694,25.3505 34.139,26.8217 0.988,3.2612 -35.464,20.7286 -52.179,25.0034 -9.349,2.3912 -18.548,2.3999 -22.449,0.021 z"
               id="path220-4-7"
               transform="scale(0.26458333)" /><path
               style="fill:#1a1a1a;fill-opacity:1;stroke:none;stroke-width:10.6709;stroke-linecap:round;stroke-linejoin:round;stroke-dasharray:none;stroke-opacity:1"
               d="m 14773.595,4615.4013 c -3.907,-1.3322 -7.494,-7.2848 -10.089,-16.7426 -2.629,-9.5829 -2.332,-42.1353 0.506,-55.4348 2.567,-12.0278 7.567,-28.306 12.576,-40.9384 7.435,-18.7495 28.432,-58.3228 39.46,-74.369 4.542,-6.6095 11.194,-13.8412 11.187,-12.1627 0,0.4897 -1.134,6.3959 -2.515,13.1249 -2.065,10.0655 -2.518,14.8205 -2.554,26.8217 -0.04,13.0314 0.185,15.1602 2.097,19.9589 3.99,10.0153 14.577,16.7445 26.343,16.7445 h 3.952 l -2.72,5.4114 c -4.913,9.7746 -9.657,23.8949 -13.026,38.7709 -7.125,31.4651 -12.653,40.7994 -36.984,62.4434 -12.519,11.1374 -21.325,17.6522 -23.718,17.5482 -0.671,-0.029 -2.703,-0.5586 -4.515,-1.1764 z"
               id="path221-0-2"
               transform="scale(0.26458333)" /><path
               style="fill:#1a1a1a;fill-opacity:1;stroke:none;stroke-width:10.6709;stroke-linecap:round;stroke-linejoin:round;stroke-dasharray:none;stroke-opacity:1"
               d="m 14856.238,4608.2252 c -6.465,-5.0857 -9.236,-15.5391 -9.236,-34.8451 0,-18.5719 3.705,-36.0545 12.01,-56.6662 4.972,-12.3399 9.037,-18.9257 15.848,-25.6768 5.745,-5.6936 8.108,-7.1166 24.858,-14.9674 4.925,-2.3083 13.491,-7.1868 19.035,-10.841 20.006,-13.1855 20.769,-13.2615 35.536,-3.5399 3.882,2.5558 7.159,4.72 7.283,4.8093 0.124,0.089 0.474,1.4044 0.778,2.9225 0.469,2.3455 -0.787,4.8089 -8.36,16.4008 -14.688,22.4803 -27.653,48.1641 -39.6,78.4487 -5.375,13.6256 -7.017,16.8854 -11.064,21.9637 -3.686,4.6244 -11.777,11.0888 -18.035,14.4085 -2.425,1.2865 -4.409,2.8522 -4.409,3.4793 0,1.3833 -9.898,4.5528 -16.981,5.4378 -4.402,0.55 -5.514,0.3565 -7.663,-1.3342 z"
               id="path222-5-7"
               transform="scale(0.26458333)" /><path
               style="fill:#1a1a1a;fill-opacity:1;stroke:none;stroke-width:10.6709;stroke-linecap:round;stroke-linejoin:round;stroke-dasharray:none;stroke-opacity:1"
               d="m 14991.276,4813.103 c -15.856,-0.8501 -34.805,-5.2382 -45.179,-10.4621 -6.662,-3.355 -17.165,-10.2849 -23.035,-15.1981 -3.931,-3.29 -6.361,-9.3896 -11.582,-29.0652 -3.88,-14.6229 -4.798,-26.1753 -4.608,-57.9877 0.376,-62.9119 16.192,-120.2352 52.325,-189.6344 11.927,-22.9084 16.117,-29.8169 20.658,-34.0647 l 2.21,-2.0669 8.233,4.2041 c 15.126,7.7233 30.59,11.933 55.455,15.0952 l 12.881,1.6381 -4.721,6.656 c -2.596,3.6608 -6.591,9.197 -8.877,12.3027 -11.835,16.0786 -26.208,42.4207 -32.837,60.1796 -6.408,17.1648 -10.784,37.0039 -12.356,56.0118 l -0.659,7.9635 2.646,-1.7336 c 1.455,-0.9534 3.953,-2.4949 5.55,-3.4256 3.338,-1.9442 23.855,-8.0124 24.594,-7.2737 0.27,0.2703 -0.6,4.2532 -1.934,8.851 -3.625,12.4968 -6.697,28.8023 -9.289,49.2979 -4.447,35.16 -4.615,37.8301 -3.51,55.5257 1.211,19.3822 2.661,28.2644 7.197,44.0801 2.668,9.3053 6.464,28.401 5.759,28.9782 -0.733,0.6011 -28.399,0.6922 -38.921,0.1281 z"
               id="path223-8-9"
               transform="scale(0.26458333)" /><path
               style="fill:#1a1a1a;fill-opacity:1;stroke:none;stroke-width:10.6709;stroke-linecap:round;stroke-linejoin:round;stroke-dasharray:none;stroke-opacity:1"
               d="m 15126.586,4742.5805 c -13.068,-1.4273 -35.935,-8.9067 -53.155,-17.3863 -12.326,-6.0696 -22.879,-14.978 -29.364,-24.7886 -2.647,-4.0034 -2.722,-4.4487 -2.624,-15.4797 0.07,-7.4145 0.821,-15.1153 2.175,-22.1806 1.141,-5.9525 2.688,-14.846 3.438,-19.7634 1.502,-9.8461 3.28,-15.3437 6.023,-18.6247 4.515,-5.4019 34.281,-12.4023 60.041,-14.1206 8.734,-0.5826 10.52,-0.4829 10.118,0.5645 -1.629,4.2462 -4.657,18.333 -6.204,28.8659 -1.559,10.6077 -4.241,49.1991 -3.474,49.9668 0.15,0.1498 2.596,-1.2123 5.436,-3.0269 6.748,-4.312 23.289,-12.6505 33.124,-16.6985 6.812,-2.8039 24.571,-9.0453 25.737,-9.0453 0.893,0 0.346,7.4122 -1.077,14.5873 -1.158,5.8419 -1.364,10.692 -0.918,21.6456 0.51,12.5447 -0.429,29.9081 -1.813,33.5142 -0.276,0.7188 -5.05,2.9248 -10.608,4.9021 -5.559,1.9773 -12.224,4.3611 -14.812,5.2972 -5.976,2.1616 -13.173,2.7398 -22.043,1.771 z"
               id="path224-9-0"
               transform="scale(0.26458333)" /><path
               style="fill:#1a1a1a;fill-opacity:1;stroke:none;stroke-width:10.6709;stroke-linecap:round;stroke-linejoin:round;stroke-dasharray:none;stroke-opacity:1"
               d="m 15115.044,4859.4246 c -16.421,-2.5929 -32.323,-9.9324 -41.824,-19.3032 -8.33,-8.2167 -12.282,-16.6132 -22.8,-48.4436 -11.672,-35.3224 -15.32,-52.4978 -13.431,-63.2273 0.557,-3.1573 1.223,-5.9515 1.48,-6.2094 0.515,-0.5149 0.386,-0.6045 12.371,8.5494 19.275,14.7215 49.564,25.3481 76.019,26.6709 13.473,0.6738 25.866,-1.1912 41.313,-6.2167 6.423,-2.0895 11.952,-3.7992 12.286,-3.7992 1.12,0 5.049,8.7771 14.743,32.939 5.296,13.1991 11.76,28.5457 14.365,34.1035 l 4.735,10.1051 -1.623,4.248 c -1.875,4.9107 -5.873,8.4705 -17.263,15.3723 -10.068,6.0999 -19.326,9.9165 -31.42,12.9524 -8.249,2.0705 -12.283,2.4899 -26.66,2.7717 -9.317,0.1826 -19.348,-0.048 -22.291,-0.5129 z"
               id="path225-2-01"
               transform="scale(0.26458333)" /><path
               style="fill:#1a1a1a;fill-opacity:1;stroke:none;stroke-width:10.6709;stroke-linecap:round;stroke-linejoin:round;stroke-dasharray:none;stroke-opacity:1"
               d="m 15191.449,4977.0307 c -20.019,-2.1644 -40.956,-7.9231 -49.646,-13.655 -5.906,-3.8962 -8.789,-7.7095 -15.864,-20.9847 -2.936,-5.5092 -11.278,-20.3925 -18.538,-33.074 -11.356,-19.8386 -23.202,-42.4492 -23.23,-44.3415 0,-0.3189 4.12,0.8306 9.167,2.5544 14.575,4.9782 24.473,6.3862 44.938,6.3923 19.255,0.01 28.072,-1.1652 42.35,-5.6245 10.941,-3.4168 26.989,-11.6677 36.612,-18.8235 6.607,-4.9131 8.539,-5.9424 9.139,-4.8698 2.63,4.6985 23.008,31.5923 42.069,55.5198 20.899,26.2344 28.37,36.8358 28.397,40.2952 0.03,3.7347 -19.185,19.5023 -30.869,25.3326 -9.654,4.8171 -19.362,8.0499 -29.883,9.9505 -10.108,1.8259 -33.58,2.5243 -44.642,1.3282 z"
               id="path226-3-7"
               transform="scale(0.26458333)" /><path
               style="fill:#1a1a1a;fill-opacity:1;stroke:none;stroke-width:10.6709;stroke-linecap:round;stroke-linejoin:round;stroke-dasharray:none;stroke-opacity:1"
               d="m 15118.225,5139.8194 c -26.073,-2.5181 -43.129,-9.9808 -58.987,-25.8103 -13.171,-13.1463 -15.273,-17.4385 -33.824,-69.049 -6.581,-18.3076 -14.233,-39.1834 -17.005,-46.3906 -3.942,-10.249 -4.697,-13.004 -3.464,-12.6451 47.256,13.7637 74.151,14.1287 105.923,1.4375 5.112,-2.042 10.829,-3.9393 12.705,-4.2162 3.124,-0.4612 3.62,-0.2007 5.918,3.1053 3.544,5.0994 29.144,59.2967 37.009,78.3497 8.458,20.4906 15.601,43.9641 18.432,60.5748 1.299,7.6168 1.718,7.1271 -9.011,10.5127 -15.036,4.7444 -35.887,6.2375 -57.696,4.1312 z"
               id="path229-8-1"
               transform="scale(0.26458333)" /><path
               style="fill:#1a1a1a;fill-opacity:1;stroke:none;stroke-width:10.6709;stroke-linecap:round;stroke-linejoin:round;stroke-dasharray:none;stroke-opacity:1"
               d="m 15050.876,4980.3578 c -16.758,-2.7174 -39.013,-9.6353 -47.92,-14.8959 -10.808,-6.3835 -17.462,-15.2526 -26.016,-34.6728 -3.035,-6.8924 -7.716,-17.1901 -10.401,-22.8838 -12.267,-26.0138 -25.673,-58.8814 -34.255,-83.9843 -4.059,-11.8699 -4.176,-12.5048 -2.483,-13.4109 2.654,-1.4205 3.243,-1.2596 9.649,2.6374 7.777,4.7318 16.55,8.1493 29.469,11.4803 20.83,5.371 39.452,5.5499 54.452,0.5233 3.673,-1.2307 8.583,-2.5175 10.912,-2.8595 l 4.235,-0.6218 3.059,5.1497 c 1.682,2.8324 3.059,5.3954 3.059,5.6957 0,0.3002 2.555,6.5194 5.677,13.8203 5.901,13.7957 10.287,21.8974 43.895,81.0968 15.17,26.721 20.443,36.8318 21.274,40.7949 1.497,7.1377 1.094,7.4201 -16.241,11.3819 -8.883,2.03 -37.71,2.4763 -48.365,0.7487 z"
               id="path230-3-9"
               transform="scale(0.26458333)" /><path
               style="fill:#1a1a1a;fill-opacity:1;stroke:none;stroke-width:10.6709;stroke-linecap:round;stroke-linejoin:round;stroke-dasharray:none;stroke-opacity:1"
               d="m 14923.988,5033.1681 c -5.63,-1.5156 -9.957,-4.4025 -19.911,-13.282 -13.61,-12.1422 -23.609,-25.7014 -32.609,-44.2206 -8.566,-17.6268 -14.08,-36.4507 -15.582,-53.1923 l -0.635,-7.0777 10.248,0.019 10.247,0.019 4.877,-3.5774 c 7.188,-5.2723 16.242,-15.5041 20.247,-22.8806 1.935,-3.5645 6.593,-12.5921 10.352,-20.0612 3.759,-7.4692 7.257,-13.7087 7.775,-13.8655 0.518,-0.1568 2.999,4.8956 5.514,11.2275 2.515,6.332 11.125,24.853 19.134,41.1578 8.009,16.3047 16.311,33.88 18.448,39.0562 3.746,9.0684 3.901,9.8547 4.258,21.5953 0.579,19.0345 -2.086,31.0874 -10.377,46.9214 -8.634,16.4909 -18.14,21.8879 -31.986,18.1604 z"
               id="path231-6-0"
               transform="scale(0.26458333)" /><path
               style="fill:#1a1a1a;fill-opacity:1;stroke:none;stroke-width:10.6709;stroke-linecap:round;stroke-linejoin:round;stroke-dasharray:none;stroke-opacity:1"
               d="m 14854.692,4899.8639 c -11.129,-7.4316 -22.48,-21.6044 -34.26,-42.7787 -8.868,-15.9395 -13.627,-29.2698 -16.125,-45.1734 -1.745,-11.1049 -2.056,-60.3323 -0.394,-62.3488 1.74,-2.112 3.193,-1.2574 6.823,4.0128 4.64,6.7367 13.271,14.6849 19.013,17.509 3.499,1.7211 6.066,2.2308 11.136,2.2111 11.829,-0.046 15.761,-3.5559 30.586,-27.3002 7.473,-11.9697 16.932,-23.9602 18.901,-23.9602 0.474,0 0.862,2.2699 0.862,5.0442 0,6.9272 2.536,31.6365 4.282,41.7186 0.79,4.5607 2.677,12.739 4.194,18.174 5.02,17.9882 6.07,25.4641 6.084,43.2912 0.01,14.2403 -0.278,17.5358 -2.133,24.3474 -6.202,22.7628 -20.061,43.5553 -31.652,47.4864 -7.453,2.5276 -10.842,2.0904 -17.317,-2.2334 z"
               id="path232-6-4"
               transform="scale(0.26458333)" /><path
               style="fill:#1a1a1a;fill-opacity:1;stroke:none;stroke-width:10.6709;stroke-linecap:round;stroke-linejoin:round;stroke-dasharray:none;stroke-opacity:1"
               d="m 14832.486,4757.399 c -3.943,-1.22 -7.763,-5.0482 -13.689,-13.7179 -19.16,-28.0323 -26.784,-75.4039 -17.853,-110.9248 2.55,-10.1399 9.392,-23.6096 14.302,-28.1549 2.196,-2.0328 7.265,-6.7836 11.264,-10.5574 4.897,-4.6215 7.416,-6.4326 7.717,-5.5481 0.246,0.7222 0.906,3.1053 1.467,5.2957 1.451,5.6724 5.891,15.1163 9.261,19.6985 1.584,2.1548 4.858,5.2778 7.274,6.9402 4.165,2.8656 4.741,2.999 11.111,2.5717 5.489,-0.3681 9.476,-1.5746 21.777,-6.5904 8.282,-3.3769 15.182,-6.0312 15.335,-5.8986 0.152,0.1327 -0.58,5.2691 -1.627,11.4142 -1.048,6.1452 -2.974,18.5843 -4.282,27.6425 -1.307,9.0583 -3.037,20.0693 -3.845,24.469 -2.223,12.1103 -9.47,36.0528 -13.204,43.6235 -3.374,6.8425 -12.159,19.1025 -15.794,22.0445 -1.103,0.8919 -3.45,3.5273 -5.217,5.8566 -1.767,2.3292 -5.137,6.2466 -7.488,8.7053 -3.925,4.1036 -4.626,4.4622 -8.546,4.3716 -2.348,-0.054 -5.932,-0.6128 -7.963,-1.2412 z"
               id="path233-6-7"
               transform="scale(0.26458333)" /><path
               style="fill:#1a1a1a;fill-opacity:1;stroke:none;stroke-width:10.6709;stroke-linecap:round;stroke-linejoin:round;stroke-dasharray:none;stroke-opacity:1"
               d="m 14762.772,4806.3661 c -4.774,-2.0919 -8.792,-7.1466 -15.037,-18.9199 -8.696,-16.3912 -10.626,-22.8682 -11.862,-39.7987 -1.607,-22.0258 -0.641,-107.2264 1.352,-119.2528 2.343,-14.1411 5.002,-23.4775 9.353,-32.8418 l 3.924,-8.4455 0.726,4.1742 c 2.591,14.9007 4.21,20.814 7.493,27.3735 4.998,9.9855 7.72,11.5698 18.638,10.8485 4.4,-0.2906 8.9,-0.8005 10,-1.133 1.972,-0.5962 1.982,-0.5351 0.706,4.3851 -0.955,3.6808 -1.293,12.1573 -1.289,32.3122 0,28.7478 0.834,37.9947 4.724,52.7325 2.607,9.8769 3.351,20.5591 1.933,27.7668 -0.622,3.1577 -2.96,10.2717 -5.197,15.809 -4.699,11.6333 -21.255,46.3184 -22.082,46.2637 -0.307,-0.02 -1.829,-0.5935 -3.382,-1.2738 z"
               id="path234-3-6"
               transform="scale(0.26458333)" /><path
               style="fill:#1a1a1a;fill-opacity:1;stroke:none;stroke-width:10.6709;stroke-linecap:round;stroke-linejoin:round;stroke-dasharray:none;stroke-opacity:1"
               d="m 14626.85,4761.1646 c 0.378,-33.7009 6.276,-69.5062 15.981,-97.0003 5.74,-16.2632 18.428,-43.3925 28.17,-60.2316 16.337,-28.2387 38.573,-51.9597 58.126,-62.0086 l 3.059,-1.5718 v 2.8537 c 0,5.9897 -3.068,22.9616 -8.037,44.4529 -8.117,35.1116 -9.088,41.7101 -9.323,63.3225 -0.2,18.3596 -0.277,19.035 -3.151,27.4768 -12.176,35.7629 -46.697,79.9271 -72.659,92.9572 -4.4,2.2081 -8.976,4.3186 -10.17,4.6899 l -2.17,0.6751 z"
               id="path235-1-5"
               transform="scale(0.26458333)" /><path
               style="fill:#1a1a1a;fill-opacity:1;stroke:none;stroke-width:10.6709;stroke-linecap:round;stroke-linejoin:round;stroke-dasharray:none;stroke-opacity:1"
               d="m 14678.832,4959.714 c -2.437,-3.7193 -4.134,-9.3426 -7.258,-24.0458 -7.022,-33.0528 -7.878,-70.1 -2.37,-102.5814 6.087,-35.8928 20.791,-76.9627 35.535,-99.2573 l 4.336,-6.5577 0.683,2.7932 c 0.375,1.5363 2.85,16.1335 5.5,32.4383 5.915,36.3962 9.799,56.1804 16.018,81.5998 2.633,10.7635 5.203,23.5039 5.71,28.3122 1.12,10.6145 1.537,9.8462 -14.173,26.0789 -12.602,13.0209 -15.648,17.4409 -30.162,43.7617 -5.851,10.6111 -10.89,19.5887 -11.197,19.9504 -0.307,0.3616 -1.487,-0.7599 -2.622,-2.4923 z"
               id="path236-6-1"
               transform="scale(0.26458333)" /><path
               style="fill:#1a1a1a;fill-opacity:1;stroke:none;stroke-width:10.6709;stroke-linecap:round;stroke-linejoin:round;stroke-dasharray:none;stroke-opacity:1"
               d="m 14750.184,5088.843 c -13.186,-41.4466 -15.297,-98.8496 -6.183,-168.1422 1.252,-9.5261 2.518,-17.5603 2.811,-17.8539 0.903,-0.9025 2.115,1.8643 2.791,6.3677 0.354,2.3605 3.594,12.5603 7.201,22.6663 7.574,21.2212 20.338,62.9018 24.503,80.0086 4.588,18.8458 3.406,24.511 -10.212,48.9467 -8.044,14.4348 -17.51,29.5753 -19.108,30.5631 -0.455,0.281 -1.266,-0.8693 -1.803,-2.5563 z"
               id="path237-2-4"
               transform="scale(0.26458333)" /><path
               style="fill:#1a1a1a;fill-opacity:1;stroke:none;stroke-width:10.6709;stroke-linecap:round;stroke-linejoin:round;stroke-dasharray:none;stroke-opacity:1"
               d="m 14834.297,5136.4268 c -1.035,-0.2317 -4.551,-1.2831 -7.812,-2.3363 -4.877,-1.5748 -6.362,-2.5677 -8.361,-5.5882 -2.414,-3.6475 -2.428,-3.7761 -1.968,-18.4943 0.803,-25.7079 -0.986,-47.3852 -6.879,-83.3085 -1.509,-9.1994 -2.743,-17.0368 -2.743,-17.4165 0,-0.3797 3.282,-0.7223 7.294,-0.7613 4.768,-0.046 8.305,-0.5983 10.215,-1.5943 5.114,-2.6669 11.924,-11.1754 16.78,-20.9655 2.552,-5.1454 6.133,-11.9317 7.957,-15.0806 l 3.316,-5.7254 5.355,11.9825 c 9.404,21.0422 19.796,37.1351 27.03,41.8573 2.346,1.5314 5.566,4.4148 7.156,6.4077 l 2.891,3.6234 -0.09,18.9633 c -0.12,25.1073 -1.5,32.9316 -8.351,47.3441 -2.81,5.9113 -7.003,13.5901 -9.318,17.0641 -5.134,7.7038 -14.62,17.2491 -21.372,21.5068 -4.611,2.9069 -5.585,3.1525 -12.116,3.0521 -3.906,-0.06 -7.949,-0.2987 -8.984,-0.5304 z"
               id="path238-1-5"
               transform="scale(0.26458333)" /><path
               style="fill:#1a1a1a;fill-opacity:1;stroke:none;stroke-width:10.6709;stroke-linecap:round;stroke-linejoin:round;stroke-dasharray:none;stroke-opacity:1"
               d="m 14807.969,4995.2587 c -2.314,-0.6472 -3.369,-2.0266 -7.43,-9.7116 -8.278,-15.6646 -31.609,-88.994 -45.288,-142.3433 -3.285,-12.8109 -5.901,-23.2924 -5.814,-23.2921 0.09,3e-4 2.489,0.8985 5.336,1.996 6.093,2.3491 16.13,2.7096 20.265,0.7278 2.263,-1.0845 3.144,-2.563 4.988,-8.3732 1.232,-3.8808 2.9,-8.6568 3.707,-10.6133 1.661,-4.0279 5.861,-10.0745 5.861,-8.4378 0,0.5917 0.632,5.8619 1.404,11.7115 4.562,34.56 17.894,65.4129 35.705,82.6309 12.41,11.9967 14.344,18.3006 13.387,43.6299 -0.905,23.9608 -4.565,39.4977 -12.308,52.243 -4.865,8.0092 -7.173,9.801 -13.006,10.0993 -2.722,0.1391 -5.785,0.019 -6.807,-0.2671 z"
               id="path239-9-5"
               transform="scale(0.26458333)" /><path
               style="fill:#1a1a1a;fill-opacity:1;stroke:none;stroke-width:10.6709;stroke-linecap:round;stroke-linejoin:round;stroke-dasharray:none;stroke-opacity:1"
               d="m 14960.65,5168.6662 c -4.122,-1.471 -13.829,-9.2461 -22.047,-17.6591 -9.752,-9.9838 -20.835,-32.3444 -26.394,-53.2531 -2.15,-8.0843 -2.446,-11.0811 -2.529,-25.6244 -0.06,-10.0159 0.391,-19.0891 1.144,-23.1547 l 1.238,-6.6851 5.35,1.259 c 2.956,0.6957 10.655,1.2657 17.207,1.2738 11.572,0.014 11.948,-0.051 15.584,-2.6844 8.183,-5.9272 14.526,-15.6163 21.28,-32.5043 4.723,-11.8088 8.708,-18.724 10.481,-18.1865 1.748,0.5298 4.554,7.3328 20.111,48.7475 14.632,38.9549 19.033,52.571 19.033,58.8889 0,3.7671 -5.387,18.8922 -10.343,29.042 -4.96,10.1588 -10.502,18.3678 -17.321,25.6571 -13.268,14.1838 -22.727,18.4765 -32.794,14.8833 z"
               id="path240-7-99"
               transform="scale(0.26458333)" /><path
               style="fill:#1a1a1a;fill-opacity:1;stroke:none;stroke-width:10.6709;stroke-linecap:round;stroke-linejoin:round;stroke-dasharray:none;stroke-opacity:1"
               d="m 14853.736,5243.3402 c -6.698,-0.8689 -16.245,-4.981 -22.119,-9.5278 -7.181,-5.5586 -27.853,-24.3359 -30.247,-27.4751 -3.241,-4.2487 -3.137,-9.4337 0.329,-16.3601 1.482,-2.9616 5.347,-14.552 8.588,-25.7565 l 5.894,-20.3718 3.411,1.4442 c 6.97,2.9512 13.054,3.9856 23.502,3.9966 l 10.679,0.011 7.478,-3.8908 c 8.939,-4.6504 16.571,-11.8146 25.933,-24.3426 3.675,-4.9173 7.777,-9.961 9.115,-11.2082 l 2.435,-2.2677 1.493,3.6793 c 3.659,9.014 7.242,15.7382 13.957,26.1863 9.39,14.6118 11.42,20.8585 11.345,34.901 -0.06,10.8347 -2.198,22.9847 -4.996,28.3646 -12.286,23.6257 -27.834,38.0429 -45.523,42.2137 -6.385,1.5054 -11.964,1.6113 -21.274,0.4038 z"
               id="path241-4-9"
               transform="scale(0.26458333)" /><path
               style="fill:#1a1a1a;fill-opacity:1;stroke:none;stroke-width:10.6709;stroke-linecap:round;stroke-linejoin:round;stroke-dasharray:none;stroke-opacity:1"
               d="m 14960.131,5301.26 c -9.172,-4.5884 -19.523,-15.5841 -24.651,-26.1872 -6.064,-12.5367 -7.859,-21.8027 -7.866,-40.6012 0,-15.7992 0.04,-16.134 3.418,-26.8217 1.884,-5.9526 4.823,-15.769 6.532,-21.8143 l 3.107,-10.9915 5.162,3.2589 c 6.263,3.9544 15.58,6.9651 21.495,6.9462 5.145,-0.016 15.101,-2.2262 18.915,-4.1983 11.292,-5.8396 26.16,-22.8186 34.647,-39.567 1.569,-3.096 3.91,-6.6154 5.204,-7.8208 l 2.351,-2.1915 1.961,8.3546 c 3.524,15.0064 4.129,25.7347 3.6,63.7698 -0.535,38.5161 -1.179,45.4004 -5.442,58.2099 -4.442,13.3471 -8.156,17.7598 -22.522,26.7647 -15.572,9.7607 -30.115,16.2139 -36.539,16.2139 -1.5,0 -5.717,-1.496 -9.372,-3.3245 z"
               id="path242-2-9"
               transform="scale(0.26458333)" /><path
               style="fill:#1a1a1a;fill-opacity:1;stroke:none;stroke-width:10.6709;stroke-linecap:round;stroke-linejoin:round;stroke-dasharray:none;stroke-opacity:1"
               d="m 15157.569,5297.8445 c -15.681,-0.7157 -29.831,-3.2625 -44.105,-7.9382 -25.078,-8.215 -50.4,-24.1725 -56.396,-35.5405 l -2.551,-4.8364 v -46.1145 c 0,-25.363 -0.37,-49.5807 -0.822,-53.817 -0.452,-4.2362 -0.529,-9.6543 -0.171,-12.04 l 0.65,-4.3377 4.877,2.9211 c 23.587,14.1271 52.495,21.4472 80.637,20.4186 15.623,-0.571 22.962,-2.2212 38.548,-8.6682 5.456,-2.2566 10.205,-3.8156 10.555,-3.4644 0.729,0.7326 4.843,25.2665 6.576,39.2242 1.524,12.2691 1.531,56.2552 0.01,69.6424 -1.432,12.6036 -4.483,31.688 -5.819,36.3959 -0.78,2.7476 -1.829,3.867 -5.109,5.4549 -5.896,2.8541 -11.396,3.4065 -26.881,2.6998 z"
               id="path243-0-2"
               transform="scale(0.26458333)" /><path
               style="fill:#1a1a1a;fill-opacity:1;stroke:none;stroke-width:10.6709;stroke-linecap:round;stroke-linejoin:round;stroke-dasharray:none;stroke-opacity:1"
               d="m 15333.087,5420.2719 c -31.727,-0.7223 -34.233,-1.0583 -51.856,-6.9554 -39.741,-13.2982 -74.84,-43.3911 -79.418,-68.0921 -0.978,-5.2741 -0.255,-12.8343 2.343,-24.4975 1.193,-5.3515 10.821,-58.6847 10.821,-59.9364 0,-1.5103 2.84,0.2455 7.751,4.7921 19.88,18.4057 37.378,26.4954 70.361,32.5299 12.975,2.3738 40.607,3.3451 53.13,1.8676 22.272,-2.6276 33.508,-6.2155 55.989,-17.8785 9.031,-4.6848 16.554,-8.3827 16.719,-8.2176 0.496,0.4952 -4.252,36.6879 -6.866,52.3461 -3.088,18.4937 -8.895,41.7225 -13.764,55.0551 -5.392,14.7611 -13.24,29.7534 -17.674,33.7586 -3.766,3.4029 -11.587,6.3779 -15.945,6.0655 -1.329,-0.095 -15.545,-0.4721 -31.591,-0.8374 z"
               id="path244-2-4"
               transform="scale(0.26458333)" /><path
               style="fill:#1a1a1a;fill-opacity:1;stroke:none;stroke-width:0.350094;stroke-linecap:round;stroke-linejoin:round;stroke-opacity:1"
               d="m 4024.3055,1433.8984 c -3.7155,-0.7389 -7.6144,-1.6162 -8.6643,-1.9494 -1.8618,-0.5909 -1.8589,-0.6553 0.1119,-2.6264 1.1116,-1.1113 2.4874,-3.359 3.0576,-4.9947 l 1.0369,-2.9742 1.7626,2.8985 c 0.9695,1.5941 4.5519,4.7611 7.9611,7.0377 6.9151,4.6176 6.3193,4.9127 -5.2658,2.6085 z"
               id="path111-1-5-06" /><path
               style="fill:#1a1a1a;fill-opacity:1;stroke:none;stroke-width:10.6709;stroke-linecap:round;stroke-linejoin:round;stroke-dasharray:none;stroke-opacity:1"
               d="m 15116.16,5395.9528 c -7.798,-2.6039 -46.776,-17.4644 -78.235,-29.8276 -8.608,-3.3829 -16.589,-6.8077 -17.735,-7.6106 -3.47,-2.43 -1.838,-7.9644 8.391,-28.4621 9.285,-18.6062 14.007,-29.8985 18.42,-44.0514 1.957,-6.2763 2.916,-8.0171 5.013,-9.1017 2.463,-1.2734 2.83,-1.161 7.272,2.2263 13.971,10.6538 36.938,22.0452 53.11,26.3424 13.144,3.4928 19.577,4.047 45.408,3.9122 14.361,-0.075 25.175,0.2318 25.175,0.7142 0,0.4652 -1.936,6.5094 -4.302,13.4315 -4.463,13.0559 -11.337,27.7819 -23.364,50.0526 -8.119,15.0331 -10.622,18.5614 -15.863,22.3582 -5.147,3.7286 -12.157,3.7334 -23.29,0.016 z"
               id="path245-5-2"
               transform="scale(0.26458333)" /><path
               style="fill:#1a1a1a;fill-opacity:1;stroke:none;stroke-width:10.6709;stroke-linecap:round;stroke-linejoin:round;stroke-dasharray:none;stroke-opacity:1"
               d="m 14989.11,5341.2886 c -5.847,-0.9928 -9.181,-2.5006 -25.158,-11.3754 -42.995,-23.8839 -67.085,-39.8603 -87.04,-57.724 -4.804,-4.3008 -9.713,-8.8836 -10.909,-10.184 l -2.174,-2.3645 6.666,-1.5054 c 9.285,-2.0967 16.95,-5.3273 29.675,-12.5071 6.02,-3.3967 11.071,-6.0259 11.223,-5.8428 0.153,0.1831 0.998,4.3561 1.878,9.2734 2.013,11.2514 5.69,22.2965 11.437,34.3507 3.91,8.2029 5.584,10.508 13.034,17.9552 6.715,6.7124 10.151,9.3352 16.028,12.2345 7.079,3.492 7.939,3.6875 15.999,3.6377 10.914,-0.067 17.682,-2.2373 34.269,-10.9873 11.325,-5.9742 12.504,-6.41 11.862,-4.3846 -1.322,4.1758 -10.928,25.7236 -14.743,33.0704 -4.108,7.9118 -3.806,7.7525 -12.047,6.3532 z"
               id="path247-2-21"
               transform="scale(0.26458333)" /></g></g><g
           id="g19-7-5-4-0"
           transform="matrix(0.75902928,0,0,1,3161.9631,54.050526)"
           style="fill:#1a1a1a;fill-opacity:1"><path
             d="m 1270.3703,471.5582 v 13.37029 h 10.5833 q 0.635,0 0.9525,-0.42333 0.3528,-0.45861 0.3528,-1.16417 V 471.5582 h 3.7747 v 13.29974 q 0,0.84666 -0.3175,1.55222 -0.2822,0.70555 -0.7761,1.23472 -0.4939,0.49389 -1.1641,0.77611 -0.635,0.24695 -1.3053,0.24695 h -27.94 q -0.7056,0 -1.3406,-0.24695 -0.635,-0.28222 -1.1289,-0.74083 -0.4939,-0.49389 -0.8114,-1.19945 -0.2822,-0.70555 -0.2822,-1.62277 V 471.5582 h 3.7747 v 11.78279 q 0,0.70556 0.2822,1.16417 0.3175,0.42333 1.0231,0.42333 h 10.5481 V 471.5582 Z m 40.64,17.10974 V 471.5582 h -3.81 v 17.10974 z m 47.4487,-13.37029 h -22.5073 v 13.37029 h -3.7747 V 471.5582 h 27.8342 q 0.6703,0 1.3053,0.24695 0.6702,0.24694 1.1641,0.74083 0.4939,0.45861 0.7761,1.16417 0.3175,0.70556 0.3175,1.5875 v 13.37029 h -3.7747 v -11.78279 q 0,-0.70555 -0.4233,-1.12889 -0.3881,-0.45861 -0.9172,-0.45861 z m 54.1161,-3.73945 q 0.6703,0 1.3053,0.28223 0.6703,0.24694 1.1641,0.74083 0.4939,0.45861 0.7762,1.16417 0.3175,0.70555 0.3175,1.55222 v 9.63084 q 0,0.91722 -0.3175,1.62278 -0.2823,0.67028 -0.7762,1.16417 -0.4938,0.45861 -1.1641,0.70555 -0.635,0.24695 -1.3053,0.24695 h -27.8342 V 471.5582 Z m -1.5522,13.37029 q 0.5291,0 0.9172,-0.42333 0.4233,-0.45861 0.4233,-1.16417 v -6.45584 q 0,-0.70555 -0.3527,-1.12889 -0.3175,-0.45861 -0.9525,-0.45861 h -22.5426 v 9.63084 z m 54.1161,-13.37029 q 0.6703,0 1.3053,0.28223 0.6703,0.24694 1.1642,0.74083 0.4938,0.45861 0.7761,1.16417 0.3175,0.70555 0.3175,1.55222 v 9.63084 q 0,0.91722 -0.3175,1.62278 -0.2823,0.67028 -0.7761,1.16417 -0.4939,0.45861 -1.1642,0.70555 -0.635,0.24695 -1.3053,0.24695 h -27.8342 V 471.5582 Z m -1.5522,13.37029 q 0.5292,0 0.9172,-0.42333 0.4233,-0.45861 0.4233,-1.16417 v -6.45584 q 0,-0.70555 -0.3527,-1.12889 -0.3175,-0.45861 -0.9525,-0.45861 h -22.5426 v 9.63084 z m 54.1161,-13.37029 h -27.8342 v 17.10974 h 3.7748 v -6.70278 h 20.8139 l 2.9986,6.70278 h 3.8453 l -2.6812,-6.80862 q 1.1289,-0.28222 1.8698,-1.19944 0.7761,-0.91723 0.7761,-2.43417 v -2.92806 q 0,-0.84667 -0.3175,-1.55222 -0.2822,-0.70556 -0.7761,-1.16417 -0.4939,-0.49389 -1.1642,-0.74083 -0.635,-0.28223 -1.3053,-0.28223 z m -24.0594,3.73945 h 22.4719 q 0.635,0 0.9878,0.3175 0.3881,0.3175 0.3881,1.05834 v 0.38805 q 0,0.70556 -0.4234,0.9525 -0.388,0.21167 -0.9172,0.21167 h -22.5072 z m 80.2217,13.37029 v -13.37029 q 0,-0.84667 -0.3175,-1.55222 -0.2823,-0.70556 -0.7761,-1.16417 -0.4939,-0.49389 -1.1642,-0.74083 -0.635,-0.28223 -1.3053,-0.28223 h -24.2711 q -0.7056,0 -1.3406,0.24695 -0.635,0.24694 -1.1289,0.74083 -0.4939,0.45861 -0.8114,1.16417 -0.2822,0.70556 -0.2822,1.5875 v 13.37029 h 3.7747 v -6.70278 h 23.8478 v 6.70278 z m -27.6226,-11.78279 q 0,-0.70555 0.2823,-1.12889 0.3175,-0.45861 1.023,-0.45861 h 21.2373 q 0.635,0 0.9525,0.45861 0.3527,0.42334 0.3527,1.12889 v 1.34056 h -23.8478 z m 52.3523,-5.32695 q -0.7056,0 -1.3406,0.24695 -0.635,0.24694 -1.1289,0.74083 -0.4939,0.45861 -0.8114,1.16417 -0.2822,0.70556 -0.2822,1.5875 v 9.63084 q 0,0.91722 0.2822,1.62278 0.3175,0.67028 0.8114,1.16417 0.4939,0.45861 1.1289,0.70555 0.635,0.24695 1.3406,0.24695 h 24.2711 q 0.6703,0 1.3053,-0.24695 0.6703,-0.24694 1.1642,-0.70555 0.4938,-0.49389 0.7761,-1.16417 0.3175,-0.70556 0.3175,-1.62278 v -5.46806 h -3.7748 v 3.88056 q 0,0.70556 -0.4233,1.16417 -0.388,0.42333 -0.9172,0.42333 h -21.2725 q -0.5292,0 -0.882,-0.42333 -0.3527,-0.45861 -0.3527,-1.16417 v -6.45584 q 0,-0.70555 0.2822,-1.12889 0.3175,-0.45861 1.023,-0.45861 h 26.3173 v -3.73945 z m 76.835,0 q 0.6703,0 1.3053,0.28223 0.6703,0.24694 1.1642,0.74083 0.4939,0.45861 0.7761,1.16417 0.3175,0.70555 0.3175,1.55222 v 9.63084 q 0,0.91722 -0.3175,1.62278 -0.2822,0.67028 -0.7761,1.16417 -0.4939,0.45861 -1.1642,0.70555 -0.635,0.24695 -1.3053,0.24695 h -24.2711 q -0.7055,0 -1.3405,-0.24695 -0.635,-0.24694 -1.1289,-0.70555 -0.4939,-0.49389 -0.8114,-1.16417 -0.2822,-0.70556 -0.2822,-1.62278 v -9.63084 q 0,-0.88194 0.2822,-1.5875 0.3175,-0.70556 0.8114,-1.16417 0.4939,-0.49389 1.1289,-0.74083 0.635,-0.24695 1.3405,-0.24695 z m -1.5522,13.37029 q 0.5292,0 0.9172,-0.42333 0.4234,-0.45861 0.4234,-1.16417 v -6.45584 q 0,-0.70555 -0.3528,-1.12889 -0.3175,-0.45861 -0.9525,-0.45861 h -21.2372 q -0.7056,0 -1.0231,0.45861 -0.2822,0.42334 -0.2822,1.12889 v 6.45584 q 0,0.70556 0.3528,1.16417 0.3527,0.42333 0.8819,0.42333 z m 52.5639,-9.63084 h -22.5072 v 13.37029 h -3.7747 V 471.5582 h 27.8342 q 0.6702,0 1.3052,0.24695 0.6703,0.24694 1.1642,0.74083 0.4939,0.45861 0.7761,1.16417 0.3175,0.70556 0.3175,1.5875 v 13.37029 h -3.7747 v -11.78279 q 0,-0.70555 -0.4234,-1.12889 -0.388,-0.45861 -0.9172,-0.45861 z m 26.282,9.63084 v 3.73945 h 27.8694 q 1.4111,0 2.4695,-0.9525 1.0583,-0.98778 1.0583,-2.78695 v -2.92806 q 0,-1.72861 -1.0583,-2.75166 -1.0584,-1.02306 -2.4695,-1.02306 h -22.7542 q -0.5291,0 -0.9525,-0.3175 -0.388,-0.3175 -0.388,-1.02306 v -0.3175 q 0,-0.74083 0.3175,-0.98778 0.3528,-0.28222 0.9878,-0.28222 h 26.3172 v -3.73945 h -27.8695 q -1.4111,0 -2.4694,0.98778 -1.0583,0.9525 -1.0583,2.75167 v 2.92806 q 0,1.79917 1.0583,2.78695 1.0583,0.9525 2.4694,0.9525 h 22.7895 q 0.635,0 0.9525,0.28222 0.3528,0.28222 0.3528,1.02305 v 0.3175 q 0,0.70556 -0.4233,1.02306 -0.3881,0.3175 -0.9173,0.3175 z m 56.3386,0 h -3.7747 v 3.73945 h 3.7747 z m 52.564,3.73945 v -13.37029 q 0,-0.84667 -0.3175,-1.55222 -0.2823,-0.70556 -0.7762,-1.16417 -0.4938,-0.49389 -1.1641,-0.74083 -0.635,-0.28223 -1.3053,-0.28223 h -24.2711 q -0.7056,0 -1.3406,0.24695 -0.635,0.24694 -1.1289,0.74083 -0.4939,0.45861 -0.8114,1.16417 -0.2822,0.70556 -0.2822,1.5875 v 13.37029 h 3.7747 v -6.70278 h 23.8478 v 6.70278 z m -27.6226,-11.78279 q 0,-0.70555 0.2823,-1.12889 0.3175,-0.45861 1.023,-0.45861 h 21.2372 q 0.635,0 0.9525,0.45861 0.3528,0.42334 0.3528,1.12889 v 1.34056 h -23.8478 z m 76.6234,-5.32695 h -27.8342 v 17.10974 h 3.7747 v -6.70278 h 24.0595 q 0.6703,0 1.3053,-0.24695 0.6703,-0.24694 1.1641,-0.70555 0.4939,-0.49389 0.7762,-1.16417 0.3175,-0.70556 0.3175,-1.62278 v -2.92806 q 0,-0.84667 -0.3175,-1.55222 -0.2823,-0.70556 -0.7762,-1.16417 -0.4938,-0.49389 -1.1641,-0.74083 -0.635,-0.28223 -1.3053,-0.28223 z m -24.0595,3.73945 h 22.472 q 0.5997,0 0.9878,0.3175 0.388,0.28222 0.388,1.02306 v 0.42333 q 0,0.70556 -0.4233,0.9525 -0.4233,0.21167 -0.9172,0.21167 h -22.5073 z m 76.6235,-3.73945 h -27.8342 v 17.10974 h 3.7747 v -6.70278 h 24.0595 q 0.6702,0 1.3052,-0.24695 0.6703,-0.24694 1.1642,-0.70555 0.4939,-0.49389 0.7761,-1.16417 0.3175,-0.70556 0.3175,-1.62278 v -2.92806 q 0,-0.84667 -0.3175,-1.55222 -0.2822,-0.70556 -0.7761,-1.16417 -0.4939,-0.49389 -1.1642,-0.74083 -0.635,-0.28223 -1.3052,-0.28223 z m -24.0595,3.73945 h 22.472 q 0.5997,0 0.9877,0.3175 0.3881,0.28222 0.3881,1.02306 v 0.42333 q 0,0.70556 -0.4233,0.9525 -0.4234,0.21167 -0.9173,0.21167 h -22.5072 z"
             id="text19-6-3-2-4"
             style="font-size:35.2778px;line-height:0.8;font-family:'911 Porscha Title';-inkscape-font-specification:'911 Porscha Title, Normal';letter-spacing:0px;word-spacing:0.407504px;stroke-width:0.434049;stroke-linecap:round;stroke-linejoin:round;fill:#1a1a1a"
             transform="scale(1.1202585,0.89265112)"
             aria-label="winddragons.app" /></g></g></g></g></svg>
