M48
; DRILL file for WindDragons PCB
METRIC,TZ
FMAT,2
T2C1.000
T1C3.200
%
G90
G05
T2
X30000Y15000
X30000Y17540
X30000Y20080
X30000Y22620
X30000Y25160
X30000Y27700
X30000Y30240
X30000Y32780
X30000Y35320
X30000Y37860
X30000Y40400
X30000Y42940
X30000Y45480
X30000Y48020
X30000Y50560
X30000Y53100
X52860Y15000
X52860Y17540
X52860Y20080
X52860Y22620
X52860Y25160
X52860Y27700
X52860Y30240
X52860Y32780
X52860Y35320
X52860Y37860
X52860Y40400
X52860Y42940
X52860Y45480
X52860Y48020
X52860Y50560
X52860Y53100
X12000Y15000
X12000Y17540
X12000Y20080
X12000Y22620
X12000Y25160
X12000Y27700
X12000Y40400
X12000Y45480
X18000Y30240
X18000Y32780
X18000Y35320
X18000Y37860
X18000Y42940
X18000Y45480
X70000Y40400
X70000Y42940
X70000Y45480
X70000Y48020
X78000Y20080
X80540Y20080
X83080Y20080
X78000Y22620
X80540Y22620
X83080Y22620
X78000Y25160
X80540Y25160
X83080Y25160
X78000Y32780
X80540Y32780
X83080Y32780
X50320Y8000
X52860Y8000
X80540Y12000
X83080Y12000
T1
X4500Y4500
X90500Y4500
X4500Y65500
X90500Y65500
M30
