%FSLAX44Y44*%
%MOMM*%
%LPD*%
G04 Layer: Top Silkscreen*%
G04 Generated by WindDragons EDA Generator (100% Planar Zero-Crossing)*%
%ADD10C,0.1500*%
D10*
X15000Y15000D02*
X935000Y15000D01*
X935000Y685000D01*
X15000Y685000D01*
X15000Y15000D01*
X286000Y136000D02*
X314000Y136000D01*
X314000Y545000D01*
X286000Y545000D01*
X286000Y136000D01*
X514600Y136000D02*
X542600Y136000D01*
X542600Y545000D01*
X514600Y545000D01*
X514600Y136000D01*
X270000Y130000D02*
X558600Y130000D01*
X558600Y560000D01*
X270000Y560000D01*
X270000Y130000D01*
X345000Y240000D02*
X485000Y240000D01*
X485000Y500000D01*
X345000Y500000D01*
X345000Y240000D01*
X375000Y545000D02*
X455000Y545000D01*
X455000Y580000D01*
X375000Y580000D01*
X375000Y545000D01*
X75000Y130000D02*
X245000Y130000D01*
X245000Y520000D01*
X75000Y520000D01*
X75000Y130000D01*
X166000Y288400D02*
X194000Y288400D01*
X194000Y392600D01*
X166000Y392600D01*
X166000Y288400D01*
X166000Y415400D02*
X194000Y415400D01*
X194000Y468800D01*
X166000Y468800D01*
X166000Y415400D01*
X686000Y390000D02*
X714000Y390000D01*
X714000Y494200D01*
X686000Y494200D01*
X686000Y390000D01*
X670000Y380000D02*
X910000Y380000D01*
X910000Y620000D01*
X670000Y620000D01*
X670000Y380000D01*
X766000Y186800D02*
X844800Y186800D01*
X844800Y214800D01*
X766000Y214800D01*
X766000Y186800D01*
X766000Y212200D02*
X844800Y212200D01*
X844800Y240200D01*
X766000Y240200D01*
X766000Y212200D01*
X766000Y237600D02*
X844800Y237600D01*
X844800Y265600D01*
X766000Y265600D01*
X766000Y237600D01*
X766000Y313800D02*
X844800Y313800D01*
X844800Y341800D01*
X766000Y341800D01*
X766000Y313800D01*
X489200Y66000D02*
X542600Y66000D01*
X542600Y94000D01*
X489200Y94000D01*
X489200Y66000D01*
X791400Y106000D02*
X844800Y106000D01*
X844800Y134000D01*
X791400Y134000D01*
X791400Y106000D01*
X235000Y350000D02*
X235000Y362000D01*
X235000Y362000D02*
X241857Y362000D01*
X235000Y356000D02*
X240143Y356000D01*
X235000Y350000D02*
X241857Y350000D01*
X250771Y360286D02*
X247343Y362000D01*
X247343Y362000D02*
X243914Y360286D01*
X243914Y360286D02*
X243914Y357714D01*
X243914Y357714D02*
X250771Y355143D01*
X250771Y355143D02*
X250771Y351714D01*
X250771Y351714D02*
X247343Y350000D01*
X247343Y350000D02*
X243914Y351714D01*
X252829Y350000D02*
X252829Y362000D01*
X252829Y362000D02*
X257971Y362000D01*
X257971Y362000D02*
X259686Y359429D01*
X259686Y359429D02*
X257971Y356857D01*
X257971Y356857D02*
X252829Y356857D01*
X261743Y362000D02*
X268600Y362000D01*
X268600Y362000D02*
X265171Y356857D01*
X265171Y356857D02*
X267743Y356857D01*
X267743Y356857D02*
X268600Y354286D01*
X268600Y354286D02*
X266886Y350000D01*
X266886Y350000D02*
X261743Y350000D01*
X270657Y360286D02*
X272371Y362000D01*
X272371Y362000D02*
X275800Y362000D01*
X275800Y362000D02*
X277514Y358571D01*
X277514Y358571D02*
X270657Y350000D01*
X270657Y350000D02*
X277514Y350000D01*
X279571Y350000D02*
X286429Y350000D01*
X288486Y362000D02*
X288486Y350000D01*
X288486Y350000D02*
X295343Y350000D01*
X553600Y350000D02*
X553600Y362000D01*
X553600Y362000D02*
X560457Y362000D01*
X553600Y356000D02*
X558743Y356000D01*
X553600Y350000D02*
X560457Y350000D01*
X569371Y360286D02*
X565943Y362000D01*
X565943Y362000D02*
X562514Y360286D01*
X562514Y360286D02*
X562514Y357714D01*
X562514Y357714D02*
X569371Y355143D01*
X569371Y355143D02*
X569371Y351714D01*
X569371Y351714D02*
X565943Y350000D01*
X565943Y350000D02*
X562514Y351714D01*
X571429Y350000D02*
X571429Y362000D01*
X571429Y362000D02*
X576571Y362000D01*
X576571Y362000D02*
X578286Y359429D01*
X578286Y359429D02*
X576571Y356857D01*
X576571Y356857D02*
X571429Y356857D01*
X580343Y362000D02*
X587200Y362000D01*
X587200Y362000D02*
X583771Y356857D01*
X583771Y356857D02*
X586343Y356857D01*
X586343Y356857D02*
X587200Y354286D01*
X587200Y354286D02*
X585486Y350000D01*
X585486Y350000D02*
X580343Y350000D01*
X589257Y360286D02*
X590971Y362000D01*
X590971Y362000D02*
X594400Y362000D01*
X594400Y362000D02*
X596114Y358571D01*
X596114Y358571D02*
X589257Y350000D01*
X589257Y350000D02*
X596114Y350000D01*
X598171Y350000D02*
X605029Y350000D01*
X607086Y350000D02*
X607086Y362000D01*
X607086Y362000D02*
X612229Y362000D01*
X612229Y362000D02*
X613943Y359429D01*
X613943Y359429D02*
X612229Y356857D01*
X612229Y356857D02*
X607086Y356857D01*
X610514Y356857D02*
X613943Y350000D01*
X355714Y378571D02*
X352857Y380000D01*
X352857Y380000D02*
X350000Y378571D01*
X350000Y378571D02*
X350000Y376429D01*
X350000Y376429D02*
X355714Y374286D01*
X355714Y374286D02*
X355714Y371429D01*
X355714Y371429D02*
X352857Y370000D01*
X352857Y370000D02*
X350000Y371429D01*
X357429Y380000D02*
X363143Y380000D01*
X360286Y380000D02*
X360286Y370000D01*
X364857Y380000D02*
X370571Y380000D01*
X370571Y380000D02*
X367000Y370000D01*
X372286Y380000D02*
X378000Y380000D01*
X378000Y380000D02*
X374429Y370000D01*
X381143Y380000D02*
X384000Y380000D01*
X384000Y380000D02*
X385429Y377857D01*
X385429Y377857D02*
X384000Y375714D01*
X384000Y375714D02*
X381143Y375714D01*
X381143Y375714D02*
X379714Y377857D01*
X379714Y377857D02*
X381143Y380000D01*
X384000Y375714D02*
X385429Y372857D01*
X385429Y372857D02*
X384000Y370000D01*
X384000Y370000D02*
X381143Y370000D01*
X381143Y370000D02*
X379714Y372857D01*
X379714Y372857D02*
X381143Y375714D01*
X392857Y375000D02*
X387143Y375000D01*
X387143Y375000D02*
X387143Y377857D01*
X387143Y377857D02*
X389286Y380000D01*
X389286Y380000D02*
X391429Y380000D01*
X391429Y380000D02*
X392857Y377857D01*
X392857Y377857D02*
X392857Y371429D01*
X392857Y371429D02*
X391429Y370000D01*
X391429Y370000D02*
X388571Y370000D01*
X402000Y380000D02*
X402000Y370000D01*
X402000Y370000D02*
X407714Y370000D01*
X415143Y378571D02*
X412286Y380000D01*
X412286Y380000D02*
X410857Y378571D01*
X410857Y378571D02*
X409429Y375000D01*
X409429Y375000D02*
X410857Y371429D01*
X410857Y371429D02*
X412286Y370000D01*
X412286Y370000D02*
X415143Y371429D01*
X416857Y370000D02*
X416857Y380000D01*
X416857Y380000D02*
X420429Y380000D01*
X420429Y380000D02*
X422571Y377143D01*
X422571Y377143D02*
X422571Y372857D01*
X422571Y372857D02*
X420429Y370000D01*
X420429Y370000D02*
X416857Y370000D01*
X433143Y377143D02*
X434571Y380000D01*
X434571Y380000D02*
X434571Y370000D01*
X433143Y370000D02*
X436000Y370000D01*
X441286Y370000D02*
X442714Y370000D01*
X442714Y370000D02*
X442714Y371429D01*
X442714Y371429D02*
X441286Y371429D01*
X441286Y371429D02*
X441286Y370000D01*
X450857Y370000D02*
X450857Y380000D01*
X450857Y380000D02*
X446571Y372857D01*
X446571Y372857D02*
X452286Y372857D01*
X454000Y380000D02*
X459714Y380000D01*
X459714Y380000D02*
X456143Y370000D01*
X470286Y380000D02*
X473143Y380000D01*
X471714Y380000D02*
X471714Y370000D01*
X470286Y370000D02*
X473143Y370000D01*
X476286Y370000D02*
X476286Y380000D01*
X476286Y380000D02*
X482000Y370000D01*
X482000Y370000D02*
X482000Y380000D01*
X489429Y378571D02*
X486571Y380000D01*
X486571Y380000D02*
X485143Y378571D01*
X485143Y378571D02*
X483714Y375000D01*
X483714Y375000D02*
X485143Y371429D01*
X485143Y371429D02*
X486571Y370000D01*
X486571Y370000D02*
X489429Y371429D01*
X491143Y370000D02*
X491143Y380000D01*
X496857Y370000D02*
X496857Y380000D01*
X491143Y375000D02*
X496857Y375000D01*
X395000Y564000D02*
X395000Y556929D01*
X395000Y556929D02*
X396929Y555000D01*
X396929Y555000D02*
X398214Y555000D01*
X398214Y555000D02*
X400143Y556929D01*
X400143Y556929D02*
X400143Y564000D01*
X406829Y562714D02*
X404257Y564000D01*
X404257Y564000D02*
X401686Y562714D01*
X401686Y562714D02*
X401686Y560786D01*
X401686Y560786D02*
X406829Y558857D01*
X406829Y558857D02*
X406829Y556286D01*
X406829Y556286D02*
X404257Y555000D01*
X404257Y555000D02*
X401686Y556286D01*
X408371Y555000D02*
X408371Y564000D01*
X408371Y564000D02*
X412229Y564000D01*
X412229Y564000D02*
X413514Y562071D01*
X413514Y562071D02*
X412229Y560143D01*
X412229Y560143D02*
X408371Y560143D01*
X412229Y560143D02*
X413514Y557571D01*
X413514Y557571D02*
X412229Y555000D01*
X412229Y555000D02*
X408371Y555000D01*
X415700Y559500D02*
X419557Y559500D01*
X426886Y562714D02*
X424314Y564000D01*
X424314Y564000D02*
X423029Y562714D01*
X423029Y562714D02*
X421743Y559500D01*
X421743Y559500D02*
X423029Y556286D01*
X423029Y556286D02*
X424314Y555000D01*
X424314Y555000D02*
X426886Y556286D01*
X90000Y510000D02*
X90000Y500000D01*
X90000Y500000D02*
X95714Y500000D01*
X98857Y510000D02*
X101714Y510000D01*
X101714Y510000D02*
X103143Y507143D01*
X103143Y507143D02*
X103143Y502857D01*
X103143Y502857D02*
X101714Y500000D01*
X101714Y500000D02*
X98857Y500000D01*
X98857Y500000D02*
X97429Y502857D01*
X97429Y502857D02*
X97429Y507143D01*
X97429Y507143D02*
X98857Y510000D01*
X104857Y500000D02*
X104857Y510000D01*
X104857Y510000D02*
X109143Y510000D01*
X109143Y510000D02*
X110571Y507857D01*
X110571Y507857D02*
X109143Y505714D01*
X109143Y505714D02*
X104857Y505714D01*
X107714Y505714D02*
X110571Y500000D01*
X112286Y500000D02*
X112286Y507143D01*
X112286Y507143D02*
X115143Y510000D01*
X115143Y510000D02*
X118000Y507143D01*
X118000Y507143D02*
X118000Y500000D01*
X112286Y504286D02*
X118000Y504286D01*
X127143Y500000D02*
X127143Y510000D01*
X127143Y510000D02*
X131429Y510000D01*
X131429Y510000D02*
X132857Y507857D01*
X132857Y507857D02*
X131429Y505714D01*
X131429Y505714D02*
X127143Y505714D01*
X130000Y505714D02*
X132857Y500000D01*
X134571Y500000D02*
X134571Y507143D01*
X134571Y507143D02*
X137429Y510000D01*
X137429Y510000D02*
X140286Y507143D01*
X140286Y507143D02*
X140286Y500000D01*
X134571Y504286D02*
X140286Y504286D01*
X142714Y505000D02*
X147000Y505000D01*
X150857Y510000D02*
X153714Y510000D01*
X153714Y510000D02*
X155143Y507143D01*
X155143Y507143D02*
X155143Y502857D01*
X155143Y502857D02*
X153714Y500000D01*
X153714Y500000D02*
X150857Y500000D01*
X150857Y500000D02*
X149429Y502857D01*
X149429Y502857D02*
X149429Y507143D01*
X149429Y507143D02*
X150857Y510000D01*
X149429Y501429D02*
X155143Y508571D01*
X156857Y508571D02*
X158286Y510000D01*
X158286Y510000D02*
X161143Y510000D01*
X161143Y510000D02*
X162571Y507143D01*
X162571Y507143D02*
X156857Y500000D01*
X156857Y500000D02*
X162571Y500000D01*
X85000Y385000D02*
X85000Y391429D01*
X85000Y391429D02*
X87571Y394000D01*
X87571Y394000D02*
X90143Y391429D01*
X90143Y391429D02*
X90143Y385000D01*
X85000Y388857D02*
X90143Y388857D01*
X91686Y385000D02*
X91686Y394000D01*
X91686Y394000D02*
X95543Y394000D01*
X95543Y394000D02*
X96829Y392071D01*
X96829Y392071D02*
X95543Y390143D01*
X95543Y390143D02*
X91686Y390143D01*
X98371Y385000D02*
X98371Y394000D01*
X98371Y394000D02*
X100943Y389500D01*
X100943Y389500D02*
X103514Y394000D01*
X103514Y394000D02*
X103514Y385000D01*
X116886Y392714D02*
X114314Y394000D01*
X114314Y394000D02*
X111743Y392714D01*
X111743Y392714D02*
X111743Y390786D01*
X111743Y390786D02*
X116886Y388857D01*
X116886Y388857D02*
X116886Y386286D01*
X116886Y386286D02*
X114314Y385000D01*
X114314Y385000D02*
X111743Y386286D01*
X118429Y385000D02*
X118429Y394000D01*
X118429Y394000D02*
X123571Y394000D01*
X118429Y389500D02*
X122286Y389500D01*
X118429Y385000D02*
X123571Y385000D01*
X125114Y385000D02*
X125114Y394000D01*
X125114Y394000D02*
X130257Y385000D01*
X130257Y385000D02*
X130257Y394000D01*
X136943Y392714D02*
X134371Y394000D01*
X134371Y394000D02*
X131800Y392714D01*
X131800Y392714D02*
X131800Y390786D01*
X131800Y390786D02*
X136943Y388857D01*
X136943Y388857D02*
X136943Y386286D01*
X136943Y386286D02*
X134371Y385000D01*
X134371Y385000D02*
X131800Y386286D01*
X139771Y394000D02*
X142343Y394000D01*
X142343Y394000D02*
X143629Y391429D01*
X143629Y391429D02*
X143629Y387571D01*
X143629Y387571D02*
X142343Y385000D01*
X142343Y385000D02*
X139771Y385000D01*
X139771Y385000D02*
X138486Y387571D01*
X138486Y387571D02*
X138486Y391429D01*
X138486Y391429D02*
X139771Y394000D01*
X145171Y385000D02*
X145171Y394000D01*
X145171Y394000D02*
X149029Y394000D01*
X149029Y394000D02*
X150314Y392071D01*
X150314Y392071D02*
X149029Y390143D01*
X149029Y390143D02*
X145171Y390143D01*
X147743Y390143D02*
X150314Y385000D01*
X155000Y309400D02*
X157000Y302400D01*
X157000Y302400D02*
X159000Y309400D01*
X156000Y334800D02*
X158000Y334800D01*
X157000Y334800D02*
X157000Y327800D01*
X156000Y327800D02*
X158000Y327800D01*
X159000Y359200D02*
X157000Y360200D01*
X157000Y360200D02*
X155000Y358200D01*
X155000Y358200D02*
X155000Y355200D01*
X155000Y355200D02*
X157000Y353200D01*
X157000Y353200D02*
X159000Y353200D01*
X159000Y353200D02*
X159000Y356200D01*
X159000Y356200D02*
X157000Y356200D01*
X154000Y385600D02*
X150000Y385600D01*
X150000Y385600D02*
X150000Y382600D01*
X150000Y382600D02*
X153000Y382600D01*
X153000Y382600D02*
X154000Y381100D01*
X154000Y381100D02*
X153000Y378600D01*
X153000Y378600D02*
X150000Y378600D01*
X155200Y385600D02*
X157200Y378600D01*
X157200Y378600D02*
X159200Y385600D01*
X150000Y470000D02*
X150000Y478000D01*
X150000Y478000D02*
X153429Y478000D01*
X153429Y478000D02*
X154571Y476286D01*
X154571Y476286D02*
X153429Y474571D01*
X153429Y474571D02*
X150000Y474571D01*
X153429Y474571D02*
X154571Y472286D01*
X154571Y472286D02*
X153429Y470000D01*
X153429Y470000D02*
X150000Y470000D01*
X155943Y478000D02*
X155943Y471714D01*
X155943Y471714D02*
X157657Y470000D01*
X157657Y470000D02*
X158800Y470000D01*
X158800Y470000D02*
X160514Y471714D01*
X160514Y471714D02*
X160514Y478000D01*
X161886Y478000D02*
X166457Y478000D01*
X166457Y478000D02*
X161886Y470000D01*
X161886Y470000D02*
X166457Y470000D01*
X167829Y478000D02*
X172400Y478000D01*
X172400Y478000D02*
X167829Y470000D01*
X167829Y470000D02*
X172400Y470000D01*
X173771Y470000D02*
X173771Y478000D01*
X173771Y478000D02*
X178343Y478000D01*
X173771Y474000D02*
X177200Y474000D01*
X173771Y470000D02*
X178343Y470000D01*
X179714Y470000D02*
X179714Y478000D01*
X179714Y478000D02*
X183143Y478000D01*
X183143Y478000D02*
X184286Y476286D01*
X184286Y476286D02*
X183143Y474571D01*
X183143Y474571D02*
X179714Y474571D01*
X182000Y474571D02*
X184286Y470000D01*
X205000Y443500D02*
X209000Y443500D01*
X207000Y441500D02*
X207000Y445500D01*
X215900Y443500D02*
X218900Y443500D01*
X725000Y404000D02*
X725000Y412000D01*
X725000Y412000D02*
X728429Y412000D01*
X728429Y412000D02*
X729571Y410286D01*
X729571Y410286D02*
X728429Y408571D01*
X728429Y408571D02*
X725000Y408571D01*
X727286Y408571D02*
X729571Y404000D01*
X730943Y404000D02*
X735514Y412000D01*
X730943Y412000D02*
X735514Y404000D01*
X725000Y437400D02*
X729571Y437400D01*
X727286Y437400D02*
X727286Y429400D01*
X730943Y429400D02*
X735514Y437400D01*
X730943Y437400D02*
X735514Y429400D01*
X729571Y461657D02*
X727286Y462800D01*
X727286Y462800D02*
X725000Y460514D01*
X725000Y460514D02*
X725000Y457086D01*
X725000Y457086D02*
X727286Y454800D01*
X727286Y454800D02*
X729571Y454800D01*
X729571Y454800D02*
X729571Y458229D01*
X729571Y458229D02*
X727286Y458229D01*
X730943Y454800D02*
X730943Y462800D01*
X730943Y462800D02*
X735514Y454800D01*
X735514Y454800D02*
X735514Y462800D01*
X736886Y454800D02*
X736886Y462800D01*
X736886Y462800D02*
X739743Y462800D01*
X739743Y462800D02*
X741457Y460514D01*
X741457Y460514D02*
X741457Y457086D01*
X741457Y457086D02*
X739743Y454800D01*
X739743Y454800D02*
X736886Y454800D01*
X725000Y488200D02*
X729571Y488200D01*
X729571Y488200D02*
X727286Y484771D01*
X727286Y484771D02*
X729000Y484771D01*
X729000Y484771D02*
X729571Y483057D01*
X729571Y483057D02*
X728429Y480200D01*
X728429Y480200D02*
X725000Y480200D01*
X730943Y488200D02*
X733229Y480200D01*
X733229Y480200D02*
X735514Y488200D01*
X736886Y488200D02*
X741457Y488200D01*
X741457Y488200D02*
X739171Y484771D01*
X739171Y484771D02*
X740886Y484771D01*
X740886Y484771D02*
X741457Y483057D01*
X741457Y483057D02*
X740314Y480200D01*
X740314Y480200D02*
X736886Y480200D01*
X695143Y512714D02*
X692571Y514000D01*
X692571Y514000D02*
X690000Y511429D01*
X690000Y511429D02*
X690000Y507571D01*
X690000Y507571D02*
X692571Y505000D01*
X692571Y505000D02*
X695143Y505000D01*
X695143Y505000D02*
X695143Y508857D01*
X695143Y508857D02*
X692571Y508857D01*
X696686Y505000D02*
X696686Y514000D01*
X696686Y514000D02*
X700543Y514000D01*
X700543Y514000D02*
X701829Y512071D01*
X701829Y512071D02*
X700543Y510143D01*
X700543Y510143D02*
X696686Y510143D01*
X708514Y512714D02*
X705943Y514000D01*
X705943Y514000D02*
X703371Y512714D01*
X703371Y512714D02*
X703371Y510786D01*
X703371Y510786D02*
X708514Y508857D01*
X708514Y508857D02*
X708514Y506286D01*
X708514Y506286D02*
X705943Y505000D01*
X705943Y505000D02*
X703371Y506286D01*
X716743Y514000D02*
X716743Y505000D01*
X716743Y505000D02*
X721886Y505000D01*
X728571Y512714D02*
X726000Y514000D01*
X726000Y514000D02*
X724714Y512714D01*
X724714Y512714D02*
X723429Y509500D01*
X723429Y509500D02*
X724714Y506286D01*
X724714Y506286D02*
X726000Y505000D01*
X726000Y505000D02*
X728571Y506286D01*
X730114Y512714D02*
X731400Y514000D01*
X731400Y514000D02*
X733971Y514000D01*
X733971Y514000D02*
X735257Y511429D01*
X735257Y511429D02*
X730114Y505000D01*
X730114Y505000D02*
X735257Y505000D01*
X741943Y509500D02*
X736800Y509500D01*
X736800Y509500D02*
X736800Y512071D01*
X736800Y512071D02*
X738729Y514000D01*
X738729Y514000D02*
X740657Y514000D01*
X740657Y514000D02*
X741943Y512071D01*
X741943Y512071D02*
X741943Y506286D01*
X741943Y506286D02*
X740657Y505000D01*
X740657Y505000D02*
X738086Y505000D01*
X743486Y505000D02*
X743486Y514000D01*
X748629Y505000D02*
X748629Y514000D01*
X743486Y509500D02*
X748629Y509500D01*
X691286Y604000D02*
X693857Y604000D01*
X693857Y604000D02*
X695143Y601429D01*
X695143Y601429D02*
X695143Y597571D01*
X695143Y597571D02*
X693857Y595000D01*
X693857Y595000D02*
X691286Y595000D01*
X691286Y595000D02*
X690000Y597571D01*
X690000Y597571D02*
X690000Y601429D01*
X690000Y601429D02*
X691286Y604000D01*
X693214Y597571D02*
X695143Y595000D01*
X696686Y604000D02*
X696686Y596929D01*
X696686Y596929D02*
X698614Y595000D01*
X698614Y595000D02*
X699900Y595000D01*
X699900Y595000D02*
X701829Y596929D01*
X701829Y596929D02*
X701829Y604000D01*
X703371Y595000D02*
X703371Y604000D01*
X703371Y604000D02*
X708514Y604000D01*
X703371Y599500D02*
X707229Y599500D01*
X703371Y595000D02*
X708514Y595000D01*
X715200Y602714D02*
X712629Y604000D01*
X712629Y604000D02*
X711343Y602714D01*
X711343Y602714D02*
X710057Y599500D01*
X710057Y599500D02*
X711343Y596286D01*
X711343Y596286D02*
X712629Y595000D01*
X712629Y595000D02*
X715200Y596286D01*
X716743Y604000D02*
X721886Y604000D01*
X719314Y604000D02*
X719314Y595000D01*
X723429Y595000D02*
X723429Y604000D01*
X723429Y604000D02*
X728571Y604000D01*
X723429Y599500D02*
X727286Y599500D01*
X723429Y595000D02*
X728571Y595000D01*
X730114Y604000D02*
X730114Y595000D01*
X730114Y595000D02*
X735257Y595000D01*
X743486Y604000D02*
X743486Y595000D01*
X743486Y595000D02*
X748629Y595000D01*
X755314Y602714D02*
X752743Y604000D01*
X752743Y604000D02*
X751457Y602714D01*
X751457Y602714D02*
X750171Y599500D01*
X750171Y599500D02*
X751457Y596286D01*
X751457Y596286D02*
X752743Y595000D01*
X752743Y595000D02*
X755314Y596286D01*
X756857Y602714D02*
X758143Y604000D01*
X758143Y604000D02*
X760714Y604000D01*
X760714Y604000D02*
X762000Y601429D01*
X762000Y601429D02*
X756857Y595000D01*
X756857Y595000D02*
X762000Y595000D01*
X768686Y599500D02*
X763543Y599500D01*
X763543Y599500D02*
X763543Y602071D01*
X763543Y602071D02*
X765471Y604000D01*
X765471Y604000D02*
X767400Y604000D01*
X767400Y604000D02*
X768686Y602071D01*
X768686Y602071D02*
X768686Y596286D01*
X768686Y596286D02*
X767400Y595000D01*
X767400Y595000D02*
X764829Y595000D01*
X770229Y595000D02*
X770229Y604000D01*
X775371Y595000D02*
X775371Y604000D01*
X770229Y599500D02*
X775371Y599500D01*
X788743Y602714D02*
X786171Y604000D01*
X786171Y604000D02*
X783600Y601429D01*
X783600Y601429D02*
X783600Y597571D01*
X783600Y597571D02*
X786171Y595000D01*
X786171Y595000D02*
X788743Y595000D01*
X788743Y595000D02*
X788743Y598857D01*
X788743Y598857D02*
X786171Y598857D01*
X790286Y595000D02*
X790286Y604000D01*
X790286Y604000D02*
X795429Y595000D01*
X795429Y595000D02*
X795429Y604000D01*
X802114Y602714D02*
X799543Y604000D01*
X799543Y604000D02*
X796971Y602714D01*
X796971Y602714D02*
X796971Y600786D01*
X796971Y600786D02*
X802114Y598857D01*
X802114Y598857D02*
X802114Y596286D01*
X802114Y596286D02*
X799543Y595000D01*
X799543Y595000D02*
X796971Y596286D01*
X808800Y602714D02*
X806229Y604000D01*
X806229Y604000D02*
X803657Y602714D01*
X803657Y602714D02*
X803657Y600786D01*
X803657Y600786D02*
X808800Y598857D01*
X808800Y598857D02*
X808800Y596286D01*
X808800Y596286D02*
X806229Y595000D01*
X806229Y595000D02*
X803657Y596286D01*
X865000Y200800D02*
X865000Y208800D01*
X865000Y208800D02*
X869571Y208800D01*
X865000Y204800D02*
X868429Y204800D01*
X865000Y200800D02*
X869571Y200800D01*
X875514Y207657D02*
X873229Y208800D01*
X873229Y208800D02*
X870943Y207657D01*
X870943Y207657D02*
X870943Y205943D01*
X870943Y205943D02*
X875514Y204229D01*
X875514Y204229D02*
X875514Y201943D01*
X875514Y201943D02*
X873229Y200800D01*
X873229Y200800D02*
X870943Y201943D01*
X881457Y207657D02*
X879171Y208800D01*
X879171Y208800D02*
X878029Y207657D01*
X878029Y207657D02*
X876886Y204800D01*
X876886Y204800D02*
X878029Y201943D01*
X878029Y201943D02*
X879171Y200800D01*
X879171Y200800D02*
X881457Y201943D01*
X888771Y200800D02*
X888771Y208800D01*
X888771Y208800D02*
X892200Y208800D01*
X892200Y208800D02*
X893343Y207086D01*
X893343Y207086D02*
X892200Y205371D01*
X892200Y205371D02*
X888771Y205371D01*
X894714Y200800D02*
X894714Y208800D01*
X894714Y208800D02*
X898143Y208800D01*
X898143Y208800D02*
X899286Y207086D01*
X899286Y207086D02*
X898143Y205371D01*
X898143Y205371D02*
X894714Y205371D01*
X897000Y205371D02*
X899286Y200800D01*
X901800Y208800D02*
X904086Y208800D01*
X904086Y208800D02*
X905229Y206514D01*
X905229Y206514D02*
X905229Y203086D01*
X905229Y203086D02*
X904086Y200800D01*
X904086Y200800D02*
X901800Y200800D01*
X901800Y200800D02*
X900657Y203086D01*
X900657Y203086D02*
X900657Y206514D01*
X900657Y206514D02*
X901800Y208800D01*
X906600Y200800D02*
X906600Y208800D01*
X906600Y208800D02*
X910029Y208800D01*
X910029Y208800D02*
X911171Y207086D01*
X911171Y207086D02*
X910029Y205371D01*
X910029Y205371D02*
X906600Y205371D01*
X869571Y233057D02*
X867286Y234200D01*
X867286Y234200D02*
X865000Y233057D01*
X865000Y233057D02*
X865000Y231343D01*
X865000Y231343D02*
X869571Y229629D01*
X869571Y229629D02*
X869571Y227343D01*
X869571Y227343D02*
X867286Y226200D01*
X867286Y226200D02*
X865000Y227343D01*
X870943Y226200D02*
X870943Y234200D01*
X870943Y234200D02*
X875514Y234200D01*
X870943Y230200D02*
X874371Y230200D01*
X870943Y226200D02*
X875514Y226200D01*
X876886Y226200D02*
X876886Y234200D01*
X876886Y234200D02*
X880314Y234200D01*
X880314Y234200D02*
X881457Y232486D01*
X881457Y232486D02*
X880314Y230771D01*
X880314Y230771D02*
X876886Y230771D01*
X879171Y230771D02*
X881457Y226200D01*
X882829Y234200D02*
X885114Y226200D01*
X885114Y226200D02*
X887400Y234200D01*
X889914Y234200D02*
X892200Y234200D01*
X892200Y234200D02*
X893343Y231914D01*
X893343Y231914D02*
X893343Y228486D01*
X893343Y228486D02*
X892200Y226200D01*
X892200Y226200D02*
X889914Y226200D01*
X889914Y226200D02*
X888771Y228486D01*
X888771Y228486D02*
X888771Y231914D01*
X888771Y231914D02*
X889914Y234200D01*
X900657Y234200D02*
X900657Y226200D01*
X900657Y226200D02*
X905229Y226200D01*
X906600Y226200D02*
X906600Y234200D01*
X906600Y234200D02*
X911171Y234200D01*
X906600Y230200D02*
X910029Y230200D01*
X906600Y226200D02*
X911171Y226200D01*
X912543Y226200D02*
X912543Y234200D01*
X912543Y234200D02*
X914829Y230200D01*
X914829Y230200D02*
X917114Y234200D01*
X917114Y234200D02*
X917114Y226200D01*
X918486Y226200D02*
X918486Y234200D01*
X918486Y234200D02*
X923057Y234200D01*
X918486Y230200D02*
X921914Y230200D01*
X918486Y226200D02*
X923057Y226200D01*
X869571Y258457D02*
X867286Y259600D01*
X867286Y259600D02*
X865000Y257314D01*
X865000Y257314D02*
X865000Y253886D01*
X865000Y253886D02*
X867286Y251600D01*
X867286Y251600D02*
X869571Y251600D01*
X869571Y251600D02*
X869571Y255029D01*
X869571Y255029D02*
X867286Y255029D01*
X870943Y259600D02*
X870943Y253314D01*
X870943Y253314D02*
X872657Y251600D01*
X872657Y251600D02*
X873800Y251600D01*
X873800Y251600D02*
X875514Y253314D01*
X875514Y253314D02*
X875514Y259600D01*
X878029Y259600D02*
X880314Y259600D01*
X879171Y259600D02*
X879171Y251600D01*
X878029Y251600D02*
X880314Y251600D01*
X882829Y251600D02*
X882829Y259600D01*
X882829Y259600D02*
X887400Y251600D01*
X887400Y251600D02*
X887400Y259600D01*
X893343Y258457D02*
X891057Y259600D01*
X891057Y259600D02*
X889914Y258457D01*
X889914Y258457D02*
X888771Y255600D01*
X888771Y255600D02*
X889914Y252743D01*
X889914Y252743D02*
X891057Y251600D01*
X891057Y251600D02*
X893343Y252743D01*
X894714Y251600D02*
X894714Y259600D01*
X899286Y251600D02*
X899286Y259600D01*
X894714Y255600D02*
X899286Y255600D01*
X901800Y259600D02*
X904086Y259600D01*
X904086Y259600D02*
X905229Y257314D01*
X905229Y257314D02*
X905229Y253886D01*
X905229Y253886D02*
X904086Y251600D01*
X904086Y251600D02*
X901800Y251600D01*
X901800Y251600D02*
X900657Y253886D01*
X900657Y253886D02*
X900657Y257314D01*
X900657Y257314D02*
X901800Y259600D01*
X869571Y334657D02*
X867286Y335800D01*
X867286Y335800D02*
X866143Y334657D01*
X866143Y334657D02*
X865000Y331800D01*
X865000Y331800D02*
X866143Y328943D01*
X866143Y328943D02*
X867286Y327800D01*
X867286Y327800D02*
X869571Y328943D01*
X870943Y327800D02*
X870943Y335800D01*
X870943Y335800D02*
X874371Y335800D01*
X874371Y335800D02*
X875514Y334086D01*
X875514Y334086D02*
X874371Y332371D01*
X874371Y332371D02*
X870943Y332371D01*
X873229Y332371D02*
X875514Y327800D01*
X876886Y327800D02*
X876886Y335800D01*
X876886Y335800D02*
X881457Y335800D01*
X876886Y331800D02*
X880314Y331800D01*
X876886Y327800D02*
X881457Y327800D01*
X882829Y327800D02*
X882829Y335800D01*
X882829Y335800D02*
X885114Y331800D01*
X885114Y331800D02*
X887400Y335800D01*
X887400Y335800D02*
X887400Y327800D01*
X888771Y327800D02*
X888771Y333514D01*
X888771Y333514D02*
X891057Y335800D01*
X891057Y335800D02*
X893343Y333514D01*
X893343Y333514D02*
X893343Y327800D01*
X888771Y331229D02*
X893343Y331229D01*
X894714Y335800D02*
X894714Y327800D01*
X894714Y327800D02*
X899286Y327800D01*
X900657Y327800D02*
X900657Y335800D01*
X905229Y327800D02*
X905229Y335800D01*
X900657Y331800D02*
X905229Y331800D01*
X906600Y327800D02*
X906600Y335800D01*
X906600Y335800D02*
X911171Y335800D01*
X906600Y331800D02*
X910029Y331800D01*
X906600Y327800D02*
X911171Y327800D01*
X913686Y335800D02*
X915971Y335800D01*
X914829Y335800D02*
X914829Y327800D01*
X913686Y327800D02*
X915971Y327800D01*
X918486Y327800D02*
X918486Y335800D01*
X918486Y335800D02*
X921914Y335800D01*
X921914Y335800D02*
X923057Y334086D01*
X923057Y334086D02*
X921914Y332371D01*
X921914Y332371D02*
X918486Y332371D01*
X920771Y332371D02*
X923057Y327800D01*
X924429Y327800D02*
X924429Y333514D01*
X924429Y333514D02*
X926714Y335800D01*
X926714Y335800D02*
X929000Y333514D01*
X929000Y333514D02*
X929000Y327800D01*
X924429Y331229D02*
X929000Y331229D01*
X789571Y356857D02*
X787286Y358000D01*
X787286Y358000D02*
X785000Y356857D01*
X785000Y356857D02*
X785000Y355143D01*
X785000Y355143D02*
X789571Y353429D01*
X789571Y353429D02*
X789571Y351143D01*
X789571Y351143D02*
X787286Y350000D01*
X787286Y350000D02*
X785000Y351143D01*
X796886Y354000D02*
X801457Y354000D01*
X799171Y351714D02*
X799171Y356286D01*
X809343Y354000D02*
X812771Y354000D01*
X508500Y108500D02*
X511500Y108500D01*
X518400Y108500D02*
X522400Y108500D01*
X520400Y106500D02*
X520400Y110500D01*
X460000Y55000D02*
X460000Y63000D01*
X460000Y63000D02*
X463429Y63000D01*
X463429Y63000D02*
X464571Y61286D01*
X464571Y61286D02*
X463429Y59571D01*
X463429Y59571D02*
X460000Y59571D01*
X465943Y63000D02*
X467086Y55000D01*
X467086Y55000D02*
X468229Y59000D01*
X468229Y59000D02*
X469371Y55000D01*
X469371Y55000D02*
X470514Y63000D01*
X471886Y55000D02*
X471886Y63000D01*
X471886Y63000D02*
X475314Y63000D01*
X475314Y63000D02*
X476457Y61286D01*
X476457Y61286D02*
X475314Y59571D01*
X475314Y59571D02*
X471886Y59571D01*
X474171Y59571D02*
X476457Y55000D01*
X483771Y55000D02*
X483771Y63000D01*
X483771Y63000D02*
X488343Y63000D01*
X483771Y59000D02*
X487200Y59000D01*
X483771Y55000D02*
X488343Y55000D01*
X494286Y61857D02*
X492000Y63000D01*
X492000Y63000D02*
X489714Y61857D01*
X489714Y61857D02*
X489714Y60143D01*
X489714Y60143D02*
X494286Y58429D01*
X494286Y58429D02*
X494286Y56143D01*
X494286Y56143D02*
X492000Y55000D01*
X492000Y55000D02*
X489714Y56143D01*
X495657Y55000D02*
X495657Y63000D01*
X495657Y63000D02*
X499086Y63000D01*
X499086Y63000D02*
X500229Y61286D01*
X500229Y61286D02*
X499086Y59571D01*
X499086Y59571D02*
X495657Y59571D01*
X512114Y63000D02*
X507543Y63000D01*
X507543Y63000D02*
X507543Y59571D01*
X507543Y59571D02*
X510971Y59571D01*
X510971Y59571D02*
X512114Y57857D01*
X512114Y57857D02*
X510971Y55000D01*
X510971Y55000D02*
X507543Y55000D01*
X513486Y63000D02*
X515771Y55000D01*
X515771Y55000D02*
X518057Y63000D01*
X810000Y148500D02*
X814000Y148500D01*
X812000Y146500D02*
X812000Y150500D01*
X820900Y148500D02*
X823900Y148500D01*
X770000Y85000D02*
X770000Y93000D01*
X770000Y93000D02*
X773429Y93000D01*
X773429Y93000D02*
X774571Y91286D01*
X774571Y91286D02*
X773429Y89571D01*
X773429Y89571D02*
X770000Y89571D01*
X775943Y93000D02*
X777086Y85000D01*
X777086Y85000D02*
X778229Y89000D01*
X778229Y89000D02*
X779371Y85000D01*
X779371Y85000D02*
X780514Y93000D01*
X781886Y85000D02*
X781886Y93000D01*
X781886Y93000D02*
X785314Y93000D01*
X785314Y93000D02*
X786457Y91286D01*
X786457Y91286D02*
X785314Y89571D01*
X785314Y89571D02*
X781886Y89571D01*
X784171Y89571D02*
X786457Y85000D01*
X798343Y91857D02*
X796057Y93000D01*
X796057Y93000D02*
X793771Y91857D01*
X793771Y91857D02*
X793771Y90143D01*
X793771Y90143D02*
X798343Y88429D01*
X798343Y88429D02*
X798343Y86143D01*
X798343Y86143D02*
X796057Y85000D01*
X796057Y85000D02*
X793771Y86143D01*
X799714Y85000D02*
X799714Y93000D01*
X799714Y93000D02*
X804286Y93000D01*
X799714Y89000D02*
X803143Y89000D01*
X799714Y85000D02*
X804286Y85000D01*
X805657Y85000D02*
X805657Y93000D01*
X805657Y93000D02*
X809086Y93000D01*
X809086Y93000D02*
X810229Y91286D01*
X810229Y91286D02*
X809086Y89571D01*
X809086Y89571D02*
X805657Y89571D01*
X807943Y89571D02*
X810229Y85000D01*
X811600Y93000D02*
X813886Y85000D01*
X813886Y85000D02*
X816171Y93000D01*
X818686Y93000D02*
X820971Y93000D01*
X820971Y93000D02*
X822114Y90714D01*
X822114Y90714D02*
X822114Y87286D01*
X822114Y87286D02*
X820971Y85000D01*
X820971Y85000D02*
X818686Y85000D01*
X818686Y85000D02*
X817543Y87286D01*
X817543Y87286D02*
X817543Y90714D01*
X817543Y90714D02*
X818686Y93000D01*
X834000Y93000D02*
X829429Y93000D01*
X829429Y93000D02*
X829429Y89571D01*
X829429Y89571D02*
X832857Y89571D01*
X832857Y89571D02*
X834000Y87857D01*
X834000Y87857D02*
X832857Y85000D01*
X832857Y85000D02*
X829429Y85000D01*
X835371Y93000D02*
X837657Y85000D01*
X837657Y85000D02*
X839943Y93000D01*
X80000Y68000D02*
X81857Y55000D01*
X81857Y55000D02*
X83714Y61500D01*
X83714Y61500D02*
X85571Y55000D01*
X85571Y55000D02*
X87429Y68000D01*
X91514Y68000D02*
X95229Y68000D01*
X93371Y68000D02*
X93371Y55000D01*
X91514Y55000D02*
X95229Y55000D01*
X99314Y55000D02*
X99314Y68000D01*
X99314Y68000D02*
X106743Y55000D01*
X106743Y55000D02*
X106743Y68000D01*
X108971Y55000D02*
X108971Y68000D01*
X108971Y68000D02*
X113614Y68000D01*
X113614Y68000D02*
X116400Y64286D01*
X116400Y64286D02*
X116400Y58714D01*
X116400Y58714D02*
X113614Y55000D01*
X113614Y55000D02*
X108971Y55000D01*
X118629Y55000D02*
X118629Y68000D01*
X118629Y68000D02*
X123271Y68000D01*
X123271Y68000D02*
X126057Y64286D01*
X126057Y64286D02*
X126057Y58714D01*
X126057Y58714D02*
X123271Y55000D01*
X123271Y55000D02*
X118629Y55000D01*
X128286Y55000D02*
X128286Y68000D01*
X128286Y68000D02*
X133857Y68000D01*
X133857Y68000D02*
X135714Y65214D01*
X135714Y65214D02*
X133857Y62429D01*
X133857Y62429D02*
X128286Y62429D01*
X132000Y62429D02*
X135714Y55000D01*
X137943Y55000D02*
X137943Y64286D01*
X137943Y64286D02*
X141657Y68000D01*
X141657Y68000D02*
X145371Y64286D01*
X145371Y64286D02*
X145371Y55000D01*
X137943Y60571D02*
X145371Y60571D01*
X155029Y66143D02*
X151314Y68000D01*
X151314Y68000D02*
X147600Y64286D01*
X147600Y64286D02*
X147600Y58714D01*
X147600Y58714D02*
X151314Y55000D01*
X151314Y55000D02*
X155029Y55000D01*
X155029Y55000D02*
X155029Y60571D01*
X155029Y60571D02*
X151314Y60571D01*
X159114Y68000D02*
X162829Y68000D01*
X162829Y68000D02*
X164686Y64286D01*
X164686Y64286D02*
X164686Y58714D01*
X164686Y58714D02*
X162829Y55000D01*
X162829Y55000D02*
X159114Y55000D01*
X159114Y55000D02*
X157257Y58714D01*
X157257Y58714D02*
X157257Y64286D01*
X157257Y64286D02*
X159114Y68000D01*
X166914Y55000D02*
X166914Y68000D01*
X166914Y68000D02*
X174343Y55000D01*
X174343Y55000D02*
X174343Y68000D01*
X184000Y66143D02*
X180286Y68000D01*
X180286Y68000D02*
X176571Y66143D01*
X176571Y66143D02*
X176571Y63357D01*
X176571Y63357D02*
X184000Y60571D01*
X184000Y60571D02*
X184000Y56857D01*
X184000Y56857D02*
X180286Y55000D01*
X180286Y55000D02*
X176571Y56857D01*
X195886Y55000D02*
X195886Y68000D01*
X195886Y68000D02*
X201457Y68000D01*
X201457Y68000D02*
X203314Y65214D01*
X203314Y65214D02*
X201457Y62429D01*
X201457Y62429D02*
X195886Y62429D01*
X199600Y62429D02*
X203314Y55000D01*
X207400Y68000D02*
X211114Y68000D01*
X211114Y68000D02*
X212971Y64286D01*
X212971Y64286D02*
X212971Y58714D01*
X212971Y58714D02*
X211114Y55000D01*
X211114Y55000D02*
X207400Y55000D01*
X207400Y55000D02*
X205543Y58714D01*
X205543Y58714D02*
X205543Y64286D01*
X205543Y64286D02*
X207400Y68000D01*
X215200Y68000D02*
X218914Y55000D01*
X218914Y55000D02*
X222629Y68000D01*
X224857Y55000D02*
X224857Y68000D01*
X224857Y68000D02*
X232286Y68000D01*
X224857Y61500D02*
X230429Y61500D01*
X224857Y55000D02*
X232286Y55000D01*
X234514Y55000D02*
X234514Y68000D01*
X234514Y68000D02*
X240086Y68000D01*
X240086Y68000D02*
X241943Y65214D01*
X241943Y65214D02*
X240086Y62429D01*
X240086Y62429D02*
X234514Y62429D01*
X238229Y62429D02*
X241943Y55000D01*
X261257Y66143D02*
X257543Y68000D01*
X257543Y68000D02*
X255686Y66143D01*
X255686Y66143D02*
X253829Y61500D01*
X253829Y61500D02*
X255686Y56857D01*
X255686Y56857D02*
X257543Y55000D01*
X257543Y55000D02*
X261257Y56857D01*
X263486Y55000D02*
X263486Y64286D01*
X263486Y64286D02*
X267200Y68000D01*
X267200Y68000D02*
X270914Y64286D01*
X270914Y64286D02*
X270914Y55000D01*
X263486Y60571D02*
X270914Y60571D01*
X273143Y55000D02*
X273143Y68000D01*
X273143Y68000D02*
X278714Y68000D01*
X278714Y68000D02*
X280571Y65214D01*
X280571Y65214D02*
X278714Y62429D01*
X278714Y62429D02*
X273143Y62429D01*
X276857Y62429D02*
X280571Y55000D01*
X282800Y55000D02*
X282800Y68000D01*
X282800Y68000D02*
X288371Y68000D01*
X288371Y68000D02*
X290229Y65214D01*
X290229Y65214D02*
X288371Y62429D01*
X288371Y62429D02*
X282800Y62429D01*
X286514Y62429D02*
X290229Y55000D01*
X294314Y68000D02*
X298029Y68000D01*
X296171Y68000D02*
X296171Y55000D01*
X294314Y55000D02*
X298029Y55000D01*
X302114Y55000D02*
X302114Y68000D01*
X302114Y68000D02*
X309543Y68000D01*
X302114Y61500D02*
X307686Y61500D01*
X302114Y55000D02*
X309543Y55000D01*
X311771Y55000D02*
X311771Y68000D01*
X311771Y68000D02*
X317343Y68000D01*
X317343Y68000D02*
X319200Y65214D01*
X319200Y65214D02*
X317343Y62429D01*
X317343Y62429D02*
X311771Y62429D01*
X315486Y62429D02*
X319200Y55000D01*
X331086Y68000D02*
X334800Y55000D01*
X334800Y55000D02*
X338514Y68000D01*
X340743Y68000D02*
X348171Y68000D01*
X348171Y68000D02*
X344457Y62429D01*
X344457Y62429D02*
X347243Y62429D01*
X347243Y62429D02*
X348171Y59643D01*
X348171Y59643D02*
X346314Y55000D01*
X346314Y55000D02*
X340743Y55000D01*
X353186Y55000D02*
X355043Y55000D01*
X355043Y55000D02*
X355043Y56857D01*
X355043Y56857D02*
X353186Y56857D01*
X353186Y56857D02*
X353186Y55000D01*
X361914Y68000D02*
X365629Y68000D01*
X365629Y68000D02*
X367486Y64286D01*
X367486Y64286D02*
X367486Y58714D01*
X367486Y58714D02*
X365629Y55000D01*
X365629Y55000D02*
X361914Y55000D01*
X361914Y55000D02*
X360057Y58714D01*
X360057Y58714D02*
X360057Y64286D01*
X360057Y64286D02*
X361914Y68000D01*
X360057Y56857D02*
X367486Y66143D01*
X81286Y38429D02*
X82571Y41000D01*
X82571Y41000D02*
X82571Y32000D01*
X81286Y32000D02*
X83857Y32000D01*
X87971Y41000D02*
X90543Y41000D01*
X90543Y41000D02*
X91829Y38429D01*
X91829Y38429D02*
X91829Y34571D01*
X91829Y34571D02*
X90543Y32000D01*
X90543Y32000D02*
X87971Y32000D01*
X87971Y32000D02*
X86686Y34571D01*
X86686Y34571D02*
X86686Y38429D01*
X86686Y38429D02*
X87971Y41000D01*
X86686Y33286D02*
X91829Y39714D01*
X94657Y41000D02*
X97229Y41000D01*
X97229Y41000D02*
X98514Y38429D01*
X98514Y38429D02*
X98514Y34571D01*
X98514Y34571D02*
X97229Y32000D01*
X97229Y32000D02*
X94657Y32000D01*
X94657Y32000D02*
X93371Y34571D01*
X93371Y34571D02*
X93371Y38429D01*
X93371Y38429D02*
X94657Y41000D01*
X93371Y33286D02*
X98514Y39714D01*
X113429Y32000D02*
X113429Y41000D01*
X113429Y41000D02*
X117286Y41000D01*
X117286Y41000D02*
X118571Y39071D01*
X118571Y39071D02*
X117286Y37143D01*
X117286Y37143D02*
X113429Y37143D01*
X120114Y41000D02*
X120114Y32000D01*
X120114Y32000D02*
X125257Y32000D01*
X126800Y32000D02*
X126800Y38429D01*
X126800Y38429D02*
X129371Y41000D01*
X129371Y41000D02*
X131943Y38429D01*
X131943Y38429D02*
X131943Y32000D01*
X126800Y35857D02*
X131943Y35857D01*
X133486Y32000D02*
X133486Y41000D01*
X133486Y41000D02*
X138629Y32000D01*
X138629Y32000D02*
X138629Y41000D01*
X140171Y32000D02*
X140171Y38429D01*
X140171Y38429D02*
X142743Y41000D01*
X142743Y41000D02*
X145314Y38429D01*
X145314Y38429D02*
X145314Y32000D01*
X140171Y35857D02*
X145314Y35857D01*
X146857Y32000D02*
X146857Y41000D01*
X146857Y41000D02*
X150714Y41000D01*
X150714Y41000D02*
X152000Y39071D01*
X152000Y39071D02*
X150714Y37143D01*
X150714Y37143D02*
X146857Y37143D01*
X149429Y37143D02*
X152000Y32000D01*
X160229Y41000D02*
X165371Y41000D01*
X165371Y41000D02*
X160229Y32000D01*
X160229Y32000D02*
X165371Y32000D01*
X166914Y32000D02*
X166914Y41000D01*
X166914Y41000D02*
X172057Y41000D01*
X166914Y36500D02*
X170771Y36500D01*
X166914Y32000D02*
X172057Y32000D01*
X173600Y32000D02*
X173600Y41000D01*
X173600Y41000D02*
X177457Y41000D01*
X177457Y41000D02*
X178743Y39071D01*
X178743Y39071D02*
X177457Y37143D01*
X177457Y37143D02*
X173600Y37143D01*
X176171Y37143D02*
X178743Y32000D01*
X181571Y41000D02*
X184143Y41000D01*
X184143Y41000D02*
X185429Y38429D01*
X185429Y38429D02*
X185429Y34571D01*
X185429Y34571D02*
X184143Y32000D01*
X184143Y32000D02*
X181571Y32000D01*
X181571Y32000D02*
X180286Y34571D01*
X180286Y34571D02*
X180286Y38429D01*
X180286Y38429D02*
X181571Y41000D01*
X187614Y36500D02*
X191471Y36500D01*
X198800Y39714D02*
X196229Y41000D01*
X196229Y41000D02*
X194943Y39714D01*
X194943Y39714D02*
X193657Y36500D01*
X193657Y36500D02*
X194943Y33286D01*
X194943Y33286D02*
X196229Y32000D01*
X196229Y32000D02*
X198800Y33286D01*
X200343Y32000D02*
X200343Y41000D01*
X200343Y41000D02*
X204200Y41000D01*
X204200Y41000D02*
X205486Y39071D01*
X205486Y39071D02*
X204200Y37143D01*
X204200Y37143D02*
X200343Y37143D01*
X202914Y37143D02*
X205486Y32000D01*
X208314Y41000D02*
X210886Y41000D01*
X210886Y41000D02*
X212171Y38429D01*
X212171Y38429D02*
X212171Y34571D01*
X212171Y34571D02*
X210886Y32000D01*
X210886Y32000D02*
X208314Y32000D01*
X208314Y32000D02*
X207029Y34571D01*
X207029Y34571D02*
X207029Y38429D01*
X207029Y38429D02*
X208314Y41000D01*
X218857Y39714D02*
X216286Y41000D01*
X216286Y41000D02*
X213714Y39714D01*
X213714Y39714D02*
X213714Y37786D01*
X213714Y37786D02*
X218857Y35857D01*
X218857Y35857D02*
X218857Y33286D01*
X218857Y33286D02*
X216286Y32000D01*
X216286Y32000D02*
X213714Y33286D01*
X225543Y39714D02*
X222971Y41000D01*
X222971Y41000D02*
X220400Y39714D01*
X220400Y39714D02*
X220400Y37786D01*
X220400Y37786D02*
X225543Y35857D01*
X225543Y35857D02*
X225543Y33286D01*
X225543Y33286D02*
X222971Y32000D01*
X222971Y32000D02*
X220400Y33286D01*
X228371Y41000D02*
X230943Y41000D01*
X229657Y41000D02*
X229657Y32000D01*
X228371Y32000D02*
X230943Y32000D01*
X233771Y32000D02*
X233771Y41000D01*
X233771Y41000D02*
X238914Y32000D01*
X238914Y32000D02*
X238914Y41000D01*
X245600Y39714D02*
X243029Y41000D01*
X243029Y41000D02*
X240457Y38429D01*
X240457Y38429D02*
X240457Y34571D01*
X240457Y34571D02*
X243029Y32000D01*
X243029Y32000D02*
X245600Y32000D01*
X245600Y32000D02*
X245600Y35857D01*
X245600Y35857D02*
X243029Y35857D01*
X265657Y36500D02*
X260514Y36500D01*
X260514Y36500D02*
X260514Y39071D01*
X260514Y39071D02*
X262443Y41000D01*
X262443Y41000D02*
X264371Y41000D01*
X264371Y41000D02*
X265657Y39071D01*
X265657Y39071D02*
X265657Y33286D01*
X265657Y33286D02*
X264371Y32000D01*
X264371Y32000D02*
X261800Y32000D01*
X272343Y41000D02*
X267200Y41000D01*
X267200Y41000D02*
X267200Y37143D01*
X267200Y37143D02*
X271057Y37143D01*
X271057Y37143D02*
X272343Y35214D01*
X272343Y35214D02*
X271057Y32000D01*
X271057Y32000D02*
X267200Y32000D01*
X273886Y32000D02*
X279029Y41000D01*
X273886Y41000D02*
X279029Y32000D01*
X280571Y41000D02*
X285714Y41000D01*
X285714Y41000D02*
X282500Y32000D01*
X288543Y41000D02*
X291114Y41000D01*
X291114Y41000D02*
X292400Y38429D01*
X292400Y38429D02*
X292400Y34571D01*
X292400Y34571D02*
X291114Y32000D01*
X291114Y32000D02*
X288543Y32000D01*
X288543Y32000D02*
X287257Y34571D01*
X287257Y34571D02*
X287257Y38429D01*
X287257Y38429D02*
X288543Y41000D01*
X287257Y33286D02*
X292400Y39714D01*
X293943Y32000D02*
X293943Y41000D01*
X293943Y41000D02*
X296514Y36500D01*
X296514Y36500D02*
X299086Y41000D01*
X299086Y41000D02*
X299086Y32000D01*
X300629Y32000D02*
X300629Y41000D01*
X300629Y41000D02*
X303200Y36500D01*
X303200Y36500D02*
X305771Y41000D01*
X305771Y41000D02*
X305771Y32000D01*
M02*
