%FSLAX44Y44*%
%MOMM*%
%LPD*%
G04 Layer: Top Solder Mask*%
G04 Generated by WindDragons EDA Generator (100% Planar Zero-Crossing)*%
%ADD10C,6.2000*%
%ADD11C,1.9000*%
%ADD12R,1.9000X1.9000*%
D10*
X45000Y45000D03*
X905000Y45000D03*
X45000Y655000D03*
X905000Y655000D03*
D12*
X300000Y150000D03*
D11*
X300000Y175400D03*
X300000Y200800D03*
X300000Y226200D03*
X300000Y251600D03*
X300000Y277000D03*
X300000Y302400D03*
X300000Y327800D03*
X300000Y353200D03*
X300000Y378600D03*
X300000Y404000D03*
X300000Y429400D03*
X300000Y454800D03*
X300000Y480200D03*
X300000Y505600D03*
X300000Y531000D03*
D12*
X528600Y150000D03*
D11*
X528600Y175400D03*
X528600Y200800D03*
X528600Y226200D03*
X528600Y251600D03*
X528600Y277000D03*
X528600Y302400D03*
X528600Y327800D03*
X528600Y353200D03*
X528600Y378600D03*
X528600Y404000D03*
X528600Y429400D03*
X528600Y454800D03*
X528600Y480200D03*
X528600Y505600D03*
X528600Y531000D03*
D12*
X120000Y150000D03*
D11*
X120000Y175400D03*
X120000Y200800D03*
X120000Y226200D03*
X120000Y251600D03*
X120000Y277000D03*
X120000Y404000D03*
X120000Y454800D03*
D12*
X180000Y302400D03*
D11*
X180000Y327800D03*
X180000Y353200D03*
X180000Y378600D03*
D12*
X180000Y429400D03*
D11*
X180000Y454800D03*
D12*
X700000Y404000D03*
D11*
X700000Y429400D03*
X700000Y454800D03*
X700000Y480200D03*
D12*
X780000Y200800D03*
D11*
X805400Y200800D03*
X830800Y200800D03*
D12*
X780000Y226200D03*
D11*
X805400Y226200D03*
X830800Y226200D03*
D12*
X780000Y251600D03*
D11*
X805400Y251600D03*
X830800Y251600D03*
D12*
X780000Y327800D03*
D11*
X805400Y327800D03*
X830800Y327800D03*
D12*
X503200Y80000D03*
D11*
X528600Y80000D03*
D12*
X805400Y120000D03*
D11*
X830800Y120000D03*
M02*
