%FSLAX44Y44*%
%MOMM*%
%LPD*%
G04 Layer: Top Silkscreen*%
G04 Generated by WindDragons EDA Generator (100% Planar Zero-Crossing)*%
%ADD10C,0.1500*%
D10*
X15000Y15000D02*
X985000Y15000D01*
X985000Y685000D01*
X15000Y685000D01*
X15000Y15000D01*
X346000Y136000D02*
X374000Y136000D01*
X374000Y545000D01*
X346000Y545000D01*
X346000Y136000D01*
X574600Y136000D02*
X602600Y136000D01*
X602600Y545000D01*
X574600Y545000D01*
X574600Y136000D01*
X330000Y130000D02*
X618600Y130000D01*
X618600Y560000D01*
X330000Y560000D01*
X330000Y130000D01*
X405000Y240000D02*
X545000Y240000D01*
X545000Y500000D01*
X405000Y500000D01*
X405000Y240000D01*
X435000Y545000D02*
X515000Y545000D01*
X515000Y580000D01*
X435000Y580000D01*
X435000Y545000D01*
X245000Y130000D02*
X285000Y130000D01*
X285000Y480000D01*
X245000Y480000D01*
X245000Y130000D01*
X74000Y249100D02*
X206000Y249100D01*
X206000Y381100D01*
X74000Y381100D01*
X74000Y249100D01*
X95000Y220100D02*
X185000Y220100D01*
X185000Y249100D01*
X95000Y249100D01*
X95000Y220100D01*
X206000Y270100D02*
X235000Y270100D01*
X235000Y360100D01*
X206000Y360100D01*
X206000Y270100D01*
X95000Y381100D02*
X185000Y381100D01*
X185000Y430100D01*
X95000Y430100D01*
X95000Y381100D01*
X296000Y288400D02*
X324000Y288400D01*
X324000Y392600D01*
X296000Y392600D01*
X296000Y288400D01*
X296000Y415400D02*
X324000Y415400D01*
X324000Y468800D01*
X296000Y468800D01*
X296000Y415400D01*
X736000Y390000D02*
X764000Y390000D01*
X764000Y494200D01*
X736000Y494200D01*
X736000Y390000D01*
X720000Y380000D02*
X960000Y380000D01*
X960000Y620000D01*
X720000Y620000D01*
X720000Y380000D01*
X634000Y169800D02*
X696000Y169800D01*
X696000Y231800D01*
X634000Y231800D01*
X634000Y169800D01*
X650000Y185800D02*
X680000Y185800D01*
X680000Y215800D01*
X650000Y215800D01*
X650000Y185800D01*
X714000Y195200D02*
X776000Y195200D01*
X776000Y257200D01*
X714000Y257200D01*
X714000Y195200D01*
X730000Y211200D02*
X760000Y211200D01*
X760000Y241200D01*
X730000Y241200D01*
X730000Y211200D01*
X794000Y220600D02*
X856000Y220600D01*
X856000Y282600D01*
X794000Y282600D01*
X794000Y220600D01*
X810000Y236600D02*
X840000Y236600D01*
X840000Y266600D01*
X810000Y266600D01*
X810000Y236600D01*
X886000Y186800D02*
X964800Y186800D01*
X964800Y214800D01*
X886000Y214800D01*
X886000Y186800D01*
X886000Y212200D02*
X964800Y212200D01*
X964800Y240200D01*
X886000Y240200D01*
X886000Y212200D01*
X886000Y237600D02*
X964800Y237600D01*
X964800Y265600D01*
X886000Y265600D01*
X886000Y237600D01*
X886000Y313800D02*
X964800Y313800D01*
X964800Y341800D01*
X886000Y341800D01*
X886000Y313800D01*
X549200Y66000D02*
X602600Y66000D01*
X602600Y94000D01*
X549200Y94000D01*
X549200Y66000D01*
X911400Y106000D02*
X964800Y106000D01*
X964800Y134000D01*
X911400Y134000D01*
X911400Y106000D01*
X185000Y315100D02*
X178971Y337600D01*
X178971Y337600D02*
X162500Y354071D01*
X162500Y354071D02*
X140000Y360100D01*
X140000Y360100D02*
X117500Y354071D01*
X117500Y354071D02*
X101029Y337600D01*
X101029Y337600D02*
X95000Y315100D01*
X95000Y315100D02*
X101029Y292600D01*
X101029Y292600D02*
X117500Y276129D01*
X117500Y276129D02*
X140000Y270100D01*
X140000Y270100D02*
X162500Y276129D01*
X162500Y276129D02*
X178971Y292600D01*
X178971Y292600D02*
X185000Y315100D01*
X295000Y350000D02*
X295000Y362000D01*
X295000Y362000D02*
X301857Y362000D01*
X295000Y356000D02*
X300143Y356000D01*
X295000Y350000D02*
X301857Y350000D01*
X310771Y360286D02*
X307343Y362000D01*
X307343Y362000D02*
X303914Y360286D01*
X303914Y360286D02*
X303914Y357714D01*
X303914Y357714D02*
X310771Y355143D01*
X310771Y355143D02*
X310771Y351714D01*
X310771Y351714D02*
X307343Y350000D01*
X307343Y350000D02*
X303914Y351714D01*
X312829Y350000D02*
X312829Y362000D01*
X312829Y362000D02*
X317971Y362000D01*
X317971Y362000D02*
X319686Y359429D01*
X319686Y359429D02*
X317971Y356857D01*
X317971Y356857D02*
X312829Y356857D01*
X321743Y362000D02*
X328600Y362000D01*
X328600Y362000D02*
X325171Y356857D01*
X325171Y356857D02*
X327743Y356857D01*
X327743Y356857D02*
X328600Y354286D01*
X328600Y354286D02*
X326886Y350000D01*
X326886Y350000D02*
X321743Y350000D01*
X330657Y360286D02*
X332371Y362000D01*
X332371Y362000D02*
X335800Y362000D01*
X335800Y362000D02*
X337514Y358571D01*
X337514Y358571D02*
X330657Y350000D01*
X330657Y350000D02*
X337514Y350000D01*
X339571Y350000D02*
X346429Y350000D01*
X348486Y362000D02*
X348486Y350000D01*
X348486Y350000D02*
X355343Y350000D01*
X613600Y350000D02*
X613600Y362000D01*
X613600Y362000D02*
X620457Y362000D01*
X613600Y356000D02*
X618743Y356000D01*
X613600Y350000D02*
X620457Y350000D01*
X629371Y360286D02*
X625943Y362000D01*
X625943Y362000D02*
X622514Y360286D01*
X622514Y360286D02*
X622514Y357714D01*
X622514Y357714D02*
X629371Y355143D01*
X629371Y355143D02*
X629371Y351714D01*
X629371Y351714D02*
X625943Y350000D01*
X625943Y350000D02*
X622514Y351714D01*
X631429Y350000D02*
X631429Y362000D01*
X631429Y362000D02*
X636571Y362000D01*
X636571Y362000D02*
X638286Y359429D01*
X638286Y359429D02*
X636571Y356857D01*
X636571Y356857D02*
X631429Y356857D01*
X640343Y362000D02*
X647200Y362000D01*
X647200Y362000D02*
X643771Y356857D01*
X643771Y356857D02*
X646343Y356857D01*
X646343Y356857D02*
X647200Y354286D01*
X647200Y354286D02*
X645486Y350000D01*
X645486Y350000D02*
X640343Y350000D01*
X649257Y360286D02*
X650971Y362000D01*
X650971Y362000D02*
X654400Y362000D01*
X654400Y362000D02*
X656114Y358571D01*
X656114Y358571D02*
X649257Y350000D01*
X649257Y350000D02*
X656114Y350000D01*
X658171Y350000D02*
X665029Y350000D01*
X667086Y350000D02*
X667086Y362000D01*
X667086Y362000D02*
X672229Y362000D01*
X672229Y362000D02*
X673943Y359429D01*
X673943Y359429D02*
X672229Y356857D01*
X672229Y356857D02*
X667086Y356857D01*
X670514Y356857D02*
X673943Y350000D01*
X415714Y378571D02*
X412857Y380000D01*
X412857Y380000D02*
X410000Y378571D01*
X410000Y378571D02*
X410000Y376429D01*
X410000Y376429D02*
X415714Y374286D01*
X415714Y374286D02*
X415714Y371429D01*
X415714Y371429D02*
X412857Y370000D01*
X412857Y370000D02*
X410000Y371429D01*
X417429Y380000D02*
X423143Y380000D01*
X420286Y380000D02*
X420286Y370000D01*
X424857Y380000D02*
X430571Y380000D01*
X430571Y380000D02*
X427000Y370000D01*
X432286Y380000D02*
X438000Y380000D01*
X438000Y380000D02*
X434429Y370000D01*
X441143Y380000D02*
X444000Y380000D01*
X444000Y380000D02*
X445429Y377857D01*
X445429Y377857D02*
X444000Y375714D01*
X444000Y375714D02*
X441143Y375714D01*
X441143Y375714D02*
X439714Y377857D01*
X439714Y377857D02*
X441143Y380000D01*
X444000Y375714D02*
X445429Y372857D01*
X445429Y372857D02*
X444000Y370000D01*
X444000Y370000D02*
X441143Y370000D01*
X441143Y370000D02*
X439714Y372857D01*
X439714Y372857D02*
X441143Y375714D01*
X452857Y375000D02*
X447143Y375000D01*
X447143Y375000D02*
X447143Y377857D01*
X447143Y377857D02*
X449286Y380000D01*
X449286Y380000D02*
X451429Y380000D01*
X451429Y380000D02*
X452857Y377857D01*
X452857Y377857D02*
X452857Y371429D01*
X452857Y371429D02*
X451429Y370000D01*
X451429Y370000D02*
X448571Y370000D01*
X462000Y380000D02*
X462000Y370000D01*
X462000Y370000D02*
X467714Y370000D01*
X475143Y378571D02*
X472286Y380000D01*
X472286Y380000D02*
X470857Y378571D01*
X470857Y378571D02*
X469429Y375000D01*
X469429Y375000D02*
X470857Y371429D01*
X470857Y371429D02*
X472286Y370000D01*
X472286Y370000D02*
X475143Y371429D01*
X476857Y370000D02*
X476857Y380000D01*
X476857Y380000D02*
X480429Y380000D01*
X480429Y380000D02*
X482571Y377143D01*
X482571Y377143D02*
X482571Y372857D01*
X482571Y372857D02*
X480429Y370000D01*
X480429Y370000D02*
X476857Y370000D01*
X493143Y377143D02*
X494571Y380000D01*
X494571Y380000D02*
X494571Y370000D01*
X493143Y370000D02*
X496000Y370000D01*
X501286Y370000D02*
X502714Y370000D01*
X502714Y370000D02*
X502714Y371429D01*
X502714Y371429D02*
X501286Y371429D01*
X501286Y371429D02*
X501286Y370000D01*
X510857Y370000D02*
X510857Y380000D01*
X510857Y380000D02*
X506571Y372857D01*
X506571Y372857D02*
X512286Y372857D01*
X514000Y380000D02*
X519714Y380000D01*
X519714Y380000D02*
X516143Y370000D01*
X530286Y380000D02*
X533143Y380000D01*
X531714Y380000D02*
X531714Y370000D01*
X530286Y370000D02*
X533143Y370000D01*
X536286Y370000D02*
X536286Y380000D01*
X536286Y380000D02*
X542000Y370000D01*
X542000Y370000D02*
X542000Y380000D01*
X549429Y378571D02*
X546571Y380000D01*
X546571Y380000D02*
X545143Y378571D01*
X545143Y378571D02*
X543714Y375000D01*
X543714Y375000D02*
X545143Y371429D01*
X545143Y371429D02*
X546571Y370000D01*
X546571Y370000D02*
X549429Y371429D01*
X551143Y370000D02*
X551143Y380000D01*
X556857Y370000D02*
X556857Y380000D01*
X551143Y375000D02*
X556857Y375000D01*
X455000Y564000D02*
X455000Y556929D01*
X455000Y556929D02*
X456929Y555000D01*
X456929Y555000D02*
X458214Y555000D01*
X458214Y555000D02*
X460143Y556929D01*
X460143Y556929D02*
X460143Y564000D01*
X466829Y562714D02*
X464257Y564000D01*
X464257Y564000D02*
X461686Y562714D01*
X461686Y562714D02*
X461686Y560786D01*
X461686Y560786D02*
X466829Y558857D01*
X466829Y558857D02*
X466829Y556286D01*
X466829Y556286D02*
X464257Y555000D01*
X464257Y555000D02*
X461686Y556286D01*
X468371Y555000D02*
X468371Y564000D01*
X468371Y564000D02*
X472229Y564000D01*
X472229Y564000D02*
X473514Y562071D01*
X473514Y562071D02*
X472229Y560143D01*
X472229Y560143D02*
X468371Y560143D01*
X472229Y560143D02*
X473514Y557571D01*
X473514Y557571D02*
X472229Y555000D01*
X472229Y555000D02*
X468371Y555000D01*
X475700Y559500D02*
X479557Y559500D01*
X486886Y562714D02*
X484314Y564000D01*
X484314Y564000D02*
X483029Y562714D01*
X483029Y562714D02*
X481743Y559500D01*
X481743Y559500D02*
X483029Y556286D01*
X483029Y556286D02*
X484314Y555000D01*
X484314Y555000D02*
X486886Y556286D01*
X220000Y508500D02*
X220000Y500000D01*
X220000Y500000D02*
X224857Y500000D01*
X227529Y508500D02*
X229957Y508500D01*
X229957Y508500D02*
X231171Y506071D01*
X231171Y506071D02*
X231171Y502429D01*
X231171Y502429D02*
X229957Y500000D01*
X229957Y500000D02*
X227529Y500000D01*
X227529Y500000D02*
X226314Y502429D01*
X226314Y502429D02*
X226314Y506071D01*
X226314Y506071D02*
X227529Y508500D01*
X232629Y500000D02*
X232629Y508500D01*
X232629Y508500D02*
X236271Y508500D01*
X236271Y508500D02*
X237486Y506679D01*
X237486Y506679D02*
X236271Y504857D01*
X236271Y504857D02*
X232629Y504857D01*
X235057Y504857D02*
X237486Y500000D01*
X238943Y500000D02*
X238943Y506071D01*
X238943Y506071D02*
X241371Y508500D01*
X241371Y508500D02*
X243800Y506071D01*
X243800Y506071D02*
X243800Y500000D01*
X238943Y503643D02*
X243800Y503643D01*
X251571Y500000D02*
X251571Y508500D01*
X251571Y508500D02*
X255214Y508500D01*
X255214Y508500D02*
X256429Y506679D01*
X256429Y506679D02*
X255214Y504857D01*
X255214Y504857D02*
X251571Y504857D01*
X254000Y504857D02*
X256429Y500000D01*
X257886Y500000D02*
X257886Y506071D01*
X257886Y506071D02*
X260314Y508500D01*
X260314Y508500D02*
X262743Y506071D01*
X262743Y506071D02*
X262743Y500000D01*
X257886Y503643D02*
X262743Y503643D01*
X264807Y504250D02*
X268450Y504250D01*
X271729Y508500D02*
X274157Y508500D01*
X274157Y508500D02*
X275371Y506071D01*
X275371Y506071D02*
X275371Y502429D01*
X275371Y502429D02*
X274157Y500000D01*
X274157Y500000D02*
X271729Y500000D01*
X271729Y500000D02*
X270514Y502429D01*
X270514Y502429D02*
X270514Y506071D01*
X270514Y506071D02*
X271729Y508500D01*
X270514Y501214D02*
X275371Y507286D01*
X276829Y507286D02*
X278043Y508500D01*
X278043Y508500D02*
X280471Y508500D01*
X280471Y508500D02*
X281686Y506071D01*
X281686Y506071D02*
X276829Y500000D01*
X276829Y500000D02*
X281686Y500000D01*
X65000Y440100D02*
X65000Y448600D01*
X65000Y448600D02*
X68643Y448600D01*
X68643Y448600D02*
X69857Y446779D01*
X69857Y446779D02*
X68643Y444957D01*
X68643Y444957D02*
X65000Y444957D01*
X76171Y447386D02*
X73743Y448600D01*
X73743Y448600D02*
X71314Y447386D01*
X71314Y447386D02*
X71314Y445564D01*
X71314Y445564D02*
X76171Y443743D01*
X76171Y443743D02*
X76171Y441314D01*
X76171Y441314D02*
X73743Y440100D01*
X73743Y440100D02*
X71314Y441314D01*
X81271Y440100D02*
X81271Y448600D01*
X81271Y448600D02*
X77629Y442529D01*
X77629Y442529D02*
X82486Y442529D01*
X90257Y448600D02*
X95114Y448600D01*
X95114Y448600D02*
X92686Y444957D01*
X92686Y444957D02*
X94507Y444957D01*
X94507Y444957D02*
X95114Y443136D01*
X95114Y443136D02*
X93900Y440100D01*
X93900Y440100D02*
X90257Y440100D01*
X96571Y440100D02*
X96571Y448600D01*
X96571Y448600D02*
X99607Y448600D01*
X99607Y448600D02*
X101429Y446171D01*
X101429Y446171D02*
X101429Y442529D01*
X101429Y442529D02*
X99607Y440100D01*
X99607Y440100D02*
X96571Y440100D01*
X109200Y442529D02*
X110414Y440100D01*
X110414Y440100D02*
X112843Y440100D01*
X112843Y440100D02*
X112843Y448600D01*
X110414Y448600D02*
X114057Y448600D01*
X116729Y448600D02*
X119157Y448600D01*
X119157Y448600D02*
X120371Y446171D01*
X120371Y446171D02*
X120371Y442529D01*
X120371Y442529D02*
X119157Y440100D01*
X119157Y440100D02*
X116729Y440100D01*
X116729Y440100D02*
X115514Y442529D01*
X115514Y442529D02*
X115514Y446171D01*
X115514Y446171D02*
X116729Y448600D01*
X121829Y448600D02*
X124257Y444350D01*
X126686Y448600D02*
X124257Y444350D01*
X124257Y444350D02*
X124257Y440100D01*
X133000Y447386D02*
X130571Y448600D01*
X130571Y448600D02*
X128143Y447386D01*
X128143Y447386D02*
X128143Y445564D01*
X128143Y445564D02*
X133000Y443743D01*
X133000Y443743D02*
X133000Y441314D01*
X133000Y441314D02*
X130571Y440100D01*
X130571Y440100D02*
X128143Y441314D01*
X134457Y448600D02*
X139314Y448600D01*
X136886Y448600D02*
X136886Y440100D01*
X141986Y448600D02*
X144414Y448600D01*
X143200Y448600D02*
X143200Y440100D01*
X141986Y440100D02*
X144414Y440100D01*
X151943Y447386D02*
X149514Y448600D01*
X149514Y448600D02*
X148300Y447386D01*
X148300Y447386D02*
X147086Y444350D01*
X147086Y444350D02*
X148300Y441314D01*
X148300Y441314D02*
X149514Y440100D01*
X149514Y440100D02*
X151943Y441314D01*
X153400Y440100D02*
X153400Y448600D01*
X153400Y444350D02*
X158257Y448600D01*
X153400Y444350D02*
X158257Y440100D01*
X128000Y214100D02*
X130000Y207100D01*
X130000Y207100D02*
X132000Y214100D01*
X133200Y207100D02*
X133200Y214100D01*
X133200Y214100D02*
X136200Y214100D01*
X136200Y214100D02*
X137200Y212600D01*
X137200Y212600D02*
X136200Y211100D01*
X136200Y211100D02*
X133200Y211100D01*
X135200Y211100D02*
X137200Y207100D01*
X138400Y207100D02*
X142400Y214100D01*
X138400Y214100D02*
X142400Y207100D01*
X215000Y357100D02*
X217000Y350100D01*
X217000Y350100D02*
X219000Y357100D01*
X220200Y350100D02*
X220200Y357100D01*
X220200Y357100D02*
X223200Y357100D01*
X223200Y357100D02*
X224200Y355600D01*
X224200Y355600D02*
X223200Y354100D01*
X223200Y354100D02*
X220200Y354100D01*
X222200Y354100D02*
X224200Y350100D01*
X225400Y357100D02*
X227400Y353600D01*
X229400Y357100D02*
X227400Y353600D01*
X227400Y353600D02*
X227400Y350100D01*
X285000Y395000D02*
X285000Y400357D01*
X285000Y400357D02*
X287143Y402500D01*
X287143Y402500D02*
X289286Y400357D01*
X289286Y400357D02*
X289286Y395000D01*
X285000Y398214D02*
X289286Y398214D01*
X290571Y395000D02*
X290571Y402500D01*
X290571Y402500D02*
X293786Y402500D01*
X293786Y402500D02*
X294857Y400893D01*
X294857Y400893D02*
X293786Y399286D01*
X293786Y399286D02*
X290571Y399286D01*
X296143Y395000D02*
X296143Y402500D01*
X296143Y402500D02*
X298286Y398750D01*
X298286Y398750D02*
X300429Y402500D01*
X300429Y402500D02*
X300429Y395000D01*
X307286Y395000D02*
X311571Y402500D01*
X318429Y397143D02*
X319500Y395000D01*
X319500Y395000D02*
X321643Y395000D01*
X321643Y395000D02*
X321643Y402500D01*
X319500Y402500D02*
X322714Y402500D01*
X325071Y402500D02*
X327214Y402500D01*
X327214Y402500D02*
X328286Y400357D01*
X328286Y400357D02*
X328286Y397143D01*
X328286Y397143D02*
X327214Y395000D01*
X327214Y395000D02*
X325071Y395000D01*
X325071Y395000D02*
X324000Y397143D01*
X324000Y397143D02*
X324000Y400357D01*
X324000Y400357D02*
X325071Y402500D01*
X329571Y402500D02*
X331714Y398750D01*
X333857Y402500D02*
X331714Y398750D01*
X331714Y398750D02*
X331714Y395000D01*
X285000Y302400D02*
X288714Y308900D01*
X285000Y308900D02*
X288714Y302400D01*
X289829Y302400D02*
X293543Y308900D01*
X294657Y308900D02*
X296514Y302400D01*
X296514Y302400D02*
X298371Y308900D01*
X285000Y334300D02*
X286857Y331050D01*
X288714Y334300D02*
X286857Y331050D01*
X286857Y331050D02*
X286857Y327800D01*
X289829Y327800D02*
X293543Y334300D01*
X295586Y334300D02*
X297443Y334300D01*
X296514Y334300D02*
X296514Y327800D01*
X295586Y327800D02*
X297443Y327800D01*
X288714Y358771D02*
X286857Y359700D01*
X286857Y359700D02*
X285000Y357843D01*
X285000Y357843D02*
X285000Y355057D01*
X285000Y355057D02*
X286857Y353200D01*
X286857Y353200D02*
X288714Y353200D01*
X288714Y353200D02*
X288714Y355986D01*
X288714Y355986D02*
X286857Y355986D01*
X289829Y353200D02*
X289829Y359700D01*
X289829Y359700D02*
X293543Y353200D01*
X293543Y353200D02*
X293543Y359700D01*
X294657Y353200D02*
X294657Y359700D01*
X294657Y359700D02*
X296979Y359700D01*
X296979Y359700D02*
X298371Y357843D01*
X298371Y357843D02*
X298371Y355057D01*
X298371Y355057D02*
X296979Y353200D01*
X296979Y353200D02*
X294657Y353200D01*
X285000Y385100D02*
X288714Y385100D01*
X288714Y385100D02*
X286857Y382314D01*
X286857Y382314D02*
X288250Y382314D01*
X288250Y382314D02*
X288714Y380921D01*
X288714Y380921D02*
X287786Y378600D01*
X287786Y378600D02*
X285000Y378600D01*
X289829Y385100D02*
X291686Y378600D01*
X291686Y378600D02*
X293543Y385100D01*
X294657Y385100D02*
X298371Y385100D01*
X298371Y385100D02*
X296514Y382314D01*
X296514Y382314D02*
X297907Y382314D01*
X297907Y382314D02*
X298371Y380921D01*
X298371Y380921D02*
X297443Y378600D01*
X297443Y378600D02*
X294657Y378600D01*
X285000Y470000D02*
X285000Y478000D01*
X285000Y478000D02*
X288429Y478000D01*
X288429Y478000D02*
X289571Y476286D01*
X289571Y476286D02*
X288429Y474571D01*
X288429Y474571D02*
X285000Y474571D01*
X288429Y474571D02*
X289571Y472286D01*
X289571Y472286D02*
X288429Y470000D01*
X288429Y470000D02*
X285000Y470000D01*
X290943Y478000D02*
X290943Y471714D01*
X290943Y471714D02*
X292657Y470000D01*
X292657Y470000D02*
X293800Y470000D01*
X293800Y470000D02*
X295514Y471714D01*
X295514Y471714D02*
X295514Y478000D01*
X296886Y478000D02*
X301457Y478000D01*
X301457Y478000D02*
X296886Y470000D01*
X296886Y470000D02*
X301457Y470000D01*
X302829Y478000D02*
X307400Y478000D01*
X307400Y478000D02*
X302829Y470000D01*
X302829Y470000D02*
X307400Y470000D01*
X308771Y470000D02*
X308771Y478000D01*
X308771Y478000D02*
X313343Y478000D01*
X308771Y474000D02*
X312200Y474000D01*
X308771Y470000D02*
X313343Y470000D01*
X314714Y470000D02*
X314714Y478000D01*
X314714Y478000D02*
X318143Y478000D01*
X318143Y478000D02*
X319286Y476286D01*
X319286Y476286D02*
X318143Y474571D01*
X318143Y474571D02*
X314714Y474571D01*
X317000Y474571D02*
X319286Y470000D01*
X325000Y443250D02*
X328714Y443250D01*
X326857Y441393D02*
X326857Y445107D01*
X335121Y443250D02*
X337907Y443250D01*
X775000Y404000D02*
X775000Y412000D01*
X775000Y412000D02*
X778429Y412000D01*
X778429Y412000D02*
X779571Y410286D01*
X779571Y410286D02*
X778429Y408571D01*
X778429Y408571D02*
X775000Y408571D01*
X777286Y408571D02*
X779571Y404000D01*
X780943Y404000D02*
X785514Y412000D01*
X780943Y412000D02*
X785514Y404000D01*
X775000Y437400D02*
X779571Y437400D01*
X777286Y437400D02*
X777286Y429400D01*
X780943Y429400D02*
X785514Y437400D01*
X780943Y437400D02*
X785514Y429400D01*
X779571Y461657D02*
X777286Y462800D01*
X777286Y462800D02*
X775000Y460514D01*
X775000Y460514D02*
X775000Y457086D01*
X775000Y457086D02*
X777286Y454800D01*
X777286Y454800D02*
X779571Y454800D01*
X779571Y454800D02*
X779571Y458229D01*
X779571Y458229D02*
X777286Y458229D01*
X780943Y454800D02*
X780943Y462800D01*
X780943Y462800D02*
X785514Y454800D01*
X785514Y454800D02*
X785514Y462800D01*
X786886Y454800D02*
X786886Y462800D01*
X786886Y462800D02*
X789743Y462800D01*
X789743Y462800D02*
X791457Y460514D01*
X791457Y460514D02*
X791457Y457086D01*
X791457Y457086D02*
X789743Y454800D01*
X789743Y454800D02*
X786886Y454800D01*
X775000Y488200D02*
X779571Y488200D01*
X779571Y488200D02*
X777286Y484771D01*
X777286Y484771D02*
X779000Y484771D01*
X779000Y484771D02*
X779571Y483057D01*
X779571Y483057D02*
X778429Y480200D01*
X778429Y480200D02*
X775000Y480200D01*
X780943Y488200D02*
X783229Y480200D01*
X783229Y480200D02*
X785514Y488200D01*
X786886Y488200D02*
X791457Y488200D01*
X791457Y488200D02*
X789171Y484771D01*
X789171Y484771D02*
X790886Y484771D01*
X790886Y484771D02*
X791457Y483057D01*
X791457Y483057D02*
X790314Y480200D01*
X790314Y480200D02*
X786886Y480200D01*
X745143Y512714D02*
X742571Y514000D01*
X742571Y514000D02*
X740000Y511429D01*
X740000Y511429D02*
X740000Y507571D01*
X740000Y507571D02*
X742571Y505000D01*
X742571Y505000D02*
X745143Y505000D01*
X745143Y505000D02*
X745143Y508857D01*
X745143Y508857D02*
X742571Y508857D01*
X746686Y505000D02*
X746686Y514000D01*
X746686Y514000D02*
X750543Y514000D01*
X750543Y514000D02*
X751829Y512071D01*
X751829Y512071D02*
X750543Y510143D01*
X750543Y510143D02*
X746686Y510143D01*
X758514Y512714D02*
X755943Y514000D01*
X755943Y514000D02*
X753371Y512714D01*
X753371Y512714D02*
X753371Y510786D01*
X753371Y510786D02*
X758514Y508857D01*
X758514Y508857D02*
X758514Y506286D01*
X758514Y506286D02*
X755943Y505000D01*
X755943Y505000D02*
X753371Y506286D01*
X766743Y514000D02*
X766743Y505000D01*
X766743Y505000D02*
X771886Y505000D01*
X778571Y512714D02*
X776000Y514000D01*
X776000Y514000D02*
X774714Y512714D01*
X774714Y512714D02*
X773429Y509500D01*
X773429Y509500D02*
X774714Y506286D01*
X774714Y506286D02*
X776000Y505000D01*
X776000Y505000D02*
X778571Y506286D01*
X780114Y512714D02*
X781400Y514000D01*
X781400Y514000D02*
X783971Y514000D01*
X783971Y514000D02*
X785257Y511429D01*
X785257Y511429D02*
X780114Y505000D01*
X780114Y505000D02*
X785257Y505000D01*
X791943Y509500D02*
X786800Y509500D01*
X786800Y509500D02*
X786800Y512071D01*
X786800Y512071D02*
X788729Y514000D01*
X788729Y514000D02*
X790657Y514000D01*
X790657Y514000D02*
X791943Y512071D01*
X791943Y512071D02*
X791943Y506286D01*
X791943Y506286D02*
X790657Y505000D01*
X790657Y505000D02*
X788086Y505000D01*
X793486Y505000D02*
X793486Y514000D01*
X798629Y505000D02*
X798629Y514000D01*
X793486Y509500D02*
X798629Y509500D01*
X741286Y604000D02*
X743857Y604000D01*
X743857Y604000D02*
X745143Y601429D01*
X745143Y601429D02*
X745143Y597571D01*
X745143Y597571D02*
X743857Y595000D01*
X743857Y595000D02*
X741286Y595000D01*
X741286Y595000D02*
X740000Y597571D01*
X740000Y597571D02*
X740000Y601429D01*
X740000Y601429D02*
X741286Y604000D01*
X743214Y597571D02*
X745143Y595000D01*
X746686Y604000D02*
X746686Y596929D01*
X746686Y596929D02*
X748614Y595000D01*
X748614Y595000D02*
X749900Y595000D01*
X749900Y595000D02*
X751829Y596929D01*
X751829Y596929D02*
X751829Y604000D01*
X753371Y595000D02*
X753371Y604000D01*
X753371Y604000D02*
X758514Y604000D01*
X753371Y599500D02*
X757229Y599500D01*
X753371Y595000D02*
X758514Y595000D01*
X765200Y602714D02*
X762629Y604000D01*
X762629Y604000D02*
X761343Y602714D01*
X761343Y602714D02*
X760057Y599500D01*
X760057Y599500D02*
X761343Y596286D01*
X761343Y596286D02*
X762629Y595000D01*
X762629Y595000D02*
X765200Y596286D01*
X766743Y604000D02*
X771886Y604000D01*
X769314Y604000D02*
X769314Y595000D01*
X773429Y595000D02*
X773429Y604000D01*
X773429Y604000D02*
X778571Y604000D01*
X773429Y599500D02*
X777286Y599500D01*
X773429Y595000D02*
X778571Y595000D01*
X780114Y604000D02*
X780114Y595000D01*
X780114Y595000D02*
X785257Y595000D01*
X793486Y604000D02*
X793486Y595000D01*
X793486Y595000D02*
X798629Y595000D01*
X805314Y602714D02*
X802743Y604000D01*
X802743Y604000D02*
X801457Y602714D01*
X801457Y602714D02*
X800171Y599500D01*
X800171Y599500D02*
X801457Y596286D01*
X801457Y596286D02*
X802743Y595000D01*
X802743Y595000D02*
X805314Y596286D01*
X806857Y602714D02*
X808143Y604000D01*
X808143Y604000D02*
X810714Y604000D01*
X810714Y604000D02*
X812000Y601429D01*
X812000Y601429D02*
X806857Y595000D01*
X806857Y595000D02*
X812000Y595000D01*
X818686Y599500D02*
X813543Y599500D01*
X813543Y599500D02*
X813543Y602071D01*
X813543Y602071D02*
X815471Y604000D01*
X815471Y604000D02*
X817400Y604000D01*
X817400Y604000D02*
X818686Y602071D01*
X818686Y602071D02*
X818686Y596286D01*
X818686Y596286D02*
X817400Y595000D01*
X817400Y595000D02*
X814829Y595000D01*
X820229Y595000D02*
X820229Y604000D01*
X825371Y595000D02*
X825371Y604000D01*
X820229Y599500D02*
X825371Y599500D01*
X838743Y602714D02*
X836171Y604000D01*
X836171Y604000D02*
X833600Y601429D01*
X833600Y601429D02*
X833600Y597571D01*
X833600Y597571D02*
X836171Y595000D01*
X836171Y595000D02*
X838743Y595000D01*
X838743Y595000D02*
X838743Y598857D01*
X838743Y598857D02*
X836171Y598857D01*
X840286Y595000D02*
X840286Y604000D01*
X840286Y604000D02*
X845429Y595000D01*
X845429Y595000D02*
X845429Y604000D01*
X852114Y602714D02*
X849543Y604000D01*
X849543Y604000D02*
X846971Y602714D01*
X846971Y602714D02*
X846971Y600786D01*
X846971Y600786D02*
X852114Y598857D01*
X852114Y598857D02*
X852114Y596286D01*
X852114Y596286D02*
X849543Y595000D01*
X849543Y595000D02*
X846971Y596286D01*
X858800Y602714D02*
X856229Y604000D01*
X856229Y604000D02*
X853657Y602714D01*
X853657Y602714D02*
X853657Y600786D01*
X853657Y600786D02*
X858800Y598857D01*
X858800Y598857D02*
X858800Y596286D01*
X858800Y596286D02*
X856229Y595000D01*
X856229Y595000D02*
X853657Y596286D01*
X637000Y246800D02*
X637000Y240514D01*
X637000Y240514D02*
X638714Y238800D01*
X638714Y238800D02*
X639857Y238800D01*
X639857Y238800D02*
X641571Y240514D01*
X641571Y240514D02*
X641571Y246800D01*
X642943Y238800D02*
X642943Y246800D01*
X642943Y246800D02*
X646371Y246800D01*
X646371Y246800D02*
X647514Y245086D01*
X647514Y245086D02*
X646371Y243371D01*
X646371Y243371D02*
X642943Y243371D01*
X717000Y264200D02*
X717000Y272200D01*
X717000Y272200D02*
X719857Y272200D01*
X719857Y272200D02*
X721571Y269914D01*
X721571Y269914D02*
X721571Y266486D01*
X721571Y266486D02*
X719857Y264200D01*
X719857Y264200D02*
X717000Y264200D01*
X724086Y272200D02*
X726371Y272200D01*
X726371Y272200D02*
X727514Y269914D01*
X727514Y269914D02*
X727514Y266486D01*
X727514Y266486D02*
X726371Y264200D01*
X726371Y264200D02*
X724086Y264200D01*
X724086Y264200D02*
X722943Y266486D01*
X722943Y266486D02*
X722943Y269914D01*
X722943Y269914D02*
X724086Y272200D01*
X728886Y272200D02*
X730029Y264200D01*
X730029Y264200D02*
X731171Y268200D01*
X731171Y268200D02*
X732314Y264200D01*
X732314Y264200D02*
X733457Y272200D01*
X734829Y264200D02*
X734829Y272200D01*
X734829Y272200D02*
X739400Y264200D01*
X739400Y264200D02*
X739400Y272200D01*
X797000Y289600D02*
X797000Y297600D01*
X797000Y297600D02*
X799286Y293600D01*
X799286Y293600D02*
X801571Y297600D01*
X801571Y297600D02*
X801571Y289600D01*
X804086Y297600D02*
X806371Y297600D01*
X806371Y297600D02*
X807514Y295314D01*
X807514Y295314D02*
X807514Y291886D01*
X807514Y291886D02*
X806371Y289600D01*
X806371Y289600D02*
X804086Y289600D01*
X804086Y289600D02*
X802943Y291886D01*
X802943Y291886D02*
X802943Y295314D01*
X802943Y295314D02*
X804086Y297600D01*
X808886Y289600D02*
X808886Y297600D01*
X808886Y297600D02*
X811743Y297600D01*
X811743Y297600D02*
X813457Y295314D01*
X813457Y295314D02*
X813457Y291886D01*
X813457Y291886D02*
X811743Y289600D01*
X811743Y289600D02*
X808886Y289600D01*
X814829Y289600D02*
X814829Y297600D01*
X814829Y297600D02*
X819400Y297600D01*
X814829Y293600D02*
X818257Y293600D01*
X814829Y289600D02*
X819400Y289600D01*
X820000Y365000D02*
X820000Y370714D01*
X820000Y370714D02*
X822286Y373000D01*
X822286Y373000D02*
X824571Y370714D01*
X824571Y370714D02*
X824571Y365000D01*
X820000Y368429D02*
X824571Y368429D01*
X830514Y371857D02*
X828229Y373000D01*
X828229Y373000D02*
X827086Y371857D01*
X827086Y371857D02*
X825943Y369000D01*
X825943Y369000D02*
X827086Y366143D01*
X827086Y366143D02*
X828229Y365000D01*
X828229Y365000D02*
X830514Y366143D01*
X831886Y373000D02*
X836457Y373000D01*
X834171Y373000D02*
X834171Y365000D01*
X837829Y373000D02*
X837829Y366714D01*
X837829Y366714D02*
X839543Y365000D01*
X839543Y365000D02*
X840686Y365000D01*
X840686Y365000D02*
X842400Y366714D01*
X842400Y366714D02*
X842400Y373000D01*
X843771Y365000D02*
X843771Y370714D01*
X843771Y370714D02*
X846057Y373000D01*
X846057Y373000D02*
X848343Y370714D01*
X848343Y370714D02*
X848343Y365000D01*
X843771Y368429D02*
X848343Y368429D01*
X849714Y373000D02*
X854286Y373000D01*
X852000Y373000D02*
X852000Y365000D01*
X856800Y373000D02*
X859086Y373000D01*
X859086Y373000D02*
X860229Y370714D01*
X860229Y370714D02*
X860229Y367286D01*
X860229Y367286D02*
X859086Y365000D01*
X859086Y365000D02*
X856800Y365000D01*
X856800Y365000D02*
X855657Y367286D01*
X855657Y367286D02*
X855657Y370714D01*
X855657Y370714D02*
X856800Y373000D01*
X861600Y365000D02*
X861600Y373000D01*
X861600Y373000D02*
X865029Y373000D01*
X865029Y373000D02*
X866171Y371286D01*
X866171Y371286D02*
X865029Y369571D01*
X865029Y369571D02*
X861600Y369571D01*
X863886Y369571D02*
X866171Y365000D01*
X872114Y371857D02*
X869829Y373000D01*
X869829Y373000D02*
X867543Y371857D01*
X867543Y371857D02*
X867543Y370143D01*
X867543Y370143D02*
X872114Y368429D01*
X872114Y368429D02*
X872114Y366143D01*
X872114Y366143D02*
X869829Y365000D01*
X869829Y365000D02*
X867543Y366143D01*
X885371Y365000D02*
X885371Y373000D01*
X885371Y373000D02*
X888800Y373000D01*
X888800Y373000D02*
X889943Y371286D01*
X889943Y371286D02*
X888800Y369571D01*
X888800Y369571D02*
X885371Y369571D01*
X887657Y369571D02*
X889943Y365000D01*
X892457Y373000D02*
X894743Y373000D01*
X894743Y373000D02*
X895886Y370714D01*
X895886Y370714D02*
X895886Y367286D01*
X895886Y367286D02*
X894743Y365000D01*
X894743Y365000D02*
X892457Y365000D01*
X892457Y365000D02*
X891314Y367286D01*
X891314Y367286D02*
X891314Y370714D01*
X891314Y370714D02*
X892457Y373000D01*
X897257Y373000D02*
X899543Y365000D01*
X899543Y365000D02*
X901829Y373000D01*
X903200Y365000D02*
X903200Y373000D01*
X903200Y373000D02*
X907771Y373000D01*
X903200Y369000D02*
X906629Y369000D01*
X903200Y365000D02*
X907771Y365000D01*
X909143Y365000D02*
X909143Y373000D01*
X909143Y373000D02*
X912571Y373000D01*
X912571Y373000D02*
X913714Y371286D01*
X913714Y371286D02*
X912571Y369571D01*
X912571Y369571D02*
X909143Y369571D01*
X911429Y369571D02*
X913714Y365000D01*
X909286Y354429D02*
X907143Y355500D01*
X907143Y355500D02*
X905000Y354429D01*
X905000Y354429D02*
X905000Y352821D01*
X905000Y352821D02*
X909286Y351214D01*
X909286Y351214D02*
X909286Y349071D01*
X909286Y349071D02*
X907143Y348000D01*
X907143Y348000D02*
X905000Y349071D01*
X916143Y351750D02*
X920429Y351750D01*
X918286Y349607D02*
X918286Y353893D01*
X927821Y351750D02*
X931036Y351750D01*
X819000Y333800D02*
X817000Y334800D01*
X817000Y334800D02*
X816000Y333800D01*
X816000Y333800D02*
X815000Y331300D01*
X815000Y331300D02*
X816000Y328800D01*
X816000Y328800D02*
X817000Y327800D01*
X817000Y327800D02*
X819000Y328800D01*
X820200Y327800D02*
X820200Y334800D01*
X820200Y334800D02*
X823200Y334800D01*
X823200Y334800D02*
X824200Y333300D01*
X824200Y333300D02*
X823200Y331800D01*
X823200Y331800D02*
X820200Y331800D01*
X822200Y331800D02*
X824200Y327800D01*
X825400Y327800D02*
X825400Y334800D01*
X825400Y334800D02*
X829400Y334800D01*
X825400Y331300D02*
X828400Y331300D01*
X825400Y327800D02*
X829400Y327800D01*
X830600Y327800D02*
X830600Y334800D01*
X830600Y334800D02*
X832600Y331300D01*
X832600Y331300D02*
X834600Y334800D01*
X834600Y334800D02*
X834600Y327800D01*
X835800Y327800D02*
X835800Y332800D01*
X835800Y332800D02*
X837800Y334800D01*
X837800Y334800D02*
X839800Y332800D01*
X839800Y332800D02*
X839800Y327800D01*
X835800Y330800D02*
X839800Y330800D01*
X841000Y334800D02*
X841000Y327800D01*
X841000Y327800D02*
X845000Y327800D01*
X846200Y327800D02*
X846200Y334800D01*
X850200Y327800D02*
X850200Y334800D01*
X846200Y331300D02*
X850200Y331300D01*
X851400Y327800D02*
X851400Y334800D01*
X851400Y334800D02*
X855400Y334800D01*
X851400Y331300D02*
X854400Y331300D01*
X851400Y327800D02*
X855400Y327800D01*
X857600Y334800D02*
X859600Y334800D01*
X858600Y334800D02*
X858600Y327800D01*
X857600Y327800D02*
X859600Y327800D01*
X861800Y327800D02*
X861800Y334800D01*
X861800Y334800D02*
X864800Y334800D01*
X864800Y334800D02*
X865800Y333300D01*
X865800Y333300D02*
X864800Y331800D01*
X864800Y331800D02*
X861800Y331800D01*
X863800Y331800D02*
X865800Y327800D01*
X867000Y327800D02*
X867000Y332800D01*
X867000Y332800D02*
X869000Y334800D01*
X869000Y334800D02*
X871000Y332800D01*
X871000Y332800D02*
X871000Y327800D01*
X867000Y330800D02*
X871000Y330800D01*
X895000Y182000D02*
X895000Y189000D01*
X895000Y189000D02*
X899000Y189000D01*
X895000Y185500D02*
X898000Y185500D01*
X895000Y182000D02*
X899000Y182000D01*
X904200Y188000D02*
X902200Y189000D01*
X902200Y189000D02*
X900200Y188000D01*
X900200Y188000D02*
X900200Y186500D01*
X900200Y186500D02*
X904200Y185000D01*
X904200Y185000D02*
X904200Y183000D01*
X904200Y183000D02*
X902200Y182000D01*
X902200Y182000D02*
X900200Y183000D01*
X909400Y188000D02*
X907400Y189000D01*
X907400Y189000D02*
X906400Y188000D01*
X906400Y188000D02*
X905400Y185500D01*
X905400Y185500D02*
X906400Y183000D01*
X906400Y183000D02*
X907400Y182000D01*
X907400Y182000D02*
X909400Y183000D01*
X910600Y182000D02*
X914600Y189000D01*
X915800Y189000D02*
X915800Y183500D01*
X915800Y183500D02*
X917300Y182000D01*
X917300Y182000D02*
X918300Y182000D01*
X918300Y182000D02*
X919800Y183500D01*
X919800Y183500D02*
X919800Y189000D01*
X921000Y182000D02*
X921000Y189000D01*
X921000Y189000D02*
X924000Y189000D01*
X924000Y189000D02*
X925000Y187500D01*
X925000Y187500D02*
X924000Y186000D01*
X924000Y186000D02*
X921000Y186000D01*
X568500Y108500D02*
X571500Y108500D01*
X578400Y108500D02*
X582400Y108500D01*
X580400Y106500D02*
X580400Y110500D01*
X520000Y55000D02*
X520000Y63000D01*
X520000Y63000D02*
X523429Y63000D01*
X523429Y63000D02*
X524571Y61286D01*
X524571Y61286D02*
X523429Y59571D01*
X523429Y59571D02*
X520000Y59571D01*
X525943Y63000D02*
X527086Y55000D01*
X527086Y55000D02*
X528229Y59000D01*
X528229Y59000D02*
X529371Y55000D01*
X529371Y55000D02*
X530514Y63000D01*
X531886Y55000D02*
X531886Y63000D01*
X531886Y63000D02*
X535314Y63000D01*
X535314Y63000D02*
X536457Y61286D01*
X536457Y61286D02*
X535314Y59571D01*
X535314Y59571D02*
X531886Y59571D01*
X534171Y59571D02*
X536457Y55000D01*
X543771Y55000D02*
X543771Y63000D01*
X543771Y63000D02*
X548343Y63000D01*
X543771Y59000D02*
X547200Y59000D01*
X543771Y55000D02*
X548343Y55000D01*
X554286Y61857D02*
X552000Y63000D01*
X552000Y63000D02*
X549714Y61857D01*
X549714Y61857D02*
X549714Y60143D01*
X549714Y60143D02*
X554286Y58429D01*
X554286Y58429D02*
X554286Y56143D01*
X554286Y56143D02*
X552000Y55000D01*
X552000Y55000D02*
X549714Y56143D01*
X555657Y55000D02*
X555657Y63000D01*
X555657Y63000D02*
X559086Y63000D01*
X559086Y63000D02*
X560229Y61286D01*
X560229Y61286D02*
X559086Y59571D01*
X559086Y59571D02*
X555657Y59571D01*
X572114Y63000D02*
X567543Y63000D01*
X567543Y63000D02*
X567543Y59571D01*
X567543Y59571D02*
X570971Y59571D01*
X570971Y59571D02*
X572114Y57857D01*
X572114Y57857D02*
X570971Y55000D01*
X570971Y55000D02*
X567543Y55000D01*
X573486Y63000D02*
X575771Y55000D01*
X575771Y55000D02*
X578057Y63000D01*
X930000Y148500D02*
X934000Y148500D01*
X932000Y146500D02*
X932000Y150500D01*
X940900Y148500D02*
X943900Y148500D01*
X890000Y85000D02*
X890000Y93000D01*
X890000Y93000D02*
X893429Y93000D01*
X893429Y93000D02*
X894571Y91286D01*
X894571Y91286D02*
X893429Y89571D01*
X893429Y89571D02*
X890000Y89571D01*
X895943Y93000D02*
X897086Y85000D01*
X897086Y85000D02*
X898229Y89000D01*
X898229Y89000D02*
X899371Y85000D01*
X899371Y85000D02*
X900514Y93000D01*
X901886Y85000D02*
X901886Y93000D01*
X901886Y93000D02*
X905314Y93000D01*
X905314Y93000D02*
X906457Y91286D01*
X906457Y91286D02*
X905314Y89571D01*
X905314Y89571D02*
X901886Y89571D01*
X904171Y89571D02*
X906457Y85000D01*
X918343Y91857D02*
X916057Y93000D01*
X916057Y93000D02*
X913771Y91857D01*
X913771Y91857D02*
X913771Y90143D01*
X913771Y90143D02*
X918343Y88429D01*
X918343Y88429D02*
X918343Y86143D01*
X918343Y86143D02*
X916057Y85000D01*
X916057Y85000D02*
X913771Y86143D01*
X919714Y85000D02*
X919714Y93000D01*
X919714Y93000D02*
X924286Y93000D01*
X919714Y89000D02*
X923143Y89000D01*
X919714Y85000D02*
X924286Y85000D01*
X925657Y85000D02*
X925657Y93000D01*
X925657Y93000D02*
X929086Y93000D01*
X929086Y93000D02*
X930229Y91286D01*
X930229Y91286D02*
X929086Y89571D01*
X929086Y89571D02*
X925657Y89571D01*
X927943Y89571D02*
X930229Y85000D01*
X931600Y93000D02*
X933886Y85000D01*
X933886Y85000D02*
X936171Y93000D01*
X938686Y93000D02*
X940971Y93000D01*
X940971Y93000D02*
X942114Y90714D01*
X942114Y90714D02*
X942114Y87286D01*
X942114Y87286D02*
X940971Y85000D01*
X940971Y85000D02*
X938686Y85000D01*
X938686Y85000D02*
X937543Y87286D01*
X937543Y87286D02*
X937543Y90714D01*
X937543Y90714D02*
X938686Y93000D01*
X954000Y93000D02*
X949429Y93000D01*
X949429Y93000D02*
X949429Y89571D01*
X949429Y89571D02*
X952857Y89571D01*
X952857Y89571D02*
X954000Y87857D01*
X954000Y87857D02*
X952857Y85000D01*
X952857Y85000D02*
X949429Y85000D01*
X955371Y93000D02*
X957657Y85000D01*
X957657Y85000D02*
X959943Y93000D01*
X100000Y66500D02*
X101643Y55000D01*
X101643Y55000D02*
X103286Y60750D01*
X103286Y60750D02*
X104929Y55000D01*
X104929Y55000D02*
X106571Y66500D01*
X110186Y66500D02*
X113471Y66500D01*
X111829Y66500D02*
X111829Y55000D01*
X110186Y55000D02*
X113471Y55000D01*
X117086Y55000D02*
X117086Y66500D01*
X117086Y66500D02*
X123657Y55000D01*
X123657Y55000D02*
X123657Y66500D01*
X125629Y55000D02*
X125629Y66500D01*
X125629Y66500D02*
X129736Y66500D01*
X129736Y66500D02*
X132200Y63214D01*
X132200Y63214D02*
X132200Y58286D01*
X132200Y58286D02*
X129736Y55000D01*
X129736Y55000D02*
X125629Y55000D01*
X134171Y55000D02*
X134171Y66500D01*
X134171Y66500D02*
X138279Y66500D01*
X138279Y66500D02*
X140743Y63214D01*
X140743Y63214D02*
X140743Y58286D01*
X140743Y58286D02*
X138279Y55000D01*
X138279Y55000D02*
X134171Y55000D01*
X142714Y55000D02*
X142714Y66500D01*
X142714Y66500D02*
X147643Y66500D01*
X147643Y66500D02*
X149286Y64036D01*
X149286Y64036D02*
X147643Y61571D01*
X147643Y61571D02*
X142714Y61571D01*
X146000Y61571D02*
X149286Y55000D01*
X151257Y55000D02*
X151257Y63214D01*
X151257Y63214D02*
X154543Y66500D01*
X154543Y66500D02*
X157829Y63214D01*
X157829Y63214D02*
X157829Y55000D01*
X151257Y59929D02*
X157829Y59929D01*
X166371Y64857D02*
X163086Y66500D01*
X163086Y66500D02*
X159800Y63214D01*
X159800Y63214D02*
X159800Y58286D01*
X159800Y58286D02*
X163086Y55000D01*
X163086Y55000D02*
X166371Y55000D01*
X166371Y55000D02*
X166371Y59929D01*
X166371Y59929D02*
X163086Y59929D01*
X169986Y66500D02*
X173271Y66500D01*
X173271Y66500D02*
X174914Y63214D01*
X174914Y63214D02*
X174914Y58286D01*
X174914Y58286D02*
X173271Y55000D01*
X173271Y55000D02*
X169986Y55000D01*
X169986Y55000D02*
X168343Y58286D01*
X168343Y58286D02*
X168343Y63214D01*
X168343Y63214D02*
X169986Y66500D01*
X176886Y55000D02*
X176886Y66500D01*
X176886Y66500D02*
X183457Y55000D01*
X183457Y55000D02*
X183457Y66500D01*
X192000Y64857D02*
X188714Y66500D01*
X188714Y66500D02*
X185429Y64857D01*
X185429Y64857D02*
X185429Y62393D01*
X185429Y62393D02*
X192000Y59929D01*
X192000Y59929D02*
X192000Y56643D01*
X192000Y56643D02*
X188714Y55000D01*
X188714Y55000D02*
X185429Y56643D01*
X202514Y66500D02*
X202514Y57464D01*
X202514Y57464D02*
X204979Y55000D01*
X204979Y55000D02*
X206621Y55000D01*
X206621Y55000D02*
X209086Y57464D01*
X209086Y57464D02*
X209086Y66500D01*
X211057Y55000D02*
X211057Y66500D01*
X211057Y66500D02*
X217629Y55000D01*
X217629Y55000D02*
X217629Y66500D01*
X221243Y66500D02*
X224529Y66500D01*
X222886Y66500D02*
X222886Y55000D01*
X221243Y55000D02*
X224529Y55000D01*
X228143Y66500D02*
X231429Y55000D01*
X231429Y55000D02*
X234714Y66500D01*
X236686Y55000D02*
X236686Y66500D01*
X236686Y66500D02*
X243257Y66500D01*
X236686Y60750D02*
X241614Y60750D01*
X236686Y55000D02*
X243257Y55000D01*
X245229Y55000D02*
X245229Y66500D01*
X245229Y66500D02*
X250157Y66500D01*
X250157Y66500D02*
X251800Y64036D01*
X251800Y64036D02*
X250157Y61571D01*
X250157Y61571D02*
X245229Y61571D01*
X248514Y61571D02*
X251800Y55000D01*
X260343Y64857D02*
X257057Y66500D01*
X257057Y66500D02*
X253771Y64857D01*
X253771Y64857D02*
X253771Y62393D01*
X253771Y62393D02*
X260343Y59929D01*
X260343Y59929D02*
X260343Y56643D01*
X260343Y56643D02*
X257057Y55000D01*
X257057Y55000D02*
X253771Y56643D01*
X262314Y55000D02*
X262314Y63214D01*
X262314Y63214D02*
X265600Y66500D01*
X265600Y66500D02*
X268886Y63214D01*
X268886Y63214D02*
X268886Y55000D01*
X262314Y59929D02*
X268886Y59929D01*
X270857Y66500D02*
X270857Y55000D01*
X270857Y55000D02*
X277429Y55000D01*
X294514Y64857D02*
X291229Y66500D01*
X291229Y66500D02*
X289586Y64857D01*
X289586Y64857D02*
X287943Y60750D01*
X287943Y60750D02*
X289586Y56643D01*
X289586Y56643D02*
X291229Y55000D01*
X291229Y55000D02*
X294514Y56643D01*
X296486Y55000D02*
X296486Y63214D01*
X296486Y63214D02*
X299771Y66500D01*
X299771Y66500D02*
X303057Y63214D01*
X303057Y63214D02*
X303057Y55000D01*
X296486Y59929D02*
X303057Y59929D01*
X305029Y55000D02*
X305029Y66500D01*
X305029Y66500D02*
X309957Y66500D01*
X309957Y66500D02*
X311600Y64036D01*
X311600Y64036D02*
X309957Y61571D01*
X309957Y61571D02*
X305029Y61571D01*
X308314Y61571D02*
X311600Y55000D01*
X313571Y55000D02*
X313571Y66500D01*
X313571Y66500D02*
X318500Y66500D01*
X318500Y66500D02*
X320143Y64036D01*
X320143Y64036D02*
X318500Y61571D01*
X318500Y61571D02*
X313571Y61571D01*
X316857Y61571D02*
X320143Y55000D01*
X323757Y66500D02*
X327043Y66500D01*
X325400Y66500D02*
X325400Y55000D01*
X323757Y55000D02*
X327043Y55000D01*
X330657Y55000D02*
X330657Y66500D01*
X330657Y66500D02*
X337229Y66500D01*
X330657Y60750D02*
X335586Y60750D01*
X330657Y55000D02*
X337229Y55000D01*
X339200Y55000D02*
X339200Y66500D01*
X339200Y66500D02*
X344129Y66500D01*
X344129Y66500D02*
X345771Y64036D01*
X345771Y64036D02*
X344129Y61571D01*
X344129Y61571D02*
X339200Y61571D01*
X342486Y61571D02*
X345771Y55000D01*
X356286Y66500D02*
X359571Y55000D01*
X359571Y55000D02*
X362857Y66500D01*
X364829Y66500D02*
X371400Y66500D01*
X371400Y66500D02*
X368114Y61571D01*
X368114Y61571D02*
X370579Y61571D01*
X370579Y61571D02*
X371400Y59107D01*
X371400Y59107D02*
X369757Y55000D01*
X369757Y55000D02*
X364829Y55000D01*
X375836Y55000D02*
X377479Y55000D01*
X377479Y55000D02*
X377479Y56643D01*
X377479Y56643D02*
X375836Y56643D01*
X375836Y56643D02*
X375836Y55000D01*
X383557Y63214D02*
X385200Y66500D01*
X385200Y66500D02*
X385200Y55000D01*
X383557Y55000D02*
X386843Y55000D01*
X407543Y55000D02*
X407543Y66500D01*
X407543Y66500D02*
X412471Y66500D01*
X412471Y66500D02*
X414114Y64036D01*
X414114Y64036D02*
X412471Y61571D01*
X412471Y61571D02*
X407543Y61571D01*
X410829Y61571D02*
X414114Y55000D01*
X417729Y66500D02*
X421014Y66500D01*
X421014Y66500D02*
X422657Y63214D01*
X422657Y63214D02*
X422657Y58286D01*
X422657Y58286D02*
X421014Y55000D01*
X421014Y55000D02*
X417729Y55000D01*
X417729Y55000D02*
X416086Y58286D01*
X416086Y58286D02*
X416086Y63214D01*
X416086Y63214D02*
X417729Y66500D01*
X424629Y66500D02*
X427914Y55000D01*
X427914Y55000D02*
X431200Y66500D01*
X433171Y55000D02*
X433171Y66500D01*
X433171Y66500D02*
X439743Y66500D01*
X433171Y60750D02*
X438100Y60750D01*
X433171Y55000D02*
X439743Y55000D01*
X441714Y55000D02*
X441714Y66500D01*
X441714Y66500D02*
X446643Y66500D01*
X446643Y66500D02*
X448286Y64036D01*
X448286Y64036D02*
X446643Y61571D01*
X446643Y61571D02*
X441714Y61571D01*
X445000Y61571D02*
X448286Y55000D01*
X475886Y55000D02*
X475886Y66500D01*
X475886Y66500D02*
X480814Y66500D01*
X480814Y66500D02*
X482457Y64036D01*
X482457Y64036D02*
X480814Y61571D01*
X480814Y61571D02*
X475886Y61571D01*
X480814Y61571D02*
X482457Y58286D01*
X482457Y58286D02*
X480814Y55000D01*
X480814Y55000D02*
X475886Y55000D01*
X484429Y55000D02*
X484429Y63214D01*
X484429Y63214D02*
X487714Y66500D01*
X487714Y66500D02*
X491000Y63214D01*
X491000Y63214D02*
X491000Y55000D01*
X484429Y59929D02*
X491000Y59929D01*
X499543Y64857D02*
X496257Y66500D01*
X496257Y66500D02*
X492971Y64857D01*
X492971Y64857D02*
X492971Y62393D01*
X492971Y62393D02*
X499543Y59929D01*
X499543Y59929D02*
X499543Y56643D01*
X499543Y56643D02*
X496257Y55000D01*
X496257Y55000D02*
X492971Y56643D01*
X501514Y55000D02*
X501514Y66500D01*
X501514Y66500D02*
X508086Y66500D01*
X501514Y60750D02*
X506443Y60750D01*
X501514Y55000D02*
X508086Y55000D01*
X101214Y38071D02*
X102429Y40500D01*
X102429Y40500D02*
X102429Y32000D01*
X101214Y32000D02*
X103643Y32000D01*
X107529Y40500D02*
X109957Y40500D01*
X109957Y40500D02*
X111171Y38071D01*
X111171Y38071D02*
X111171Y34429D01*
X111171Y34429D02*
X109957Y32000D01*
X109957Y32000D02*
X107529Y32000D01*
X107529Y32000D02*
X106314Y34429D01*
X106314Y34429D02*
X106314Y38071D01*
X106314Y38071D02*
X107529Y40500D01*
X106314Y33214D02*
X111171Y39286D01*
X113843Y40500D02*
X116271Y40500D01*
X116271Y40500D02*
X117486Y38071D01*
X117486Y38071D02*
X117486Y34429D01*
X117486Y34429D02*
X116271Y32000D01*
X116271Y32000D02*
X113843Y32000D01*
X113843Y32000D02*
X112629Y34429D01*
X112629Y34429D02*
X112629Y38071D01*
X112629Y38071D02*
X113843Y40500D01*
X112629Y33214D02*
X117486Y39286D01*
X131571Y32000D02*
X131571Y40500D01*
X131571Y40500D02*
X135214Y40500D01*
X135214Y40500D02*
X136429Y38679D01*
X136429Y38679D02*
X135214Y36857D01*
X135214Y36857D02*
X131571Y36857D01*
X137886Y40500D02*
X137886Y32000D01*
X137886Y32000D02*
X142743Y32000D01*
X144200Y32000D02*
X144200Y38071D01*
X144200Y38071D02*
X146629Y40500D01*
X146629Y40500D02*
X149057Y38071D01*
X149057Y38071D02*
X149057Y32000D01*
X144200Y35643D02*
X149057Y35643D01*
X150514Y32000D02*
X150514Y40500D01*
X150514Y40500D02*
X155371Y32000D01*
X155371Y32000D02*
X155371Y40500D01*
X156829Y32000D02*
X156829Y38071D01*
X156829Y38071D02*
X159257Y40500D01*
X159257Y40500D02*
X161686Y38071D01*
X161686Y38071D02*
X161686Y32000D01*
X156829Y35643D02*
X161686Y35643D01*
X163143Y32000D02*
X163143Y40500D01*
X163143Y40500D02*
X166786Y40500D01*
X166786Y40500D02*
X168000Y38679D01*
X168000Y38679D02*
X166786Y36857D01*
X166786Y36857D02*
X163143Y36857D01*
X165571Y36857D02*
X168000Y32000D01*
X175771Y40500D02*
X180629Y40500D01*
X180629Y40500D02*
X175771Y32000D01*
X175771Y32000D02*
X180629Y32000D01*
X182086Y32000D02*
X182086Y40500D01*
X182086Y40500D02*
X186943Y40500D01*
X182086Y36250D02*
X185729Y36250D01*
X182086Y32000D02*
X186943Y32000D01*
X188400Y32000D02*
X188400Y40500D01*
X188400Y40500D02*
X192043Y40500D01*
X192043Y40500D02*
X193257Y38679D01*
X193257Y38679D02*
X192043Y36857D01*
X192043Y36857D02*
X188400Y36857D01*
X190829Y36857D02*
X193257Y32000D01*
X195929Y40500D02*
X198357Y40500D01*
X198357Y40500D02*
X199571Y38071D01*
X199571Y38071D02*
X199571Y34429D01*
X199571Y34429D02*
X198357Y32000D01*
X198357Y32000D02*
X195929Y32000D01*
X195929Y32000D02*
X194714Y34429D01*
X194714Y34429D02*
X194714Y38071D01*
X194714Y38071D02*
X195929Y40500D01*
X201636Y36250D02*
X205279Y36250D01*
X212200Y39286D02*
X209771Y40500D01*
X209771Y40500D02*
X208557Y39286D01*
X208557Y39286D02*
X207343Y36250D01*
X207343Y36250D02*
X208557Y33214D01*
X208557Y33214D02*
X209771Y32000D01*
X209771Y32000D02*
X212200Y33214D01*
X213657Y32000D02*
X213657Y40500D01*
X213657Y40500D02*
X217300Y40500D01*
X217300Y40500D02*
X218514Y38679D01*
X218514Y38679D02*
X217300Y36857D01*
X217300Y36857D02*
X213657Y36857D01*
X216086Y36857D02*
X218514Y32000D01*
X221186Y40500D02*
X223614Y40500D01*
X223614Y40500D02*
X224829Y38071D01*
X224829Y38071D02*
X224829Y34429D01*
X224829Y34429D02*
X223614Y32000D01*
X223614Y32000D02*
X221186Y32000D01*
X221186Y32000D02*
X219971Y34429D01*
X219971Y34429D02*
X219971Y38071D01*
X219971Y38071D02*
X221186Y40500D01*
X231143Y39286D02*
X228714Y40500D01*
X228714Y40500D02*
X226286Y39286D01*
X226286Y39286D02*
X226286Y37464D01*
X226286Y37464D02*
X231143Y35643D01*
X231143Y35643D02*
X231143Y33214D01*
X231143Y33214D02*
X228714Y32000D01*
X228714Y32000D02*
X226286Y33214D01*
X237457Y39286D02*
X235029Y40500D01*
X235029Y40500D02*
X232600Y39286D01*
X232600Y39286D02*
X232600Y37464D01*
X232600Y37464D02*
X237457Y35643D01*
X237457Y35643D02*
X237457Y33214D01*
X237457Y33214D02*
X235029Y32000D01*
X235029Y32000D02*
X232600Y33214D01*
X240129Y40500D02*
X242557Y40500D01*
X241343Y40500D02*
X241343Y32000D01*
X240129Y32000D02*
X242557Y32000D01*
X245229Y32000D02*
X245229Y40500D01*
X245229Y40500D02*
X250086Y32000D01*
X250086Y32000D02*
X250086Y40500D01*
X256400Y39286D02*
X253971Y40500D01*
X253971Y40500D02*
X251543Y38071D01*
X251543Y38071D02*
X251543Y34429D01*
X251543Y34429D02*
X253971Y32000D01*
X253971Y32000D02*
X256400Y32000D01*
X256400Y32000D02*
X256400Y35643D01*
X256400Y35643D02*
X253971Y35643D01*
X271700Y38071D02*
X272914Y40500D01*
X272914Y40500D02*
X272914Y32000D01*
X271700Y32000D02*
X274129Y32000D01*
X278014Y40500D02*
X280443Y40500D01*
X280443Y40500D02*
X281657Y38071D01*
X281657Y38071D02*
X281657Y34429D01*
X281657Y34429D02*
X280443Y32000D01*
X280443Y32000D02*
X278014Y32000D01*
X278014Y32000D02*
X276800Y34429D01*
X276800Y34429D02*
X276800Y38071D01*
X276800Y38071D02*
X278014Y40500D01*
X276800Y33214D02*
X281657Y39286D01*
X284329Y40500D02*
X286757Y40500D01*
X286757Y40500D02*
X287971Y38071D01*
X287971Y38071D02*
X287971Y34429D01*
X287971Y34429D02*
X286757Y32000D01*
X286757Y32000D02*
X284329Y32000D01*
X284329Y32000D02*
X283114Y34429D01*
X283114Y34429D02*
X283114Y38071D01*
X283114Y38071D02*
X284329Y40500D01*
X283114Y33214D02*
X287971Y39286D01*
X289429Y32000D02*
X294286Y40500D01*
X289429Y40500D02*
X294286Y32000D01*
X295743Y40500D02*
X300600Y40500D01*
X300600Y40500D02*
X297564Y32000D01*
X303271Y40500D02*
X305700Y40500D01*
X305700Y40500D02*
X306914Y38071D01*
X306914Y38071D02*
X306914Y34429D01*
X306914Y34429D02*
X305700Y32000D01*
X305700Y32000D02*
X303271Y32000D01*
X303271Y32000D02*
X302057Y34429D01*
X302057Y34429D02*
X302057Y38071D01*
X302057Y38071D02*
X303271Y40500D01*
X302057Y33214D02*
X306914Y39286D01*
X308371Y32000D02*
X308371Y40500D01*
X308371Y40500D02*
X310800Y36250D01*
X310800Y36250D02*
X313229Y40500D01*
X313229Y40500D02*
X313229Y32000D01*
X314686Y32000D02*
X314686Y40500D01*
X314686Y40500D02*
X317114Y36250D01*
X317114Y36250D02*
X319543Y40500D01*
X319543Y40500D02*
X319543Y32000D01*
M02*
