M48
; DRILL file for WindDragons PCB
METRIC,TZ
FMAT,2
T2C1.000
T5C1.200
T3C1.500
T4C1.600
T1C3.200
%
G90
G05
T2
X36000Y15000
X36000Y17540
X36000Y20080
X36000Y22620
X36000Y25160
X36000Y27700
X36000Y30240
X36000Y32780
X36000Y35320
X36000Y37860
X36000Y40400
X36000Y42940
X36000Y45480
X36000Y48020
X36000Y50560
X36000Y53100
X58860Y15000
X58860Y17540
X58860Y20080
X58860Y22620
X58860Y25160
X58860Y27700
X58860Y30240
X58860Y32780
X58860Y35320
X58860Y37860
X58860Y40400
X58860Y42940
X58860Y45480
X58860Y48020
X58860Y50560
X58860Y53100
X26500Y15000
X26500Y17540
X26500Y20080
X26500Y22620
X26500Y25160
X26500Y27700
X26500Y40400
X26500Y45480
X11500Y22780
X14000Y22780
X16500Y22780
X22730Y34010
X22730Y31510
X22730Y29010
X31000Y30240
X31000Y32780
X31000Y35320
X31000Y37860
X31000Y42940
X31000Y45480
X75000Y40400
X75000Y42940
X75000Y45480
X75000Y48020
X90000Y20080
X92540Y20080
X95080Y20080
X90000Y22620
X92540Y22620
X95080Y22620
X90000Y25160
X92540Y25160
X95080Y25160
X90000Y32780
X92540Y32780
X95080Y32780
X56320Y8000
X58860Y8000
X92540Y12000
X95080Y12000
T5
X10750Y37260
X17250Y37260
X10750Y41760
X17250Y41760
T3
X7675Y36510
X20325Y36510
X7675Y26510
X20325Y26510
T4
X9700Y31510
X18300Y31510
T1
X4500Y4500
X95500Y4500
X4500Y65500
X95500Y65500
M30
