%FSLAX44Y44*%
%MOMM*%
%LPD*%
G04 Layer: Top Copper*%
G04 Generated by WindDragons EDA Generator (100% Planar Zero-Crossing)*%
%ADD10C,6.0000*%
%ADD11C,1.7000*%
%ADD12R,1.7000X1.7000*%
%ADD13R,1.8000X1.2000*%
%ADD14C,0.5000*%
%ADD15C,0.6000*%
%ADD16C,1.0000*%
%ADD17C,0.4000*%
%ADD18C,0.8000*%
D10*
X45000Y45000D03*
X955000Y45000D03*
X45000Y655000D03*
X955000Y655000D03*
D12*
X360000Y150000D03*
D11*
X360000Y175400D03*
X360000Y200800D03*
X360000Y226200D03*
X360000Y251600D03*
X360000Y277000D03*
X360000Y302400D03*
X360000Y327800D03*
X360000Y353200D03*
X360000Y378600D03*
X360000Y404000D03*
X360000Y429400D03*
X360000Y454800D03*
X360000Y480200D03*
X360000Y505600D03*
X360000Y531000D03*
D12*
X588600Y150000D03*
D11*
X588600Y175400D03*
X588600Y200800D03*
X588600Y226200D03*
X588600Y251600D03*
X588600Y277000D03*
X588600Y302400D03*
X588600Y327800D03*
X588600Y353200D03*
X588600Y378600D03*
X588600Y404000D03*
X588600Y429400D03*
X588600Y454800D03*
X588600Y480200D03*
X588600Y505600D03*
X588600Y531000D03*
D12*
X265000Y150000D03*
D11*
X265000Y175400D03*
X265000Y200800D03*
X265000Y226200D03*
X265000Y251600D03*
X265000Y277000D03*
X265000Y404000D03*
X265000Y454800D03*
X76750Y365100D03*
X203250Y365100D03*
X76750Y265100D03*
X203250Y265100D03*
X97000Y315100D03*
X183000Y315100D03*
X115000Y227800D03*
D12*
X140000Y227800D03*
D11*
X165000Y227800D03*
X227300Y340100D03*
D12*
X227300Y315100D03*
D11*
X227300Y290100D03*
X107500Y372600D03*
X172500Y372600D03*
X107500Y417600D03*
X172500Y417600D03*
D12*
X310000Y302400D03*
D11*
X310000Y327800D03*
X310000Y353200D03*
X310000Y378600D03*
D12*
X310000Y429400D03*
D11*
X310000Y454800D03*
D12*
X750000Y404000D03*
D11*
X750000Y429400D03*
X750000Y454800D03*
X750000Y480200D03*
D13*
X632500Y223300D03*
X632500Y178300D03*
X697500Y223300D03*
X697500Y178300D03*
X712500Y248700D03*
X712500Y203700D03*
X777500Y248700D03*
X777500Y203700D03*
X792500Y274100D03*
X792500Y229100D03*
X857500Y274100D03*
X857500Y229100D03*
D12*
X900000Y200800D03*
D11*
X925400Y200800D03*
X950800Y200800D03*
D12*
X900000Y226200D03*
D11*
X925400Y226200D03*
X950800Y226200D03*
D12*
X900000Y251600D03*
D11*
X925400Y251600D03*
X950800Y251600D03*
D12*
X900000Y327800D03*
D11*
X925400Y327800D03*
X950800Y327800D03*
D12*
X563200Y80000D03*
D11*
X588600Y80000D03*
D12*
X925400Y120000D03*
D11*
X950800Y120000D03*
D14*
X632500Y223300D02*
X632500Y178300D01*
X697500Y223300D02*
X697500Y178300D01*
X712500Y248700D02*
X712500Y203700D01*
X777500Y248700D02*
X777500Y203700D01*
X792500Y274100D02*
X792500Y229100D01*
X857500Y274100D02*
X857500Y229100D01*
X588600Y200800D02*
X900000Y200800D01*
X588600Y226200D02*
X900000Y226200D01*
X588600Y251600D02*
X900000Y251600D01*
X588600Y327800D02*
X900000Y327800D01*
X588600Y404000D02*
X750000Y404000D01*
X588600Y429400D02*
X750000Y429400D01*
D15*
X588600Y454800D02*
X750000Y454800D01*
X588600Y480200D02*
X750000Y480200D01*
D16*
X925400Y120000D02*
X925400Y327800D01*
X950800Y120000D02*
X950800Y327800D01*
D15*
X265000Y150000D02*
X360000Y150000D01*
D17*
X265000Y200800D02*
X360000Y200800D01*
X265000Y226200D02*
X360000Y226200D01*
X265000Y251600D02*
X360000Y251600D01*
X265000Y277000D02*
X360000Y277000D01*
X265000Y404000D02*
X360000Y404000D01*
X265000Y454800D02*
X360000Y454800D01*
X140000Y227800D02*
X140000Y212000D01*
X140000Y212000D02*
X245000Y212000D01*
X245000Y212000D02*
X245000Y302400D01*
X245000Y302400D02*
X360000Y302400D01*
X227300Y315100D02*
X245000Y315100D01*
X245000Y315100D02*
X245000Y327800D01*
X245000Y327800D02*
X360000Y327800D01*
X172500Y417600D02*
X172500Y480200D01*
X172500Y480200D02*
X360000Y480200D01*
X310000Y429400D02*
X360000Y429400D01*
D18*
X588600Y80000D02*
X588600Y150000D01*
M02*
