%TF.GenerationSoftware,KiCad,Pcbnew,10.0.6*%
%TF.CreationDate,2026-10-09T16:16:54+01:00*%
%TF.ProjectId,Universal_Carrier,556e6976-6572-4736-916c-5f4361727269,V4.1 - Zero DRC Parity Clean*%
%TF.SameCoordinates,Original*%
%TF.FileFunction,Soldermask,Bot*%
%TF.FilePolarity,Negative*%
%FSLAX46Y46*%
G04 Gerber Fmt 4.6, Leading zero omitted, Abs format (unit mm)*
G04 Created by KiCad (PCBNEW 10.0.6) date 2026-10-09 16:16:54*
%MOMM*%
%LPD*%
G01*
G04 APERTURE LIST*
G04 Aperture macros list*
%AMRoundRect*
0 Rectangle with rounded corners*
0 $1 Rounding radius*
0 $2 $3 $4 $5 $6 $7 $8 $9 X,Y pos of 4 corners*
0 Add a 4 corners polygon primitive as box body*
4,1,4,$2,$3,$4,$5,$6,$7,$8,$9,$2,$3,0*
0 Add four circle primitives for the rounded corners*
1,1,$1+$1,$2,$3*
1,1,$1+$1,$4,$5*
1,1,$1+$1,$6,$7*
1,1,$1+$1,$8,$9*
0 Add four rect primitives between the rounded corners*
20,1,$1+$1,$2,$3,$4,$5,0*
20,1,$1+$1,$4,$5,$6,$7,0*
20,1,$1+$1,$6,$7,$8,$9,0*
20,1,$1+$1,$8,$9,$2,$3,0*%
G04 Aperture macros list end*
%ADD10RoundRect,0.050000X-0.850000X-0.850000X0.850000X-0.850000X0.850000X0.850000X-0.850000X0.850000X0*%
%ADD11C,1.800000*%
%ADD12C,3.300000*%
%ADD13RoundRect,0.050000X-0.850000X0.850000X-0.850000X-0.850000X0.850000X-0.850000X0.850000X0.850000X0*%
%ADD14RoundRect,0.250000X-0.200000X-0.800000X0.200000X-0.800000X0.200000X0.800000X-0.200000X0.800000X0*%
%ADD15C,1.700000*%
%ADD16C,1.900000*%
%ADD17C,2.400000*%
G04 APERTURE END LIST*
D10*
%TO.C,J9*%
X89000000Y-54500000D03*
D11*
X91540000Y-54500000D03*
X94080000Y-54500000D03*
%TD*%
D10*
%TO.C,J7*%
X89000000Y-64000000D03*
D11*
X91540000Y-64000000D03*
X94080000Y-64000000D03*
%TD*%
D12*
%TO.C,H3*%
X4500000Y-80500000D03*
%TD*%
D10*
%TO.C,J11*%
X63460000Y-20000000D03*
D11*
X66000000Y-20000000D03*
%TD*%
D10*
%TO.C,J8*%
X89000000Y-59500000D03*
D11*
X91540000Y-59500000D03*
X94080000Y-59500000D03*
%TD*%
D10*
%TO.C,J10*%
X88960000Y-50500000D03*
D11*
X91500000Y-50500000D03*
X94040000Y-50500000D03*
%TD*%
D12*
%TO.C,H4*%
X95500000Y-80500000D03*
%TD*%
D10*
%TO.C,J6*%
X76380000Y-18500000D03*
D11*
X78920000Y-18500000D03*
X81460000Y-18500000D03*
X84000000Y-18500000D03*
X86540000Y-18500000D03*
X89080000Y-18500000D03*
X91620000Y-18500000D03*
%TD*%
D12*
%TO.C,H1*%
X4500000Y-4500000D03*
%TD*%
D10*
%TO.C,J5*%
X59500000Y-40500000D03*
D11*
X59500000Y-43040000D03*
%TD*%
D10*
%TO.C,J3*%
X12000000Y-16000000D03*
D11*
X14540000Y-16000000D03*
X12000000Y-18540000D03*
X14540000Y-18540000D03*
X12000000Y-21080000D03*
X14540000Y-21080000D03*
X12000000Y-23620000D03*
X14540000Y-23620000D03*
%TD*%
D10*
%TO.C,J4*%
X88000000Y-41000000D03*
D11*
X90540000Y-41000000D03*
X93080000Y-41000000D03*
%TD*%
D12*
%TO.C,H2*%
X95500000Y-4500000D03*
%TD*%
D10*
%TO.C,J12*%
X88960000Y-75500000D03*
D11*
X91500000Y-75500000D03*
%TD*%
D13*
%TO.C,JP_RBL*%
X22580000Y-46500000D03*
D11*
X20040000Y-46500000D03*
X17500000Y-46500000D03*
X14960000Y-46500000D03*
%TD*%
D14*
%TO.C,SW1*%
X65840000Y-66500000D03*
X70040000Y-66500000D03*
%TD*%
D10*
%TO.C,J1*%
X35000000Y-16000000D03*
D11*
X37540000Y-16000000D03*
X40080000Y-16000000D03*
X42620000Y-16000000D03*
X45160000Y-16000000D03*
X47700000Y-16000000D03*
X50240000Y-16000000D03*
X52780000Y-16000000D03*
X55320000Y-16000000D03*
%TD*%
D14*
%TO.C,SW2*%
X75540000Y-59000000D03*
X79740000Y-59000000D03*
%TD*%
D15*
%TO.C,JOY1*%
X15700000Y-62000000D03*
X24300000Y-62000000D03*
D11*
X11270000Y-59500000D03*
X11270000Y-62000000D03*
X11270000Y-64500000D03*
X17500000Y-53270000D03*
X20000000Y-53270000D03*
X22500000Y-53270000D03*
D16*
X16750000Y-67750000D03*
X16750000Y-72250000D03*
X23250000Y-67750000D03*
X23250000Y-72250000D03*
D17*
X13675000Y-57000000D03*
X26325000Y-57000000D03*
X13675000Y-67000000D03*
X26325000Y-67000000D03*
%TD*%
D14*
%TO.C,SW3*%
X65840000Y-52500000D03*
X70040000Y-52500000D03*
%TD*%
D10*
%TO.C,J2*%
X35000000Y-33780000D03*
D11*
X37540000Y-33780000D03*
X40080000Y-33780000D03*
X42620000Y-33780000D03*
X45160000Y-33780000D03*
X47700000Y-33780000D03*
X50240000Y-33780000D03*
X52780000Y-33780000D03*
X55320000Y-33780000D03*
%TD*%
D14*
%TO.C,SW4*%
X57540000Y-59500000D03*
X61740000Y-59500000D03*
%TD*%
M02*
