%TF.GenerationSoftware,KiCad,Pcbnew,10.0.6*%
%TF.CreationDate,2026-10-06T22:34:02+01:00*%
%TF.ProjectId,Universal_Carrier,556e6976-6572-4736-916c-5f4361727269,V4.1 - Zero DRC Parity Clean*%
%TF.SameCoordinates,Original*%
%TF.FileFunction,Copper,L1,Top*%
%TF.FilePolarity,Positive*%
%FSLAX46Y46*%
G04 Gerber Fmt 4.6, Leading zero omitted, Abs format (unit mm)*
G04 Created by KiCad (PCBNEW 10.0.6) date 2026-10-06 22:34:02*
%MOMM*%
%LPD*%
G01*
G04 APERTURE LIST*
%TA.AperFunction,ComponentPad*%
%ADD10R,1.700000X1.700000*%
%TD*%
%TA.AperFunction,ComponentPad*%
%ADD11C,1.700000*%
%TD*%
%TA.AperFunction,ComponentPad*%
%ADD12C,1.778000*%
%TD*%
%TA.AperFunction,ComponentPad*%
%ADD13C,2.286000*%
%TD*%
%TA.AperFunction,ViaPad*%
%ADD14C,0.800000*%
%TD*%
%TA.AperFunction,Conductor*%
%ADD15C,0.400000*%
%TD*%
G04 APERTURE END LIST*
D10*
%TO.P,J8,1*%
%TO.N,/IO19_WINCH_MODE*%
X87960000Y-66000000D03*
D11*
%TO.P,J8,2*%
%TO.N,/+5V_SERVO*%
X90500000Y-66000000D03*
%TO.P,J8,3*%
%TO.N,/GND*%
X93040000Y-66000000D03*
%TD*%
D10*
%TO.P,J5,1*%
%TO.N,/IO13_BUZ*%
X65500000Y-44230000D03*
D11*
%TO.P,J5,2*%
%TO.N,/GND*%
X65500000Y-46770000D03*
%TD*%
D10*
%TO.P,J11,1*%
%TO.N,/GND*%
X44000000Y-76000000D03*
D11*
%TO.P,J11,2*%
%TO.N,/+5V*%
X46540000Y-76000000D03*
%TD*%
D10*
%TO.P,J9,1*%
%TO.N,/IO20_RUDDER_DN*%
X87960000Y-61000000D03*
D11*
%TO.P,J9,2*%
%TO.N,/+5V_SERVO*%
X90500000Y-61000000D03*
%TO.P,J9,3*%
%TO.N,/GND*%
X93040000Y-61000000D03*
%TD*%
D10*
%TO.P,J3,1*%
%TO.N,/GND*%
X12000000Y-16000000D03*
D11*
%TO.P,J3,2*%
%TO.N,/+3V3*%
X14540000Y-16000000D03*
%TO.P,J3,3*%
%TO.N,/NC*%
X12000000Y-18540000D03*
%TO.P,J3,4*%
%TO.N,/IO5_NSS*%
X14540000Y-18540000D03*
%TO.P,J3,5*%
%TO.N,/IO2_SCK*%
X12000000Y-21080000D03*
%TO.P,J3,6*%
%TO.N,/IO3_MOSI*%
X14540000Y-21080000D03*
%TO.P,J3,7*%
%TO.N,/IO4_MISO*%
X12000000Y-23620000D03*
%TO.P,J3,8*%
%TO.N,/IO12_LORA_DIO0*%
X14540000Y-23620000D03*
%TD*%
D10*
%TO.P,J7,1*%
%TO.N,/IO18_ACT1_UP*%
X88000000Y-70500000D03*
D11*
%TO.P,J7,2*%
%TO.N,/+5V_SERVO*%
X90540000Y-70500000D03*
%TO.P,J7,3*%
%TO.N,/GND*%
X93080000Y-70500000D03*
%TD*%
D10*
%TO.P,J6,1*%
%TO.N,/IO15*%
X82000000Y-16000000D03*
D11*
%TO.P,J6,2*%
%TO.N,/GPS_TX2*%
X82000000Y-18540000D03*
%TO.P,J6,3*%
%TO.N,/GPS_RX2*%
X82000000Y-21080000D03*
%TO.P,J6,4*%
%TO.N,/IO16_GPS_RX*%
X82000000Y-23620000D03*
%TO.P,J6,5*%
%TO.N,/IO17_GPS_TX*%
X82000000Y-26160000D03*
%TO.P,J6,6*%
%TO.N,/GND*%
X82000000Y-28700000D03*
%TO.P,J6,7*%
%TO.N,/+3V3*%
X82000000Y-31240000D03*
%TD*%
D10*
%TO.P,J12,1*%
%TO.N,/GND*%
X88000000Y-76000000D03*
D11*
%TO.P,J12,2*%
%TO.N,/+5V_SERVO*%
X90540000Y-76000000D03*
%TD*%
D10*
%TO.P,J10,1*%
%TO.N,/IO23_ACT4*%
X87960000Y-56500000D03*
D11*
%TO.P,J10,2*%
%TO.N,/+5V_SERVO*%
X90500000Y-56500000D03*
%TO.P,J10,3*%
%TO.N,/GND*%
X93040000Y-56500000D03*
%TD*%
D10*
%TO.P,J4,1*%
%TO.N,/IO0_ADC*%
X87960000Y-51500000D03*
D11*
%TO.P,J4,2*%
%TO.N,/IO1_ADC*%
X90500000Y-51500000D03*
%TO.P,J4,3*%
%TO.N,/GND*%
X93040000Y-51500000D03*
%TD*%
D12*
%TO.P,JOY1,B1A*%
%TO.N,/GND*%
X16825000Y-51185200D03*
%TO.P,JOY1,B1B*%
X23175000Y-51205000D03*
%TO.P,JOY1,B2A*%
%TO.N,/IO9_BOOT*%
X16825000Y-56125200D03*
%TO.P,JOY1,B2B*%
X23185000Y-56145200D03*
%TO.P,JOY1,H1*%
%TO.N,/GND*%
X17475000Y-70875200D03*
%TO.P,JOY1,H2*%
%TO.N,/JOY_X*%
X20015000Y-70895200D03*
%TO.P,JOY1,H3*%
%TO.N,/+3V3*%
X22555000Y-70875200D03*
D13*
%TO.P,JOY1,S1*%
%TO.N,/GND*%
X13650000Y-56935200D03*
%TO.P,JOY1,S2*%
X13650000Y-67065200D03*
%TO.P,JOY1,S3*%
X26350000Y-67080000D03*
%TO.P,JOY1,S4*%
X26350000Y-56920000D03*
D12*
%TO.P,JOY1,V1*%
X11110000Y-59460000D03*
%TO.P,JOY1,V2*%
%TO.N,/JOY_Y*%
X11095000Y-61985200D03*
%TO.P,JOY1,V3*%
%TO.N,/+3V3*%
X11095000Y-64525200D03*
%TD*%
D10*
%TO.P,J2,1*%
%TO.N,/IO9_BOOT*%
X35000000Y-33780000D03*
D11*
%TO.P,J2,2*%
%TO.N,/IO18_ACT1_UP*%
X37540000Y-33780000D03*
%TO.P,J2,3*%
%TO.N,/IO19_WINCH_MODE*%
X40080000Y-33780000D03*
%TO.P,J2,4*%
%TO.N,/IO20_RUDDER_DN*%
X42620000Y-33780000D03*
%TO.P,J2,5*%
%TO.N,/IO23_ACT4*%
X45160000Y-33780000D03*
%TO.P,J2,6*%
%TO.N,/IO12_LORA_DIO0*%
X47700000Y-33780000D03*
%TO.P,J2,7*%
%TO.N,/IO13_BUZ*%
X50240000Y-33780000D03*
%TO.P,J2,8*%
%TO.N,/IO16_GPS_RX*%
X52780000Y-33780000D03*
%TO.P,J2,9*%
%TO.N,/IO17_GPS_TX*%
X55320000Y-33780000D03*
%TD*%
D10*
%TO.P,JP_RBL,1*%
%TO.N,/JOY_X*%
X42000000Y-58000000D03*
D11*
%TO.P,JP_RBL,2*%
%TO.N,/IO0_ADC*%
X42000000Y-60540000D03*
%TO.P,JP_RBL,3*%
%TO.N,/JOY_Y*%
X42000000Y-63080000D03*
%TO.P,JP_RBL,4*%
%TO.N,/IO1_ADC*%
X42000000Y-65620000D03*
%TD*%
D10*
%TO.P,J1,1*%
%TO.N,/IO5_NSS*%
X35000000Y-16000000D03*
D11*
%TO.P,J1,2*%
%TO.N,/IO4_MISO*%
X37540000Y-16000000D03*
%TO.P,J1,3*%
%TO.N,/IO3_MOSI*%
X40080000Y-16000000D03*
%TO.P,J1,4*%
%TO.N,/IO2_SCK*%
X42620000Y-16000000D03*
%TO.P,J1,5*%
%TO.N,/IO1_ADC*%
X45160000Y-16000000D03*
%TO.P,J1,6*%
%TO.N,/IO0_ADC*%
X47700000Y-16000000D03*
%TO.P,J1,7*%
%TO.N,/+3V3*%
X50240000Y-16000000D03*
%TO.P,J1,8*%
%TO.N,/GND*%
X52780000Y-16000000D03*
%TO.P,J1,9*%
%TO.N,/+5V*%
X55320000Y-16000000D03*
%TD*%
D14*
%TO.N,/GND*%
X84500000Y-68000000D03*
X25000000Y-18500000D03*
X89000000Y-58500000D03*
X40500000Y-20500000D03*
X43000000Y-44500000D03*
X46500000Y-38500000D03*
X80000000Y-25000000D03*
X44500000Y-19000000D03*
X38000000Y-28500000D03*
X25500000Y-13500000D03*
X31000000Y-62000000D03*
X31500000Y-19000000D03*
X81500000Y-64500000D03*
X31500000Y-25500000D03*
X61000000Y-17500000D03*
%TO.N,/IO2_SCK*%
X41000000Y-29000000D03*
%TO.N,/IO4_MISO*%
X37540000Y-26000000D03*
%TD*%
%TO.N,/IO19_WINCH_MODE*%
D15*
X80500000Y-66500000D02*
X65000000Y-51000000D01*
X53000000Y-51000000D02*
X40080000Y-38080000D01*
X87920000Y-66500000D02*
X80500000Y-66500000D01*
X87960000Y-66000000D02*
X87460000Y-66500000D01*
X65000000Y-51000000D02*
X53000000Y-51000000D01*
X40080000Y-38080000D02*
X40080000Y-33780000D01*
%TO.N,/+5V_SERVO*%
X90500000Y-70460000D02*
X90540000Y-70500000D01*
X90500000Y-61000000D02*
X90500000Y-56500000D01*
X90540000Y-70500000D02*
X90540000Y-76000000D01*
X90580000Y-70540000D02*
X90540000Y-70500000D01*
X90500000Y-61000000D02*
X90500000Y-66000000D01*
X90500000Y-66000000D02*
X90500000Y-70460000D01*
%TO.N,/IO13_BUZ*%
X50240000Y-33780000D02*
X50240000Y-36240000D01*
X50240000Y-36240000D02*
X58230000Y-44230000D01*
X58230000Y-44230000D02*
X65500000Y-44230000D01*
%TO.N,/IO20_RUDDER_DN*%
X87960000Y-61000000D02*
X86500000Y-59540000D01*
X86500000Y-53540000D02*
X82460000Y-49500000D01*
X56000000Y-49500000D02*
X42620000Y-36120000D01*
X82460000Y-49500000D02*
X56000000Y-49500000D01*
X86500000Y-59540000D02*
X86500000Y-53540000D01*
X42620000Y-36120000D02*
X42620000Y-33780000D01*
%TO.N,/+3V3*%
X55240000Y-11000000D02*
X50240000Y-16000000D01*
X14540000Y-12040000D02*
X13500000Y-11000000D01*
X4000000Y-11000000D02*
X3500000Y-11500000D01*
X19610000Y-75000000D02*
X22555000Y-72055000D01*
X85000000Y-11000000D02*
X55240000Y-11000000D01*
X3500000Y-63000000D02*
X5025200Y-64525200D01*
X13500000Y-11000000D02*
X4000000Y-11000000D01*
X14540000Y-16000000D02*
X14540000Y-12040000D01*
X14540000Y-16000000D02*
X19540000Y-11000000D01*
X3500000Y-11500000D02*
X3500000Y-63000000D01*
X11095000Y-64525200D02*
X11095000Y-74095000D01*
X12000000Y-75000000D02*
X19610000Y-75000000D01*
X87000000Y-13000000D02*
X85000000Y-11000000D01*
X82000000Y-31240000D02*
X84260000Y-31240000D01*
X11095000Y-74095000D02*
X12000000Y-75000000D01*
X22555000Y-72055000D02*
X22555000Y-70875200D01*
X84260000Y-31240000D02*
X87000000Y-28500000D01*
X5025200Y-64525200D02*
X11095000Y-64525200D01*
X87000000Y-28500000D02*
X87000000Y-13000000D01*
X19540000Y-11000000D02*
X45240000Y-11000000D01*
X45240000Y-11000000D02*
X50240000Y-16000000D01*
%TO.N,/IO5_NSS*%
X35000000Y-16000000D02*
X17080000Y-16000000D01*
X17080000Y-16000000D02*
X14540000Y-18540000D01*
%TO.N,/IO2_SCK*%
X12000000Y-21080000D02*
X9080000Y-21080000D01*
X9000000Y-21000000D02*
X9000000Y-29000000D01*
X10000000Y-30000000D02*
X40000000Y-30000000D01*
X40000000Y-30000000D02*
X41000000Y-29000000D01*
X9080000Y-21080000D02*
X9000000Y-21000000D01*
X9000000Y-29000000D02*
X10000000Y-30000000D01*
%TO.N,/IO3_MOSI*%
X40080000Y-17920000D02*
X37000000Y-21000000D01*
X14620000Y-21000000D02*
X14540000Y-21080000D01*
X40080000Y-16000000D02*
X40080000Y-17920000D01*
X37000000Y-21000000D02*
X14620000Y-21000000D01*
%TO.N,/IO4_MISO*%
X37500000Y-26040000D02*
X37500000Y-27000000D01*
X12000000Y-28000000D02*
X12000000Y-23620000D01*
X36500000Y-28000000D02*
X12000000Y-28000000D01*
X37500000Y-27000000D02*
X36500000Y-28000000D01*
X37540000Y-26000000D02*
X37500000Y-26040000D01*
%TO.N,/IO12_LORA_DIO0*%
X14540000Y-23620000D02*
X37540000Y-23620000D01*
X37540000Y-23620000D02*
X47700000Y-33780000D01*
%TO.N,/IO18_ACT1_UP*%
X88000000Y-70500000D02*
X87960000Y-70460000D01*
X83000000Y-70500000D02*
X64500000Y-52000000D01*
X48000000Y-52000000D02*
X37540000Y-41540000D01*
X64500000Y-52000000D02*
X48000000Y-52000000D01*
X88000000Y-70500000D02*
X83000000Y-70500000D01*
X37540000Y-41540000D02*
X37540000Y-33780000D01*
%TO.N,/IO16_GPS_RX*%
X71500000Y-32000000D02*
X54560000Y-32000000D01*
X79880000Y-23620000D02*
X71500000Y-32000000D01*
X82000000Y-23620000D02*
X79880000Y-23620000D01*
X54560000Y-32000000D02*
X52780000Y-33780000D01*
%TO.N,/IO17_GPS_TX*%
X79840000Y-26160000D02*
X72220000Y-33780000D01*
X82000000Y-26160000D02*
X79840000Y-26160000D01*
X72220000Y-33780000D02*
X55320000Y-33780000D01*
%TO.N,/IO23_ACT4*%
X87960000Y-56500000D02*
X87960000Y-54151472D01*
X87960000Y-54151472D02*
X82308528Y-48500000D01*
X87960000Y-56500000D02*
X87460000Y-57000000D01*
X45160000Y-35660000D02*
X45160000Y-33780000D01*
X57780000Y-48500000D02*
X45160000Y-35880000D01*
X82308528Y-48500000D02*
X57780000Y-48500000D01*
%TO.N,/JOY_Y*%
X11609800Y-62500000D02*
X11095000Y-61985200D01*
%TO.N,/IO9_BOOT*%
X23165000Y-56125200D02*
X23185000Y-56145200D01*
X30000000Y-45000000D02*
X30000000Y-38780000D01*
X23185000Y-56145200D02*
X30000000Y-49330200D01*
X30000000Y-49330200D02*
X30000000Y-45000000D01*
X16825000Y-56125200D02*
X23165000Y-56125200D01*
X30000000Y-38780000D02*
X35000000Y-33780000D01*
%TD*%
%TA.AperFunction,Conductor*%
%TO.N,/GND*%
G36*
X89365703Y-66438196D02*
G01*
X89394984Y-66475613D01*
X89473240Y-66629199D01*
X89584310Y-66782073D01*
X89717927Y-66915690D01*
X89870801Y-67026760D01*
X89881792Y-67032360D01*
X89932589Y-67080332D01*
X89949500Y-67142846D01*
X89949500Y-69381943D01*
X89929815Y-69448982D01*
X89898385Y-69482261D01*
X89757930Y-69584307D01*
X89757924Y-69584312D01*
X89624312Y-69717924D01*
X89624312Y-69717925D01*
X89624310Y-69717927D01*
X89584073Y-69773308D01*
X89513240Y-69870800D01*
X89434985Y-70024385D01*
X89387010Y-70075181D01*
X89319189Y-70091976D01*
X89253054Y-70069439D01*
X89209603Y-70014723D01*
X89200500Y-69968090D01*
X89200500Y-69616739D01*
X89190573Y-69548608D01*
X89190573Y-69548607D01*
X89139198Y-69443517D01*
X89139196Y-69443515D01*
X89139196Y-69443514D01*
X89056485Y-69360803D01*
X88951391Y-69309426D01*
X88883261Y-69299500D01*
X88883260Y-69299500D01*
X87116740Y-69299500D01*
X87116739Y-69299500D01*
X87048608Y-69309426D01*
X86943514Y-69360803D01*
X86860803Y-69443514D01*
X86809426Y-69548608D01*
X86799500Y-69616739D01*
X86799500Y-69825500D01*
X86779815Y-69892539D01*
X86727011Y-69938294D01*
X86675500Y-69949500D01*
X83279387Y-69949500D01*
X83212348Y-69929815D01*
X83191706Y-69913181D01*
X80540706Y-67262181D01*
X80507221Y-67200858D01*
X80512205Y-67131166D01*
X80554077Y-67075233D01*
X80619541Y-67050816D01*
X80628387Y-67050500D01*
X86763457Y-67050500D01*
X86830496Y-67070185D01*
X86851133Y-67086814D01*
X86903517Y-67139198D01*
X87008607Y-67190573D01*
X87042673Y-67195536D01*
X87076739Y-67200500D01*
X87076740Y-67200500D01*
X88843261Y-67200500D01*
X88865971Y-67197191D01*
X88911393Y-67190573D01*
X89016483Y-67139198D01*
X89099198Y-67056483D01*
X89150573Y-66951393D01*
X89160500Y-66883260D01*
X89160500Y-66531909D01*
X89180185Y-66464870D01*
X89232989Y-66419115D01*
X89302147Y-66409171D01*
X89365703Y-66438196D01*
G37*
%TD.AperFunction*%
%TA.AperFunction,Conductor*%
G36*
X41404712Y-34046238D02*
G01*
X41456188Y-34093482D01*
X41467931Y-34119196D01*
X41507454Y-34240836D01*
X41561756Y-34347408D01*
X41593240Y-34409199D01*
X41704310Y-34562073D01*
X41837927Y-34695690D01*
X41990801Y-34806760D01*
X42001792Y-34812360D01*
X42052589Y-34860332D01*
X42069500Y-34922846D01*
X42069500Y-36047526D01*
X42069500Y-36192474D01*
X42107016Y-36332485D01*
X42179490Y-36458015D01*
X55661985Y-49940510D01*
X55787515Y-50012984D01*
X55927525Y-50050500D01*
X82180613Y-50050500D01*
X82247652Y-50070185D01*
X82268294Y-50086819D01*
X85913181Y-53731706D01*
X85946666Y-53793029D01*
X85949500Y-53819387D01*
X85949500Y-59467526D01*
X85949500Y-59612474D01*
X85987016Y-59752485D01*
X86023506Y-59815689D01*
X86059489Y-59878013D01*
X86059491Y-59878016D01*
X86723181Y-60541706D01*
X86756666Y-60603029D01*
X86759500Y-60629387D01*
X86759500Y-61883260D01*
X86769426Y-61951391D01*
X86820803Y-62056485D01*
X86903514Y-62139196D01*
X86903515Y-62139196D01*
X86903517Y-62139198D01*
X87008607Y-62190573D01*
X87042673Y-62195536D01*
X87076739Y-62200500D01*
X87076740Y-62200500D01*
X88843261Y-62200500D01*
X88865971Y-62197191D01*
X88911393Y-62190573D01*
X89016483Y-62139198D01*
X89099198Y-62056483D01*
X89150573Y-61951393D01*
X89160500Y-61883260D01*
X89160500Y-61531909D01*
X89180185Y-61464870D01*
X89232989Y-61419115D01*
X89302147Y-61409171D01*
X89365703Y-61438196D01*
X89394984Y-61475613D01*
X89473240Y-61629199D01*
X89584310Y-61782073D01*
X89717927Y-61915690D01*
X89870801Y-62026760D01*
X89881792Y-62032360D01*
X89932589Y-62080332D01*
X89949500Y-62142846D01*
X89949500Y-64857152D01*
X89929815Y-64924191D01*
X89881800Y-64967634D01*
X89870807Y-64973235D01*
X89870804Y-64973237D01*
X89789947Y-65031984D01*
X89717927Y-65084310D01*
X89717925Y-65084312D01*
X89717924Y-65084312D01*
X89584312Y-65217924D01*
X89584312Y-65217925D01*
X89584310Y-65217927D01*
X89536610Y-65283579D01*
X89473240Y-65370800D01*
X89394985Y-65524385D01*
X89347010Y-65575181D01*
X89279189Y-65591976D01*
X89213054Y-65569439D01*
X89169603Y-65514723D01*
X89160500Y-65468090D01*
X89160500Y-65116739D01*
X89150573Y-65048608D01*
X89150573Y-65048607D01*
X89099198Y-64943517D01*
X89099196Y-64943515D01*
X89099196Y-64943514D01*
X89016485Y-64860803D01*
X88911391Y-64809426D01*
X88843261Y-64799500D01*
X88843260Y-64799500D01*
X87076740Y-64799500D01*
X87076739Y-64799500D01*
X87008608Y-64809426D01*
X86903514Y-64860803D01*
X86820803Y-64943514D01*
X86769426Y-65048608D01*
X86759500Y-65116739D01*
X86759500Y-65825500D01*
X86739815Y-65892539D01*
X86687011Y-65938294D01*
X86635500Y-65949500D01*
X80779387Y-65949500D01*
X80712348Y-65929815D01*
X80691706Y-65913181D01*
X65338016Y-50559491D01*
X65338015Y-50559490D01*
X65212485Y-50487016D01*
X65212486Y-50487016D01*
X65177482Y-50477637D01*
X65072475Y-50449500D01*
X65072472Y-50449500D01*
X53279387Y-50449500D01*
X53212348Y-50429815D01*
X53191706Y-50413181D01*
X40666819Y-37888294D01*
X40633334Y-37826971D01*
X40630500Y-37800613D01*
X40630500Y-34922846D01*
X40650185Y-34855807D01*
X40698208Y-34812360D01*
X40709199Y-34806760D01*
X40862073Y-34695690D01*
X40995690Y-34562073D01*
X41106760Y-34409199D01*
X41192547Y-34240832D01*
X41232069Y-34119195D01*
X41271507Y-34061521D01*
X41335866Y-34034323D01*
X41404712Y-34046238D01*
G37*
%TD.AperFunction*%
%TA.AperFunction,Conductor*%
G36*
X89365703Y-56938196D02*
G01*
X89394984Y-56975613D01*
X89473240Y-57129199D01*
X89584310Y-57282073D01*
X89717927Y-57415690D01*
X89870801Y-57526760D01*
X89881792Y-57532360D01*
X89932589Y-57580332D01*
X89949500Y-57642846D01*
X89949500Y-59857152D01*
X89929815Y-59924191D01*
X89881800Y-59967634D01*
X89870807Y-59973235D01*
X89870804Y-59973237D01*
X89779076Y-60039882D01*
X89717927Y-60084310D01*
X89717925Y-60084312D01*
X89717924Y-60084312D01*
X89584312Y-60217924D01*
X89584312Y-60217925D01*
X89584310Y-60217927D01*
X89536610Y-60283579D01*
X89473240Y-60370800D01*
X89394985Y-60524385D01*
X89347010Y-60575181D01*
X89279189Y-60591976D01*
X89213054Y-60569439D01*
X89169603Y-60514723D01*
X89160500Y-60468090D01*
X89160500Y-60116739D01*
X89150573Y-60048608D01*
X89150573Y-60048607D01*
X89099198Y-59943517D01*
X89099196Y-59943515D01*
X89099196Y-59943514D01*
X89016485Y-59860803D01*
X88911391Y-59809426D01*
X88843261Y-59799500D01*
X88843260Y-59799500D01*
X87589387Y-59799500D01*
X87522348Y-59779815D01*
X87501706Y-59763181D01*
X87086819Y-59348294D01*
X87053334Y-59286971D01*
X87050500Y-59260613D01*
X87050500Y-57824500D01*
X87070185Y-57757461D01*
X87122989Y-57711706D01*
X87174500Y-57700500D01*
X88843261Y-57700500D01*
X88865971Y-57697191D01*
X88911393Y-57690573D01*
X89016483Y-57639198D01*
X89099198Y-57556483D01*
X89150573Y-57451393D01*
X89160500Y-57383260D01*
X89160500Y-57031909D01*
X89180185Y-56964870D01*
X89232989Y-56919115D01*
X89302147Y-56909171D01*
X89365703Y-56938196D01*
G37*
%TD.AperFunction*%
%TA.AperFunction,Conductor*%
G36*
X38864712Y-34046238D02*
G01*
X38916188Y-34093482D01*
X38927931Y-34119196D01*
X38967454Y-34240836D01*
X39021756Y-34347408D01*
X39053240Y-34409199D01*
X39164310Y-34562073D01*
X39297927Y-34695690D01*
X39450801Y-34806760D01*
X39461792Y-34812360D01*
X39512589Y-34860332D01*
X39529500Y-34922846D01*
X39529500Y-38007526D01*
X39529500Y-38152474D01*
X39567016Y-38292485D01*
X39639489Y-38418013D01*
X39639491Y-38418016D01*
X52459294Y-51237819D01*
X52492779Y-51299142D01*
X52487795Y-51368834D01*
X52445923Y-51424767D01*
X52380459Y-51449184D01*
X52371613Y-51449500D01*
X48279387Y-51449500D01*
X48212348Y-51429815D01*
X48191706Y-51413181D01*
X38126819Y-41348294D01*
X38093334Y-41286971D01*
X38090500Y-41260613D01*
X38090500Y-34922846D01*
X38110185Y-34855807D01*
X38158208Y-34812360D01*
X38169199Y-34806760D01*
X38322073Y-34695690D01*
X38455690Y-34562073D01*
X38566760Y-34409199D01*
X38652547Y-34240832D01*
X38692069Y-34119195D01*
X38731507Y-34061521D01*
X38795866Y-34034323D01*
X38864712Y-34046238D01*
G37*
%TD.AperFunction*%
%TA.AperFunction,Conductor*%
G36*
X43944712Y-34046238D02*
G01*
X43996188Y-34093482D01*
X44007931Y-34119196D01*
X44047454Y-34240836D01*
X44101756Y-34347408D01*
X44133240Y-34409199D01*
X44244310Y-34562073D01*
X44377927Y-34695690D01*
X44530801Y-34806760D01*
X44541792Y-34812360D01*
X44592589Y-34860332D01*
X44609500Y-34922846D01*
X44609500Y-35732480D01*
X44610956Y-35737912D01*
X44610957Y-35802084D01*
X44609501Y-35807518D01*
X44609500Y-35807524D01*
X44609500Y-35807526D01*
X44609500Y-35952474D01*
X44647016Y-36092485D01*
X44690340Y-36167526D01*
X44719489Y-36218013D01*
X44719491Y-36218016D01*
X57239294Y-48737819D01*
X57272779Y-48799142D01*
X57267795Y-48868834D01*
X57225923Y-48924767D01*
X57160459Y-48949184D01*
X57151613Y-48949500D01*
X56279387Y-48949500D01*
X56212348Y-48929815D01*
X56191706Y-48913181D01*
X43206819Y-35928294D01*
X43173334Y-35866971D01*
X43170500Y-35840613D01*
X43170500Y-34922846D01*
X43190185Y-34855807D01*
X43238208Y-34812360D01*
X43249199Y-34806760D01*
X43402073Y-34695690D01*
X43535690Y-34562073D01*
X43646760Y-34409199D01*
X43732547Y-34240832D01*
X43772069Y-34119195D01*
X43811507Y-34061521D01*
X43875866Y-34034323D01*
X43944712Y-34046238D01*
G37*
%TD.AperFunction*%
%TA.AperFunction,Conductor*%
G36*
X49024712Y-34046238D02*
G01*
X49076188Y-34093482D01*
X49087931Y-34119196D01*
X49127454Y-34240836D01*
X49181756Y-34347408D01*
X49213240Y-34409199D01*
X49324310Y-34562073D01*
X49457927Y-34695690D01*
X49610801Y-34806760D01*
X49621792Y-34812360D01*
X49672589Y-34860332D01*
X49689500Y-34922846D01*
X49689500Y-36167526D01*
X49689500Y-36312474D01*
X49727016Y-36452485D01*
X49799490Y-36578015D01*
X57891985Y-44670510D01*
X58017515Y-44742984D01*
X58157525Y-44780500D01*
X64175500Y-44780500D01*
X64242539Y-44800185D01*
X64288294Y-44852989D01*
X64299500Y-44904500D01*
X64299500Y-45113260D01*
X64309426Y-45181391D01*
X64360803Y-45286485D01*
X64443514Y-45369196D01*
X64443515Y-45369196D01*
X64443517Y-45369198D01*
X64548607Y-45420573D01*
X64582673Y-45425536D01*
X64616739Y-45430500D01*
X65118173Y-45430500D01*
X65185212Y-45450185D01*
X65230967Y-45502989D01*
X65240911Y-45572147D01*
X65211886Y-45635703D01*
X65156491Y-45672431D01*
X65058555Y-45704251D01*
X65058552Y-45704252D01*
X64897270Y-45786431D01*
X64897268Y-45786432D01*
X64840511Y-45827667D01*
X64840511Y-45827668D01*
X65314823Y-46301980D01*
X65307007Y-46304075D01*
X65192993Y-46369901D01*
X65099901Y-46462993D01*
X65034075Y-46577007D01*
X65031980Y-46584823D01*
X64557668Y-46110511D01*
X64557667Y-46110511D01*
X64516432Y-46167268D01*
X64516431Y-46167270D01*
X64434252Y-46328552D01*
X64434251Y-46328555D01*
X64378317Y-46500706D01*
X64350000Y-46679493D01*
X64350000Y-46860506D01*
X64378317Y-47039293D01*
X64434251Y-47211444D01*
X64434252Y-47211447D01*
X64516434Y-47372734D01*
X64557667Y-47429487D01*
X64557668Y-47429487D01*
X65031980Y-46955176D01*
X65034075Y-46962993D01*
X65099901Y-47077007D01*
X65192993Y-47170099D01*
X65307007Y-47235925D01*
X65314822Y-47238019D01*
X64840510Y-47712330D01*
X64840511Y-47712331D01*
X64858198Y-47725182D01*
X64900864Y-47780511D01*
X64906843Y-47850125D01*
X64874238Y-47911920D01*
X64813399Y-47946277D01*
X64785313Y-47949500D01*
X58059387Y-47949500D01*
X57992348Y-47929815D01*
X57971706Y-47913181D01*
X45746819Y-35688294D01*
X45713334Y-35626971D01*
X45710500Y-35600613D01*
X45710500Y-34922846D01*
X45730185Y-34855807D01*
X45778208Y-34812360D01*
X45789199Y-34806760D01*
X45942073Y-34695690D01*
X46075690Y-34562073D01*
X46186760Y-34409199D01*
X46272547Y-34240832D01*
X46312069Y-34119195D01*
X46351507Y-34061521D01*
X46415866Y-34034323D01*
X46484712Y-34046238D01*
X46536188Y-34093482D01*
X46547931Y-34119196D01*
X46587454Y-34240836D01*
X46641756Y-34347408D01*
X46673240Y-34409199D01*
X46784310Y-34562073D01*
X46917927Y-34695690D01*
X47070801Y-34806760D01*
X47081792Y-34812360D01*
X47239163Y-34892545D01*
X47239165Y-34892545D01*
X47239168Y-34892547D01*
X47321185Y-34919196D01*
X47418881Y-34950940D01*
X47605514Y-34980500D01*
X47605519Y-34980500D01*
X47794486Y-34980500D01*
X47981118Y-34950940D01*
X48160832Y-34892547D01*
X48329199Y-34806760D01*
X48482073Y-34695690D01*
X48615690Y-34562073D01*
X48726760Y-34409199D01*
X48812547Y-34240832D01*
X48852069Y-34119195D01*
X48891507Y-34061521D01*
X48955866Y-34034323D01*
X49024712Y-34046238D01*
G37*
%TD.AperFunction*%
%TA.AperFunction,Conductor*%
G36*
X84787652Y-11570185D02*
G01*
X84808294Y-11586819D01*
X86413181Y-13191706D01*
X86446666Y-13253029D01*
X86449500Y-13279387D01*
X86449500Y-28220613D01*
X86429815Y-28287652D01*
X86413181Y-28308294D01*
X84068294Y-30653181D01*
X84006971Y-30686666D01*
X83980613Y-30689500D01*
X83142847Y-30689500D01*
X83075808Y-30669815D01*
X83032363Y-30621797D01*
X83031143Y-30619403D01*
X83026760Y-30610801D01*
X82915690Y-30457927D01*
X82782073Y-30324310D01*
X82629199Y-30213240D01*
X82460836Y-30127454D01*
X82281117Y-30069059D01*
X82267525Y-30066906D01*
X82204392Y-30036974D01*
X82167464Y-29977661D01*
X82168465Y-29907798D01*
X82207077Y-29849567D01*
X82264669Y-29823272D01*
X82264561Y-29822819D01*
X82266886Y-29822260D01*
X82267550Y-29821958D01*
X82269297Y-29821681D01*
X82441444Y-29765748D01*
X82441447Y-29765747D01*
X82602730Y-29683568D01*
X82659487Y-29642330D01*
X82659488Y-29642329D01*
X82185178Y-29168019D01*
X82192993Y-29165925D01*
X82307007Y-29100099D01*
X82400099Y-29007007D01*
X82465925Y-28892993D01*
X82468019Y-28885177D01*
X82942329Y-29359488D01*
X82942330Y-29359487D01*
X82983568Y-29302730D01*
X83065747Y-29141447D01*
X83065748Y-29141444D01*
X83121682Y-28969293D01*
X83150000Y-28790506D01*
X83150000Y-28609493D01*
X83121682Y-28430706D01*
X83065748Y-28258555D01*
X83065747Y-28258552D01*
X82983565Y-28097265D01*
X82942331Y-28040511D01*
X82942330Y-28040510D01*
X82468018Y-28514821D01*
X82465925Y-28507007D01*
X82400099Y-28392993D01*
X82307007Y-28299901D01*
X82192993Y-28234075D01*
X82185176Y-28231980D01*
X82659487Y-27757668D01*
X82659487Y-27757667D01*
X82602734Y-27716434D01*
X82441447Y-27634252D01*
X82441444Y-27634251D01*
X82269298Y-27578318D01*
X82267532Y-27578039D01*
X82266912Y-27577745D01*
X82264561Y-27577181D01*
X82264679Y-27576686D01*
X82204397Y-27548110D01*
X82167465Y-27488798D01*
X82168463Y-27418936D01*
X82207072Y-27360703D01*
X82267532Y-27333092D01*
X82281118Y-27330940D01*
X82297860Y-27325500D01*
X82460832Y-27272547D01*
X82629199Y-27186760D01*
X82782073Y-27075690D01*
X82915690Y-26942073D01*
X83026760Y-26789199D01*
X83112547Y-26620832D01*
X83170940Y-26441118D01*
X83171776Y-26435842D01*
X83200500Y-26254486D01*
X83200500Y-26065513D01*
X83170940Y-25878881D01*
X83119150Y-25719490D01*
X83112547Y-25699168D01*
X83112545Y-25699165D01*
X83112545Y-25699163D01*
X83058244Y-25592592D01*
X83026760Y-25530801D01*
X82915690Y-25377927D01*
X82782073Y-25244310D01*
X82629199Y-25133240D01*
X82460836Y-25047454D01*
X82386472Y-25023291D01*
X82339195Y-25007930D01*
X82281521Y-24968493D01*
X82254323Y-24904134D01*
X82266238Y-24835288D01*
X82313482Y-24783812D01*
X82339194Y-24772069D01*
X82460832Y-24732547D01*
X82629199Y-24646760D01*
X82782073Y-24535690D01*
X82915690Y-24402073D01*
X83026760Y-24249199D01*
X83112547Y-24080832D01*
X83170940Y-23901118D01*
X83175184Y-23874323D01*
X83200500Y-23714486D01*
X83200500Y-23525513D01*
X83170940Y-23338881D01*
X83119150Y-23179490D01*
X83112547Y-23159168D01*
X83112545Y-23159165D01*
X83112545Y-23159163D01*
X83056829Y-23049815D01*
X83026760Y-22990801D01*
X82915690Y-22837927D01*
X82782073Y-22704310D01*
X82629199Y-22593240D01*
X82460836Y-22507454D01*
X82386472Y-22483291D01*
X82339195Y-22467930D01*
X82281521Y-22428493D01*
X82254323Y-22364134D01*
X82266238Y-22295288D01*
X82313482Y-22243812D01*
X82339194Y-22232069D01*
X82460832Y-22192547D01*
X82629199Y-22106760D01*
X82782073Y-21995690D01*
X82915690Y-21862073D01*
X83026760Y-21709199D01*
X83112547Y-21540832D01*
X83170940Y-21361118D01*
X83175184Y-21334323D01*
X83200500Y-21174486D01*
X83200500Y-20985513D01*
X83170940Y-20798881D01*
X83143846Y-20715497D01*
X83112547Y-20619168D01*
X83112545Y-20619165D01*
X83112545Y-20619163D01*
X83045212Y-20487016D01*
X83026760Y-20450801D01*
X82915690Y-20297927D01*
X82782073Y-20164310D01*
X82629199Y-20053240D01*
X82460836Y-19967454D01*
X82386472Y-19943291D01*
X82339195Y-19927930D01*
X82281521Y-19888493D01*
X82254323Y-19824134D01*
X82266238Y-19755288D01*
X82313482Y-19703812D01*
X82339194Y-19692069D01*
X82460832Y-19652547D01*
X82629199Y-19566760D01*
X82782073Y-19455690D01*
X82915690Y-19322073D01*
X83026760Y-19169199D01*
X83112547Y-19000832D01*
X83170940Y-18821118D01*
X83175184Y-18794323D01*
X83200500Y-18634486D01*
X83200500Y-18445513D01*
X83170940Y-18258881D01*
X83112545Y-18079163D01*
X83026759Y-17910800D01*
X82915690Y-17757927D01*
X82782073Y-17624310D01*
X82629199Y-17513240D01*
X82475615Y-17434985D01*
X82424819Y-17387010D01*
X82408024Y-17319189D01*
X82430561Y-17253054D01*
X82485277Y-17209603D01*
X82531910Y-17200500D01*
X82883261Y-17200500D01*
X82905971Y-17197191D01*
X82951393Y-17190573D01*
X83056483Y-17139198D01*
X83139198Y-17056483D01*
X83190573Y-16951393D01*
X83200500Y-16883260D01*
X83200500Y-15116740D01*
X83190573Y-15048607D01*
X83139198Y-14943517D01*
X83139196Y-14943515D01*
X83139196Y-14943514D01*
X83056485Y-14860803D01*
X82951391Y-14809426D01*
X82883261Y-14799500D01*
X82883260Y-14799500D01*
X81116740Y-14799500D01*
X81116739Y-14799500D01*
X81048608Y-14809426D01*
X80943514Y-14860803D01*
X80860803Y-14943514D01*
X80809426Y-15048608D01*
X80799500Y-15116739D01*
X80799500Y-16883260D01*
X80809426Y-16951391D01*
X80860803Y-17056485D01*
X80943514Y-17139196D01*
X80943515Y-17139196D01*
X80943517Y-17139198D01*
X81048607Y-17190573D01*
X81082673Y-17195536D01*
X81116739Y-17200500D01*
X81468090Y-17200500D01*
X81535129Y-17220185D01*
X81580884Y-17272989D01*
X81590828Y-17342147D01*
X81561803Y-17405703D01*
X81524385Y-17434985D01*
X81370800Y-17513240D01*
X81283579Y-17576610D01*
X81217927Y-17624310D01*
X81217925Y-17624312D01*
X81217924Y-17624312D01*
X81084312Y-17757924D01*
X81084312Y-17757925D01*
X81084310Y-17757927D01*
X81036610Y-17823579D01*
X80973240Y-17910800D01*
X80887454Y-18079163D01*
X80829059Y-18258881D01*
X80799500Y-18445513D01*
X80799500Y-18634486D01*
X80829059Y-18821118D01*
X80887454Y-19000836D01*
X80973240Y-19169199D01*
X81084310Y-19322073D01*
X81217927Y-19455690D01*
X81370801Y-19566760D01*
X81450347Y-19607290D01*
X81539163Y-19652545D01*
X81539165Y-19652545D01*
X81539168Y-19652547D01*
X81628734Y-19681649D01*
X81660803Y-19692069D01*
X81718478Y-19731507D01*
X81745676Y-19795866D01*
X81733761Y-19864712D01*
X81686516Y-19916188D01*
X81660803Y-19927931D01*
X81539163Y-19967454D01*
X81370800Y-20053240D01*
X81283579Y-20116610D01*
X81217927Y-20164310D01*
X81217925Y-20164312D01*
X81217924Y-20164312D01*
X81084312Y-20297924D01*
X81084312Y-20297925D01*
X81084310Y-20297927D01*
X81036610Y-20363579D01*
X80973240Y-20450800D01*
X80887454Y-20619163D01*
X80829059Y-20798881D01*
X80799500Y-20985513D01*
X80799500Y-21174486D01*
X80829059Y-21361118D01*
X80887454Y-21540836D01*
X80943171Y-21650185D01*
X80973240Y-21709199D01*
X81084310Y-21862073D01*
X81217927Y-21995690D01*
X81370801Y-22106760D01*
X81450347Y-22147290D01*
X81539163Y-22192545D01*
X81539165Y-22192545D01*
X81539168Y-22192547D01*
X81628734Y-22221649D01*
X81660803Y-22232069D01*
X81718478Y-22271507D01*
X81745676Y-22335866D01*
X81733761Y-22404712D01*
X81686516Y-22456188D01*
X81660803Y-22467931D01*
X81539163Y-22507454D01*
X81370800Y-22593240D01*
X81283579Y-22656610D01*
X81217927Y-22704310D01*
X81217925Y-22704312D01*
X81217924Y-22704312D01*
X81084312Y-22837924D01*
X81084312Y-22837925D01*
X81084310Y-22837927D01*
X80973241Y-22990800D01*
X80973240Y-22990801D01*
X80967637Y-23001797D01*
X80919661Y-23052592D01*
X80857153Y-23069500D01*
X79807524Y-23069500D01*
X79776407Y-23077837D01*
X79776408Y-23077838D01*
X79667513Y-23107016D01*
X79667512Y-23107017D01*
X79541989Y-23179487D01*
X79541984Y-23179491D01*
X71308294Y-31413181D01*
X71246971Y-31446666D01*
X71220613Y-31449500D01*
X54487525Y-31449500D01*
X54382517Y-31477637D01*
X54347514Y-31487016D01*
X54221986Y-31559489D01*
X54221983Y-31559491D01*
X53198851Y-32582622D01*
X53137528Y-32616107D01*
X53072852Y-32612872D01*
X53061120Y-32609060D01*
X52874486Y-32579500D01*
X52874481Y-32579500D01*
X52685519Y-32579500D01*
X52685514Y-32579500D01*
X52498881Y-32609059D01*
X52319163Y-32667454D01*
X52150800Y-32753240D01*
X52063579Y-32816610D01*
X51997927Y-32864310D01*
X51997925Y-32864312D01*
X51997924Y-32864312D01*
X51864312Y-32997924D01*
X51864312Y-32997925D01*
X51864310Y-32997927D01*
X51816610Y-33063579D01*
X51753240Y-33150800D01*
X51667454Y-33319163D01*
X51627931Y-33440803D01*
X51588493Y-33498478D01*
X51524134Y-33525676D01*
X51455288Y-33513761D01*
X51403812Y-33466516D01*
X51392069Y-33440803D01*
X51364248Y-33355181D01*
X51352547Y-33319168D01*
X51352545Y-33319165D01*
X51352545Y-33319163D01*
X51296829Y-33209815D01*
X51266760Y-33150801D01*
X51155690Y-32997927D01*
X51022073Y-32864310D01*
X50869199Y-32753240D01*
X50700836Y-32667454D01*
X50521118Y-32609059D01*
X50334486Y-32579500D01*
X50334481Y-32579500D01*
X50145519Y-32579500D01*
X50145514Y-32579500D01*
X49958881Y-32609059D01*
X49779163Y-32667454D01*
X49610800Y-32753240D01*
X49523579Y-32816610D01*
X49457927Y-32864310D01*
X49457925Y-32864312D01*
X49457924Y-32864312D01*
X49324312Y-32997924D01*
X49324312Y-32997925D01*
X49324310Y-32997927D01*
X49276610Y-33063579D01*
X49213240Y-33150800D01*
X49127454Y-33319163D01*
X49087931Y-33440803D01*
X49048493Y-33498478D01*
X48984134Y-33525676D01*
X48915288Y-33513761D01*
X48863812Y-33466516D01*
X48852069Y-33440803D01*
X48824248Y-33355181D01*
X48812547Y-33319168D01*
X48812545Y-33319165D01*
X48812545Y-33319163D01*
X48756829Y-33209815D01*
X48726760Y-33150801D01*
X48615690Y-32997927D01*
X48482073Y-32864310D01*
X48329199Y-32753240D01*
X48160836Y-32667454D01*
X47981118Y-32609059D01*
X47794486Y-32579500D01*
X47794481Y-32579500D01*
X47605519Y-32579500D01*
X47605514Y-32579500D01*
X47418879Y-32609060D01*
X47407140Y-32612874D01*
X47337299Y-32614866D01*
X47281147Y-32582622D01*
X37878016Y-23179491D01*
X37878015Y-23179490D01*
X37752485Y-23107016D01*
X37752486Y-23107016D01*
X37643592Y-23077838D01*
X37643592Y-23077837D01*
X37612475Y-23069500D01*
X15682847Y-23069500D01*
X15615808Y-23049815D01*
X15572363Y-23001797D01*
X15571143Y-22999403D01*
X15566760Y-22990801D01*
X15455690Y-22837927D01*
X15322073Y-22704310D01*
X15169199Y-22593240D01*
X15000836Y-22507454D01*
X14926472Y-22483291D01*
X14879195Y-22467930D01*
X14821521Y-22428493D01*
X14794323Y-22364134D01*
X14806238Y-22295288D01*
X14853482Y-22243812D01*
X14879194Y-22232069D01*
X15000832Y-22192547D01*
X15169199Y-22106760D01*
X15322073Y-21995690D01*
X15455690Y-21862073D01*
X15566760Y-21709199D01*
X15613124Y-21618205D01*
X15661099Y-21567409D01*
X15723609Y-21550500D01*
X37072472Y-21550500D01*
X37072474Y-21550500D01*
X37072475Y-21550500D01*
X37212485Y-21512984D01*
X37338015Y-21440510D01*
X40520510Y-18258015D01*
X40592984Y-18132485D01*
X40630500Y-17992474D01*
X40630500Y-17847526D01*
X40630500Y-17142846D01*
X40650185Y-17075807D01*
X40698208Y-17032360D01*
X40709199Y-17026760D01*
X40862073Y-16915690D01*
X40995690Y-16782073D01*
X41106760Y-16629199D01*
X41192547Y-16460832D01*
X41232069Y-16339195D01*
X41271507Y-16281521D01*
X41335866Y-16254323D01*
X41404712Y-16266238D01*
X41456188Y-16313482D01*
X41467931Y-16339196D01*
X41507454Y-16460836D01*
X41554585Y-16553334D01*
X41593240Y-16629199D01*
X41704310Y-16782073D01*
X41837927Y-16915690D01*
X41990801Y-17026760D01*
X42001792Y-17032360D01*
X42159163Y-17112545D01*
X42159165Y-17112545D01*
X42159168Y-17112547D01*
X42241185Y-17139196D01*
X42338881Y-17170940D01*
X42525514Y-17200500D01*
X42525519Y-17200500D01*
X42714486Y-17200500D01*
X42901118Y-17170940D01*
X42910748Y-17167811D01*
X43080832Y-17112547D01*
X43249199Y-17026760D01*
X43402073Y-16915690D01*
X43535690Y-16782073D01*
X43646760Y-16629199D01*
X43732547Y-16460832D01*
X43772069Y-16339195D01*
X43811507Y-16281521D01*
X43875866Y-16254323D01*
X43944712Y-16266238D01*
X43996188Y-16313482D01*
X44007931Y-16339196D01*
X44047454Y-16460836D01*
X44094585Y-16553334D01*
X44133240Y-16629199D01*
X44244310Y-16782073D01*
X44377927Y-16915690D01*
X44530801Y-17026760D01*
X44541792Y-17032360D01*
X44699163Y-17112545D01*
X44699165Y-17112545D01*
X44699168Y-17112547D01*
X44781185Y-17139196D01*
X44878881Y-17170940D01*
X45065514Y-17200500D01*
X45065519Y-17200500D01*
X45254486Y-17200500D01*
X45441118Y-17170940D01*
X45450748Y-17167811D01*
X45620832Y-17112547D01*
X45789199Y-17026760D01*
X45942073Y-16915690D01*
X46075690Y-16782073D01*
X46186760Y-16629199D01*
X46272547Y-16460832D01*
X46312069Y-16339195D01*
X46351507Y-16281521D01*
X46415866Y-16254323D01*
X46484712Y-16266238D01*
X46536188Y-16313482D01*
X46547931Y-16339196D01*
X46587454Y-16460836D01*
X46634585Y-16553334D01*
X46673240Y-16629199D01*
X46784310Y-16782073D01*
X46917927Y-16915690D01*
X47070801Y-17026760D01*
X47081792Y-17032360D01*
X47239163Y-17112545D01*
X47239165Y-17112545D01*
X47239168Y-17112547D01*
X47321185Y-17139196D01*
X47418881Y-17170940D01*
X47605514Y-17200500D01*
X47605519Y-17200500D01*
X47794486Y-17200500D01*
X47981118Y-17170940D01*
X47990748Y-17167811D01*
X48160832Y-17112547D01*
X48329199Y-17026760D01*
X48482073Y-16915690D01*
X48615690Y-16782073D01*
X48726760Y-16629199D01*
X48812547Y-16460832D01*
X48852069Y-16339195D01*
X48891507Y-16281521D01*
X48955866Y-16254323D01*
X49024712Y-16266238D01*
X49076188Y-16313482D01*
X49087931Y-16339196D01*
X49127454Y-16460836D01*
X49174585Y-16553334D01*
X49213240Y-16629199D01*
X49324310Y-16782073D01*
X49457927Y-16915690D01*
X49610801Y-17026760D01*
X49621792Y-17032360D01*
X49779163Y-17112545D01*
X49779165Y-17112545D01*
X49779168Y-17112547D01*
X49861185Y-17139196D01*
X49958881Y-17170940D01*
X50145514Y-17200500D01*
X50145519Y-17200500D01*
X50334486Y-17200500D01*
X50521118Y-17170940D01*
X50530748Y-17167811D01*
X50700832Y-17112547D01*
X50869199Y-17026760D01*
X51022073Y-16915690D01*
X51155690Y-16782073D01*
X51266760Y-16629199D01*
X51352547Y-16460832D01*
X51410940Y-16281118D01*
X51413092Y-16267532D01*
X51443021Y-16204397D01*
X51502332Y-16167465D01*
X51572194Y-16168463D01*
X51630427Y-16207072D01*
X51656731Y-16264668D01*
X51657181Y-16264561D01*
X51657733Y-16266863D01*
X51658039Y-16267532D01*
X51658318Y-16269298D01*
X51714251Y-16441444D01*
X51714252Y-16441447D01*
X51796434Y-16602734D01*
X51837667Y-16659487D01*
X51837668Y-16659487D01*
X52311980Y-16185176D01*
X52314075Y-16192993D01*
X52379901Y-16307007D01*
X52472993Y-16400099D01*
X52587007Y-16465925D01*
X52594822Y-16468019D01*
X52120510Y-16942330D01*
X52120511Y-16942331D01*
X52177265Y-16983565D01*
X52338552Y-17065747D01*
X52338555Y-17065748D01*
X52510706Y-17121682D01*
X52689494Y-17150000D01*
X52870506Y-17150000D01*
X53049293Y-17121682D01*
X53221444Y-17065748D01*
X53221447Y-17065747D01*
X53382730Y-16983568D01*
X53439487Y-16942330D01*
X53439488Y-16942329D01*
X52965178Y-16468019D01*
X52972993Y-16465925D01*
X53087007Y-16400099D01*
X53180099Y-16307007D01*
X53245925Y-16192993D01*
X53248019Y-16185177D01*
X53722329Y-16659488D01*
X53722330Y-16659487D01*
X53763568Y-16602730D01*
X53845747Y-16441447D01*
X53845748Y-16441444D01*
X53901681Y-16269297D01*
X53901958Y-16267550D01*
X53902248Y-16266936D01*
X53902819Y-16264561D01*
X53903317Y-16264680D01*
X53931877Y-16204411D01*
X53991183Y-16167470D01*
X54061046Y-16168457D01*
X54119284Y-16207058D01*
X54146906Y-16267525D01*
X54149059Y-16281116D01*
X54149059Y-16281118D01*
X54207454Y-16460836D01*
X54254585Y-16553334D01*
X54293240Y-16629199D01*
X54404310Y-16782073D01*
X54537927Y-16915690D01*
X54690801Y-17026760D01*
X54701792Y-17032360D01*
X54859163Y-17112545D01*
X54859165Y-17112545D01*
X54859168Y-17112547D01*
X54941185Y-17139196D01*
X55038881Y-17170940D01*
X55225514Y-17200500D01*
X55225519Y-17200500D01*
X55414486Y-17200500D01*
X55601118Y-17170940D01*
X55610748Y-17167811D01*
X55780832Y-17112547D01*
X55949199Y-17026760D01*
X56102073Y-16915690D01*
X56235690Y-16782073D01*
X56346760Y-16629199D01*
X56432547Y-16460832D01*
X56490940Y-16281118D01*
X56493297Y-16266238D01*
X56520500Y-16094486D01*
X56520500Y-15905513D01*
X56490940Y-15718881D01*
X56444248Y-15575181D01*
X56432547Y-15539168D01*
X56432545Y-15539165D01*
X56432545Y-15539163D01*
X56346759Y-15370800D01*
X56235690Y-15217927D01*
X56102073Y-15084310D01*
X55949199Y-14973240D01*
X55938197Y-14967634D01*
X55780836Y-14887454D01*
X55601118Y-14829059D01*
X55414486Y-14799500D01*
X55414481Y-14799500D01*
X55225519Y-14799500D01*
X55225514Y-14799500D01*
X55038881Y-14829059D01*
X54859163Y-14887454D01*
X54690800Y-14973240D01*
X54631350Y-15016434D01*
X54537927Y-15084310D01*
X54537925Y-15084312D01*
X54537924Y-15084312D01*
X54404312Y-15217924D01*
X54404312Y-15217925D01*
X54404310Y-15217927D01*
X54356610Y-15283579D01*
X54293240Y-15370800D01*
X54207454Y-15539163D01*
X54149059Y-15718881D01*
X54149059Y-15718882D01*
X54146906Y-15732475D01*
X54116973Y-15795608D01*
X54057660Y-15832536D01*
X53987797Y-15831534D01*
X53929567Y-15792921D01*
X53903272Y-15735330D01*
X53902819Y-15735439D01*
X53902261Y-15733115D01*
X53901958Y-15732451D01*
X53901681Y-15730701D01*
X53845748Y-15558555D01*
X53845747Y-15558552D01*
X53763565Y-15397265D01*
X53722331Y-15340511D01*
X53722330Y-15340510D01*
X53248018Y-15814821D01*
X53245925Y-15807007D01*
X53180099Y-15692993D01*
X53087007Y-15599901D01*
X52972993Y-15534075D01*
X52965176Y-15531980D01*
X53439487Y-15057668D01*
X53439487Y-15057667D01*
X53382734Y-15016434D01*
X53221447Y-14934252D01*
X53221444Y-14934251D01*
X53049293Y-14878317D01*
X52870506Y-14850000D01*
X52689494Y-14850000D01*
X52510706Y-14878317D01*
X52453101Y-14897034D01*
X52383259Y-14899029D01*
X52323427Y-14862948D01*
X52292599Y-14800247D01*
X52300564Y-14730833D01*
X52327102Y-14691422D01*
X53739138Y-13279387D01*
X55431706Y-11586819D01*
X55493029Y-11553334D01*
X55519387Y-11550500D01*
X84720613Y-11550500D01*
X84787652Y-11570185D01*
G37*
%TD.AperFunction*%
%TA.AperFunction,Conductor*%
G36*
X80924192Y-24190185D02*
G01*
X80967637Y-24238203D01*
X80973240Y-24249199D01*
X81084310Y-24402073D01*
X81217927Y-24535690D01*
X81370801Y-24646760D01*
X81381792Y-24652360D01*
X81539163Y-24732545D01*
X81539165Y-24732545D01*
X81539168Y-24732547D01*
X81628734Y-24761649D01*
X81660803Y-24772069D01*
X81718478Y-24811507D01*
X81745676Y-24875866D01*
X81733761Y-24944712D01*
X81686516Y-24996188D01*
X81660803Y-25007931D01*
X81539163Y-25047454D01*
X81370800Y-25133240D01*
X81283579Y-25196610D01*
X81217927Y-25244310D01*
X81217925Y-25244312D01*
X81217924Y-25244312D01*
X81084312Y-25377924D01*
X81084312Y-25377925D01*
X81084310Y-25377927D01*
X80979937Y-25521584D01*
X80973240Y-25530801D01*
X80967637Y-25541797D01*
X80919661Y-25592592D01*
X80857153Y-25609500D01*
X79767525Y-25609500D01*
X79636889Y-25644503D01*
X79636890Y-25644504D01*
X79627515Y-25647016D01*
X79627514Y-25647016D01*
X79501986Y-25719489D01*
X79501983Y-25719491D01*
X72028294Y-33193181D01*
X71966971Y-33226666D01*
X71940613Y-33229500D01*
X56462847Y-33229500D01*
X56395808Y-33209815D01*
X56352363Y-33161797D01*
X56351143Y-33159403D01*
X56346760Y-33150801D01*
X56235690Y-32997927D01*
X56102073Y-32864310D01*
X55978897Y-32774817D01*
X55936233Y-32719488D01*
X55930254Y-32649874D01*
X55962860Y-32588079D01*
X56023699Y-32553722D01*
X56051784Y-32550500D01*
X71572472Y-32550500D01*
X71572474Y-32550500D01*
X71572475Y-32550500D01*
X71712485Y-32512984D01*
X71838015Y-32440510D01*
X80071705Y-24206818D01*
X80133028Y-24173334D01*
X80159386Y-24170500D01*
X80857153Y-24170500D01*
X80924192Y-24190185D01*
G37*
%TD.AperFunction*%
%TA.AperFunction,Conductor*%
G36*
X10924192Y-21650185D02*
G01*
X10967637Y-21698203D01*
X10973240Y-21709199D01*
X11084310Y-21862073D01*
X11217927Y-21995690D01*
X11370801Y-22106760D01*
X11450347Y-22147290D01*
X11539163Y-22192545D01*
X11539165Y-22192545D01*
X11539168Y-22192547D01*
X11628734Y-22221649D01*
X11660803Y-22232069D01*
X11718478Y-22271507D01*
X11745676Y-22335866D01*
X11733761Y-22404712D01*
X11686516Y-22456188D01*
X11660803Y-22467931D01*
X11539163Y-22507454D01*
X11370800Y-22593240D01*
X11283579Y-22656610D01*
X11217927Y-22704310D01*
X11217925Y-22704312D01*
X11217924Y-22704312D01*
X11084312Y-22837924D01*
X11084312Y-22837925D01*
X11084310Y-22837927D01*
X11036610Y-22903579D01*
X10973240Y-22990800D01*
X10887454Y-23159163D01*
X10829059Y-23338881D01*
X10799500Y-23525513D01*
X10799500Y-23714486D01*
X10829059Y-23901118D01*
X10887454Y-24080836D01*
X10934585Y-24173334D01*
X10973240Y-24249199D01*
X11084310Y-24402073D01*
X11217927Y-24535690D01*
X11370801Y-24646760D01*
X11381792Y-24652360D01*
X11432589Y-24700332D01*
X11449500Y-24762846D01*
X11449500Y-28072475D01*
X11475684Y-28170194D01*
X11487017Y-28212488D01*
X11559488Y-28338011D01*
X11559490Y-28338013D01*
X11559491Y-28338015D01*
X11661985Y-28440509D01*
X11661986Y-28440510D01*
X11661988Y-28440511D01*
X11787511Y-28512982D01*
X11787512Y-28512982D01*
X11787515Y-28512984D01*
X11927525Y-28550500D01*
X11927528Y-28550500D01*
X36572472Y-28550500D01*
X36572474Y-28550500D01*
X36572475Y-28550500D01*
X36712485Y-28512984D01*
X36757463Y-28487016D01*
X36838015Y-28440510D01*
X37940510Y-27338014D01*
X38012984Y-27212485D01*
X38019877Y-27186760D01*
X38019878Y-27186758D01*
X38028082Y-27156136D01*
X38050500Y-27072475D01*
X38050500Y-26602229D01*
X38070185Y-26535190D01*
X38086820Y-26514547D01*
X38122948Y-26478419D01*
X38122951Y-26478416D01*
X38205084Y-26355495D01*
X38261658Y-26218913D01*
X38290500Y-26073918D01*
X38290500Y-25926082D01*
X38290500Y-25926079D01*
X38261659Y-25781092D01*
X38261658Y-25781091D01*
X38261658Y-25781087D01*
X38236144Y-25719490D01*
X38205087Y-25644511D01*
X38205080Y-25644498D01*
X38122951Y-25521584D01*
X38122948Y-25521580D01*
X38018419Y-25417051D01*
X38018415Y-25417048D01*
X37895501Y-25334919D01*
X37895488Y-25334912D01*
X37758917Y-25278343D01*
X37758907Y-25278340D01*
X37613920Y-25249500D01*
X37613918Y-25249500D01*
X37466082Y-25249500D01*
X37466080Y-25249500D01*
X37321092Y-25278340D01*
X37321082Y-25278343D01*
X37184511Y-25334912D01*
X37184498Y-25334919D01*
X37061584Y-25417048D01*
X37061580Y-25417051D01*
X36957051Y-25521580D01*
X36957048Y-25521584D01*
X36874919Y-25644498D01*
X36874912Y-25644511D01*
X36818343Y-25781082D01*
X36818340Y-25781092D01*
X36789500Y-25926079D01*
X36789500Y-25926082D01*
X36789500Y-26073918D01*
X36789500Y-26073920D01*
X36789499Y-26073920D01*
X36818340Y-26218907D01*
X36818343Y-26218917D01*
X36874912Y-26355488D01*
X36874919Y-26355501D01*
X36928602Y-26435842D01*
X36949480Y-26502519D01*
X36949500Y-26504733D01*
X36949500Y-26720613D01*
X36929815Y-26787652D01*
X36913181Y-26808294D01*
X36308294Y-27413181D01*
X36246971Y-27446666D01*
X36220613Y-27449500D01*
X12674500Y-27449500D01*
X12607461Y-27429815D01*
X12561706Y-27377011D01*
X12550500Y-27325500D01*
X12550500Y-24762846D01*
X12570185Y-24695807D01*
X12618208Y-24652360D01*
X12629199Y-24646760D01*
X12782073Y-24535690D01*
X12915690Y-24402073D01*
X13026760Y-24249199D01*
X13112547Y-24080832D01*
X13152069Y-23959195D01*
X13191507Y-23901521D01*
X13255866Y-23874323D01*
X13324712Y-23886238D01*
X13376188Y-23933482D01*
X13387931Y-23959196D01*
X13427454Y-24080836D01*
X13474585Y-24173334D01*
X13513240Y-24249199D01*
X13624310Y-24402073D01*
X13757927Y-24535690D01*
X13910801Y-24646760D01*
X13921792Y-24652360D01*
X14079163Y-24732545D01*
X14079165Y-24732545D01*
X14079168Y-24732547D01*
X14172418Y-24762846D01*
X14258881Y-24790940D01*
X14445514Y-24820500D01*
X14445519Y-24820500D01*
X14634486Y-24820500D01*
X14821118Y-24790940D01*
X15000832Y-24732547D01*
X15169199Y-24646760D01*
X15322073Y-24535690D01*
X15455690Y-24402073D01*
X15566760Y-24249199D01*
X15572363Y-24238203D01*
X15620339Y-24187408D01*
X15682847Y-24170500D01*
X37260613Y-24170500D01*
X37327652Y-24190185D01*
X37348294Y-24206819D01*
X41180654Y-28039179D01*
X41214139Y-28100502D01*
X41209155Y-28170194D01*
X41167283Y-28226127D01*
X41101819Y-28250544D01*
X41080072Y-28249191D01*
X41079983Y-28250097D01*
X41073921Y-28249500D01*
X41073918Y-28249500D01*
X40926082Y-28249500D01*
X40926080Y-28249500D01*
X40781092Y-28278340D01*
X40781082Y-28278343D01*
X40644511Y-28334912D01*
X40644498Y-28334919D01*
X40521584Y-28417048D01*
X40521580Y-28417051D01*
X40417051Y-28521580D01*
X40417048Y-28521584D01*
X40334919Y-28644498D01*
X40334912Y-28644511D01*
X40278343Y-28781082D01*
X40278340Y-28781092D01*
X40249499Y-28926079D01*
X40248903Y-28932142D01*
X40246193Y-28931875D01*
X40229815Y-28987652D01*
X40213181Y-29008294D01*
X39808294Y-29413181D01*
X39746971Y-29446666D01*
X39720613Y-29449500D01*
X10279386Y-29449500D01*
X10212347Y-29429815D01*
X10191705Y-29413181D01*
X9586819Y-28808294D01*
X9553334Y-28746971D01*
X9550500Y-28720613D01*
X9550500Y-21754500D01*
X9570185Y-21687461D01*
X9622989Y-21641706D01*
X9674500Y-21630500D01*
X10857153Y-21630500D01*
X10924192Y-21650185D01*
G37*
%TD.AperFunction*%
%TA.AperFunction,Conductor*%
G36*
X38864712Y-16266238D02*
G01*
X38916188Y-16313482D01*
X38927931Y-16339196D01*
X38967454Y-16460836D01*
X39014585Y-16553334D01*
X39053240Y-16629199D01*
X39164310Y-16782073D01*
X39297927Y-16915690D01*
X39450801Y-17026760D01*
X39461792Y-17032360D01*
X39512589Y-17080332D01*
X39529500Y-17142846D01*
X39529500Y-17640613D01*
X39509815Y-17707652D01*
X39493181Y-17728294D01*
X36808294Y-20413181D01*
X36746971Y-20446666D01*
X36720613Y-20449500D01*
X15628996Y-20449500D01*
X15561957Y-20429815D01*
X15528678Y-20398386D01*
X15455690Y-20297927D01*
X15322073Y-20164310D01*
X15169199Y-20053240D01*
X15000836Y-19967454D01*
X14926472Y-19943291D01*
X14879195Y-19927930D01*
X14821521Y-19888493D01*
X14794323Y-19824134D01*
X14806238Y-19755288D01*
X14853482Y-19703812D01*
X14879194Y-19692069D01*
X15000832Y-19652547D01*
X15169199Y-19566760D01*
X15322073Y-19455690D01*
X15455690Y-19322073D01*
X15566760Y-19169199D01*
X15652547Y-19000832D01*
X15710940Y-18821118D01*
X15715184Y-18794323D01*
X15740500Y-18634486D01*
X15740500Y-18445513D01*
X15720793Y-18321094D01*
X15710940Y-18258882D01*
X15707126Y-18247146D01*
X15705130Y-18177308D01*
X15737374Y-18121149D01*
X17271706Y-16586819D01*
X17333029Y-16553334D01*
X17359387Y-16550500D01*
X33675500Y-16550500D01*
X33742539Y-16570185D01*
X33788294Y-16622989D01*
X33799500Y-16674500D01*
X33799500Y-16883260D01*
X33809426Y-16951391D01*
X33860803Y-17056485D01*
X33943514Y-17139196D01*
X33943515Y-17139196D01*
X33943517Y-17139198D01*
X34048607Y-17190573D01*
X34082673Y-17195536D01*
X34116739Y-17200500D01*
X34116740Y-17200500D01*
X35883261Y-17200500D01*
X35905971Y-17197191D01*
X35951393Y-17190573D01*
X36056483Y-17139198D01*
X36139198Y-17056483D01*
X36190573Y-16951393D01*
X36200500Y-16883260D01*
X36200500Y-16531909D01*
X36220185Y-16464870D01*
X36272989Y-16419115D01*
X36342147Y-16409171D01*
X36405703Y-16438196D01*
X36434984Y-16475613D01*
X36513240Y-16629199D01*
X36624310Y-16782073D01*
X36757927Y-16915690D01*
X36910801Y-17026760D01*
X36921792Y-17032360D01*
X37079163Y-17112545D01*
X37079165Y-17112545D01*
X37079168Y-17112547D01*
X37161185Y-17139196D01*
X37258881Y-17170940D01*
X37445514Y-17200500D01*
X37445519Y-17200500D01*
X37634486Y-17200500D01*
X37821118Y-17170940D01*
X37830748Y-17167811D01*
X38000832Y-17112547D01*
X38169199Y-17026760D01*
X38322073Y-16915690D01*
X38455690Y-16782073D01*
X38566760Y-16629199D01*
X38652547Y-16460832D01*
X38692069Y-16339195D01*
X38731507Y-16281521D01*
X38795866Y-16254323D01*
X38864712Y-16266238D01*
G37*
%TD.AperFunction*%
%TA.AperFunction,Conductor*%
G36*
X45027652Y-11570185D02*
G01*
X45048294Y-11586819D01*
X48078909Y-14617434D01*
X48112394Y-14678757D01*
X48107410Y-14748449D01*
X48065538Y-14804382D01*
X48000074Y-14828799D01*
X47971830Y-14827588D01*
X47794486Y-14799500D01*
X47794481Y-14799500D01*
X47605519Y-14799500D01*
X47605514Y-14799500D01*
X47418881Y-14829059D01*
X47239163Y-14887454D01*
X47070800Y-14973240D01*
X47011350Y-15016434D01*
X46917927Y-15084310D01*
X46917925Y-15084312D01*
X46917924Y-15084312D01*
X46784312Y-15217924D01*
X46784312Y-15217925D01*
X46784310Y-15217927D01*
X46736610Y-15283579D01*
X46673240Y-15370800D01*
X46587454Y-15539163D01*
X46547931Y-15660803D01*
X46508493Y-15718478D01*
X46444134Y-15745676D01*
X46375288Y-15733761D01*
X46323812Y-15686516D01*
X46312069Y-15660803D01*
X46284248Y-15575181D01*
X46272547Y-15539168D01*
X46272545Y-15539165D01*
X46272545Y-15539163D01*
X46186759Y-15370800D01*
X46075690Y-15217927D01*
X45942073Y-15084310D01*
X45789199Y-14973240D01*
X45778197Y-14967634D01*
X45620836Y-14887454D01*
X45441118Y-14829059D01*
X45254486Y-14799500D01*
X45254481Y-14799500D01*
X45065519Y-14799500D01*
X45065514Y-14799500D01*
X44878881Y-14829059D01*
X44699163Y-14887454D01*
X44530800Y-14973240D01*
X44471350Y-15016434D01*
X44377927Y-15084310D01*
X44377925Y-15084312D01*
X44377924Y-15084312D01*
X44244312Y-15217924D01*
X44244312Y-15217925D01*
X44244310Y-15217927D01*
X44196610Y-15283579D01*
X44133240Y-15370800D01*
X44047454Y-15539163D01*
X44007931Y-15660803D01*
X43968493Y-15718478D01*
X43904134Y-15745676D01*
X43835288Y-15733761D01*
X43783812Y-15686516D01*
X43772069Y-15660803D01*
X43744248Y-15575181D01*
X43732547Y-15539168D01*
X43732545Y-15539165D01*
X43732545Y-15539163D01*
X43646759Y-15370800D01*
X43535690Y-15217927D01*
X43402073Y-15084310D01*
X43249199Y-14973240D01*
X43238197Y-14967634D01*
X43080836Y-14887454D01*
X42901118Y-14829059D01*
X42714486Y-14799500D01*
X42714481Y-14799500D01*
X42525519Y-14799500D01*
X42525514Y-14799500D01*
X42338881Y-14829059D01*
X42159163Y-14887454D01*
X41990800Y-14973240D01*
X41931350Y-15016434D01*
X41837927Y-15084310D01*
X41837925Y-15084312D01*
X41837924Y-15084312D01*
X41704312Y-15217924D01*
X41704312Y-15217925D01*
X41704310Y-15217927D01*
X41656610Y-15283579D01*
X41593240Y-15370800D01*
X41507454Y-15539163D01*
X41467931Y-15660803D01*
X41428493Y-15718478D01*
X41364134Y-15745676D01*
X41295288Y-15733761D01*
X41243812Y-15686516D01*
X41232069Y-15660803D01*
X41204248Y-15575181D01*
X41192547Y-15539168D01*
X41192545Y-15539165D01*
X41192545Y-15539163D01*
X41106759Y-15370800D01*
X40995690Y-15217927D01*
X40862073Y-15084310D01*
X40709199Y-14973240D01*
X40698197Y-14967634D01*
X40540836Y-14887454D01*
X40361118Y-14829059D01*
X40174486Y-14799500D01*
X40174481Y-14799500D01*
X39985519Y-14799500D01*
X39985514Y-14799500D01*
X39798881Y-14829059D01*
X39619163Y-14887454D01*
X39450800Y-14973240D01*
X39391350Y-15016434D01*
X39297927Y-15084310D01*
X39297925Y-15084312D01*
X39297924Y-15084312D01*
X39164312Y-15217924D01*
X39164312Y-15217925D01*
X39164310Y-15217927D01*
X39116610Y-15283579D01*
X39053240Y-15370800D01*
X38967454Y-15539163D01*
X38927931Y-15660803D01*
X38888493Y-15718478D01*
X38824134Y-15745676D01*
X38755288Y-15733761D01*
X38703812Y-15686516D01*
X38692069Y-15660803D01*
X38664248Y-15575181D01*
X38652547Y-15539168D01*
X38652545Y-15539165D01*
X38652545Y-15539163D01*
X38566759Y-15370800D01*
X38455690Y-15217927D01*
X38322073Y-15084310D01*
X38169199Y-14973240D01*
X38158197Y-14967634D01*
X38000836Y-14887454D01*
X37821118Y-14829059D01*
X37634486Y-14799500D01*
X37634481Y-14799500D01*
X37445519Y-14799500D01*
X37445514Y-14799500D01*
X37258881Y-14829059D01*
X37079163Y-14887454D01*
X36910800Y-14973240D01*
X36851350Y-15016434D01*
X36757927Y-15084310D01*
X36757925Y-15084312D01*
X36757924Y-15084312D01*
X36624312Y-15217924D01*
X36624312Y-15217925D01*
X36624310Y-15217927D01*
X36576610Y-15283579D01*
X36513240Y-15370800D01*
X36434985Y-15524385D01*
X36387010Y-15575181D01*
X36319189Y-15591976D01*
X36253054Y-15569439D01*
X36209603Y-15514723D01*
X36200500Y-15468090D01*
X36200500Y-15116739D01*
X36190573Y-15048608D01*
X36190573Y-15048607D01*
X36139198Y-14943517D01*
X36139196Y-14943515D01*
X36139196Y-14943514D01*
X36056485Y-14860803D01*
X35951391Y-14809426D01*
X35883261Y-14799500D01*
X35883260Y-14799500D01*
X34116740Y-14799500D01*
X34116739Y-14799500D01*
X34048608Y-14809426D01*
X33943514Y-14860803D01*
X33860803Y-14943514D01*
X33809426Y-15048608D01*
X33799500Y-15116739D01*
X33799500Y-15325500D01*
X33779815Y-15392539D01*
X33727011Y-15438294D01*
X33675500Y-15449500D01*
X17007525Y-15449500D01*
X16902517Y-15477637D01*
X16867514Y-15487016D01*
X16741986Y-15559489D01*
X16741983Y-15559491D01*
X15922565Y-16378909D01*
X15861242Y-16412394D01*
X15791550Y-16407410D01*
X15735617Y-16365538D01*
X15711200Y-16300074D01*
X15712411Y-16271830D01*
X15740500Y-16094486D01*
X15740500Y-15905513D01*
X15720793Y-15781094D01*
X15710940Y-15718882D01*
X15707126Y-15707146D01*
X15705130Y-15637308D01*
X15737374Y-15581149D01*
X19731706Y-11586819D01*
X19793029Y-11553334D01*
X19819387Y-11550500D01*
X44960613Y-11550500D01*
X45027652Y-11570185D01*
G37*
%TD.AperFunction*%
%TA.AperFunction,Conductor*%
G36*
X98443039Y-1519685D02*
G01*
X98488794Y-1572489D01*
X98500000Y-1624000D01*
X98500000Y-83376000D01*
X98480315Y-83443039D01*
X98427511Y-83488794D01*
X98376000Y-83500000D01*
X1624000Y-83500000D01*
X1556961Y-83480315D01*
X1511206Y-83427511D01*
X1500000Y-83376000D01*
X1500000Y-80381995D01*
X2699500Y-80381995D01*
X2699500Y-80618004D01*
X2699501Y-80618020D01*
X2730306Y-80852010D01*
X2791394Y-81079993D01*
X2881714Y-81298045D01*
X2881719Y-81298056D01*
X2952677Y-81420957D01*
X2999727Y-81502450D01*
X2999729Y-81502453D01*
X2999730Y-81502454D01*
X3143406Y-81689697D01*
X3143412Y-81689704D01*
X3310295Y-81856587D01*
X3310301Y-81856592D01*
X3497550Y-82000273D01*
X3628918Y-82076118D01*
X3701943Y-82118280D01*
X3701948Y-82118282D01*
X3701951Y-82118284D01*
X3920007Y-82208606D01*
X4147986Y-82269693D01*
X4381989Y-82300500D01*
X4381996Y-82300500D01*
X4618004Y-82300500D01*
X4618011Y-82300500D01*
X4852014Y-82269693D01*
X5079993Y-82208606D01*
X5298049Y-82118284D01*
X5502450Y-82000273D01*
X5689699Y-81856592D01*
X5856592Y-81689699D01*
X6000273Y-81502450D01*
X6118284Y-81298049D01*
X6208606Y-81079993D01*
X6269693Y-80852014D01*
X6300500Y-80618011D01*
X6300500Y-80381995D01*
X93699500Y-80381995D01*
X93699500Y-80618004D01*
X93699501Y-80618020D01*
X93730306Y-80852010D01*
X93791394Y-81079993D01*
X93881714Y-81298045D01*
X93881719Y-81298056D01*
X93952677Y-81420957D01*
X93999727Y-81502450D01*
X93999729Y-81502453D01*
X93999730Y-81502454D01*
X94143406Y-81689697D01*
X94143412Y-81689704D01*
X94310295Y-81856587D01*
X94310301Y-81856592D01*
X94497550Y-82000273D01*
X94628918Y-82076118D01*
X94701943Y-82118280D01*
X94701948Y-82118282D01*
X94701951Y-82118284D01*
X94920007Y-82208606D01*
X95147986Y-82269693D01*
X95381989Y-82300500D01*
X95381996Y-82300500D01*
X95618004Y-82300500D01*
X95618011Y-82300500D01*
X95852014Y-82269693D01*
X96079993Y-82208606D01*
X96298049Y-82118284D01*
X96502450Y-82000273D01*
X96689699Y-81856592D01*
X96856592Y-81689699D01*
X97000273Y-81502450D01*
X97118284Y-81298049D01*
X97208606Y-81079993D01*
X97269693Y-80852014D01*
X97300500Y-80618011D01*
X97300500Y-80381989D01*
X97269693Y-80147986D01*
X97208606Y-79920007D01*
X97118284Y-79701951D01*
X97118282Y-79701948D01*
X97118280Y-79701943D01*
X97076118Y-79628918D01*
X97000273Y-79497550D01*
X96856592Y-79310301D01*
X96856587Y-79310295D01*
X96689704Y-79143412D01*
X96689697Y-79143406D01*
X96502454Y-78999730D01*
X96502453Y-78999729D01*
X96502450Y-78999727D01*
X96420957Y-78952677D01*
X96298056Y-78881719D01*
X96298045Y-78881714D01*
X96079993Y-78791394D01*
X95852010Y-78730306D01*
X95618020Y-78699501D01*
X95618017Y-78699500D01*
X95618011Y-78699500D01*
X95381989Y-78699500D01*
X95381983Y-78699500D01*
X95381979Y-78699501D01*
X95147989Y-78730306D01*
X94920006Y-78791394D01*
X94701954Y-78881714D01*
X94701943Y-78881719D01*
X94497545Y-78999730D01*
X94310302Y-79143406D01*
X94310295Y-79143412D01*
X94143412Y-79310295D01*
X94143406Y-79310302D01*
X93999730Y-79497545D01*
X93881719Y-79701943D01*
X93881714Y-79701954D01*
X93791394Y-79920006D01*
X93730306Y-80147989D01*
X93699501Y-80381979D01*
X93699500Y-80381995D01*
X6300500Y-80381995D01*
X6300500Y-80381989D01*
X6269693Y-80147986D01*
X6208606Y-79920007D01*
X6118284Y-79701951D01*
X6118282Y-79701948D01*
X6118280Y-79701943D01*
X6076118Y-79628918D01*
X6000273Y-79497550D01*
X5856592Y-79310301D01*
X5856587Y-79310295D01*
X5689704Y-79143412D01*
X5689697Y-79143406D01*
X5502454Y-78999730D01*
X5502453Y-78999729D01*
X5502450Y-78999727D01*
X5420957Y-78952677D01*
X5298056Y-78881719D01*
X5298045Y-78881714D01*
X5079993Y-78791394D01*
X4852010Y-78730306D01*
X4618020Y-78699501D01*
X4618017Y-78699500D01*
X4618011Y-78699500D01*
X4381989Y-78699500D01*
X4381983Y-78699500D01*
X4381979Y-78699501D01*
X4147989Y-78730306D01*
X3920006Y-78791394D01*
X3701954Y-78881714D01*
X3701943Y-78881719D01*
X3497545Y-78999730D01*
X3310302Y-79143406D01*
X3310295Y-79143412D01*
X3143412Y-79310295D01*
X3143406Y-79310302D01*
X2999730Y-79497545D01*
X2881719Y-79701943D01*
X2881714Y-79701954D01*
X2791394Y-79920006D01*
X2730306Y-80147989D01*
X2699501Y-80381979D01*
X2699500Y-80381995D01*
X1500000Y-80381995D01*
X1500000Y-11427525D01*
X2949500Y-11427525D01*
X2949500Y-62927526D01*
X2949500Y-63072474D01*
X2987016Y-63212485D01*
X3059490Y-63338015D01*
X4687186Y-64965710D01*
X4801973Y-65031982D01*
X4801975Y-65031984D01*
X4810443Y-65036872D01*
X4812715Y-65038184D01*
X4952725Y-65075700D01*
X4952726Y-65075700D01*
X5097675Y-65075700D01*
X9908382Y-65075700D01*
X9975421Y-65095385D01*
X10018867Y-65143405D01*
X10034884Y-65174840D01*
X10149562Y-65332680D01*
X10287520Y-65470638D01*
X10445360Y-65585316D01*
X10476794Y-65601332D01*
X10527590Y-65649305D01*
X10544500Y-65711817D01*
X10544500Y-74022526D01*
X10544500Y-74167474D01*
X10582016Y-74307485D01*
X10654490Y-74433015D01*
X11661985Y-75440510D01*
X11787515Y-75512984D01*
X11927525Y-75550500D01*
X11927528Y-75550500D01*
X19682472Y-75550500D01*
X19682474Y-75550500D01*
X19682475Y-75550500D01*
X19822485Y-75512984D01*
X19948015Y-75440510D01*
X20283320Y-75105205D01*
X42850000Y-75105205D01*
X42850000Y-75800000D01*
X43538120Y-75800000D01*
X43534075Y-75807007D01*
X43500000Y-75934174D01*
X43500000Y-76065826D01*
X43534075Y-76192993D01*
X43538120Y-76200000D01*
X42850001Y-76200000D01*
X42850001Y-76894785D01*
X42850002Y-76894808D01*
X42852908Y-76919869D01*
X42852909Y-76919873D01*
X42898211Y-77022474D01*
X42898214Y-77022479D01*
X42977520Y-77101785D01*
X42977525Y-77101788D01*
X43080123Y-77147089D01*
X43105206Y-77149999D01*
X43799999Y-77149999D01*
X43800000Y-77149998D01*
X43800000Y-76461879D01*
X43807007Y-76465925D01*
X43934174Y-76500000D01*
X44065826Y-76500000D01*
X44192993Y-76465925D01*
X44200000Y-76461879D01*
X44200000Y-77149999D01*
X44894786Y-77149999D01*
X44894808Y-77149997D01*
X44919869Y-77147091D01*
X44919873Y-77147090D01*
X45022474Y-77101788D01*
X45022479Y-77101785D01*
X45101785Y-77022479D01*
X45101788Y-77022474D01*
X45147089Y-76919877D01*
X45147089Y-76919875D01*
X45149999Y-76894794D01*
X45149999Y-76389825D01*
X45169683Y-76322786D01*
X45222487Y-76277031D01*
X45291646Y-76267087D01*
X45355202Y-76296112D01*
X45391930Y-76351506D01*
X45427454Y-76460835D01*
X45447410Y-76500000D01*
X45513240Y-76629199D01*
X45624310Y-76782073D01*
X45757927Y-76915690D01*
X45910801Y-77026760D01*
X45990347Y-77067290D01*
X46079163Y-77112545D01*
X46079165Y-77112545D01*
X46079168Y-77112547D01*
X46175497Y-77143846D01*
X46258881Y-77170940D01*
X46445514Y-77200500D01*
X46445519Y-77200500D01*
X46634486Y-77200500D01*
X46821118Y-77170940D01*
X46885570Y-77149998D01*
X47000832Y-77112547D01*
X47169199Y-77026760D01*
X47322073Y-76915690D01*
X47455690Y-76782073D01*
X47566760Y-76629199D01*
X47652547Y-76460832D01*
X47710940Y-76281118D01*
X47723788Y-76200000D01*
X47734978Y-76129352D01*
X47734995Y-76129241D01*
X47740500Y-76094481D01*
X47740500Y-75905513D01*
X47710940Y-75718881D01*
X47652545Y-75539163D01*
X47566759Y-75370800D01*
X47455690Y-75217927D01*
X47322073Y-75084310D01*
X47169199Y-74973240D01*
X47158197Y-74967634D01*
X47000836Y-74887454D01*
X46821118Y-74829059D01*
X46634486Y-74799500D01*
X46634481Y-74799500D01*
X46445519Y-74799500D01*
X46445514Y-74799500D01*
X46258881Y-74829059D01*
X46079163Y-74887454D01*
X45910800Y-74973240D01*
X45854777Y-75013944D01*
X45757927Y-75084310D01*
X45757925Y-75084312D01*
X45757924Y-75084312D01*
X45624312Y-75217924D01*
X45624312Y-75217925D01*
X45624310Y-75217927D01*
X45576610Y-75283579D01*
X45513240Y-75370800D01*
X45427454Y-75539163D01*
X45391930Y-75648495D01*
X45352492Y-75706170D01*
X45288133Y-75733368D01*
X45219287Y-75721453D01*
X45167811Y-75674208D01*
X45149999Y-75610176D01*
X45149999Y-75105214D01*
X45149997Y-75105191D01*
X45147091Y-75080130D01*
X45147090Y-75080126D01*
X45101788Y-74977525D01*
X45101785Y-74977520D01*
X45022479Y-74898214D01*
X45022474Y-74898211D01*
X44919876Y-74852910D01*
X44894794Y-74850000D01*
X44200000Y-74850000D01*
X44200000Y-75538120D01*
X44192993Y-75534075D01*
X44065826Y-75500000D01*
X43934174Y-75500000D01*
X43807007Y-75534075D01*
X43800000Y-75538120D01*
X43800000Y-74850000D01*
X43105214Y-74850000D01*
X43105191Y-74850002D01*
X43080130Y-74852908D01*
X43080126Y-74852909D01*
X42977525Y-74898211D01*
X42977520Y-74898214D01*
X42898214Y-74977520D01*
X42898211Y-74977525D01*
X42852910Y-75080122D01*
X42852910Y-75080124D01*
X42850000Y-75105205D01*
X20283320Y-75105205D01*
X22995510Y-72393015D01*
X23067984Y-72267485D01*
X23105500Y-72127474D01*
X23105500Y-72061817D01*
X23125185Y-71994778D01*
X23173204Y-71951332D01*
X23204640Y-71935316D01*
X23362480Y-71820638D01*
X23500438Y-71682680D01*
X23615116Y-71524840D01*
X23703690Y-71351003D01*
X23763980Y-71165450D01*
X23766723Y-71148130D01*
X23794500Y-70972756D01*
X23794500Y-70777643D01*
X23763980Y-70584949D01*
X23710583Y-70420612D01*
X23703690Y-70399397D01*
X23703688Y-70399393D01*
X23703688Y-70399392D01*
X23649440Y-70292925D01*
X23615116Y-70225560D01*
X23500438Y-70067720D01*
X23362480Y-69929762D01*
X23204640Y-69815084D01*
X23030807Y-69726511D01*
X22845250Y-69666219D01*
X22652556Y-69635700D01*
X22652551Y-69635700D01*
X22457449Y-69635700D01*
X22457444Y-69635700D01*
X22264749Y-69666219D01*
X22079192Y-69726511D01*
X21905359Y-69815084D01*
X21828674Y-69870800D01*
X21747520Y-69929762D01*
X21747518Y-69929764D01*
X21747517Y-69929764D01*
X21609564Y-70067717D01*
X21609564Y-70067718D01*
X21609562Y-70067720D01*
X21595033Y-70087718D01*
X21494884Y-70225559D01*
X21406311Y-70399393D01*
X21399680Y-70419801D01*
X21360240Y-70477475D01*
X21295881Y-70504671D01*
X21227035Y-70492755D01*
X21175560Y-70445509D01*
X21165667Y-70423841D01*
X21165551Y-70423890D01*
X21164193Y-70420612D01*
X21163815Y-70419783D01*
X21163690Y-70419397D01*
X21075116Y-70245560D01*
X20960438Y-70087720D01*
X20822480Y-69949762D01*
X20664640Y-69835084D01*
X20625388Y-69815084D01*
X20490807Y-69746511D01*
X20305250Y-69686219D01*
X20112556Y-69655700D01*
X20112551Y-69655700D01*
X19917449Y-69655700D01*
X19917444Y-69655700D01*
X19724749Y-69686219D01*
X19539192Y-69746511D01*
X19365359Y-69835084D01*
X19316201Y-69870800D01*
X19207520Y-69949762D01*
X19207518Y-69949764D01*
X19207517Y-69949764D01*
X19069564Y-70087717D01*
X19069564Y-70087718D01*
X19069562Y-70087720D01*
X19066470Y-70091976D01*
X18954884Y-70245559D01*
X18866309Y-70419396D01*
X18839629Y-70501508D01*
X18800191Y-70559183D01*
X18735832Y-70586380D01*
X18666986Y-70574465D01*
X18615511Y-70527220D01*
X18603767Y-70501504D01*
X18576890Y-70418782D01*
X18491923Y-70252027D01*
X18445251Y-70187790D01*
X18445251Y-70187789D01*
X17897704Y-70735336D01*
X17889208Y-70703629D01*
X17830689Y-70602270D01*
X17747930Y-70519511D01*
X17646571Y-70460992D01*
X17614862Y-70452495D01*
X18162409Y-69904948D01*
X18162408Y-69904947D01*
X18098172Y-69858276D01*
X17931415Y-69773308D01*
X17753426Y-69715477D01*
X17568581Y-69686200D01*
X17381419Y-69686200D01*
X17196573Y-69715477D01*
X17018584Y-69773308D01*
X16851831Y-69858274D01*
X16787590Y-69904947D01*
X17335138Y-70452495D01*
X17303429Y-70460992D01*
X17202070Y-70519511D01*
X17119311Y-70602270D01*
X17060792Y-70703629D01*
X17052295Y-70735338D01*
X16504747Y-70187790D01*
X16458074Y-70252031D01*
X16373108Y-70418784D01*
X16315277Y-70596773D01*
X16286000Y-70781618D01*
X16286000Y-70968781D01*
X16315277Y-71153626D01*
X16373108Y-71331615D01*
X16458076Y-71498372D01*
X16504747Y-71562608D01*
X16504748Y-71562609D01*
X17052295Y-71015061D01*
X17060792Y-71046771D01*
X17119311Y-71148130D01*
X17202070Y-71230889D01*
X17303429Y-71289408D01*
X17335137Y-71297904D01*
X16787589Y-71845451D01*
X16851827Y-71892123D01*
X17018584Y-71977091D01*
X17196573Y-72034922D01*
X17381419Y-72064200D01*
X17568581Y-72064200D01*
X17753426Y-72034922D01*
X17931415Y-71977091D01*
X18098172Y-71892123D01*
X18162408Y-71845451D01*
X18162409Y-71845450D01*
X17614863Y-71297904D01*
X17646571Y-71289408D01*
X17747930Y-71230889D01*
X17830689Y-71148130D01*
X17889208Y-71046771D01*
X17897704Y-71015062D01*
X18445250Y-71562609D01*
X18445251Y-71562608D01*
X18491923Y-71498372D01*
X18576892Y-71331613D01*
X18597270Y-71268895D01*
X18636706Y-71211219D01*
X18701065Y-71184020D01*
X18769911Y-71195934D01*
X18821387Y-71243177D01*
X18833132Y-71268893D01*
X18866311Y-71371007D01*
X18945672Y-71526760D01*
X18954884Y-71544840D01*
X19069562Y-71702680D01*
X19207520Y-71840638D01*
X19365360Y-71955316D01*
X19442809Y-71994778D01*
X19539192Y-72043888D01*
X19539194Y-72043888D01*
X19539197Y-72043890D01*
X19601705Y-72064200D01*
X19724749Y-72104180D01*
X19917444Y-72134700D01*
X19917449Y-72134700D01*
X20112556Y-72134700D01*
X20305250Y-72104180D01*
X20490803Y-72043890D01*
X20664640Y-71955316D01*
X20822480Y-71840638D01*
X20960438Y-71702680D01*
X21075116Y-71544840D01*
X21163690Y-71371003D01*
X21170319Y-71350599D01*
X21209754Y-71292927D01*
X21274112Y-71265728D01*
X21342959Y-71277642D01*
X21394435Y-71324885D01*
X21404333Y-71346557D01*
X21404449Y-71346510D01*
X21405785Y-71349737D01*
X21406177Y-71350596D01*
X21406268Y-71350874D01*
X21406311Y-71351007D01*
X21457460Y-71451391D01*
X21494884Y-71524840D01*
X21609562Y-71682680D01*
X21747520Y-71820638D01*
X21782573Y-71846106D01*
X21825239Y-71901434D01*
X21831218Y-71971047D01*
X21798613Y-72032842D01*
X21797369Y-72034104D01*
X19418294Y-74413181D01*
X19356971Y-74446666D01*
X19330613Y-74449500D01*
X12279387Y-74449500D01*
X12212348Y-74429815D01*
X12191706Y-74413181D01*
X11681819Y-73903294D01*
X11648334Y-73841971D01*
X11645500Y-73815613D01*
X11645500Y-66951627D01*
X12207000Y-66951627D01*
X12207000Y-67178772D01*
X12242530Y-67403103D01*
X12312720Y-67619122D01*
X12415836Y-67821497D01*
X12497904Y-67934452D01*
X12497905Y-67934453D01*
X13033118Y-67399239D01*
X13107439Y-67510468D01*
X13204732Y-67607761D01*
X13315959Y-67682080D01*
X12780745Y-68217294D01*
X12893704Y-68299363D01*
X12893710Y-68299367D01*
X13096077Y-68402479D01*
X13312096Y-68472669D01*
X13536428Y-68508200D01*
X13763572Y-68508200D01*
X13987903Y-68472669D01*
X14203922Y-68402479D01*
X14406295Y-68299364D01*
X14519252Y-68217295D01*
X14519252Y-68217294D01*
X13984039Y-67682081D01*
X14095268Y-67607761D01*
X14192561Y-67510468D01*
X14266881Y-67399239D01*
X14802094Y-67934453D01*
X14802094Y-67934452D01*
X14884164Y-67821495D01*
X14987279Y-67619122D01*
X15057469Y-67403103D01*
X15093000Y-67178772D01*
X15093000Y-66966427D01*
X24907000Y-66966427D01*
X24907000Y-67193572D01*
X24942530Y-67417903D01*
X25012720Y-67633922D01*
X25115836Y-67836297D01*
X25197904Y-67949252D01*
X25197905Y-67949253D01*
X25733118Y-67414039D01*
X25807439Y-67525268D01*
X25904732Y-67622561D01*
X26015959Y-67696880D01*
X25480745Y-68232094D01*
X25593704Y-68314163D01*
X25593710Y-68314167D01*
X25796077Y-68417279D01*
X26012096Y-68487469D01*
X26236428Y-68523000D01*
X26463572Y-68523000D01*
X26687903Y-68487469D01*
X26903922Y-68417279D01*
X27106295Y-68314164D01*
X27219252Y-68232094D01*
X27219253Y-68232094D01*
X26684039Y-67696881D01*
X26795268Y-67622561D01*
X26892561Y-67525268D01*
X26966881Y-67414039D01*
X27502094Y-67949253D01*
X27502094Y-67949252D01*
X27584164Y-67836295D01*
X27687279Y-67633922D01*
X27757469Y-67417903D01*
X27793000Y-67193572D01*
X27793000Y-66966427D01*
X27757469Y-66742096D01*
X27687279Y-66526077D01*
X27584167Y-66323710D01*
X27584163Y-66323704D01*
X27502094Y-66210746D01*
X27502094Y-66210745D01*
X26966880Y-66745959D01*
X26892561Y-66634732D01*
X26795268Y-66537439D01*
X26684039Y-66463118D01*
X27219253Y-65927905D01*
X27219252Y-65927904D01*
X27106297Y-65845836D01*
X26903922Y-65742720D01*
X26687903Y-65672530D01*
X26463572Y-65637000D01*
X26236428Y-65637000D01*
X26012096Y-65672530D01*
X25796077Y-65742720D01*
X25593699Y-65845838D01*
X25480746Y-65927902D01*
X25480745Y-65927904D01*
X26015960Y-66463118D01*
X25904732Y-66537439D01*
X25807439Y-66634732D01*
X25733119Y-66745960D01*
X25197904Y-66210745D01*
X25197902Y-66210746D01*
X25115838Y-66323699D01*
X25012720Y-66526077D01*
X24942530Y-66742096D01*
X24907000Y-66966427D01*
X15093000Y-66966427D01*
X15093000Y-66951627D01*
X15057469Y-66727296D01*
X14987279Y-66511277D01*
X14884167Y-66308910D01*
X14884163Y-66308904D01*
X14802094Y-66195946D01*
X14802094Y-66195945D01*
X14266880Y-66731159D01*
X14192561Y-66619932D01*
X14095268Y-66522639D01*
X13984039Y-66448318D01*
X14519253Y-65913104D01*
X14406297Y-65831036D01*
X14203922Y-65727920D01*
X13987903Y-65657730D01*
X13763572Y-65622200D01*
X13536428Y-65622200D01*
X13312096Y-65657730D01*
X13096077Y-65727920D01*
X12893699Y-65831038D01*
X12780746Y-65913102D01*
X12780745Y-65913104D01*
X13315960Y-66448318D01*
X13204732Y-66522639D01*
X13107439Y-66619932D01*
X13033119Y-66731160D01*
X12497904Y-66195945D01*
X12497902Y-66195946D01*
X12415838Y-66308899D01*
X12312720Y-66511277D01*
X12242530Y-66727296D01*
X12207000Y-66951627D01*
X11645500Y-66951627D01*
X11645500Y-65711817D01*
X11665185Y-65644778D01*
X11713204Y-65601332D01*
X11744640Y-65585316D01*
X11902480Y-65470638D01*
X12040438Y-65332680D01*
X12155116Y-65174840D01*
X12243690Y-65001003D01*
X12303980Y-64815450D01*
X12306506Y-64799500D01*
X12334500Y-64622756D01*
X12334500Y-64427643D01*
X12303980Y-64234949D01*
X12243688Y-64049392D01*
X12155115Y-63875559D01*
X12040438Y-63717720D01*
X11902480Y-63579762D01*
X11744640Y-63465084D01*
X11570804Y-63376510D01*
X11564039Y-63374312D01*
X11560402Y-63373130D01*
X11502727Y-63333695D01*
X11475528Y-63269336D01*
X11487442Y-63200490D01*
X11534686Y-63149013D01*
X11560401Y-63137269D01*
X11570803Y-63133890D01*
X11744640Y-63045316D01*
X11751180Y-63040564D01*
X11791976Y-63021104D01*
X11822285Y-63012984D01*
X11947815Y-62940510D01*
X12050310Y-62838015D01*
X12122784Y-62712485D01*
X12130904Y-62682176D01*
X12150364Y-62641380D01*
X12155116Y-62634840D01*
X12243690Y-62461003D01*
X12303980Y-62275450D01*
X12317423Y-62190573D01*
X12334500Y-62082756D01*
X12334500Y-61887643D01*
X12303980Y-61694949D01*
X12262328Y-61566759D01*
X12243690Y-61509397D01*
X12243688Y-61509394D01*
X12243688Y-61509392D01*
X12196963Y-61417691D01*
X12155116Y-61335560D01*
X12040438Y-61177720D01*
X11902480Y-61039762D01*
X11744640Y-60925084D01*
X11714041Y-60909493D01*
X11570808Y-60836512D01*
X11570805Y-60836511D01*
X11570803Y-60836510D01*
X11508965Y-60816417D01*
X11451291Y-60776979D01*
X11424094Y-60712620D01*
X11436009Y-60643774D01*
X11483254Y-60592299D01*
X11508970Y-60580555D01*
X11566417Y-60561890D01*
X11733172Y-60476923D01*
X11797408Y-60430251D01*
X11797409Y-60430250D01*
X11249863Y-59882704D01*
X11281571Y-59874208D01*
X11382930Y-59815689D01*
X11465689Y-59732930D01*
X11524208Y-59631571D01*
X11532704Y-59599862D01*
X12080250Y-60147409D01*
X12080251Y-60147408D01*
X12126923Y-60083172D01*
X12211891Y-59916415D01*
X12269722Y-59738426D01*
X12299000Y-59553581D01*
X12299000Y-59366418D01*
X12269722Y-59181573D01*
X12211891Y-59003584D01*
X12126923Y-58836827D01*
X12080251Y-58772590D01*
X12080251Y-58772589D01*
X11532704Y-59320136D01*
X11524208Y-59288429D01*
X11465689Y-59187070D01*
X11382930Y-59104311D01*
X11281571Y-59045792D01*
X11249862Y-59037295D01*
X11797409Y-58489748D01*
X11797408Y-58489747D01*
X11733172Y-58443076D01*
X11566415Y-58358108D01*
X11388426Y-58300277D01*
X11203581Y-58271000D01*
X11016419Y-58271000D01*
X10831573Y-58300277D01*
X10653584Y-58358108D01*
X10486831Y-58443074D01*
X10422590Y-58489747D01*
X10970138Y-59037295D01*
X10938429Y-59045792D01*
X10837070Y-59104311D01*
X10754311Y-59187070D01*
X10695792Y-59288429D01*
X10687295Y-59320138D01*
X10139747Y-58772590D01*
X10093074Y-58836831D01*
X10008108Y-59003584D01*
X9950277Y-59181573D01*
X9921000Y-59366418D01*
X9921000Y-59553581D01*
X9950277Y-59738426D01*
X10008108Y-59916415D01*
X10093076Y-60083172D01*
X10139747Y-60147408D01*
X10139748Y-60147409D01*
X10687295Y-59599861D01*
X10695792Y-59631571D01*
X10754311Y-59732930D01*
X10837070Y-59815689D01*
X10938429Y-59874208D01*
X10970137Y-59882704D01*
X10422589Y-60430251D01*
X10486827Y-60476923D01*
X10653582Y-60561890D01*
X10696028Y-60575681D01*
X10753704Y-60615118D01*
X10780903Y-60679476D01*
X10768990Y-60748323D01*
X10721747Y-60799799D01*
X10696032Y-60811543D01*
X10619196Y-60836509D01*
X10445359Y-60925084D01*
X10355305Y-60990512D01*
X10287520Y-61039762D01*
X10287518Y-61039764D01*
X10287517Y-61039764D01*
X10149564Y-61177717D01*
X10149564Y-61177718D01*
X10149562Y-61177720D01*
X10100312Y-61245505D01*
X10034884Y-61335559D01*
X9946311Y-61509392D01*
X9886019Y-61694949D01*
X9855500Y-61887643D01*
X9855500Y-62082756D01*
X9886019Y-62275450D01*
X9946311Y-62461007D01*
X10026896Y-62619163D01*
X10034884Y-62634840D01*
X10149562Y-62792680D01*
X10287520Y-62930638D01*
X10445360Y-63045316D01*
X10498655Y-63072471D01*
X10619192Y-63133888D01*
X10619194Y-63133888D01*
X10619197Y-63133890D01*
X10629599Y-63137269D01*
X10687273Y-63176707D01*
X10714471Y-63241066D01*
X10702556Y-63309912D01*
X10655311Y-63361388D01*
X10629601Y-63373129D01*
X10624973Y-63374633D01*
X10619192Y-63376511D01*
X10445359Y-63465084D01*
X10355305Y-63530512D01*
X10287520Y-63579762D01*
X10287518Y-63579764D01*
X10287517Y-63579764D01*
X10149564Y-63717717D01*
X10149564Y-63717718D01*
X10149562Y-63717720D01*
X10100312Y-63785505D01*
X10034884Y-63875559D01*
X10018867Y-63906995D01*
X9970892Y-63957791D01*
X9908382Y-63974700D01*
X5304586Y-63974700D01*
X5237547Y-63955015D01*
X5216905Y-63938381D01*
X4086819Y-62808294D01*
X4053334Y-62746971D01*
X4050500Y-62720613D01*
X4050500Y-56821627D01*
X12207000Y-56821627D01*
X12207000Y-57048772D01*
X12242530Y-57273103D01*
X12312720Y-57489122D01*
X12415836Y-57691497D01*
X12497904Y-57804452D01*
X12497905Y-57804453D01*
X13033118Y-57269239D01*
X13107439Y-57380468D01*
X13204732Y-57477761D01*
X13315959Y-57552080D01*
X12780745Y-58087294D01*
X12893704Y-58169363D01*
X12893710Y-58169367D01*
X13096077Y-58272479D01*
X13312096Y-58342669D01*
X13536428Y-58378200D01*
X13763572Y-58378200D01*
X13987903Y-58342669D01*
X14203922Y-58272479D01*
X14406295Y-58169364D01*
X14519252Y-58087294D01*
X14519253Y-58087294D01*
X13984039Y-57552081D01*
X14095268Y-57477761D01*
X14192561Y-57380468D01*
X14266881Y-57269239D01*
X14802094Y-57804453D01*
X14802094Y-57804452D01*
X14884164Y-57691495D01*
X14987279Y-57489122D01*
X15057469Y-57273103D01*
X15093000Y-57048772D01*
X15093000Y-56821627D01*
X15057469Y-56597296D01*
X14987279Y-56381277D01*
X14884167Y-56178910D01*
X14884163Y-56178904D01*
X14802094Y-56065946D01*
X14802094Y-56065945D01*
X14266880Y-56601159D01*
X14192561Y-56489932D01*
X14095268Y-56392639D01*
X13984039Y-56318318D01*
X14519253Y-55783105D01*
X14519252Y-55783104D01*
X14406297Y-55701036D01*
X14203922Y-55597920D01*
X13987903Y-55527730D01*
X13763572Y-55492200D01*
X13536428Y-55492200D01*
X13312096Y-55527730D01*
X13096077Y-55597920D01*
X12893699Y-55701038D01*
X12780746Y-55783102D01*
X12780745Y-55783104D01*
X13315960Y-56318318D01*
X13204732Y-56392639D01*
X13107439Y-56489932D01*
X13033119Y-56601160D01*
X12497904Y-56065945D01*
X12497902Y-56065946D01*
X12415838Y-56178899D01*
X12312720Y-56381277D01*
X12242530Y-56597296D01*
X12207000Y-56821627D01*
X4050500Y-56821627D01*
X4050500Y-51091618D01*
X15636000Y-51091618D01*
X15636000Y-51278781D01*
X15665277Y-51463626D01*
X15723108Y-51641615D01*
X15808076Y-51808372D01*
X15854747Y-51872608D01*
X15854748Y-51872609D01*
X16397804Y-51329552D01*
X16405667Y-51358894D01*
X16464910Y-51461506D01*
X16548694Y-51545290D01*
X16651306Y-51604533D01*
X16680646Y-51612394D01*
X16137589Y-52155451D01*
X16201827Y-52202123D01*
X16368584Y-52287091D01*
X16546573Y-52344922D01*
X16731419Y-52374200D01*
X16918581Y-52374200D01*
X17103426Y-52344922D01*
X17281415Y-52287091D01*
X17448172Y-52202123D01*
X17512409Y-52155451D01*
X16969353Y-51612394D01*
X16998694Y-51604533D01*
X17101306Y-51545290D01*
X17185090Y-51461506D01*
X17244333Y-51358894D01*
X17252194Y-51329553D01*
X17795250Y-51872609D01*
X17795251Y-51872608D01*
X17841923Y-51808372D01*
X17926891Y-51641615D01*
X17984722Y-51463626D01*
X18014000Y-51278781D01*
X18014000Y-51111418D01*
X21986000Y-51111418D01*
X21986000Y-51298581D01*
X22015277Y-51483426D01*
X22073108Y-51661415D01*
X22158076Y-51828172D01*
X22204747Y-51892408D01*
X22204748Y-51892409D01*
X22747804Y-51349352D01*
X22755667Y-51378694D01*
X22814910Y-51481306D01*
X22898694Y-51565090D01*
X23001306Y-51624333D01*
X23030646Y-51632194D01*
X22487589Y-52175251D01*
X22551827Y-52221923D01*
X22718584Y-52306891D01*
X22896573Y-52364722D01*
X23081419Y-52394000D01*
X23268581Y-52394000D01*
X23453426Y-52364722D01*
X23631415Y-52306891D01*
X23798172Y-52221923D01*
X23862408Y-52175251D01*
X23862409Y-52175250D01*
X23319353Y-51632194D01*
X23348694Y-51624333D01*
X23451306Y-51565090D01*
X23535090Y-51481306D01*
X23594333Y-51378694D01*
X23602194Y-51349353D01*
X24145250Y-51892409D01*
X24145251Y-51892408D01*
X24191923Y-51828172D01*
X24276891Y-51661415D01*
X24334722Y-51483426D01*
X24364000Y-51298581D01*
X24364000Y-51111418D01*
X24334722Y-50926573D01*
X24276891Y-50748584D01*
X24191923Y-50581827D01*
X24145251Y-50517590D01*
X24145251Y-50517589D01*
X23602194Y-51060646D01*
X23594333Y-51031306D01*
X23535090Y-50928694D01*
X23451306Y-50844910D01*
X23348694Y-50785667D01*
X23319352Y-50777804D01*
X23862409Y-50234748D01*
X23862408Y-50234747D01*
X23798172Y-50188076D01*
X23631415Y-50103108D01*
X23453426Y-50045277D01*
X23268581Y-50016000D01*
X23081419Y-50016000D01*
X22896573Y-50045277D01*
X22718584Y-50103108D01*
X22551831Y-50188074D01*
X22487590Y-50234747D01*
X23030647Y-50777804D01*
X23001306Y-50785667D01*
X22898694Y-50844910D01*
X22814910Y-50928694D01*
X22755667Y-51031306D01*
X22747804Y-51060647D01*
X22204747Y-50517590D01*
X22158074Y-50581831D01*
X22073108Y-50748584D01*
X22015277Y-50926573D01*
X21986000Y-51111418D01*
X18014000Y-51111418D01*
X18014000Y-51091618D01*
X17984722Y-50906773D01*
X17926891Y-50728784D01*
X17841923Y-50562027D01*
X17795251Y-50497790D01*
X17795251Y-50497789D01*
X17252194Y-51040846D01*
X17244333Y-51011506D01*
X17185090Y-50908894D01*
X17101306Y-50825110D01*
X16998694Y-50765867D01*
X16969352Y-50758004D01*
X17512409Y-50214947D01*
X17448172Y-50168276D01*
X17281415Y-50083308D01*
X17103426Y-50025477D01*
X16918581Y-49996200D01*
X16731419Y-49996200D01*
X16546573Y-50025477D01*
X16368584Y-50083308D01*
X16201831Y-50168274D01*
X16137590Y-50214947D01*
X16680647Y-50758004D01*
X16651306Y-50765867D01*
X16548694Y-50825110D01*
X16464910Y-50908894D01*
X16405667Y-51011506D01*
X16397804Y-51040847D01*
X15854747Y-50497790D01*
X15808074Y-50562031D01*
X15723108Y-50728784D01*
X15665277Y-50906773D01*
X15636000Y-51091618D01*
X4050500Y-51091618D01*
X4050500Y-11779387D01*
X4070185Y-11712348D01*
X4086819Y-11691706D01*
X4191706Y-11586819D01*
X4253029Y-11553334D01*
X4279387Y-11550500D01*
X13220613Y-11550500D01*
X13287652Y-11570185D01*
X13308294Y-11586819D01*
X13953181Y-12231706D01*
X13986666Y-12293029D01*
X13989500Y-12319387D01*
X13989500Y-14857152D01*
X13969815Y-14924191D01*
X13921800Y-14967634D01*
X13910807Y-14973235D01*
X13910804Y-14973237D01*
X13819076Y-15039882D01*
X13757927Y-15084310D01*
X13757925Y-15084312D01*
X13757924Y-15084312D01*
X13624312Y-15217924D01*
X13624312Y-15217925D01*
X13624310Y-15217927D01*
X13576610Y-15283579D01*
X13513240Y-15370800D01*
X13427454Y-15539163D01*
X13391930Y-15648495D01*
X13352492Y-15706170D01*
X13288133Y-15733368D01*
X13219287Y-15721453D01*
X13167811Y-15674208D01*
X13149999Y-15610176D01*
X13149999Y-15105214D01*
X13149997Y-15105191D01*
X13147091Y-15080130D01*
X13147090Y-15080126D01*
X13101788Y-14977525D01*
X13101785Y-14977520D01*
X13022479Y-14898214D01*
X13022474Y-14898211D01*
X12919876Y-14852910D01*
X12894794Y-14850000D01*
X12200000Y-14850000D01*
X12200000Y-15538120D01*
X12192993Y-15534075D01*
X12065826Y-15500000D01*
X11934174Y-15500000D01*
X11807007Y-15534075D01*
X11800000Y-15538120D01*
X11800000Y-14850000D01*
X11105214Y-14850000D01*
X11105191Y-14850002D01*
X11080130Y-14852908D01*
X11080126Y-14852909D01*
X10977525Y-14898211D01*
X10977520Y-14898214D01*
X10898214Y-14977520D01*
X10898211Y-14977525D01*
X10852910Y-15080122D01*
X10852910Y-15080124D01*
X10850000Y-15105205D01*
X10850000Y-15800000D01*
X11538120Y-15800000D01*
X11534075Y-15807007D01*
X11500000Y-15934174D01*
X11500000Y-16065826D01*
X11534075Y-16192993D01*
X11538120Y-16200000D01*
X10850001Y-16200000D01*
X10850001Y-16894785D01*
X10850002Y-16894808D01*
X10852908Y-16919869D01*
X10852909Y-16919873D01*
X10898211Y-17022474D01*
X10898214Y-17022479D01*
X10977520Y-17101785D01*
X10977525Y-17101788D01*
X11080123Y-17147089D01*
X11105206Y-17149999D01*
X11610174Y-17149999D01*
X11677213Y-17169683D01*
X11722968Y-17222487D01*
X11732912Y-17291646D01*
X11703887Y-17355202D01*
X11648494Y-17391929D01*
X11539167Y-17427452D01*
X11370800Y-17513240D01*
X11283579Y-17576610D01*
X11217927Y-17624310D01*
X11217925Y-17624312D01*
X11217924Y-17624312D01*
X11084312Y-17757924D01*
X11084312Y-17757925D01*
X11084310Y-17757927D01*
X11036610Y-17823579D01*
X10973240Y-17910800D01*
X10887454Y-18079163D01*
X10829059Y-18258881D01*
X10799500Y-18445513D01*
X10799500Y-18634486D01*
X10829059Y-18821118D01*
X10887454Y-19000836D01*
X10973240Y-19169199D01*
X11084310Y-19322073D01*
X11217927Y-19455690D01*
X11370801Y-19566760D01*
X11450347Y-19607290D01*
X11539163Y-19652545D01*
X11539165Y-19652545D01*
X11539168Y-19652547D01*
X11628734Y-19681649D01*
X11660803Y-19692069D01*
X11718478Y-19731507D01*
X11745676Y-19795866D01*
X11733761Y-19864712D01*
X11686516Y-19916188D01*
X11660803Y-19927931D01*
X11539163Y-19967454D01*
X11370800Y-20053240D01*
X11283579Y-20116610D01*
X11217927Y-20164310D01*
X11217925Y-20164312D01*
X11217924Y-20164312D01*
X11084312Y-20297924D01*
X11084312Y-20297925D01*
X11084310Y-20297927D01*
X11011322Y-20398386D01*
X10973240Y-20450801D01*
X10967637Y-20461797D01*
X10919661Y-20512592D01*
X10857153Y-20529500D01*
X9319295Y-20529500D01*
X9257295Y-20512887D01*
X9212487Y-20487017D01*
X9212486Y-20487016D01*
X9177482Y-20477637D01*
X9072475Y-20449500D01*
X8927525Y-20449500D01*
X8822517Y-20477637D01*
X8787514Y-20487016D01*
X8661986Y-20559489D01*
X8661983Y-20559491D01*
X8559491Y-20661983D01*
X8559489Y-20661986D01*
X8487016Y-20787514D01*
X8487016Y-20787515D01*
X8449500Y-20927525D01*
X8449500Y-28927525D01*
X8449500Y-28927526D01*
X8449500Y-29072474D01*
X8487016Y-29212485D01*
X8559490Y-29338015D01*
X9661986Y-30440510D01*
X9741292Y-30486297D01*
X9741293Y-30486298D01*
X9787509Y-30512981D01*
X9787510Y-30512982D01*
X9787512Y-30512982D01*
X9787515Y-30512984D01*
X9927525Y-30550500D01*
X9927526Y-30550500D01*
X9927528Y-30550500D01*
X40072472Y-30550500D01*
X40072474Y-30550500D01*
X40072475Y-30550500D01*
X40212485Y-30512984D01*
X40338015Y-30440510D01*
X40991705Y-29786818D01*
X41053028Y-29753334D01*
X41067920Y-29751732D01*
X41067858Y-29751097D01*
X41073920Y-29750500D01*
X41171462Y-29731096D01*
X41218913Y-29721658D01*
X41355495Y-29665084D01*
X41478416Y-29582951D01*
X41582951Y-29478416D01*
X41665084Y-29355495D01*
X41721658Y-29218913D01*
X41750500Y-29073918D01*
X41750500Y-28926082D01*
X41750500Y-28926079D01*
X41749903Y-28920017D01*
X41752550Y-28919756D01*
X41757743Y-28861641D01*
X41800599Y-28806458D01*
X41866486Y-28783205D01*
X41934485Y-28799264D01*
X41960820Y-28819345D01*
X45538909Y-32397434D01*
X45572394Y-32458757D01*
X45567410Y-32528449D01*
X45525538Y-32584382D01*
X45460074Y-32608799D01*
X45431830Y-32607588D01*
X45254486Y-32579500D01*
X45254481Y-32579500D01*
X45065519Y-32579500D01*
X45065514Y-32579500D01*
X44878881Y-32609059D01*
X44699163Y-32667454D01*
X44530800Y-32753240D01*
X44443579Y-32816610D01*
X44377927Y-32864310D01*
X44377925Y-32864312D01*
X44377924Y-32864312D01*
X44244312Y-32997924D01*
X44244312Y-32997925D01*
X44244310Y-32997927D01*
X44196610Y-33063579D01*
X44133240Y-33150800D01*
X44047454Y-33319163D01*
X44007931Y-33440803D01*
X43968493Y-33498478D01*
X43904134Y-33525676D01*
X43835288Y-33513761D01*
X43783812Y-33466516D01*
X43772069Y-33440803D01*
X43744248Y-33355181D01*
X43732547Y-33319168D01*
X43732545Y-33319165D01*
X43732545Y-33319163D01*
X43676829Y-33209815D01*
X43646760Y-33150801D01*
X43535690Y-32997927D01*
X43402073Y-32864310D01*
X43249199Y-32753240D01*
X43080836Y-32667454D01*
X42901118Y-32609059D01*
X42714486Y-32579500D01*
X42714481Y-32579500D01*
X42525519Y-32579500D01*
X42525514Y-32579500D01*
X42338881Y-32609059D01*
X42159163Y-32667454D01*
X41990800Y-32753240D01*
X41903579Y-32816610D01*
X41837927Y-32864310D01*
X41837925Y-32864312D01*
X41837924Y-32864312D01*
X41704312Y-32997924D01*
X41704312Y-32997925D01*
X41704310Y-32997927D01*
X41656610Y-33063579D01*
X41593240Y-33150800D01*
X41507454Y-33319163D01*
X41467931Y-33440803D01*
X41428493Y-33498478D01*
X41364134Y-33525676D01*
X41295288Y-33513761D01*
X41243812Y-33466516D01*
X41232069Y-33440803D01*
X41204248Y-33355181D01*
X41192547Y-33319168D01*
X41192545Y-33319165D01*
X41192545Y-33319163D01*
X41136829Y-33209815D01*
X41106760Y-33150801D01*
X40995690Y-32997927D01*
X40862073Y-32864310D01*
X40709199Y-32753240D01*
X40540836Y-32667454D01*
X40361118Y-32609059D01*
X40174486Y-32579500D01*
X40174481Y-32579500D01*
X39985519Y-32579500D01*
X39985514Y-32579500D01*
X39798881Y-32609059D01*
X39619163Y-32667454D01*
X39450800Y-32753240D01*
X39363579Y-32816610D01*
X39297927Y-32864310D01*
X39297925Y-32864312D01*
X39297924Y-32864312D01*
X39164312Y-32997924D01*
X39164312Y-32997925D01*
X39164310Y-32997927D01*
X39116610Y-33063579D01*
X39053240Y-33150800D01*
X38967454Y-33319163D01*
X38927931Y-33440803D01*
X38888493Y-33498478D01*
X38824134Y-33525676D01*
X38755288Y-33513761D01*
X38703812Y-33466516D01*
X38692069Y-33440803D01*
X38664248Y-33355181D01*
X38652547Y-33319168D01*
X38652545Y-33319165D01*
X38652545Y-33319163D01*
X38596829Y-33209815D01*
X38566760Y-33150801D01*
X38455690Y-32997927D01*
X38322073Y-32864310D01*
X38169199Y-32753240D01*
X38000836Y-32667454D01*
X37821118Y-32609059D01*
X37634486Y-32579500D01*
X37634481Y-32579500D01*
X37445519Y-32579500D01*
X37445514Y-32579500D01*
X37258881Y-32609059D01*
X37079163Y-32667454D01*
X36910800Y-32753240D01*
X36823579Y-32816610D01*
X36757927Y-32864310D01*
X36757925Y-32864312D01*
X36757924Y-32864312D01*
X36624312Y-32997924D01*
X36624312Y-32997925D01*
X36624310Y-32997927D01*
X36576610Y-33063579D01*
X36513240Y-33150800D01*
X36434985Y-33304385D01*
X36387010Y-33355181D01*
X36319189Y-33371976D01*
X36253054Y-33349439D01*
X36209603Y-33294723D01*
X36200500Y-33248090D01*
X36200500Y-32896739D01*
X36190573Y-32828608D01*
X36164277Y-32774818D01*
X36139198Y-32723517D01*
X36139196Y-32723515D01*
X36139196Y-32723514D01*
X36056485Y-32640803D01*
X35951391Y-32589426D01*
X35883261Y-32579500D01*
X35883260Y-32579500D01*
X34116740Y-32579500D01*
X34116739Y-32579500D01*
X34048608Y-32589426D01*
X33943514Y-32640803D01*
X33860803Y-32723514D01*
X33809426Y-32828608D01*
X33799500Y-32896739D01*
X33799500Y-34150613D01*
X33779815Y-34217652D01*
X33763181Y-34238294D01*
X29559491Y-38441983D01*
X29559489Y-38441985D01*
X29527624Y-38497179D01*
X29514155Y-38520509D01*
X29487016Y-38567515D01*
X29449500Y-38707525D01*
X29449500Y-38707527D01*
X29449500Y-49050812D01*
X29429815Y-49117851D01*
X29413181Y-49138493D01*
X23634802Y-54916871D01*
X23573479Y-54950356D01*
X23508805Y-54947122D01*
X23475249Y-54936219D01*
X23282556Y-54905700D01*
X23282551Y-54905700D01*
X23087449Y-54905700D01*
X23087444Y-54905700D01*
X22894749Y-54936219D01*
X22709192Y-54996511D01*
X22535359Y-55085084D01*
X22445305Y-55150512D01*
X22377520Y-55199762D01*
X22377518Y-55199764D01*
X22377517Y-55199764D01*
X22239564Y-55337717D01*
X22239564Y-55337718D01*
X22239562Y-55337720D01*
X22203429Y-55387453D01*
X22124884Y-55495559D01*
X22119059Y-55506993D01*
X22071085Y-55557790D01*
X22008573Y-55574700D01*
X18011618Y-55574700D01*
X17944579Y-55555015D01*
X17901133Y-55506995D01*
X17893594Y-55492200D01*
X17885116Y-55475560D01*
X17770438Y-55317720D01*
X17632480Y-55179762D01*
X17474640Y-55065084D01*
X17300807Y-54976511D01*
X17115250Y-54916219D01*
X16922556Y-54885700D01*
X16922551Y-54885700D01*
X16727449Y-54885700D01*
X16727444Y-54885700D01*
X16534749Y-54916219D01*
X16349192Y-54976511D01*
X16175359Y-55065084D01*
X16147832Y-55085084D01*
X16017520Y-55179762D01*
X16017518Y-55179764D01*
X16017517Y-55179764D01*
X15879564Y-55317717D01*
X15879564Y-55317718D01*
X15879562Y-55317720D01*
X15830312Y-55385505D01*
X15764884Y-55475559D01*
X15676311Y-55649392D01*
X15616019Y-55834949D01*
X15585500Y-56027643D01*
X15585500Y-56222756D01*
X15616019Y-56415450D01*
X15676311Y-56601007D01*
X15761160Y-56767532D01*
X15764884Y-56774840D01*
X15879562Y-56932680D01*
X16017520Y-57070638D01*
X16175360Y-57185316D01*
X16239589Y-57218042D01*
X16349192Y-57273888D01*
X16349194Y-57273888D01*
X16349197Y-57273890D01*
X16448657Y-57306206D01*
X16534749Y-57334180D01*
X16727444Y-57364700D01*
X16727449Y-57364700D01*
X16922556Y-57364700D01*
X17115250Y-57334180D01*
X17300803Y-57273890D01*
X17474640Y-57185316D01*
X17632480Y-57070638D01*
X17770438Y-56932680D01*
X17885116Y-56774840D01*
X17901133Y-56743405D01*
X17949108Y-56692609D01*
X18011618Y-56675700D01*
X21988192Y-56675700D01*
X22055231Y-56695385D01*
X22098677Y-56743406D01*
X22124882Y-56794838D01*
X22135481Y-56809426D01*
X22239562Y-56952680D01*
X22377520Y-57090638D01*
X22535360Y-57205316D01*
X22617491Y-57247163D01*
X22709192Y-57293888D01*
X22709194Y-57293888D01*
X22709197Y-57293890D01*
X22750746Y-57307390D01*
X22894749Y-57354180D01*
X23087444Y-57384700D01*
X23087449Y-57384700D01*
X23282556Y-57384700D01*
X23475250Y-57354180D01*
X23536803Y-57334180D01*
X23660803Y-57293890D01*
X23834640Y-57205316D01*
X23992480Y-57090638D01*
X24130438Y-56952680D01*
X24236698Y-56806427D01*
X24907000Y-56806427D01*
X24907000Y-57033572D01*
X24942530Y-57257903D01*
X25012720Y-57473922D01*
X25115836Y-57676297D01*
X25197904Y-57789252D01*
X25197905Y-57789253D01*
X25733118Y-57254039D01*
X25807439Y-57365268D01*
X25904732Y-57462561D01*
X26015959Y-57536880D01*
X25480745Y-58072094D01*
X25593704Y-58154163D01*
X25593710Y-58154167D01*
X25796077Y-58257279D01*
X26012096Y-58327469D01*
X26236428Y-58363000D01*
X26463572Y-58363000D01*
X26687903Y-58327469D01*
X26903922Y-58257279D01*
X27106295Y-58154164D01*
X27219252Y-58072094D01*
X27219253Y-58072094D01*
X26684039Y-57536881D01*
X26795268Y-57462561D01*
X26892561Y-57365268D01*
X26966881Y-57254039D01*
X27502094Y-57789253D01*
X27502094Y-57789252D01*
X27584164Y-57676295D01*
X27687279Y-57473922D01*
X27757468Y-57257904D01*
X27779827Y-57116739D01*
X40799500Y-57116739D01*
X40799500Y-58883260D01*
X40809426Y-58951391D01*
X40860803Y-59056485D01*
X40943514Y-59139196D01*
X40943515Y-59139196D01*
X40943517Y-59139198D01*
X41048607Y-59190573D01*
X41082673Y-59195536D01*
X41116739Y-59200500D01*
X41468090Y-59200500D01*
X41535129Y-59220185D01*
X41580884Y-59272989D01*
X41590828Y-59342147D01*
X41561803Y-59405703D01*
X41524385Y-59434985D01*
X41370800Y-59513240D01*
X41283579Y-59576610D01*
X41217927Y-59624310D01*
X41217925Y-59624312D01*
X41217924Y-59624312D01*
X41084312Y-59757924D01*
X41084312Y-59757925D01*
X41084310Y-59757927D01*
X41046894Y-59809426D01*
X40973240Y-59910800D01*
X40887454Y-60079163D01*
X40829059Y-60258881D01*
X40799500Y-60445513D01*
X40799500Y-60634486D01*
X40829059Y-60821118D01*
X40887454Y-61000836D01*
X40933144Y-61090506D01*
X40973240Y-61169199D01*
X41084310Y-61322073D01*
X41217927Y-61455690D01*
X41370801Y-61566760D01*
X41441396Y-61602730D01*
X41539163Y-61652545D01*
X41539165Y-61652545D01*
X41539168Y-61652547D01*
X41628734Y-61681649D01*
X41660803Y-61692069D01*
X41718478Y-61731507D01*
X41745676Y-61795866D01*
X41733761Y-61864712D01*
X41686516Y-61916188D01*
X41660803Y-61927931D01*
X41539163Y-61967454D01*
X41370800Y-62053240D01*
X41283579Y-62116610D01*
X41217927Y-62164310D01*
X41217925Y-62164312D01*
X41217924Y-62164312D01*
X41084312Y-62297924D01*
X41084312Y-62297925D01*
X41084310Y-62297927D01*
X41036610Y-62363579D01*
X40973240Y-62450800D01*
X40887454Y-62619163D01*
X40829059Y-62798881D01*
X40799500Y-62985513D01*
X40799500Y-63174486D01*
X40829059Y-63361118D01*
X40887454Y-63540836D01*
X40973240Y-63709199D01*
X41084310Y-63862073D01*
X41217927Y-63995690D01*
X41370801Y-64106760D01*
X41450347Y-64147290D01*
X41539163Y-64192545D01*
X41539165Y-64192545D01*
X41539168Y-64192547D01*
X41628734Y-64221649D01*
X41660803Y-64232069D01*
X41718478Y-64271507D01*
X41745676Y-64335866D01*
X41733761Y-64404712D01*
X41686516Y-64456188D01*
X41660803Y-64467931D01*
X41539163Y-64507454D01*
X41370800Y-64593240D01*
X41283579Y-64656610D01*
X41217927Y-64704310D01*
X41217925Y-64704312D01*
X41217924Y-64704312D01*
X41084312Y-64837924D01*
X41084312Y-64837925D01*
X41084310Y-64837927D01*
X41067690Y-64860803D01*
X40973240Y-64990800D01*
X40887454Y-65159163D01*
X40829059Y-65338881D01*
X40799500Y-65525513D01*
X40799500Y-65714486D01*
X40829059Y-65901118D01*
X40887454Y-66080836D01*
X40946106Y-66195946D01*
X40973240Y-66249199D01*
X41084310Y-66402073D01*
X41217927Y-66535690D01*
X41370801Y-66646760D01*
X41450347Y-66687290D01*
X41539163Y-66732545D01*
X41539165Y-66732545D01*
X41539168Y-66732547D01*
X41635497Y-66763846D01*
X41718881Y-66790940D01*
X41905514Y-66820500D01*
X41905519Y-66820500D01*
X42094486Y-66820500D01*
X42281118Y-66790940D01*
X42460832Y-66732547D01*
X42629199Y-66646760D01*
X42782073Y-66535690D01*
X42915690Y-66402073D01*
X43026760Y-66249199D01*
X43112547Y-66080832D01*
X43170940Y-65901118D01*
X43172299Y-65892539D01*
X43200500Y-65714486D01*
X43200500Y-65525513D01*
X43170940Y-65338881D01*
X43112545Y-65159163D01*
X43056214Y-65048608D01*
X43026760Y-64990801D01*
X42915690Y-64837927D01*
X42782073Y-64704310D01*
X42629199Y-64593240D01*
X42460836Y-64507454D01*
X42386472Y-64483291D01*
X42339195Y-64467930D01*
X42281521Y-64428493D01*
X42254323Y-64364134D01*
X42266238Y-64295288D01*
X42313482Y-64243812D01*
X42339194Y-64232069D01*
X42460832Y-64192547D01*
X42629199Y-64106760D01*
X42782073Y-63995690D01*
X42915690Y-63862073D01*
X43026760Y-63709199D01*
X43112547Y-63540832D01*
X43170940Y-63361118D01*
X43174599Y-63338015D01*
X43200500Y-63174486D01*
X43200500Y-62985513D01*
X43170940Y-62798881D01*
X43125806Y-62659976D01*
X43112547Y-62619168D01*
X43112545Y-62619165D01*
X43112545Y-62619163D01*
X43026759Y-62450800D01*
X42915690Y-62297927D01*
X42782073Y-62164310D01*
X42629199Y-62053240D01*
X42588220Y-62032360D01*
X42460836Y-61967454D01*
X42383509Y-61942329D01*
X42339195Y-61927930D01*
X42281521Y-61888493D01*
X42254323Y-61824134D01*
X42266238Y-61755288D01*
X42313482Y-61703812D01*
X42339194Y-61692069D01*
X42460832Y-61652547D01*
X42629199Y-61566760D01*
X42782073Y-61455690D01*
X42915690Y-61322073D01*
X43026760Y-61169199D01*
X43112547Y-61000832D01*
X43170940Y-60821118D01*
X43178051Y-60776220D01*
X43200500Y-60634486D01*
X43200500Y-60445513D01*
X43170940Y-60258881D01*
X43124755Y-60116740D01*
X43112547Y-60079168D01*
X43112545Y-60079165D01*
X43112545Y-60079163D01*
X43055718Y-59967634D01*
X43026760Y-59910801D01*
X42915690Y-59757927D01*
X42782073Y-59624310D01*
X42629199Y-59513240D01*
X42539480Y-59467526D01*
X42475615Y-59434985D01*
X42424819Y-59387010D01*
X42408024Y-59319189D01*
X42430561Y-59253054D01*
X42485277Y-59209603D01*
X42531910Y-59200500D01*
X42883261Y-59200500D01*
X42905971Y-59197191D01*
X42951393Y-59190573D01*
X43056483Y-59139198D01*
X43139198Y-59056483D01*
X43190573Y-58951393D01*
X43200500Y-58883260D01*
X43200500Y-57116740D01*
X43196696Y-57090635D01*
X43190573Y-57048608D01*
X43190573Y-57048607D01*
X43139198Y-56943517D01*
X43139196Y-56943515D01*
X43139196Y-56943514D01*
X43056485Y-56860803D01*
X42951391Y-56809426D01*
X42883261Y-56799500D01*
X42883260Y-56799500D01*
X41116740Y-56799500D01*
X41116739Y-56799500D01*
X41048608Y-56809426D01*
X40943514Y-56860803D01*
X40860803Y-56943514D01*
X40809426Y-57048608D01*
X40799500Y-57116739D01*
X27779827Y-57116739D01*
X27783610Y-57092855D01*
X27783610Y-57092854D01*
X27793000Y-57033571D01*
X27793000Y-56806427D01*
X27757469Y-56582096D01*
X27687279Y-56366077D01*
X27584167Y-56163710D01*
X27584163Y-56163704D01*
X27502094Y-56050746D01*
X27502094Y-56050745D01*
X26966880Y-56585959D01*
X26892561Y-56474732D01*
X26795268Y-56377439D01*
X26684039Y-56303118D01*
X27219253Y-55767905D01*
X27219252Y-55767904D01*
X27106297Y-55685836D01*
X26903922Y-55582720D01*
X26687903Y-55512530D01*
X26463572Y-55477000D01*
X26236428Y-55477000D01*
X26012096Y-55512530D01*
X25796077Y-55582720D01*
X25593699Y-55685838D01*
X25480746Y-55767902D01*
X25480745Y-55767904D01*
X26015960Y-56303118D01*
X25904732Y-56377439D01*
X25807439Y-56474732D01*
X25733119Y-56585960D01*
X25197904Y-56050745D01*
X25197902Y-56050746D01*
X25115838Y-56163699D01*
X25012720Y-56366077D01*
X24942530Y-56582096D01*
X24907000Y-56806427D01*
X24236698Y-56806427D01*
X24245116Y-56794840D01*
X24333690Y-56621003D01*
X24393980Y-56435450D01*
X24398721Y-56405519D01*
X24424500Y-56242756D01*
X24424500Y-56047643D01*
X24400682Y-55897265D01*
X24393980Y-55854950D01*
X24383076Y-55821394D01*
X24381082Y-55751555D01*
X24413325Y-55695398D01*
X30440510Y-49668215D01*
X30512984Y-49542685D01*
X30550500Y-49402675D01*
X30550500Y-44927525D01*
X30550500Y-39059387D01*
X30570185Y-38992348D01*
X30586819Y-38971706D01*
X34541706Y-35016819D01*
X34603029Y-34983334D01*
X34629387Y-34980500D01*
X35883261Y-34980500D01*
X35905971Y-34977191D01*
X35951393Y-34970573D01*
X36056483Y-34919198D01*
X36139198Y-34836483D01*
X36190573Y-34731393D01*
X36200500Y-34663260D01*
X36200500Y-34311909D01*
X36220185Y-34244870D01*
X36272989Y-34199115D01*
X36342147Y-34189171D01*
X36405703Y-34218196D01*
X36434984Y-34255613D01*
X36513240Y-34409199D01*
X36624310Y-34562073D01*
X36757927Y-34695690D01*
X36910801Y-34806760D01*
X36921792Y-34812360D01*
X36972589Y-34860332D01*
X36989500Y-34922846D01*
X36989500Y-41467526D01*
X36989500Y-41612474D01*
X37027016Y-41752485D01*
X37099490Y-41878015D01*
X47661985Y-52440510D01*
X47787515Y-52512984D01*
X47927525Y-52550500D01*
X47927526Y-52550500D01*
X48072474Y-52550500D01*
X64220613Y-52550500D01*
X64287652Y-52570185D01*
X64308294Y-52586819D01*
X82661985Y-70940510D01*
X82783213Y-71010500D01*
X82787515Y-71012984D01*
X82927525Y-71050500D01*
X82927526Y-71050500D01*
X83072474Y-71050500D01*
X86675500Y-71050500D01*
X86742539Y-71070185D01*
X86788294Y-71122989D01*
X86799500Y-71174500D01*
X86799500Y-71383260D01*
X86809426Y-71451391D01*
X86860803Y-71556485D01*
X86943514Y-71639196D01*
X86943515Y-71639196D01*
X86943517Y-71639198D01*
X87048607Y-71690573D01*
X87082673Y-71695536D01*
X87116739Y-71700500D01*
X87116740Y-71700500D01*
X88883261Y-71700500D01*
X88905971Y-71697191D01*
X88951393Y-71690573D01*
X89056483Y-71639198D01*
X89139198Y-71556483D01*
X89190573Y-71451393D01*
X89200500Y-71383260D01*
X89200500Y-71031909D01*
X89220185Y-70964870D01*
X89272989Y-70919115D01*
X89342147Y-70909171D01*
X89405703Y-70938196D01*
X89434984Y-70975613D01*
X89513240Y-71129199D01*
X89624310Y-71282073D01*
X89757927Y-71415690D01*
X89910801Y-71526760D01*
X89921792Y-71532360D01*
X89972589Y-71580332D01*
X89989500Y-71642846D01*
X89989500Y-74857152D01*
X89969815Y-74924191D01*
X89921800Y-74967634D01*
X89910807Y-74973235D01*
X89910804Y-74973237D01*
X89854777Y-75013944D01*
X89757927Y-75084310D01*
X89757925Y-75084312D01*
X89757924Y-75084312D01*
X89624312Y-75217924D01*
X89624312Y-75217925D01*
X89624310Y-75217927D01*
X89576610Y-75283579D01*
X89513240Y-75370800D01*
X89427454Y-75539163D01*
X89391930Y-75648495D01*
X89352492Y-75706170D01*
X89288133Y-75733368D01*
X89219287Y-75721453D01*
X89167811Y-75674208D01*
X89149999Y-75610176D01*
X89149999Y-75105214D01*
X89149997Y-75105191D01*
X89147091Y-75080130D01*
X89147090Y-75080126D01*
X89101788Y-74977525D01*
X89101785Y-74977520D01*
X89022479Y-74898214D01*
X89022474Y-74898211D01*
X88919876Y-74852910D01*
X88894794Y-74850000D01*
X88200000Y-74850000D01*
X88200000Y-75538120D01*
X88192993Y-75534075D01*
X88065826Y-75500000D01*
X87934174Y-75500000D01*
X87807007Y-75534075D01*
X87800000Y-75538120D01*
X87800000Y-74850000D01*
X87105214Y-74850000D01*
X87105191Y-74850002D01*
X87080130Y-74852908D01*
X87080126Y-74852909D01*
X86977525Y-74898211D01*
X86977520Y-74898214D01*
X86898214Y-74977520D01*
X86898211Y-74977525D01*
X86852910Y-75080122D01*
X86852910Y-75080124D01*
X86850000Y-75105205D01*
X86850000Y-75800000D01*
X87538120Y-75800000D01*
X87534075Y-75807007D01*
X87500000Y-75934174D01*
X87500000Y-76065826D01*
X87534075Y-76192993D01*
X87538120Y-76200000D01*
X86850001Y-76200000D01*
X86850001Y-76894785D01*
X86850002Y-76894808D01*
X86852908Y-76919869D01*
X86852909Y-76919873D01*
X86898211Y-77022474D01*
X86898214Y-77022479D01*
X86977520Y-77101785D01*
X86977525Y-77101788D01*
X87080123Y-77147089D01*
X87105206Y-77149999D01*
X87799999Y-77149999D01*
X87800000Y-77149998D01*
X87800000Y-76461879D01*
X87807007Y-76465925D01*
X87934174Y-76500000D01*
X88065826Y-76500000D01*
X88192993Y-76465925D01*
X88200000Y-76461879D01*
X88200000Y-77149999D01*
X88894786Y-77149999D01*
X88894808Y-77149997D01*
X88919869Y-77147091D01*
X88919873Y-77147090D01*
X89022474Y-77101788D01*
X89022479Y-77101785D01*
X89101785Y-77022479D01*
X89101788Y-77022474D01*
X89147089Y-76919877D01*
X89147089Y-76919875D01*
X89149999Y-76894794D01*
X89149999Y-76389825D01*
X89169683Y-76322786D01*
X89222487Y-76277031D01*
X89291646Y-76267087D01*
X89355202Y-76296112D01*
X89391930Y-76351506D01*
X89427454Y-76460835D01*
X89447410Y-76500000D01*
X89513240Y-76629199D01*
X89624310Y-76782073D01*
X89757927Y-76915690D01*
X89910801Y-77026760D01*
X89990347Y-77067290D01*
X90079163Y-77112545D01*
X90079165Y-77112545D01*
X90079168Y-77112547D01*
X90175497Y-77143846D01*
X90258881Y-77170940D01*
X90445514Y-77200500D01*
X90445519Y-77200500D01*
X90634486Y-77200500D01*
X90821118Y-77170940D01*
X90885570Y-77149998D01*
X91000832Y-77112547D01*
X91169199Y-77026760D01*
X91322073Y-76915690D01*
X91455690Y-76782073D01*
X91566760Y-76629199D01*
X91652547Y-76460832D01*
X91710940Y-76281118D01*
X91723788Y-76200000D01*
X91740500Y-76094486D01*
X91740500Y-75905513D01*
X91710940Y-75718881D01*
X91652545Y-75539163D01*
X91566759Y-75370800D01*
X91455690Y-75217927D01*
X91322073Y-75084310D01*
X91169199Y-74973240D01*
X91169195Y-74973237D01*
X91169192Y-74973235D01*
X91158200Y-74967634D01*
X91107406Y-74919657D01*
X91090500Y-74857152D01*
X91090500Y-71642846D01*
X91110185Y-71575807D01*
X91158208Y-71532360D01*
X91169199Y-71526760D01*
X91322073Y-71415690D01*
X91455690Y-71282073D01*
X91566760Y-71129199D01*
X91652547Y-70960832D01*
X91710940Y-70781118D01*
X91713092Y-70767532D01*
X91743021Y-70704397D01*
X91802332Y-70667465D01*
X91872194Y-70668463D01*
X91930427Y-70707072D01*
X91956731Y-70764668D01*
X91957181Y-70764561D01*
X91957733Y-70766863D01*
X91958039Y-70767532D01*
X91958318Y-70769298D01*
X92014251Y-70941444D01*
X92014252Y-70941447D01*
X92096434Y-71102734D01*
X92137667Y-71159487D01*
X92137668Y-71159487D01*
X92611980Y-70685176D01*
X92614075Y-70692993D01*
X92679901Y-70807007D01*
X92772993Y-70900099D01*
X92887007Y-70965925D01*
X92894822Y-70968019D01*
X92420510Y-71442330D01*
X92420511Y-71442331D01*
X92477265Y-71483565D01*
X92638552Y-71565747D01*
X92638555Y-71565748D01*
X92810706Y-71621682D01*
X92989494Y-71650000D01*
X93170506Y-71650000D01*
X93349293Y-71621682D01*
X93521444Y-71565748D01*
X93521447Y-71565747D01*
X93682730Y-71483568D01*
X93739487Y-71442330D01*
X93739488Y-71442329D01*
X93265178Y-70968019D01*
X93272993Y-70965925D01*
X93387007Y-70900099D01*
X93480099Y-70807007D01*
X93545925Y-70692993D01*
X93548019Y-70685177D01*
X94022329Y-71159488D01*
X94022330Y-71159487D01*
X94063568Y-71102730D01*
X94145747Y-70941447D01*
X94145748Y-70941444D01*
X94201682Y-70769293D01*
X94230000Y-70590506D01*
X94230000Y-70409493D01*
X94201682Y-70230706D01*
X94145748Y-70058555D01*
X94145747Y-70058552D01*
X94063565Y-69897265D01*
X94022331Y-69840511D01*
X94022330Y-69840510D01*
X93548018Y-70314821D01*
X93545925Y-70307007D01*
X93480099Y-70192993D01*
X93387007Y-70099901D01*
X93272993Y-70034075D01*
X93265176Y-70031980D01*
X93739487Y-69557668D01*
X93739487Y-69557667D01*
X93682734Y-69516434D01*
X93521447Y-69434252D01*
X93521444Y-69434251D01*
X93349293Y-69378317D01*
X93170506Y-69350000D01*
X92989494Y-69350000D01*
X92810706Y-69378317D01*
X92638555Y-69434251D01*
X92638552Y-69434252D01*
X92477270Y-69516431D01*
X92477268Y-69516432D01*
X92420511Y-69557667D01*
X92420511Y-69557668D01*
X92894823Y-70031980D01*
X92887007Y-70034075D01*
X92772993Y-70099901D01*
X92679901Y-70192993D01*
X92614075Y-70307007D01*
X92611980Y-70314823D01*
X92137668Y-69840511D01*
X92137667Y-69840511D01*
X92096432Y-69897268D01*
X92096431Y-69897270D01*
X92014252Y-70058552D01*
X92014251Y-70058555D01*
X91958317Y-70230705D01*
X91958038Y-70232470D01*
X91957745Y-70233086D01*
X91957181Y-70235439D01*
X91956686Y-70235320D01*
X91928108Y-70295604D01*
X91868796Y-70332534D01*
X91798933Y-70331536D01*
X91740701Y-70292925D01*
X91713092Y-70232468D01*
X91710940Y-70218881D01*
X91669705Y-70091976D01*
X91652547Y-70039168D01*
X91652545Y-70039165D01*
X91652545Y-70039163D01*
X91596802Y-69929762D01*
X91566760Y-69870801D01*
X91455690Y-69717927D01*
X91322073Y-69584310D01*
X91228646Y-69516431D01*
X91169194Y-69473236D01*
X91118205Y-69447256D01*
X91067409Y-69399282D01*
X91050500Y-69336772D01*
X91050500Y-67142846D01*
X91070185Y-67075807D01*
X91118208Y-67032360D01*
X91129199Y-67026760D01*
X91282073Y-66915690D01*
X91415690Y-66782073D01*
X91526760Y-66629199D01*
X91612547Y-66460832D01*
X91670940Y-66281118D01*
X91673092Y-66267532D01*
X91703021Y-66204397D01*
X91762332Y-66167465D01*
X91832194Y-66168463D01*
X91890427Y-66207072D01*
X91916731Y-66264668D01*
X91917181Y-66264561D01*
X91917733Y-66266863D01*
X91918039Y-66267532D01*
X91918318Y-66269298D01*
X91974251Y-66441444D01*
X91974252Y-66441447D01*
X92056434Y-66602734D01*
X92097667Y-66659487D01*
X92097668Y-66659487D01*
X92571980Y-66185176D01*
X92574075Y-66192993D01*
X92639901Y-66307007D01*
X92732993Y-66400099D01*
X92847007Y-66465925D01*
X92854822Y-66468019D01*
X92380510Y-66942330D01*
X92380511Y-66942331D01*
X92437265Y-66983565D01*
X92598552Y-67065747D01*
X92598555Y-67065748D01*
X92770706Y-67121682D01*
X92949494Y-67150000D01*
X93130506Y-67150000D01*
X93309293Y-67121682D01*
X93481444Y-67065748D01*
X93481447Y-67065747D01*
X93642730Y-66983568D01*
X93699487Y-66942330D01*
X93699488Y-66942329D01*
X93225178Y-66468019D01*
X93232993Y-66465925D01*
X93347007Y-66400099D01*
X93440099Y-66307007D01*
X93505925Y-66192993D01*
X93508019Y-66185177D01*
X93982329Y-66659488D01*
X93982330Y-66659487D01*
X94023568Y-66602730D01*
X94105747Y-66441447D01*
X94105748Y-66441444D01*
X94161682Y-66269293D01*
X94190000Y-66090506D01*
X94190000Y-65909493D01*
X94161682Y-65730706D01*
X94105748Y-65558555D01*
X94105747Y-65558552D01*
X94023565Y-65397265D01*
X93982331Y-65340511D01*
X93982330Y-65340510D01*
X93508018Y-65814821D01*
X93505925Y-65807007D01*
X93440099Y-65692993D01*
X93347007Y-65599901D01*
X93232993Y-65534075D01*
X93225176Y-65531980D01*
X93699487Y-65057668D01*
X93699487Y-65057667D01*
X93642734Y-65016434D01*
X93481447Y-64934252D01*
X93481444Y-64934251D01*
X93309293Y-64878317D01*
X93130506Y-64850000D01*
X92949494Y-64850000D01*
X92770706Y-64878317D01*
X92598555Y-64934251D01*
X92598552Y-64934252D01*
X92437270Y-65016431D01*
X92437268Y-65016432D01*
X92380511Y-65057667D01*
X92380511Y-65057668D01*
X92854823Y-65531980D01*
X92847007Y-65534075D01*
X92732993Y-65599901D01*
X92639901Y-65692993D01*
X92574075Y-65807007D01*
X92571980Y-65814823D01*
X92097668Y-65340511D01*
X92097667Y-65340511D01*
X92056432Y-65397268D01*
X92056431Y-65397270D01*
X91974252Y-65558552D01*
X91974251Y-65558555D01*
X91918317Y-65730705D01*
X91918038Y-65732470D01*
X91917745Y-65733086D01*
X91917181Y-65735439D01*
X91916686Y-65735320D01*
X91888108Y-65795604D01*
X91828796Y-65832534D01*
X91758933Y-65831536D01*
X91700701Y-65792925D01*
X91673092Y-65732468D01*
X91670940Y-65718881D01*
X91624248Y-65575181D01*
X91612547Y-65539168D01*
X91612545Y-65539165D01*
X91612545Y-65539163D01*
X91567290Y-65450347D01*
X91526760Y-65370801D01*
X91415690Y-65217927D01*
X91282073Y-65084310D01*
X91129199Y-64973240D01*
X91129195Y-64973237D01*
X91129192Y-64973235D01*
X91118200Y-64967634D01*
X91067406Y-64919657D01*
X91050500Y-64857152D01*
X91050500Y-62142846D01*
X91070185Y-62075807D01*
X91118208Y-62032360D01*
X91129199Y-62026760D01*
X91282073Y-61915690D01*
X91415690Y-61782073D01*
X91526760Y-61629199D01*
X91612547Y-61460832D01*
X91670940Y-61281118D01*
X91673092Y-61267532D01*
X91703021Y-61204397D01*
X91762332Y-61167465D01*
X91832194Y-61168463D01*
X91890427Y-61207072D01*
X91916731Y-61264668D01*
X91917181Y-61264561D01*
X91917733Y-61266863D01*
X91918039Y-61267532D01*
X91918318Y-61269298D01*
X91974251Y-61441444D01*
X91974252Y-61441447D01*
X92056434Y-61602734D01*
X92097667Y-61659487D01*
X92097668Y-61659487D01*
X92571980Y-61185176D01*
X92574075Y-61192993D01*
X92639901Y-61307007D01*
X92732993Y-61400099D01*
X92847007Y-61465925D01*
X92854822Y-61468019D01*
X92380510Y-61942330D01*
X92380511Y-61942331D01*
X92437265Y-61983565D01*
X92598552Y-62065747D01*
X92598555Y-62065748D01*
X92770706Y-62121682D01*
X92949494Y-62150000D01*
X93130506Y-62150000D01*
X93309293Y-62121682D01*
X93481444Y-62065748D01*
X93481447Y-62065747D01*
X93642730Y-61983568D01*
X93699487Y-61942330D01*
X93699488Y-61942329D01*
X93225178Y-61468019D01*
X93232993Y-61465925D01*
X93347007Y-61400099D01*
X93440099Y-61307007D01*
X93505925Y-61192993D01*
X93508019Y-61185177D01*
X93982329Y-61659488D01*
X93982330Y-61659487D01*
X94023568Y-61602730D01*
X94105747Y-61441447D01*
X94105748Y-61441444D01*
X94161682Y-61269293D01*
X94190000Y-61090506D01*
X94190000Y-60909493D01*
X94161682Y-60730706D01*
X94105748Y-60558555D01*
X94105747Y-60558552D01*
X94023565Y-60397265D01*
X93982331Y-60340511D01*
X93982330Y-60340510D01*
X93508018Y-60814821D01*
X93505925Y-60807007D01*
X93440099Y-60692993D01*
X93347007Y-60599901D01*
X93232993Y-60534075D01*
X93225176Y-60531980D01*
X93699487Y-60057668D01*
X93699487Y-60057667D01*
X93642734Y-60016434D01*
X93481447Y-59934252D01*
X93481444Y-59934251D01*
X93309293Y-59878317D01*
X93130506Y-59850000D01*
X92949494Y-59850000D01*
X92770706Y-59878317D01*
X92598555Y-59934251D01*
X92598552Y-59934252D01*
X92437270Y-60016431D01*
X92437268Y-60016432D01*
X92380511Y-60057667D01*
X92380511Y-60057668D01*
X92854823Y-60531980D01*
X92847007Y-60534075D01*
X92732993Y-60599901D01*
X92639901Y-60692993D01*
X92574075Y-60807007D01*
X92571980Y-60814823D01*
X92097668Y-60340511D01*
X92097667Y-60340511D01*
X92056432Y-60397268D01*
X92056431Y-60397270D01*
X91974252Y-60558552D01*
X91974251Y-60558555D01*
X91918317Y-60730705D01*
X91918038Y-60732470D01*
X91917745Y-60733086D01*
X91917181Y-60735439D01*
X91916686Y-60735320D01*
X91888108Y-60795604D01*
X91828796Y-60832534D01*
X91758933Y-60831536D01*
X91700701Y-60792925D01*
X91673092Y-60732468D01*
X91670940Y-60718881D01*
X91629705Y-60591976D01*
X91612547Y-60539168D01*
X91612545Y-60539165D01*
X91612545Y-60539163D01*
X91557051Y-60430250D01*
X91526760Y-60370801D01*
X91415690Y-60217927D01*
X91282073Y-60084310D01*
X91129199Y-59973240D01*
X91129195Y-59973237D01*
X91129192Y-59973235D01*
X91118200Y-59967634D01*
X91067406Y-59919657D01*
X91050500Y-59857152D01*
X91050500Y-57642846D01*
X91070185Y-57575807D01*
X91118208Y-57532360D01*
X91129199Y-57526760D01*
X91282073Y-57415690D01*
X91415690Y-57282073D01*
X91526760Y-57129199D01*
X91612547Y-56960832D01*
X91670940Y-56781118D01*
X91673092Y-56767532D01*
X91703021Y-56704397D01*
X91762332Y-56667465D01*
X91832194Y-56668463D01*
X91890427Y-56707072D01*
X91916731Y-56764668D01*
X91917181Y-56764561D01*
X91917733Y-56766863D01*
X91918039Y-56767532D01*
X91918318Y-56769298D01*
X91974251Y-56941444D01*
X91974252Y-56941447D01*
X92056434Y-57102734D01*
X92097667Y-57159487D01*
X92097668Y-57159487D01*
X92571980Y-56685176D01*
X92574075Y-56692993D01*
X92639901Y-56807007D01*
X92732993Y-56900099D01*
X92847007Y-56965925D01*
X92854822Y-56968019D01*
X92380510Y-57442330D01*
X92380511Y-57442331D01*
X92437265Y-57483565D01*
X92598552Y-57565747D01*
X92598555Y-57565748D01*
X92770706Y-57621682D01*
X92949494Y-57650000D01*
X93130506Y-57650000D01*
X93309293Y-57621682D01*
X93481444Y-57565748D01*
X93481447Y-57565747D01*
X93642730Y-57483568D01*
X93699487Y-57442330D01*
X93699488Y-57442329D01*
X93225178Y-56968019D01*
X93232993Y-56965925D01*
X93347007Y-56900099D01*
X93440099Y-56807007D01*
X93505925Y-56692993D01*
X93508019Y-56685177D01*
X93982329Y-57159488D01*
X93982330Y-57159487D01*
X94023568Y-57102730D01*
X94105747Y-56941447D01*
X94105748Y-56941444D01*
X94161682Y-56769293D01*
X94190000Y-56590506D01*
X94190000Y-56409493D01*
X94161682Y-56230706D01*
X94105748Y-56058555D01*
X94105747Y-56058552D01*
X94023565Y-55897265D01*
X93982331Y-55840511D01*
X93982330Y-55840510D01*
X93508018Y-56314821D01*
X93505925Y-56307007D01*
X93440099Y-56192993D01*
X93347007Y-56099901D01*
X93232993Y-56034075D01*
X93225176Y-56031980D01*
X93699487Y-55557668D01*
X93699487Y-55557667D01*
X93642734Y-55516434D01*
X93481447Y-55434252D01*
X93481444Y-55434251D01*
X93309293Y-55378317D01*
X93130506Y-55350000D01*
X92949494Y-55350000D01*
X92770706Y-55378317D01*
X92598555Y-55434251D01*
X92598552Y-55434252D01*
X92437270Y-55516431D01*
X92437268Y-55516432D01*
X92380511Y-55557667D01*
X92380511Y-55557668D01*
X92854823Y-56031980D01*
X92847007Y-56034075D01*
X92732993Y-56099901D01*
X92639901Y-56192993D01*
X92574075Y-56307007D01*
X92571980Y-56314823D01*
X92097668Y-55840511D01*
X92097667Y-55840511D01*
X92056432Y-55897268D01*
X92056431Y-55897270D01*
X91974252Y-56058552D01*
X91974251Y-56058555D01*
X91918317Y-56230705D01*
X91918038Y-56232470D01*
X91917745Y-56233086D01*
X91917181Y-56235439D01*
X91916686Y-56235320D01*
X91888108Y-56295604D01*
X91828796Y-56332534D01*
X91758933Y-56331536D01*
X91700701Y-56292925D01*
X91673092Y-56232468D01*
X91670940Y-56218881D01*
X91624248Y-56075181D01*
X91612547Y-56039168D01*
X91612545Y-56039165D01*
X91612545Y-56039163D01*
X91567290Y-55950347D01*
X91526760Y-55870801D01*
X91415690Y-55717927D01*
X91282073Y-55584310D01*
X91129199Y-55473240D01*
X90960836Y-55387454D01*
X90781118Y-55329059D01*
X90594486Y-55299500D01*
X90594481Y-55299500D01*
X90405519Y-55299500D01*
X90405514Y-55299500D01*
X90218881Y-55329059D01*
X90039163Y-55387454D01*
X89870800Y-55473240D01*
X89811350Y-55516434D01*
X89717927Y-55584310D01*
X89717925Y-55584312D01*
X89717924Y-55584312D01*
X89584312Y-55717924D01*
X89584312Y-55717925D01*
X89584310Y-55717927D01*
X89547999Y-55767905D01*
X89473240Y-55870800D01*
X89394985Y-56024385D01*
X89347010Y-56075181D01*
X89279189Y-56091976D01*
X89213054Y-56069439D01*
X89169603Y-56014723D01*
X89160500Y-55968090D01*
X89160500Y-55616739D01*
X89150573Y-55548608D01*
X89150573Y-55548607D01*
X89099198Y-55443517D01*
X89099196Y-55443515D01*
X89099196Y-55443514D01*
X89016485Y-55360803D01*
X88911391Y-55309426D01*
X88843261Y-55299500D01*
X88843260Y-55299500D01*
X88634500Y-55299500D01*
X88567461Y-55279815D01*
X88521706Y-55227011D01*
X88510500Y-55175500D01*
X88510500Y-54078999D01*
X88510500Y-54078997D01*
X88472984Y-53938987D01*
X88437782Y-53878015D01*
X88400510Y-53813457D01*
X87499234Y-52912181D01*
X87465749Y-52850858D01*
X87470733Y-52781166D01*
X87512605Y-52725233D01*
X87578069Y-52700816D01*
X87586915Y-52700500D01*
X88843261Y-52700500D01*
X88865971Y-52697191D01*
X88911393Y-52690573D01*
X89016483Y-52639198D01*
X89099198Y-52556483D01*
X89150573Y-52451393D01*
X89160500Y-52383260D01*
X89160500Y-52031909D01*
X89180185Y-51964870D01*
X89232989Y-51919115D01*
X89302147Y-51909171D01*
X89365703Y-51938196D01*
X89394984Y-51975613D01*
X89473240Y-52129199D01*
X89584310Y-52282073D01*
X89717927Y-52415690D01*
X89870801Y-52526760D01*
X89917394Y-52550500D01*
X90039163Y-52612545D01*
X90039165Y-52612545D01*
X90039168Y-52612547D01*
X90121185Y-52639196D01*
X90218881Y-52670940D01*
X90405514Y-52700500D01*
X90405519Y-52700500D01*
X90594486Y-52700500D01*
X90781118Y-52670940D01*
X90960832Y-52612547D01*
X91129199Y-52526760D01*
X91282073Y-52415690D01*
X91415690Y-52282073D01*
X91526760Y-52129199D01*
X91612547Y-51960832D01*
X91670940Y-51781118D01*
X91673092Y-51767532D01*
X91703021Y-51704397D01*
X91762332Y-51667465D01*
X91832194Y-51668463D01*
X91890427Y-51707072D01*
X91916731Y-51764668D01*
X91917181Y-51764561D01*
X91917733Y-51766863D01*
X91918039Y-51767532D01*
X91918318Y-51769298D01*
X91974251Y-51941444D01*
X91974252Y-51941447D01*
X92056434Y-52102734D01*
X92097667Y-52159487D01*
X92097668Y-52159487D01*
X92571980Y-51685176D01*
X92574075Y-51692993D01*
X92639901Y-51807007D01*
X92732993Y-51900099D01*
X92847007Y-51965925D01*
X92854822Y-51968019D01*
X92380510Y-52442330D01*
X92380511Y-52442331D01*
X92437265Y-52483565D01*
X92598552Y-52565747D01*
X92598555Y-52565748D01*
X92770706Y-52621682D01*
X92949494Y-52650000D01*
X93130506Y-52650000D01*
X93309293Y-52621682D01*
X93481444Y-52565748D01*
X93481447Y-52565747D01*
X93642730Y-52483568D01*
X93699487Y-52442330D01*
X93699488Y-52442329D01*
X93225178Y-51968019D01*
X93232993Y-51965925D01*
X93347007Y-51900099D01*
X93440099Y-51807007D01*
X93505925Y-51692993D01*
X93508019Y-51685177D01*
X93982329Y-52159488D01*
X93982330Y-52159487D01*
X94023568Y-52102730D01*
X94105747Y-51941447D01*
X94105748Y-51941444D01*
X94161682Y-51769293D01*
X94190000Y-51590506D01*
X94190000Y-51409493D01*
X94161682Y-51230706D01*
X94105748Y-51058555D01*
X94105747Y-51058552D01*
X94023565Y-50897265D01*
X93982331Y-50840511D01*
X93982330Y-50840510D01*
X93508018Y-51314821D01*
X93505925Y-51307007D01*
X93440099Y-51192993D01*
X93347007Y-51099901D01*
X93232993Y-51034075D01*
X93225176Y-51031980D01*
X93699487Y-50557668D01*
X93699487Y-50557667D01*
X93642734Y-50516434D01*
X93481447Y-50434252D01*
X93481444Y-50434251D01*
X93309293Y-50378317D01*
X93130506Y-50350000D01*
X92949494Y-50350000D01*
X92770706Y-50378317D01*
X92598555Y-50434251D01*
X92598552Y-50434252D01*
X92437270Y-50516431D01*
X92437268Y-50516432D01*
X92380511Y-50557667D01*
X92380511Y-50557668D01*
X92854823Y-51031980D01*
X92847007Y-51034075D01*
X92732993Y-51099901D01*
X92639901Y-51192993D01*
X92574075Y-51307007D01*
X92571980Y-51314823D01*
X92097668Y-50840511D01*
X92097667Y-50840511D01*
X92056432Y-50897268D01*
X92056431Y-50897270D01*
X91974252Y-51058552D01*
X91974251Y-51058555D01*
X91918317Y-51230705D01*
X91918038Y-51232470D01*
X91917745Y-51233086D01*
X91917181Y-51235439D01*
X91916686Y-51235320D01*
X91888108Y-51295604D01*
X91828796Y-51332534D01*
X91758933Y-51331536D01*
X91700701Y-51292925D01*
X91673092Y-51232468D01*
X91670940Y-51218881D01*
X91624248Y-51075181D01*
X91612547Y-51039168D01*
X91612545Y-51039165D01*
X91612545Y-51039163D01*
X91546169Y-50908894D01*
X91526760Y-50870801D01*
X91415690Y-50717927D01*
X91282073Y-50584310D01*
X91129199Y-50473240D01*
X90960836Y-50387454D01*
X90781118Y-50329059D01*
X90594486Y-50299500D01*
X90594481Y-50299500D01*
X90405519Y-50299500D01*
X90405514Y-50299500D01*
X90218881Y-50329059D01*
X90039163Y-50387454D01*
X89870800Y-50473240D01*
X89783579Y-50536610D01*
X89717927Y-50584310D01*
X89717925Y-50584312D01*
X89717924Y-50584312D01*
X89584312Y-50717924D01*
X89584312Y-50717925D01*
X89584310Y-50717927D01*
X89536610Y-50783579D01*
X89473240Y-50870800D01*
X89394985Y-51024385D01*
X89347010Y-51075181D01*
X89279189Y-51091976D01*
X89213054Y-51069439D01*
X89169603Y-51014723D01*
X89160500Y-50968090D01*
X89160500Y-50616739D01*
X89152159Y-50559490D01*
X89150573Y-50548607D01*
X89099198Y-50443517D01*
X89099196Y-50443515D01*
X89099196Y-50443514D01*
X89016485Y-50360803D01*
X88911391Y-50309426D01*
X88843261Y-50299500D01*
X88843260Y-50299500D01*
X87076740Y-50299500D01*
X87076739Y-50299500D01*
X87008608Y-50309426D01*
X86903514Y-50360803D01*
X86820803Y-50443514D01*
X86769426Y-50548608D01*
X86759500Y-50616739D01*
X86759500Y-51873085D01*
X86739815Y-51940124D01*
X86687011Y-51985879D01*
X86617853Y-51995823D01*
X86554297Y-51966798D01*
X86547819Y-51960766D01*
X82646544Y-48059491D01*
X82646543Y-48059490D01*
X82521013Y-47987016D01*
X82521014Y-47987016D01*
X82486010Y-47977637D01*
X82381003Y-47949500D01*
X82381000Y-47949500D01*
X66214686Y-47949500D01*
X66147647Y-47929815D01*
X66101892Y-47877011D01*
X66091948Y-47807853D01*
X66120973Y-47744297D01*
X66141800Y-47725182D01*
X66159487Y-47712330D01*
X66159488Y-47712329D01*
X65685178Y-47238019D01*
X65692993Y-47235925D01*
X65807007Y-47170099D01*
X65900099Y-47077007D01*
X65965925Y-46962993D01*
X65968019Y-46955177D01*
X66442329Y-47429488D01*
X66442330Y-47429487D01*
X66483568Y-47372730D01*
X66565747Y-47211447D01*
X66565748Y-47211444D01*
X66621682Y-47039293D01*
X66650000Y-46860506D01*
X66650000Y-46679493D01*
X66621682Y-46500706D01*
X66565748Y-46328555D01*
X66565747Y-46328552D01*
X66483565Y-46167265D01*
X66442331Y-46110511D01*
X66442330Y-46110510D01*
X65968018Y-46584821D01*
X65965925Y-46577007D01*
X65900099Y-46462993D01*
X65807007Y-46369901D01*
X65692993Y-46304075D01*
X65685176Y-46301980D01*
X66159487Y-45827668D01*
X66159487Y-45827667D01*
X66102734Y-45786434D01*
X65941447Y-45704252D01*
X65941444Y-45704251D01*
X65843509Y-45672431D01*
X65785834Y-45632994D01*
X65758635Y-45568635D01*
X65770549Y-45499789D01*
X65817793Y-45448313D01*
X65881827Y-45430500D01*
X66383261Y-45430500D01*
X66405971Y-45427191D01*
X66451393Y-45420573D01*
X66556483Y-45369198D01*
X66639198Y-45286483D01*
X66690573Y-45181393D01*
X66700500Y-45113260D01*
X66700500Y-43346740D01*
X66690573Y-43278607D01*
X66639198Y-43173517D01*
X66639196Y-43173515D01*
X66639196Y-43173514D01*
X66556485Y-43090803D01*
X66451391Y-43039426D01*
X66383261Y-43029500D01*
X66383260Y-43029500D01*
X64616740Y-43029500D01*
X64616739Y-43029500D01*
X64548608Y-43039426D01*
X64443514Y-43090803D01*
X64360803Y-43173514D01*
X64309426Y-43278608D01*
X64299500Y-43346739D01*
X64299500Y-43555500D01*
X64279815Y-43622539D01*
X64227011Y-43668294D01*
X64175500Y-43679500D01*
X58509387Y-43679500D01*
X58442348Y-43659815D01*
X58421706Y-43643181D01*
X50826819Y-36048294D01*
X50793334Y-35986971D01*
X50790500Y-35960613D01*
X50790500Y-34922846D01*
X50810185Y-34855807D01*
X50858208Y-34812360D01*
X50869199Y-34806760D01*
X51022073Y-34695690D01*
X51155690Y-34562073D01*
X51266760Y-34409199D01*
X51352547Y-34240832D01*
X51392069Y-34119195D01*
X51431507Y-34061521D01*
X51495866Y-34034323D01*
X51564712Y-34046238D01*
X51616188Y-34093482D01*
X51627931Y-34119196D01*
X51667454Y-34240836D01*
X51721756Y-34347408D01*
X51753240Y-34409199D01*
X51864310Y-34562073D01*
X51997927Y-34695690D01*
X52150801Y-34806760D01*
X52161792Y-34812360D01*
X52319163Y-34892545D01*
X52319165Y-34892545D01*
X52319168Y-34892547D01*
X52401185Y-34919196D01*
X52498881Y-34950940D01*
X52685514Y-34980500D01*
X52685519Y-34980500D01*
X52874486Y-34980500D01*
X53061118Y-34950940D01*
X53240832Y-34892547D01*
X53409199Y-34806760D01*
X53562073Y-34695690D01*
X53695690Y-34562073D01*
X53806760Y-34409199D01*
X53892547Y-34240832D01*
X53932069Y-34119195D01*
X53971507Y-34061521D01*
X54035866Y-34034323D01*
X54104712Y-34046238D01*
X54156188Y-34093482D01*
X54167931Y-34119196D01*
X54207454Y-34240836D01*
X54261756Y-34347408D01*
X54293240Y-34409199D01*
X54404310Y-34562073D01*
X54537927Y-34695690D01*
X54690801Y-34806760D01*
X54701792Y-34812360D01*
X54859163Y-34892545D01*
X54859165Y-34892545D01*
X54859168Y-34892547D01*
X54941185Y-34919196D01*
X55038881Y-34950940D01*
X55225514Y-34980500D01*
X55225519Y-34980500D01*
X55414486Y-34980500D01*
X55601118Y-34950940D01*
X55780832Y-34892547D01*
X55949199Y-34806760D01*
X56102073Y-34695690D01*
X56235690Y-34562073D01*
X56346760Y-34409199D01*
X56352363Y-34398203D01*
X56400339Y-34347408D01*
X56462847Y-34330500D01*
X72292472Y-34330500D01*
X72292474Y-34330500D01*
X72292475Y-34330500D01*
X72432485Y-34292984D01*
X72558015Y-34220510D01*
X80031706Y-26746819D01*
X80093029Y-26713334D01*
X80119387Y-26710500D01*
X80857153Y-26710500D01*
X80924192Y-26730185D01*
X80967637Y-26778203D01*
X80973240Y-26789199D01*
X81084310Y-26942073D01*
X81217927Y-27075690D01*
X81370801Y-27186760D01*
X81450347Y-27227290D01*
X81539163Y-27272545D01*
X81539165Y-27272545D01*
X81539168Y-27272547D01*
X81635497Y-27303846D01*
X81718881Y-27330940D01*
X81732468Y-27333092D01*
X81795603Y-27363021D01*
X81832534Y-27422333D01*
X81831536Y-27492195D01*
X81792926Y-27550428D01*
X81735331Y-27576731D01*
X81735439Y-27577181D01*
X81733136Y-27577733D01*
X81732470Y-27578038D01*
X81730705Y-27578317D01*
X81558555Y-27634251D01*
X81558552Y-27634252D01*
X81397270Y-27716431D01*
X81397268Y-27716432D01*
X81340511Y-27757667D01*
X81340511Y-27757668D01*
X81814823Y-28231980D01*
X81807007Y-28234075D01*
X81692993Y-28299901D01*
X81599901Y-28392993D01*
X81534075Y-28507007D01*
X81531980Y-28514823D01*
X81057668Y-28040511D01*
X81057667Y-28040511D01*
X81016432Y-28097268D01*
X81016431Y-28097270D01*
X80934252Y-28258552D01*
X80934251Y-28258555D01*
X80878317Y-28430706D01*
X80850000Y-28609493D01*
X80850000Y-28790506D01*
X80878317Y-28969293D01*
X80934251Y-29141444D01*
X80934252Y-29141447D01*
X81016434Y-29302734D01*
X81057667Y-29359487D01*
X81057668Y-29359487D01*
X81531980Y-28885176D01*
X81534075Y-28892993D01*
X81599901Y-29007007D01*
X81692993Y-29100099D01*
X81807007Y-29165925D01*
X81814822Y-29168019D01*
X81340510Y-29642330D01*
X81340511Y-29642331D01*
X81397265Y-29683565D01*
X81558552Y-29765747D01*
X81558555Y-29765748D01*
X81730701Y-29821681D01*
X81732451Y-29821958D01*
X81733065Y-29822249D01*
X81735439Y-29822819D01*
X81735319Y-29823317D01*
X81795590Y-29851879D01*
X81832529Y-29911186D01*
X81831541Y-29981048D01*
X81792939Y-30039286D01*
X81732475Y-30066906D01*
X81718882Y-30069059D01*
X81718881Y-30069059D01*
X81539163Y-30127454D01*
X81370800Y-30213240D01*
X81283579Y-30276610D01*
X81217927Y-30324310D01*
X81217925Y-30324312D01*
X81217924Y-30324312D01*
X81084312Y-30457924D01*
X81084312Y-30457925D01*
X81084310Y-30457927D01*
X81063699Y-30486296D01*
X80973240Y-30610800D01*
X80887454Y-30779163D01*
X80829059Y-30958881D01*
X80799500Y-31145513D01*
X80799500Y-31334486D01*
X80829059Y-31521118D01*
X80887454Y-31700836D01*
X80941756Y-31807408D01*
X80973240Y-31869199D01*
X81084310Y-32022073D01*
X81217927Y-32155690D01*
X81370801Y-32266760D01*
X81450347Y-32307290D01*
X81539163Y-32352545D01*
X81539165Y-32352545D01*
X81539168Y-32352547D01*
X81635497Y-32383846D01*
X81718881Y-32410940D01*
X81905514Y-32440500D01*
X81905519Y-32440500D01*
X82094486Y-32440500D01*
X82281118Y-32410940D01*
X82460832Y-32352547D01*
X82629199Y-32266760D01*
X82782073Y-32155690D01*
X82915690Y-32022073D01*
X83026760Y-31869199D01*
X83032363Y-31858203D01*
X83080339Y-31807408D01*
X83142847Y-31790500D01*
X84332472Y-31790500D01*
X84332474Y-31790500D01*
X84332475Y-31790500D01*
X84472485Y-31752984D01*
X84598015Y-31680510D01*
X87440510Y-28838015D01*
X87512984Y-28712485D01*
X87550500Y-28572475D01*
X87550500Y-12927525D01*
X87512984Y-12787515D01*
X87440510Y-12661985D01*
X85338015Y-10559490D01*
X85212485Y-10487016D01*
X85212486Y-10487016D01*
X85177482Y-10477637D01*
X85072475Y-10449500D01*
X55167525Y-10449500D01*
X55062517Y-10477637D01*
X55027514Y-10487016D01*
X54901986Y-10559489D01*
X54901983Y-10559491D01*
X50658851Y-14802622D01*
X50597528Y-14836107D01*
X50532852Y-14832872D01*
X50521120Y-14829060D01*
X50334486Y-14799500D01*
X50334481Y-14799500D01*
X50145519Y-14799500D01*
X50145514Y-14799500D01*
X49958879Y-14829060D01*
X49947140Y-14832874D01*
X49877299Y-14834866D01*
X49821147Y-14802622D01*
X45578016Y-10559491D01*
X45578015Y-10559490D01*
X45452485Y-10487016D01*
X45452486Y-10487016D01*
X45417482Y-10477637D01*
X45312475Y-10449500D01*
X19467525Y-10449500D01*
X19362517Y-10477637D01*
X19327514Y-10487016D01*
X19201986Y-10559489D01*
X19201983Y-10559491D01*
X15302181Y-14459294D01*
X15240858Y-14492779D01*
X15171166Y-14487795D01*
X15115233Y-14445923D01*
X15090816Y-14380459D01*
X15090500Y-14371613D01*
X15090500Y-11967527D01*
X15090500Y-11967525D01*
X15052984Y-11827515D01*
X14980510Y-11701985D01*
X13838015Y-10559490D01*
X13712485Y-10487016D01*
X13712486Y-10487016D01*
X13677482Y-10477637D01*
X13572475Y-10449500D01*
X3927525Y-10449500D01*
X3822517Y-10477637D01*
X3787514Y-10487016D01*
X3661986Y-10559489D01*
X3661983Y-10559491D01*
X3059491Y-11161983D01*
X3059489Y-11161986D01*
X2987016Y-11287514D01*
X2987016Y-11287515D01*
X2949500Y-11427525D01*
X1500000Y-11427525D01*
X1500000Y-4381995D01*
X2699500Y-4381995D01*
X2699500Y-4618004D01*
X2699501Y-4618020D01*
X2730306Y-4852010D01*
X2791394Y-5079993D01*
X2881714Y-5298045D01*
X2881719Y-5298056D01*
X2952677Y-5420957D01*
X2999727Y-5502450D01*
X2999729Y-5502453D01*
X2999730Y-5502454D01*
X3143406Y-5689697D01*
X3143412Y-5689704D01*
X3310295Y-5856587D01*
X3310301Y-5856592D01*
X3497550Y-6000273D01*
X3628918Y-6076118D01*
X3701943Y-6118280D01*
X3701948Y-6118282D01*
X3701951Y-6118284D01*
X3920007Y-6208606D01*
X4147986Y-6269693D01*
X4381989Y-6300500D01*
X4381996Y-6300500D01*
X4618004Y-6300500D01*
X4618011Y-6300500D01*
X4852014Y-6269693D01*
X5079993Y-6208606D01*
X5298049Y-6118284D01*
X5502450Y-6000273D01*
X5689699Y-5856592D01*
X5856592Y-5689699D01*
X6000273Y-5502450D01*
X6118284Y-5298049D01*
X6208606Y-5079993D01*
X6269693Y-4852014D01*
X6300500Y-4618011D01*
X6300500Y-4381995D01*
X93699500Y-4381995D01*
X93699500Y-4618004D01*
X93699501Y-4618020D01*
X93730306Y-4852010D01*
X93791394Y-5079993D01*
X93881714Y-5298045D01*
X93881719Y-5298056D01*
X93952677Y-5420957D01*
X93999727Y-5502450D01*
X93999729Y-5502453D01*
X93999730Y-5502454D01*
X94143406Y-5689697D01*
X94143412Y-5689704D01*
X94310295Y-5856587D01*
X94310301Y-5856592D01*
X94497550Y-6000273D01*
X94628918Y-6076118D01*
X94701943Y-6118280D01*
X94701948Y-6118282D01*
X94701951Y-6118284D01*
X94920007Y-6208606D01*
X95147986Y-6269693D01*
X95381989Y-6300500D01*
X95381996Y-6300500D01*
X95618004Y-6300500D01*
X95618011Y-6300500D01*
X95852014Y-6269693D01*
X96079993Y-6208606D01*
X96298049Y-6118284D01*
X96502450Y-6000273D01*
X96689699Y-5856592D01*
X96856592Y-5689699D01*
X97000273Y-5502450D01*
X97118284Y-5298049D01*
X97208606Y-5079993D01*
X97269693Y-4852014D01*
X97300500Y-4618011D01*
X97300500Y-4381989D01*
X97269693Y-4147986D01*
X97208606Y-3920007D01*
X97118284Y-3701951D01*
X97118282Y-3701948D01*
X97118280Y-3701943D01*
X97076118Y-3628918D01*
X97000273Y-3497550D01*
X96856592Y-3310301D01*
X96856587Y-3310295D01*
X96689704Y-3143412D01*
X96689697Y-3143406D01*
X96502454Y-2999730D01*
X96502453Y-2999729D01*
X96502450Y-2999727D01*
X96420957Y-2952677D01*
X96298056Y-2881719D01*
X96298045Y-2881714D01*
X96079993Y-2791394D01*
X95852010Y-2730306D01*
X95618020Y-2699501D01*
X95618017Y-2699500D01*
X95618011Y-2699500D01*
X95381989Y-2699500D01*
X95381983Y-2699500D01*
X95381979Y-2699501D01*
X95147989Y-2730306D01*
X94920006Y-2791394D01*
X94701954Y-2881714D01*
X94701943Y-2881719D01*
X94497545Y-2999730D01*
X94310302Y-3143406D01*
X94310295Y-3143412D01*
X94143412Y-3310295D01*
X94143406Y-3310302D01*
X93999730Y-3497545D01*
X93881719Y-3701943D01*
X93881714Y-3701954D01*
X93791394Y-3920006D01*
X93730306Y-4147989D01*
X93699501Y-4381979D01*
X93699500Y-4381995D01*
X6300500Y-4381995D01*
X6300500Y-4381989D01*
X6269693Y-4147986D01*
X6208606Y-3920007D01*
X6118284Y-3701951D01*
X6118282Y-3701948D01*
X6118280Y-3701943D01*
X6076118Y-3628918D01*
X6000273Y-3497550D01*
X5856592Y-3310301D01*
X5856587Y-3310295D01*
X5689704Y-3143412D01*
X5689697Y-3143406D01*
X5502454Y-2999730D01*
X5502453Y-2999729D01*
X5502450Y-2999727D01*
X5420957Y-2952677D01*
X5298056Y-2881719D01*
X5298045Y-2881714D01*
X5079993Y-2791394D01*
X4852010Y-2730306D01*
X4618020Y-2699501D01*
X4618017Y-2699500D01*
X4618011Y-2699500D01*
X4381989Y-2699500D01*
X4381983Y-2699500D01*
X4381979Y-2699501D01*
X4147989Y-2730306D01*
X3920006Y-2791394D01*
X3701954Y-2881714D01*
X3701943Y-2881719D01*
X3497545Y-2999730D01*
X3310302Y-3143406D01*
X3310295Y-3143412D01*
X3143412Y-3310295D01*
X3143406Y-3310302D01*
X2999730Y-3497545D01*
X2881719Y-3701943D01*
X2881714Y-3701954D01*
X2791394Y-3920006D01*
X2730306Y-4147989D01*
X2699501Y-4381979D01*
X2699500Y-4381995D01*
X1500000Y-4381995D01*
X1500000Y-1624000D01*
X1519685Y-1556961D01*
X1572489Y-1511206D01*
X1624000Y-1500000D01*
X98376000Y-1500000D01*
X98443039Y-1519685D01*
G37*
%TD.AperFunction*%
%TD*%
M02*
