%TF.GenerationSoftware,KiCad,Pcbnew,10.0.6*%
%TF.CreationDate,2026-10-09T16:16:53+01:00*%
%TF.ProjectId,Universal_Carrier,556e6976-6572-4736-916c-5f4361727269,V4.1 - Zero DRC Parity Clean*%
%TF.SameCoordinates,Original*%
%TF.FileFunction,Copper,L2,Bot*%
%TF.FilePolarity,Positive*%
%FSLAX46Y46*%
G04 Gerber Fmt 4.6, Leading zero omitted, Abs format (unit mm)*
G04 Created by KiCad (PCBNEW 10.0.6) date 2026-10-09 16:16:53*
%MOMM*%
%LPD*%
G01*
G04 APERTURE LIST*
G04 Aperture macros list*
%AMRoundRect*
0 Rectangle with rounded corners*
0 $1 Rounding radius*
0 $2 $3 $4 $5 $6 $7 $8 $9 X,Y pos of 4 corners*
0 Add a 4 corners polygon primitive as box body*
4,1,4,$2,$3,$4,$5,$6,$7,$8,$9,$2,$3,0*
0 Add four circle primitives for the rounded corners*
1,1,$1+$1,$2,$3*
1,1,$1+$1,$4,$5*
1,1,$1+$1,$6,$7*
1,1,$1+$1,$8,$9*
0 Add four rect primitives between the rounded corners*
20,1,$1+$1,$2,$3,$4,$5,0*
20,1,$1+$1,$4,$5,$6,$7,0*
20,1,$1+$1,$6,$7,$8,$9,0*
20,1,$1+$1,$8,$9,$2,$3,0*%
G04 Aperture macros list end*
%TA.AperFunction,ComponentPad*%
%ADD10R,1.700000X1.700000*%
%TD*%
%TA.AperFunction,ComponentPad*%
%ADD11C,1.700000*%
%TD*%
%TA.AperFunction,SMDPad,CuDef*%
%ADD12RoundRect,0.200000X-0.200000X-0.800000X0.200000X-0.800000X0.200000X0.800000X-0.200000X0.800000X0*%
%TD*%
%TA.AperFunction,ComponentPad*%
%ADD13C,1.800000*%
%TD*%
%TA.AperFunction,ComponentPad*%
%ADD14C,2.300000*%
%TD*%
%TA.AperFunction,ViaPad*%
%ADD15C,0.800000*%
%TD*%
%TA.AperFunction,Conductor*%
%ADD16C,0.400000*%
%TD*%
G04 APERTURE END LIST*
D10*
%TO.P,J9,1*%
%TO.N,/IO20_RUDDER_DN*%
X89000000Y-54500000D03*
D11*
%TO.P,J9,2*%
%TO.N,/+5V_SERVO*%
X91540000Y-54500000D03*
%TO.P,J9,3*%
%TO.N,/GND*%
X94080000Y-54500000D03*
%TD*%
D10*
%TO.P,J7,1*%
%TO.N,/IO18_ACT1_UP*%
X89000000Y-64000000D03*
D11*
%TO.P,J7,2*%
%TO.N,/+5V_SERVO*%
X91540000Y-64000000D03*
%TO.P,J7,3*%
%TO.N,/GND*%
X94080000Y-64000000D03*
%TD*%
D10*
%TO.P,J11,1*%
%TO.N,/GND*%
X63460000Y-20000000D03*
D11*
%TO.P,J11,2*%
%TO.N,/+5V*%
X66000000Y-20000000D03*
%TD*%
D10*
%TO.P,J8,1*%
%TO.N,/IO19_WINCH_MODE*%
X89000000Y-59500000D03*
D11*
%TO.P,J8,2*%
%TO.N,/+5V_SERVO*%
X91540000Y-59500000D03*
%TO.P,J8,3*%
%TO.N,/GND*%
X94080000Y-59500000D03*
%TD*%
D10*
%TO.P,J10,1*%
%TO.N,/IO23_ACT4*%
X88960000Y-50500000D03*
D11*
%TO.P,J10,2*%
%TO.N,/+5V_SERVO*%
X91500000Y-50500000D03*
%TO.P,J10,3*%
%TO.N,/GND*%
X94040000Y-50500000D03*
%TD*%
D10*
%TO.P,J6,1*%
%TO.N,/IO15*%
X76380000Y-18500000D03*
D11*
%TO.P,J6,2*%
%TO.N,/GPS_TX2*%
X78920000Y-18500000D03*
%TO.P,J6,3*%
%TO.N,/GPS_RX2*%
X81460000Y-18500000D03*
%TO.P,J6,4*%
%TO.N,/IO17_GPS_TX*%
X84000000Y-18500000D03*
%TO.P,J6,5*%
%TO.N,/IO16_GPS_RX*%
X86540000Y-18500000D03*
%TO.P,J6,6*%
%TO.N,/GND*%
X89080000Y-18500000D03*
%TO.P,J6,7*%
%TO.N,/+3V3*%
X91620000Y-18500000D03*
%TD*%
D10*
%TO.P,J5,1*%
%TO.N,/IO13_BUZ*%
X59500000Y-40500000D03*
D11*
%TO.P,J5,2*%
%TO.N,/GND*%
X59500000Y-43040000D03*
%TD*%
D10*
%TO.P,J3,1*%
%TO.N,/GND*%
X12000000Y-16000000D03*
D11*
%TO.P,J3,2*%
%TO.N,/+3V3*%
X14540000Y-16000000D03*
%TO.P,J3,3*%
%TO.N,/NC*%
X12000000Y-18540000D03*
%TO.P,J3,4*%
%TO.N,/IO5_NSS*%
X14540000Y-18540000D03*
%TO.P,J3,5*%
%TO.N,/IO2_SCK*%
X12000000Y-21080000D03*
%TO.P,J3,6*%
%TO.N,/IO3_MOSI*%
X14540000Y-21080000D03*
%TO.P,J3,7*%
%TO.N,/IO4_MISO*%
X12000000Y-23620000D03*
%TO.P,J3,8*%
%TO.N,/IO12_LORA_DIO0*%
X14540000Y-23620000D03*
%TD*%
D10*
%TO.P,J4,1*%
%TO.N,/IO0_ADC*%
X88000000Y-41000000D03*
D11*
%TO.P,J4,2*%
%TO.N,/IO1_ADC*%
X90540000Y-41000000D03*
%TO.P,J4,3*%
%TO.N,/GND*%
X93080000Y-41000000D03*
%TD*%
D10*
%TO.P,J12,1*%
%TO.N,/GND*%
X88960000Y-75500000D03*
D11*
%TO.P,J12,2*%
%TO.N,/+5V_SERVO*%
X91500000Y-75500000D03*
%TD*%
D10*
%TO.P,JP_RBL,1*%
%TO.N,/JOY_X*%
X22580000Y-46500000D03*
D11*
%TO.P,JP_RBL,2*%
%TO.N,/IO0_ADC*%
X20040000Y-46500000D03*
%TO.P,JP_RBL,3*%
%TO.N,/JOY_Y*%
X17500000Y-46500000D03*
%TO.P,JP_RBL,4*%
%TO.N,/IO1_ADC*%
X14960000Y-46500000D03*
%TD*%
D12*
%TO.P,SW1,1*%
%TO.N,/IO18_ACT1_UP*%
X65840000Y-66500000D03*
%TO.P,SW1,2*%
%TO.N,/GND*%
X70040000Y-66500000D03*
%TD*%
D10*
%TO.P,J1,1*%
%TO.N,/IO5_NSS*%
X35000000Y-16000000D03*
D11*
%TO.P,J1,2*%
%TO.N,/IO4_MISO*%
X37540000Y-16000000D03*
%TO.P,J1,3*%
%TO.N,/IO3_MOSI*%
X40080000Y-16000000D03*
%TO.P,J1,4*%
%TO.N,/IO2_SCK*%
X42620000Y-16000000D03*
%TO.P,J1,5*%
%TO.N,/IO1_ADC*%
X45160000Y-16000000D03*
%TO.P,J1,6*%
%TO.N,/IO0_ADC*%
X47700000Y-16000000D03*
%TO.P,J1,7*%
%TO.N,/+3V3*%
X50240000Y-16000000D03*
%TO.P,J1,8*%
%TO.N,/GND*%
X52780000Y-16000000D03*
%TO.P,J1,9*%
%TO.N,/+5V*%
X55320000Y-16000000D03*
%TD*%
D12*
%TO.P,SW2,1*%
%TO.N,/IO19_WINCH_MODE*%
X75540000Y-59000000D03*
%TO.P,SW2,2*%
%TO.N,/GND*%
X79740000Y-59000000D03*
%TD*%
D11*
%TO.P,JOY1,1*%
%TO.N,/GND*%
X11270000Y-59500000D03*
%TO.P,JOY1,2*%
%TO.N,/JOY_Y*%
X11270000Y-62000000D03*
%TO.P,JOY1,3*%
%TO.N,/+3V3*%
X11270000Y-64500000D03*
%TO.P,JOY1,4*%
%TO.N,/GND*%
X17500000Y-53270000D03*
%TO.P,JOY1,5*%
%TO.N,/JOY_X*%
X20000000Y-53270000D03*
%TO.P,JOY1,6*%
%TO.N,/+3V3*%
X22500000Y-53270000D03*
D13*
%TO.P,JOY1,7*%
%TO.N,/GND*%
X16750000Y-67750000D03*
%TO.P,JOY1,8*%
X16750000Y-72250000D03*
%TO.P,JOY1,9*%
%TO.N,/IO9_BOOT*%
X23250000Y-67750000D03*
%TO.P,JOY1,10*%
X23250000Y-72250000D03*
D14*
%TO.P,JOY1,11*%
%TO.N,/GND*%
X13675000Y-57000000D03*
%TO.P,JOY1,12*%
X26325000Y-57000000D03*
%TO.P,JOY1,13*%
X13675000Y-67000000D03*
%TO.P,JOY1,14*%
X26325000Y-67000000D03*
%TD*%
D12*
%TO.P,SW3,1*%
%TO.N,/IO20_RUDDER_DN*%
X65840000Y-52500000D03*
%TO.P,SW3,2*%
%TO.N,/GND*%
X70040000Y-52500000D03*
%TD*%
D10*
%TO.P,J2,1*%
%TO.N,/IO9_BOOT*%
X35000000Y-33780000D03*
D11*
%TO.P,J2,2*%
%TO.N,/IO18_ACT1_UP*%
X37540000Y-33780000D03*
%TO.P,J2,3*%
%TO.N,/IO19_WINCH_MODE*%
X40080000Y-33780000D03*
%TO.P,J2,4*%
%TO.N,/IO20_RUDDER_DN*%
X42620000Y-33780000D03*
%TO.P,J2,5*%
%TO.N,/IO23_ACT4*%
X45160000Y-33780000D03*
%TO.P,J2,6*%
%TO.N,/IO12_LORA_DIO0*%
X47700000Y-33780000D03*
%TO.P,J2,7*%
%TO.N,/IO13_BUZ*%
X50240000Y-33780000D03*
%TO.P,J2,8*%
%TO.N,/IO16_GPS_RX*%
X52780000Y-33780000D03*
%TO.P,J2,9*%
%TO.N,/IO17_GPS_TX*%
X55320000Y-33780000D03*
%TD*%
D12*
%TO.P,SW4,1*%
%TO.N,/IO9_BOOT*%
X57540000Y-59500000D03*
%TO.P,SW4,2*%
%TO.N,/GND*%
X61740000Y-59500000D03*
%TD*%
D15*
%TO.N,/GND*%
X62000000Y-51500000D03*
X22000000Y-18000000D03*
X71000000Y-40500000D03*
X32000000Y-24500000D03*
X22000000Y-14000000D03*
X18500000Y-44500000D03*
X62500000Y-35500000D03*
X12500000Y-26000000D03*
%TD*%
%TO.N,/IO20_RUDDER_DN*%
D16*
X61340000Y-52500000D02*
X42620000Y-33780000D01*
X65840000Y-52500000D02*
X61340000Y-52500000D01*
X67840000Y-54500000D02*
X89000000Y-54500000D01*
X65840000Y-52500000D02*
X67840000Y-54500000D01*
%TO.N,/IO18_ACT1_UP*%
X68340000Y-64000000D02*
X89000000Y-64000000D01*
X65840000Y-66500000D02*
X65840000Y-61745930D01*
X65840000Y-61745930D02*
X37874070Y-33780000D01*
X37874070Y-33780000D02*
X37540000Y-33780000D01*
X65840000Y-66500000D02*
X68340000Y-64000000D01*
%TO.N,/+5V*%
X62000000Y-16000000D02*
X55320000Y-16000000D01*
X66000000Y-20000000D02*
X62000000Y-16000000D01*
%TO.N,/IO19_WINCH_MODE*%
X88100000Y-60400000D02*
X89000000Y-59500000D01*
X75540000Y-59000000D02*
X65300000Y-59000000D01*
X75540000Y-59000000D02*
X76940000Y-60400000D01*
X76940000Y-60400000D02*
X88100000Y-60400000D01*
X65300000Y-59000000D02*
X40080000Y-33780000D01*
%TO.N,/IO23_ACT4*%
X61880000Y-50500000D02*
X45160000Y-33780000D01*
X88960000Y-50500000D02*
X61880000Y-50500000D01*
%TO.N,/IO17_GPS_TX*%
X68720000Y-33780000D02*
X55320000Y-33780000D01*
X84000000Y-18500000D02*
X68720000Y-33780000D01*
%TO.N,/IO16_GPS_RX*%
X56000000Y-37000000D02*
X52780000Y-33780000D01*
X68040000Y-37000000D02*
X56000000Y-37000000D01*
X86540000Y-18500000D02*
X68040000Y-37000000D01*
%TO.N,/+3V3*%
X53120000Y-13000000D02*
X50240000Y-15880000D01*
X11270000Y-64500000D02*
X11270000Y-64230000D01*
X50240000Y-15880000D02*
X50240000Y-16000000D01*
X11270000Y-64230000D02*
X22230000Y-53270000D01*
X86120000Y-13000000D02*
X53120000Y-13000000D01*
X97000000Y-76000000D02*
X93000000Y-80000000D01*
X91620000Y-18500000D02*
X97000000Y-23880000D01*
X97000000Y-23880000D02*
X97000000Y-76000000D01*
X17540000Y-13000000D02*
X14540000Y-16000000D01*
X11750000Y-78500000D02*
X9500000Y-76250000D01*
X22230000Y-53270000D02*
X22500000Y-53270000D01*
X81000000Y-80000000D02*
X79500000Y-78500000D01*
X50240000Y-16000000D02*
X47240000Y-13000000D01*
X47240000Y-13000000D02*
X17540000Y-13000000D01*
X93000000Y-80000000D02*
X81000000Y-80000000D01*
X9500000Y-76250000D02*
X9500000Y-66270000D01*
X9500000Y-66270000D02*
X11270000Y-64500000D01*
X91620000Y-18500000D02*
X86120000Y-13000000D01*
X79500000Y-78500000D02*
X11750000Y-78500000D01*
%TO.N,/IO13_BUZ*%
X59500000Y-40500000D02*
X56960000Y-40500000D01*
X56960000Y-40500000D02*
X50240000Y-33780000D01*
%TO.N,/IO5_NSS*%
X17080000Y-16000000D02*
X35000000Y-16000000D01*
X14540000Y-18540000D02*
X17080000Y-16000000D01*
%TO.N,/IO2_SCK*%
X10000000Y-23080000D02*
X12000000Y-21080000D01*
X30620000Y-28000000D02*
X10500000Y-28000000D01*
X10500000Y-28000000D02*
X10000000Y-27500000D01*
X42620000Y-16000000D02*
X30620000Y-28000000D01*
X10000000Y-27500000D02*
X10000000Y-23080000D01*
%TO.N,/IO4_MISO*%
X14000000Y-25620000D02*
X12000000Y-23620000D01*
X37540000Y-16000000D02*
X26540000Y-27000000D01*
X14500000Y-27000000D02*
X14000000Y-26500000D01*
X14000000Y-26500000D02*
X14000000Y-25620000D01*
X26540000Y-27000000D02*
X14500000Y-27000000D01*
%TO.N,/IO0_ADC*%
X20040000Y-46500000D02*
X20040000Y-43660000D01*
X20040000Y-43660000D02*
X47700000Y-16000000D01*
%TO.N,/IO1_ADC*%
X45160000Y-16300000D02*
X45160000Y-16000000D01*
X14960000Y-46500000D02*
X45160000Y-16300000D01*
%TO.N,/JOY_X*%
X20000000Y-53270000D02*
X22580000Y-50690000D01*
X22580000Y-50690000D02*
X22580000Y-46500000D01*
%TO.N,/JOY_Y*%
X9500000Y-54500000D02*
X17500000Y-46500000D01*
X9500000Y-60230000D02*
X9500000Y-54500000D01*
X11270000Y-62000000D02*
X9500000Y-60230000D01*
%TO.N,/IO9_BOOT*%
X57540000Y-59500000D02*
X57540000Y-56320000D01*
X57540000Y-56320000D02*
X35000000Y-33780000D01*
%TD*%
%TA.AperFunction,Conductor*%
%TO.N,/GND*%
G36*
X85907652Y-13570185D02*
G01*
X85928294Y-13586819D01*
X89532897Y-17191422D01*
X89566382Y-17252745D01*
X89561398Y-17322437D01*
X89519526Y-17378370D01*
X89454062Y-17402787D01*
X89406898Y-17397034D01*
X89349293Y-17378317D01*
X89170506Y-17350000D01*
X88989494Y-17350000D01*
X88810706Y-17378317D01*
X88638555Y-17434251D01*
X88638552Y-17434252D01*
X88477270Y-17516431D01*
X88477268Y-17516432D01*
X88420511Y-17557667D01*
X88420511Y-17557668D01*
X88894823Y-18031980D01*
X88887007Y-18034075D01*
X88772993Y-18099901D01*
X88679901Y-18192993D01*
X88614075Y-18307007D01*
X88611980Y-18314823D01*
X88137668Y-17840511D01*
X88137667Y-17840511D01*
X88096432Y-17897268D01*
X88096431Y-17897270D01*
X88014252Y-18058552D01*
X88014251Y-18058555D01*
X87958317Y-18230705D01*
X87958038Y-18232470D01*
X87957745Y-18233086D01*
X87957181Y-18235439D01*
X87956686Y-18235320D01*
X87928108Y-18295604D01*
X87868796Y-18332534D01*
X87798933Y-18331536D01*
X87740701Y-18292925D01*
X87713092Y-18232468D01*
X87710940Y-18218881D01*
X87664248Y-18075181D01*
X87652547Y-18039168D01*
X87652545Y-18039165D01*
X87652545Y-18039163D01*
X87587140Y-17910800D01*
X87566760Y-17870801D01*
X87455690Y-17717927D01*
X87322073Y-17584310D01*
X87169199Y-17473240D01*
X87000836Y-17387454D01*
X86821118Y-17329059D01*
X86634486Y-17299500D01*
X86634481Y-17299500D01*
X86445519Y-17299500D01*
X86445514Y-17299500D01*
X86258881Y-17329059D01*
X86079163Y-17387454D01*
X85910800Y-17473240D01*
X85823579Y-17536610D01*
X85757927Y-17584310D01*
X85757925Y-17584312D01*
X85757924Y-17584312D01*
X85624312Y-17717924D01*
X85624312Y-17717925D01*
X85624310Y-17717927D01*
X85595250Y-17757925D01*
X85513240Y-17870800D01*
X85427454Y-18039163D01*
X85387931Y-18160803D01*
X85348493Y-18218478D01*
X85284134Y-18245676D01*
X85215288Y-18233761D01*
X85163812Y-18186516D01*
X85152069Y-18160803D01*
X85124248Y-18075181D01*
X85112547Y-18039168D01*
X85112545Y-18039165D01*
X85112545Y-18039163D01*
X85047140Y-17910800D01*
X85026760Y-17870801D01*
X84915690Y-17717927D01*
X84782073Y-17584310D01*
X84629199Y-17473240D01*
X84460836Y-17387454D01*
X84281118Y-17329059D01*
X84094486Y-17299500D01*
X84094481Y-17299500D01*
X83905519Y-17299500D01*
X83905514Y-17299500D01*
X83718881Y-17329059D01*
X83539163Y-17387454D01*
X83370800Y-17473240D01*
X83283579Y-17536610D01*
X83217927Y-17584310D01*
X83217925Y-17584312D01*
X83217924Y-17584312D01*
X83084312Y-17717924D01*
X83084312Y-17717925D01*
X83084310Y-17717927D01*
X83055250Y-17757925D01*
X82973240Y-17870800D01*
X82887454Y-18039163D01*
X82847931Y-18160803D01*
X82808493Y-18218478D01*
X82744134Y-18245676D01*
X82675288Y-18233761D01*
X82623812Y-18186516D01*
X82612069Y-18160803D01*
X82584248Y-18075181D01*
X82572547Y-18039168D01*
X82572545Y-18039165D01*
X82572545Y-18039163D01*
X82507140Y-17910800D01*
X82486760Y-17870801D01*
X82375690Y-17717927D01*
X82242073Y-17584310D01*
X82089199Y-17473240D01*
X81920836Y-17387454D01*
X81741118Y-17329059D01*
X81554486Y-17299500D01*
X81554481Y-17299500D01*
X81365519Y-17299500D01*
X81365514Y-17299500D01*
X81178881Y-17329059D01*
X80999163Y-17387454D01*
X80830800Y-17473240D01*
X80743579Y-17536610D01*
X80677927Y-17584310D01*
X80677925Y-17584312D01*
X80677924Y-17584312D01*
X80544312Y-17717924D01*
X80544312Y-17717925D01*
X80544310Y-17717927D01*
X80515250Y-17757925D01*
X80433240Y-17870800D01*
X80347454Y-18039163D01*
X80307931Y-18160803D01*
X80268493Y-18218478D01*
X80204134Y-18245676D01*
X80135288Y-18233761D01*
X80083812Y-18186516D01*
X80072069Y-18160803D01*
X80044248Y-18075181D01*
X80032547Y-18039168D01*
X80032545Y-18039165D01*
X80032545Y-18039163D01*
X79967140Y-17910800D01*
X79946760Y-17870801D01*
X79835690Y-17717927D01*
X79702073Y-17584310D01*
X79549199Y-17473240D01*
X79380836Y-17387454D01*
X79201118Y-17329059D01*
X79014486Y-17299500D01*
X79014481Y-17299500D01*
X78825519Y-17299500D01*
X78825514Y-17299500D01*
X78638881Y-17329059D01*
X78459163Y-17387454D01*
X78290800Y-17473240D01*
X78203579Y-17536610D01*
X78137927Y-17584310D01*
X78137925Y-17584312D01*
X78137924Y-17584312D01*
X78004312Y-17717924D01*
X78004312Y-17717925D01*
X78004310Y-17717927D01*
X77975250Y-17757925D01*
X77893240Y-17870800D01*
X77814985Y-18024385D01*
X77767010Y-18075181D01*
X77699189Y-18091976D01*
X77633054Y-18069439D01*
X77589603Y-18014723D01*
X77580500Y-17968090D01*
X77580500Y-17616739D01*
X77570573Y-17548608D01*
X77570573Y-17548607D01*
X77519198Y-17443517D01*
X77519196Y-17443515D01*
X77519196Y-17443514D01*
X77436485Y-17360803D01*
X77419484Y-17352492D01*
X77331393Y-17309427D01*
X77331391Y-17309426D01*
X77263261Y-17299500D01*
X77263260Y-17299500D01*
X75496740Y-17299500D01*
X75496739Y-17299500D01*
X75428608Y-17309426D01*
X75323514Y-17360803D01*
X75240803Y-17443514D01*
X75189426Y-17548608D01*
X75179500Y-17616739D01*
X75179500Y-19383260D01*
X75189426Y-19451391D01*
X75240803Y-19556485D01*
X75323514Y-19639196D01*
X75323515Y-19639196D01*
X75323517Y-19639198D01*
X75428607Y-19690573D01*
X75462673Y-19695536D01*
X75496739Y-19700500D01*
X75496740Y-19700500D01*
X77263261Y-19700500D01*
X77285971Y-19697191D01*
X77331393Y-19690573D01*
X77436483Y-19639198D01*
X77519198Y-19556483D01*
X77570573Y-19451393D01*
X77580500Y-19383260D01*
X77580500Y-19031909D01*
X77600185Y-18964870D01*
X77652989Y-18919115D01*
X77722147Y-18909171D01*
X77785703Y-18938196D01*
X77814984Y-18975613D01*
X77893240Y-19129199D01*
X78004310Y-19282073D01*
X78137927Y-19415690D01*
X78290801Y-19526760D01*
X78349136Y-19556483D01*
X78459163Y-19612545D01*
X78459165Y-19612545D01*
X78459168Y-19612547D01*
X78541185Y-19639196D01*
X78638881Y-19670940D01*
X78825514Y-19700500D01*
X78825519Y-19700500D01*
X79014486Y-19700500D01*
X79201118Y-19670940D01*
X79257725Y-19652547D01*
X79380832Y-19612547D01*
X79549199Y-19526760D01*
X79702073Y-19415690D01*
X79835690Y-19282073D01*
X79946760Y-19129199D01*
X80032547Y-18960832D01*
X80072069Y-18839195D01*
X80111507Y-18781521D01*
X80175866Y-18754323D01*
X80244712Y-18766238D01*
X80296188Y-18813482D01*
X80307930Y-18839194D01*
X80312573Y-18853482D01*
X80347454Y-18960836D01*
X80383668Y-19031909D01*
X80433240Y-19129199D01*
X80544310Y-19282073D01*
X80677927Y-19415690D01*
X80830801Y-19526760D01*
X80889136Y-19556483D01*
X80999163Y-19612545D01*
X80999165Y-19612545D01*
X80999168Y-19612547D01*
X81081185Y-19639196D01*
X81178881Y-19670940D01*
X81365514Y-19700500D01*
X81365519Y-19700500D01*
X81554486Y-19700500D01*
X81694195Y-19678371D01*
X81731829Y-19672411D01*
X81801122Y-19681365D01*
X81854574Y-19726361D01*
X81875214Y-19793113D01*
X81856489Y-19860427D01*
X81838908Y-19882565D01*
X68528294Y-33193181D01*
X68466971Y-33226666D01*
X68440613Y-33229500D01*
X56462847Y-33229500D01*
X56395808Y-33209815D01*
X56352363Y-33161797D01*
X56351143Y-33159403D01*
X56346760Y-33150801D01*
X56235690Y-32997927D01*
X56102073Y-32864310D01*
X55949199Y-32753240D01*
X55780836Y-32667454D01*
X55601118Y-32609059D01*
X55414486Y-32579500D01*
X55414481Y-32579500D01*
X55225519Y-32579500D01*
X55225514Y-32579500D01*
X55038881Y-32609059D01*
X54859163Y-32667454D01*
X54690800Y-32753240D01*
X54620149Y-32804572D01*
X54537927Y-32864310D01*
X54537925Y-32864312D01*
X54537924Y-32864312D01*
X54404312Y-32997924D01*
X54404312Y-32997925D01*
X54404310Y-32997927D01*
X54356610Y-33063579D01*
X54293240Y-33150800D01*
X54207454Y-33319163D01*
X54167931Y-33440803D01*
X54128493Y-33498478D01*
X54064134Y-33525676D01*
X53995288Y-33513761D01*
X53943812Y-33466516D01*
X53932069Y-33440803D01*
X53904248Y-33355181D01*
X53892547Y-33319168D01*
X53892545Y-33319165D01*
X53892545Y-33319163D01*
X53836829Y-33209815D01*
X53806760Y-33150801D01*
X53695690Y-32997927D01*
X53562073Y-32864310D01*
X53409199Y-32753240D01*
X53240836Y-32667454D01*
X53061118Y-32609059D01*
X52874486Y-32579500D01*
X52874481Y-32579500D01*
X52685519Y-32579500D01*
X52685514Y-32579500D01*
X52498881Y-32609059D01*
X52319163Y-32667454D01*
X52150800Y-32753240D01*
X52080149Y-32804572D01*
X51997927Y-32864310D01*
X51997925Y-32864312D01*
X51997924Y-32864312D01*
X51864312Y-32997924D01*
X51864312Y-32997925D01*
X51864310Y-32997927D01*
X51816610Y-33063579D01*
X51753240Y-33150800D01*
X51667454Y-33319163D01*
X51627931Y-33440803D01*
X51588493Y-33498478D01*
X51524134Y-33525676D01*
X51455288Y-33513761D01*
X51403812Y-33466516D01*
X51392069Y-33440803D01*
X51364248Y-33355181D01*
X51352547Y-33319168D01*
X51352545Y-33319165D01*
X51352545Y-33319163D01*
X51296829Y-33209815D01*
X51266760Y-33150801D01*
X51155690Y-32997927D01*
X51022073Y-32864310D01*
X50869199Y-32753240D01*
X50700836Y-32667454D01*
X50521118Y-32609059D01*
X50334486Y-32579500D01*
X50334481Y-32579500D01*
X50145519Y-32579500D01*
X50145514Y-32579500D01*
X49958881Y-32609059D01*
X49779163Y-32667454D01*
X49610800Y-32753240D01*
X49540149Y-32804572D01*
X49457927Y-32864310D01*
X49457925Y-32864312D01*
X49457924Y-32864312D01*
X49324312Y-32997924D01*
X49324312Y-32997925D01*
X49324310Y-32997927D01*
X49276610Y-33063579D01*
X49213240Y-33150800D01*
X49127454Y-33319163D01*
X49087931Y-33440803D01*
X49048493Y-33498478D01*
X48984134Y-33525676D01*
X48915288Y-33513761D01*
X48863812Y-33466516D01*
X48852069Y-33440803D01*
X48824248Y-33355181D01*
X48812547Y-33319168D01*
X48812545Y-33319165D01*
X48812545Y-33319163D01*
X48756829Y-33209815D01*
X48726760Y-33150801D01*
X48615690Y-32997927D01*
X48482073Y-32864310D01*
X48329199Y-32753240D01*
X48160836Y-32667454D01*
X47981118Y-32609059D01*
X47794486Y-32579500D01*
X47794481Y-32579500D01*
X47605519Y-32579500D01*
X47605514Y-32579500D01*
X47418881Y-32609059D01*
X47239163Y-32667454D01*
X47070800Y-32753240D01*
X47000149Y-32804572D01*
X46917927Y-32864310D01*
X46917925Y-32864312D01*
X46917924Y-32864312D01*
X46784312Y-32997924D01*
X46784312Y-32997925D01*
X46784310Y-32997927D01*
X46736610Y-33063579D01*
X46673240Y-33150800D01*
X46587454Y-33319163D01*
X46547931Y-33440803D01*
X46508493Y-33498478D01*
X46444134Y-33525676D01*
X46375288Y-33513761D01*
X46323812Y-33466516D01*
X46312069Y-33440803D01*
X46284248Y-33355181D01*
X46272547Y-33319168D01*
X46272545Y-33319165D01*
X46272545Y-33319163D01*
X46216829Y-33209815D01*
X46186760Y-33150801D01*
X46075690Y-32997927D01*
X45942073Y-32864310D01*
X45789199Y-32753240D01*
X45620836Y-32667454D01*
X45441118Y-32609059D01*
X45254486Y-32579500D01*
X45254481Y-32579500D01*
X45065519Y-32579500D01*
X45065514Y-32579500D01*
X44878881Y-32609059D01*
X44699163Y-32667454D01*
X44530800Y-32753240D01*
X44460149Y-32804572D01*
X44377927Y-32864310D01*
X44377925Y-32864312D01*
X44377924Y-32864312D01*
X44244312Y-32997924D01*
X44244312Y-32997925D01*
X44244310Y-32997927D01*
X44196610Y-33063579D01*
X44133240Y-33150800D01*
X44047454Y-33319163D01*
X44007931Y-33440803D01*
X43968493Y-33498478D01*
X43904134Y-33525676D01*
X43835288Y-33513761D01*
X43783812Y-33466516D01*
X43772069Y-33440803D01*
X43744248Y-33355181D01*
X43732547Y-33319168D01*
X43732545Y-33319165D01*
X43732545Y-33319163D01*
X43676829Y-33209815D01*
X43646760Y-33150801D01*
X43535690Y-32997927D01*
X43402073Y-32864310D01*
X43249199Y-32753240D01*
X43080836Y-32667454D01*
X42901118Y-32609059D01*
X42714486Y-32579500D01*
X42714481Y-32579500D01*
X42525519Y-32579500D01*
X42525514Y-32579500D01*
X42338881Y-32609059D01*
X42159163Y-32667454D01*
X41990800Y-32753240D01*
X41920149Y-32804572D01*
X41837927Y-32864310D01*
X41837925Y-32864312D01*
X41837924Y-32864312D01*
X41704312Y-32997924D01*
X41704312Y-32997925D01*
X41704310Y-32997927D01*
X41656610Y-33063579D01*
X41593240Y-33150800D01*
X41507454Y-33319163D01*
X41467931Y-33440803D01*
X41428493Y-33498478D01*
X41364134Y-33525676D01*
X41295288Y-33513761D01*
X41243812Y-33466516D01*
X41232069Y-33440803D01*
X41204248Y-33355181D01*
X41192547Y-33319168D01*
X41192545Y-33319165D01*
X41192545Y-33319163D01*
X41136829Y-33209815D01*
X41106760Y-33150801D01*
X40995690Y-32997927D01*
X40862073Y-32864310D01*
X40709199Y-32753240D01*
X40540836Y-32667454D01*
X40361118Y-32609059D01*
X40174486Y-32579500D01*
X40174481Y-32579500D01*
X39985519Y-32579500D01*
X39985514Y-32579500D01*
X39798881Y-32609059D01*
X39619163Y-32667454D01*
X39450800Y-32753240D01*
X39380149Y-32804572D01*
X39297927Y-32864310D01*
X39297925Y-32864312D01*
X39297924Y-32864312D01*
X39164312Y-32997924D01*
X39164312Y-32997925D01*
X39164310Y-32997927D01*
X39116610Y-33063579D01*
X39053240Y-33150800D01*
X38967454Y-33319163D01*
X38927931Y-33440803D01*
X38888493Y-33498478D01*
X38824134Y-33525676D01*
X38755288Y-33513761D01*
X38703812Y-33466516D01*
X38692069Y-33440803D01*
X38664248Y-33355181D01*
X38652547Y-33319168D01*
X38652545Y-33319165D01*
X38652545Y-33319163D01*
X38596829Y-33209815D01*
X38566760Y-33150801D01*
X38455690Y-32997927D01*
X38322073Y-32864310D01*
X38169199Y-32753240D01*
X38000836Y-32667454D01*
X37821118Y-32609059D01*
X37634486Y-32579500D01*
X37634481Y-32579500D01*
X37445519Y-32579500D01*
X37445514Y-32579500D01*
X37258881Y-32609059D01*
X37079163Y-32667454D01*
X36910800Y-32753240D01*
X36840149Y-32804572D01*
X36757927Y-32864310D01*
X36757925Y-32864312D01*
X36757924Y-32864312D01*
X36624312Y-32997924D01*
X36624312Y-32997925D01*
X36624310Y-32997927D01*
X36576610Y-33063579D01*
X36513240Y-33150800D01*
X36434985Y-33304385D01*
X36387010Y-33355181D01*
X36319189Y-33371976D01*
X36253054Y-33349439D01*
X36209603Y-33294723D01*
X36200500Y-33248090D01*
X36200500Y-32896739D01*
X36190573Y-32828608D01*
X36178823Y-32804572D01*
X36139198Y-32723517D01*
X36139196Y-32723515D01*
X36139196Y-32723514D01*
X36056485Y-32640803D01*
X35951391Y-32589426D01*
X35883261Y-32579500D01*
X35883260Y-32579500D01*
X34116740Y-32579500D01*
X34116739Y-32579500D01*
X34048608Y-32589426D01*
X33943514Y-32640803D01*
X33860803Y-32723514D01*
X33809426Y-32828608D01*
X33799500Y-32896739D01*
X33799500Y-34663260D01*
X33809426Y-34731391D01*
X33860803Y-34836485D01*
X33943514Y-34919196D01*
X33943515Y-34919196D01*
X33943517Y-34919198D01*
X34048607Y-34970573D01*
X34082673Y-34975536D01*
X34116739Y-34980500D01*
X34116740Y-34980500D01*
X35370613Y-34980500D01*
X35437652Y-35000185D01*
X35458294Y-35016819D01*
X56953181Y-56511706D01*
X56986666Y-56573029D01*
X56989500Y-56599387D01*
X56989500Y-58213319D01*
X56969815Y-58280358D01*
X56951842Y-58299855D01*
X56953072Y-58301085D01*
X56947074Y-58307082D01*
X56855639Y-58427656D01*
X56800122Y-58568438D01*
X56794322Y-58616740D01*
X56789500Y-58656898D01*
X56789500Y-60343102D01*
X56794317Y-60383217D01*
X56800122Y-60431561D01*
X56855639Y-60572343D01*
X56947077Y-60692922D01*
X57067656Y-60784360D01*
X57067657Y-60784360D01*
X57067658Y-60784361D01*
X57208436Y-60839877D01*
X57296898Y-60850500D01*
X57296903Y-60850500D01*
X57783097Y-60850500D01*
X57783102Y-60850500D01*
X57871564Y-60839877D01*
X58012342Y-60784361D01*
X58132922Y-60692922D01*
X58224361Y-60572342D01*
X58279877Y-60431564D01*
X58289931Y-60347844D01*
X61040000Y-60347844D01*
X61046401Y-60407372D01*
X61046403Y-60407379D01*
X61096645Y-60542086D01*
X61096649Y-60542093D01*
X61182809Y-60657187D01*
X61182812Y-60657190D01*
X61297906Y-60743350D01*
X61297913Y-60743354D01*
X61432620Y-60793596D01*
X61432627Y-60793598D01*
X61492155Y-60799999D01*
X61492172Y-60800000D01*
X61540000Y-60800000D01*
X61940000Y-60800000D01*
X61987828Y-60800000D01*
X61987844Y-60799999D01*
X62047372Y-60793598D01*
X62047379Y-60793596D01*
X62182086Y-60743354D01*
X62182093Y-60743350D01*
X62297187Y-60657190D01*
X62297190Y-60657187D01*
X62383350Y-60542093D01*
X62383354Y-60542086D01*
X62433596Y-60407379D01*
X62433598Y-60407372D01*
X62439999Y-60347844D01*
X62440000Y-60347827D01*
X62440000Y-59700000D01*
X61940000Y-59700000D01*
X61940000Y-60800000D01*
X61540000Y-60800000D01*
X61540000Y-59700000D01*
X61040000Y-59700000D01*
X61040000Y-60347844D01*
X58289931Y-60347844D01*
X58290500Y-60343102D01*
X58290500Y-58656898D01*
X58279877Y-58568436D01*
X58224361Y-58427658D01*
X58224360Y-58427657D01*
X58224360Y-58427656D01*
X58132925Y-58307082D01*
X58132922Y-58307078D01*
X58132917Y-58307074D01*
X58126928Y-58301085D01*
X58129462Y-58298550D01*
X58097895Y-58255501D01*
X58090500Y-58213319D01*
X58090500Y-56247527D01*
X58090500Y-56247525D01*
X58052984Y-56107515D01*
X57980510Y-55981985D01*
X37161090Y-35162565D01*
X37127605Y-35101242D01*
X37132589Y-35031550D01*
X37174461Y-34975617D01*
X37239925Y-34951200D01*
X37268169Y-34952411D01*
X37445514Y-34980500D01*
X37445519Y-34980500D01*
X37634486Y-34980500D01*
X37821118Y-34950940D01*
X37839005Y-34945128D01*
X38000832Y-34892547D01*
X38057864Y-34863487D01*
X38126530Y-34850592D01*
X38191270Y-34876868D01*
X38201837Y-34886292D01*
X61361246Y-58045701D01*
X61394731Y-58107024D01*
X61389747Y-58176716D01*
X61347875Y-58232649D01*
X61316901Y-58249563D01*
X61297914Y-58256645D01*
X61297906Y-58256649D01*
X61182812Y-58342809D01*
X61182809Y-58342812D01*
X61096649Y-58457906D01*
X61096645Y-58457913D01*
X61046403Y-58592620D01*
X61046401Y-58592627D01*
X61040000Y-58652155D01*
X61040000Y-59300000D01*
X62439999Y-59300000D01*
X62440090Y-59299909D01*
X62501412Y-59266423D01*
X62571104Y-59271407D01*
X62615453Y-59299908D01*
X65253181Y-61937636D01*
X65286666Y-61998959D01*
X65289500Y-62025317D01*
X65289500Y-65213319D01*
X65269815Y-65280358D01*
X65251842Y-65299855D01*
X65253072Y-65301085D01*
X65247074Y-65307082D01*
X65155639Y-65427656D01*
X65100122Y-65568438D01*
X65097218Y-65592627D01*
X65089500Y-65656898D01*
X65089500Y-67343102D01*
X65090960Y-67355258D01*
X65100122Y-67431561D01*
X65155639Y-67572343D01*
X65247077Y-67692922D01*
X65367656Y-67784360D01*
X65367657Y-67784360D01*
X65367658Y-67784361D01*
X65508436Y-67839877D01*
X65596898Y-67850500D01*
X65596903Y-67850500D01*
X66083097Y-67850500D01*
X66083102Y-67850500D01*
X66171564Y-67839877D01*
X66312342Y-67784361D01*
X66432922Y-67692922D01*
X66524361Y-67572342D01*
X66579877Y-67431564D01*
X66589931Y-67347844D01*
X69340000Y-67347844D01*
X69346401Y-67407372D01*
X69346403Y-67407379D01*
X69396645Y-67542086D01*
X69396649Y-67542093D01*
X69482809Y-67657187D01*
X69482812Y-67657190D01*
X69597906Y-67743350D01*
X69597913Y-67743354D01*
X69732620Y-67793596D01*
X69732627Y-67793598D01*
X69792155Y-67799999D01*
X69792172Y-67800000D01*
X69840000Y-67800000D01*
X70240000Y-67800000D01*
X70287828Y-67800000D01*
X70287844Y-67799999D01*
X70347372Y-67793598D01*
X70347379Y-67793596D01*
X70482086Y-67743354D01*
X70482093Y-67743350D01*
X70597187Y-67657190D01*
X70597190Y-67657187D01*
X70683350Y-67542093D01*
X70683354Y-67542086D01*
X70733596Y-67407379D01*
X70733598Y-67407372D01*
X70739999Y-67347844D01*
X70740000Y-67347827D01*
X70740000Y-66700000D01*
X70240000Y-66700000D01*
X70240000Y-67800000D01*
X69840000Y-67800000D01*
X69840000Y-66700000D01*
X69340000Y-66700000D01*
X69340000Y-67347844D01*
X66589931Y-67347844D01*
X66590500Y-67343102D01*
X66590500Y-66579387D01*
X66610185Y-66512348D01*
X66626819Y-66491706D01*
X67466370Y-65652155D01*
X69340000Y-65652155D01*
X69340000Y-66300000D01*
X69840000Y-66300000D01*
X70240000Y-66300000D01*
X70740000Y-66300000D01*
X70740000Y-65652172D01*
X70739999Y-65652155D01*
X70733598Y-65592627D01*
X70733596Y-65592620D01*
X70683354Y-65457913D01*
X70683350Y-65457906D01*
X70597190Y-65342812D01*
X70597187Y-65342809D01*
X70482093Y-65256649D01*
X70482086Y-65256645D01*
X70347379Y-65206403D01*
X70347372Y-65206401D01*
X70287844Y-65200000D01*
X70240000Y-65200000D01*
X70240000Y-66300000D01*
X69840000Y-66300000D01*
X69840000Y-65200000D01*
X69792155Y-65200000D01*
X69732627Y-65206401D01*
X69732620Y-65206403D01*
X69597913Y-65256645D01*
X69597906Y-65256649D01*
X69482812Y-65342809D01*
X69482809Y-65342812D01*
X69396649Y-65457906D01*
X69396645Y-65457913D01*
X69346403Y-65592620D01*
X69346401Y-65592627D01*
X69340000Y-65652155D01*
X67466370Y-65652155D01*
X68531706Y-64586819D01*
X68593029Y-64553334D01*
X68619387Y-64550500D01*
X87675500Y-64550500D01*
X87742539Y-64570185D01*
X87788294Y-64622989D01*
X87799500Y-64674500D01*
X87799500Y-64883260D01*
X87809426Y-64951391D01*
X87860803Y-65056485D01*
X87943514Y-65139196D01*
X87943515Y-65139196D01*
X87943517Y-65139198D01*
X88048607Y-65190573D01*
X88082673Y-65195536D01*
X88116739Y-65200500D01*
X88116740Y-65200500D01*
X89883261Y-65200500D01*
X89905971Y-65197191D01*
X89951393Y-65190573D01*
X90056483Y-65139198D01*
X90139198Y-65056483D01*
X90190573Y-64951393D01*
X90200500Y-64883260D01*
X90200500Y-64531909D01*
X90220185Y-64464870D01*
X90272989Y-64419115D01*
X90342147Y-64409171D01*
X90405703Y-64438196D01*
X90434984Y-64475613D01*
X90513240Y-64629199D01*
X90624310Y-64782073D01*
X90757927Y-64915690D01*
X90910801Y-65026760D01*
X90969136Y-65056483D01*
X91079163Y-65112545D01*
X91079165Y-65112545D01*
X91079168Y-65112547D01*
X91161185Y-65139196D01*
X91258881Y-65170940D01*
X91445514Y-65200500D01*
X91445519Y-65200500D01*
X91634486Y-65200500D01*
X91821118Y-65170940D01*
X92000832Y-65112547D01*
X92169199Y-65026760D01*
X92322073Y-64915690D01*
X92455690Y-64782073D01*
X92566760Y-64629199D01*
X92652547Y-64460832D01*
X92710940Y-64281118D01*
X92713092Y-64267532D01*
X92743021Y-64204397D01*
X92802332Y-64167465D01*
X92872194Y-64168463D01*
X92930427Y-64207072D01*
X92956731Y-64264668D01*
X92957181Y-64264561D01*
X92957733Y-64266863D01*
X92958039Y-64267532D01*
X92958318Y-64269298D01*
X93014251Y-64441444D01*
X93014252Y-64441447D01*
X93096434Y-64602734D01*
X93137667Y-64659487D01*
X93137668Y-64659487D01*
X93611980Y-64185176D01*
X93614075Y-64192993D01*
X93679901Y-64307007D01*
X93772993Y-64400099D01*
X93887007Y-64465925D01*
X93894822Y-64468019D01*
X93420510Y-64942330D01*
X93420511Y-64942331D01*
X93477265Y-64983565D01*
X93638552Y-65065747D01*
X93638555Y-65065748D01*
X93810706Y-65121682D01*
X93989494Y-65150000D01*
X94170506Y-65150000D01*
X94349293Y-65121682D01*
X94521444Y-65065748D01*
X94521447Y-65065747D01*
X94682730Y-64983568D01*
X94739487Y-64942330D01*
X94739488Y-64942329D01*
X94265178Y-64468019D01*
X94272993Y-64465925D01*
X94387007Y-64400099D01*
X94480099Y-64307007D01*
X94545925Y-64192993D01*
X94548019Y-64185177D01*
X95022329Y-64659488D01*
X95022330Y-64659487D01*
X95063568Y-64602730D01*
X95145747Y-64441447D01*
X95145748Y-64441444D01*
X95201682Y-64269293D01*
X95230000Y-64090506D01*
X95230000Y-63909493D01*
X95201682Y-63730706D01*
X95145748Y-63558555D01*
X95145747Y-63558552D01*
X95063565Y-63397265D01*
X95022331Y-63340511D01*
X95022330Y-63340510D01*
X94548018Y-63814821D01*
X94545925Y-63807007D01*
X94480099Y-63692993D01*
X94387007Y-63599901D01*
X94272993Y-63534075D01*
X94265176Y-63531980D01*
X94739487Y-63057668D01*
X94739487Y-63057667D01*
X94682734Y-63016434D01*
X94521447Y-62934252D01*
X94521444Y-62934251D01*
X94349293Y-62878317D01*
X94170506Y-62850000D01*
X93989494Y-62850000D01*
X93810706Y-62878317D01*
X93638555Y-62934251D01*
X93638552Y-62934252D01*
X93477270Y-63016431D01*
X93477268Y-63016432D01*
X93420511Y-63057667D01*
X93420511Y-63057668D01*
X93894823Y-63531980D01*
X93887007Y-63534075D01*
X93772993Y-63599901D01*
X93679901Y-63692993D01*
X93614075Y-63807007D01*
X93611980Y-63814823D01*
X93137668Y-63340511D01*
X93137667Y-63340511D01*
X93096432Y-63397268D01*
X93096431Y-63397270D01*
X93014252Y-63558552D01*
X93014251Y-63558555D01*
X92958317Y-63730705D01*
X92958038Y-63732470D01*
X92957745Y-63733086D01*
X92957181Y-63735439D01*
X92956686Y-63735320D01*
X92928108Y-63795604D01*
X92868796Y-63832534D01*
X92798933Y-63831536D01*
X92740701Y-63792925D01*
X92713092Y-63732468D01*
X92710940Y-63718881D01*
X92667215Y-63584312D01*
X92652547Y-63539168D01*
X92652545Y-63539165D01*
X92652545Y-63539163D01*
X92601149Y-63438294D01*
X92566760Y-63370801D01*
X92455690Y-63217927D01*
X92322073Y-63084310D01*
X92169199Y-62973240D01*
X92000836Y-62887454D01*
X91821118Y-62829059D01*
X91634486Y-62799500D01*
X91634481Y-62799500D01*
X91445519Y-62799500D01*
X91445514Y-62799500D01*
X91258881Y-62829059D01*
X91079163Y-62887454D01*
X90910800Y-62973240D01*
X90851350Y-63016434D01*
X90757927Y-63084310D01*
X90757925Y-63084312D01*
X90757924Y-63084312D01*
X90624312Y-63217924D01*
X90624312Y-63217925D01*
X90624310Y-63217927D01*
X90576610Y-63283579D01*
X90513240Y-63370800D01*
X90434985Y-63524385D01*
X90387010Y-63575181D01*
X90319189Y-63591976D01*
X90253054Y-63569439D01*
X90209603Y-63514723D01*
X90200500Y-63468090D01*
X90200500Y-63116739D01*
X90190573Y-63048608D01*
X90190573Y-63048607D01*
X90139198Y-62943517D01*
X90139196Y-62943515D01*
X90139196Y-62943514D01*
X90056485Y-62860803D01*
X89951391Y-62809426D01*
X89883261Y-62799500D01*
X89883260Y-62799500D01*
X88116740Y-62799500D01*
X88116739Y-62799500D01*
X88048608Y-62809426D01*
X87943514Y-62860803D01*
X87860803Y-62943514D01*
X87809426Y-63048608D01*
X87799500Y-63116739D01*
X87799500Y-63325500D01*
X87779815Y-63392539D01*
X87727011Y-63438294D01*
X87675500Y-63449500D01*
X68267525Y-63449500D01*
X68162517Y-63477637D01*
X68127514Y-63487016D01*
X68001986Y-63559489D01*
X68001983Y-63559491D01*
X66602181Y-64959294D01*
X66540858Y-64992779D01*
X66471166Y-64987795D01*
X66415233Y-64945923D01*
X66390816Y-64880459D01*
X66390500Y-64871613D01*
X66390500Y-61673457D01*
X66390500Y-61673455D01*
X66352984Y-61533445D01*
X66348739Y-61526093D01*
X66348737Y-61526084D01*
X66348735Y-61526086D01*
X66280510Y-61407915D01*
X40064776Y-35192181D01*
X40031291Y-35130858D01*
X40036275Y-35061166D01*
X40078147Y-35005233D01*
X40143611Y-34980816D01*
X40152457Y-34980500D01*
X40174486Y-34980500D01*
X40259316Y-34967063D01*
X40361118Y-34950940D01*
X40372846Y-34947128D01*
X40442684Y-34945128D01*
X40498851Y-34977376D01*
X64961985Y-59440510D01*
X65087515Y-59512984D01*
X65227525Y-59550500D01*
X65227526Y-59550500D01*
X65372474Y-59550500D01*
X74665500Y-59550500D01*
X74732539Y-59570185D01*
X74778294Y-59622989D01*
X74789500Y-59674500D01*
X74789500Y-59843102D01*
X74795126Y-59889954D01*
X74800122Y-59931561D01*
X74800122Y-59931563D01*
X74800123Y-59931564D01*
X74813257Y-59964870D01*
X74855639Y-60072343D01*
X74947077Y-60192922D01*
X75067656Y-60284360D01*
X75067657Y-60284360D01*
X75067658Y-60284361D01*
X75208436Y-60339877D01*
X75296898Y-60350500D01*
X75296903Y-60350500D01*
X75783097Y-60350500D01*
X75783102Y-60350500D01*
X75871564Y-60339877D01*
X75960703Y-60304724D01*
X76030288Y-60298443D01*
X76092224Y-60330779D01*
X76093873Y-60332398D01*
X76601985Y-60840510D01*
X76683294Y-60887453D01*
X76727515Y-60912984D01*
X76867525Y-60950500D01*
X76867526Y-60950500D01*
X76867528Y-60950500D01*
X88172472Y-60950500D01*
X88172474Y-60950500D01*
X88172475Y-60950500D01*
X88312485Y-60912984D01*
X88356706Y-60887453D01*
X88438015Y-60840510D01*
X88541706Y-60736819D01*
X88603029Y-60703334D01*
X88629387Y-60700500D01*
X89883261Y-60700500D01*
X89905971Y-60697191D01*
X89951393Y-60690573D01*
X90056483Y-60639198D01*
X90139198Y-60556483D01*
X90190573Y-60451393D01*
X90200500Y-60383260D01*
X90200500Y-60031909D01*
X90220185Y-59964870D01*
X90272989Y-59919115D01*
X90342147Y-59909171D01*
X90405703Y-59938196D01*
X90434984Y-59975613D01*
X90513240Y-60129199D01*
X90624310Y-60282073D01*
X90757927Y-60415690D01*
X90910801Y-60526760D01*
X90940894Y-60542093D01*
X91079163Y-60612545D01*
X91079165Y-60612545D01*
X91079168Y-60612547D01*
X91161185Y-60639196D01*
X91258881Y-60670940D01*
X91445514Y-60700500D01*
X91445519Y-60700500D01*
X91634486Y-60700500D01*
X91821118Y-60670940D01*
X91827895Y-60668738D01*
X92000832Y-60612547D01*
X92169199Y-60526760D01*
X92322073Y-60415690D01*
X92455690Y-60282073D01*
X92566760Y-60129199D01*
X92652547Y-59960832D01*
X92710940Y-59781118D01*
X92713092Y-59767532D01*
X92743021Y-59704397D01*
X92802332Y-59667465D01*
X92872194Y-59668463D01*
X92930427Y-59707072D01*
X92956731Y-59764668D01*
X92957181Y-59764561D01*
X92957733Y-59766863D01*
X92958039Y-59767532D01*
X92958318Y-59769298D01*
X93014251Y-59941444D01*
X93014252Y-59941447D01*
X93096434Y-60102734D01*
X93137667Y-60159487D01*
X93137668Y-60159487D01*
X93611980Y-59685176D01*
X93614075Y-59692993D01*
X93679901Y-59807007D01*
X93772993Y-59900099D01*
X93887007Y-59965925D01*
X93894822Y-59968019D01*
X93420510Y-60442330D01*
X93420511Y-60442331D01*
X93477265Y-60483565D01*
X93638552Y-60565747D01*
X93638555Y-60565748D01*
X93810706Y-60621682D01*
X93989494Y-60650000D01*
X94170506Y-60650000D01*
X94349293Y-60621682D01*
X94521444Y-60565748D01*
X94521447Y-60565747D01*
X94682730Y-60483568D01*
X94739487Y-60442330D01*
X94739488Y-60442329D01*
X94265178Y-59968019D01*
X94272993Y-59965925D01*
X94387007Y-59900099D01*
X94480099Y-59807007D01*
X94545925Y-59692993D01*
X94548019Y-59685177D01*
X95022329Y-60159488D01*
X95022330Y-60159487D01*
X95063568Y-60102730D01*
X95145747Y-59941447D01*
X95145748Y-59941444D01*
X95201682Y-59769293D01*
X95230000Y-59590506D01*
X95230000Y-59409493D01*
X95201682Y-59230706D01*
X95145748Y-59058555D01*
X95145747Y-59058552D01*
X95063565Y-58897265D01*
X95022331Y-58840511D01*
X95022330Y-58840510D01*
X94548018Y-59314821D01*
X94545925Y-59307007D01*
X94480099Y-59192993D01*
X94387007Y-59099901D01*
X94272993Y-59034075D01*
X94265176Y-59031980D01*
X94739487Y-58557668D01*
X94739487Y-58557667D01*
X94682734Y-58516434D01*
X94521447Y-58434252D01*
X94521444Y-58434251D01*
X94349293Y-58378317D01*
X94170506Y-58350000D01*
X93989494Y-58350000D01*
X93810706Y-58378317D01*
X93638555Y-58434251D01*
X93638552Y-58434252D01*
X93477270Y-58516431D01*
X93477268Y-58516432D01*
X93420511Y-58557667D01*
X93420511Y-58557668D01*
X93894823Y-59031980D01*
X93887007Y-59034075D01*
X93772993Y-59099901D01*
X93679901Y-59192993D01*
X93614075Y-59307007D01*
X93611980Y-59314823D01*
X93137668Y-58840511D01*
X93137667Y-58840511D01*
X93096432Y-58897268D01*
X93096431Y-58897270D01*
X93014252Y-59058552D01*
X93014251Y-59058555D01*
X92958317Y-59230705D01*
X92958038Y-59232470D01*
X92957745Y-59233086D01*
X92957181Y-59235439D01*
X92956686Y-59235320D01*
X92928108Y-59295604D01*
X92868796Y-59332534D01*
X92798933Y-59331536D01*
X92740701Y-59292925D01*
X92713092Y-59232468D01*
X92710940Y-59218881D01*
X92664248Y-59075181D01*
X92652547Y-59039168D01*
X92652545Y-59039165D01*
X92652545Y-59039163D01*
X92584053Y-58904741D01*
X92566760Y-58870801D01*
X92455690Y-58717927D01*
X92322073Y-58584310D01*
X92169199Y-58473240D01*
X92139118Y-58457913D01*
X92000836Y-58387454D01*
X91821118Y-58329059D01*
X91634486Y-58299500D01*
X91634481Y-58299500D01*
X91445519Y-58299500D01*
X91445514Y-58299500D01*
X91258881Y-58329059D01*
X91079163Y-58387454D01*
X90910800Y-58473240D01*
X90851350Y-58516434D01*
X90757927Y-58584310D01*
X90757925Y-58584312D01*
X90757924Y-58584312D01*
X90624312Y-58717924D01*
X90624312Y-58717925D01*
X90624310Y-58717927D01*
X90576610Y-58783579D01*
X90513240Y-58870800D01*
X90434985Y-59024385D01*
X90387010Y-59075181D01*
X90319189Y-59091976D01*
X90253054Y-59069439D01*
X90209603Y-59014723D01*
X90200500Y-58968090D01*
X90200500Y-58616739D01*
X90190573Y-58548608D01*
X90190573Y-58548607D01*
X90139198Y-58443517D01*
X90139196Y-58443515D01*
X90139196Y-58443514D01*
X90056485Y-58360803D01*
X89951391Y-58309426D01*
X89883261Y-58299500D01*
X89883260Y-58299500D01*
X88116740Y-58299500D01*
X88116739Y-58299500D01*
X88048608Y-58309426D01*
X87943514Y-58360803D01*
X87860803Y-58443514D01*
X87809426Y-58548608D01*
X87799500Y-58616739D01*
X87799500Y-59725500D01*
X87779815Y-59792539D01*
X87727011Y-59838294D01*
X87675500Y-59849500D01*
X80564000Y-59849500D01*
X80496961Y-59829815D01*
X80451206Y-59777011D01*
X80440000Y-59725500D01*
X80440000Y-59200000D01*
X79040000Y-59200000D01*
X79040000Y-59725500D01*
X79020315Y-59792539D01*
X78967511Y-59838294D01*
X78916000Y-59849500D01*
X77219387Y-59849500D01*
X77152348Y-59829815D01*
X77131706Y-59813181D01*
X76326819Y-59008294D01*
X76293334Y-58946971D01*
X76290500Y-58920613D01*
X76290500Y-58156903D01*
X76290500Y-58156898D01*
X76289930Y-58152155D01*
X79040000Y-58152155D01*
X79040000Y-58800000D01*
X79540000Y-58800000D01*
X79940000Y-58800000D01*
X80440000Y-58800000D01*
X80440000Y-58152172D01*
X80439999Y-58152155D01*
X80433598Y-58092627D01*
X80433596Y-58092620D01*
X80383354Y-57957913D01*
X80383350Y-57957906D01*
X80297190Y-57842812D01*
X80297187Y-57842809D01*
X80182093Y-57756649D01*
X80182086Y-57756645D01*
X80047379Y-57706403D01*
X80047372Y-57706401D01*
X79987844Y-57700000D01*
X79940000Y-57700000D01*
X79940000Y-58800000D01*
X79540000Y-58800000D01*
X79540000Y-57700000D01*
X79492155Y-57700000D01*
X79432627Y-57706401D01*
X79432620Y-57706403D01*
X79297913Y-57756645D01*
X79297906Y-57756649D01*
X79182812Y-57842809D01*
X79182809Y-57842812D01*
X79096649Y-57957906D01*
X79096645Y-57957913D01*
X79046403Y-58092620D01*
X79046401Y-58092627D01*
X79040000Y-58152155D01*
X76289930Y-58152155D01*
X76279877Y-58068436D01*
X76224361Y-57927658D01*
X76224360Y-57927657D01*
X76224360Y-57927656D01*
X76132922Y-57807077D01*
X76012343Y-57715639D01*
X75916192Y-57677722D01*
X75871564Y-57660123D01*
X75871563Y-57660122D01*
X75871561Y-57660122D01*
X75825926Y-57654642D01*
X75783102Y-57649500D01*
X75296898Y-57649500D01*
X75257853Y-57654188D01*
X75208438Y-57660122D01*
X75067656Y-57715639D01*
X74947077Y-57807077D01*
X74855639Y-57927656D01*
X74800122Y-58068438D01*
X74797218Y-58092627D01*
X74789500Y-58156898D01*
X74789500Y-58156903D01*
X74789500Y-58325500D01*
X74769815Y-58392539D01*
X74717011Y-58438294D01*
X74665500Y-58449500D01*
X65579387Y-58449500D01*
X65512348Y-58429815D01*
X65491706Y-58413181D01*
X42241090Y-35162565D01*
X42207605Y-35101242D01*
X42212589Y-35031550D01*
X42254461Y-34975617D01*
X42319925Y-34951200D01*
X42348169Y-34952411D01*
X42525514Y-34980500D01*
X42525519Y-34980500D01*
X42714486Y-34980500D01*
X42799316Y-34967063D01*
X42901118Y-34950940D01*
X42912846Y-34947128D01*
X42982684Y-34945128D01*
X43038851Y-34977376D01*
X61001985Y-52940510D01*
X61085769Y-52988882D01*
X61127515Y-53012984D01*
X61267525Y-53050500D01*
X61267526Y-53050500D01*
X61412474Y-53050500D01*
X64965500Y-53050500D01*
X65032539Y-53070185D01*
X65078294Y-53122989D01*
X65089500Y-53174500D01*
X65089500Y-53343102D01*
X65092068Y-53364486D01*
X65100122Y-53431561D01*
X65100122Y-53431563D01*
X65100123Y-53431564D01*
X65104837Y-53443517D01*
X65155639Y-53572343D01*
X65247077Y-53692922D01*
X65367656Y-53784360D01*
X65367657Y-53784360D01*
X65367658Y-53784361D01*
X65508436Y-53839877D01*
X65596898Y-53850500D01*
X65596903Y-53850500D01*
X66083097Y-53850500D01*
X66083102Y-53850500D01*
X66171564Y-53839877D01*
X66260703Y-53804724D01*
X66330288Y-53798443D01*
X66392224Y-53830779D01*
X66393873Y-53832398D01*
X67501985Y-54940510D01*
X67627515Y-55012984D01*
X67767525Y-55050500D01*
X67767526Y-55050500D01*
X67912474Y-55050500D01*
X87675500Y-55050500D01*
X87742539Y-55070185D01*
X87788294Y-55122989D01*
X87799500Y-55174500D01*
X87799500Y-55383260D01*
X87809426Y-55451391D01*
X87860803Y-55556485D01*
X87943514Y-55639196D01*
X87943515Y-55639196D01*
X87943517Y-55639198D01*
X88048607Y-55690573D01*
X88082673Y-55695536D01*
X88116739Y-55700500D01*
X88116740Y-55700500D01*
X89883261Y-55700500D01*
X89905971Y-55697191D01*
X89951393Y-55690573D01*
X90056483Y-55639198D01*
X90139198Y-55556483D01*
X90190573Y-55451393D01*
X90200500Y-55383260D01*
X90200500Y-55031909D01*
X90220185Y-54964870D01*
X90272989Y-54919115D01*
X90342147Y-54909171D01*
X90405703Y-54938196D01*
X90434984Y-54975613D01*
X90513240Y-55129199D01*
X90624310Y-55282073D01*
X90757927Y-55415690D01*
X90910801Y-55526760D01*
X90969136Y-55556483D01*
X91079163Y-55612545D01*
X91079165Y-55612545D01*
X91079168Y-55612547D01*
X91161185Y-55639196D01*
X91258881Y-55670940D01*
X91445514Y-55700500D01*
X91445519Y-55700500D01*
X91634486Y-55700500D01*
X91821118Y-55670940D01*
X91866390Y-55656230D01*
X92000832Y-55612547D01*
X92169199Y-55526760D01*
X92322073Y-55415690D01*
X92455690Y-55282073D01*
X92566760Y-55129199D01*
X92652547Y-54960832D01*
X92710940Y-54781118D01*
X92713092Y-54767532D01*
X92743021Y-54704397D01*
X92802332Y-54667465D01*
X92872194Y-54668463D01*
X92930427Y-54707072D01*
X92956731Y-54764668D01*
X92957181Y-54764561D01*
X92957733Y-54766863D01*
X92958039Y-54767532D01*
X92958318Y-54769298D01*
X93014251Y-54941444D01*
X93014252Y-54941447D01*
X93096434Y-55102734D01*
X93137667Y-55159487D01*
X93137668Y-55159487D01*
X93611980Y-54685176D01*
X93614075Y-54692993D01*
X93679901Y-54807007D01*
X93772993Y-54900099D01*
X93887007Y-54965925D01*
X93894822Y-54968019D01*
X93420510Y-55442330D01*
X93420511Y-55442331D01*
X93477265Y-55483565D01*
X93638552Y-55565747D01*
X93638555Y-55565748D01*
X93810706Y-55621682D01*
X93989494Y-55650000D01*
X94170506Y-55650000D01*
X94349293Y-55621682D01*
X94521444Y-55565748D01*
X94521447Y-55565747D01*
X94682730Y-55483568D01*
X94739487Y-55442330D01*
X94739488Y-55442329D01*
X94265178Y-54968019D01*
X94272993Y-54965925D01*
X94387007Y-54900099D01*
X94480099Y-54807007D01*
X94545925Y-54692993D01*
X94548019Y-54685177D01*
X95022329Y-55159488D01*
X95022330Y-55159487D01*
X95063568Y-55102730D01*
X95145747Y-54941447D01*
X95145748Y-54941444D01*
X95201682Y-54769293D01*
X95230000Y-54590506D01*
X95230000Y-54409493D01*
X95201682Y-54230706D01*
X95145748Y-54058555D01*
X95145747Y-54058552D01*
X95063565Y-53897265D01*
X95022331Y-53840511D01*
X95022330Y-53840510D01*
X94548018Y-54314821D01*
X94545925Y-54307007D01*
X94480099Y-54192993D01*
X94387007Y-54099901D01*
X94272993Y-54034075D01*
X94265176Y-54031980D01*
X94739487Y-53557668D01*
X94739487Y-53557667D01*
X94682734Y-53516434D01*
X94521447Y-53434252D01*
X94521444Y-53434251D01*
X94349293Y-53378317D01*
X94170506Y-53350000D01*
X93989494Y-53350000D01*
X93810706Y-53378317D01*
X93638555Y-53434251D01*
X93638552Y-53434252D01*
X93477270Y-53516431D01*
X93477268Y-53516432D01*
X93420511Y-53557667D01*
X93420511Y-53557668D01*
X93894823Y-54031980D01*
X93887007Y-54034075D01*
X93772993Y-54099901D01*
X93679901Y-54192993D01*
X93614075Y-54307007D01*
X93611980Y-54314823D01*
X93137668Y-53840511D01*
X93137667Y-53840511D01*
X93096432Y-53897268D01*
X93096431Y-53897270D01*
X93014252Y-54058552D01*
X93014251Y-54058555D01*
X92958317Y-54230705D01*
X92958038Y-54232470D01*
X92957745Y-54233086D01*
X92957181Y-54235439D01*
X92956686Y-54235320D01*
X92928108Y-54295604D01*
X92868796Y-54332534D01*
X92798933Y-54331536D01*
X92740701Y-54292925D01*
X92713092Y-54232468D01*
X92710940Y-54218881D01*
X92664248Y-54075181D01*
X92652547Y-54039168D01*
X92652545Y-54039165D01*
X92652545Y-54039163D01*
X92588354Y-53913182D01*
X92566760Y-53870801D01*
X92455690Y-53717927D01*
X92322073Y-53584310D01*
X92169199Y-53473240D01*
X92149088Y-53462993D01*
X92000836Y-53387454D01*
X91821118Y-53329059D01*
X91634486Y-53299500D01*
X91634481Y-53299500D01*
X91445519Y-53299500D01*
X91445514Y-53299500D01*
X91258881Y-53329059D01*
X91079163Y-53387454D01*
X90910800Y-53473240D01*
X90851350Y-53516434D01*
X90757927Y-53584310D01*
X90757925Y-53584312D01*
X90757924Y-53584312D01*
X90624312Y-53717924D01*
X90624312Y-53717925D01*
X90624310Y-53717927D01*
X90618275Y-53726234D01*
X90513240Y-53870800D01*
X90434985Y-54024385D01*
X90387010Y-54075181D01*
X90319189Y-54091976D01*
X90253054Y-54069439D01*
X90209603Y-54014723D01*
X90200500Y-53968090D01*
X90200500Y-53616739D01*
X90190573Y-53548608D01*
X90190573Y-53548607D01*
X90139198Y-53443517D01*
X90139196Y-53443515D01*
X90139196Y-53443514D01*
X90056485Y-53360803D01*
X90055877Y-53360506D01*
X89951393Y-53309427D01*
X89951391Y-53309426D01*
X89883261Y-53299500D01*
X89883260Y-53299500D01*
X88116740Y-53299500D01*
X88116739Y-53299500D01*
X88048608Y-53309426D01*
X87943514Y-53360803D01*
X87860803Y-53443514D01*
X87809426Y-53548608D01*
X87799500Y-53616739D01*
X87799500Y-53825500D01*
X87779815Y-53892539D01*
X87727011Y-53938294D01*
X87675500Y-53949500D01*
X70579269Y-53949500D01*
X70512230Y-53929815D01*
X70466475Y-53877011D01*
X70456531Y-53807853D01*
X70485556Y-53744297D01*
X70504958Y-53726234D01*
X70597187Y-53657190D01*
X70597190Y-53657187D01*
X70683350Y-53542093D01*
X70683354Y-53542086D01*
X70733596Y-53407379D01*
X70733598Y-53407372D01*
X70739999Y-53347844D01*
X70740000Y-53347827D01*
X70740000Y-52700000D01*
X69340000Y-52700000D01*
X69340000Y-53347844D01*
X69346401Y-53407372D01*
X69346403Y-53407379D01*
X69396645Y-53542086D01*
X69396649Y-53542093D01*
X69482809Y-53657187D01*
X69482812Y-53657190D01*
X69575042Y-53726234D01*
X69616913Y-53782168D01*
X69621897Y-53851859D01*
X69588411Y-53913182D01*
X69527088Y-53946666D01*
X69500731Y-53949500D01*
X68119387Y-53949500D01*
X68052348Y-53929815D01*
X68031706Y-53913181D01*
X66626819Y-52508294D01*
X66593334Y-52446971D01*
X66590500Y-52420613D01*
X66590500Y-51656903D01*
X66590500Y-51656898D01*
X66579877Y-51568436D01*
X66524361Y-51427658D01*
X66524360Y-51427657D01*
X66524360Y-51427656D01*
X66432922Y-51307077D01*
X66388385Y-51273304D01*
X66346861Y-51217111D01*
X66342310Y-51147390D01*
X66376175Y-51086276D01*
X66437705Y-51053172D01*
X66463310Y-51050500D01*
X69500731Y-51050500D01*
X69567770Y-51070185D01*
X69613525Y-51122989D01*
X69623469Y-51192147D01*
X69594444Y-51255703D01*
X69575042Y-51273766D01*
X69482812Y-51342809D01*
X69482809Y-51342812D01*
X69396649Y-51457906D01*
X69396645Y-51457913D01*
X69346403Y-51592620D01*
X69346401Y-51592627D01*
X69340000Y-51652155D01*
X69340000Y-52300000D01*
X70740000Y-52300000D01*
X70740000Y-51652172D01*
X70739999Y-51652155D01*
X70733598Y-51592627D01*
X70733596Y-51592620D01*
X70683354Y-51457913D01*
X70683350Y-51457906D01*
X70597190Y-51342812D01*
X70597187Y-51342809D01*
X70504958Y-51273766D01*
X70463087Y-51217832D01*
X70458103Y-51148141D01*
X70491589Y-51086818D01*
X70552912Y-51053334D01*
X70579269Y-51050500D01*
X87635500Y-51050500D01*
X87702539Y-51070185D01*
X87748294Y-51122989D01*
X87759500Y-51174500D01*
X87759500Y-51383260D01*
X87769426Y-51451391D01*
X87820803Y-51556485D01*
X87903514Y-51639196D01*
X87903515Y-51639196D01*
X87903517Y-51639198D01*
X88008607Y-51690573D01*
X88042673Y-51695536D01*
X88076739Y-51700500D01*
X88076740Y-51700500D01*
X89843261Y-51700500D01*
X89865971Y-51697191D01*
X89911393Y-51690573D01*
X90016483Y-51639198D01*
X90099198Y-51556483D01*
X90150573Y-51451393D01*
X90160500Y-51383260D01*
X90160500Y-51031909D01*
X90180185Y-50964870D01*
X90232989Y-50919115D01*
X90302147Y-50909171D01*
X90365703Y-50938196D01*
X90394984Y-50975613D01*
X90473240Y-51129199D01*
X90584310Y-51282073D01*
X90717927Y-51415690D01*
X90870801Y-51526760D01*
X90929136Y-51556483D01*
X91039163Y-51612545D01*
X91039165Y-51612545D01*
X91039168Y-51612547D01*
X91121185Y-51639196D01*
X91218881Y-51670940D01*
X91405514Y-51700500D01*
X91405519Y-51700500D01*
X91594486Y-51700500D01*
X91781118Y-51670940D01*
X91824319Y-51656903D01*
X91960832Y-51612547D01*
X92129199Y-51526760D01*
X92282073Y-51415690D01*
X92415690Y-51282073D01*
X92526760Y-51129199D01*
X92612547Y-50960832D01*
X92670940Y-50781118D01*
X92673092Y-50767532D01*
X92703021Y-50704397D01*
X92762332Y-50667465D01*
X92832194Y-50668463D01*
X92890427Y-50707072D01*
X92916731Y-50764668D01*
X92917181Y-50764561D01*
X92917733Y-50766863D01*
X92918039Y-50767532D01*
X92918318Y-50769298D01*
X92974251Y-50941444D01*
X92974252Y-50941447D01*
X93056434Y-51102734D01*
X93097667Y-51159487D01*
X93097668Y-51159487D01*
X93571980Y-50685176D01*
X93574075Y-50692993D01*
X93639901Y-50807007D01*
X93732993Y-50900099D01*
X93847007Y-50965925D01*
X93854822Y-50968019D01*
X93380510Y-51442330D01*
X93380511Y-51442331D01*
X93437265Y-51483565D01*
X93598552Y-51565747D01*
X93598555Y-51565748D01*
X93770706Y-51621682D01*
X93949494Y-51650000D01*
X94130506Y-51650000D01*
X94309293Y-51621682D01*
X94481444Y-51565748D01*
X94481447Y-51565747D01*
X94642730Y-51483568D01*
X94699487Y-51442330D01*
X94699488Y-51442329D01*
X94225178Y-50968019D01*
X94232993Y-50965925D01*
X94347007Y-50900099D01*
X94440099Y-50807007D01*
X94505925Y-50692993D01*
X94508019Y-50685177D01*
X94982329Y-51159488D01*
X94982330Y-51159487D01*
X95023568Y-51102730D01*
X95105747Y-50941447D01*
X95105748Y-50941444D01*
X95161682Y-50769293D01*
X95190000Y-50590506D01*
X95190000Y-50409493D01*
X95161682Y-50230706D01*
X95105748Y-50058555D01*
X95105747Y-50058552D01*
X95023565Y-49897265D01*
X94982331Y-49840511D01*
X94982330Y-49840510D01*
X94508018Y-50314821D01*
X94505925Y-50307007D01*
X94440099Y-50192993D01*
X94347007Y-50099901D01*
X94232993Y-50034075D01*
X94225176Y-50031980D01*
X94699487Y-49557668D01*
X94699487Y-49557667D01*
X94642734Y-49516434D01*
X94481447Y-49434252D01*
X94481444Y-49434251D01*
X94309293Y-49378317D01*
X94130506Y-49350000D01*
X93949494Y-49350000D01*
X93770706Y-49378317D01*
X93598555Y-49434251D01*
X93598552Y-49434252D01*
X93437270Y-49516431D01*
X93437268Y-49516432D01*
X93380511Y-49557667D01*
X93380511Y-49557668D01*
X93854823Y-50031980D01*
X93847007Y-50034075D01*
X93732993Y-50099901D01*
X93639901Y-50192993D01*
X93574075Y-50307007D01*
X93571980Y-50314823D01*
X93097668Y-49840511D01*
X93097667Y-49840511D01*
X93056432Y-49897268D01*
X93056431Y-49897270D01*
X92974252Y-50058552D01*
X92974251Y-50058555D01*
X92918317Y-50230705D01*
X92918038Y-50232470D01*
X92917745Y-50233086D01*
X92917181Y-50235439D01*
X92916686Y-50235320D01*
X92888108Y-50295604D01*
X92828796Y-50332534D01*
X92758933Y-50331536D01*
X92700701Y-50292925D01*
X92673092Y-50232468D01*
X92670940Y-50218881D01*
X92624248Y-50075181D01*
X92612547Y-50039168D01*
X92612545Y-50039165D01*
X92612545Y-50039163D01*
X92556829Y-49929815D01*
X92526760Y-49870801D01*
X92415690Y-49717927D01*
X92282073Y-49584310D01*
X92129199Y-49473240D01*
X91960836Y-49387454D01*
X91781118Y-49329059D01*
X91594486Y-49299500D01*
X91594481Y-49299500D01*
X91405519Y-49299500D01*
X91405514Y-49299500D01*
X91218881Y-49329059D01*
X91039163Y-49387454D01*
X90870800Y-49473240D01*
X90811350Y-49516434D01*
X90717927Y-49584310D01*
X90717925Y-49584312D01*
X90717924Y-49584312D01*
X90584312Y-49717924D01*
X90584312Y-49717925D01*
X90584310Y-49717927D01*
X90536610Y-49783579D01*
X90473240Y-49870800D01*
X90394985Y-50024385D01*
X90347010Y-50075181D01*
X90279189Y-50091976D01*
X90213054Y-50069439D01*
X90169603Y-50014723D01*
X90160500Y-49968090D01*
X90160500Y-49616739D01*
X90150573Y-49548608D01*
X90150573Y-49548607D01*
X90099198Y-49443517D01*
X90099196Y-49443515D01*
X90099196Y-49443514D01*
X90016485Y-49360803D01*
X89911391Y-49309426D01*
X89843261Y-49299500D01*
X89843260Y-49299500D01*
X88076740Y-49299500D01*
X88076739Y-49299500D01*
X88008608Y-49309426D01*
X87903514Y-49360803D01*
X87820803Y-49443514D01*
X87769426Y-49548608D01*
X87759500Y-49616739D01*
X87759500Y-49825500D01*
X87739815Y-49892539D01*
X87687011Y-49938294D01*
X87635500Y-49949500D01*
X62159387Y-49949500D01*
X62092348Y-49929815D01*
X62071706Y-49913181D01*
X47321090Y-35162565D01*
X47287605Y-35101242D01*
X47292589Y-35031550D01*
X47334461Y-34975617D01*
X47399925Y-34951200D01*
X47428169Y-34952411D01*
X47605514Y-34980500D01*
X47605519Y-34980500D01*
X47794486Y-34980500D01*
X47981118Y-34950940D01*
X47999005Y-34945128D01*
X48160832Y-34892547D01*
X48329199Y-34806760D01*
X48482073Y-34695690D01*
X48615690Y-34562073D01*
X48726760Y-34409199D01*
X48812547Y-34240832D01*
X48852069Y-34119195D01*
X48891507Y-34061521D01*
X48955866Y-34034323D01*
X49024712Y-34046238D01*
X49076188Y-34093482D01*
X49087931Y-34119196D01*
X49127454Y-34240836D01*
X49181756Y-34347408D01*
X49213240Y-34409199D01*
X49324310Y-34562073D01*
X49457927Y-34695690D01*
X49610801Y-34806760D01*
X49669136Y-34836483D01*
X49779163Y-34892545D01*
X49779165Y-34892545D01*
X49779168Y-34892547D01*
X49861185Y-34919196D01*
X49958881Y-34950940D01*
X50145514Y-34980500D01*
X50145519Y-34980500D01*
X50334486Y-34980500D01*
X50419316Y-34967063D01*
X50521118Y-34950940D01*
X50532846Y-34947128D01*
X50602684Y-34945128D01*
X50658851Y-34977376D01*
X56621985Y-40940510D01*
X56747515Y-41012984D01*
X56887525Y-41050500D01*
X56887526Y-41050500D01*
X57032474Y-41050500D01*
X58175500Y-41050500D01*
X58242539Y-41070185D01*
X58288294Y-41122989D01*
X58299500Y-41174500D01*
X58299500Y-41383260D01*
X58309426Y-41451391D01*
X58360803Y-41556485D01*
X58443514Y-41639196D01*
X58443515Y-41639196D01*
X58443517Y-41639198D01*
X58548607Y-41690573D01*
X58582673Y-41695536D01*
X58616739Y-41700500D01*
X59118173Y-41700500D01*
X59185212Y-41720185D01*
X59230967Y-41772989D01*
X59240911Y-41842147D01*
X59211886Y-41905703D01*
X59156491Y-41942431D01*
X59058555Y-41974251D01*
X59058552Y-41974252D01*
X58897270Y-42056431D01*
X58897268Y-42056432D01*
X58840511Y-42097667D01*
X58840511Y-42097668D01*
X59314823Y-42571980D01*
X59307007Y-42574075D01*
X59192993Y-42639901D01*
X59099901Y-42732993D01*
X59034075Y-42847007D01*
X59031980Y-42854823D01*
X58557668Y-42380511D01*
X58557667Y-42380511D01*
X58516432Y-42437268D01*
X58516431Y-42437270D01*
X58434252Y-42598552D01*
X58434251Y-42598555D01*
X58378317Y-42770706D01*
X58350000Y-42949493D01*
X58350000Y-43130506D01*
X58378317Y-43309293D01*
X58434251Y-43481444D01*
X58434252Y-43481447D01*
X58516434Y-43642734D01*
X58557667Y-43699487D01*
X58557668Y-43699487D01*
X59031980Y-43225176D01*
X59034075Y-43232993D01*
X59099901Y-43347007D01*
X59192993Y-43440099D01*
X59307007Y-43505925D01*
X59314822Y-43508019D01*
X58840510Y-43982330D01*
X58840511Y-43982331D01*
X58897265Y-44023565D01*
X59058552Y-44105747D01*
X59058555Y-44105748D01*
X59230706Y-44161682D01*
X59409494Y-44190000D01*
X59590506Y-44190000D01*
X59769293Y-44161682D01*
X59941444Y-44105748D01*
X59941447Y-44105747D01*
X60102730Y-44023568D01*
X60159487Y-43982330D01*
X60159488Y-43982329D01*
X59685178Y-43508019D01*
X59692993Y-43505925D01*
X59807007Y-43440099D01*
X59900099Y-43347007D01*
X59965925Y-43232993D01*
X59968019Y-43225177D01*
X60442329Y-43699488D01*
X60442330Y-43699487D01*
X60483568Y-43642730D01*
X60565747Y-43481447D01*
X60565748Y-43481444D01*
X60621682Y-43309293D01*
X60650000Y-43130506D01*
X60650000Y-42949493D01*
X60621682Y-42770706D01*
X60565748Y-42598555D01*
X60565747Y-42598552D01*
X60483565Y-42437265D01*
X60442331Y-42380511D01*
X60442330Y-42380510D01*
X59968018Y-42854821D01*
X59965925Y-42847007D01*
X59900099Y-42732993D01*
X59807007Y-42639901D01*
X59692993Y-42574075D01*
X59685176Y-42571980D01*
X60159487Y-42097668D01*
X60159487Y-42097667D01*
X60102734Y-42056434D01*
X59941447Y-41974252D01*
X59941444Y-41974251D01*
X59843509Y-41942431D01*
X59785834Y-41902994D01*
X59758635Y-41838635D01*
X59770549Y-41769789D01*
X59817793Y-41718313D01*
X59881827Y-41700500D01*
X60383261Y-41700500D01*
X60405971Y-41697191D01*
X60451393Y-41690573D01*
X60556483Y-41639198D01*
X60639198Y-41556483D01*
X60690573Y-41451393D01*
X60700500Y-41383260D01*
X60700500Y-40116739D01*
X86799500Y-40116739D01*
X86799500Y-41883260D01*
X86809426Y-41951391D01*
X86860803Y-42056485D01*
X86943514Y-42139196D01*
X86943515Y-42139196D01*
X86943517Y-42139198D01*
X87048607Y-42190573D01*
X87082673Y-42195536D01*
X87116739Y-42200500D01*
X87116740Y-42200500D01*
X88883261Y-42200500D01*
X88905971Y-42197191D01*
X88951393Y-42190573D01*
X89056483Y-42139198D01*
X89139198Y-42056483D01*
X89190573Y-41951393D01*
X89200500Y-41883260D01*
X89200500Y-41531909D01*
X89220185Y-41464870D01*
X89272989Y-41419115D01*
X89342147Y-41409171D01*
X89405703Y-41438196D01*
X89434984Y-41475613D01*
X89513240Y-41629199D01*
X89624310Y-41782073D01*
X89757927Y-41915690D01*
X89910801Y-42026760D01*
X89969034Y-42056431D01*
X90079163Y-42112545D01*
X90079165Y-42112545D01*
X90079168Y-42112547D01*
X90161185Y-42139196D01*
X90258881Y-42170940D01*
X90445514Y-42200500D01*
X90445519Y-42200500D01*
X90634486Y-42200500D01*
X90821118Y-42170940D01*
X91000832Y-42112547D01*
X91169199Y-42026760D01*
X91322073Y-41915690D01*
X91455690Y-41782073D01*
X91566760Y-41629199D01*
X91652547Y-41460832D01*
X91710940Y-41281118D01*
X91713092Y-41267532D01*
X91743021Y-41204397D01*
X91802332Y-41167465D01*
X91872194Y-41168463D01*
X91930427Y-41207072D01*
X91956731Y-41264668D01*
X91957181Y-41264561D01*
X91957733Y-41266863D01*
X91958039Y-41267532D01*
X91958318Y-41269298D01*
X92014251Y-41441444D01*
X92014252Y-41441447D01*
X92096434Y-41602734D01*
X92137667Y-41659487D01*
X92137668Y-41659487D01*
X92611980Y-41185176D01*
X92614075Y-41192993D01*
X92679901Y-41307007D01*
X92772993Y-41400099D01*
X92887007Y-41465925D01*
X92894822Y-41468019D01*
X92420510Y-41942330D01*
X92420511Y-41942331D01*
X92477265Y-41983565D01*
X92638552Y-42065747D01*
X92638555Y-42065748D01*
X92810706Y-42121682D01*
X92989494Y-42150000D01*
X93170506Y-42150000D01*
X93349293Y-42121682D01*
X93521444Y-42065748D01*
X93521447Y-42065747D01*
X93682730Y-41983568D01*
X93739487Y-41942330D01*
X93739488Y-41942329D01*
X93265178Y-41468019D01*
X93272993Y-41465925D01*
X93387007Y-41400099D01*
X93480099Y-41307007D01*
X93545925Y-41192993D01*
X93548019Y-41185177D01*
X94022329Y-41659488D01*
X94022330Y-41659487D01*
X94063568Y-41602730D01*
X94145747Y-41441447D01*
X94145748Y-41441444D01*
X94201682Y-41269293D01*
X94230000Y-41090506D01*
X94230000Y-40909493D01*
X94201682Y-40730706D01*
X94145748Y-40558555D01*
X94145747Y-40558552D01*
X94063565Y-40397265D01*
X94022331Y-40340511D01*
X94022330Y-40340510D01*
X93548018Y-40814821D01*
X93545925Y-40807007D01*
X93480099Y-40692993D01*
X93387007Y-40599901D01*
X93272993Y-40534075D01*
X93265176Y-40531980D01*
X93739487Y-40057668D01*
X93739487Y-40057667D01*
X93682734Y-40016434D01*
X93521447Y-39934252D01*
X93521444Y-39934251D01*
X93349293Y-39878317D01*
X93170506Y-39850000D01*
X92989494Y-39850000D01*
X92810706Y-39878317D01*
X92638555Y-39934251D01*
X92638552Y-39934252D01*
X92477270Y-40016431D01*
X92477268Y-40016432D01*
X92420511Y-40057667D01*
X92420511Y-40057668D01*
X92894823Y-40531980D01*
X92887007Y-40534075D01*
X92772993Y-40599901D01*
X92679901Y-40692993D01*
X92614075Y-40807007D01*
X92611980Y-40814823D01*
X92137668Y-40340511D01*
X92137667Y-40340511D01*
X92096432Y-40397268D01*
X92096431Y-40397270D01*
X92014252Y-40558552D01*
X92014251Y-40558555D01*
X91958317Y-40730705D01*
X91958038Y-40732470D01*
X91957745Y-40733086D01*
X91957181Y-40735439D01*
X91956686Y-40735320D01*
X91928108Y-40795604D01*
X91868796Y-40832534D01*
X91798933Y-40831536D01*
X91740701Y-40792925D01*
X91713092Y-40732468D01*
X91710940Y-40718881D01*
X91664248Y-40575181D01*
X91652547Y-40539168D01*
X91652545Y-40539165D01*
X91652545Y-40539163D01*
X91607290Y-40450347D01*
X91566760Y-40370801D01*
X91455690Y-40217927D01*
X91322073Y-40084310D01*
X91169199Y-39973240D01*
X91000836Y-39887454D01*
X90821118Y-39829059D01*
X90634486Y-39799500D01*
X90634481Y-39799500D01*
X90445519Y-39799500D01*
X90445514Y-39799500D01*
X90258881Y-39829059D01*
X90079163Y-39887454D01*
X89910800Y-39973240D01*
X89851350Y-40016434D01*
X89757927Y-40084310D01*
X89757925Y-40084312D01*
X89757924Y-40084312D01*
X89624312Y-40217924D01*
X89624312Y-40217925D01*
X89624310Y-40217927D01*
X89576610Y-40283579D01*
X89513240Y-40370800D01*
X89434985Y-40524385D01*
X89387010Y-40575181D01*
X89319189Y-40591976D01*
X89253054Y-40569439D01*
X89209603Y-40514723D01*
X89200500Y-40468090D01*
X89200500Y-40116739D01*
X89190573Y-40048608D01*
X89190573Y-40048607D01*
X89139198Y-39943517D01*
X89139196Y-39943515D01*
X89139196Y-39943514D01*
X89056485Y-39860803D01*
X88951391Y-39809426D01*
X88883261Y-39799500D01*
X88883260Y-39799500D01*
X87116740Y-39799500D01*
X87116739Y-39799500D01*
X87048608Y-39809426D01*
X86943514Y-39860803D01*
X86860803Y-39943514D01*
X86809426Y-40048608D01*
X86799500Y-40116739D01*
X60700500Y-40116739D01*
X60700500Y-39616740D01*
X60690573Y-39548607D01*
X60639198Y-39443517D01*
X60639196Y-39443515D01*
X60639196Y-39443514D01*
X60556485Y-39360803D01*
X60451391Y-39309426D01*
X60383261Y-39299500D01*
X60383260Y-39299500D01*
X58616740Y-39299500D01*
X58616739Y-39299500D01*
X58548608Y-39309426D01*
X58443514Y-39360803D01*
X58360803Y-39443514D01*
X58309426Y-39548608D01*
X58299500Y-39616739D01*
X58299500Y-39825500D01*
X58279815Y-39892539D01*
X58227011Y-39938294D01*
X58175500Y-39949500D01*
X57239387Y-39949500D01*
X57172348Y-39929815D01*
X57151706Y-39913181D01*
X52401090Y-35162565D01*
X52367605Y-35101242D01*
X52372589Y-35031550D01*
X52414461Y-34975617D01*
X52479925Y-34951200D01*
X52508169Y-34952411D01*
X52685514Y-34980500D01*
X52685519Y-34980500D01*
X52874486Y-34980500D01*
X52959316Y-34967063D01*
X53061118Y-34950940D01*
X53072846Y-34947128D01*
X53142684Y-34945128D01*
X53198851Y-34977376D01*
X55661986Y-37440510D01*
X55787515Y-37512984D01*
X55927525Y-37550500D01*
X55927526Y-37550500D01*
X55927528Y-37550500D01*
X68112472Y-37550500D01*
X68112474Y-37550500D01*
X68112475Y-37550500D01*
X68252485Y-37512984D01*
X68378015Y-37440510D01*
X86121149Y-19697374D01*
X86182470Y-19663891D01*
X86247146Y-19667126D01*
X86258882Y-19670940D01*
X86324704Y-19681365D01*
X86445514Y-19700500D01*
X86445519Y-19700500D01*
X86634486Y-19700500D01*
X86821118Y-19670940D01*
X86877725Y-19652547D01*
X87000832Y-19612547D01*
X87169199Y-19526760D01*
X87322073Y-19415690D01*
X87455690Y-19282073D01*
X87566760Y-19129199D01*
X87652547Y-18960832D01*
X87710940Y-18781118D01*
X87710941Y-18781112D01*
X87713092Y-18767532D01*
X87743021Y-18704397D01*
X87802332Y-18667465D01*
X87872194Y-18668463D01*
X87930427Y-18707072D01*
X87956731Y-18764668D01*
X87957181Y-18764561D01*
X87957733Y-18766863D01*
X87958039Y-18767532D01*
X87958318Y-18769298D01*
X88014251Y-18941444D01*
X88014252Y-18941447D01*
X88096434Y-19102734D01*
X88137667Y-19159487D01*
X88137668Y-19159487D01*
X88611980Y-18685176D01*
X88614075Y-18692993D01*
X88679901Y-18807007D01*
X88772993Y-18900099D01*
X88887007Y-18965925D01*
X88894822Y-18968019D01*
X88420510Y-19442330D01*
X88420511Y-19442331D01*
X88477265Y-19483565D01*
X88638552Y-19565747D01*
X88638555Y-19565748D01*
X88810706Y-19621682D01*
X88989494Y-19650000D01*
X89170506Y-19650000D01*
X89349293Y-19621682D01*
X89521444Y-19565748D01*
X89521447Y-19565747D01*
X89682730Y-19483568D01*
X89739487Y-19442330D01*
X89739488Y-19442329D01*
X89265178Y-18968019D01*
X89272993Y-18965925D01*
X89387007Y-18900099D01*
X89480099Y-18807007D01*
X89545925Y-18692993D01*
X89548019Y-18685177D01*
X90022330Y-19159488D01*
X90022330Y-19159487D01*
X90063568Y-19102730D01*
X90145747Y-18941447D01*
X90145748Y-18941444D01*
X90201681Y-18769297D01*
X90201958Y-18767550D01*
X90202248Y-18766936D01*
X90202819Y-18764561D01*
X90203317Y-18764680D01*
X90231877Y-18704411D01*
X90291183Y-18667470D01*
X90361046Y-18668457D01*
X90419284Y-18707058D01*
X90446906Y-18767525D01*
X90449059Y-18781116D01*
X90449059Y-18781118D01*
X90507454Y-18960836D01*
X90543668Y-19031909D01*
X90593240Y-19129199D01*
X90704310Y-19282073D01*
X90837927Y-19415690D01*
X90990801Y-19526760D01*
X91049136Y-19556483D01*
X91159163Y-19612545D01*
X91159165Y-19612545D01*
X91159168Y-19612547D01*
X91241185Y-19639196D01*
X91338881Y-19670940D01*
X91525514Y-19700500D01*
X91525519Y-19700500D01*
X91714486Y-19700500D01*
X91799316Y-19687063D01*
X91901118Y-19670940D01*
X91912846Y-19667128D01*
X91982684Y-19665128D01*
X92038851Y-19697376D01*
X96413182Y-24071707D01*
X96446666Y-24133028D01*
X96449500Y-24159386D01*
X96449500Y-75720613D01*
X96429815Y-75787652D01*
X96413181Y-75808294D01*
X92808294Y-79413181D01*
X92746971Y-79446666D01*
X92720613Y-79449500D01*
X81279387Y-79449500D01*
X81212348Y-79429815D01*
X81191706Y-79413181D01*
X79838016Y-78059491D01*
X79838015Y-78059490D01*
X79712485Y-77987016D01*
X79712486Y-77987016D01*
X79677482Y-77977637D01*
X79572475Y-77949500D01*
X79572472Y-77949500D01*
X12029386Y-77949500D01*
X11962347Y-77929815D01*
X11941705Y-77913181D01*
X10086819Y-76058294D01*
X10053334Y-75996971D01*
X10050500Y-75970613D01*
X10050500Y-74605205D01*
X87810000Y-74605205D01*
X87810000Y-75300000D01*
X88498120Y-75300000D01*
X88494075Y-75307007D01*
X88460000Y-75434174D01*
X88460000Y-75565826D01*
X88494075Y-75692993D01*
X88498120Y-75700000D01*
X87810001Y-75700000D01*
X87810001Y-76394785D01*
X87810002Y-76394808D01*
X87812908Y-76419869D01*
X87812909Y-76419873D01*
X87858211Y-76522474D01*
X87858214Y-76522479D01*
X87937520Y-76601785D01*
X87937525Y-76601788D01*
X88040123Y-76647089D01*
X88065206Y-76649999D01*
X88759999Y-76649999D01*
X88760000Y-76649998D01*
X88760000Y-75961879D01*
X88767007Y-75965925D01*
X88894174Y-76000000D01*
X89025826Y-76000000D01*
X89152993Y-75965925D01*
X89160000Y-75961879D01*
X89160000Y-76649999D01*
X89854786Y-76649999D01*
X89854808Y-76649997D01*
X89879869Y-76647091D01*
X89879873Y-76647090D01*
X89982474Y-76601788D01*
X89982479Y-76601785D01*
X90061785Y-76522479D01*
X90061788Y-76522474D01*
X90107089Y-76419877D01*
X90107089Y-76419875D01*
X90109999Y-76394794D01*
X90109999Y-75889825D01*
X90129683Y-75822786D01*
X90182487Y-75777031D01*
X90251646Y-75767087D01*
X90315202Y-75796112D01*
X90351930Y-75851506D01*
X90387454Y-75960835D01*
X90437112Y-76058294D01*
X90473240Y-76129199D01*
X90584310Y-76282073D01*
X90717927Y-76415690D01*
X90870801Y-76526760D01*
X90950347Y-76567290D01*
X91039163Y-76612545D01*
X91039165Y-76612545D01*
X91039168Y-76612547D01*
X91135497Y-76643846D01*
X91218881Y-76670940D01*
X91405514Y-76700500D01*
X91405519Y-76700500D01*
X91594486Y-76700500D01*
X91781118Y-76670940D01*
X91845570Y-76649998D01*
X91960832Y-76612547D01*
X92129199Y-76526760D01*
X92282073Y-76415690D01*
X92415690Y-76282073D01*
X92526760Y-76129199D01*
X92612547Y-75960832D01*
X92670940Y-75781118D01*
X92683788Y-75700000D01*
X92700500Y-75594486D01*
X92700500Y-75405513D01*
X92670940Y-75218881D01*
X92612545Y-75039163D01*
X92526759Y-74870800D01*
X92415690Y-74717927D01*
X92282073Y-74584310D01*
X92129199Y-74473240D01*
X91960836Y-74387454D01*
X91781118Y-74329059D01*
X91594486Y-74299500D01*
X91594481Y-74299500D01*
X91405519Y-74299500D01*
X91405514Y-74299500D01*
X91218881Y-74329059D01*
X91039163Y-74387454D01*
X90870800Y-74473240D01*
X90783579Y-74536610D01*
X90717927Y-74584310D01*
X90717925Y-74584312D01*
X90717924Y-74584312D01*
X90584312Y-74717924D01*
X90584312Y-74717925D01*
X90584310Y-74717927D01*
X90536610Y-74783579D01*
X90473240Y-74870800D01*
X90387454Y-75039163D01*
X90351930Y-75148495D01*
X90312492Y-75206170D01*
X90248133Y-75233368D01*
X90179287Y-75221453D01*
X90127811Y-75174208D01*
X90109999Y-75110176D01*
X90109999Y-74605214D01*
X90109997Y-74605191D01*
X90107091Y-74580130D01*
X90107090Y-74580126D01*
X90061788Y-74477525D01*
X90061785Y-74477520D01*
X89982479Y-74398214D01*
X89982474Y-74398211D01*
X89879876Y-74352910D01*
X89854794Y-74350000D01*
X89160000Y-74350000D01*
X89160000Y-75038120D01*
X89152993Y-75034075D01*
X89025826Y-75000000D01*
X88894174Y-75000000D01*
X88767007Y-75034075D01*
X88760000Y-75038120D01*
X88760000Y-74350000D01*
X88065214Y-74350000D01*
X88065191Y-74350002D01*
X88040130Y-74352908D01*
X88040126Y-74352909D01*
X87937525Y-74398211D01*
X87937520Y-74398214D01*
X87858214Y-74477520D01*
X87858211Y-74477525D01*
X87812910Y-74580122D01*
X87812910Y-74580124D01*
X87810000Y-74605205D01*
X10050500Y-74605205D01*
X10050500Y-72155552D01*
X15550000Y-72155552D01*
X15550000Y-72344447D01*
X15579548Y-72531002D01*
X15637914Y-72710637D01*
X15723666Y-72878933D01*
X15771872Y-72945284D01*
X16207242Y-72509915D01*
X16269881Y-72618408D01*
X16381592Y-72730119D01*
X16490083Y-72792757D01*
X16054713Y-73228126D01*
X16054714Y-73228127D01*
X16121059Y-73276329D01*
X16289362Y-73362085D01*
X16468997Y-73420451D01*
X16655553Y-73450000D01*
X16844447Y-73450000D01*
X17031002Y-73420451D01*
X17210637Y-73362085D01*
X17378937Y-73276331D01*
X17445284Y-73228126D01*
X17445285Y-73228126D01*
X17009916Y-72792757D01*
X17118408Y-72730119D01*
X17230119Y-72618408D01*
X17292757Y-72509916D01*
X17728126Y-72945285D01*
X17728126Y-72945284D01*
X17776331Y-72878937D01*
X17862085Y-72710637D01*
X17920451Y-72531002D01*
X17950000Y-72344447D01*
X17950000Y-72155560D01*
X17949998Y-72155544D01*
X17949370Y-72151577D01*
X21999500Y-72151577D01*
X21999500Y-72348422D01*
X22030290Y-72542826D01*
X22091117Y-72730029D01*
X22131412Y-72809111D01*
X22180476Y-72905405D01*
X22296172Y-73064646D01*
X22435354Y-73203828D01*
X22594595Y-73319524D01*
X22677455Y-73361743D01*
X22769970Y-73408882D01*
X22769972Y-73408882D01*
X22769975Y-73408884D01*
X22870317Y-73441487D01*
X22957173Y-73469709D01*
X23151578Y-73500500D01*
X23151583Y-73500500D01*
X23348422Y-73500500D01*
X23542826Y-73469709D01*
X23730025Y-73408884D01*
X23905405Y-73319524D01*
X24064646Y-73203828D01*
X24203828Y-73064646D01*
X24319524Y-72905405D01*
X24408884Y-72730025D01*
X24469709Y-72542826D01*
X24479408Y-72481591D01*
X24500500Y-72348422D01*
X24500500Y-72151577D01*
X24469709Y-71957173D01*
X24408882Y-71769970D01*
X24347754Y-71650000D01*
X24319524Y-71594595D01*
X24203828Y-71435354D01*
X24064646Y-71296172D01*
X23905405Y-71180476D01*
X23730029Y-71091117D01*
X23542826Y-71030290D01*
X23348422Y-70999500D01*
X23348417Y-70999500D01*
X23151583Y-70999500D01*
X23151578Y-70999500D01*
X22957173Y-71030290D01*
X22769970Y-71091117D01*
X22594594Y-71180476D01*
X22503741Y-71246485D01*
X22435354Y-71296172D01*
X22435352Y-71296174D01*
X22435351Y-71296174D01*
X22296174Y-71435351D01*
X22296174Y-71435352D01*
X22296172Y-71435354D01*
X22246485Y-71503741D01*
X22180476Y-71594594D01*
X22091117Y-71769970D01*
X22030290Y-71957173D01*
X21999500Y-72151577D01*
X17949370Y-72151577D01*
X17920451Y-71968997D01*
X17862085Y-71789362D01*
X17776329Y-71621059D01*
X17728127Y-71554714D01*
X17728126Y-71554713D01*
X17292756Y-71990083D01*
X17230119Y-71881592D01*
X17118408Y-71769881D01*
X17009915Y-71707242D01*
X17445284Y-71271872D01*
X17378933Y-71223666D01*
X17210637Y-71137914D01*
X17031002Y-71079548D01*
X16844447Y-71050000D01*
X16655553Y-71050000D01*
X16468997Y-71079548D01*
X16289362Y-71137914D01*
X16121064Y-71223667D01*
X16121062Y-71223668D01*
X16054714Y-71271871D01*
X16054714Y-71271872D01*
X16490084Y-71707242D01*
X16381592Y-71769881D01*
X16269881Y-71881592D01*
X16207242Y-71990084D01*
X15771872Y-71554714D01*
X15771871Y-71554714D01*
X15723668Y-71621062D01*
X15723667Y-71621064D01*
X15637914Y-71789362D01*
X15579548Y-71968997D01*
X15550000Y-72155552D01*
X10050500Y-72155552D01*
X10050500Y-66885883D01*
X12225000Y-66885883D01*
X12225000Y-67114116D01*
X12260704Y-67339544D01*
X12331230Y-67556604D01*
X12434851Y-67759969D01*
X12517890Y-67874264D01*
X12517892Y-67874265D01*
X13020989Y-67371167D01*
X13092437Y-67478097D01*
X13196903Y-67582563D01*
X13303831Y-67654009D01*
X12800733Y-68157106D01*
X12915033Y-68240150D01*
X13118395Y-68343769D01*
X13335455Y-68414295D01*
X13560884Y-68450000D01*
X13789116Y-68450000D01*
X14014544Y-68414295D01*
X14231604Y-68343769D01*
X14434958Y-68240154D01*
X14434964Y-68240150D01*
X14549264Y-68157106D01*
X14549265Y-68157106D01*
X14046168Y-67654010D01*
X14153097Y-67582563D01*
X14257563Y-67478097D01*
X14329010Y-67371168D01*
X14832106Y-67874265D01*
X14832106Y-67874264D01*
X14915150Y-67759964D01*
X14915154Y-67759958D01*
X14968352Y-67655552D01*
X15550000Y-67655552D01*
X15550000Y-67844447D01*
X15579548Y-68031002D01*
X15637914Y-68210637D01*
X15723666Y-68378933D01*
X15771872Y-68445284D01*
X16207242Y-68009915D01*
X16269881Y-68118408D01*
X16381592Y-68230119D01*
X16490083Y-68292757D01*
X16054713Y-68728126D01*
X16054714Y-68728127D01*
X16121059Y-68776329D01*
X16289362Y-68862085D01*
X16468997Y-68920451D01*
X16655553Y-68950000D01*
X16844447Y-68950000D01*
X17031002Y-68920451D01*
X17210637Y-68862085D01*
X17378937Y-68776331D01*
X17445284Y-68728126D01*
X17445285Y-68728126D01*
X17009916Y-68292757D01*
X17118408Y-68230119D01*
X17230119Y-68118408D01*
X17292757Y-68009916D01*
X17728126Y-68445285D01*
X17728126Y-68445284D01*
X17776331Y-68378937D01*
X17862085Y-68210637D01*
X17920451Y-68031002D01*
X17950000Y-67844447D01*
X17950000Y-67655560D01*
X17949998Y-67655544D01*
X17949370Y-67651577D01*
X21999500Y-67651577D01*
X21999500Y-67848422D01*
X22030290Y-68042826D01*
X22091117Y-68230029D01*
X22131412Y-68309111D01*
X22180476Y-68405405D01*
X22296172Y-68564646D01*
X22435354Y-68703828D01*
X22594595Y-68819524D01*
X22677455Y-68861743D01*
X22769970Y-68908882D01*
X22769972Y-68908882D01*
X22769975Y-68908884D01*
X22870317Y-68941487D01*
X22957173Y-68969709D01*
X23151578Y-69000500D01*
X23151583Y-69000500D01*
X23348422Y-69000500D01*
X23542826Y-68969709D01*
X23730025Y-68908884D01*
X23905405Y-68819524D01*
X24064646Y-68703828D01*
X24203828Y-68564646D01*
X24319524Y-68405405D01*
X24408884Y-68230025D01*
X24469709Y-68042826D01*
X24479408Y-67981591D01*
X24500500Y-67848422D01*
X24500500Y-67651577D01*
X24469709Y-67457173D01*
X24434180Y-67347827D01*
X24408884Y-67269975D01*
X24408882Y-67269972D01*
X24408882Y-67269970D01*
X24347754Y-67150000D01*
X24319524Y-67094595D01*
X24203828Y-66935354D01*
X24154357Y-66885883D01*
X24875000Y-66885883D01*
X24875000Y-67114116D01*
X24910704Y-67339544D01*
X24981230Y-67556604D01*
X25084851Y-67759969D01*
X25167890Y-67874264D01*
X25167892Y-67874265D01*
X25670989Y-67371167D01*
X25742437Y-67478097D01*
X25846903Y-67582563D01*
X25953831Y-67654009D01*
X25450733Y-68157106D01*
X25565033Y-68240150D01*
X25768395Y-68343769D01*
X25985455Y-68414295D01*
X26210884Y-68450000D01*
X26439116Y-68450000D01*
X26664544Y-68414295D01*
X26881604Y-68343769D01*
X27084958Y-68240154D01*
X27084964Y-68240150D01*
X27199264Y-68157106D01*
X27199265Y-68157106D01*
X26696168Y-67654010D01*
X26803097Y-67582563D01*
X26907563Y-67478097D01*
X26979010Y-67371168D01*
X27482106Y-67874265D01*
X27482106Y-67874264D01*
X27565150Y-67759964D01*
X27565154Y-67759958D01*
X27668769Y-67556604D01*
X27739295Y-67339544D01*
X27775000Y-67114116D01*
X27775000Y-66885883D01*
X27739295Y-66660455D01*
X27668769Y-66443395D01*
X27565150Y-66240033D01*
X27482106Y-66125734D01*
X27482106Y-66125733D01*
X26979009Y-66628830D01*
X26907563Y-66521903D01*
X26803097Y-66417437D01*
X26696167Y-66345989D01*
X27199265Y-65842892D01*
X27199264Y-65842890D01*
X27084969Y-65759851D01*
X26881604Y-65656230D01*
X26664544Y-65585704D01*
X26439116Y-65550000D01*
X26210884Y-65550000D01*
X25985455Y-65585704D01*
X25768395Y-65656230D01*
X25565030Y-65759851D01*
X25450734Y-65842891D01*
X25450733Y-65842892D01*
X25953831Y-66345989D01*
X25846903Y-66417437D01*
X25742437Y-66521903D01*
X25670989Y-66628831D01*
X25167892Y-66125733D01*
X25167891Y-66125734D01*
X25084851Y-66240030D01*
X24981230Y-66443395D01*
X24910704Y-66660455D01*
X24875000Y-66885883D01*
X24154357Y-66885883D01*
X24064646Y-66796172D01*
X23905405Y-66680476D01*
X23730029Y-66591117D01*
X23542826Y-66530290D01*
X23348422Y-66499500D01*
X23348417Y-66499500D01*
X23151583Y-66499500D01*
X23151578Y-66499500D01*
X22957173Y-66530290D01*
X22769970Y-66591117D01*
X22594594Y-66680476D01*
X22503741Y-66746485D01*
X22435354Y-66796172D01*
X22435352Y-66796174D01*
X22435351Y-66796174D01*
X22296174Y-66935351D01*
X22296174Y-66935352D01*
X22296172Y-66935354D01*
X22282700Y-66953897D01*
X22180476Y-67094594D01*
X22091117Y-67269970D01*
X22030290Y-67457173D01*
X21999500Y-67651577D01*
X17949370Y-67651577D01*
X17920451Y-67468997D01*
X17862085Y-67289362D01*
X17776329Y-67121059D01*
X17728127Y-67054714D01*
X17728126Y-67054713D01*
X17292756Y-67490083D01*
X17230119Y-67381592D01*
X17118408Y-67269881D01*
X17009915Y-67207242D01*
X17445284Y-66771872D01*
X17378933Y-66723666D01*
X17210637Y-66637914D01*
X17031002Y-66579548D01*
X16844447Y-66550000D01*
X16655553Y-66550000D01*
X16468997Y-66579548D01*
X16289362Y-66637914D01*
X16121064Y-66723667D01*
X16121062Y-66723668D01*
X16054714Y-66771871D01*
X16054714Y-66771872D01*
X16490084Y-67207242D01*
X16381592Y-67269881D01*
X16269881Y-67381592D01*
X16207242Y-67490084D01*
X15771872Y-67054714D01*
X15771871Y-67054714D01*
X15723668Y-67121062D01*
X15723667Y-67121064D01*
X15637914Y-67289362D01*
X15579548Y-67468997D01*
X15550000Y-67655552D01*
X14968352Y-67655552D01*
X14999516Y-67594391D01*
X15018769Y-67556604D01*
X15089295Y-67339544D01*
X15125000Y-67114116D01*
X15125000Y-66885882D01*
X15117500Y-66838528D01*
X15089295Y-66660455D01*
X15018769Y-66443395D01*
X14915150Y-66240033D01*
X14832106Y-66125734D01*
X14832106Y-66125733D01*
X14329009Y-66628830D01*
X14257563Y-66521903D01*
X14153097Y-66417437D01*
X14046167Y-66345989D01*
X14549265Y-65842892D01*
X14549264Y-65842890D01*
X14434969Y-65759851D01*
X14231604Y-65656230D01*
X14014544Y-65585704D01*
X13789116Y-65550000D01*
X13560884Y-65550000D01*
X13335455Y-65585704D01*
X13118395Y-65656230D01*
X12915030Y-65759851D01*
X12800734Y-65842891D01*
X12800733Y-65842892D01*
X13303831Y-66345989D01*
X13196903Y-66417437D01*
X13092437Y-66521903D01*
X13020989Y-66628831D01*
X12517892Y-66125733D01*
X12517891Y-66125734D01*
X12434851Y-66240030D01*
X12331230Y-66443395D01*
X12260704Y-66660455D01*
X12225000Y-66885883D01*
X10050500Y-66885883D01*
X10050500Y-66549386D01*
X10070185Y-66482347D01*
X10086815Y-66461709D01*
X10851149Y-65697374D01*
X10912470Y-65663891D01*
X10977146Y-65667126D01*
X10988882Y-65670940D01*
X11058870Y-65682025D01*
X11175514Y-65700500D01*
X11175519Y-65700500D01*
X11364486Y-65700500D01*
X11551118Y-65670940D01*
X11594319Y-65656903D01*
X11730832Y-65612547D01*
X11899199Y-65526760D01*
X12052073Y-65415690D01*
X12185690Y-65282073D01*
X12296760Y-65129199D01*
X12382547Y-64960832D01*
X12440940Y-64781118D01*
X12470500Y-64594486D01*
X12470500Y-64405513D01*
X12440940Y-64218881D01*
X12400519Y-64094481D01*
X12382547Y-64039168D01*
X12375112Y-64024577D01*
X12362218Y-63955910D01*
X12388495Y-63891170D01*
X12397909Y-63880614D01*
X14490516Y-61788007D01*
X14551838Y-61754523D01*
X14621530Y-61759507D01*
X14677463Y-61801379D01*
X14701880Y-61866843D01*
X14700095Y-61895393D01*
X14700097Y-61895394D01*
X14700091Y-61895447D01*
X14699815Y-61899874D01*
X14699500Y-61901458D01*
X14699500Y-61901459D01*
X14699500Y-62098541D01*
X14699500Y-62098543D01*
X14699499Y-62098543D01*
X14737947Y-62291829D01*
X14737950Y-62291839D01*
X14813364Y-62473907D01*
X14813371Y-62473920D01*
X14922860Y-62637781D01*
X14922863Y-62637785D01*
X15062214Y-62777136D01*
X15062218Y-62777139D01*
X15226079Y-62886628D01*
X15226092Y-62886635D01*
X15408160Y-62962049D01*
X15408165Y-62962051D01*
X15408169Y-62962051D01*
X15408170Y-62962052D01*
X15601456Y-63000500D01*
X15601459Y-63000500D01*
X15798543Y-63000500D01*
X15935585Y-62973240D01*
X15991835Y-62962051D01*
X16173914Y-62886632D01*
X16337782Y-62777139D01*
X16477139Y-62637782D01*
X16586632Y-62473914D01*
X16662051Y-62291835D01*
X16700500Y-62098543D01*
X23299499Y-62098543D01*
X23337947Y-62291829D01*
X23337950Y-62291839D01*
X23413364Y-62473907D01*
X23413371Y-62473920D01*
X23522860Y-62637781D01*
X23522863Y-62637785D01*
X23662214Y-62777136D01*
X23662218Y-62777139D01*
X23826079Y-62886628D01*
X23826092Y-62886635D01*
X24008160Y-62962049D01*
X24008165Y-62962051D01*
X24008169Y-62962051D01*
X24008170Y-62962052D01*
X24201456Y-63000500D01*
X24201459Y-63000500D01*
X24398543Y-63000500D01*
X24535585Y-62973240D01*
X24591835Y-62962051D01*
X24773914Y-62886632D01*
X24937782Y-62777139D01*
X25077139Y-62637782D01*
X25186632Y-62473914D01*
X25262051Y-62291835D01*
X25300500Y-62098541D01*
X25300500Y-61901459D01*
X25300500Y-61901458D01*
X25300500Y-61901456D01*
X25262052Y-61708170D01*
X25262051Y-61708169D01*
X25262051Y-61708165D01*
X25262049Y-61708160D01*
X25186635Y-61526092D01*
X25186628Y-61526079D01*
X25077139Y-61362218D01*
X25077136Y-61362214D01*
X24937785Y-61222863D01*
X24937781Y-61222860D01*
X24773920Y-61113371D01*
X24773907Y-61113364D01*
X24591839Y-61037950D01*
X24591829Y-61037947D01*
X24398543Y-60999500D01*
X24398541Y-60999500D01*
X24201459Y-60999500D01*
X24201457Y-60999500D01*
X24008170Y-61037947D01*
X24008160Y-61037950D01*
X23826092Y-61113364D01*
X23826079Y-61113371D01*
X23662218Y-61222860D01*
X23662214Y-61222863D01*
X23522863Y-61362214D01*
X23522860Y-61362218D01*
X23413371Y-61526079D01*
X23413364Y-61526092D01*
X23337950Y-61708160D01*
X23337947Y-61708170D01*
X23299500Y-61901456D01*
X23299500Y-61901458D01*
X23299500Y-61901459D01*
X23299500Y-62098541D01*
X23299500Y-62098543D01*
X23299499Y-62098543D01*
X16700500Y-62098543D01*
X16700500Y-62098541D01*
X16700500Y-61901459D01*
X16700500Y-61901458D01*
X16700500Y-61901456D01*
X16662052Y-61708170D01*
X16662051Y-61708169D01*
X16662051Y-61708165D01*
X16662049Y-61708160D01*
X16586635Y-61526092D01*
X16586628Y-61526079D01*
X16477139Y-61362218D01*
X16477136Y-61362214D01*
X16337785Y-61222863D01*
X16337781Y-61222860D01*
X16173920Y-61113371D01*
X16173907Y-61113364D01*
X15991839Y-61037950D01*
X15991829Y-61037947D01*
X15798543Y-60999500D01*
X15798541Y-60999500D01*
X15601459Y-60999500D01*
X15601458Y-60999500D01*
X15599874Y-60999815D01*
X15599027Y-60999739D01*
X15595394Y-61000097D01*
X15595326Y-60999407D01*
X15530283Y-60993584D01*
X15475108Y-60950718D01*
X15451866Y-60884827D01*
X15467938Y-60816831D01*
X15488005Y-60790517D01*
X19392639Y-56885883D01*
X24875000Y-56885883D01*
X24875000Y-57114116D01*
X24910704Y-57339544D01*
X24981230Y-57556604D01*
X25084851Y-57759969D01*
X25167890Y-57874264D01*
X25167892Y-57874265D01*
X25670989Y-57371167D01*
X25742437Y-57478097D01*
X25846903Y-57582563D01*
X25953831Y-57654009D01*
X25450733Y-58157106D01*
X25565033Y-58240150D01*
X25768395Y-58343769D01*
X25985455Y-58414295D01*
X26210884Y-58450000D01*
X26439116Y-58450000D01*
X26664544Y-58414295D01*
X26881604Y-58343769D01*
X27084958Y-58240154D01*
X27084964Y-58240150D01*
X27199264Y-58157106D01*
X27199265Y-58157106D01*
X26696168Y-57654010D01*
X26803097Y-57582563D01*
X26907563Y-57478097D01*
X26979010Y-57371168D01*
X27482106Y-57874265D01*
X27482106Y-57874264D01*
X27565150Y-57759964D01*
X27565154Y-57759958D01*
X27668769Y-57556604D01*
X27739295Y-57339544D01*
X27775000Y-57114116D01*
X27775000Y-56885883D01*
X27739295Y-56660455D01*
X27668769Y-56443395D01*
X27565150Y-56240033D01*
X27482106Y-56125734D01*
X27482106Y-56125733D01*
X26979009Y-56628830D01*
X26907563Y-56521903D01*
X26803097Y-56417437D01*
X26696167Y-56345989D01*
X27199265Y-55842892D01*
X27199264Y-55842890D01*
X27084969Y-55759851D01*
X26881604Y-55656230D01*
X26664544Y-55585704D01*
X26439116Y-55550000D01*
X26210884Y-55550000D01*
X25985455Y-55585704D01*
X25768395Y-55656230D01*
X25565030Y-55759851D01*
X25450734Y-55842891D01*
X25450733Y-55842892D01*
X25953831Y-56345989D01*
X25846903Y-56417437D01*
X25742437Y-56521903D01*
X25670989Y-56628831D01*
X25167892Y-56125733D01*
X25167891Y-56125734D01*
X25084851Y-56240030D01*
X24981230Y-56443395D01*
X24910704Y-56660455D01*
X24875000Y-56885883D01*
X19392639Y-56885883D01*
X21880606Y-54397916D01*
X21941927Y-54364433D01*
X22011619Y-54369417D01*
X22024581Y-54375115D01*
X22039161Y-54382544D01*
X22039164Y-54382544D01*
X22039168Y-54382547D01*
X22122099Y-54409493D01*
X22218881Y-54440940D01*
X22405514Y-54470500D01*
X22405519Y-54470500D01*
X22594486Y-54470500D01*
X22781118Y-54440940D01*
X22801941Y-54434174D01*
X22960832Y-54382547D01*
X23129199Y-54296760D01*
X23282073Y-54185690D01*
X23415690Y-54052073D01*
X23526760Y-53899199D01*
X23612547Y-53730832D01*
X23670940Y-53551118D01*
X23676434Y-53516431D01*
X23700500Y-53364486D01*
X23700500Y-53175513D01*
X23670940Y-52988881D01*
X23612545Y-52809163D01*
X23556923Y-52700000D01*
X23526760Y-52640801D01*
X23415690Y-52487927D01*
X23282073Y-52354310D01*
X23129199Y-52243240D01*
X22960836Y-52157454D01*
X22781118Y-52099059D01*
X22594486Y-52069500D01*
X22594481Y-52069500D01*
X22405519Y-52069500D01*
X22405514Y-52069500D01*
X22275696Y-52090061D01*
X22206402Y-52081106D01*
X22152950Y-52036110D01*
X22132311Y-51969359D01*
X22151036Y-51902045D01*
X22168614Y-51879909D01*
X23020510Y-51028015D01*
X23092984Y-50902485D01*
X23098461Y-50882043D01*
X23110260Y-50838014D01*
X23118568Y-50807007D01*
X23130500Y-50762475D01*
X23130500Y-47824500D01*
X23150185Y-47757461D01*
X23202989Y-47711706D01*
X23254500Y-47700500D01*
X23463261Y-47700500D01*
X23485971Y-47697191D01*
X23531393Y-47690573D01*
X23636483Y-47639198D01*
X23719198Y-47556483D01*
X23770573Y-47451393D01*
X23780500Y-47383260D01*
X23780500Y-45616740D01*
X23770573Y-45548607D01*
X23719198Y-45443517D01*
X23719196Y-45443515D01*
X23719196Y-45443514D01*
X23636485Y-45360803D01*
X23531391Y-45309426D01*
X23463261Y-45299500D01*
X23463260Y-45299500D01*
X21696740Y-45299500D01*
X21696739Y-45299500D01*
X21628608Y-45309426D01*
X21523514Y-45360803D01*
X21440803Y-45443514D01*
X21389426Y-45548608D01*
X21379500Y-45616739D01*
X21379500Y-45968090D01*
X21359815Y-46035129D01*
X21307011Y-46080884D01*
X21237853Y-46090828D01*
X21174297Y-46061803D01*
X21145015Y-46024385D01*
X21066759Y-45870800D01*
X20955690Y-45717927D01*
X20822073Y-45584310D01*
X20669199Y-45473240D01*
X20669195Y-45473237D01*
X20669192Y-45473235D01*
X20658200Y-45467634D01*
X20607406Y-45419657D01*
X20590500Y-45357152D01*
X20590500Y-43939386D01*
X20610185Y-43872347D01*
X20626814Y-43851710D01*
X47281149Y-17197374D01*
X47342470Y-17163891D01*
X47407146Y-17167126D01*
X47418882Y-17170940D01*
X47484704Y-17181365D01*
X47605514Y-17200500D01*
X47605519Y-17200500D01*
X47794486Y-17200500D01*
X47981118Y-17170940D01*
X48002812Y-17163891D01*
X48160832Y-17112547D01*
X48329199Y-17026760D01*
X48482073Y-16915690D01*
X48615690Y-16782073D01*
X48726760Y-16629199D01*
X48812547Y-16460832D01*
X48852069Y-16339195D01*
X48891507Y-16281521D01*
X48955866Y-16254323D01*
X49024712Y-16266238D01*
X49076188Y-16313482D01*
X49087931Y-16339196D01*
X49127454Y-16460836D01*
X49191646Y-16586819D01*
X49213240Y-16629199D01*
X49324310Y-16782073D01*
X49457927Y-16915690D01*
X49610801Y-17026760D01*
X49669136Y-17056483D01*
X49779163Y-17112545D01*
X49779165Y-17112545D01*
X49779168Y-17112547D01*
X49861185Y-17139196D01*
X49958881Y-17170940D01*
X50145514Y-17200500D01*
X50145519Y-17200500D01*
X50334486Y-17200500D01*
X50521118Y-17170940D01*
X50542812Y-17163891D01*
X50700832Y-17112547D01*
X50869199Y-17026760D01*
X51022073Y-16915690D01*
X51155690Y-16782073D01*
X51266760Y-16629199D01*
X51352547Y-16460832D01*
X51410940Y-16281118D01*
X51413092Y-16267532D01*
X51443021Y-16204397D01*
X51502332Y-16167465D01*
X51572194Y-16168463D01*
X51630427Y-16207072D01*
X51656731Y-16264668D01*
X51657181Y-16264561D01*
X51657733Y-16266863D01*
X51658039Y-16267532D01*
X51658318Y-16269298D01*
X51714251Y-16441444D01*
X51714252Y-16441447D01*
X51796434Y-16602734D01*
X51837667Y-16659487D01*
X51837668Y-16659487D01*
X52311980Y-16185176D01*
X52314075Y-16192993D01*
X52379901Y-16307007D01*
X52472993Y-16400099D01*
X52587007Y-16465925D01*
X52594822Y-16468019D01*
X52120510Y-16942330D01*
X52120511Y-16942331D01*
X52177265Y-16983565D01*
X52338552Y-17065747D01*
X52338555Y-17065748D01*
X52510706Y-17121682D01*
X52689494Y-17150000D01*
X52870506Y-17150000D01*
X53049293Y-17121682D01*
X53221444Y-17065748D01*
X53221447Y-17065747D01*
X53382730Y-16983568D01*
X53439487Y-16942330D01*
X53439488Y-16942329D01*
X52965178Y-16468019D01*
X52972993Y-16465925D01*
X53087007Y-16400099D01*
X53180099Y-16307007D01*
X53245925Y-16192993D01*
X53248019Y-16185177D01*
X53722329Y-16659488D01*
X53722330Y-16659487D01*
X53763568Y-16602730D01*
X53845747Y-16441447D01*
X53845748Y-16441444D01*
X53901681Y-16269297D01*
X53901958Y-16267550D01*
X53902248Y-16266936D01*
X53902819Y-16264561D01*
X53903317Y-16264680D01*
X53931877Y-16204411D01*
X53991183Y-16167470D01*
X54061046Y-16168457D01*
X54119284Y-16207058D01*
X54146906Y-16267525D01*
X54149059Y-16281116D01*
X54149059Y-16281118D01*
X54207454Y-16460836D01*
X54271646Y-16586819D01*
X54293240Y-16629199D01*
X54404310Y-16782073D01*
X54537927Y-16915690D01*
X54690801Y-17026760D01*
X54749136Y-17056483D01*
X54859163Y-17112545D01*
X54859165Y-17112545D01*
X54859168Y-17112547D01*
X54941185Y-17139196D01*
X55038881Y-17170940D01*
X55225514Y-17200500D01*
X55225519Y-17200500D01*
X55414486Y-17200500D01*
X55601118Y-17170940D01*
X55622812Y-17163891D01*
X55780832Y-17112547D01*
X55949199Y-17026760D01*
X56102073Y-16915690D01*
X56235690Y-16782073D01*
X56346760Y-16629199D01*
X56352363Y-16618203D01*
X56400339Y-16567408D01*
X56462847Y-16550500D01*
X61720613Y-16550500D01*
X61787652Y-16570185D01*
X61808294Y-16586819D01*
X63859794Y-18638319D01*
X63893279Y-18699642D01*
X63888295Y-18769334D01*
X63846423Y-18825267D01*
X63780959Y-18849684D01*
X63772113Y-18850000D01*
X63660000Y-18850000D01*
X63660000Y-19538120D01*
X63652993Y-19534075D01*
X63525826Y-19500000D01*
X63394174Y-19500000D01*
X63267007Y-19534075D01*
X63260000Y-19538120D01*
X63260000Y-18850000D01*
X62565214Y-18850000D01*
X62565191Y-18850002D01*
X62540130Y-18852908D01*
X62540126Y-18852909D01*
X62437525Y-18898211D01*
X62437520Y-18898214D01*
X62358214Y-18977520D01*
X62358211Y-18977525D01*
X62312910Y-19080122D01*
X62312910Y-19080124D01*
X62310000Y-19105205D01*
X62310000Y-19800000D01*
X62998120Y-19800000D01*
X62994075Y-19807007D01*
X62960000Y-19934174D01*
X62960000Y-20065826D01*
X62994075Y-20192993D01*
X62998120Y-20200000D01*
X62310001Y-20200000D01*
X62310001Y-20894785D01*
X62310002Y-20894808D01*
X62312908Y-20919869D01*
X62312909Y-20919873D01*
X62358211Y-21022474D01*
X62358214Y-21022479D01*
X62437520Y-21101785D01*
X62437525Y-21101788D01*
X62540123Y-21147089D01*
X62565206Y-21149999D01*
X63259999Y-21149999D01*
X63260000Y-21149998D01*
X63260000Y-20461879D01*
X63267007Y-20465925D01*
X63394174Y-20500000D01*
X63525826Y-20500000D01*
X63652993Y-20465925D01*
X63660000Y-20461879D01*
X63660000Y-21149999D01*
X64354786Y-21149999D01*
X64354808Y-21149997D01*
X64379869Y-21147091D01*
X64379873Y-21147090D01*
X64482474Y-21101788D01*
X64482479Y-21101785D01*
X64561785Y-21022479D01*
X64561788Y-21022474D01*
X64607089Y-20919877D01*
X64607089Y-20919875D01*
X64609999Y-20894794D01*
X64609999Y-20389825D01*
X64629683Y-20322786D01*
X64682487Y-20277031D01*
X64751646Y-20267087D01*
X64815202Y-20296112D01*
X64851930Y-20351506D01*
X64887454Y-20460835D01*
X64907410Y-20500000D01*
X64973240Y-20629199D01*
X65084310Y-20782073D01*
X65217927Y-20915690D01*
X65370801Y-21026760D01*
X65450347Y-21067290D01*
X65539163Y-21112545D01*
X65539165Y-21112545D01*
X65539168Y-21112547D01*
X65635497Y-21143846D01*
X65718881Y-21170940D01*
X65905514Y-21200500D01*
X65905519Y-21200500D01*
X66094486Y-21200500D01*
X66281118Y-21170940D01*
X66345570Y-21149998D01*
X66460832Y-21112547D01*
X66629199Y-21026760D01*
X66782073Y-20915690D01*
X66915690Y-20782073D01*
X67026760Y-20629199D01*
X67112547Y-20460832D01*
X67170940Y-20281118D01*
X67183788Y-20200000D01*
X67200500Y-20094486D01*
X67200500Y-19905513D01*
X67170940Y-19718881D01*
X67121183Y-19565747D01*
X67112547Y-19539168D01*
X67112545Y-19539165D01*
X67112545Y-19539163D01*
X67026759Y-19370800D01*
X66991358Y-19322075D01*
X66915690Y-19217927D01*
X66782073Y-19084310D01*
X66629199Y-18973240D01*
X66460836Y-18887454D01*
X66281118Y-18829059D01*
X66094486Y-18799500D01*
X66094481Y-18799500D01*
X65905519Y-18799500D01*
X65905514Y-18799500D01*
X65718879Y-18829060D01*
X65707140Y-18832874D01*
X65637299Y-18834866D01*
X65581147Y-18802622D01*
X62338016Y-15559491D01*
X62338015Y-15559490D01*
X62212485Y-15487016D01*
X62212486Y-15487016D01*
X62103592Y-15457838D01*
X62103592Y-15457837D01*
X62072475Y-15449500D01*
X56462847Y-15449500D01*
X56395808Y-15429815D01*
X56352363Y-15381797D01*
X56351143Y-15379403D01*
X56346760Y-15370801D01*
X56235690Y-15217927D01*
X56102073Y-15084310D01*
X55949199Y-14973240D01*
X55911949Y-14954260D01*
X55780836Y-14887454D01*
X55601118Y-14829059D01*
X55414486Y-14799500D01*
X55414481Y-14799500D01*
X55225519Y-14799500D01*
X55225514Y-14799500D01*
X55038881Y-14829059D01*
X54859163Y-14887454D01*
X54690800Y-14973240D01*
X54631350Y-15016434D01*
X54537927Y-15084310D01*
X54537925Y-15084312D01*
X54537924Y-15084312D01*
X54404312Y-15217924D01*
X54404312Y-15217925D01*
X54404310Y-15217927D01*
X54356610Y-15283579D01*
X54293240Y-15370800D01*
X54207454Y-15539163D01*
X54149059Y-15718881D01*
X54149059Y-15718882D01*
X54146906Y-15732475D01*
X54116973Y-15795608D01*
X54057660Y-15832536D01*
X53987797Y-15831534D01*
X53929567Y-15792921D01*
X53903272Y-15735330D01*
X53902819Y-15735439D01*
X53902261Y-15733115D01*
X53901958Y-15732451D01*
X53901681Y-15730701D01*
X53845748Y-15558555D01*
X53845747Y-15558552D01*
X53763565Y-15397265D01*
X53722331Y-15340511D01*
X53722330Y-15340510D01*
X53248018Y-15814821D01*
X53245925Y-15807007D01*
X53180099Y-15692993D01*
X53087007Y-15599901D01*
X52972993Y-15534075D01*
X52965176Y-15531980D01*
X53439487Y-15057668D01*
X53439487Y-15057667D01*
X53382734Y-15016434D01*
X53221447Y-14934252D01*
X53221444Y-14934251D01*
X53049293Y-14878317D01*
X52870506Y-14850000D01*
X52689494Y-14850000D01*
X52510706Y-14878317D01*
X52338555Y-14934251D01*
X52338546Y-14934255D01*
X52273023Y-14967641D01*
X52204354Y-14980537D01*
X52139614Y-14954260D01*
X52099357Y-14897153D01*
X52096365Y-14827348D01*
X52129046Y-14769478D01*
X53311706Y-13586819D01*
X53373029Y-13553334D01*
X53399387Y-13550500D01*
X85840613Y-13550500D01*
X85907652Y-13570185D01*
G37*
%TD.AperFunction*%
%TA.AperFunction,Conductor*%
G36*
X18824712Y-46766238D02*
G01*
X18876188Y-46813482D01*
X18887931Y-46839196D01*
X18927454Y-46960836D01*
X18963668Y-47031909D01*
X19013240Y-47129199D01*
X19124310Y-47282073D01*
X19257927Y-47415690D01*
X19410801Y-47526760D01*
X19469136Y-47556483D01*
X19579163Y-47612545D01*
X19579165Y-47612545D01*
X19579168Y-47612547D01*
X19661185Y-47639196D01*
X19758881Y-47670940D01*
X19945514Y-47700500D01*
X19945519Y-47700500D01*
X20134486Y-47700500D01*
X20321118Y-47670940D01*
X20342812Y-47663891D01*
X20500832Y-47612547D01*
X20669199Y-47526760D01*
X20822073Y-47415690D01*
X20955690Y-47282073D01*
X21066760Y-47129199D01*
X21145015Y-46975613D01*
X21192989Y-46924818D01*
X21260810Y-46908023D01*
X21326945Y-46930560D01*
X21370397Y-46985275D01*
X21379500Y-47031909D01*
X21379500Y-47383260D01*
X21389426Y-47451391D01*
X21440803Y-47556485D01*
X21523514Y-47639196D01*
X21523515Y-47639196D01*
X21523517Y-47639198D01*
X21628607Y-47690573D01*
X21662673Y-47695536D01*
X21696739Y-47700500D01*
X21696740Y-47700500D01*
X21905500Y-47700500D01*
X21972539Y-47720185D01*
X22018294Y-47772989D01*
X22029500Y-47824500D01*
X22029500Y-50410612D01*
X22009815Y-50477651D01*
X21993181Y-50498293D01*
X20418851Y-52072622D01*
X20357528Y-52106107D01*
X20292852Y-52102872D01*
X20281120Y-52099060D01*
X20094486Y-52069500D01*
X20094481Y-52069500D01*
X19905519Y-52069500D01*
X19905514Y-52069500D01*
X19718881Y-52099059D01*
X19539163Y-52157454D01*
X19370800Y-52243240D01*
X19311350Y-52286434D01*
X19217927Y-52354310D01*
X19217925Y-52354312D01*
X19217924Y-52354312D01*
X19084312Y-52487924D01*
X19084312Y-52487925D01*
X19084310Y-52487927D01*
X19036610Y-52553579D01*
X18973240Y-52640800D01*
X18887454Y-52809163D01*
X18841381Y-52950960D01*
X18801943Y-53008635D01*
X18737584Y-53035833D01*
X18668737Y-53023918D01*
X18617262Y-52976673D01*
X18605519Y-52950959D01*
X18565748Y-52828555D01*
X18565747Y-52828552D01*
X18483565Y-52667265D01*
X18442331Y-52610511D01*
X18442330Y-52610510D01*
X17968018Y-53084821D01*
X17965925Y-53077007D01*
X17900099Y-52962993D01*
X17807007Y-52869901D01*
X17692993Y-52804075D01*
X17685176Y-52801980D01*
X18159487Y-52327668D01*
X18159487Y-52327667D01*
X18102734Y-52286434D01*
X17941447Y-52204252D01*
X17941444Y-52204251D01*
X17769293Y-52148317D01*
X17590506Y-52120000D01*
X17409494Y-52120000D01*
X17230706Y-52148317D01*
X17058555Y-52204251D01*
X17058552Y-52204252D01*
X16897270Y-52286431D01*
X16897268Y-52286432D01*
X16840511Y-52327667D01*
X16840511Y-52327668D01*
X17314823Y-52801980D01*
X17307007Y-52804075D01*
X17192993Y-52869901D01*
X17099901Y-52962993D01*
X17034075Y-53077007D01*
X17031980Y-53084823D01*
X16557668Y-52610511D01*
X16557667Y-52610511D01*
X16516432Y-52667268D01*
X16516431Y-52667270D01*
X16434252Y-52828552D01*
X16434251Y-52828555D01*
X16378317Y-53000706D01*
X16350000Y-53179493D01*
X16350000Y-53360506D01*
X16378317Y-53539293D01*
X16434251Y-53711444D01*
X16434252Y-53711447D01*
X16516434Y-53872734D01*
X16557667Y-53929487D01*
X16557668Y-53929487D01*
X17031980Y-53455176D01*
X17034075Y-53462993D01*
X17099901Y-53577007D01*
X17192993Y-53670099D01*
X17307007Y-53735925D01*
X17314822Y-53738019D01*
X16840510Y-54212330D01*
X16840511Y-54212331D01*
X16897265Y-54253565D01*
X17058552Y-54335747D01*
X17058555Y-54335748D01*
X17230706Y-54391682D01*
X17409494Y-54420000D01*
X17590506Y-54420000D01*
X17769293Y-54391682D01*
X17941444Y-54335748D01*
X17941447Y-54335747D01*
X18102730Y-54253568D01*
X18159487Y-54212330D01*
X18159488Y-54212329D01*
X17685178Y-53738019D01*
X17692993Y-53735925D01*
X17807007Y-53670099D01*
X17900099Y-53577007D01*
X17965925Y-53462993D01*
X17968019Y-53455177D01*
X18442329Y-53929488D01*
X18442330Y-53929487D01*
X18483568Y-53872730D01*
X18565747Y-53711447D01*
X18565749Y-53711441D01*
X18605519Y-53589041D01*
X18644956Y-53531365D01*
X18709314Y-53504166D01*
X18778161Y-53516080D01*
X18829637Y-53563324D01*
X18841381Y-53589039D01*
X18887454Y-53730836D01*
X18959753Y-53872730D01*
X18973240Y-53899199D01*
X19084310Y-54052073D01*
X19217927Y-54185690D01*
X19370801Y-54296760D01*
X19439053Y-54331536D01*
X19539163Y-54382545D01*
X19539165Y-54382545D01*
X19539168Y-54382547D01*
X19586475Y-54397918D01*
X19718881Y-54440940D01*
X19905514Y-54470500D01*
X19951613Y-54470500D01*
X20018652Y-54490185D01*
X20064407Y-54542989D01*
X20074351Y-54612147D01*
X20045326Y-54675703D01*
X20039294Y-54682181D01*
X12682181Y-62039293D01*
X12620858Y-62072778D01*
X12551166Y-62067794D01*
X12495233Y-62025922D01*
X12470816Y-61960458D01*
X12470500Y-61951612D01*
X12470500Y-61905513D01*
X12440940Y-61718881D01*
X12382545Y-61539163D01*
X12296759Y-61370800D01*
X12290521Y-61362214D01*
X12185690Y-61217927D01*
X12052073Y-61084310D01*
X11899199Y-60973240D01*
X11854997Y-60950718D01*
X11730836Y-60887454D01*
X11589039Y-60841381D01*
X11531364Y-60801943D01*
X11504166Y-60737584D01*
X11516081Y-60668738D01*
X11563326Y-60617262D01*
X11589041Y-60605519D01*
X11711441Y-60565749D01*
X11711447Y-60565747D01*
X11872730Y-60483568D01*
X11929487Y-60442330D01*
X11929488Y-60442330D01*
X11455177Y-59968019D01*
X11462993Y-59965925D01*
X11577007Y-59900099D01*
X11670099Y-59807007D01*
X11735925Y-59692993D01*
X11738019Y-59685177D01*
X12212329Y-60159488D01*
X12212330Y-60159487D01*
X12253568Y-60102730D01*
X12335747Y-59941447D01*
X12335748Y-59941444D01*
X12391682Y-59769293D01*
X12420000Y-59590506D01*
X12420000Y-59409493D01*
X12391682Y-59230706D01*
X12335748Y-59058555D01*
X12335747Y-59058552D01*
X12253565Y-58897265D01*
X12212331Y-58840511D01*
X12212330Y-58840510D01*
X11738018Y-59314821D01*
X11735925Y-59307007D01*
X11670099Y-59192993D01*
X11577007Y-59099901D01*
X11462993Y-59034075D01*
X11455176Y-59031980D01*
X11929487Y-58557668D01*
X11929487Y-58557667D01*
X11872734Y-58516434D01*
X11711447Y-58434252D01*
X11711444Y-58434251D01*
X11539293Y-58378317D01*
X11360506Y-58350000D01*
X11179494Y-58350000D01*
X11000706Y-58378317D01*
X10828555Y-58434251D01*
X10828552Y-58434252D01*
X10667270Y-58516431D01*
X10667268Y-58516432D01*
X10610511Y-58557667D01*
X10610511Y-58557668D01*
X11084823Y-59031980D01*
X11077007Y-59034075D01*
X10962993Y-59099901D01*
X10869901Y-59192993D01*
X10804075Y-59307007D01*
X10801980Y-59314822D01*
X10327668Y-58840511D01*
X10327667Y-58840511D01*
X10286432Y-58897268D01*
X10286428Y-58897275D01*
X10284984Y-58900110D01*
X10284149Y-58900993D01*
X10283884Y-58901427D01*
X10283792Y-58901371D01*
X10280609Y-58904741D01*
X10278815Y-58910853D01*
X10256912Y-58929832D01*
X10237009Y-58950905D01*
X10230825Y-58952436D01*
X10226011Y-58956608D01*
X10197320Y-58960733D01*
X10169188Y-58967700D01*
X10163158Y-58965645D01*
X10156853Y-58966552D01*
X10130487Y-58954511D01*
X10103053Y-58945162D01*
X10099091Y-58940173D01*
X10093297Y-58937527D01*
X10077625Y-58913141D01*
X10059603Y-58890446D01*
X10058103Y-58882764D01*
X10055523Y-58878749D01*
X10050500Y-58843814D01*
X10050500Y-56885883D01*
X12225000Y-56885883D01*
X12225000Y-57114116D01*
X12260704Y-57339544D01*
X12331230Y-57556604D01*
X12434851Y-57759969D01*
X12517890Y-57874264D01*
X12517892Y-57874265D01*
X13020989Y-57371167D01*
X13092437Y-57478097D01*
X13196903Y-57582563D01*
X13303831Y-57654009D01*
X12800733Y-58157106D01*
X12915033Y-58240150D01*
X13118395Y-58343769D01*
X13335455Y-58414295D01*
X13560884Y-58450000D01*
X13789116Y-58450000D01*
X14014544Y-58414295D01*
X14231604Y-58343769D01*
X14434958Y-58240154D01*
X14434964Y-58240150D01*
X14549264Y-58157106D01*
X14549265Y-58157106D01*
X14046168Y-57654010D01*
X14153097Y-57582563D01*
X14257563Y-57478097D01*
X14329010Y-57371168D01*
X14832106Y-57874265D01*
X14832106Y-57874264D01*
X14915150Y-57759964D01*
X14915154Y-57759958D01*
X15018769Y-57556604D01*
X15089295Y-57339544D01*
X15125000Y-57114116D01*
X15125000Y-56885883D01*
X15089295Y-56660455D01*
X15018769Y-56443395D01*
X14915150Y-56240033D01*
X14832106Y-56125734D01*
X14832106Y-56125733D01*
X14329009Y-56628830D01*
X14257563Y-56521903D01*
X14153097Y-56417437D01*
X14046167Y-56345989D01*
X14549265Y-55842892D01*
X14549264Y-55842890D01*
X14434969Y-55759851D01*
X14231604Y-55656230D01*
X14014544Y-55585704D01*
X13789116Y-55550000D01*
X13560884Y-55550000D01*
X13335455Y-55585704D01*
X13118395Y-55656230D01*
X12915030Y-55759851D01*
X12800734Y-55842891D01*
X12800733Y-55842892D01*
X13303831Y-56345989D01*
X13196903Y-56417437D01*
X13092437Y-56521903D01*
X13020989Y-56628831D01*
X12517892Y-56125733D01*
X12517891Y-56125734D01*
X12434851Y-56240030D01*
X12331230Y-56443395D01*
X12260704Y-56660455D01*
X12225000Y-56885883D01*
X10050500Y-56885883D01*
X10050500Y-54779385D01*
X10070185Y-54712346D01*
X10086814Y-54691709D01*
X17081148Y-47697374D01*
X17142469Y-47663891D01*
X17207143Y-47667125D01*
X17218882Y-47670940D01*
X17312200Y-47685720D01*
X17405514Y-47700500D01*
X17405519Y-47700500D01*
X17594486Y-47700500D01*
X17781118Y-47670940D01*
X17802812Y-47663891D01*
X17960832Y-47612547D01*
X18129199Y-47526760D01*
X18282073Y-47415690D01*
X18415690Y-47282073D01*
X18526760Y-47129199D01*
X18612547Y-46960832D01*
X18652069Y-46839195D01*
X18691507Y-46781521D01*
X18755866Y-46754323D01*
X18824712Y-46766238D01*
G37*
%TD.AperFunction*%
%TA.AperFunction,Conductor*%
G36*
X45578851Y-34977376D02*
G01*
X61541985Y-50940510D01*
X61667515Y-51012984D01*
X61807525Y-51050500D01*
X61807526Y-51050500D01*
X61952474Y-51050500D01*
X65216690Y-51050500D01*
X65283729Y-51070185D01*
X65329484Y-51122989D01*
X65339428Y-51192147D01*
X65310403Y-51255703D01*
X65291615Y-51273304D01*
X65247077Y-51307077D01*
X65155639Y-51427656D01*
X65100122Y-51568438D01*
X65097218Y-51592627D01*
X65089500Y-51656898D01*
X65089500Y-51656903D01*
X65089500Y-51825500D01*
X65069815Y-51892539D01*
X65017011Y-51938294D01*
X64965500Y-51949500D01*
X61619387Y-51949500D01*
X61552348Y-51929815D01*
X61531706Y-51913181D01*
X44781090Y-35162565D01*
X44747605Y-35101242D01*
X44752589Y-35031550D01*
X44794461Y-34975617D01*
X44859925Y-34951200D01*
X44888169Y-34952411D01*
X45065514Y-34980500D01*
X45065519Y-34980500D01*
X45254486Y-34980500D01*
X45339316Y-34967063D01*
X45441118Y-34950940D01*
X45452846Y-34947128D01*
X45522684Y-34945128D01*
X45578851Y-34977376D01*
G37*
%TD.AperFunction*%
%TA.AperFunction,Conductor*%
G36*
X45501122Y-17181365D02*
G01*
X45554574Y-17226361D01*
X45575214Y-17293113D01*
X45556489Y-17360427D01*
X45538908Y-17382565D01*
X19599491Y-43321983D01*
X19599489Y-43321986D01*
X19527016Y-43447514D01*
X19527016Y-43447515D01*
X19489500Y-43587525D01*
X19489500Y-43587527D01*
X19489500Y-45357152D01*
X19469815Y-45424191D01*
X19421800Y-45467634D01*
X19410807Y-45473235D01*
X19410804Y-45473237D01*
X19319076Y-45539882D01*
X19257927Y-45584310D01*
X19257925Y-45584312D01*
X19257924Y-45584312D01*
X19124312Y-45717924D01*
X19124312Y-45717925D01*
X19124310Y-45717927D01*
X19076610Y-45783579D01*
X19013240Y-45870800D01*
X18927454Y-46039163D01*
X18887931Y-46160803D01*
X18848493Y-46218478D01*
X18784134Y-46245676D01*
X18715288Y-46233761D01*
X18663812Y-46186516D01*
X18652069Y-46160803D01*
X18626101Y-46080884D01*
X18612547Y-46039168D01*
X18612545Y-46039165D01*
X18612545Y-46039163D01*
X18526759Y-45870800D01*
X18415690Y-45717927D01*
X18282073Y-45584310D01*
X18129199Y-45473240D01*
X18118197Y-45467634D01*
X17960836Y-45387454D01*
X17781118Y-45329059D01*
X17594486Y-45299500D01*
X17594481Y-45299500D01*
X17405519Y-45299500D01*
X17405514Y-45299500D01*
X17228167Y-45327589D01*
X17158873Y-45318634D01*
X17105422Y-45273638D01*
X17084782Y-45206887D01*
X17103507Y-45139573D01*
X17121084Y-45117439D01*
X45001704Y-17236818D01*
X45063027Y-17203334D01*
X45089385Y-17200500D01*
X45254486Y-17200500D01*
X45394195Y-17178371D01*
X45431829Y-17172411D01*
X45501122Y-17181365D01*
G37*
%TD.AperFunction*%
%TA.AperFunction,Conductor*%
G36*
X83707146Y-19667126D02*
G01*
X83718882Y-19670940D01*
X83784704Y-19681365D01*
X83905514Y-19700500D01*
X83905519Y-19700500D01*
X84094486Y-19700500D01*
X84234195Y-19678371D01*
X84271829Y-19672411D01*
X84341122Y-19681365D01*
X84394574Y-19726361D01*
X84415214Y-19793113D01*
X84396489Y-19860427D01*
X84378908Y-19882565D01*
X67848294Y-36413181D01*
X67786971Y-36446666D01*
X67760613Y-36449500D01*
X56279386Y-36449500D01*
X56212347Y-36429815D01*
X56191705Y-36413181D01*
X54941088Y-35162563D01*
X54907604Y-35101242D01*
X54912588Y-35031550D01*
X54954460Y-34975617D01*
X55019924Y-34951200D01*
X55048168Y-34952411D01*
X55225514Y-34980500D01*
X55225519Y-34980500D01*
X55414486Y-34980500D01*
X55601118Y-34950940D01*
X55619005Y-34945128D01*
X55780832Y-34892547D01*
X55949199Y-34806760D01*
X56102073Y-34695690D01*
X56235690Y-34562073D01*
X56346760Y-34409199D01*
X56352363Y-34398203D01*
X56400339Y-34347408D01*
X56462847Y-34330500D01*
X68792472Y-34330500D01*
X68792474Y-34330500D01*
X68792475Y-34330500D01*
X68932485Y-34292984D01*
X69058015Y-34220510D01*
X83581149Y-19697374D01*
X83642470Y-19663891D01*
X83707146Y-19667126D01*
G37*
%TD.AperFunction*%
%TA.AperFunction,Conductor*%
G36*
X10748449Y-23212589D02*
G01*
X10804382Y-23254461D01*
X10828799Y-23319925D01*
X10827588Y-23348168D01*
X10799500Y-23525512D01*
X10799500Y-23714486D01*
X10829059Y-23901118D01*
X10887454Y-24080836D01*
X10927478Y-24159386D01*
X10973240Y-24249199D01*
X11084310Y-24402073D01*
X11217927Y-24535690D01*
X11370801Y-24646760D01*
X11450347Y-24687290D01*
X11539163Y-24732545D01*
X11539165Y-24732545D01*
X11539168Y-24732547D01*
X11634877Y-24763645D01*
X11718881Y-24790940D01*
X11905514Y-24820500D01*
X11905519Y-24820500D01*
X12094486Y-24820500D01*
X12179316Y-24807063D01*
X12281118Y-24790940D01*
X12292846Y-24787128D01*
X12362684Y-24785128D01*
X12418851Y-24817376D01*
X13413181Y-25811706D01*
X13446666Y-25873029D01*
X13449500Y-25899387D01*
X13449500Y-26572475D01*
X13487016Y-26712485D01*
X13559489Y-26838013D01*
X13559491Y-26838016D01*
X13959294Y-27237819D01*
X13992779Y-27299142D01*
X13987795Y-27368834D01*
X13945923Y-27424767D01*
X13880459Y-27449184D01*
X13871613Y-27449500D01*
X10779387Y-27449500D01*
X10712348Y-27429815D01*
X10691706Y-27413181D01*
X10586819Y-27308294D01*
X10553334Y-27246971D01*
X10550500Y-27220613D01*
X10550500Y-23359386D01*
X10570185Y-23292347D01*
X10586814Y-23271709D01*
X10617436Y-23241088D01*
X10678757Y-23207605D01*
X10748449Y-23212589D01*
G37*
%TD.AperFunction*%
%TA.AperFunction,Conductor*%
G36*
X38864712Y-16266238D02*
G01*
X38916188Y-16313482D01*
X38927931Y-16339196D01*
X38967454Y-16460836D01*
X39031646Y-16586819D01*
X39053240Y-16629199D01*
X39164310Y-16782073D01*
X39297927Y-16915690D01*
X39450801Y-17026760D01*
X39509136Y-17056483D01*
X39619163Y-17112545D01*
X39619165Y-17112545D01*
X39619168Y-17112547D01*
X39701185Y-17139196D01*
X39798881Y-17170940D01*
X39985514Y-17200500D01*
X39985519Y-17200500D01*
X40174486Y-17200500D01*
X40314195Y-17178371D01*
X40351829Y-17172411D01*
X40421122Y-17181365D01*
X40474574Y-17226361D01*
X40495214Y-17293113D01*
X40476489Y-17360427D01*
X40458908Y-17382565D01*
X30428294Y-27413181D01*
X30366971Y-27446666D01*
X30340613Y-27449500D01*
X27168387Y-27449500D01*
X27101348Y-27429815D01*
X27055593Y-27377011D01*
X27045649Y-27307853D01*
X27074674Y-27244297D01*
X27080706Y-27237819D01*
X29585980Y-24732545D01*
X37121149Y-17197374D01*
X37182470Y-17163891D01*
X37247146Y-17167126D01*
X37258882Y-17170940D01*
X37324704Y-17181365D01*
X37445514Y-17200500D01*
X37445519Y-17200500D01*
X37634486Y-17200500D01*
X37821118Y-17170940D01*
X37842812Y-17163891D01*
X38000832Y-17112547D01*
X38169199Y-17026760D01*
X38322073Y-16915690D01*
X38455690Y-16782073D01*
X38566760Y-16629199D01*
X38652547Y-16460832D01*
X38692069Y-16339195D01*
X38731507Y-16281521D01*
X38795866Y-16254323D01*
X38864712Y-16266238D01*
G37*
%TD.AperFunction*%
%TA.AperFunction,Conductor*%
G36*
X33742539Y-16570185D02*
G01*
X33788294Y-16622989D01*
X33799500Y-16674500D01*
X33799500Y-16883260D01*
X33809426Y-16951391D01*
X33860803Y-17056485D01*
X33943514Y-17139196D01*
X33943515Y-17139196D01*
X33943517Y-17139198D01*
X34048607Y-17190573D01*
X34082673Y-17195536D01*
X34116739Y-17200500D01*
X34116740Y-17200500D01*
X35261613Y-17200500D01*
X35328652Y-17220185D01*
X35374407Y-17272989D01*
X35384351Y-17342147D01*
X35355326Y-17405703D01*
X35349294Y-17412181D01*
X26348294Y-26413181D01*
X26286971Y-26446666D01*
X26260613Y-26449500D01*
X14779387Y-26449500D01*
X14712348Y-26429815D01*
X14691706Y-26413181D01*
X14586819Y-26308294D01*
X14553334Y-26246971D01*
X14550500Y-26220613D01*
X14550500Y-25547527D01*
X14550500Y-25547525D01*
X14512984Y-25407515D01*
X14440510Y-25281985D01*
X14161090Y-25002565D01*
X14127605Y-24941242D01*
X14132589Y-24871550D01*
X14174461Y-24815617D01*
X14239925Y-24791200D01*
X14268169Y-24792411D01*
X14445514Y-24820500D01*
X14445519Y-24820500D01*
X14634486Y-24820500D01*
X14821118Y-24790940D01*
X14839005Y-24785128D01*
X15000832Y-24732547D01*
X15169199Y-24646760D01*
X15322073Y-24535690D01*
X15455690Y-24402073D01*
X15566760Y-24249199D01*
X15652547Y-24080832D01*
X15710940Y-23901118D01*
X15740500Y-23714486D01*
X15740500Y-23525513D01*
X15710940Y-23338881D01*
X15679165Y-23241090D01*
X15652547Y-23159168D01*
X15652545Y-23159165D01*
X15652545Y-23159163D01*
X15566759Y-22990800D01*
X15455690Y-22837927D01*
X15322073Y-22704310D01*
X15169199Y-22593240D01*
X15000836Y-22507454D01*
X14926472Y-22483291D01*
X14879195Y-22467930D01*
X14821521Y-22428493D01*
X14794323Y-22364134D01*
X14806238Y-22295288D01*
X14853482Y-22243812D01*
X14879194Y-22232069D01*
X15000832Y-22192547D01*
X15169199Y-22106760D01*
X15322073Y-21995690D01*
X15455690Y-21862073D01*
X15566760Y-21709199D01*
X15652547Y-21540832D01*
X15710940Y-21361118D01*
X15715184Y-21334323D01*
X15740500Y-21174486D01*
X15740500Y-20985513D01*
X15710940Y-20798881D01*
X15652545Y-20619163D01*
X15571873Y-20460836D01*
X15566760Y-20450801D01*
X15455690Y-20297927D01*
X15322073Y-20164310D01*
X15169199Y-20053240D01*
X15000836Y-19967454D01*
X14898410Y-19934174D01*
X14879195Y-19927930D01*
X14821521Y-19888493D01*
X14794323Y-19824134D01*
X14806238Y-19755288D01*
X14853482Y-19703812D01*
X14879194Y-19692069D01*
X15000832Y-19652547D01*
X15169199Y-19566760D01*
X15322073Y-19455690D01*
X15455690Y-19322073D01*
X15566760Y-19169199D01*
X15652547Y-19000832D01*
X15710940Y-18821118D01*
X15713297Y-18806238D01*
X15740500Y-18634486D01*
X15740500Y-18445513D01*
X15716332Y-18292925D01*
X15710940Y-18258882D01*
X15707126Y-18247146D01*
X15705130Y-18177308D01*
X15737374Y-18121149D01*
X17271706Y-16586819D01*
X17333029Y-16553334D01*
X17359387Y-16550500D01*
X33675500Y-16550500D01*
X33742539Y-16570185D01*
G37*
%TD.AperFunction*%
%TA.AperFunction,Conductor*%
G36*
X47027652Y-13570185D02*
G01*
X47048294Y-13586819D01*
X48078910Y-14617434D01*
X48112395Y-14678757D01*
X48107411Y-14748449D01*
X48065539Y-14804382D01*
X48000075Y-14828799D01*
X47971832Y-14827588D01*
X47794487Y-14799500D01*
X47794481Y-14799500D01*
X47605519Y-14799500D01*
X47605514Y-14799500D01*
X47418881Y-14829059D01*
X47239163Y-14887454D01*
X47070800Y-14973240D01*
X47011350Y-15016434D01*
X46917927Y-15084310D01*
X46917925Y-15084312D01*
X46917924Y-15084312D01*
X46784312Y-15217924D01*
X46784312Y-15217925D01*
X46784310Y-15217927D01*
X46736610Y-15283579D01*
X46673240Y-15370800D01*
X46587454Y-15539163D01*
X46547931Y-15660803D01*
X46508493Y-15718478D01*
X46444134Y-15745676D01*
X46375288Y-15733761D01*
X46323812Y-15686516D01*
X46312069Y-15660803D01*
X46284248Y-15575181D01*
X46272547Y-15539168D01*
X46272545Y-15539165D01*
X46272545Y-15539163D01*
X46197836Y-15392539D01*
X46186760Y-15370801D01*
X46075690Y-15217927D01*
X45942073Y-15084310D01*
X45789199Y-14973240D01*
X45751949Y-14954260D01*
X45620836Y-14887454D01*
X45441118Y-14829059D01*
X45254486Y-14799500D01*
X45254481Y-14799500D01*
X45065519Y-14799500D01*
X45065514Y-14799500D01*
X44878881Y-14829059D01*
X44699163Y-14887454D01*
X44530800Y-14973240D01*
X44471350Y-15016434D01*
X44377927Y-15084310D01*
X44377925Y-15084312D01*
X44377924Y-15084312D01*
X44244312Y-15217924D01*
X44244312Y-15217925D01*
X44244310Y-15217927D01*
X44196610Y-15283579D01*
X44133240Y-15370800D01*
X44047454Y-15539163D01*
X44007931Y-15660803D01*
X43968493Y-15718478D01*
X43904134Y-15745676D01*
X43835288Y-15733761D01*
X43783812Y-15686516D01*
X43772069Y-15660803D01*
X43744248Y-15575181D01*
X43732547Y-15539168D01*
X43732545Y-15539165D01*
X43732545Y-15539163D01*
X43657836Y-15392539D01*
X43646760Y-15370801D01*
X43535690Y-15217927D01*
X43402073Y-15084310D01*
X43249199Y-14973240D01*
X43211949Y-14954260D01*
X43080836Y-14887454D01*
X42901118Y-14829059D01*
X42714486Y-14799500D01*
X42714481Y-14799500D01*
X42525519Y-14799500D01*
X42525514Y-14799500D01*
X42338881Y-14829059D01*
X42159163Y-14887454D01*
X41990800Y-14973240D01*
X41931350Y-15016434D01*
X41837927Y-15084310D01*
X41837925Y-15084312D01*
X41837924Y-15084312D01*
X41704312Y-15217924D01*
X41704312Y-15217925D01*
X41704310Y-15217927D01*
X41656610Y-15283579D01*
X41593240Y-15370800D01*
X41507454Y-15539163D01*
X41467931Y-15660803D01*
X41428493Y-15718478D01*
X41364134Y-15745676D01*
X41295288Y-15733761D01*
X41243812Y-15686516D01*
X41232069Y-15660803D01*
X41204248Y-15575181D01*
X41192547Y-15539168D01*
X41192545Y-15539165D01*
X41192545Y-15539163D01*
X41117836Y-15392539D01*
X41106760Y-15370801D01*
X40995690Y-15217927D01*
X40862073Y-15084310D01*
X40709199Y-14973240D01*
X40671949Y-14954260D01*
X40540836Y-14887454D01*
X40361118Y-14829059D01*
X40174486Y-14799500D01*
X40174481Y-14799500D01*
X39985519Y-14799500D01*
X39985514Y-14799500D01*
X39798881Y-14829059D01*
X39619163Y-14887454D01*
X39450800Y-14973240D01*
X39391350Y-15016434D01*
X39297927Y-15084310D01*
X39297925Y-15084312D01*
X39297924Y-15084312D01*
X39164312Y-15217924D01*
X39164312Y-15217925D01*
X39164310Y-15217927D01*
X39116610Y-15283579D01*
X39053240Y-15370800D01*
X38967454Y-15539163D01*
X38927931Y-15660803D01*
X38888493Y-15718478D01*
X38824134Y-15745676D01*
X38755288Y-15733761D01*
X38703812Y-15686516D01*
X38692069Y-15660803D01*
X38664248Y-15575181D01*
X38652547Y-15539168D01*
X38652545Y-15539165D01*
X38652545Y-15539163D01*
X38577836Y-15392539D01*
X38566760Y-15370801D01*
X38455690Y-15217927D01*
X38322073Y-15084310D01*
X38169199Y-14973240D01*
X38131949Y-14954260D01*
X38000836Y-14887454D01*
X37821118Y-14829059D01*
X37634486Y-14799500D01*
X37634481Y-14799500D01*
X37445519Y-14799500D01*
X37445514Y-14799500D01*
X37258881Y-14829059D01*
X37079163Y-14887454D01*
X36910800Y-14973240D01*
X36851350Y-15016434D01*
X36757927Y-15084310D01*
X36757925Y-15084312D01*
X36757924Y-15084312D01*
X36624312Y-15217924D01*
X36624312Y-15217925D01*
X36624310Y-15217927D01*
X36576610Y-15283579D01*
X36513240Y-15370800D01*
X36434985Y-15524385D01*
X36387010Y-15575181D01*
X36319189Y-15591976D01*
X36253054Y-15569439D01*
X36209603Y-15514723D01*
X36200500Y-15468090D01*
X36200500Y-15116739D01*
X36190573Y-15048608D01*
X36190573Y-15048607D01*
X36139198Y-14943517D01*
X36139196Y-14943515D01*
X36139196Y-14943514D01*
X36056485Y-14860803D01*
X35951391Y-14809426D01*
X35883261Y-14799500D01*
X35883260Y-14799500D01*
X34116740Y-14799500D01*
X34116739Y-14799500D01*
X34048608Y-14809426D01*
X33943514Y-14860803D01*
X33860803Y-14943514D01*
X33809426Y-15048608D01*
X33799500Y-15116739D01*
X33799500Y-15325500D01*
X33779815Y-15392539D01*
X33727011Y-15438294D01*
X33675500Y-15449500D01*
X17007525Y-15449500D01*
X16902517Y-15477637D01*
X16867514Y-15487016D01*
X16741986Y-15559489D01*
X16741983Y-15559491D01*
X15922565Y-16378909D01*
X15861242Y-16412394D01*
X15791550Y-16407410D01*
X15735617Y-16365538D01*
X15711200Y-16300074D01*
X15712411Y-16271830D01*
X15740500Y-16094486D01*
X15740500Y-15905513D01*
X15720793Y-15781094D01*
X15710940Y-15718882D01*
X15707126Y-15707146D01*
X15705130Y-15637308D01*
X15737374Y-15581149D01*
X17731705Y-13586819D01*
X17793028Y-13553334D01*
X17819386Y-13550500D01*
X46960613Y-13550500D01*
X47027652Y-13570185D01*
G37*
%TD.AperFunction*%
%TA.AperFunction,Conductor*%
G36*
X98443039Y-1519685D02*
G01*
X98488794Y-1572489D01*
X98500000Y-1624000D01*
X98500000Y-83376000D01*
X98480315Y-83443039D01*
X98427511Y-83488794D01*
X98376000Y-83500000D01*
X1624000Y-83500000D01*
X1556961Y-83480315D01*
X1511206Y-83427511D01*
X1500000Y-83376000D01*
X1500000Y-80381995D01*
X2699500Y-80381995D01*
X2699500Y-80618004D01*
X2699501Y-80618020D01*
X2730306Y-80852010D01*
X2791394Y-81079993D01*
X2881714Y-81298045D01*
X2881719Y-81298056D01*
X2952677Y-81420957D01*
X2999727Y-81502450D01*
X2999729Y-81502453D01*
X2999730Y-81502454D01*
X3143406Y-81689697D01*
X3143412Y-81689704D01*
X3310295Y-81856587D01*
X3310301Y-81856592D01*
X3497550Y-82000273D01*
X3628918Y-82076118D01*
X3701943Y-82118280D01*
X3701948Y-82118282D01*
X3701951Y-82118284D01*
X3920007Y-82208606D01*
X4147986Y-82269693D01*
X4381989Y-82300500D01*
X4381996Y-82300500D01*
X4618004Y-82300500D01*
X4618011Y-82300500D01*
X4852014Y-82269693D01*
X5079993Y-82208606D01*
X5298049Y-82118284D01*
X5502450Y-82000273D01*
X5689699Y-81856592D01*
X5856592Y-81689699D01*
X6000273Y-81502450D01*
X6118284Y-81298049D01*
X6208606Y-81079993D01*
X6269693Y-80852014D01*
X6300500Y-80618011D01*
X6300500Y-80381989D01*
X6269693Y-80147986D01*
X6208606Y-79920007D01*
X6118284Y-79701951D01*
X6118282Y-79701948D01*
X6118280Y-79701943D01*
X6076118Y-79628918D01*
X6000273Y-79497550D01*
X5856592Y-79310301D01*
X5856587Y-79310295D01*
X5689704Y-79143412D01*
X5689697Y-79143406D01*
X5502454Y-78999730D01*
X5502453Y-78999729D01*
X5502450Y-78999727D01*
X5399880Y-78940508D01*
X5298056Y-78881719D01*
X5298045Y-78881714D01*
X5079993Y-78791394D01*
X4852010Y-78730306D01*
X4618020Y-78699501D01*
X4618017Y-78699500D01*
X4618011Y-78699500D01*
X4381989Y-78699500D01*
X4381983Y-78699500D01*
X4381979Y-78699501D01*
X4147989Y-78730306D01*
X3920006Y-78791394D01*
X3701954Y-78881714D01*
X3701943Y-78881719D01*
X3497545Y-78999730D01*
X3310302Y-79143406D01*
X3310295Y-79143412D01*
X3143412Y-79310295D01*
X3143406Y-79310302D01*
X2999730Y-79497545D01*
X2881719Y-79701943D01*
X2881714Y-79701954D01*
X2791394Y-79920006D01*
X2730306Y-80147989D01*
X2699501Y-80381979D01*
X2699500Y-80381995D01*
X1500000Y-80381995D01*
X1500000Y-54427525D01*
X8949500Y-54427525D01*
X8949500Y-60302475D01*
X8971147Y-60383260D01*
X8986974Y-60442330D01*
X8987017Y-60442487D01*
X9059489Y-60568013D01*
X9059491Y-60568016D01*
X10072622Y-61581147D01*
X10106107Y-61642470D01*
X10102874Y-61707140D01*
X10099060Y-61718879D01*
X10069500Y-61905513D01*
X10069500Y-62094486D01*
X10099059Y-62281118D01*
X10157454Y-62460836D01*
X10243240Y-62629199D01*
X10354310Y-62782073D01*
X10487927Y-62915690D01*
X10640801Y-63026760D01*
X10701460Y-63057667D01*
X10809163Y-63112545D01*
X10809165Y-63112545D01*
X10809168Y-63112547D01*
X10869251Y-63132069D01*
X10926926Y-63171507D01*
X10954124Y-63235866D01*
X10942209Y-63304712D01*
X10894965Y-63356188D01*
X10869253Y-63367930D01*
X10850756Y-63373939D01*
X10809163Y-63387454D01*
X10640800Y-63473240D01*
X10570406Y-63524385D01*
X10487927Y-63584310D01*
X10487925Y-63584312D01*
X10487924Y-63584312D01*
X10354312Y-63717924D01*
X10354312Y-63717925D01*
X10354310Y-63717927D01*
X10341587Y-63735439D01*
X10243240Y-63870800D01*
X10157454Y-64039163D01*
X10099059Y-64218881D01*
X10069500Y-64405513D01*
X10069500Y-64594486D01*
X10099060Y-64781119D01*
X10099060Y-64781122D01*
X10102872Y-64792852D01*
X10104867Y-64862693D01*
X10072622Y-64918851D01*
X9059491Y-65931983D01*
X9059489Y-65931986D01*
X8987016Y-66057514D01*
X8987016Y-66057515D01*
X8949500Y-66197525D01*
X8949500Y-76322475D01*
X8987016Y-76462485D01*
X9059490Y-76588015D01*
X11411986Y-78940510D01*
X11514553Y-78999727D01*
X11537515Y-79012984D01*
X11677525Y-79050500D01*
X11677526Y-79050500D01*
X11822475Y-79050500D01*
X79220613Y-79050500D01*
X79287652Y-79070185D01*
X79308294Y-79086819D01*
X80661985Y-80440510D01*
X80787515Y-80512984D01*
X80927525Y-80550500D01*
X80927528Y-80550500D01*
X93072472Y-80550500D01*
X93072474Y-80550500D01*
X93072475Y-80550500D01*
X93212485Y-80512984D01*
X93338015Y-80440510D01*
X93487821Y-80290703D01*
X93549142Y-80257220D01*
X93618833Y-80262204D01*
X93674767Y-80304075D01*
X93699184Y-80369540D01*
X93699500Y-80378386D01*
X93699500Y-80618004D01*
X93699501Y-80618020D01*
X93730306Y-80852010D01*
X93791394Y-81079993D01*
X93881714Y-81298045D01*
X93881719Y-81298056D01*
X93952677Y-81420957D01*
X93999727Y-81502450D01*
X93999729Y-81502453D01*
X93999730Y-81502454D01*
X94143406Y-81689697D01*
X94143412Y-81689704D01*
X94310295Y-81856587D01*
X94310301Y-81856592D01*
X94497550Y-82000273D01*
X94628918Y-82076118D01*
X94701943Y-82118280D01*
X94701948Y-82118282D01*
X94701951Y-82118284D01*
X94920007Y-82208606D01*
X95147986Y-82269693D01*
X95381989Y-82300500D01*
X95381996Y-82300500D01*
X95618004Y-82300500D01*
X95618011Y-82300500D01*
X95852014Y-82269693D01*
X96079993Y-82208606D01*
X96298049Y-82118284D01*
X96502450Y-82000273D01*
X96689699Y-81856592D01*
X96856592Y-81689699D01*
X97000273Y-81502450D01*
X97118284Y-81298049D01*
X97208606Y-81079993D01*
X97269693Y-80852014D01*
X97300500Y-80618011D01*
X97300500Y-80381989D01*
X97269693Y-80147986D01*
X97208606Y-79920007D01*
X97118284Y-79701951D01*
X97118282Y-79701948D01*
X97118280Y-79701943D01*
X97076118Y-79628918D01*
X97000273Y-79497550D01*
X96856592Y-79310301D01*
X96856587Y-79310295D01*
X96689704Y-79143412D01*
X96689697Y-79143406D01*
X96502454Y-78999730D01*
X96502453Y-78999729D01*
X96502450Y-78999727D01*
X96399880Y-78940508D01*
X96298056Y-78881719D01*
X96298045Y-78881714D01*
X96079993Y-78791394D01*
X95852010Y-78730306D01*
X95618020Y-78699501D01*
X95618017Y-78699500D01*
X95618011Y-78699500D01*
X95381989Y-78699500D01*
X95378386Y-78699500D01*
X95311347Y-78679815D01*
X95265592Y-78627011D01*
X95255648Y-78557853D01*
X95284673Y-78494297D01*
X95290705Y-78487819D01*
X95865343Y-77913181D01*
X97440510Y-76338015D01*
X97512984Y-76212485D01*
X97522351Y-76177526D01*
X97550500Y-76072475D01*
X97550500Y-23807525D01*
X97512984Y-23667515D01*
X97440510Y-23541985D01*
X92817376Y-18918851D01*
X92783891Y-18857528D01*
X92787128Y-18792847D01*
X92790940Y-18781118D01*
X92814165Y-18634481D01*
X92820500Y-18594486D01*
X92820500Y-18405513D01*
X92790940Y-18218881D01*
X92744248Y-18075181D01*
X92732547Y-18039168D01*
X92732545Y-18039165D01*
X92732545Y-18039163D01*
X92667140Y-17910800D01*
X92646760Y-17870801D01*
X92535690Y-17717927D01*
X92402073Y-17584310D01*
X92249199Y-17473240D01*
X92080836Y-17387454D01*
X91901118Y-17329059D01*
X91714486Y-17299500D01*
X91714481Y-17299500D01*
X91525519Y-17299500D01*
X91525514Y-17299500D01*
X91338881Y-17329060D01*
X91338879Y-17329060D01*
X91327137Y-17332875D01*
X91257296Y-17334865D01*
X91201146Y-17302622D01*
X88852784Y-14954260D01*
X86458015Y-12559490D01*
X86332485Y-12487016D01*
X86332486Y-12487016D01*
X86297482Y-12477637D01*
X86192475Y-12449500D01*
X53047525Y-12449500D01*
X52942517Y-12477637D01*
X52907514Y-12487016D01*
X52781986Y-12559489D01*
X52781983Y-12559491D01*
X50558279Y-14783194D01*
X50496956Y-14816679D01*
X50451200Y-14817986D01*
X50334486Y-14799500D01*
X50334481Y-14799500D01*
X50145519Y-14799500D01*
X50145514Y-14799500D01*
X49958881Y-14829060D01*
X49958879Y-14829060D01*
X49947137Y-14832875D01*
X49877296Y-14834865D01*
X49821146Y-14802622D01*
X47578016Y-12559491D01*
X47578015Y-12559490D01*
X47452485Y-12487016D01*
X47452486Y-12487016D01*
X47417482Y-12477637D01*
X47312475Y-12449500D01*
X17467525Y-12449500D01*
X17383519Y-12472009D01*
X17327513Y-12487016D01*
X17327512Y-12487017D01*
X17201989Y-12559487D01*
X17201984Y-12559491D01*
X14958851Y-14802622D01*
X14897528Y-14836107D01*
X14832852Y-14832872D01*
X14821120Y-14829060D01*
X14634486Y-14799500D01*
X14634481Y-14799500D01*
X14445519Y-14799500D01*
X14445514Y-14799500D01*
X14258881Y-14829059D01*
X14079163Y-14887454D01*
X13910800Y-14973240D01*
X13851350Y-15016434D01*
X13757927Y-15084310D01*
X13757925Y-15084312D01*
X13757924Y-15084312D01*
X13624312Y-15217924D01*
X13624312Y-15217925D01*
X13624310Y-15217927D01*
X13576610Y-15283579D01*
X13513240Y-15370800D01*
X13427454Y-15539163D01*
X13391930Y-15648495D01*
X13352492Y-15706170D01*
X13288133Y-15733368D01*
X13219287Y-15721453D01*
X13167811Y-15674208D01*
X13149999Y-15610176D01*
X13149999Y-15105214D01*
X13149997Y-15105191D01*
X13147091Y-15080130D01*
X13147090Y-15080126D01*
X13101788Y-14977525D01*
X13101785Y-14977520D01*
X13022479Y-14898214D01*
X13022474Y-14898211D01*
X12919876Y-14852910D01*
X12894794Y-14850000D01*
X12200000Y-14850000D01*
X12200000Y-15538120D01*
X12192993Y-15534075D01*
X12065826Y-15500000D01*
X11934174Y-15500000D01*
X11807007Y-15534075D01*
X11800000Y-15538120D01*
X11800000Y-14850000D01*
X11105214Y-14850000D01*
X11105191Y-14850002D01*
X11080130Y-14852908D01*
X11080126Y-14852909D01*
X10977525Y-14898211D01*
X10977520Y-14898214D01*
X10898214Y-14977520D01*
X10898211Y-14977525D01*
X10852910Y-15080122D01*
X10852910Y-15080124D01*
X10850000Y-15105205D01*
X10850000Y-15800000D01*
X11538120Y-15800000D01*
X11534075Y-15807007D01*
X11500000Y-15934174D01*
X11500000Y-16065826D01*
X11534075Y-16192993D01*
X11538120Y-16200000D01*
X10850001Y-16200000D01*
X10850001Y-16894785D01*
X10850002Y-16894808D01*
X10852908Y-16919869D01*
X10852909Y-16919873D01*
X10898211Y-17022474D01*
X10898214Y-17022479D01*
X10977520Y-17101785D01*
X10977525Y-17101788D01*
X11080123Y-17147089D01*
X11105206Y-17149999D01*
X11610174Y-17149999D01*
X11677213Y-17169683D01*
X11722968Y-17222487D01*
X11732912Y-17291646D01*
X11703887Y-17355202D01*
X11648494Y-17391929D01*
X11539167Y-17427452D01*
X11370800Y-17513240D01*
X11309651Y-17557668D01*
X11217927Y-17624310D01*
X11217925Y-17624312D01*
X11217924Y-17624312D01*
X11084312Y-17757924D01*
X11084312Y-17757925D01*
X11084310Y-17757927D01*
X11036610Y-17823579D01*
X10973240Y-17910800D01*
X10887454Y-18079163D01*
X10829059Y-18258881D01*
X10799500Y-18445513D01*
X10799500Y-18634486D01*
X10829059Y-18821118D01*
X10887454Y-19000836D01*
X10968292Y-19159488D01*
X10973240Y-19169199D01*
X11084310Y-19322073D01*
X11217927Y-19455690D01*
X11370801Y-19566760D01*
X11435844Y-19599901D01*
X11539163Y-19652545D01*
X11539165Y-19652545D01*
X11539168Y-19652547D01*
X11600303Y-19672411D01*
X11660803Y-19692069D01*
X11718478Y-19731507D01*
X11745676Y-19795866D01*
X11733761Y-19864712D01*
X11686516Y-19916188D01*
X11660803Y-19927931D01*
X11539163Y-19967454D01*
X11370800Y-20053240D01*
X11314038Y-20094481D01*
X11217927Y-20164310D01*
X11217925Y-20164312D01*
X11217924Y-20164312D01*
X11084312Y-20297924D01*
X11084312Y-20297925D01*
X11084310Y-20297927D01*
X11077713Y-20307007D01*
X10973240Y-20450800D01*
X10887454Y-20619163D01*
X10829059Y-20798881D01*
X10799500Y-20985513D01*
X10799500Y-21174486D01*
X10829060Y-21361119D01*
X10829060Y-21361122D01*
X10832872Y-21372852D01*
X10834867Y-21442693D01*
X10802622Y-21498851D01*
X9559491Y-22741983D01*
X9559490Y-22741985D01*
X9504099Y-22837927D01*
X9487716Y-22866303D01*
X9487017Y-22867513D01*
X9487016Y-22867514D01*
X9487016Y-22867515D01*
X9449500Y-23007525D01*
X9449500Y-27572475D01*
X9487016Y-27712485D01*
X9559490Y-27838015D01*
X10161985Y-28440510D01*
X10287515Y-28512984D01*
X10427525Y-28550500D01*
X10427526Y-28550500D01*
X10427528Y-28550500D01*
X30692472Y-28550500D01*
X30692474Y-28550500D01*
X30692475Y-28550500D01*
X30832485Y-28512984D01*
X30958015Y-28440510D01*
X42201149Y-17197374D01*
X42262470Y-17163891D01*
X42327146Y-17167126D01*
X42338882Y-17170940D01*
X42404704Y-17181365D01*
X42525514Y-17200500D01*
X42525519Y-17200500D01*
X42714486Y-17200500D01*
X42901118Y-17170940D01*
X42922812Y-17163891D01*
X43080832Y-17112547D01*
X43249199Y-17026760D01*
X43402073Y-16915690D01*
X43535690Y-16782073D01*
X43646760Y-16629199D01*
X43732547Y-16460832D01*
X43772069Y-16339195D01*
X43811507Y-16281521D01*
X43875866Y-16254323D01*
X43944712Y-16266238D01*
X43996188Y-16313482D01*
X44007930Y-16339194D01*
X44047453Y-16460832D01*
X44065011Y-16495292D01*
X44077907Y-16563961D01*
X44051630Y-16628701D01*
X44042207Y-16639267D01*
X15378851Y-45302622D01*
X15317528Y-45336107D01*
X15252852Y-45332872D01*
X15241120Y-45329060D01*
X15054486Y-45299500D01*
X15054481Y-45299500D01*
X14865519Y-45299500D01*
X14865514Y-45299500D01*
X14678881Y-45329059D01*
X14499163Y-45387454D01*
X14330800Y-45473240D01*
X14243579Y-45536610D01*
X14177927Y-45584310D01*
X14177925Y-45584312D01*
X14177924Y-45584312D01*
X14044312Y-45717924D01*
X14044312Y-45717925D01*
X14044310Y-45717927D01*
X13996610Y-45783579D01*
X13933240Y-45870800D01*
X13847454Y-46039163D01*
X13789059Y-46218881D01*
X13759500Y-46405513D01*
X13759500Y-46594486D01*
X13789059Y-46781118D01*
X13847454Y-46960836D01*
X13883668Y-47031909D01*
X13933240Y-47129199D01*
X14044310Y-47282073D01*
X14177927Y-47415690D01*
X14330801Y-47526760D01*
X14389136Y-47556483D01*
X14499163Y-47612545D01*
X14499165Y-47612545D01*
X14499168Y-47612547D01*
X14581185Y-47639196D01*
X14678881Y-47670940D01*
X14865514Y-47700500D01*
X14865519Y-47700500D01*
X15054486Y-47700500D01*
X15231830Y-47672411D01*
X15301123Y-47681365D01*
X15354575Y-47726362D01*
X15375215Y-47793113D01*
X15356490Y-47860427D01*
X15338909Y-47882565D01*
X9059489Y-54161985D01*
X9045804Y-54185690D01*
X9030425Y-54212329D01*
X9026642Y-54218881D01*
X9026641Y-54218882D01*
X8987017Y-54287512D01*
X8987016Y-54287513D01*
X8981793Y-54307007D01*
X8949500Y-54427525D01*
X1500000Y-54427525D01*
X1500000Y-4381995D01*
X2699500Y-4381995D01*
X2699500Y-4618004D01*
X2699501Y-4618020D01*
X2730306Y-4852010D01*
X2791394Y-5079993D01*
X2881714Y-5298045D01*
X2881719Y-5298056D01*
X2952677Y-5420957D01*
X2999727Y-5502450D01*
X2999729Y-5502453D01*
X2999730Y-5502454D01*
X3143406Y-5689697D01*
X3143412Y-5689704D01*
X3310295Y-5856587D01*
X3310301Y-5856592D01*
X3497550Y-6000273D01*
X3628918Y-6076118D01*
X3701943Y-6118280D01*
X3701948Y-6118282D01*
X3701951Y-6118284D01*
X3920007Y-6208606D01*
X4147986Y-6269693D01*
X4381989Y-6300500D01*
X4381996Y-6300500D01*
X4618004Y-6300500D01*
X4618011Y-6300500D01*
X4852014Y-6269693D01*
X5079993Y-6208606D01*
X5298049Y-6118284D01*
X5502450Y-6000273D01*
X5689699Y-5856592D01*
X5856592Y-5689699D01*
X6000273Y-5502450D01*
X6118284Y-5298049D01*
X6208606Y-5079993D01*
X6269693Y-4852014D01*
X6300500Y-4618011D01*
X6300500Y-4381995D01*
X93699500Y-4381995D01*
X93699500Y-4618004D01*
X93699501Y-4618020D01*
X93730306Y-4852010D01*
X93791394Y-5079993D01*
X93881714Y-5298045D01*
X93881719Y-5298056D01*
X93952677Y-5420957D01*
X93999727Y-5502450D01*
X93999729Y-5502453D01*
X93999730Y-5502454D01*
X94143406Y-5689697D01*
X94143412Y-5689704D01*
X94310295Y-5856587D01*
X94310301Y-5856592D01*
X94497550Y-6000273D01*
X94628918Y-6076118D01*
X94701943Y-6118280D01*
X94701948Y-6118282D01*
X94701951Y-6118284D01*
X94920007Y-6208606D01*
X95147986Y-6269693D01*
X95381989Y-6300500D01*
X95381996Y-6300500D01*
X95618004Y-6300500D01*
X95618011Y-6300500D01*
X95852014Y-6269693D01*
X96079993Y-6208606D01*
X96298049Y-6118284D01*
X96502450Y-6000273D01*
X96689699Y-5856592D01*
X96856592Y-5689699D01*
X97000273Y-5502450D01*
X97118284Y-5298049D01*
X97208606Y-5079993D01*
X97269693Y-4852014D01*
X97300500Y-4618011D01*
X97300500Y-4381989D01*
X97269693Y-4147986D01*
X97208606Y-3920007D01*
X97118284Y-3701951D01*
X97118282Y-3701948D01*
X97118280Y-3701943D01*
X97076118Y-3628918D01*
X97000273Y-3497550D01*
X96856592Y-3310301D01*
X96856587Y-3310295D01*
X96689704Y-3143412D01*
X96689697Y-3143406D01*
X96502454Y-2999730D01*
X96502453Y-2999729D01*
X96502450Y-2999727D01*
X96420957Y-2952677D01*
X96298056Y-2881719D01*
X96298045Y-2881714D01*
X96079993Y-2791394D01*
X95852010Y-2730306D01*
X95618020Y-2699501D01*
X95618017Y-2699500D01*
X95618011Y-2699500D01*
X95381989Y-2699500D01*
X95381983Y-2699500D01*
X95381979Y-2699501D01*
X95147989Y-2730306D01*
X94920006Y-2791394D01*
X94701954Y-2881714D01*
X94701943Y-2881719D01*
X94497545Y-2999730D01*
X94310302Y-3143406D01*
X94310295Y-3143412D01*
X94143412Y-3310295D01*
X94143406Y-3310302D01*
X93999730Y-3497545D01*
X93881719Y-3701943D01*
X93881714Y-3701954D01*
X93791394Y-3920006D01*
X93730306Y-4147989D01*
X93699501Y-4381979D01*
X93699500Y-4381995D01*
X6300500Y-4381995D01*
X6300500Y-4381989D01*
X6269693Y-4147986D01*
X6208606Y-3920007D01*
X6118284Y-3701951D01*
X6118282Y-3701948D01*
X6118280Y-3701943D01*
X6076118Y-3628918D01*
X6000273Y-3497550D01*
X5856592Y-3310301D01*
X5856587Y-3310295D01*
X5689704Y-3143412D01*
X5689697Y-3143406D01*
X5502454Y-2999730D01*
X5502453Y-2999729D01*
X5502450Y-2999727D01*
X5420957Y-2952677D01*
X5298056Y-2881719D01*
X5298045Y-2881714D01*
X5079993Y-2791394D01*
X4852010Y-2730306D01*
X4618020Y-2699501D01*
X4618017Y-2699500D01*
X4618011Y-2699500D01*
X4381989Y-2699500D01*
X4381983Y-2699500D01*
X4381979Y-2699501D01*
X4147989Y-2730306D01*
X3920006Y-2791394D01*
X3701954Y-2881714D01*
X3701943Y-2881719D01*
X3497545Y-2999730D01*
X3310302Y-3143406D01*
X3310295Y-3143412D01*
X3143412Y-3310295D01*
X3143406Y-3310302D01*
X2999730Y-3497545D01*
X2881719Y-3701943D01*
X2881714Y-3701954D01*
X2791394Y-3920006D01*
X2730306Y-4147989D01*
X2699501Y-4381979D01*
X2699500Y-4381995D01*
X1500000Y-4381995D01*
X1500000Y-1624000D01*
X1519685Y-1556961D01*
X1572489Y-1511206D01*
X1624000Y-1500000D01*
X98376000Y-1500000D01*
X98443039Y-1519685D01*
G37*
%TD.AperFunction*%
%TD*%
M02*
