M48
; DRILL file KiCad 10.0.6 date 2026-10-09T16:16:57
; FORMAT={-:-/ absolute / metric / decimal}
; #@! TF.CreationDate,2026-10-09T16:16:57+01:00
; #@! TF.GenerationSoftware,Kicad,Pcbnew,10.0.6
; #@! TF.FileFunction,Plated,1,2,PTH
FMAT,2
METRIC
; #@! TA.AperFunction,Plated,PTH,ViaDrill
T1C0.400
; #@! TA.AperFunction,Plated,PTH,ComponentDrill
T2C1.000
; #@! TA.AperFunction,Plated,PTH,ComponentDrill
T3C1.200
; #@! TA.AperFunction,Plated,PTH,ComponentDrill
T4C1.500
%
G90
G05
T1
X12.5Y-26.0
X18.5Y-44.5
X22.0Y-14.0
X22.0Y-18.0
X32.0Y-24.5
X62.0Y-51.5
X62.5Y-35.5
X71.0Y-40.5
T2
X11.27Y-59.5
X11.27Y-62.0
X11.27Y-64.5
X12.0Y-16.0
X12.0Y-18.54
X12.0Y-21.08
X12.0Y-23.62
X14.54Y-16.0
X14.54Y-18.54
X14.54Y-21.08
X14.54Y-23.62
X14.96Y-46.5
X17.5Y-46.5
X17.5Y-53.27
X20.0Y-53.27
X20.04Y-46.5
X22.5Y-53.27
X22.58Y-46.5
X35.0Y-16.0
X35.0Y-33.78
X37.54Y-16.0
X37.54Y-33.78
X40.08Y-16.0
X40.08Y-33.78
X42.62Y-16.0
X42.62Y-33.78
X45.16Y-16.0
X45.16Y-33.78
X47.7Y-16.0
X47.7Y-33.78
X50.24Y-16.0
X50.24Y-33.78
X52.78Y-16.0
X52.78Y-33.78
X55.32Y-16.0
X55.32Y-33.78
X59.5Y-40.5
X59.5Y-43.04
X63.46Y-20.0
X66.0Y-20.0
X76.38Y-18.5
X78.92Y-18.5
X81.46Y-18.5
X84.0Y-18.5
X86.54Y-18.5
X88.0Y-41.0
X88.96Y-50.5
X88.96Y-75.5
X89.0Y-54.5
X89.0Y-59.5
X89.0Y-64.0
X89.08Y-18.5
X90.54Y-41.0
X91.5Y-50.5
X91.5Y-75.5
X91.54Y-54.5
X91.54Y-59.5
X91.54Y-64.0
X91.62Y-18.5
X93.08Y-41.0
X94.04Y-50.5
X94.08Y-54.5
X94.08Y-59.5
X94.08Y-64.0
T3
X16.75Y-67.75
X16.75Y-72.25
X23.25Y-67.75
X23.25Y-72.25
T4
X13.675Y-57.0
X13.675Y-67.0
X26.325Y-57.0
X26.325Y-67.0
M30
