M48
; DRILL file KiCad 10.0.6 date 2026-10-08T17:15:46
; FORMAT={-:-/ absolute / metric / decimal}
; #@! TF.CreationDate,2026-10-08T17:15:46+01:00
; #@! TF.GenerationSoftware,Kicad,Pcbnew,10.0.6
; #@! TF.FileFunction,MixedPlating,1,2
FMAT,2
METRIC
; #@! TA.AperFunction,Plated,PTH,ComponentDrill
T1C1.000
; #@! TA.AperFunction,Plated,PTH,ComponentDrill
T2C1.200
; #@! TA.AperFunction,Plated,PTH,ComponentDrill
T3C1.500
; #@! TA.AperFunction,NonPlated,NPTH,ComponentDrill
T4C1.600
; #@! TA.AperFunction,NonPlated,NPTH,ComponentDrill
T5C3.200
%
G90
G05
T1
X11.27Y-59.5
X11.27Y-62.0
X11.27Y-64.5
X12.0Y-16.0
X12.0Y-18.54
X12.0Y-21.08
X12.0Y-23.62
X14.54Y-16.0
X14.54Y-18.54
X14.54Y-21.08
X14.54Y-23.62
X17.5Y-53.27
X20.0Y-53.27
X22.5Y-53.27
X31.0Y-48.0
X31.0Y-50.54
X35.0Y-16.0
X35.0Y-33.78
X35.0Y-58.0
X35.0Y-60.54
X35.0Y-63.08
X35.0Y-65.62
X37.54Y-16.0
X37.54Y-33.78
X40.08Y-16.0
X40.08Y-33.78
X42.62Y-16.0
X42.62Y-33.78
X44.0Y-76.0
X45.16Y-16.0
X45.16Y-33.78
X46.54Y-76.0
X47.7Y-16.0
X47.7Y-33.78
X50.24Y-16.0
X50.24Y-33.78
X52.78Y-16.0
X52.78Y-33.78
X55.32Y-16.0
X55.32Y-33.78
X76.38Y-18.5
X78.92Y-18.5
X81.46Y-18.5
X84.0Y-18.5
X86.54Y-18.5
X88.0Y-41.0
X88.0Y-48.0
X88.0Y-55.0
X88.0Y-62.0
X88.0Y-69.0
X88.0Y-76.0
X89.08Y-18.5
X90.54Y-41.0
X90.54Y-48.0
X90.54Y-55.0
X90.54Y-62.0
X90.54Y-69.0
X90.54Y-76.0
X91.62Y-18.5
X93.08Y-41.0
X93.08Y-48.0
X93.08Y-55.0
X93.08Y-62.0
X93.08Y-69.0
T2
X16.75Y-67.75
X16.75Y-72.25
X23.25Y-67.75
X23.25Y-72.25
T3
X13.675Y-57.0
X13.675Y-67.0
X26.325Y-57.0
X26.325Y-67.0
T4
X15.7Y-62.0
X24.3Y-62.0
T5
X4.5Y-4.5
X4.5Y-80.5
X95.5Y-4.5
X95.5Y-80.5
M30
