%TF.GenerationSoftware,KiCad,Pcbnew,10.0.6*%
%TF.CreationDate,2026-10-06T22:34:02+01:00*%
%TF.ProjectId,Universal_Carrier,556e6976-6572-4736-916c-5f4361727269,V4.1 - Zero DRC Parity Clean*%
%TF.SameCoordinates,Original*%
%TF.FileFunction,Copper,L2,Bot*%
%TF.FilePolarity,Positive*%
%FSLAX46Y46*%
G04 Gerber Fmt 4.6, Leading zero omitted, Abs format (unit mm)*
G04 Created by KiCad (PCBNEW 10.0.6) date 2026-10-06 22:34:02*
%MOMM*%
%LPD*%
G01*
G04 APERTURE LIST*
G04 Aperture macros list*
%AMRoundRect*
0 Rectangle with rounded corners*
0 $1 Rounding radius*
0 $2 $3 $4 $5 $6 $7 $8 $9 X,Y pos of 4 corners*
0 Add a 4 corners polygon primitive as box body*
4,1,4,$2,$3,$4,$5,$6,$7,$8,$9,$2,$3,0*
0 Add four circle primitives for the rounded corners*
1,1,$1+$1,$2,$3*
1,1,$1+$1,$4,$5*
1,1,$1+$1,$6,$7*
1,1,$1+$1,$8,$9*
0 Add four rect primitives between the rounded corners*
20,1,$1+$1,$2,$3,$4,$5,0*
20,1,$1+$1,$4,$5,$6,$7,0*
20,1,$1+$1,$6,$7,$8,$9,0*
20,1,$1+$1,$8,$9,$2,$3,0*%
G04 Aperture macros list end*
%TA.AperFunction,ComponentPad*%
%ADD10R,1.700000X1.700000*%
%TD*%
%TA.AperFunction,ComponentPad*%
%ADD11C,1.700000*%
%TD*%
%TA.AperFunction,SMDPad,CuDef*%
%ADD12RoundRect,0.200000X-0.200000X-0.800000X0.200000X-0.800000X0.200000X0.800000X-0.200000X0.800000X0*%
%TD*%
%TA.AperFunction,ComponentPad*%
%ADD13C,1.778000*%
%TD*%
%TA.AperFunction,ComponentPad*%
%ADD14C,2.286000*%
%TD*%
%TA.AperFunction,ViaPad*%
%ADD15C,0.800000*%
%TD*%
%TA.AperFunction,Conductor*%
%ADD16C,0.400000*%
%TD*%
G04 APERTURE END LIST*
D10*
%TO.P,J8,1*%
%TO.N,/IO19_WINCH_MODE*%
X87960000Y-66000000D03*
D11*
%TO.P,J8,2*%
%TO.N,/+5V_SERVO*%
X90500000Y-66000000D03*
%TO.P,J8,3*%
%TO.N,/GND*%
X93040000Y-66000000D03*
%TD*%
D10*
%TO.P,J5,1*%
%TO.N,/IO13_BUZ*%
X65500000Y-44230000D03*
D11*
%TO.P,J5,2*%
%TO.N,/GND*%
X65500000Y-46770000D03*
%TD*%
D10*
%TO.P,J11,1*%
%TO.N,/GND*%
X44000000Y-76000000D03*
D11*
%TO.P,J11,2*%
%TO.N,/+5V*%
X46540000Y-76000000D03*
%TD*%
D10*
%TO.P,J9,1*%
%TO.N,/IO20_RUDDER_DN*%
X87960000Y-61000000D03*
D11*
%TO.P,J9,2*%
%TO.N,/+5V_SERVO*%
X90500000Y-61000000D03*
%TO.P,J9,3*%
%TO.N,/GND*%
X93040000Y-61000000D03*
%TD*%
D10*
%TO.P,J3,1*%
%TO.N,/GND*%
X12000000Y-16000000D03*
D11*
%TO.P,J3,2*%
%TO.N,/+3V3*%
X14540000Y-16000000D03*
%TO.P,J3,3*%
%TO.N,/NC*%
X12000000Y-18540000D03*
%TO.P,J3,4*%
%TO.N,/IO5_NSS*%
X14540000Y-18540000D03*
%TO.P,J3,5*%
%TO.N,/IO2_SCK*%
X12000000Y-21080000D03*
%TO.P,J3,6*%
%TO.N,/IO3_MOSI*%
X14540000Y-21080000D03*
%TO.P,J3,7*%
%TO.N,/IO4_MISO*%
X12000000Y-23620000D03*
%TO.P,J3,8*%
%TO.N,/IO12_LORA_DIO0*%
X14540000Y-23620000D03*
%TD*%
D10*
%TO.P,J7,1*%
%TO.N,/IO18_ACT1_UP*%
X88000000Y-70500000D03*
D11*
%TO.P,J7,2*%
%TO.N,/+5V_SERVO*%
X90540000Y-70500000D03*
%TO.P,J7,3*%
%TO.N,/GND*%
X93080000Y-70500000D03*
%TD*%
D10*
%TO.P,J6,1*%
%TO.N,/IO15*%
X82000000Y-16000000D03*
D11*
%TO.P,J6,2*%
%TO.N,/GPS_TX2*%
X82000000Y-18540000D03*
%TO.P,J6,3*%
%TO.N,/GPS_RX2*%
X82000000Y-21080000D03*
%TO.P,J6,4*%
%TO.N,/IO16_GPS_RX*%
X82000000Y-23620000D03*
%TO.P,J6,5*%
%TO.N,/IO17_GPS_TX*%
X82000000Y-26160000D03*
%TO.P,J6,6*%
%TO.N,/GND*%
X82000000Y-28700000D03*
%TO.P,J6,7*%
%TO.N,/+3V3*%
X82000000Y-31240000D03*
%TD*%
D10*
%TO.P,J12,1*%
%TO.N,/GND*%
X88000000Y-76000000D03*
D11*
%TO.P,J12,2*%
%TO.N,/+5V_SERVO*%
X90540000Y-76000000D03*
%TD*%
D10*
%TO.P,J10,1*%
%TO.N,/IO23_ACT4*%
X87960000Y-56500000D03*
D11*
%TO.P,J10,2*%
%TO.N,/+5V_SERVO*%
X90500000Y-56500000D03*
%TO.P,J10,3*%
%TO.N,/GND*%
X93040000Y-56500000D03*
%TD*%
D10*
%TO.P,J4,1*%
%TO.N,/IO0_ADC*%
X87960000Y-51500000D03*
D11*
%TO.P,J4,2*%
%TO.N,/IO1_ADC*%
X90500000Y-51500000D03*
%TO.P,J4,3*%
%TO.N,/GND*%
X93040000Y-51500000D03*
%TD*%
D12*
%TO.P,SW3,1*%
%TO.N,/IO20_RUDDER_DN*%
X70100000Y-52500000D03*
%TO.P,SW3,2*%
%TO.N,/GND*%
X74300000Y-52500000D03*
%TD*%
D13*
%TO.P,JOY1,B1A*%
%TO.N,/GND*%
X16825000Y-51185200D03*
%TO.P,JOY1,B1B*%
X23175000Y-51205000D03*
%TO.P,JOY1,B2A*%
%TO.N,/IO9_BOOT*%
X16825000Y-56125200D03*
%TO.P,JOY1,B2B*%
X23185000Y-56145200D03*
%TO.P,JOY1,H1*%
%TO.N,/GND*%
X17475000Y-70875200D03*
%TO.P,JOY1,H2*%
%TO.N,/JOY_X*%
X20015000Y-70895200D03*
%TO.P,JOY1,H3*%
%TO.N,/+3V3*%
X22555000Y-70875200D03*
D14*
%TO.P,JOY1,S1*%
%TO.N,/GND*%
X13650000Y-56935200D03*
%TO.P,JOY1,S2*%
X13650000Y-67065200D03*
%TO.P,JOY1,S3*%
X26350000Y-67080000D03*
%TO.P,JOY1,S4*%
X26350000Y-56920000D03*
D13*
%TO.P,JOY1,V1*%
X11110000Y-59460000D03*
%TO.P,JOY1,V2*%
%TO.N,/JOY_Y*%
X11095000Y-61985200D03*
%TO.P,JOY1,V3*%
%TO.N,/+3V3*%
X11095000Y-64525200D03*
%TD*%
D12*
%TO.P,SW4,1*%
%TO.N,/IO9_BOOT*%
X61800000Y-59500000D03*
%TO.P,SW4,2*%
%TO.N,/GND*%
X66000000Y-59500000D03*
%TD*%
%TO.P,SW2,1*%
%TO.N,/IO19_WINCH_MODE*%
X79800000Y-59000000D03*
%TO.P,SW2,2*%
%TO.N,/GND*%
X84000000Y-59000000D03*
%TD*%
%TO.P,SW1,1*%
%TO.N,/IO18_ACT1_UP*%
X70100000Y-66500000D03*
%TO.P,SW1,2*%
%TO.N,/GND*%
X74300000Y-66500000D03*
%TD*%
D10*
%TO.P,J2,1*%
%TO.N,/IO9_BOOT*%
X35000000Y-33780000D03*
D11*
%TO.P,J2,2*%
%TO.N,/IO18_ACT1_UP*%
X37540000Y-33780000D03*
%TO.P,J2,3*%
%TO.N,/IO19_WINCH_MODE*%
X40080000Y-33780000D03*
%TO.P,J2,4*%
%TO.N,/IO20_RUDDER_DN*%
X42620000Y-33780000D03*
%TO.P,J2,5*%
%TO.N,/IO23_ACT4*%
X45160000Y-33780000D03*
%TO.P,J2,6*%
%TO.N,/IO12_LORA_DIO0*%
X47700000Y-33780000D03*
%TO.P,J2,7*%
%TO.N,/IO13_BUZ*%
X50240000Y-33780000D03*
%TO.P,J2,8*%
%TO.N,/IO16_GPS_RX*%
X52780000Y-33780000D03*
%TO.P,J2,9*%
%TO.N,/IO17_GPS_TX*%
X55320000Y-33780000D03*
%TD*%
D10*
%TO.P,JP_RBL,1*%
%TO.N,/JOY_X*%
X42000000Y-58000000D03*
D11*
%TO.P,JP_RBL,2*%
%TO.N,/IO0_ADC*%
X42000000Y-60540000D03*
%TO.P,JP_RBL,3*%
%TO.N,/JOY_Y*%
X42000000Y-63080000D03*
%TO.P,JP_RBL,4*%
%TO.N,/IO1_ADC*%
X42000000Y-65620000D03*
%TD*%
D10*
%TO.P,J1,1*%
%TO.N,/IO5_NSS*%
X35000000Y-16000000D03*
D11*
%TO.P,J1,2*%
%TO.N,/IO4_MISO*%
X37540000Y-16000000D03*
%TO.P,J1,3*%
%TO.N,/IO3_MOSI*%
X40080000Y-16000000D03*
%TO.P,J1,4*%
%TO.N,/IO2_SCK*%
X42620000Y-16000000D03*
%TO.P,J1,5*%
%TO.N,/IO1_ADC*%
X45160000Y-16000000D03*
%TO.P,J1,6*%
%TO.N,/IO0_ADC*%
X47700000Y-16000000D03*
%TO.P,J1,7*%
%TO.N,/+3V3*%
X50240000Y-16000000D03*
%TO.P,J1,8*%
%TO.N,/GND*%
X52780000Y-16000000D03*
%TO.P,J1,9*%
%TO.N,/+5V*%
X55320000Y-16000000D03*
%TD*%
D15*
%TO.N,/GND*%
X84500000Y-68000000D03*
X25000000Y-18500000D03*
X89000000Y-58500000D03*
X40500000Y-20500000D03*
X43000000Y-44500000D03*
X46500000Y-38500000D03*
X80000000Y-25000000D03*
X44500000Y-19000000D03*
X38000000Y-28500000D03*
X25500000Y-13500000D03*
X31000000Y-62000000D03*
X31500000Y-19000000D03*
X81500000Y-64500000D03*
X31500000Y-25500000D03*
X61000000Y-17500000D03*
%TO.N,/IO2_SCK*%
X41000000Y-29000000D03*
%TO.N,/IO4_MISO*%
X37540000Y-26000000D03*
%TD*%
%TO.N,/IO19_WINCH_MODE*%
D16*
X83331371Y-64200000D02*
X86160000Y-64200000D01*
X79800000Y-61800000D02*
X81200000Y-63200000D01*
X81200000Y-63200000D02*
X82331371Y-63200000D01*
X86160000Y-64200000D02*
X87960000Y-66000000D01*
X82331371Y-63200000D02*
X83331371Y-64200000D01*
X79800000Y-59000000D02*
X79800000Y-61800000D01*
%TO.N,/+5V*%
X59000000Y-67500000D02*
X59000000Y-19680000D01*
X46540000Y-76000000D02*
X50500000Y-76000000D01*
X59000000Y-19680000D02*
X55320000Y-16000000D01*
X50500000Y-76000000D02*
X59000000Y-67500000D01*
%TO.N,/IO20_RUDDER_DN*%
X71500000Y-56000000D02*
X84750000Y-56000000D01*
X70100000Y-54600000D02*
X71500000Y-56000000D01*
X70100000Y-52500000D02*
X70100000Y-54600000D01*
X84750000Y-56000000D02*
X87960000Y-59210000D01*
X87960000Y-59210000D02*
X87960000Y-61000000D01*
%TO.N,/IO2_SCK*%
X42620000Y-27380000D02*
X42620000Y-16000000D01*
X41000000Y-29000000D02*
X42620000Y-27380000D01*
%TO.N,/IO4_MISO*%
X37540000Y-26000000D02*
X37540000Y-16000000D01*
%TO.N,/IO18_ACT1_UP*%
X70100000Y-66500000D02*
X70100000Y-69100000D01*
X86000000Y-72500000D02*
X88000000Y-70500000D01*
X70100000Y-69100000D02*
X73500000Y-72500000D01*
X73500000Y-72500000D02*
X86000000Y-72500000D01*
%TO.N,/IO0_ADC*%
X31000000Y-31500000D02*
X29000000Y-33500000D01*
X87960000Y-46872233D02*
X54587767Y-13500000D01*
X29000000Y-33500000D02*
X29000000Y-57000000D01*
X47700000Y-27800000D02*
X44000000Y-31500000D01*
X32540000Y-60540000D02*
X42000000Y-60540000D01*
X47700000Y-16000000D02*
X47700000Y-27800000D01*
X44000000Y-31500000D02*
X31000000Y-31500000D01*
X29000000Y-57000000D02*
X32540000Y-60540000D01*
X87960000Y-51500000D02*
X87960000Y-46872233D01*
X50200000Y-13500000D02*
X47700000Y-16000000D01*
X54587767Y-13500000D02*
X50200000Y-13500000D01*
%TO.N,/IO1_ADC*%
X28000000Y-18000000D02*
X34000000Y-12000000D01*
X32620000Y-65620000D02*
X28000000Y-61000000D01*
X44320000Y-12000000D02*
X45160000Y-12840000D01*
X46000000Y-12000000D02*
X45160000Y-12840000D01*
X90500000Y-45500000D02*
X57000000Y-12000000D01*
X90500000Y-51500000D02*
X90500000Y-45500000D01*
X45160000Y-12840000D02*
X45160000Y-16000000D01*
X42000000Y-65620000D02*
X32620000Y-65620000D01*
X28000000Y-61000000D02*
X28000000Y-18000000D01*
X57000000Y-12000000D02*
X46000000Y-12000000D01*
X34000000Y-12000000D02*
X44320000Y-12000000D01*
%TO.N,/JOY_X*%
X46000000Y-71500000D02*
X46000000Y-58500000D01*
X20015000Y-74015000D02*
X21000000Y-75000000D01*
X46000000Y-58500000D02*
X45500000Y-58000000D01*
X45500000Y-58000000D02*
X42000000Y-58000000D01*
X20015000Y-70895200D02*
X20015000Y-74015000D01*
X42500000Y-75000000D02*
X46000000Y-71500000D01*
X21000000Y-75000000D02*
X42500000Y-75000000D01*
%TO.N,/JOY_Y*%
X27000000Y-64000000D02*
X13109800Y-64000000D01*
X44000000Y-66500000D02*
X42500000Y-68000000D01*
X42000000Y-63080000D02*
X43080000Y-63080000D01*
X42500000Y-68000000D02*
X31000000Y-68000000D01*
X13109800Y-64000000D02*
X11095000Y-61985200D01*
X43080000Y-63080000D02*
X44000000Y-64000000D01*
X31000000Y-68000000D02*
X27000000Y-64000000D01*
X44000000Y-64000000D02*
X44000000Y-66500000D01*
%TO.N,/IO9_BOOT*%
X50098528Y-77250000D02*
X7750000Y-77250000D01*
X10500000Y-54000000D02*
X14699800Y-54000000D01*
X7000000Y-57500000D02*
X10500000Y-54000000D01*
X14699800Y-54000000D02*
X16825000Y-56125200D01*
X61800000Y-65548528D02*
X50098528Y-77250000D01*
X7000000Y-76500000D02*
X7000000Y-57500000D01*
X7750000Y-77250000D02*
X7000000Y-76500000D01*
X61800000Y-59500000D02*
X61800000Y-65548528D01*
%TD*%
%TA.AperFunction,Conductor*%
%TO.N,/GND*%
G36*
X51572194Y-16168463D02*
G01*
X51630427Y-16207072D01*
X51656731Y-16264668D01*
X51657181Y-16264561D01*
X51657733Y-16266863D01*
X51658039Y-16267532D01*
X51658318Y-16269298D01*
X51714251Y-16441444D01*
X51714252Y-16441447D01*
X51796434Y-16602734D01*
X51837667Y-16659487D01*
X51837668Y-16659487D01*
X52311980Y-16185176D01*
X52314075Y-16192993D01*
X52379901Y-16307007D01*
X52472993Y-16400099D01*
X52587007Y-16465925D01*
X52594822Y-16468019D01*
X52120510Y-16942330D01*
X52120511Y-16942331D01*
X52177265Y-16983565D01*
X52338552Y-17065747D01*
X52338555Y-17065748D01*
X52510706Y-17121682D01*
X52689494Y-17150000D01*
X52870506Y-17150000D01*
X53049293Y-17121682D01*
X53221444Y-17065748D01*
X53221447Y-17065747D01*
X53382730Y-16983568D01*
X53439487Y-16942330D01*
X53439488Y-16942329D01*
X52965178Y-16468019D01*
X52972993Y-16465925D01*
X53087007Y-16400099D01*
X53180099Y-16307007D01*
X53245925Y-16192993D01*
X53248019Y-16185177D01*
X53722329Y-16659488D01*
X53722330Y-16659487D01*
X53763568Y-16602730D01*
X53845747Y-16441447D01*
X53845748Y-16441444D01*
X53901681Y-16269297D01*
X53901958Y-16267550D01*
X53902248Y-16266936D01*
X53902819Y-16264561D01*
X53903317Y-16264680D01*
X53931877Y-16204411D01*
X53991183Y-16167470D01*
X54061046Y-16168457D01*
X54119284Y-16207058D01*
X54146906Y-16267525D01*
X54149059Y-16281116D01*
X54149059Y-16281118D01*
X54207454Y-16460836D01*
X54243668Y-16531909D01*
X54293240Y-16629199D01*
X54404310Y-16782073D01*
X54537927Y-16915690D01*
X54690801Y-17026760D01*
X54701792Y-17032360D01*
X54859163Y-17112545D01*
X54859165Y-17112545D01*
X54859168Y-17112547D01*
X54941185Y-17139196D01*
X55038881Y-17170940D01*
X55225514Y-17200500D01*
X55225519Y-17200500D01*
X55414486Y-17200500D01*
X55499316Y-17187063D01*
X55601118Y-17170940D01*
X55612846Y-17167128D01*
X55682684Y-17165128D01*
X55738851Y-17197376D01*
X58413182Y-19871707D01*
X58446666Y-19933028D01*
X58449500Y-19959386D01*
X58449500Y-67220613D01*
X58429815Y-67287652D01*
X58413181Y-67308294D01*
X50308294Y-75413181D01*
X50246971Y-75446666D01*
X50220613Y-75449500D01*
X47682847Y-75449500D01*
X47615808Y-75429815D01*
X47572363Y-75381797D01*
X47571143Y-75379403D01*
X47566760Y-75370801D01*
X47455690Y-75217927D01*
X47322073Y-75084310D01*
X47169199Y-74973240D01*
X47000836Y-74887454D01*
X46821118Y-74829059D01*
X46634486Y-74799500D01*
X46634481Y-74799500D01*
X46445519Y-74799500D01*
X46445514Y-74799500D01*
X46258881Y-74829059D01*
X46079163Y-74887454D01*
X45910800Y-74973240D01*
X45854777Y-75013944D01*
X45757927Y-75084310D01*
X45757925Y-75084312D01*
X45757924Y-75084312D01*
X45624312Y-75217924D01*
X45624312Y-75217925D01*
X45624310Y-75217927D01*
X45576610Y-75283579D01*
X45513240Y-75370800D01*
X45427454Y-75539163D01*
X45391930Y-75648495D01*
X45352492Y-75706170D01*
X45288133Y-75733368D01*
X45219287Y-75721453D01*
X45167811Y-75674208D01*
X45149999Y-75610176D01*
X45149999Y-75105214D01*
X45149997Y-75105191D01*
X45147091Y-75080130D01*
X45147090Y-75080126D01*
X45101788Y-74977525D01*
X45101785Y-74977520D01*
X45022479Y-74898214D01*
X45022474Y-74898211D01*
X44919876Y-74852910D01*
X44894794Y-74850000D01*
X44200000Y-74850000D01*
X44200000Y-75538120D01*
X44192993Y-75534075D01*
X44065826Y-75500000D01*
X43934174Y-75500000D01*
X43807007Y-75534075D01*
X43800000Y-75538120D01*
X43800000Y-74850000D01*
X43727886Y-74850000D01*
X43660847Y-74830315D01*
X43615092Y-74777511D01*
X43605148Y-74708353D01*
X43634173Y-74644797D01*
X43640191Y-74638333D01*
X46440510Y-71838015D01*
X46512984Y-71712485D01*
X46524314Y-71670200D01*
X46550500Y-71572475D01*
X46550500Y-58427525D01*
X46512984Y-58287515D01*
X46440510Y-58161985D01*
X45838015Y-57559490D01*
X45712485Y-57487016D01*
X45712486Y-57487016D01*
X45603592Y-57457838D01*
X45603592Y-57457837D01*
X45572475Y-57449500D01*
X43324500Y-57449500D01*
X43257461Y-57429815D01*
X43211706Y-57377011D01*
X43200500Y-57325500D01*
X43200500Y-57116739D01*
X43190573Y-57048608D01*
X43190573Y-57048607D01*
X43139198Y-56943517D01*
X43139196Y-56943515D01*
X43139196Y-56943514D01*
X43056485Y-56860803D01*
X42951391Y-56809426D01*
X42883261Y-56799500D01*
X42883260Y-56799500D01*
X41116740Y-56799500D01*
X41116739Y-56799500D01*
X41048608Y-56809426D01*
X40943514Y-56860803D01*
X40860803Y-56943514D01*
X40809426Y-57048608D01*
X40799500Y-57116739D01*
X40799500Y-58883260D01*
X40809426Y-58951391D01*
X40860803Y-59056485D01*
X40943514Y-59139196D01*
X40943515Y-59139196D01*
X40943517Y-59139198D01*
X41048607Y-59190573D01*
X41082673Y-59195536D01*
X41116739Y-59200500D01*
X41468090Y-59200500D01*
X41535129Y-59220185D01*
X41580884Y-59272989D01*
X41590828Y-59342147D01*
X41561803Y-59405703D01*
X41524385Y-59434985D01*
X41370800Y-59513240D01*
X41283579Y-59576610D01*
X41217927Y-59624310D01*
X41217925Y-59624312D01*
X41217924Y-59624312D01*
X41084312Y-59757924D01*
X41084312Y-59757925D01*
X41084310Y-59757927D01*
X40996841Y-59878317D01*
X40973240Y-59910801D01*
X40967637Y-59921797D01*
X40919661Y-59972592D01*
X40857153Y-59989500D01*
X32819387Y-59989500D01*
X32752348Y-59969815D01*
X32731706Y-59953181D01*
X29586819Y-56808294D01*
X29553334Y-56746971D01*
X29550500Y-56720613D01*
X29550500Y-33779387D01*
X29570185Y-33712348D01*
X29586819Y-33691706D01*
X30381786Y-32896739D01*
X33799500Y-32896739D01*
X33799500Y-34663260D01*
X33809426Y-34731391D01*
X33860803Y-34836485D01*
X33943514Y-34919196D01*
X33943515Y-34919196D01*
X33943517Y-34919198D01*
X34048607Y-34970573D01*
X34082673Y-34975536D01*
X34116739Y-34980500D01*
X34116740Y-34980500D01*
X35883261Y-34980500D01*
X35905971Y-34977191D01*
X35951393Y-34970573D01*
X36056483Y-34919198D01*
X36139198Y-34836483D01*
X36190573Y-34731393D01*
X36200500Y-34663260D01*
X36200500Y-34311909D01*
X36220185Y-34244870D01*
X36272989Y-34199115D01*
X36342147Y-34189171D01*
X36405703Y-34218196D01*
X36434984Y-34255613D01*
X36513240Y-34409199D01*
X36624310Y-34562073D01*
X36757927Y-34695690D01*
X36910801Y-34806760D01*
X36969136Y-34836483D01*
X37079163Y-34892545D01*
X37079165Y-34892545D01*
X37079168Y-34892547D01*
X37161185Y-34919196D01*
X37258881Y-34950940D01*
X37445514Y-34980500D01*
X37445519Y-34980500D01*
X37634486Y-34980500D01*
X37821118Y-34950940D01*
X38000832Y-34892547D01*
X38169199Y-34806760D01*
X38322073Y-34695690D01*
X38455690Y-34562073D01*
X38566760Y-34409199D01*
X38652547Y-34240832D01*
X38692069Y-34119195D01*
X38731507Y-34061521D01*
X38795866Y-34034323D01*
X38864712Y-34046238D01*
X38916188Y-34093482D01*
X38927931Y-34119196D01*
X38967454Y-34240836D01*
X39003668Y-34311909D01*
X39053240Y-34409199D01*
X39164310Y-34562073D01*
X39297927Y-34695690D01*
X39450801Y-34806760D01*
X39509136Y-34836483D01*
X39619163Y-34892545D01*
X39619165Y-34892545D01*
X39619168Y-34892547D01*
X39701185Y-34919196D01*
X39798881Y-34950940D01*
X39985514Y-34980500D01*
X39985519Y-34980500D01*
X40174486Y-34980500D01*
X40361118Y-34950940D01*
X40540832Y-34892547D01*
X40709199Y-34806760D01*
X40862073Y-34695690D01*
X40995690Y-34562073D01*
X41106760Y-34409199D01*
X41192547Y-34240832D01*
X41232069Y-34119195D01*
X41271507Y-34061521D01*
X41335866Y-34034323D01*
X41404712Y-34046238D01*
X41456188Y-34093482D01*
X41467931Y-34119196D01*
X41507454Y-34240836D01*
X41543668Y-34311909D01*
X41593240Y-34409199D01*
X41704310Y-34562073D01*
X41837927Y-34695690D01*
X41990801Y-34806760D01*
X42049136Y-34836483D01*
X42159163Y-34892545D01*
X42159165Y-34892545D01*
X42159168Y-34892547D01*
X42241185Y-34919196D01*
X42338881Y-34950940D01*
X42525514Y-34980500D01*
X42525519Y-34980500D01*
X42714486Y-34980500D01*
X42901118Y-34950940D01*
X43080832Y-34892547D01*
X43249199Y-34806760D01*
X43402073Y-34695690D01*
X43535690Y-34562073D01*
X43646760Y-34409199D01*
X43732547Y-34240832D01*
X43772069Y-34119195D01*
X43811507Y-34061521D01*
X43875866Y-34034323D01*
X43944712Y-34046238D01*
X43996188Y-34093482D01*
X44007931Y-34119196D01*
X44047454Y-34240836D01*
X44083668Y-34311909D01*
X44133240Y-34409199D01*
X44244310Y-34562073D01*
X44377927Y-34695690D01*
X44530801Y-34806760D01*
X44589136Y-34836483D01*
X44699163Y-34892545D01*
X44699165Y-34892545D01*
X44699168Y-34892547D01*
X44781185Y-34919196D01*
X44878881Y-34950940D01*
X45065514Y-34980500D01*
X45065519Y-34980500D01*
X45254486Y-34980500D01*
X45441118Y-34950940D01*
X45620832Y-34892547D01*
X45789199Y-34806760D01*
X45942073Y-34695690D01*
X46075690Y-34562073D01*
X46186760Y-34409199D01*
X46272547Y-34240832D01*
X46312069Y-34119195D01*
X46351507Y-34061521D01*
X46415866Y-34034323D01*
X46484712Y-34046238D01*
X46536188Y-34093482D01*
X46547931Y-34119196D01*
X46587454Y-34240836D01*
X46623668Y-34311909D01*
X46673240Y-34409199D01*
X46784310Y-34562073D01*
X46917927Y-34695690D01*
X47070801Y-34806760D01*
X47129136Y-34836483D01*
X47239163Y-34892545D01*
X47239165Y-34892545D01*
X47239168Y-34892547D01*
X47321185Y-34919196D01*
X47418881Y-34950940D01*
X47605514Y-34980500D01*
X47605519Y-34980500D01*
X47794486Y-34980500D01*
X47981118Y-34950940D01*
X48160832Y-34892547D01*
X48329199Y-34806760D01*
X48482073Y-34695690D01*
X48615690Y-34562073D01*
X48726760Y-34409199D01*
X48812547Y-34240832D01*
X48852069Y-34119195D01*
X48891507Y-34061521D01*
X48955866Y-34034323D01*
X49024712Y-34046238D01*
X49076188Y-34093482D01*
X49087931Y-34119196D01*
X49127454Y-34240836D01*
X49163668Y-34311909D01*
X49213240Y-34409199D01*
X49324310Y-34562073D01*
X49457927Y-34695690D01*
X49610801Y-34806760D01*
X49669136Y-34836483D01*
X49779163Y-34892545D01*
X49779165Y-34892545D01*
X49779168Y-34892547D01*
X49861185Y-34919196D01*
X49958881Y-34950940D01*
X50145514Y-34980500D01*
X50145519Y-34980500D01*
X50334486Y-34980500D01*
X50521118Y-34950940D01*
X50700832Y-34892547D01*
X50869199Y-34806760D01*
X51022073Y-34695690D01*
X51155690Y-34562073D01*
X51266760Y-34409199D01*
X51352547Y-34240832D01*
X51392069Y-34119195D01*
X51431507Y-34061521D01*
X51495866Y-34034323D01*
X51564712Y-34046238D01*
X51616188Y-34093482D01*
X51627931Y-34119196D01*
X51667454Y-34240836D01*
X51703668Y-34311909D01*
X51753240Y-34409199D01*
X51864310Y-34562073D01*
X51997927Y-34695690D01*
X52150801Y-34806760D01*
X52209136Y-34836483D01*
X52319163Y-34892545D01*
X52319165Y-34892545D01*
X52319168Y-34892547D01*
X52401185Y-34919196D01*
X52498881Y-34950940D01*
X52685514Y-34980500D01*
X52685519Y-34980500D01*
X52874486Y-34980500D01*
X53061118Y-34950940D01*
X53240832Y-34892547D01*
X53409199Y-34806760D01*
X53562073Y-34695690D01*
X53695690Y-34562073D01*
X53806760Y-34409199D01*
X53892547Y-34240832D01*
X53932069Y-34119195D01*
X53971507Y-34061521D01*
X54035866Y-34034323D01*
X54104712Y-34046238D01*
X54156188Y-34093482D01*
X54167931Y-34119196D01*
X54207454Y-34240836D01*
X54243668Y-34311909D01*
X54293240Y-34409199D01*
X54404310Y-34562073D01*
X54537927Y-34695690D01*
X54690801Y-34806760D01*
X54749136Y-34836483D01*
X54859163Y-34892545D01*
X54859165Y-34892545D01*
X54859168Y-34892547D01*
X54941185Y-34919196D01*
X55038881Y-34950940D01*
X55225514Y-34980500D01*
X55225519Y-34980500D01*
X55414486Y-34980500D01*
X55601118Y-34950940D01*
X55780832Y-34892547D01*
X55949199Y-34806760D01*
X56102073Y-34695690D01*
X56235690Y-34562073D01*
X56346760Y-34409199D01*
X56432547Y-34240832D01*
X56490940Y-34061118D01*
X56495184Y-34034323D01*
X56520500Y-33874486D01*
X56520500Y-33685513D01*
X56490940Y-33498881D01*
X56444248Y-33355181D01*
X56432547Y-33319168D01*
X56432545Y-33319165D01*
X56432545Y-33319163D01*
X56360392Y-33177556D01*
X56346760Y-33150801D01*
X56235690Y-32997927D01*
X56102073Y-32864310D01*
X55949199Y-32753240D01*
X55780836Y-32667454D01*
X55601118Y-32609059D01*
X55414486Y-32579500D01*
X55414481Y-32579500D01*
X55225519Y-32579500D01*
X55225514Y-32579500D01*
X55038881Y-32609059D01*
X54859163Y-32667454D01*
X54690800Y-32753240D01*
X54603579Y-32816610D01*
X54537927Y-32864310D01*
X54537925Y-32864312D01*
X54537924Y-32864312D01*
X54404312Y-32997924D01*
X54404312Y-32997925D01*
X54404310Y-32997927D01*
X54356610Y-33063579D01*
X54293240Y-33150800D01*
X54207454Y-33319163D01*
X54167931Y-33440803D01*
X54128493Y-33498478D01*
X54064134Y-33525676D01*
X53995288Y-33513761D01*
X53943812Y-33466516D01*
X53932069Y-33440803D01*
X53904248Y-33355181D01*
X53892547Y-33319168D01*
X53892545Y-33319165D01*
X53892545Y-33319163D01*
X53820392Y-33177556D01*
X53806760Y-33150801D01*
X53695690Y-32997927D01*
X53562073Y-32864310D01*
X53409199Y-32753240D01*
X53240836Y-32667454D01*
X53061118Y-32609059D01*
X52874486Y-32579500D01*
X52874481Y-32579500D01*
X52685519Y-32579500D01*
X52685514Y-32579500D01*
X52498881Y-32609059D01*
X52319163Y-32667454D01*
X52150800Y-32753240D01*
X52063579Y-32816610D01*
X51997927Y-32864310D01*
X51997925Y-32864312D01*
X51997924Y-32864312D01*
X51864312Y-32997924D01*
X51864312Y-32997925D01*
X51864310Y-32997927D01*
X51816610Y-33063579D01*
X51753240Y-33150800D01*
X51667454Y-33319163D01*
X51627931Y-33440803D01*
X51588493Y-33498478D01*
X51524134Y-33525676D01*
X51455288Y-33513761D01*
X51403812Y-33466516D01*
X51392069Y-33440803D01*
X51364248Y-33355181D01*
X51352547Y-33319168D01*
X51352545Y-33319165D01*
X51352545Y-33319163D01*
X51280392Y-33177556D01*
X51266760Y-33150801D01*
X51155690Y-32997927D01*
X51022073Y-32864310D01*
X50869199Y-32753240D01*
X50700836Y-32667454D01*
X50521118Y-32609059D01*
X50334486Y-32579500D01*
X50334481Y-32579500D01*
X50145519Y-32579500D01*
X50145514Y-32579500D01*
X49958881Y-32609059D01*
X49779163Y-32667454D01*
X49610800Y-32753240D01*
X49523579Y-32816610D01*
X49457927Y-32864310D01*
X49457925Y-32864312D01*
X49457924Y-32864312D01*
X49324312Y-32997924D01*
X49324312Y-32997925D01*
X49324310Y-32997927D01*
X49276610Y-33063579D01*
X49213240Y-33150800D01*
X49127454Y-33319163D01*
X49087931Y-33440803D01*
X49048493Y-33498478D01*
X48984134Y-33525676D01*
X48915288Y-33513761D01*
X48863812Y-33466516D01*
X48852069Y-33440803D01*
X48824248Y-33355181D01*
X48812547Y-33319168D01*
X48812545Y-33319165D01*
X48812545Y-33319163D01*
X48740392Y-33177556D01*
X48726760Y-33150801D01*
X48615690Y-32997927D01*
X48482073Y-32864310D01*
X48329199Y-32753240D01*
X48160836Y-32667454D01*
X47981118Y-32609059D01*
X47794486Y-32579500D01*
X47794481Y-32579500D01*
X47605519Y-32579500D01*
X47605514Y-32579500D01*
X47418881Y-32609059D01*
X47239163Y-32667454D01*
X47070800Y-32753240D01*
X46983579Y-32816610D01*
X46917927Y-32864310D01*
X46917925Y-32864312D01*
X46917924Y-32864312D01*
X46784312Y-32997924D01*
X46784312Y-32997925D01*
X46784310Y-32997927D01*
X46736610Y-33063579D01*
X46673240Y-33150800D01*
X46587454Y-33319163D01*
X46547931Y-33440803D01*
X46508493Y-33498478D01*
X46444134Y-33525676D01*
X46375288Y-33513761D01*
X46323812Y-33466516D01*
X46312069Y-33440803D01*
X46284248Y-33355181D01*
X46272547Y-33319168D01*
X46272545Y-33319165D01*
X46272545Y-33319163D01*
X46200392Y-33177556D01*
X46186760Y-33150801D01*
X46075690Y-32997927D01*
X45942073Y-32864310D01*
X45789199Y-32753240D01*
X45620836Y-32667454D01*
X45441118Y-32609059D01*
X45254486Y-32579500D01*
X45254481Y-32579500D01*
X45065519Y-32579500D01*
X45065514Y-32579500D01*
X44878881Y-32609059D01*
X44699163Y-32667454D01*
X44530800Y-32753240D01*
X44443579Y-32816610D01*
X44377927Y-32864310D01*
X44377925Y-32864312D01*
X44377924Y-32864312D01*
X44244312Y-32997924D01*
X44244312Y-32997925D01*
X44244310Y-32997927D01*
X44196610Y-33063579D01*
X44133240Y-33150800D01*
X44047454Y-33319163D01*
X44007931Y-33440803D01*
X43968493Y-33498478D01*
X43904134Y-33525676D01*
X43835288Y-33513761D01*
X43783812Y-33466516D01*
X43772069Y-33440803D01*
X43744248Y-33355181D01*
X43732547Y-33319168D01*
X43732545Y-33319165D01*
X43732545Y-33319163D01*
X43660392Y-33177556D01*
X43646760Y-33150801D01*
X43535690Y-32997927D01*
X43402073Y-32864310D01*
X43249199Y-32753240D01*
X43080836Y-32667454D01*
X42901118Y-32609059D01*
X42714486Y-32579500D01*
X42714481Y-32579500D01*
X42525519Y-32579500D01*
X42525514Y-32579500D01*
X42338881Y-32609059D01*
X42159163Y-32667454D01*
X41990800Y-32753240D01*
X41903579Y-32816610D01*
X41837927Y-32864310D01*
X41837925Y-32864312D01*
X41837924Y-32864312D01*
X41704312Y-32997924D01*
X41704312Y-32997925D01*
X41704310Y-32997927D01*
X41656610Y-33063579D01*
X41593240Y-33150800D01*
X41507454Y-33319163D01*
X41467931Y-33440803D01*
X41428493Y-33498478D01*
X41364134Y-33525676D01*
X41295288Y-33513761D01*
X41243812Y-33466516D01*
X41232069Y-33440803D01*
X41204248Y-33355181D01*
X41192547Y-33319168D01*
X41192545Y-33319165D01*
X41192545Y-33319163D01*
X41120392Y-33177556D01*
X41106760Y-33150801D01*
X40995690Y-32997927D01*
X40862073Y-32864310D01*
X40709199Y-32753240D01*
X40540836Y-32667454D01*
X40361118Y-32609059D01*
X40174486Y-32579500D01*
X40174481Y-32579500D01*
X39985519Y-32579500D01*
X39985514Y-32579500D01*
X39798881Y-32609059D01*
X39619163Y-32667454D01*
X39450800Y-32753240D01*
X39363579Y-32816610D01*
X39297927Y-32864310D01*
X39297925Y-32864312D01*
X39297924Y-32864312D01*
X39164312Y-32997924D01*
X39164312Y-32997925D01*
X39164310Y-32997927D01*
X39116610Y-33063579D01*
X39053240Y-33150800D01*
X38967454Y-33319163D01*
X38927931Y-33440803D01*
X38888493Y-33498478D01*
X38824134Y-33525676D01*
X38755288Y-33513761D01*
X38703812Y-33466516D01*
X38692069Y-33440803D01*
X38664248Y-33355181D01*
X38652547Y-33319168D01*
X38652545Y-33319165D01*
X38652545Y-33319163D01*
X38580392Y-33177556D01*
X38566760Y-33150801D01*
X38455690Y-32997927D01*
X38322073Y-32864310D01*
X38169199Y-32753240D01*
X38000836Y-32667454D01*
X37821118Y-32609059D01*
X37634486Y-32579500D01*
X37634481Y-32579500D01*
X37445519Y-32579500D01*
X37445514Y-32579500D01*
X37258881Y-32609059D01*
X37079163Y-32667454D01*
X36910800Y-32753240D01*
X36823579Y-32816610D01*
X36757927Y-32864310D01*
X36757925Y-32864312D01*
X36757924Y-32864312D01*
X36624312Y-32997924D01*
X36624312Y-32997925D01*
X36624310Y-32997927D01*
X36576610Y-33063579D01*
X36513240Y-33150800D01*
X36434985Y-33304385D01*
X36387010Y-33355181D01*
X36319189Y-33371976D01*
X36253054Y-33349439D01*
X36209603Y-33294723D01*
X36200500Y-33248090D01*
X36200500Y-32896739D01*
X36190573Y-32828608D01*
X36190573Y-32828607D01*
X36139198Y-32723517D01*
X36139196Y-32723515D01*
X36139196Y-32723514D01*
X36056485Y-32640803D01*
X35951391Y-32589426D01*
X35883261Y-32579500D01*
X35883260Y-32579500D01*
X34116740Y-32579500D01*
X34116739Y-32579500D01*
X34048608Y-32589426D01*
X33943514Y-32640803D01*
X33860803Y-32723514D01*
X33809426Y-32828608D01*
X33799500Y-32896739D01*
X30381786Y-32896739D01*
X31191706Y-32086819D01*
X31253029Y-32053334D01*
X31279387Y-32050500D01*
X44072472Y-32050500D01*
X44072474Y-32050500D01*
X44072475Y-32050500D01*
X44212485Y-32012984D01*
X44245881Y-31993703D01*
X44338015Y-31940510D01*
X48140510Y-28138015D01*
X48212984Y-28012485D01*
X48250500Y-27872475D01*
X48250500Y-17142846D01*
X48270185Y-17075807D01*
X48318208Y-17032360D01*
X48329199Y-17026760D01*
X48482073Y-16915690D01*
X48615690Y-16782073D01*
X48726760Y-16629199D01*
X48812547Y-16460832D01*
X48852069Y-16339195D01*
X48891507Y-16281521D01*
X48955866Y-16254323D01*
X49024712Y-16266238D01*
X49076188Y-16313482D01*
X49087931Y-16339196D01*
X49127454Y-16460836D01*
X49163668Y-16531909D01*
X49213240Y-16629199D01*
X49324310Y-16782073D01*
X49457927Y-16915690D01*
X49610801Y-17026760D01*
X49621792Y-17032360D01*
X49779163Y-17112545D01*
X49779165Y-17112545D01*
X49779168Y-17112547D01*
X49861185Y-17139196D01*
X49958881Y-17170940D01*
X50145514Y-17200500D01*
X50145519Y-17200500D01*
X50334486Y-17200500D01*
X50521118Y-17170940D01*
X50539005Y-17165128D01*
X50700832Y-17112547D01*
X50869199Y-17026760D01*
X51022073Y-16915690D01*
X51155690Y-16782073D01*
X51266760Y-16629199D01*
X51352547Y-16460832D01*
X51410940Y-16281118D01*
X51413092Y-16267532D01*
X51443021Y-16204397D01*
X51502332Y-16167465D01*
X51572194Y-16168463D01*
G37*
%TD.AperFunction*%
%TA.AperFunction,Conductor*%
G36*
X28755703Y-57534674D02*
G01*
X28762181Y-57540706D01*
X32201985Y-60980510D01*
X32304614Y-61039762D01*
X32304613Y-61039762D01*
X32304616Y-61039763D01*
X32316064Y-61046373D01*
X32327511Y-61052982D01*
X32327512Y-61052982D01*
X32327515Y-61052984D01*
X32467525Y-61090500D01*
X32467526Y-61090500D01*
X32612474Y-61090500D01*
X40857153Y-61090500D01*
X40924192Y-61110185D01*
X40967637Y-61158203D01*
X40973240Y-61169199D01*
X41084310Y-61322073D01*
X41217927Y-61455690D01*
X41370801Y-61566760D01*
X41441396Y-61602730D01*
X41539163Y-61652545D01*
X41539165Y-61652545D01*
X41539168Y-61652547D01*
X41628734Y-61681649D01*
X41660803Y-61692069D01*
X41718478Y-61731507D01*
X41745676Y-61795866D01*
X41733761Y-61864712D01*
X41686516Y-61916188D01*
X41660803Y-61927931D01*
X41539163Y-61967454D01*
X41370800Y-62053240D01*
X41289175Y-62112545D01*
X41217927Y-62164310D01*
X41217925Y-62164312D01*
X41217924Y-62164312D01*
X41084312Y-62297924D01*
X41084312Y-62297925D01*
X41084310Y-62297927D01*
X41036610Y-62363579D01*
X40973240Y-62450800D01*
X40887454Y-62619163D01*
X40829059Y-62798881D01*
X40799500Y-62985513D01*
X40799500Y-63174486D01*
X40829059Y-63361118D01*
X40887454Y-63540836D01*
X40938240Y-63640508D01*
X40973240Y-63709199D01*
X41084310Y-63862073D01*
X41217927Y-63995690D01*
X41370801Y-64106760D01*
X41450347Y-64147290D01*
X41539163Y-64192545D01*
X41539165Y-64192545D01*
X41539168Y-64192547D01*
X41628734Y-64221649D01*
X41660803Y-64232069D01*
X41718478Y-64271507D01*
X41745676Y-64335866D01*
X41733761Y-64404712D01*
X41686516Y-64456188D01*
X41660803Y-64467931D01*
X41539163Y-64507454D01*
X41370800Y-64593240D01*
X41217924Y-64704312D01*
X41084312Y-64837924D01*
X41084312Y-64837925D01*
X41084310Y-64837927D01*
X41007596Y-64943514D01*
X40973240Y-64990801D01*
X40967637Y-65001797D01*
X40919661Y-65052592D01*
X40857153Y-65069500D01*
X32899386Y-65069500D01*
X32832347Y-65049815D01*
X32811705Y-65033181D01*
X28586819Y-60808294D01*
X28553334Y-60746971D01*
X28550500Y-60720613D01*
X28550500Y-57628387D01*
X28570185Y-57561348D01*
X28622989Y-57515593D01*
X28692147Y-57505649D01*
X28755703Y-57534674D01*
G37*
%TD.AperFunction*%
%TA.AperFunction,Conductor*%
G36*
X56787652Y-12570185D02*
G01*
X56808294Y-12586819D01*
X89913181Y-45691706D01*
X89946666Y-45753029D01*
X89949500Y-45779387D01*
X89949500Y-50357152D01*
X89929815Y-50424191D01*
X89881800Y-50467634D01*
X89870807Y-50473235D01*
X89870804Y-50473237D01*
X89779076Y-50539882D01*
X89717927Y-50584310D01*
X89717925Y-50584312D01*
X89717924Y-50584312D01*
X89584312Y-50717924D01*
X89584312Y-50717925D01*
X89584310Y-50717927D01*
X89536610Y-50783579D01*
X89473240Y-50870800D01*
X89394985Y-51024385D01*
X89347010Y-51075181D01*
X89279189Y-51091976D01*
X89213054Y-51069439D01*
X89169603Y-51014723D01*
X89160500Y-50968090D01*
X89160500Y-50616739D01*
X89150573Y-50548608D01*
X89150573Y-50548607D01*
X89099198Y-50443517D01*
X89099196Y-50443515D01*
X89099196Y-50443514D01*
X89016485Y-50360803D01*
X88911391Y-50309426D01*
X88843261Y-50299500D01*
X88843260Y-50299500D01*
X88634500Y-50299500D01*
X88567461Y-50279815D01*
X88521706Y-50227011D01*
X88510500Y-50175500D01*
X88510500Y-46799760D01*
X88510500Y-46799758D01*
X88472984Y-46659748D01*
X88425213Y-46577007D01*
X88400511Y-46534221D01*
X88400506Y-46534215D01*
X88298015Y-46431724D01*
X54925783Y-13059491D01*
X54925782Y-13059490D01*
X54800252Y-12987016D01*
X54800253Y-12987016D01*
X54765249Y-12977637D01*
X54660242Y-12949500D01*
X50127525Y-12949500D01*
X50022517Y-12977637D01*
X49987514Y-12987016D01*
X49861986Y-13059489D01*
X49861983Y-13059491D01*
X48118851Y-14802622D01*
X48057528Y-14836107D01*
X47992852Y-14832872D01*
X47981120Y-14829060D01*
X47794486Y-14799500D01*
X47794481Y-14799500D01*
X47605519Y-14799500D01*
X47605514Y-14799500D01*
X47418881Y-14829059D01*
X47239163Y-14887454D01*
X47070800Y-14973240D01*
X47011350Y-15016434D01*
X46917927Y-15084310D01*
X46917925Y-15084312D01*
X46917924Y-15084312D01*
X46784312Y-15217924D01*
X46784312Y-15217925D01*
X46784310Y-15217927D01*
X46736610Y-15283579D01*
X46673240Y-15370800D01*
X46587454Y-15539163D01*
X46547931Y-15660803D01*
X46508493Y-15718478D01*
X46444134Y-15745676D01*
X46375288Y-15733761D01*
X46323812Y-15686516D01*
X46312069Y-15660803D01*
X46284248Y-15575181D01*
X46272547Y-15539168D01*
X46272545Y-15539165D01*
X46272545Y-15539163D01*
X46227290Y-15450347D01*
X46186760Y-15370801D01*
X46075690Y-15217927D01*
X45942073Y-15084310D01*
X45789199Y-14973240D01*
X45789195Y-14973237D01*
X45789192Y-14973235D01*
X45778200Y-14967634D01*
X45727406Y-14919657D01*
X45710500Y-14857152D01*
X45710500Y-13119387D01*
X45730185Y-13052348D01*
X45746819Y-13031706D01*
X46191706Y-12586819D01*
X46253029Y-12553334D01*
X46279387Y-12550500D01*
X56720613Y-12550500D01*
X56787652Y-12570185D01*
G37*
%TD.AperFunction*%
%TA.AperFunction,Conductor*%
G36*
X44107652Y-12570185D02*
G01*
X44128294Y-12586819D01*
X44573181Y-13031706D01*
X44606666Y-13093029D01*
X44609500Y-13119387D01*
X44609500Y-14857152D01*
X44589815Y-14924191D01*
X44541800Y-14967634D01*
X44530807Y-14973235D01*
X44530804Y-14973237D01*
X44439076Y-15039882D01*
X44377927Y-15084310D01*
X44377925Y-15084312D01*
X44377924Y-15084312D01*
X44244312Y-15217924D01*
X44244312Y-15217925D01*
X44244310Y-15217927D01*
X44196610Y-15283579D01*
X44133240Y-15370800D01*
X44047454Y-15539163D01*
X44007931Y-15660803D01*
X43968493Y-15718478D01*
X43904134Y-15745676D01*
X43835288Y-15733761D01*
X43783812Y-15686516D01*
X43772069Y-15660803D01*
X43744248Y-15575181D01*
X43732547Y-15539168D01*
X43732545Y-15539165D01*
X43732545Y-15539163D01*
X43687290Y-15450347D01*
X43646760Y-15370801D01*
X43535690Y-15217927D01*
X43402073Y-15084310D01*
X43249199Y-14973240D01*
X43238197Y-14967634D01*
X43080836Y-14887454D01*
X42901118Y-14829059D01*
X42714486Y-14799500D01*
X42714481Y-14799500D01*
X42525519Y-14799500D01*
X42525514Y-14799500D01*
X42338881Y-14829059D01*
X42159163Y-14887454D01*
X41990800Y-14973240D01*
X41931350Y-15016434D01*
X41837927Y-15084310D01*
X41837925Y-15084312D01*
X41837924Y-15084312D01*
X41704312Y-15217924D01*
X41704312Y-15217925D01*
X41704310Y-15217927D01*
X41656610Y-15283579D01*
X41593240Y-15370800D01*
X41507454Y-15539163D01*
X41467931Y-15660803D01*
X41428493Y-15718478D01*
X41364134Y-15745676D01*
X41295288Y-15733761D01*
X41243812Y-15686516D01*
X41232069Y-15660803D01*
X41204248Y-15575181D01*
X41192547Y-15539168D01*
X41192545Y-15539165D01*
X41192545Y-15539163D01*
X41147290Y-15450347D01*
X41106760Y-15370801D01*
X40995690Y-15217927D01*
X40862073Y-15084310D01*
X40709199Y-14973240D01*
X40698197Y-14967634D01*
X40540836Y-14887454D01*
X40361118Y-14829059D01*
X40174486Y-14799500D01*
X40174481Y-14799500D01*
X39985519Y-14799500D01*
X39985514Y-14799500D01*
X39798881Y-14829059D01*
X39619163Y-14887454D01*
X39450800Y-14973240D01*
X39391350Y-15016434D01*
X39297927Y-15084310D01*
X39297925Y-15084312D01*
X39297924Y-15084312D01*
X39164312Y-15217924D01*
X39164312Y-15217925D01*
X39164310Y-15217927D01*
X39116610Y-15283579D01*
X39053240Y-15370800D01*
X38967454Y-15539163D01*
X38927931Y-15660803D01*
X38888493Y-15718478D01*
X38824134Y-15745676D01*
X38755288Y-15733761D01*
X38703812Y-15686516D01*
X38692069Y-15660803D01*
X38664248Y-15575181D01*
X38652547Y-15539168D01*
X38652545Y-15539165D01*
X38652545Y-15539163D01*
X38607290Y-15450347D01*
X38566760Y-15370801D01*
X38455690Y-15217927D01*
X38322073Y-15084310D01*
X38169199Y-14973240D01*
X38158197Y-14967634D01*
X38000836Y-14887454D01*
X37821118Y-14829059D01*
X37634486Y-14799500D01*
X37634481Y-14799500D01*
X37445519Y-14799500D01*
X37445514Y-14799500D01*
X37258881Y-14829059D01*
X37079163Y-14887454D01*
X36910800Y-14973240D01*
X36851350Y-15016434D01*
X36757927Y-15084310D01*
X36757925Y-15084312D01*
X36757924Y-15084312D01*
X36624312Y-15217924D01*
X36624312Y-15217925D01*
X36624310Y-15217927D01*
X36576610Y-15283579D01*
X36513240Y-15370800D01*
X36434985Y-15524385D01*
X36387010Y-15575181D01*
X36319189Y-15591976D01*
X36253054Y-15569439D01*
X36209603Y-15514723D01*
X36200500Y-15468090D01*
X36200500Y-15116739D01*
X36190573Y-15048608D01*
X36190573Y-15048607D01*
X36139198Y-14943517D01*
X36139196Y-14943515D01*
X36139196Y-14943514D01*
X36056485Y-14860803D01*
X35951391Y-14809426D01*
X35883261Y-14799500D01*
X35883260Y-14799500D01*
X34116740Y-14799500D01*
X34116739Y-14799500D01*
X34048608Y-14809426D01*
X33943514Y-14860803D01*
X33860803Y-14943514D01*
X33809426Y-15048608D01*
X33799500Y-15116739D01*
X33799500Y-16883260D01*
X33809426Y-16951391D01*
X33860803Y-17056485D01*
X33943514Y-17139196D01*
X33943515Y-17139196D01*
X33943517Y-17139198D01*
X34048607Y-17190573D01*
X34082673Y-17195536D01*
X34116739Y-17200500D01*
X34116740Y-17200500D01*
X35883261Y-17200500D01*
X35905971Y-17197191D01*
X35951393Y-17190573D01*
X36056483Y-17139198D01*
X36139198Y-17056483D01*
X36190573Y-16951393D01*
X36200500Y-16883260D01*
X36200500Y-16531909D01*
X36220185Y-16464870D01*
X36272989Y-16419115D01*
X36342147Y-16409171D01*
X36405703Y-16438196D01*
X36434984Y-16475613D01*
X36513240Y-16629199D01*
X36624310Y-16782073D01*
X36757927Y-16915690D01*
X36910801Y-17026760D01*
X36921792Y-17032360D01*
X36972589Y-17080332D01*
X36989500Y-17142846D01*
X36989500Y-25437770D01*
X36969815Y-25504809D01*
X36960419Y-25516468D01*
X36960914Y-25516874D01*
X36957048Y-25521584D01*
X36874919Y-25644498D01*
X36874912Y-25644511D01*
X36818343Y-25781082D01*
X36818340Y-25781092D01*
X36789500Y-25926079D01*
X36789500Y-25926082D01*
X36789500Y-26073918D01*
X36789500Y-26073920D01*
X36789499Y-26073920D01*
X36818340Y-26218907D01*
X36818343Y-26218917D01*
X36874912Y-26355488D01*
X36874919Y-26355501D01*
X36957048Y-26478415D01*
X36957051Y-26478419D01*
X37061580Y-26582948D01*
X37061584Y-26582951D01*
X37184498Y-26665080D01*
X37184511Y-26665087D01*
X37321082Y-26721656D01*
X37321087Y-26721658D01*
X37321091Y-26721658D01*
X37321092Y-26721659D01*
X37466079Y-26750500D01*
X37466082Y-26750500D01*
X37613920Y-26750500D01*
X37711462Y-26731096D01*
X37758913Y-26721658D01*
X37895495Y-26665084D01*
X38018416Y-26582951D01*
X38122951Y-26478416D01*
X38205084Y-26355495D01*
X38261658Y-26218913D01*
X38290500Y-26073918D01*
X38290500Y-25926082D01*
X38290500Y-25926079D01*
X38261659Y-25781092D01*
X38261658Y-25781091D01*
X38261658Y-25781087D01*
X38227724Y-25699163D01*
X38205087Y-25644511D01*
X38205080Y-25644498D01*
X38122951Y-25521584D01*
X38119086Y-25516874D01*
X38121191Y-25515145D01*
X38093334Y-25464128D01*
X38090500Y-25437770D01*
X38090500Y-17142846D01*
X38110185Y-17075807D01*
X38158208Y-17032360D01*
X38169199Y-17026760D01*
X38322073Y-16915690D01*
X38455690Y-16782073D01*
X38566760Y-16629199D01*
X38652547Y-16460832D01*
X38692069Y-16339195D01*
X38731507Y-16281521D01*
X38795866Y-16254323D01*
X38864712Y-16266238D01*
X38916188Y-16313482D01*
X38927931Y-16339196D01*
X38967454Y-16460836D01*
X39003668Y-16531909D01*
X39053240Y-16629199D01*
X39164310Y-16782073D01*
X39297927Y-16915690D01*
X39450801Y-17026760D01*
X39461792Y-17032360D01*
X39619163Y-17112545D01*
X39619165Y-17112545D01*
X39619168Y-17112547D01*
X39701185Y-17139196D01*
X39798881Y-17170940D01*
X39985514Y-17200500D01*
X39985519Y-17200500D01*
X40174486Y-17200500D01*
X40361118Y-17170940D01*
X40379005Y-17165128D01*
X40540832Y-17112547D01*
X40709199Y-17026760D01*
X40862073Y-16915690D01*
X40995690Y-16782073D01*
X41106760Y-16629199D01*
X41192547Y-16460832D01*
X41232069Y-16339195D01*
X41271507Y-16281521D01*
X41335866Y-16254323D01*
X41404712Y-16266238D01*
X41456188Y-16313482D01*
X41467931Y-16339196D01*
X41507454Y-16460836D01*
X41543668Y-16531909D01*
X41593240Y-16629199D01*
X41704310Y-16782073D01*
X41837927Y-16915690D01*
X41990801Y-17026760D01*
X42001792Y-17032360D01*
X42052589Y-17080332D01*
X42069500Y-17142846D01*
X42069500Y-27100613D01*
X42049815Y-27167652D01*
X42033181Y-27188294D01*
X41008294Y-28213181D01*
X40946971Y-28246666D01*
X40932079Y-28248267D01*
X40932142Y-28248903D01*
X40926079Y-28249499D01*
X40781092Y-28278340D01*
X40781082Y-28278343D01*
X40644511Y-28334912D01*
X40644498Y-28334919D01*
X40521584Y-28417048D01*
X40521580Y-28417051D01*
X40417051Y-28521580D01*
X40417048Y-28521584D01*
X40334919Y-28644498D01*
X40334912Y-28644511D01*
X40278343Y-28781082D01*
X40278340Y-28781092D01*
X40249500Y-28926079D01*
X40249500Y-28926082D01*
X40249500Y-29073918D01*
X40249500Y-29073920D01*
X40249499Y-29073920D01*
X40278340Y-29218907D01*
X40278343Y-29218917D01*
X40334912Y-29355488D01*
X40334919Y-29355501D01*
X40417048Y-29478415D01*
X40417051Y-29478419D01*
X40521580Y-29582948D01*
X40521584Y-29582951D01*
X40644498Y-29665080D01*
X40644511Y-29665087D01*
X40689129Y-29683568D01*
X40781087Y-29721658D01*
X40781091Y-29721658D01*
X40781092Y-29721659D01*
X40926079Y-29750500D01*
X40926082Y-29750500D01*
X41073920Y-29750500D01*
X41171462Y-29731096D01*
X41218913Y-29721658D01*
X41355495Y-29665084D01*
X41478416Y-29582951D01*
X41582951Y-29478416D01*
X41665084Y-29355495D01*
X41721658Y-29218913D01*
X41750500Y-29073918D01*
X41751097Y-29067858D01*
X41753806Y-29068124D01*
X41770185Y-29012348D01*
X41786819Y-28991706D01*
X42385532Y-28392993D01*
X43060510Y-27718015D01*
X43132984Y-27592485D01*
X43170500Y-27452474D01*
X43170500Y-27307526D01*
X43170500Y-17142846D01*
X43190185Y-17075807D01*
X43238208Y-17032360D01*
X43249199Y-17026760D01*
X43402073Y-16915690D01*
X43535690Y-16782073D01*
X43646760Y-16629199D01*
X43732547Y-16460832D01*
X43772069Y-16339195D01*
X43811507Y-16281521D01*
X43875866Y-16254323D01*
X43944712Y-16266238D01*
X43996188Y-16313482D01*
X44007931Y-16339196D01*
X44047454Y-16460836D01*
X44083668Y-16531909D01*
X44133240Y-16629199D01*
X44244310Y-16782073D01*
X44377927Y-16915690D01*
X44530801Y-17026760D01*
X44541792Y-17032360D01*
X44699163Y-17112545D01*
X44699165Y-17112545D01*
X44699168Y-17112547D01*
X44781185Y-17139196D01*
X44878881Y-17170940D01*
X45065514Y-17200500D01*
X45065519Y-17200500D01*
X45254486Y-17200500D01*
X45441118Y-17170940D01*
X45459005Y-17165128D01*
X45620832Y-17112547D01*
X45789199Y-17026760D01*
X45942073Y-16915690D01*
X46075690Y-16782073D01*
X46186760Y-16629199D01*
X46272547Y-16460832D01*
X46312069Y-16339195D01*
X46351507Y-16281521D01*
X46415866Y-16254323D01*
X46484712Y-16266238D01*
X46536188Y-16313482D01*
X46547931Y-16339196D01*
X46587454Y-16460836D01*
X46623668Y-16531909D01*
X46673240Y-16629199D01*
X46784310Y-16782073D01*
X46917927Y-16915690D01*
X47070801Y-17026760D01*
X47081792Y-17032360D01*
X47132589Y-17080332D01*
X47149500Y-17142846D01*
X47149500Y-27520613D01*
X47129815Y-27587652D01*
X47113181Y-27608294D01*
X43808294Y-30913181D01*
X43746971Y-30946666D01*
X43720613Y-30949500D01*
X30927525Y-30949500D01*
X30822517Y-30977637D01*
X30787514Y-30987016D01*
X30661986Y-31059489D01*
X30661983Y-31059491D01*
X28762181Y-32959294D01*
X28700858Y-32992779D01*
X28631166Y-32987795D01*
X28575233Y-32945923D01*
X28550816Y-32880459D01*
X28550500Y-32871613D01*
X28550500Y-18279387D01*
X28570185Y-18212348D01*
X28586819Y-18191706D01*
X34191706Y-12586819D01*
X34253029Y-12553334D01*
X34279387Y-12550500D01*
X44040613Y-12550500D01*
X44107652Y-12570185D01*
G37*
%TD.AperFunction*%
%TA.AperFunction,Conductor*%
G36*
X54375419Y-14070185D02*
G01*
X54396061Y-14086819D01*
X54970838Y-14661596D01*
X55004323Y-14722919D01*
X54999339Y-14792611D01*
X54957467Y-14848544D01*
X54921477Y-14867207D01*
X54904771Y-14872635D01*
X54859163Y-14887454D01*
X54690800Y-14973240D01*
X54631350Y-15016434D01*
X54537927Y-15084310D01*
X54537925Y-15084312D01*
X54537924Y-15084312D01*
X54404312Y-15217924D01*
X54404312Y-15217925D01*
X54404310Y-15217927D01*
X54356610Y-15283579D01*
X54293240Y-15370800D01*
X54207454Y-15539163D01*
X54149059Y-15718881D01*
X54149059Y-15718882D01*
X54146906Y-15732475D01*
X54116973Y-15795608D01*
X54057660Y-15832536D01*
X53987797Y-15831534D01*
X53929567Y-15792921D01*
X53903272Y-15735330D01*
X53902819Y-15735439D01*
X53902261Y-15733115D01*
X53901958Y-15732451D01*
X53901681Y-15730701D01*
X53845748Y-15558555D01*
X53845747Y-15558552D01*
X53763565Y-15397265D01*
X53722331Y-15340511D01*
X53722330Y-15340510D01*
X53248018Y-15814821D01*
X53245925Y-15807007D01*
X53180099Y-15692993D01*
X53087007Y-15599901D01*
X52972993Y-15534075D01*
X52965176Y-15531980D01*
X53439487Y-15057668D01*
X53439487Y-15057667D01*
X53382734Y-15016434D01*
X53221447Y-14934252D01*
X53221444Y-14934251D01*
X53049293Y-14878317D01*
X52870506Y-14850000D01*
X52689494Y-14850000D01*
X52510706Y-14878317D01*
X52338555Y-14934251D01*
X52338552Y-14934252D01*
X52177270Y-15016431D01*
X52177268Y-15016432D01*
X52120511Y-15057667D01*
X52120511Y-15057668D01*
X52594823Y-15531980D01*
X52587007Y-15534075D01*
X52472993Y-15599901D01*
X52379901Y-15692993D01*
X52314075Y-15807007D01*
X52311980Y-15814823D01*
X51837668Y-15340511D01*
X51837667Y-15340511D01*
X51796432Y-15397268D01*
X51796431Y-15397270D01*
X51714252Y-15558552D01*
X51714251Y-15558555D01*
X51658317Y-15730705D01*
X51658038Y-15732470D01*
X51657745Y-15733086D01*
X51657181Y-15735439D01*
X51656686Y-15735320D01*
X51628108Y-15795604D01*
X51568796Y-15832534D01*
X51498933Y-15831536D01*
X51440701Y-15792925D01*
X51413092Y-15732468D01*
X51410940Y-15718881D01*
X51364248Y-15575181D01*
X51352547Y-15539168D01*
X51352545Y-15539165D01*
X51352545Y-15539163D01*
X51307290Y-15450347D01*
X51266760Y-15370801D01*
X51155690Y-15217927D01*
X51022073Y-15084310D01*
X50869199Y-14973240D01*
X50858197Y-14967634D01*
X50700836Y-14887454D01*
X50521118Y-14829059D01*
X50334486Y-14799500D01*
X50334481Y-14799500D01*
X50145519Y-14799500D01*
X50145512Y-14799500D01*
X49968167Y-14827588D01*
X49898874Y-14818633D01*
X49845422Y-14773637D01*
X49824783Y-14706885D01*
X49843508Y-14639572D01*
X49861082Y-14617441D01*
X50391706Y-14086819D01*
X50453029Y-14053334D01*
X50479387Y-14050500D01*
X54308380Y-14050500D01*
X54375419Y-14070185D01*
G37*
%TD.AperFunction*%
%TA.AperFunction,Conductor*%
G36*
X98443039Y-1519685D02*
G01*
X98488794Y-1572489D01*
X98500000Y-1624000D01*
X98500000Y-83376000D01*
X98480315Y-83443039D01*
X98427511Y-83488794D01*
X98376000Y-83500000D01*
X1624000Y-83500000D01*
X1556961Y-83480315D01*
X1511206Y-83427511D01*
X1500000Y-83376000D01*
X1500000Y-80381995D01*
X2699500Y-80381995D01*
X2699500Y-80618004D01*
X2699501Y-80618020D01*
X2730306Y-80852010D01*
X2791394Y-81079993D01*
X2881714Y-81298045D01*
X2881719Y-81298056D01*
X2952677Y-81420957D01*
X2999727Y-81502450D01*
X2999729Y-81502453D01*
X2999730Y-81502454D01*
X3143406Y-81689697D01*
X3143412Y-81689704D01*
X3310295Y-81856587D01*
X3310301Y-81856592D01*
X3497550Y-82000273D01*
X3628918Y-82076118D01*
X3701943Y-82118280D01*
X3701948Y-82118282D01*
X3701951Y-82118284D01*
X3920007Y-82208606D01*
X4147986Y-82269693D01*
X4381989Y-82300500D01*
X4381996Y-82300500D01*
X4618004Y-82300500D01*
X4618011Y-82300500D01*
X4852014Y-82269693D01*
X5079993Y-82208606D01*
X5298049Y-82118284D01*
X5502450Y-82000273D01*
X5689699Y-81856592D01*
X5856592Y-81689699D01*
X6000273Y-81502450D01*
X6118284Y-81298049D01*
X6208606Y-81079993D01*
X6269693Y-80852014D01*
X6300500Y-80618011D01*
X6300500Y-80381995D01*
X93699500Y-80381995D01*
X93699500Y-80618004D01*
X93699501Y-80618020D01*
X93730306Y-80852010D01*
X93791394Y-81079993D01*
X93881714Y-81298045D01*
X93881719Y-81298056D01*
X93952677Y-81420957D01*
X93999727Y-81502450D01*
X93999729Y-81502453D01*
X93999730Y-81502454D01*
X94143406Y-81689697D01*
X94143412Y-81689704D01*
X94310295Y-81856587D01*
X94310301Y-81856592D01*
X94497550Y-82000273D01*
X94628918Y-82076118D01*
X94701943Y-82118280D01*
X94701948Y-82118282D01*
X94701951Y-82118284D01*
X94920007Y-82208606D01*
X95147986Y-82269693D01*
X95381989Y-82300500D01*
X95381996Y-82300500D01*
X95618004Y-82300500D01*
X95618011Y-82300500D01*
X95852014Y-82269693D01*
X96079993Y-82208606D01*
X96298049Y-82118284D01*
X96502450Y-82000273D01*
X96689699Y-81856592D01*
X96856592Y-81689699D01*
X97000273Y-81502450D01*
X97118284Y-81298049D01*
X97208606Y-81079993D01*
X97269693Y-80852014D01*
X97300500Y-80618011D01*
X97300500Y-80381989D01*
X97269693Y-80147986D01*
X97208606Y-79920007D01*
X97118284Y-79701951D01*
X97118282Y-79701948D01*
X97118280Y-79701943D01*
X97076118Y-79628918D01*
X97000273Y-79497550D01*
X96856592Y-79310301D01*
X96856587Y-79310295D01*
X96689704Y-79143412D01*
X96689697Y-79143406D01*
X96502454Y-78999730D01*
X96502453Y-78999729D01*
X96502450Y-78999727D01*
X96420957Y-78952677D01*
X96298056Y-78881719D01*
X96298045Y-78881714D01*
X96079993Y-78791394D01*
X95852010Y-78730306D01*
X95618020Y-78699501D01*
X95618017Y-78699500D01*
X95618011Y-78699500D01*
X95381989Y-78699500D01*
X95381983Y-78699500D01*
X95381979Y-78699501D01*
X95147989Y-78730306D01*
X94920006Y-78791394D01*
X94701954Y-78881714D01*
X94701943Y-78881719D01*
X94497545Y-78999730D01*
X94310302Y-79143406D01*
X94310295Y-79143412D01*
X94143412Y-79310295D01*
X94143406Y-79310302D01*
X93999730Y-79497545D01*
X93881719Y-79701943D01*
X93881714Y-79701954D01*
X93791394Y-79920006D01*
X93730306Y-80147989D01*
X93699501Y-80381979D01*
X93699500Y-80381995D01*
X6300500Y-80381995D01*
X6300500Y-80381989D01*
X6269693Y-80147986D01*
X6208606Y-79920007D01*
X6118284Y-79701951D01*
X6118282Y-79701948D01*
X6118280Y-79701943D01*
X6076118Y-79628918D01*
X6000273Y-79497550D01*
X5856592Y-79310301D01*
X5856587Y-79310295D01*
X5689704Y-79143412D01*
X5689697Y-79143406D01*
X5502454Y-78999730D01*
X5502453Y-78999729D01*
X5502450Y-78999727D01*
X5420957Y-78952677D01*
X5298056Y-78881719D01*
X5298045Y-78881714D01*
X5079993Y-78791394D01*
X4852010Y-78730306D01*
X4618020Y-78699501D01*
X4618017Y-78699500D01*
X4618011Y-78699500D01*
X4381989Y-78699500D01*
X4381983Y-78699500D01*
X4381979Y-78699501D01*
X4147989Y-78730306D01*
X3920006Y-78791394D01*
X3701954Y-78881714D01*
X3701943Y-78881719D01*
X3497545Y-78999730D01*
X3310302Y-79143406D01*
X3310295Y-79143412D01*
X3143412Y-79310295D01*
X3143406Y-79310302D01*
X2999730Y-79497545D01*
X2881719Y-79701943D01*
X2881714Y-79701954D01*
X2791394Y-79920006D01*
X2730306Y-80147989D01*
X2699501Y-80381979D01*
X2699500Y-80381995D01*
X1500000Y-80381995D01*
X1500000Y-57427525D01*
X6449500Y-57427525D01*
X6449500Y-76427526D01*
X6449500Y-76572474D01*
X6487016Y-76712485D01*
X6559490Y-76838015D01*
X7411985Y-77690510D01*
X7537515Y-77762984D01*
X7677525Y-77800500D01*
X7677528Y-77800500D01*
X50171000Y-77800500D01*
X50171002Y-77800500D01*
X50171003Y-77800500D01*
X50311013Y-77762984D01*
X50436543Y-77690510D01*
X53021848Y-75105205D01*
X86850000Y-75105205D01*
X86850000Y-75800000D01*
X87538120Y-75800000D01*
X87534075Y-75807007D01*
X87500000Y-75934174D01*
X87500000Y-76065826D01*
X87534075Y-76192993D01*
X87538120Y-76200000D01*
X86850001Y-76200000D01*
X86850001Y-76894785D01*
X86850002Y-76894808D01*
X86852908Y-76919869D01*
X86852909Y-76919873D01*
X86898211Y-77022474D01*
X86898214Y-77022479D01*
X86977520Y-77101785D01*
X86977525Y-77101788D01*
X87080123Y-77147089D01*
X87105206Y-77149999D01*
X87799999Y-77149999D01*
X87800000Y-77149998D01*
X87800000Y-76461879D01*
X87807007Y-76465925D01*
X87934174Y-76500000D01*
X88065826Y-76500000D01*
X88192993Y-76465925D01*
X88200000Y-76461879D01*
X88200000Y-77149999D01*
X88894786Y-77149999D01*
X88894808Y-77149997D01*
X88919869Y-77147091D01*
X88919873Y-77147090D01*
X89022474Y-77101788D01*
X89022479Y-77101785D01*
X89101785Y-77022479D01*
X89101788Y-77022474D01*
X89147089Y-76919877D01*
X89147089Y-76919875D01*
X89149999Y-76894794D01*
X89149999Y-76389825D01*
X89169683Y-76322786D01*
X89222487Y-76277031D01*
X89291646Y-76267087D01*
X89355202Y-76296112D01*
X89391930Y-76351506D01*
X89427454Y-76460835D01*
X89447410Y-76500000D01*
X89513240Y-76629199D01*
X89624310Y-76782073D01*
X89757927Y-76915690D01*
X89910801Y-77026760D01*
X89990347Y-77067290D01*
X90079163Y-77112545D01*
X90079165Y-77112545D01*
X90079168Y-77112547D01*
X90175497Y-77143846D01*
X90258881Y-77170940D01*
X90445514Y-77200500D01*
X90445519Y-77200500D01*
X90634486Y-77200500D01*
X90821118Y-77170940D01*
X90885570Y-77149998D01*
X91000832Y-77112547D01*
X91169199Y-77026760D01*
X91322073Y-76915690D01*
X91455690Y-76782073D01*
X91566760Y-76629199D01*
X91652547Y-76460832D01*
X91710940Y-76281118D01*
X91723788Y-76200000D01*
X91740500Y-76094486D01*
X91740500Y-75905513D01*
X91710940Y-75718881D01*
X91652545Y-75539163D01*
X91596829Y-75429815D01*
X91566760Y-75370801D01*
X91455690Y-75217927D01*
X91322073Y-75084310D01*
X91169199Y-74973240D01*
X91000836Y-74887454D01*
X90821118Y-74829059D01*
X90634486Y-74799500D01*
X90634481Y-74799500D01*
X90445519Y-74799500D01*
X90445514Y-74799500D01*
X90258881Y-74829059D01*
X90079163Y-74887454D01*
X89910800Y-74973240D01*
X89854777Y-75013944D01*
X89757927Y-75084310D01*
X89757925Y-75084312D01*
X89757924Y-75084312D01*
X89624312Y-75217924D01*
X89624312Y-75217925D01*
X89624310Y-75217927D01*
X89576610Y-75283579D01*
X89513240Y-75370800D01*
X89427454Y-75539163D01*
X89391930Y-75648495D01*
X89352492Y-75706170D01*
X89288133Y-75733368D01*
X89219287Y-75721453D01*
X89167811Y-75674208D01*
X89149999Y-75610176D01*
X89149999Y-75105214D01*
X89149997Y-75105191D01*
X89147091Y-75080130D01*
X89147090Y-75080126D01*
X89101788Y-74977525D01*
X89101785Y-74977520D01*
X89022479Y-74898214D01*
X89022474Y-74898211D01*
X88919876Y-74852910D01*
X88894794Y-74850000D01*
X88200000Y-74850000D01*
X88200000Y-75538120D01*
X88192993Y-75534075D01*
X88065826Y-75500000D01*
X87934174Y-75500000D01*
X87807007Y-75534075D01*
X87800000Y-75538120D01*
X87800000Y-74850000D01*
X87105214Y-74850000D01*
X87105191Y-74850002D01*
X87080130Y-74852908D01*
X87080126Y-74852909D01*
X86977525Y-74898211D01*
X86977520Y-74898214D01*
X86898214Y-74977520D01*
X86898211Y-74977525D01*
X86852910Y-75080122D01*
X86852910Y-75080124D01*
X86850000Y-75105205D01*
X53021848Y-75105205D01*
X62240510Y-65886543D01*
X62312984Y-65761013D01*
X62328323Y-65703767D01*
X62340882Y-65656898D01*
X69349500Y-65656898D01*
X69349500Y-67343102D01*
X69355126Y-67389954D01*
X69360122Y-67431561D01*
X69360122Y-67431563D01*
X69360123Y-67431564D01*
X69367196Y-67449500D01*
X69415639Y-67572343D01*
X69479979Y-67657187D01*
X69507078Y-67692922D01*
X69507082Y-67692925D01*
X69513073Y-67698916D01*
X69510443Y-67701545D01*
X69541786Y-67743628D01*
X69549500Y-67786680D01*
X69549500Y-69027526D01*
X69549500Y-69172474D01*
X69587016Y-69312485D01*
X69659490Y-69438015D01*
X73161985Y-72940510D01*
X73287515Y-73012984D01*
X73427525Y-73050500D01*
X73427526Y-73050500D01*
X73427528Y-73050500D01*
X86072472Y-73050500D01*
X86072474Y-73050500D01*
X86072475Y-73050500D01*
X86212485Y-73012984D01*
X86338015Y-72940510D01*
X87541706Y-71736819D01*
X87603029Y-71703334D01*
X87629387Y-71700500D01*
X88883261Y-71700500D01*
X88905971Y-71697191D01*
X88951393Y-71690573D01*
X89056483Y-71639198D01*
X89139198Y-71556483D01*
X89190573Y-71451393D01*
X89200500Y-71383260D01*
X89200500Y-71031909D01*
X89220185Y-70964870D01*
X89272989Y-70919115D01*
X89342147Y-70909171D01*
X89405703Y-70938196D01*
X89434984Y-70975613D01*
X89513240Y-71129199D01*
X89624310Y-71282073D01*
X89757927Y-71415690D01*
X89910801Y-71526760D01*
X89969136Y-71556483D01*
X90079163Y-71612545D01*
X90079165Y-71612545D01*
X90079168Y-71612547D01*
X90161185Y-71639196D01*
X90258881Y-71670940D01*
X90445514Y-71700500D01*
X90445519Y-71700500D01*
X90634486Y-71700500D01*
X90821118Y-71670940D01*
X90823395Y-71670200D01*
X91000832Y-71612547D01*
X91169199Y-71526760D01*
X91322073Y-71415690D01*
X91455690Y-71282073D01*
X91566760Y-71129199D01*
X91652547Y-70960832D01*
X91710940Y-70781118D01*
X91713092Y-70767532D01*
X91743021Y-70704397D01*
X91802332Y-70667465D01*
X91872194Y-70668463D01*
X91930427Y-70707072D01*
X91956731Y-70764668D01*
X91957181Y-70764561D01*
X91957733Y-70766863D01*
X91958039Y-70767532D01*
X91958318Y-70769298D01*
X92014251Y-70941444D01*
X92014252Y-70941447D01*
X92096434Y-71102734D01*
X92137667Y-71159487D01*
X92137668Y-71159487D01*
X92611980Y-70685176D01*
X92614075Y-70692993D01*
X92679901Y-70807007D01*
X92772993Y-70900099D01*
X92887007Y-70965925D01*
X92894822Y-70968019D01*
X92420510Y-71442330D01*
X92420511Y-71442331D01*
X92477265Y-71483565D01*
X92638552Y-71565747D01*
X92638555Y-71565748D01*
X92810706Y-71621682D01*
X92989494Y-71650000D01*
X93170506Y-71650000D01*
X93349293Y-71621682D01*
X93521444Y-71565748D01*
X93521447Y-71565747D01*
X93682730Y-71483568D01*
X93739487Y-71442330D01*
X93739488Y-71442329D01*
X93265178Y-70968019D01*
X93272993Y-70965925D01*
X93387007Y-70900099D01*
X93480099Y-70807007D01*
X93545925Y-70692993D01*
X93548019Y-70685177D01*
X94022329Y-71159488D01*
X94022330Y-71159487D01*
X94063568Y-71102730D01*
X94145747Y-70941447D01*
X94145748Y-70941444D01*
X94201682Y-70769293D01*
X94230000Y-70590506D01*
X94230000Y-70409493D01*
X94201682Y-70230706D01*
X94145748Y-70058555D01*
X94145747Y-70058552D01*
X94063565Y-69897265D01*
X94022331Y-69840511D01*
X94022330Y-69840510D01*
X93548018Y-70314821D01*
X93545925Y-70307007D01*
X93480099Y-70192993D01*
X93387007Y-70099901D01*
X93272993Y-70034075D01*
X93265176Y-70031980D01*
X93739487Y-69557668D01*
X93739487Y-69557667D01*
X93682734Y-69516434D01*
X93521447Y-69434252D01*
X93521444Y-69434251D01*
X93349293Y-69378317D01*
X93170506Y-69350000D01*
X92989494Y-69350000D01*
X92810706Y-69378317D01*
X92638555Y-69434251D01*
X92638552Y-69434252D01*
X92477270Y-69516431D01*
X92477268Y-69516432D01*
X92420511Y-69557667D01*
X92420511Y-69557668D01*
X92894823Y-70031980D01*
X92887007Y-70034075D01*
X92772993Y-70099901D01*
X92679901Y-70192993D01*
X92614075Y-70307007D01*
X92611980Y-70314823D01*
X92137668Y-69840511D01*
X92137667Y-69840511D01*
X92096432Y-69897268D01*
X92096431Y-69897270D01*
X92014252Y-70058552D01*
X92014251Y-70058555D01*
X91958317Y-70230705D01*
X91958038Y-70232470D01*
X91957745Y-70233086D01*
X91957181Y-70235439D01*
X91956686Y-70235320D01*
X91928108Y-70295604D01*
X91868796Y-70332534D01*
X91798933Y-70331536D01*
X91740701Y-70292925D01*
X91713092Y-70232468D01*
X91710940Y-70218881D01*
X91669705Y-70091976D01*
X91652547Y-70039168D01*
X91652545Y-70039165D01*
X91652545Y-70039163D01*
X91596802Y-69929762D01*
X91566760Y-69870801D01*
X91455690Y-69717927D01*
X91322073Y-69584310D01*
X91169199Y-69473240D01*
X91000836Y-69387454D01*
X90821118Y-69329059D01*
X90634486Y-69299500D01*
X90634481Y-69299500D01*
X90445519Y-69299500D01*
X90445514Y-69299500D01*
X90258881Y-69329059D01*
X90079163Y-69387454D01*
X89910800Y-69473240D01*
X89851350Y-69516434D01*
X89757927Y-69584310D01*
X89757925Y-69584312D01*
X89757924Y-69584312D01*
X89624312Y-69717924D01*
X89624312Y-69717925D01*
X89624310Y-69717927D01*
X89584073Y-69773308D01*
X89513240Y-69870800D01*
X89434985Y-70024385D01*
X89387010Y-70075181D01*
X89319189Y-70091976D01*
X89253054Y-70069439D01*
X89209603Y-70014723D01*
X89200500Y-69968090D01*
X89200500Y-69616739D01*
X89190573Y-69548608D01*
X89190573Y-69548607D01*
X89139198Y-69443517D01*
X89139196Y-69443515D01*
X89139196Y-69443514D01*
X89056485Y-69360803D01*
X88951391Y-69309426D01*
X88883261Y-69299500D01*
X88883260Y-69299500D01*
X87116740Y-69299500D01*
X87116739Y-69299500D01*
X87048608Y-69309426D01*
X86943514Y-69360803D01*
X86860803Y-69443514D01*
X86809426Y-69548608D01*
X86799500Y-69616739D01*
X86799500Y-70870613D01*
X86779815Y-70937652D01*
X86763181Y-70958294D01*
X85808294Y-71913181D01*
X85746971Y-71946666D01*
X85720613Y-71949500D01*
X73779387Y-71949500D01*
X73712348Y-71929815D01*
X73691706Y-71913181D01*
X70686819Y-68908294D01*
X70653334Y-68846971D01*
X70650500Y-68820613D01*
X70650500Y-67786680D01*
X70670185Y-67719641D01*
X70688226Y-67700215D01*
X70686927Y-67698916D01*
X70692913Y-67692928D01*
X70692922Y-67692922D01*
X70784361Y-67572342D01*
X70839877Y-67431564D01*
X70849931Y-67347844D01*
X73600000Y-67347844D01*
X73606401Y-67407372D01*
X73606403Y-67407379D01*
X73656645Y-67542086D01*
X73656649Y-67542093D01*
X73742809Y-67657187D01*
X73742812Y-67657190D01*
X73857906Y-67743350D01*
X73857913Y-67743354D01*
X73992620Y-67793596D01*
X73992627Y-67793598D01*
X74052155Y-67799999D01*
X74052172Y-67800000D01*
X74100000Y-67800000D01*
X74500000Y-67800000D01*
X74547828Y-67800000D01*
X74547844Y-67799999D01*
X74607372Y-67793598D01*
X74607379Y-67793596D01*
X74742086Y-67743354D01*
X74742093Y-67743350D01*
X74857187Y-67657190D01*
X74857190Y-67657187D01*
X74943350Y-67542093D01*
X74943354Y-67542086D01*
X74993596Y-67407379D01*
X74993598Y-67407372D01*
X74999999Y-67347844D01*
X75000000Y-67347827D01*
X75000000Y-66700000D01*
X74500000Y-66700000D01*
X74500000Y-67800000D01*
X74100000Y-67800000D01*
X74100000Y-66700000D01*
X73600000Y-66700000D01*
X73600000Y-67347844D01*
X70849931Y-67347844D01*
X70850500Y-67343102D01*
X70850500Y-65656898D01*
X70849930Y-65652155D01*
X73600000Y-65652155D01*
X73600000Y-66300000D01*
X74100000Y-66300000D01*
X74500000Y-66300000D01*
X75000000Y-66300000D01*
X75000000Y-65652172D01*
X74999999Y-65652155D01*
X74993598Y-65592627D01*
X74993596Y-65592620D01*
X74943354Y-65457913D01*
X74943350Y-65457906D01*
X74857190Y-65342812D01*
X74857187Y-65342809D01*
X74742093Y-65256649D01*
X74742086Y-65256645D01*
X74607379Y-65206403D01*
X74607372Y-65206401D01*
X74547844Y-65200000D01*
X74500000Y-65200000D01*
X74500000Y-66300000D01*
X74100000Y-66300000D01*
X74100000Y-65200000D01*
X74052155Y-65200000D01*
X73992627Y-65206401D01*
X73992620Y-65206403D01*
X73857913Y-65256645D01*
X73857906Y-65256649D01*
X73742812Y-65342809D01*
X73742809Y-65342812D01*
X73656649Y-65457906D01*
X73656645Y-65457913D01*
X73606403Y-65592620D01*
X73606401Y-65592627D01*
X73600000Y-65652155D01*
X70849930Y-65652155D01*
X70839877Y-65568436D01*
X70784361Y-65427658D01*
X70784360Y-65427657D01*
X70784360Y-65427656D01*
X70692922Y-65307077D01*
X70572343Y-65215639D01*
X70476192Y-65177722D01*
X70431564Y-65160123D01*
X70431563Y-65160122D01*
X70431561Y-65160122D01*
X70385926Y-65154642D01*
X70343102Y-65149500D01*
X69856898Y-65149500D01*
X69817853Y-65154188D01*
X69768438Y-65160122D01*
X69627656Y-65215639D01*
X69507077Y-65307077D01*
X69415639Y-65427656D01*
X69360122Y-65568438D01*
X69355969Y-65603029D01*
X69349500Y-65656898D01*
X62340882Y-65656898D01*
X62350500Y-65621003D01*
X62350500Y-60786680D01*
X62370185Y-60719641D01*
X62388226Y-60700215D01*
X62386927Y-60698916D01*
X62392913Y-60692928D01*
X62392922Y-60692922D01*
X62484361Y-60572342D01*
X62539877Y-60431564D01*
X62549931Y-60347844D01*
X65300000Y-60347844D01*
X65306401Y-60407372D01*
X65306403Y-60407379D01*
X65356645Y-60542086D01*
X65356649Y-60542093D01*
X65442809Y-60657187D01*
X65442812Y-60657190D01*
X65557906Y-60743350D01*
X65557913Y-60743354D01*
X65692620Y-60793596D01*
X65692627Y-60793598D01*
X65752155Y-60799999D01*
X65752172Y-60800000D01*
X65800000Y-60800000D01*
X66200000Y-60800000D01*
X66247828Y-60800000D01*
X66247844Y-60799999D01*
X66307372Y-60793598D01*
X66307379Y-60793596D01*
X66442086Y-60743354D01*
X66442093Y-60743350D01*
X66557187Y-60657190D01*
X66557190Y-60657187D01*
X66643350Y-60542093D01*
X66643354Y-60542086D01*
X66693596Y-60407379D01*
X66693598Y-60407372D01*
X66699999Y-60347844D01*
X66700000Y-60347827D01*
X66700000Y-59700000D01*
X66200000Y-59700000D01*
X66200000Y-60800000D01*
X65800000Y-60800000D01*
X65800000Y-59700000D01*
X65300000Y-59700000D01*
X65300000Y-60347844D01*
X62549931Y-60347844D01*
X62550500Y-60343102D01*
X62550500Y-58656898D01*
X62549930Y-58652155D01*
X65300000Y-58652155D01*
X65300000Y-59300000D01*
X65800000Y-59300000D01*
X66200000Y-59300000D01*
X66700000Y-59300000D01*
X66700000Y-58652172D01*
X66699999Y-58652155D01*
X66693598Y-58592627D01*
X66693596Y-58592620D01*
X66643354Y-58457913D01*
X66643350Y-58457906D01*
X66557190Y-58342813D01*
X66442086Y-58256645D01*
X66307379Y-58206403D01*
X66307372Y-58206401D01*
X66247844Y-58200000D01*
X66200000Y-58200000D01*
X66200000Y-59300000D01*
X65800000Y-59300000D01*
X65800000Y-58200000D01*
X65752155Y-58200000D01*
X65692627Y-58206401D01*
X65692620Y-58206403D01*
X65557913Y-58256645D01*
X65557906Y-58256649D01*
X65442812Y-58342809D01*
X65442809Y-58342812D01*
X65356649Y-58457906D01*
X65356645Y-58457913D01*
X65306403Y-58592620D01*
X65306401Y-58592627D01*
X65300000Y-58652155D01*
X62549930Y-58652155D01*
X62539877Y-58568436D01*
X62484361Y-58427658D01*
X62484360Y-58427657D01*
X62484360Y-58427656D01*
X62392922Y-58307077D01*
X62272343Y-58215639D01*
X62136288Y-58161986D01*
X62131564Y-58160123D01*
X62131563Y-58160122D01*
X62131561Y-58160122D01*
X62104711Y-58156898D01*
X79049500Y-58156898D01*
X79049500Y-59843102D01*
X79053729Y-59878317D01*
X79060122Y-59931561D01*
X79060122Y-59931563D01*
X79060123Y-59931564D01*
X79064837Y-59943517D01*
X79115639Y-60072343D01*
X79172564Y-60147409D01*
X79207078Y-60192922D01*
X79207082Y-60192925D01*
X79213073Y-60198916D01*
X79210443Y-60201545D01*
X79241786Y-60243628D01*
X79249500Y-60286680D01*
X79249500Y-61872477D01*
X79261079Y-61915687D01*
X79261079Y-61915689D01*
X79261080Y-61915689D01*
X79261080Y-61915690D01*
X79287016Y-62012485D01*
X79359490Y-62138015D01*
X80861985Y-63640510D01*
X80942537Y-63687016D01*
X80987515Y-63712984D01*
X81127525Y-63750500D01*
X81127526Y-63750500D01*
X81272474Y-63750500D01*
X82051984Y-63750500D01*
X82119023Y-63770185D01*
X82139665Y-63786819D01*
X82993357Y-64640510D01*
X83103862Y-64704310D01*
X83118886Y-64712984D01*
X83258896Y-64750500D01*
X83258897Y-64750500D01*
X83403846Y-64750500D01*
X85880613Y-64750500D01*
X85947652Y-64770185D01*
X85968294Y-64786819D01*
X86723181Y-65541706D01*
X86756666Y-65603029D01*
X86759500Y-65629387D01*
X86759500Y-66883260D01*
X86769426Y-66951391D01*
X86820803Y-67056485D01*
X86903514Y-67139196D01*
X86903515Y-67139196D01*
X86903517Y-67139198D01*
X87008607Y-67190573D01*
X87042673Y-67195536D01*
X87076739Y-67200500D01*
X87076740Y-67200500D01*
X88843261Y-67200500D01*
X88865971Y-67197191D01*
X88911393Y-67190573D01*
X89016483Y-67139198D01*
X89099198Y-67056483D01*
X89150573Y-66951393D01*
X89160500Y-66883260D01*
X89160500Y-66531909D01*
X89180185Y-66464870D01*
X89232989Y-66419115D01*
X89302147Y-66409171D01*
X89365703Y-66438196D01*
X89394984Y-66475613D01*
X89473240Y-66629199D01*
X89584310Y-66782073D01*
X89717927Y-66915690D01*
X89870801Y-67026760D01*
X89929136Y-67056483D01*
X90039163Y-67112545D01*
X90039165Y-67112545D01*
X90039168Y-67112547D01*
X90105181Y-67133996D01*
X90218881Y-67170940D01*
X90405514Y-67200500D01*
X90405519Y-67200500D01*
X90594486Y-67200500D01*
X90781118Y-67170940D01*
X90960832Y-67112547D01*
X91129199Y-67026760D01*
X91282073Y-66915690D01*
X91415690Y-66782073D01*
X91526760Y-66629199D01*
X91612547Y-66460832D01*
X91670940Y-66281118D01*
X91673092Y-66267532D01*
X91703021Y-66204397D01*
X91762332Y-66167465D01*
X91832194Y-66168463D01*
X91890427Y-66207072D01*
X91916731Y-66264668D01*
X91917181Y-66264561D01*
X91917733Y-66266863D01*
X91918039Y-66267532D01*
X91918318Y-66269298D01*
X91974251Y-66441444D01*
X91974252Y-66441447D01*
X92056434Y-66602734D01*
X92097667Y-66659487D01*
X92097668Y-66659487D01*
X92571980Y-66185176D01*
X92574075Y-66192993D01*
X92639901Y-66307007D01*
X92732993Y-66400099D01*
X92847007Y-66465925D01*
X92854822Y-66468019D01*
X92380510Y-66942330D01*
X92380511Y-66942331D01*
X92437265Y-66983565D01*
X92598552Y-67065747D01*
X92598555Y-67065748D01*
X92770706Y-67121682D01*
X92949494Y-67150000D01*
X93130506Y-67150000D01*
X93309293Y-67121682D01*
X93481444Y-67065748D01*
X93481447Y-67065747D01*
X93642730Y-66983568D01*
X93699487Y-66942330D01*
X93699488Y-66942329D01*
X93225178Y-66468019D01*
X93232993Y-66465925D01*
X93347007Y-66400099D01*
X93440099Y-66307007D01*
X93505925Y-66192993D01*
X93508019Y-66185177D01*
X93982329Y-66659488D01*
X93982330Y-66659487D01*
X94023568Y-66602730D01*
X94105747Y-66441447D01*
X94105748Y-66441444D01*
X94161682Y-66269293D01*
X94190000Y-66090506D01*
X94190000Y-65909493D01*
X94161682Y-65730706D01*
X94105748Y-65558555D01*
X94105747Y-65558552D01*
X94023565Y-65397265D01*
X93982331Y-65340511D01*
X93982330Y-65340510D01*
X93508018Y-65814821D01*
X93505925Y-65807007D01*
X93440099Y-65692993D01*
X93347007Y-65599901D01*
X93232993Y-65534075D01*
X93225176Y-65531980D01*
X93699487Y-65057668D01*
X93699487Y-65057667D01*
X93642734Y-65016434D01*
X93481447Y-64934252D01*
X93481444Y-64934251D01*
X93309293Y-64878317D01*
X93130506Y-64850000D01*
X92949494Y-64850000D01*
X92770706Y-64878317D01*
X92598555Y-64934251D01*
X92598552Y-64934252D01*
X92437270Y-65016431D01*
X92437268Y-65016432D01*
X92380511Y-65057667D01*
X92380511Y-65057668D01*
X92854823Y-65531980D01*
X92847007Y-65534075D01*
X92732993Y-65599901D01*
X92639901Y-65692993D01*
X92574075Y-65807007D01*
X92571980Y-65814823D01*
X92097668Y-65340511D01*
X92097667Y-65340511D01*
X92056432Y-65397268D01*
X92056431Y-65397270D01*
X91974252Y-65558552D01*
X91974251Y-65558555D01*
X91918317Y-65730705D01*
X91918038Y-65732470D01*
X91917745Y-65733086D01*
X91917181Y-65735439D01*
X91916686Y-65735320D01*
X91888108Y-65795604D01*
X91828796Y-65832534D01*
X91758933Y-65831536D01*
X91700701Y-65792925D01*
X91673092Y-65732468D01*
X91670940Y-65718881D01*
X91624248Y-65575181D01*
X91612547Y-65539168D01*
X91612545Y-65539165D01*
X91612545Y-65539163D01*
X91555729Y-65427656D01*
X91526760Y-65370801D01*
X91415690Y-65217927D01*
X91282073Y-65084310D01*
X91129199Y-64973240D01*
X90960836Y-64887454D01*
X90781118Y-64829059D01*
X90594486Y-64799500D01*
X90594481Y-64799500D01*
X90405519Y-64799500D01*
X90405514Y-64799500D01*
X90218881Y-64829059D01*
X90039163Y-64887454D01*
X89870800Y-64973240D01*
X89811350Y-65016434D01*
X89717927Y-65084310D01*
X89717925Y-65084312D01*
X89717924Y-65084312D01*
X89584312Y-65217924D01*
X89584312Y-65217925D01*
X89584310Y-65217927D01*
X89556180Y-65256645D01*
X89473240Y-65370800D01*
X89394985Y-65524385D01*
X89347010Y-65575181D01*
X89279189Y-65591976D01*
X89213054Y-65569439D01*
X89169603Y-65514723D01*
X89160500Y-65468090D01*
X89160500Y-65116739D01*
X89151893Y-65057667D01*
X89150573Y-65048607D01*
X89099198Y-64943517D01*
X89099196Y-64943515D01*
X89099196Y-64943514D01*
X89016485Y-64860803D01*
X88911391Y-64809426D01*
X88843261Y-64799500D01*
X88843260Y-64799500D01*
X87589387Y-64799500D01*
X87522348Y-64779815D01*
X87501706Y-64763181D01*
X86498016Y-63759491D01*
X86498015Y-63759490D01*
X86372485Y-63687016D01*
X86232475Y-63649500D01*
X86232472Y-63649500D01*
X83610757Y-63649500D01*
X83543718Y-63629815D01*
X83523076Y-63613181D01*
X83104075Y-63194180D01*
X82669386Y-62759490D01*
X82543856Y-62687016D01*
X82543851Y-62687014D01*
X82506988Y-62677136D01*
X82506988Y-62677137D01*
X82455416Y-62663318D01*
X82403846Y-62649500D01*
X82403845Y-62649500D01*
X81479387Y-62649500D01*
X81412348Y-62629815D01*
X81391706Y-62613181D01*
X80386819Y-61608294D01*
X80353334Y-61546971D01*
X80350500Y-61520613D01*
X80350500Y-60286680D01*
X80370185Y-60219641D01*
X80388226Y-60200215D01*
X80386927Y-60198916D01*
X80392913Y-60192928D01*
X80392922Y-60192922D01*
X80484361Y-60072342D01*
X80539877Y-59931564D01*
X80549931Y-59847844D01*
X83300000Y-59847844D01*
X83306401Y-59907372D01*
X83306403Y-59907379D01*
X83356645Y-60042086D01*
X83356649Y-60042093D01*
X83442809Y-60157187D01*
X83442812Y-60157190D01*
X83557906Y-60243350D01*
X83557913Y-60243354D01*
X83692620Y-60293596D01*
X83692627Y-60293598D01*
X83752155Y-60299999D01*
X83752172Y-60300000D01*
X83800000Y-60300000D01*
X84200000Y-60300000D01*
X84247828Y-60300000D01*
X84247844Y-60299999D01*
X84307372Y-60293598D01*
X84307379Y-60293596D01*
X84442086Y-60243354D01*
X84442093Y-60243350D01*
X84557187Y-60157190D01*
X84557190Y-60157187D01*
X84643350Y-60042093D01*
X84643354Y-60042086D01*
X84693596Y-59907379D01*
X84693598Y-59907372D01*
X84699999Y-59847844D01*
X84700000Y-59847827D01*
X84700000Y-59200000D01*
X84200000Y-59200000D01*
X84200000Y-60300000D01*
X83800000Y-60300000D01*
X83800000Y-59200000D01*
X83300000Y-59200000D01*
X83300000Y-59847844D01*
X80549931Y-59847844D01*
X80550500Y-59843102D01*
X80550500Y-58156898D01*
X80549930Y-58152155D01*
X83300000Y-58152155D01*
X83300000Y-58800000D01*
X83800000Y-58800000D01*
X84200000Y-58800000D01*
X84700000Y-58800000D01*
X84700000Y-58152172D01*
X84699999Y-58152155D01*
X84693598Y-58092627D01*
X84693596Y-58092620D01*
X84643354Y-57957913D01*
X84643350Y-57957906D01*
X84557190Y-57842812D01*
X84557187Y-57842809D01*
X84442093Y-57756649D01*
X84442086Y-57756645D01*
X84307379Y-57706403D01*
X84307372Y-57706401D01*
X84247844Y-57700000D01*
X84200000Y-57700000D01*
X84200000Y-58800000D01*
X83800000Y-58800000D01*
X83800000Y-57700000D01*
X83752155Y-57700000D01*
X83692627Y-57706401D01*
X83692620Y-57706403D01*
X83557913Y-57756645D01*
X83557906Y-57756649D01*
X83442812Y-57842809D01*
X83442809Y-57842812D01*
X83356649Y-57957906D01*
X83356645Y-57957913D01*
X83306403Y-58092620D01*
X83306401Y-58092627D01*
X83300000Y-58152155D01*
X80549930Y-58152155D01*
X80539877Y-58068436D01*
X80484361Y-57927658D01*
X80484360Y-57927657D01*
X80484360Y-57927656D01*
X80392922Y-57807077D01*
X80272343Y-57715639D01*
X80131561Y-57660122D01*
X80085926Y-57654642D01*
X80043102Y-57649500D01*
X79556898Y-57649500D01*
X79517853Y-57654188D01*
X79468438Y-57660122D01*
X79327656Y-57715639D01*
X79207077Y-57807077D01*
X79115639Y-57927656D01*
X79060122Y-58068438D01*
X79057218Y-58092627D01*
X79049500Y-58156898D01*
X62104711Y-58156898D01*
X62081966Y-58154167D01*
X62043102Y-58149500D01*
X61556898Y-58149500D01*
X61518067Y-58154163D01*
X61468438Y-58160122D01*
X61327656Y-58215639D01*
X61207077Y-58307077D01*
X61115639Y-58427656D01*
X61060122Y-58568438D01*
X61057218Y-58592627D01*
X61049500Y-58656898D01*
X61049500Y-60343102D01*
X61055126Y-60389954D01*
X61060122Y-60431561D01*
X61115639Y-60572343D01*
X61207074Y-60692917D01*
X61207078Y-60692922D01*
X61207082Y-60692925D01*
X61213073Y-60698916D01*
X61210443Y-60701545D01*
X61241786Y-60743628D01*
X61249500Y-60786680D01*
X61249500Y-65269141D01*
X61229815Y-65336180D01*
X61213181Y-65356822D01*
X59762181Y-66807822D01*
X59700858Y-66841307D01*
X59631166Y-66836323D01*
X59575233Y-66794451D01*
X59550816Y-66728987D01*
X59550500Y-66720141D01*
X59550500Y-51656898D01*
X69349500Y-51656898D01*
X69349500Y-53343102D01*
X69355126Y-53389954D01*
X69360122Y-53431561D01*
X69415639Y-53572343D01*
X69479979Y-53657187D01*
X69507078Y-53692922D01*
X69507082Y-53692925D01*
X69513073Y-53698916D01*
X69510443Y-53701545D01*
X69541786Y-53743628D01*
X69549500Y-53786680D01*
X69549500Y-54527526D01*
X69549500Y-54672474D01*
X69587016Y-54812485D01*
X69659490Y-54938015D01*
X71161985Y-56440510D01*
X71242537Y-56487016D01*
X71287515Y-56512984D01*
X71427525Y-56550500D01*
X71427526Y-56550500D01*
X71572474Y-56550500D01*
X84470613Y-56550500D01*
X84537652Y-56570185D01*
X84558294Y-56586819D01*
X87373181Y-59401705D01*
X87406666Y-59463028D01*
X87409500Y-59489386D01*
X87409500Y-59675500D01*
X87389815Y-59742539D01*
X87337011Y-59788294D01*
X87285500Y-59799500D01*
X87076739Y-59799500D01*
X87008608Y-59809426D01*
X86903514Y-59860803D01*
X86820803Y-59943514D01*
X86769426Y-60048608D01*
X86759500Y-60116739D01*
X86759500Y-61883260D01*
X86769426Y-61951391D01*
X86820803Y-62056485D01*
X86903514Y-62139196D01*
X86903515Y-62139196D01*
X86903517Y-62139198D01*
X87008607Y-62190573D01*
X87042673Y-62195536D01*
X87076739Y-62200500D01*
X87076740Y-62200500D01*
X88843261Y-62200500D01*
X88865971Y-62197191D01*
X88911393Y-62190573D01*
X89016483Y-62139198D01*
X89099198Y-62056483D01*
X89150573Y-61951393D01*
X89160500Y-61883260D01*
X89160500Y-61531909D01*
X89180185Y-61464870D01*
X89232989Y-61419115D01*
X89302147Y-61409171D01*
X89365703Y-61438196D01*
X89394984Y-61475613D01*
X89473240Y-61629199D01*
X89584310Y-61782073D01*
X89717927Y-61915690D01*
X89870801Y-62026760D01*
X89922771Y-62053240D01*
X90039163Y-62112545D01*
X90039165Y-62112545D01*
X90039168Y-62112547D01*
X90117544Y-62138013D01*
X90218881Y-62170940D01*
X90405514Y-62200500D01*
X90405519Y-62200500D01*
X90594486Y-62200500D01*
X90781118Y-62170940D01*
X90801523Y-62164310D01*
X90960832Y-62112547D01*
X91129199Y-62026760D01*
X91282073Y-61915690D01*
X91415690Y-61782073D01*
X91526760Y-61629199D01*
X91612547Y-61460832D01*
X91670940Y-61281118D01*
X91673092Y-61267532D01*
X91703021Y-61204397D01*
X91762332Y-61167465D01*
X91832194Y-61168463D01*
X91890427Y-61207072D01*
X91916731Y-61264668D01*
X91917181Y-61264561D01*
X91917733Y-61266863D01*
X91918039Y-61267532D01*
X91918318Y-61269298D01*
X91974251Y-61441444D01*
X91974252Y-61441447D01*
X92056434Y-61602734D01*
X92097667Y-61659487D01*
X92097668Y-61659487D01*
X92571980Y-61185176D01*
X92574075Y-61192993D01*
X92639901Y-61307007D01*
X92732993Y-61400099D01*
X92847007Y-61465925D01*
X92854822Y-61468019D01*
X92380510Y-61942330D01*
X92380511Y-61942331D01*
X92437265Y-61983565D01*
X92598552Y-62065747D01*
X92598555Y-62065748D01*
X92770706Y-62121682D01*
X92949494Y-62150000D01*
X93130506Y-62150000D01*
X93309293Y-62121682D01*
X93481444Y-62065748D01*
X93481447Y-62065747D01*
X93642730Y-61983568D01*
X93699487Y-61942330D01*
X93699488Y-61942329D01*
X93225178Y-61468019D01*
X93232993Y-61465925D01*
X93347007Y-61400099D01*
X93440099Y-61307007D01*
X93505925Y-61192993D01*
X93508019Y-61185177D01*
X93982329Y-61659488D01*
X93982330Y-61659487D01*
X94023568Y-61602730D01*
X94105747Y-61441447D01*
X94105748Y-61441444D01*
X94161682Y-61269293D01*
X94190000Y-61090506D01*
X94190000Y-60909493D01*
X94161682Y-60730706D01*
X94105748Y-60558555D01*
X94105747Y-60558552D01*
X94023565Y-60397265D01*
X93982331Y-60340511D01*
X93982330Y-60340510D01*
X93508018Y-60814821D01*
X93505925Y-60807007D01*
X93440099Y-60692993D01*
X93347007Y-60599901D01*
X93232993Y-60534075D01*
X93225176Y-60531980D01*
X93699487Y-60057668D01*
X93699487Y-60057667D01*
X93642734Y-60016434D01*
X93481447Y-59934252D01*
X93481444Y-59934251D01*
X93309293Y-59878317D01*
X93130506Y-59850000D01*
X92949494Y-59850000D01*
X92770706Y-59878317D01*
X92598555Y-59934251D01*
X92598552Y-59934252D01*
X92437270Y-60016431D01*
X92437268Y-60016432D01*
X92380511Y-60057667D01*
X92380511Y-60057668D01*
X92854823Y-60531980D01*
X92847007Y-60534075D01*
X92732993Y-60599901D01*
X92639901Y-60692993D01*
X92574075Y-60807007D01*
X92571980Y-60814823D01*
X92097668Y-60340511D01*
X92097667Y-60340511D01*
X92056432Y-60397268D01*
X92056431Y-60397270D01*
X91974252Y-60558552D01*
X91974251Y-60558555D01*
X91918317Y-60730705D01*
X91918038Y-60732470D01*
X91917745Y-60733086D01*
X91917181Y-60735439D01*
X91916686Y-60735320D01*
X91888108Y-60795604D01*
X91828796Y-60832534D01*
X91758933Y-60831536D01*
X91700701Y-60792925D01*
X91673092Y-60732468D01*
X91670940Y-60718881D01*
X91629705Y-60591976D01*
X91612547Y-60539168D01*
X91612545Y-60539165D01*
X91612545Y-60539163D01*
X91545394Y-60407372D01*
X91526760Y-60370801D01*
X91415690Y-60217927D01*
X91282073Y-60084310D01*
X91129199Y-59973240D01*
X91089831Y-59953181D01*
X90960836Y-59887454D01*
X90781118Y-59829059D01*
X90594486Y-59799500D01*
X90594481Y-59799500D01*
X90405519Y-59799500D01*
X90405514Y-59799500D01*
X90218881Y-59829059D01*
X90039163Y-59887454D01*
X89870800Y-59973240D01*
X89811350Y-60016434D01*
X89717927Y-60084310D01*
X89717925Y-60084312D01*
X89717924Y-60084312D01*
X89584312Y-60217924D01*
X89584312Y-60217925D01*
X89584310Y-60217927D01*
X89536610Y-60283579D01*
X89473240Y-60370800D01*
X89394985Y-60524385D01*
X89347010Y-60575181D01*
X89279189Y-60591976D01*
X89213054Y-60569439D01*
X89169603Y-60514723D01*
X89160500Y-60468090D01*
X89160500Y-60116739D01*
X89150573Y-60048608D01*
X89150573Y-60048607D01*
X89099198Y-59943517D01*
X89099196Y-59943515D01*
X89099196Y-59943514D01*
X89016485Y-59860803D01*
X88911391Y-59809426D01*
X88843261Y-59799500D01*
X88843260Y-59799500D01*
X88634500Y-59799500D01*
X88567461Y-59779815D01*
X88521706Y-59727011D01*
X88510500Y-59675500D01*
X88510500Y-59137527D01*
X88510500Y-59137525D01*
X88472984Y-58997515D01*
X88466922Y-58987016D01*
X88400510Y-58871986D01*
X87440705Y-57912181D01*
X87407220Y-57850858D01*
X87412204Y-57781166D01*
X87454076Y-57725233D01*
X87519540Y-57700816D01*
X87528386Y-57700500D01*
X88843261Y-57700500D01*
X88865971Y-57697191D01*
X88911393Y-57690573D01*
X89016483Y-57639198D01*
X89099198Y-57556483D01*
X89150573Y-57451393D01*
X89160500Y-57383260D01*
X89160500Y-57031909D01*
X89180185Y-56964870D01*
X89232989Y-56919115D01*
X89302147Y-56909171D01*
X89365703Y-56938196D01*
X89394984Y-56975613D01*
X89473240Y-57129199D01*
X89584310Y-57282073D01*
X89717927Y-57415690D01*
X89870801Y-57526760D01*
X89938684Y-57561348D01*
X90039163Y-57612545D01*
X90039165Y-57612545D01*
X90039168Y-57612547D01*
X90104270Y-57633700D01*
X90218881Y-57670940D01*
X90405514Y-57700500D01*
X90405519Y-57700500D01*
X90594486Y-57700500D01*
X90781118Y-57670940D01*
X90814412Y-57660122D01*
X90960832Y-57612547D01*
X91129199Y-57526760D01*
X91282073Y-57415690D01*
X91415690Y-57282073D01*
X91526760Y-57129199D01*
X91612547Y-56960832D01*
X91670940Y-56781118D01*
X91673092Y-56767532D01*
X91703021Y-56704397D01*
X91762332Y-56667465D01*
X91832194Y-56668463D01*
X91890427Y-56707072D01*
X91916731Y-56764668D01*
X91917181Y-56764561D01*
X91917733Y-56766863D01*
X91918039Y-56767532D01*
X91918318Y-56769298D01*
X91974251Y-56941444D01*
X91974252Y-56941447D01*
X92056434Y-57102734D01*
X92097667Y-57159487D01*
X92097668Y-57159487D01*
X92571980Y-56685176D01*
X92574075Y-56692993D01*
X92639901Y-56807007D01*
X92732993Y-56900099D01*
X92847007Y-56965925D01*
X92854822Y-56968019D01*
X92380510Y-57442330D01*
X92380511Y-57442331D01*
X92437265Y-57483565D01*
X92598552Y-57565747D01*
X92598555Y-57565748D01*
X92770706Y-57621682D01*
X92949494Y-57650000D01*
X93130506Y-57650000D01*
X93309293Y-57621682D01*
X93481444Y-57565748D01*
X93481447Y-57565747D01*
X93642730Y-57483568D01*
X93699487Y-57442330D01*
X93699488Y-57442329D01*
X93225178Y-56968019D01*
X93232993Y-56965925D01*
X93347007Y-56900099D01*
X93440099Y-56807007D01*
X93505925Y-56692993D01*
X93508019Y-56685177D01*
X93982329Y-57159488D01*
X93982330Y-57159487D01*
X94023568Y-57102730D01*
X94105747Y-56941447D01*
X94105748Y-56941444D01*
X94161682Y-56769293D01*
X94190000Y-56590506D01*
X94190000Y-56409493D01*
X94161682Y-56230706D01*
X94105748Y-56058555D01*
X94105747Y-56058552D01*
X94023565Y-55897265D01*
X93982331Y-55840511D01*
X93982330Y-55840510D01*
X93508018Y-56314821D01*
X93505925Y-56307007D01*
X93440099Y-56192993D01*
X93347007Y-56099901D01*
X93232993Y-56034075D01*
X93225176Y-56031980D01*
X93699487Y-55557668D01*
X93699487Y-55557667D01*
X93642734Y-55516434D01*
X93481447Y-55434252D01*
X93481444Y-55434251D01*
X93309293Y-55378317D01*
X93130506Y-55350000D01*
X92949494Y-55350000D01*
X92770706Y-55378317D01*
X92598555Y-55434251D01*
X92598552Y-55434252D01*
X92437270Y-55516431D01*
X92437268Y-55516432D01*
X92380511Y-55557667D01*
X92380511Y-55557668D01*
X92854823Y-56031980D01*
X92847007Y-56034075D01*
X92732993Y-56099901D01*
X92639901Y-56192993D01*
X92574075Y-56307007D01*
X92571980Y-56314823D01*
X92097668Y-55840511D01*
X92097667Y-55840511D01*
X92056432Y-55897268D01*
X92056431Y-55897270D01*
X91974252Y-56058552D01*
X91974251Y-56058555D01*
X91918317Y-56230705D01*
X91918038Y-56232470D01*
X91917745Y-56233086D01*
X91917181Y-56235439D01*
X91916686Y-56235320D01*
X91888108Y-56295604D01*
X91828796Y-56332534D01*
X91758933Y-56331536D01*
X91700701Y-56292925D01*
X91673092Y-56232468D01*
X91670940Y-56218881D01*
X91624248Y-56075181D01*
X91612547Y-56039168D01*
X91612545Y-56039165D01*
X91612545Y-56039163D01*
X91567290Y-55950347D01*
X91526760Y-55870801D01*
X91415690Y-55717927D01*
X91282073Y-55584310D01*
X91129199Y-55473240D01*
X90960836Y-55387454D01*
X90781118Y-55329059D01*
X90594486Y-55299500D01*
X90594481Y-55299500D01*
X90405519Y-55299500D01*
X90405514Y-55299500D01*
X90218881Y-55329059D01*
X90039163Y-55387454D01*
X89870800Y-55473240D01*
X89811350Y-55516434D01*
X89717927Y-55584310D01*
X89717925Y-55584312D01*
X89717924Y-55584312D01*
X89584312Y-55717924D01*
X89584312Y-55717925D01*
X89584310Y-55717927D01*
X89536957Y-55783102D01*
X89473240Y-55870800D01*
X89394985Y-56024385D01*
X89347010Y-56075181D01*
X89279189Y-56091976D01*
X89213054Y-56069439D01*
X89169603Y-56014723D01*
X89160500Y-55968090D01*
X89160500Y-55616739D01*
X89152159Y-55559490D01*
X89150573Y-55548607D01*
X89099198Y-55443517D01*
X89099196Y-55443515D01*
X89099196Y-55443514D01*
X89016485Y-55360803D01*
X88911391Y-55309426D01*
X88843261Y-55299500D01*
X88843260Y-55299500D01*
X87076740Y-55299500D01*
X87076739Y-55299500D01*
X87008608Y-55309426D01*
X86903514Y-55360803D01*
X86820803Y-55443514D01*
X86769426Y-55548608D01*
X86759500Y-55616739D01*
X86759500Y-56931613D01*
X86739815Y-56998652D01*
X86687011Y-57044407D01*
X86617853Y-57054351D01*
X86554297Y-57025326D01*
X86547819Y-57019294D01*
X85088016Y-55559491D01*
X85088015Y-55559490D01*
X84962485Y-55487016D01*
X84962480Y-55487014D01*
X84919732Y-55475559D01*
X84919732Y-55475560D01*
X84871103Y-55462530D01*
X84822475Y-55449500D01*
X84822474Y-55449500D01*
X71779387Y-55449500D01*
X71712348Y-55429815D01*
X71691706Y-55413181D01*
X70686819Y-54408294D01*
X70653334Y-54346971D01*
X70650500Y-54320613D01*
X70650500Y-53786680D01*
X70670185Y-53719641D01*
X70688226Y-53700215D01*
X70686927Y-53698916D01*
X70692913Y-53692928D01*
X70692922Y-53692922D01*
X70784361Y-53572342D01*
X70839877Y-53431564D01*
X70849931Y-53347844D01*
X73600000Y-53347844D01*
X73606401Y-53407372D01*
X73606403Y-53407379D01*
X73656645Y-53542086D01*
X73656649Y-53542093D01*
X73742809Y-53657187D01*
X73742812Y-53657190D01*
X73857906Y-53743350D01*
X73857913Y-53743354D01*
X73992620Y-53793596D01*
X73992627Y-53793598D01*
X74052155Y-53799999D01*
X74052172Y-53800000D01*
X74100000Y-53800000D01*
X74500000Y-53800000D01*
X74547828Y-53800000D01*
X74547844Y-53799999D01*
X74607372Y-53793598D01*
X74607379Y-53793596D01*
X74742086Y-53743354D01*
X74742093Y-53743350D01*
X74857187Y-53657190D01*
X74857190Y-53657187D01*
X74943350Y-53542093D01*
X74943354Y-53542086D01*
X74993596Y-53407379D01*
X74993598Y-53407372D01*
X74999999Y-53347844D01*
X75000000Y-53347827D01*
X75000000Y-52700000D01*
X74500000Y-52700000D01*
X74500000Y-53800000D01*
X74100000Y-53800000D01*
X74100000Y-52700000D01*
X73600000Y-52700000D01*
X73600000Y-53347844D01*
X70849931Y-53347844D01*
X70850500Y-53343102D01*
X70850500Y-51656898D01*
X70849930Y-51652155D01*
X73600000Y-51652155D01*
X73600000Y-52300000D01*
X74100000Y-52300000D01*
X74500000Y-52300000D01*
X75000000Y-52300000D01*
X75000000Y-51652172D01*
X74999999Y-51652155D01*
X74993598Y-51592627D01*
X74993596Y-51592620D01*
X74943354Y-51457913D01*
X74943350Y-51457906D01*
X74857190Y-51342812D01*
X74857187Y-51342809D01*
X74742093Y-51256649D01*
X74742086Y-51256645D01*
X74607379Y-51206403D01*
X74607372Y-51206401D01*
X74547844Y-51200000D01*
X74500000Y-51200000D01*
X74500000Y-52300000D01*
X74100000Y-52300000D01*
X74100000Y-51200000D01*
X74052155Y-51200000D01*
X73992627Y-51206401D01*
X73992620Y-51206403D01*
X73857913Y-51256645D01*
X73857906Y-51256649D01*
X73742812Y-51342809D01*
X73742809Y-51342812D01*
X73656649Y-51457906D01*
X73656645Y-51457913D01*
X73606403Y-51592620D01*
X73606401Y-51592627D01*
X73600000Y-51652155D01*
X70849930Y-51652155D01*
X70839877Y-51568436D01*
X70784361Y-51427658D01*
X70784360Y-51427657D01*
X70784360Y-51427656D01*
X70692922Y-51307077D01*
X70572343Y-51215639D01*
X70431561Y-51160122D01*
X70385926Y-51154642D01*
X70343102Y-51149500D01*
X69856898Y-51149500D01*
X69817853Y-51154188D01*
X69768438Y-51160122D01*
X69627656Y-51215639D01*
X69507077Y-51307077D01*
X69415639Y-51427656D01*
X69360122Y-51568438D01*
X69357218Y-51592627D01*
X69349500Y-51656898D01*
X59550500Y-51656898D01*
X59550500Y-43346739D01*
X64299500Y-43346739D01*
X64299500Y-45113260D01*
X64309426Y-45181391D01*
X64360803Y-45286485D01*
X64443514Y-45369196D01*
X64443515Y-45369196D01*
X64443517Y-45369198D01*
X64548607Y-45420573D01*
X64582673Y-45425536D01*
X64616739Y-45430500D01*
X65118173Y-45430500D01*
X65185212Y-45450185D01*
X65230967Y-45502989D01*
X65240911Y-45572147D01*
X65211886Y-45635703D01*
X65156491Y-45672431D01*
X65058555Y-45704251D01*
X65058552Y-45704252D01*
X64897270Y-45786431D01*
X64897268Y-45786432D01*
X64840511Y-45827667D01*
X64840511Y-45827668D01*
X65314823Y-46301980D01*
X65307007Y-46304075D01*
X65192993Y-46369901D01*
X65099901Y-46462993D01*
X65034075Y-46577007D01*
X65031980Y-46584823D01*
X64557668Y-46110511D01*
X64557667Y-46110511D01*
X64516432Y-46167268D01*
X64516431Y-46167270D01*
X64434252Y-46328552D01*
X64434251Y-46328555D01*
X64378317Y-46500706D01*
X64350000Y-46679493D01*
X64350000Y-46860506D01*
X64378317Y-47039293D01*
X64434251Y-47211444D01*
X64434252Y-47211447D01*
X64516434Y-47372734D01*
X64557667Y-47429487D01*
X64557668Y-47429487D01*
X65031980Y-46955176D01*
X65034075Y-46962993D01*
X65099901Y-47077007D01*
X65192993Y-47170099D01*
X65307007Y-47235925D01*
X65314822Y-47238019D01*
X64840510Y-47712330D01*
X64840511Y-47712331D01*
X64897265Y-47753565D01*
X65058552Y-47835747D01*
X65058555Y-47835748D01*
X65230706Y-47891682D01*
X65409494Y-47920000D01*
X65590506Y-47920000D01*
X65769293Y-47891682D01*
X65941444Y-47835748D01*
X65941447Y-47835747D01*
X66102730Y-47753568D01*
X66159487Y-47712330D01*
X66159488Y-47712329D01*
X65685178Y-47238019D01*
X65692993Y-47235925D01*
X65807007Y-47170099D01*
X65900099Y-47077007D01*
X65965925Y-46962993D01*
X65968019Y-46955177D01*
X66442329Y-47429488D01*
X66442330Y-47429487D01*
X66483568Y-47372730D01*
X66565747Y-47211447D01*
X66565748Y-47211444D01*
X66621682Y-47039293D01*
X66650000Y-46860506D01*
X66650000Y-46679493D01*
X66621682Y-46500706D01*
X66565748Y-46328555D01*
X66565747Y-46328552D01*
X66483565Y-46167265D01*
X66442331Y-46110511D01*
X66442330Y-46110510D01*
X65968018Y-46584821D01*
X65965925Y-46577007D01*
X65900099Y-46462993D01*
X65807007Y-46369901D01*
X65692993Y-46304075D01*
X65685176Y-46301980D01*
X66159487Y-45827668D01*
X66159487Y-45827667D01*
X66102734Y-45786434D01*
X65941447Y-45704252D01*
X65941444Y-45704251D01*
X65843509Y-45672431D01*
X65785834Y-45632994D01*
X65758635Y-45568635D01*
X65770549Y-45499789D01*
X65817793Y-45448313D01*
X65881827Y-45430500D01*
X66383261Y-45430500D01*
X66405971Y-45427191D01*
X66451393Y-45420573D01*
X66556483Y-45369198D01*
X66639198Y-45286483D01*
X66690573Y-45181393D01*
X66700500Y-45113260D01*
X66700500Y-43346740D01*
X66690573Y-43278607D01*
X66639198Y-43173517D01*
X66639196Y-43173515D01*
X66639196Y-43173514D01*
X66556485Y-43090803D01*
X66451391Y-43039426D01*
X66383261Y-43029500D01*
X66383260Y-43029500D01*
X64616740Y-43029500D01*
X64616739Y-43029500D01*
X64548608Y-43039426D01*
X64443514Y-43090803D01*
X64360803Y-43173514D01*
X64309426Y-43278608D01*
X64299500Y-43346739D01*
X59550500Y-43346739D01*
X59550500Y-19607527D01*
X59550499Y-19607523D01*
X59539576Y-19566760D01*
X59536211Y-19554198D01*
X59537873Y-19484350D01*
X59577034Y-19426487D01*
X59641263Y-19398982D01*
X59710165Y-19410568D01*
X59743666Y-19434424D01*
X87373181Y-47063938D01*
X87406666Y-47125261D01*
X87409500Y-47151619D01*
X87409500Y-50175500D01*
X87389815Y-50242539D01*
X87337011Y-50288294D01*
X87285500Y-50299500D01*
X87076739Y-50299500D01*
X87008608Y-50309426D01*
X86903514Y-50360803D01*
X86820803Y-50443514D01*
X86769426Y-50548608D01*
X86759500Y-50616739D01*
X86759500Y-52383260D01*
X86769426Y-52451391D01*
X86820803Y-52556485D01*
X86903514Y-52639196D01*
X86903515Y-52639196D01*
X86903517Y-52639198D01*
X87008607Y-52690573D01*
X87042673Y-52695536D01*
X87076739Y-52700500D01*
X87076740Y-52700500D01*
X88843261Y-52700500D01*
X88865971Y-52697191D01*
X88911393Y-52690573D01*
X89016483Y-52639198D01*
X89099198Y-52556483D01*
X89150573Y-52451393D01*
X89160500Y-52383260D01*
X89160500Y-52031909D01*
X89180185Y-51964870D01*
X89232989Y-51919115D01*
X89302147Y-51909171D01*
X89365703Y-51938196D01*
X89394984Y-51975613D01*
X89473240Y-52129199D01*
X89584310Y-52282073D01*
X89717927Y-52415690D01*
X89870801Y-52526760D01*
X89929136Y-52556483D01*
X90039163Y-52612545D01*
X90039165Y-52612545D01*
X90039168Y-52612547D01*
X90121185Y-52639196D01*
X90218881Y-52670940D01*
X90405514Y-52700500D01*
X90405519Y-52700500D01*
X90594486Y-52700500D01*
X90781118Y-52670940D01*
X90960832Y-52612547D01*
X91129199Y-52526760D01*
X91282073Y-52415690D01*
X91415690Y-52282073D01*
X91526760Y-52129199D01*
X91612547Y-51960832D01*
X91670940Y-51781118D01*
X91673092Y-51767532D01*
X91703021Y-51704397D01*
X91762332Y-51667465D01*
X91832194Y-51668463D01*
X91890427Y-51707072D01*
X91916731Y-51764668D01*
X91917181Y-51764561D01*
X91917733Y-51766863D01*
X91918039Y-51767532D01*
X91918318Y-51769298D01*
X91974251Y-51941444D01*
X91974252Y-51941447D01*
X92056434Y-52102734D01*
X92097667Y-52159487D01*
X92097668Y-52159487D01*
X92571980Y-51685176D01*
X92574075Y-51692993D01*
X92639901Y-51807007D01*
X92732993Y-51900099D01*
X92847007Y-51965925D01*
X92854822Y-51968019D01*
X92380510Y-52442330D01*
X92380511Y-52442331D01*
X92437265Y-52483565D01*
X92598552Y-52565747D01*
X92598555Y-52565748D01*
X92770706Y-52621682D01*
X92949494Y-52650000D01*
X93130506Y-52650000D01*
X93309293Y-52621682D01*
X93481444Y-52565748D01*
X93481447Y-52565747D01*
X93642730Y-52483568D01*
X93699487Y-52442330D01*
X93699488Y-52442329D01*
X93225178Y-51968019D01*
X93232993Y-51965925D01*
X93347007Y-51900099D01*
X93440099Y-51807007D01*
X93505925Y-51692993D01*
X93508019Y-51685177D01*
X93982329Y-52159488D01*
X93982330Y-52159487D01*
X94023568Y-52102730D01*
X94105747Y-51941447D01*
X94105748Y-51941444D01*
X94161682Y-51769293D01*
X94190000Y-51590506D01*
X94190000Y-51409493D01*
X94161682Y-51230706D01*
X94105748Y-51058555D01*
X94105747Y-51058552D01*
X94023565Y-50897265D01*
X93982331Y-50840511D01*
X93982330Y-50840510D01*
X93508018Y-51314821D01*
X93505925Y-51307007D01*
X93440099Y-51192993D01*
X93347007Y-51099901D01*
X93232993Y-51034075D01*
X93225176Y-51031980D01*
X93699487Y-50557668D01*
X93699487Y-50557667D01*
X93642734Y-50516434D01*
X93481447Y-50434252D01*
X93481444Y-50434251D01*
X93309293Y-50378317D01*
X93130506Y-50350000D01*
X92949494Y-50350000D01*
X92770706Y-50378317D01*
X92598555Y-50434251D01*
X92598552Y-50434252D01*
X92437270Y-50516431D01*
X92437268Y-50516432D01*
X92380511Y-50557667D01*
X92380511Y-50557668D01*
X92854823Y-51031980D01*
X92847007Y-51034075D01*
X92732993Y-51099901D01*
X92639901Y-51192993D01*
X92574075Y-51307007D01*
X92571980Y-51314823D01*
X92097668Y-50840511D01*
X92097667Y-50840511D01*
X92056432Y-50897268D01*
X92056431Y-50897270D01*
X91974252Y-51058552D01*
X91974251Y-51058555D01*
X91918317Y-51230705D01*
X91918038Y-51232470D01*
X91917745Y-51233086D01*
X91917181Y-51235439D01*
X91916686Y-51235320D01*
X91888108Y-51295604D01*
X91828796Y-51332534D01*
X91758933Y-51331536D01*
X91700701Y-51292925D01*
X91673092Y-51232468D01*
X91670940Y-51218881D01*
X91624248Y-51075181D01*
X91612547Y-51039168D01*
X91612545Y-51039165D01*
X91612545Y-51039163D01*
X91546169Y-50908894D01*
X91526760Y-50870801D01*
X91415690Y-50717927D01*
X91282073Y-50584310D01*
X91129199Y-50473240D01*
X91129195Y-50473237D01*
X91129192Y-50473235D01*
X91118200Y-50467634D01*
X91067406Y-50419657D01*
X91050500Y-50357152D01*
X91050500Y-45427527D01*
X91050500Y-45427525D01*
X91012984Y-45287515D01*
X91012388Y-45286483D01*
X90940510Y-45161985D01*
X60895264Y-15116739D01*
X80799500Y-15116739D01*
X80799500Y-16883260D01*
X80809426Y-16951391D01*
X80860803Y-17056485D01*
X80943514Y-17139196D01*
X80943515Y-17139196D01*
X80943517Y-17139198D01*
X81048607Y-17190573D01*
X81082673Y-17195536D01*
X81116739Y-17200500D01*
X81468090Y-17200500D01*
X81535129Y-17220185D01*
X81580884Y-17272989D01*
X81590828Y-17342147D01*
X81561803Y-17405703D01*
X81524385Y-17434985D01*
X81370800Y-17513240D01*
X81283579Y-17576610D01*
X81217927Y-17624310D01*
X81217925Y-17624312D01*
X81217924Y-17624312D01*
X81084312Y-17757924D01*
X81084312Y-17757925D01*
X81084310Y-17757927D01*
X81062814Y-17787514D01*
X80973240Y-17910800D01*
X80887454Y-18079163D01*
X80829059Y-18258881D01*
X80799500Y-18445513D01*
X80799500Y-18634486D01*
X80829059Y-18821118D01*
X80887454Y-19000836D01*
X80973240Y-19169199D01*
X81084310Y-19322073D01*
X81217927Y-19455690D01*
X81370801Y-19566760D01*
X81450347Y-19607290D01*
X81539163Y-19652545D01*
X81539165Y-19652545D01*
X81539168Y-19652547D01*
X81628734Y-19681649D01*
X81660803Y-19692069D01*
X81718478Y-19731507D01*
X81745676Y-19795866D01*
X81733761Y-19864712D01*
X81686516Y-19916188D01*
X81660803Y-19927931D01*
X81539163Y-19967454D01*
X81370800Y-20053240D01*
X81283579Y-20116610D01*
X81217927Y-20164310D01*
X81217925Y-20164312D01*
X81217924Y-20164312D01*
X81084312Y-20297924D01*
X81084312Y-20297925D01*
X81084310Y-20297927D01*
X81036610Y-20363579D01*
X80973240Y-20450800D01*
X80887454Y-20619163D01*
X80829059Y-20798881D01*
X80799500Y-20985513D01*
X80799500Y-21174486D01*
X80829059Y-21361118D01*
X80887454Y-21540836D01*
X80973240Y-21709199D01*
X81084310Y-21862073D01*
X81217927Y-21995690D01*
X81370801Y-22106760D01*
X81450347Y-22147290D01*
X81539163Y-22192545D01*
X81539165Y-22192545D01*
X81539168Y-22192547D01*
X81628734Y-22221649D01*
X81660803Y-22232069D01*
X81718478Y-22271507D01*
X81745676Y-22335866D01*
X81733761Y-22404712D01*
X81686516Y-22456188D01*
X81660803Y-22467931D01*
X81539163Y-22507454D01*
X81370800Y-22593240D01*
X81283579Y-22656610D01*
X81217927Y-22704310D01*
X81217925Y-22704312D01*
X81217924Y-22704312D01*
X81084312Y-22837924D01*
X81084312Y-22837925D01*
X81084310Y-22837927D01*
X81036610Y-22903579D01*
X80973240Y-22990800D01*
X80887454Y-23159163D01*
X80829059Y-23338881D01*
X80799500Y-23525513D01*
X80799500Y-23714486D01*
X80829059Y-23901118D01*
X80887454Y-24080836D01*
X80973240Y-24249199D01*
X81084310Y-24402073D01*
X81217927Y-24535690D01*
X81370801Y-24646760D01*
X81450347Y-24687290D01*
X81539163Y-24732545D01*
X81539165Y-24732545D01*
X81539168Y-24732547D01*
X81628734Y-24761649D01*
X81660803Y-24772069D01*
X81718478Y-24811507D01*
X81745676Y-24875866D01*
X81733761Y-24944712D01*
X81686516Y-24996188D01*
X81660803Y-25007931D01*
X81539163Y-25047454D01*
X81370800Y-25133240D01*
X81283579Y-25196610D01*
X81217927Y-25244310D01*
X81217925Y-25244312D01*
X81217924Y-25244312D01*
X81084312Y-25377924D01*
X81084312Y-25377925D01*
X81084310Y-25377927D01*
X81040831Y-25437770D01*
X80973240Y-25530800D01*
X80887454Y-25699163D01*
X80829059Y-25878881D01*
X80799500Y-26065513D01*
X80799500Y-26254486D01*
X80829059Y-26441118D01*
X80887454Y-26620836D01*
X80953522Y-26750500D01*
X80973240Y-26789199D01*
X81084310Y-26942073D01*
X81217927Y-27075690D01*
X81370801Y-27186760D01*
X81450347Y-27227290D01*
X81539163Y-27272545D01*
X81539165Y-27272545D01*
X81539168Y-27272547D01*
X81635497Y-27303846D01*
X81718881Y-27330940D01*
X81732468Y-27333092D01*
X81795603Y-27363021D01*
X81832534Y-27422333D01*
X81831536Y-27492195D01*
X81792926Y-27550428D01*
X81735331Y-27576731D01*
X81735439Y-27577181D01*
X81733136Y-27577733D01*
X81732470Y-27578038D01*
X81730705Y-27578317D01*
X81558555Y-27634251D01*
X81558552Y-27634252D01*
X81397270Y-27716431D01*
X81397268Y-27716432D01*
X81340511Y-27757667D01*
X81340511Y-27757668D01*
X81814823Y-28231980D01*
X81807007Y-28234075D01*
X81692993Y-28299901D01*
X81599901Y-28392993D01*
X81534075Y-28507007D01*
X81531980Y-28514823D01*
X81057668Y-28040511D01*
X81057667Y-28040511D01*
X81016432Y-28097268D01*
X81016431Y-28097270D01*
X80934252Y-28258552D01*
X80934251Y-28258555D01*
X80878317Y-28430706D01*
X80850000Y-28609493D01*
X80850000Y-28790506D01*
X80878317Y-28969293D01*
X80934251Y-29141444D01*
X80934252Y-29141447D01*
X81016434Y-29302734D01*
X81057667Y-29359487D01*
X81057668Y-29359487D01*
X81531980Y-28885176D01*
X81534075Y-28892993D01*
X81599901Y-29007007D01*
X81692993Y-29100099D01*
X81807007Y-29165925D01*
X81814822Y-29168019D01*
X81340510Y-29642330D01*
X81340511Y-29642331D01*
X81397265Y-29683565D01*
X81558552Y-29765747D01*
X81558555Y-29765748D01*
X81730701Y-29821681D01*
X81732451Y-29821958D01*
X81733065Y-29822249D01*
X81735439Y-29822819D01*
X81735319Y-29823317D01*
X81795590Y-29851879D01*
X81832529Y-29911186D01*
X81831541Y-29981048D01*
X81792939Y-30039286D01*
X81732475Y-30066906D01*
X81718882Y-30069059D01*
X81718881Y-30069059D01*
X81539163Y-30127454D01*
X81370800Y-30213240D01*
X81283579Y-30276610D01*
X81217927Y-30324310D01*
X81217925Y-30324312D01*
X81217924Y-30324312D01*
X81084312Y-30457924D01*
X81084312Y-30457925D01*
X81084310Y-30457927D01*
X81036610Y-30523579D01*
X80973240Y-30610800D01*
X80887454Y-30779163D01*
X80829059Y-30958881D01*
X80799500Y-31145513D01*
X80799500Y-31334486D01*
X80829059Y-31521118D01*
X80887454Y-31700836D01*
X80973240Y-31869199D01*
X81084310Y-32022073D01*
X81217927Y-32155690D01*
X81370801Y-32266760D01*
X81450347Y-32307290D01*
X81539163Y-32352545D01*
X81539165Y-32352545D01*
X81539168Y-32352547D01*
X81635497Y-32383846D01*
X81718881Y-32410940D01*
X81905514Y-32440500D01*
X81905519Y-32440500D01*
X82094486Y-32440500D01*
X82281118Y-32410940D01*
X82460832Y-32352547D01*
X82629199Y-32266760D01*
X82782073Y-32155690D01*
X82915690Y-32022073D01*
X83026760Y-31869199D01*
X83112547Y-31700832D01*
X83170940Y-31521118D01*
X83200500Y-31334486D01*
X83200500Y-31145513D01*
X83170940Y-30958881D01*
X83112545Y-30779163D01*
X83026759Y-30610800D01*
X82915690Y-30457927D01*
X82782073Y-30324310D01*
X82629199Y-30213240D01*
X82460836Y-30127454D01*
X82281117Y-30069059D01*
X82267525Y-30066906D01*
X82204392Y-30036974D01*
X82167464Y-29977661D01*
X82168465Y-29907798D01*
X82207077Y-29849567D01*
X82264669Y-29823272D01*
X82264561Y-29822819D01*
X82266886Y-29822260D01*
X82267550Y-29821958D01*
X82269297Y-29821681D01*
X82441444Y-29765748D01*
X82441447Y-29765747D01*
X82602730Y-29683568D01*
X82659487Y-29642330D01*
X82659488Y-29642329D01*
X82185178Y-29168019D01*
X82192993Y-29165925D01*
X82307007Y-29100099D01*
X82400099Y-29007007D01*
X82465925Y-28892993D01*
X82468019Y-28885177D01*
X82942329Y-29359488D01*
X82942330Y-29359487D01*
X82983568Y-29302730D01*
X83065747Y-29141447D01*
X83065748Y-29141444D01*
X83121682Y-28969293D01*
X83150000Y-28790506D01*
X83150000Y-28609493D01*
X83121682Y-28430706D01*
X83065748Y-28258555D01*
X83065747Y-28258552D01*
X82983565Y-28097265D01*
X82942331Y-28040511D01*
X82942330Y-28040510D01*
X82468018Y-28514821D01*
X82465925Y-28507007D01*
X82400099Y-28392993D01*
X82307007Y-28299901D01*
X82192993Y-28234075D01*
X82185176Y-28231980D01*
X82659487Y-27757668D01*
X82659487Y-27757667D01*
X82602734Y-27716434D01*
X82441447Y-27634252D01*
X82441444Y-27634251D01*
X82269298Y-27578318D01*
X82267532Y-27578039D01*
X82266912Y-27577745D01*
X82264561Y-27577181D01*
X82264679Y-27576686D01*
X82204397Y-27548110D01*
X82167465Y-27488798D01*
X82168463Y-27418936D01*
X82207072Y-27360703D01*
X82267532Y-27333092D01*
X82281118Y-27330940D01*
X82353178Y-27307526D01*
X82460832Y-27272547D01*
X82629199Y-27186760D01*
X82782073Y-27075690D01*
X82915690Y-26942073D01*
X83026760Y-26789199D01*
X83112547Y-26620832D01*
X83170940Y-26441118D01*
X83200500Y-26254486D01*
X83200500Y-26065513D01*
X83170940Y-25878881D01*
X83112545Y-25699163D01*
X83026759Y-25530800D01*
X83015385Y-25515145D01*
X82915690Y-25377927D01*
X82782073Y-25244310D01*
X82629199Y-25133240D01*
X82460836Y-25047454D01*
X82386472Y-25023291D01*
X82339195Y-25007930D01*
X82281521Y-24968493D01*
X82254323Y-24904134D01*
X82266238Y-24835288D01*
X82313482Y-24783812D01*
X82339194Y-24772069D01*
X82460832Y-24732547D01*
X82629199Y-24646760D01*
X82782073Y-24535690D01*
X82915690Y-24402073D01*
X83026760Y-24249199D01*
X83112547Y-24080832D01*
X83170940Y-23901118D01*
X83175184Y-23874323D01*
X83200500Y-23714486D01*
X83200500Y-23525513D01*
X83170940Y-23338881D01*
X83112545Y-23159163D01*
X83026759Y-22990800D01*
X82915690Y-22837927D01*
X82782073Y-22704310D01*
X82629199Y-22593240D01*
X82460836Y-22507454D01*
X82386472Y-22483291D01*
X82339195Y-22467930D01*
X82281521Y-22428493D01*
X82254323Y-22364134D01*
X82266238Y-22295288D01*
X82313482Y-22243812D01*
X82339194Y-22232069D01*
X82460832Y-22192547D01*
X82629199Y-22106760D01*
X82782073Y-21995690D01*
X82915690Y-21862073D01*
X83026760Y-21709199D01*
X83112547Y-21540832D01*
X83170940Y-21361118D01*
X83175184Y-21334323D01*
X83200500Y-21174486D01*
X83200500Y-20985513D01*
X83170940Y-20798881D01*
X83112545Y-20619163D01*
X83026759Y-20450800D01*
X82915690Y-20297927D01*
X82782073Y-20164310D01*
X82629199Y-20053240D01*
X82460836Y-19967454D01*
X82354883Y-19933028D01*
X82339195Y-19927930D01*
X82281521Y-19888493D01*
X82254323Y-19824134D01*
X82266238Y-19755288D01*
X82313482Y-19703812D01*
X82339194Y-19692069D01*
X82460832Y-19652547D01*
X82629199Y-19566760D01*
X82782073Y-19455690D01*
X82915690Y-19322073D01*
X83026760Y-19169199D01*
X83112547Y-19000832D01*
X83170940Y-18821118D01*
X83175184Y-18794323D01*
X83200500Y-18634486D01*
X83200500Y-18445513D01*
X83170940Y-18258881D01*
X83112545Y-18079163D01*
X83026759Y-17910800D01*
X82915690Y-17757927D01*
X82782073Y-17624310D01*
X82629199Y-17513240D01*
X82475615Y-17434985D01*
X82424819Y-17387010D01*
X82408024Y-17319189D01*
X82430561Y-17253054D01*
X82485277Y-17209603D01*
X82531910Y-17200500D01*
X82883261Y-17200500D01*
X82905971Y-17197191D01*
X82951393Y-17190573D01*
X83056483Y-17139198D01*
X83139198Y-17056483D01*
X83190573Y-16951393D01*
X83200500Y-16883260D01*
X83200500Y-15116740D01*
X83190573Y-15048607D01*
X83139198Y-14943517D01*
X83139196Y-14943515D01*
X83139196Y-14943514D01*
X83056485Y-14860803D01*
X82951391Y-14809426D01*
X82883261Y-14799500D01*
X82883260Y-14799500D01*
X81116740Y-14799500D01*
X81116739Y-14799500D01*
X81048608Y-14809426D01*
X80943514Y-14860803D01*
X80860803Y-14943514D01*
X80809426Y-15048608D01*
X80799500Y-15116739D01*
X60895264Y-15116739D01*
X57338015Y-11559490D01*
X57212485Y-11487016D01*
X57212486Y-11487016D01*
X57177482Y-11477637D01*
X57072475Y-11449500D01*
X45927525Y-11449500D01*
X45822517Y-11477637D01*
X45787514Y-11487016D01*
X45661986Y-11559489D01*
X45661983Y-11559491D01*
X45247681Y-11973794D01*
X45186358Y-12007279D01*
X45116666Y-12002295D01*
X45072319Y-11973794D01*
X44658016Y-11559491D01*
X44658015Y-11559490D01*
X44532485Y-11487016D01*
X44532486Y-11487016D01*
X44497482Y-11477637D01*
X44392475Y-11449500D01*
X33927525Y-11449500D01*
X33822517Y-11477637D01*
X33787514Y-11487016D01*
X33661986Y-11559489D01*
X33661983Y-11559491D01*
X27559491Y-17661983D01*
X27559490Y-17661985D01*
X27504099Y-17757927D01*
X27487716Y-17786303D01*
X27487017Y-17787513D01*
X27487016Y-17787514D01*
X27487016Y-17787515D01*
X27449500Y-17927525D01*
X27449500Y-17927527D01*
X27449500Y-55691824D01*
X27429815Y-55758863D01*
X27377011Y-55804618D01*
X27307853Y-55814562D01*
X27252614Y-55792142D01*
X27106297Y-55685836D01*
X26903922Y-55582720D01*
X26687903Y-55512530D01*
X26463572Y-55477000D01*
X26236428Y-55477000D01*
X26012096Y-55512530D01*
X25796077Y-55582720D01*
X25593699Y-55685838D01*
X25480746Y-55767902D01*
X25480745Y-55767904D01*
X26015960Y-56303119D01*
X25904732Y-56377439D01*
X25807439Y-56474732D01*
X25733119Y-56585960D01*
X25197904Y-56050745D01*
X25197902Y-56050746D01*
X25115838Y-56163699D01*
X25012720Y-56366077D01*
X24942530Y-56582096D01*
X24907000Y-56806427D01*
X24907000Y-57033572D01*
X24942530Y-57257903D01*
X25012720Y-57473922D01*
X25115836Y-57676297D01*
X25197904Y-57789252D01*
X25197905Y-57789253D01*
X25733118Y-57254039D01*
X25807439Y-57365268D01*
X25904732Y-57462561D01*
X26015959Y-57536880D01*
X25480745Y-58072094D01*
X25593704Y-58154163D01*
X25593710Y-58154167D01*
X25796077Y-58257279D01*
X26012096Y-58327469D01*
X26236428Y-58363000D01*
X26463572Y-58363000D01*
X26687903Y-58327469D01*
X26903922Y-58257279D01*
X27106297Y-58154163D01*
X27252614Y-58047857D01*
X27318420Y-58024377D01*
X27386474Y-58040202D01*
X27435169Y-58090308D01*
X27449500Y-58148175D01*
X27449500Y-61072475D01*
X27475418Y-61169199D01*
X27477701Y-61177720D01*
X27477701Y-61177721D01*
X27487015Y-61212482D01*
X27487016Y-61212485D01*
X27559490Y-61338015D01*
X32281986Y-66060510D01*
X32281987Y-66060511D01*
X32281989Y-66060512D01*
X32317185Y-66080832D01*
X32407515Y-66132984D01*
X32547525Y-66170500D01*
X32547526Y-66170500D01*
X32692474Y-66170500D01*
X40857153Y-66170500D01*
X40924192Y-66190185D01*
X40967637Y-66238203D01*
X40973240Y-66249199D01*
X41084310Y-66402073D01*
X41217927Y-66535690D01*
X41370801Y-66646760D01*
X41450347Y-66687290D01*
X41539163Y-66732545D01*
X41539165Y-66732545D01*
X41539168Y-66732547D01*
X41635497Y-66763846D01*
X41718881Y-66790940D01*
X41905514Y-66820500D01*
X41905519Y-66820500D01*
X42094486Y-66820500D01*
X42281118Y-66790940D01*
X42460832Y-66732547D01*
X42629199Y-66646760D01*
X42782073Y-66535690D01*
X42915690Y-66402073D01*
X43026760Y-66249199D01*
X43112547Y-66080832D01*
X43170940Y-65901118D01*
X43173249Y-65886541D01*
X43200500Y-65714486D01*
X43200500Y-65525513D01*
X43170940Y-65338881D01*
X43130896Y-65215639D01*
X43112547Y-65159168D01*
X43112545Y-65159165D01*
X43112545Y-65159163D01*
X43056214Y-65048608D01*
X43026760Y-64990801D01*
X42915690Y-64837927D01*
X42782073Y-64704310D01*
X42629199Y-64593240D01*
X42583951Y-64570185D01*
X42460836Y-64507454D01*
X42386472Y-64483291D01*
X42339195Y-64467930D01*
X42281521Y-64428493D01*
X42254323Y-64364134D01*
X42266238Y-64295288D01*
X42313482Y-64243812D01*
X42339194Y-64232069D01*
X42460832Y-64192547D01*
X42629199Y-64106760D01*
X42782073Y-63995690D01*
X42911938Y-63865825D01*
X42973261Y-63832340D01*
X43042953Y-63837324D01*
X43087300Y-63865825D01*
X43413181Y-64191706D01*
X43446666Y-64253029D01*
X43449500Y-64279387D01*
X43449500Y-66220613D01*
X43429815Y-66287652D01*
X43413181Y-66308294D01*
X42308294Y-67413181D01*
X42246971Y-67446666D01*
X42220613Y-67449500D01*
X31279387Y-67449500D01*
X31212348Y-67429815D01*
X31191706Y-67413181D01*
X27338016Y-63559491D01*
X27338015Y-63559490D01*
X27212485Y-63487016D01*
X27212483Y-63487015D01*
X27196983Y-63482862D01*
X27196983Y-63482861D01*
X27095261Y-63455605D01*
X27072475Y-63449500D01*
X27072474Y-63449500D01*
X13389187Y-63449500D01*
X13322148Y-63429815D01*
X13301506Y-63413181D01*
X12323327Y-62435002D01*
X12289842Y-62373679D01*
X12293078Y-62309001D01*
X12303980Y-62275450D01*
X12317544Y-62189806D01*
X12334500Y-62082756D01*
X12334500Y-61887643D01*
X12303980Y-61694949D01*
X12262328Y-61566759D01*
X12243690Y-61509397D01*
X12243688Y-61509394D01*
X12243688Y-61509392D01*
X12196963Y-61417691D01*
X12155116Y-61335560D01*
X12040438Y-61177720D01*
X11902480Y-61039762D01*
X11744640Y-60925084D01*
X11714041Y-60909493D01*
X11570808Y-60836512D01*
X11570805Y-60836511D01*
X11570803Y-60836510D01*
X11508965Y-60816417D01*
X11451291Y-60776979D01*
X11424094Y-60712620D01*
X11436009Y-60643774D01*
X11483254Y-60592299D01*
X11508970Y-60580555D01*
X11566417Y-60561890D01*
X11733172Y-60476923D01*
X11797408Y-60430251D01*
X11797409Y-60430250D01*
X11249863Y-59882704D01*
X11281571Y-59874208D01*
X11382930Y-59815689D01*
X11465689Y-59732930D01*
X11524208Y-59631571D01*
X11532704Y-59599862D01*
X12080250Y-60147409D01*
X12080251Y-60147408D01*
X12126923Y-60083172D01*
X12211891Y-59916415D01*
X12269722Y-59738426D01*
X12299000Y-59553581D01*
X12299000Y-59366418D01*
X12269722Y-59181573D01*
X12211891Y-59003584D01*
X12126923Y-58836827D01*
X12080251Y-58772590D01*
X12080251Y-58772589D01*
X11532704Y-59320136D01*
X11524208Y-59288429D01*
X11465689Y-59187070D01*
X11382930Y-59104311D01*
X11281571Y-59045792D01*
X11249862Y-59037295D01*
X11797409Y-58489748D01*
X11797408Y-58489747D01*
X11733172Y-58443076D01*
X11566415Y-58358108D01*
X11388426Y-58300277D01*
X11203581Y-58271000D01*
X11016419Y-58271000D01*
X10831573Y-58300277D01*
X10653584Y-58358108D01*
X10486831Y-58443074D01*
X10422590Y-58489747D01*
X10970138Y-59037295D01*
X10938429Y-59045792D01*
X10837070Y-59104311D01*
X10754311Y-59187070D01*
X10695792Y-59288429D01*
X10687295Y-59320138D01*
X10139747Y-58772590D01*
X10093074Y-58836831D01*
X10008108Y-59003584D01*
X9950277Y-59181573D01*
X9921000Y-59366418D01*
X9921000Y-59553581D01*
X9950277Y-59738426D01*
X10008108Y-59916415D01*
X10093076Y-60083172D01*
X10139747Y-60147408D01*
X10139748Y-60147409D01*
X10687295Y-59599861D01*
X10695792Y-59631571D01*
X10754311Y-59732930D01*
X10837070Y-59815689D01*
X10938429Y-59874208D01*
X10970137Y-59882704D01*
X10422589Y-60430251D01*
X10486827Y-60476923D01*
X10653582Y-60561890D01*
X10696028Y-60575681D01*
X10753704Y-60615118D01*
X10780903Y-60679476D01*
X10768990Y-60748323D01*
X10721747Y-60799799D01*
X10696032Y-60811543D01*
X10619196Y-60836509D01*
X10445359Y-60925084D01*
X10287517Y-61039764D01*
X10149564Y-61177717D01*
X10149564Y-61177718D01*
X10149562Y-61177720D01*
X10124306Y-61212482D01*
X10034884Y-61335559D01*
X9946311Y-61509392D01*
X9886019Y-61694949D01*
X9855500Y-61887643D01*
X9855500Y-62082756D01*
X9886019Y-62275450D01*
X9946311Y-62461007D01*
X9985459Y-62537838D01*
X10034884Y-62634840D01*
X10149562Y-62792680D01*
X10287520Y-62930638D01*
X10445360Y-63045316D01*
X10527491Y-63087163D01*
X10619192Y-63133888D01*
X10619194Y-63133888D01*
X10619197Y-63133890D01*
X10629599Y-63137269D01*
X10687273Y-63176707D01*
X10714471Y-63241066D01*
X10702556Y-63309912D01*
X10655311Y-63361388D01*
X10629601Y-63373129D01*
X10624973Y-63374633D01*
X10619192Y-63376511D01*
X10445359Y-63465084D01*
X10415173Y-63487016D01*
X10287520Y-63579762D01*
X10287518Y-63579764D01*
X10287517Y-63579764D01*
X10149564Y-63717717D01*
X10149564Y-63717718D01*
X10149562Y-63717720D01*
X10118298Y-63760751D01*
X10034884Y-63875559D01*
X9946311Y-64049392D01*
X9886019Y-64234949D01*
X9855500Y-64427643D01*
X9855500Y-64622756D01*
X9886019Y-64815450D01*
X9946311Y-65001007D01*
X10021973Y-65149500D01*
X10034884Y-65174840D01*
X10149562Y-65332680D01*
X10287520Y-65470638D01*
X10445360Y-65585316D01*
X10517749Y-65622200D01*
X10619192Y-65673888D01*
X10619194Y-65673888D01*
X10619197Y-65673890D01*
X10677990Y-65692993D01*
X10804749Y-65734180D01*
X10997444Y-65764700D01*
X10997449Y-65764700D01*
X11192556Y-65764700D01*
X11385250Y-65734180D01*
X11437641Y-65717157D01*
X11570803Y-65673890D01*
X11744640Y-65585316D01*
X11902480Y-65470638D01*
X12040438Y-65332680D01*
X12155116Y-65174840D01*
X12243690Y-65001003D01*
X12303980Y-64815450D01*
X12311149Y-64770185D01*
X12334500Y-64622756D01*
X12334500Y-64427643D01*
X12314328Y-64300286D01*
X12323282Y-64230993D01*
X12368278Y-64177541D01*
X12435030Y-64156901D01*
X12502344Y-64175626D01*
X12524482Y-64193207D01*
X12771785Y-64440510D01*
X12887735Y-64507453D01*
X12897315Y-64512984D01*
X13037325Y-64550500D01*
X26720613Y-64550500D01*
X26787652Y-64570185D01*
X26808294Y-64586819D01*
X30661985Y-68440510D01*
X30787515Y-68512984D01*
X30927525Y-68550500D01*
X30927528Y-68550500D01*
X42572472Y-68550500D01*
X42572474Y-68550500D01*
X42572475Y-68550500D01*
X42712485Y-68512984D01*
X42838015Y-68440510D01*
X44440510Y-66838015D01*
X44512984Y-66712485D01*
X44550500Y-66572475D01*
X44550500Y-63927525D01*
X44512984Y-63787515D01*
X44497532Y-63760751D01*
X44440510Y-63661985D01*
X43418015Y-62639490D01*
X43292485Y-62567016D01*
X43292486Y-62567016D01*
X43183592Y-62537838D01*
X43183592Y-62537837D01*
X43152475Y-62529500D01*
X43142847Y-62529500D01*
X43075808Y-62509815D01*
X43032363Y-62461797D01*
X43031143Y-62459403D01*
X43026760Y-62450801D01*
X42915690Y-62297927D01*
X42782073Y-62164310D01*
X42629199Y-62053240D01*
X42460836Y-61967454D01*
X42383509Y-61942329D01*
X42339195Y-61927930D01*
X42281521Y-61888493D01*
X42254323Y-61824134D01*
X42266238Y-61755288D01*
X42313482Y-61703812D01*
X42339194Y-61692069D01*
X42460832Y-61652547D01*
X42629199Y-61566760D01*
X42782073Y-61455690D01*
X42915690Y-61322073D01*
X43026760Y-61169199D01*
X43112547Y-61000832D01*
X43170940Y-60821118D01*
X43175405Y-60792925D01*
X43200500Y-60634486D01*
X43200500Y-60445513D01*
X43170940Y-60258881D01*
X43124755Y-60116740D01*
X43112547Y-60079168D01*
X43112545Y-60079165D01*
X43112545Y-60079163D01*
X43056829Y-59969815D01*
X43026760Y-59910801D01*
X42915690Y-59757927D01*
X42782073Y-59624310D01*
X42629199Y-59513240D01*
X42530652Y-59463028D01*
X42475615Y-59434985D01*
X42424819Y-59387010D01*
X42408024Y-59319189D01*
X42430561Y-59253054D01*
X42485277Y-59209603D01*
X42531910Y-59200500D01*
X42883261Y-59200500D01*
X42905971Y-59197191D01*
X42951393Y-59190573D01*
X43056483Y-59139198D01*
X43139198Y-59056483D01*
X43190573Y-58951393D01*
X43200500Y-58883260D01*
X43200500Y-58674500D01*
X43220185Y-58607461D01*
X43272989Y-58561706D01*
X43324500Y-58550500D01*
X45220613Y-58550500D01*
X45287652Y-58570185D01*
X45308294Y-58586819D01*
X45413181Y-58691706D01*
X45446666Y-58753029D01*
X45449500Y-58779387D01*
X45449500Y-71220613D01*
X45429815Y-71287652D01*
X45413181Y-71308294D01*
X42308294Y-74413181D01*
X42246971Y-74446666D01*
X42220613Y-74449500D01*
X21279387Y-74449500D01*
X21212348Y-74429815D01*
X21191706Y-74413181D01*
X20601819Y-73823294D01*
X20568334Y-73761971D01*
X20565500Y-73735613D01*
X20565500Y-72081817D01*
X20585185Y-72014778D01*
X20633204Y-71971332D01*
X20664640Y-71955316D01*
X20822480Y-71840638D01*
X20960438Y-71702680D01*
X21075116Y-71544840D01*
X21163690Y-71371003D01*
X21170319Y-71350599D01*
X21209754Y-71292927D01*
X21274112Y-71265728D01*
X21342959Y-71277642D01*
X21394435Y-71324885D01*
X21404333Y-71346557D01*
X21404449Y-71346510D01*
X21405785Y-71349737D01*
X21406177Y-71350596D01*
X21406268Y-71350874D01*
X21406311Y-71351007D01*
X21457460Y-71451391D01*
X21494884Y-71524840D01*
X21609562Y-71682680D01*
X21747520Y-71820638D01*
X21905360Y-71935316D01*
X21976044Y-71971331D01*
X22079192Y-72023888D01*
X22079194Y-72023888D01*
X22079197Y-72023890D01*
X22178657Y-72056206D01*
X22264749Y-72084180D01*
X22457444Y-72114700D01*
X22457449Y-72114700D01*
X22652556Y-72114700D01*
X22845250Y-72084180D01*
X23030803Y-72023890D01*
X23204640Y-71935316D01*
X23362480Y-71820638D01*
X23500438Y-71682680D01*
X23615116Y-71524840D01*
X23703690Y-71351003D01*
X23763980Y-71165450D01*
X23766723Y-71148130D01*
X23794500Y-70972756D01*
X23794500Y-70777643D01*
X23763980Y-70584949D01*
X23710583Y-70420612D01*
X23703690Y-70399397D01*
X23703688Y-70399393D01*
X23703688Y-70399392D01*
X23649440Y-70292925D01*
X23615116Y-70225560D01*
X23500438Y-70067720D01*
X23362480Y-69929762D01*
X23204640Y-69815084D01*
X23030807Y-69726511D01*
X22845250Y-69666219D01*
X22652556Y-69635700D01*
X22652551Y-69635700D01*
X22457449Y-69635700D01*
X22457444Y-69635700D01*
X22264749Y-69666219D01*
X22079192Y-69726511D01*
X21905359Y-69815084D01*
X21828674Y-69870800D01*
X21747520Y-69929762D01*
X21747518Y-69929764D01*
X21747517Y-69929764D01*
X21609564Y-70067717D01*
X21609564Y-70067718D01*
X21609562Y-70067720D01*
X21595033Y-70087718D01*
X21494884Y-70225559D01*
X21406311Y-70399393D01*
X21399680Y-70419801D01*
X21360240Y-70477475D01*
X21295881Y-70504671D01*
X21227035Y-70492755D01*
X21175560Y-70445509D01*
X21165667Y-70423841D01*
X21165551Y-70423890D01*
X21164193Y-70420612D01*
X21163815Y-70419783D01*
X21163690Y-70419397D01*
X21075116Y-70245560D01*
X20960438Y-70087720D01*
X20822480Y-69949762D01*
X20664640Y-69835084D01*
X20625388Y-69815084D01*
X20490807Y-69746511D01*
X20305250Y-69686219D01*
X20112556Y-69655700D01*
X20112551Y-69655700D01*
X19917449Y-69655700D01*
X19917444Y-69655700D01*
X19724749Y-69686219D01*
X19539192Y-69746511D01*
X19365359Y-69835084D01*
X19316201Y-69870800D01*
X19207520Y-69949762D01*
X19207518Y-69949764D01*
X19207517Y-69949764D01*
X19069564Y-70087717D01*
X19069564Y-70087718D01*
X19069562Y-70087720D01*
X19066470Y-70091976D01*
X18954884Y-70245559D01*
X18866309Y-70419396D01*
X18839629Y-70501508D01*
X18800191Y-70559183D01*
X18735832Y-70586380D01*
X18666986Y-70574465D01*
X18615511Y-70527220D01*
X18603767Y-70501504D01*
X18576890Y-70418782D01*
X18491923Y-70252027D01*
X18445251Y-70187790D01*
X18445251Y-70187789D01*
X17897704Y-70735336D01*
X17889208Y-70703629D01*
X17830689Y-70602270D01*
X17747930Y-70519511D01*
X17646571Y-70460992D01*
X17614862Y-70452495D01*
X18162409Y-69904948D01*
X18162408Y-69904947D01*
X18098172Y-69858276D01*
X17931415Y-69773308D01*
X17753426Y-69715477D01*
X17568581Y-69686200D01*
X17381419Y-69686200D01*
X17196573Y-69715477D01*
X17018584Y-69773308D01*
X16851831Y-69858274D01*
X16787590Y-69904947D01*
X17335138Y-70452495D01*
X17303429Y-70460992D01*
X17202070Y-70519511D01*
X17119311Y-70602270D01*
X17060792Y-70703629D01*
X17052295Y-70735338D01*
X16504747Y-70187790D01*
X16458074Y-70252031D01*
X16373108Y-70418784D01*
X16315277Y-70596773D01*
X16286000Y-70781618D01*
X16286000Y-70968781D01*
X16315277Y-71153626D01*
X16373108Y-71331615D01*
X16458076Y-71498372D01*
X16504747Y-71562608D01*
X16504748Y-71562609D01*
X17052295Y-71015061D01*
X17060792Y-71046771D01*
X17119311Y-71148130D01*
X17202070Y-71230889D01*
X17303429Y-71289408D01*
X17335137Y-71297904D01*
X16787589Y-71845451D01*
X16851827Y-71892123D01*
X17018584Y-71977091D01*
X17196573Y-72034922D01*
X17381419Y-72064200D01*
X17568581Y-72064200D01*
X17753426Y-72034922D01*
X17931415Y-71977091D01*
X18098172Y-71892123D01*
X18162408Y-71845451D01*
X18162409Y-71845450D01*
X17614863Y-71297904D01*
X17646571Y-71289408D01*
X17747930Y-71230889D01*
X17830689Y-71148130D01*
X17889208Y-71046771D01*
X17897704Y-71015062D01*
X18445250Y-71562609D01*
X18445251Y-71562608D01*
X18491923Y-71498372D01*
X18576892Y-71331613D01*
X18597270Y-71268895D01*
X18636706Y-71211219D01*
X18701065Y-71184020D01*
X18769911Y-71195934D01*
X18821387Y-71243177D01*
X18833132Y-71268893D01*
X18866311Y-71371007D01*
X18945671Y-71526759D01*
X18954884Y-71544840D01*
X19069562Y-71702680D01*
X19207520Y-71840638D01*
X19365360Y-71955316D01*
X19396794Y-71971332D01*
X19447590Y-72019305D01*
X19464500Y-72081817D01*
X19464500Y-73942526D01*
X19464500Y-74087474D01*
X19502016Y-74227485D01*
X19574490Y-74353015D01*
X20661985Y-75440510D01*
X20742537Y-75487016D01*
X20787515Y-75512984D01*
X20927525Y-75550500D01*
X20927528Y-75550500D01*
X42572472Y-75550500D01*
X42572474Y-75550500D01*
X42572475Y-75550500D01*
X42693910Y-75517961D01*
X42763755Y-75519624D01*
X42821618Y-75558786D01*
X42849123Y-75623014D01*
X42850000Y-75637736D01*
X42850000Y-75800000D01*
X43538120Y-75800000D01*
X43534075Y-75807007D01*
X43500000Y-75934174D01*
X43500000Y-76065826D01*
X43534075Y-76192993D01*
X43538120Y-76200000D01*
X42850001Y-76200000D01*
X42850001Y-76575500D01*
X42830316Y-76642539D01*
X42777512Y-76688294D01*
X42726001Y-76699500D01*
X8029387Y-76699500D01*
X7962348Y-76679815D01*
X7941706Y-76663181D01*
X7586819Y-76308294D01*
X7553334Y-76246971D01*
X7550500Y-76220613D01*
X7550500Y-66951627D01*
X12207000Y-66951627D01*
X12207000Y-67178772D01*
X12242530Y-67403103D01*
X12312720Y-67619122D01*
X12415836Y-67821497D01*
X12497904Y-67934452D01*
X12497905Y-67934453D01*
X13033118Y-67399239D01*
X13107439Y-67510468D01*
X13204732Y-67607761D01*
X13315959Y-67682080D01*
X12780745Y-68217294D01*
X12893704Y-68299363D01*
X12893710Y-68299367D01*
X13096077Y-68402479D01*
X13312096Y-68472669D01*
X13536428Y-68508200D01*
X13763572Y-68508200D01*
X13987903Y-68472669D01*
X14203922Y-68402479D01*
X14406295Y-68299364D01*
X14519252Y-68217295D01*
X14519252Y-68217294D01*
X13984039Y-67682081D01*
X14095268Y-67607761D01*
X14192561Y-67510468D01*
X14266881Y-67399239D01*
X14802094Y-67934453D01*
X14802094Y-67934452D01*
X14884164Y-67821495D01*
X14987279Y-67619122D01*
X15057469Y-67403103D01*
X15093000Y-67178772D01*
X15093000Y-66966427D01*
X24907000Y-66966427D01*
X24907000Y-67193572D01*
X24942530Y-67417903D01*
X25012720Y-67633922D01*
X25115836Y-67836297D01*
X25197904Y-67949252D01*
X25197905Y-67949253D01*
X25733118Y-67414039D01*
X25807439Y-67525268D01*
X25904732Y-67622561D01*
X26015959Y-67696880D01*
X25480745Y-68232094D01*
X25593704Y-68314163D01*
X25593710Y-68314167D01*
X25796077Y-68417279D01*
X26012096Y-68487469D01*
X26236428Y-68523000D01*
X26463572Y-68523000D01*
X26687903Y-68487469D01*
X26903922Y-68417279D01*
X27106295Y-68314164D01*
X27219252Y-68232094D01*
X27219253Y-68232094D01*
X26684039Y-67696881D01*
X26795268Y-67622561D01*
X26892561Y-67525268D01*
X26966881Y-67414039D01*
X27502094Y-67949253D01*
X27502094Y-67949252D01*
X27584164Y-67836295D01*
X27687279Y-67633922D01*
X27757469Y-67417903D01*
X27793000Y-67193572D01*
X27793000Y-66966427D01*
X27757469Y-66742096D01*
X27687279Y-66526077D01*
X27584167Y-66323710D01*
X27584163Y-66323704D01*
X27502094Y-66210746D01*
X27502094Y-66210745D01*
X26966880Y-66745959D01*
X26892561Y-66634732D01*
X26795268Y-66537439D01*
X26684039Y-66463118D01*
X27219253Y-65927905D01*
X27219252Y-65927904D01*
X27106297Y-65845836D01*
X26903922Y-65742720D01*
X26687903Y-65672530D01*
X26463572Y-65637000D01*
X26236428Y-65637000D01*
X26012096Y-65672530D01*
X25796077Y-65742720D01*
X25593699Y-65845838D01*
X25480746Y-65927902D01*
X25480745Y-65927904D01*
X26015960Y-66463118D01*
X25904732Y-66537439D01*
X25807439Y-66634732D01*
X25733119Y-66745960D01*
X25197904Y-66210745D01*
X25197902Y-66210746D01*
X25115838Y-66323699D01*
X25012720Y-66526077D01*
X24942530Y-66742096D01*
X24907000Y-66966427D01*
X15093000Y-66966427D01*
X15093000Y-66951627D01*
X15057469Y-66727296D01*
X14987279Y-66511277D01*
X14884167Y-66308910D01*
X14884163Y-66308904D01*
X14802094Y-66195946D01*
X14802094Y-66195945D01*
X14266880Y-66731159D01*
X14192561Y-66619932D01*
X14095268Y-66522639D01*
X13984039Y-66448318D01*
X14519253Y-65913104D01*
X14406297Y-65831036D01*
X14203922Y-65727920D01*
X13987903Y-65657730D01*
X13763572Y-65622200D01*
X13536428Y-65622200D01*
X13312096Y-65657730D01*
X13096077Y-65727920D01*
X12893699Y-65831038D01*
X12780746Y-65913102D01*
X12780745Y-65913104D01*
X13315960Y-66448318D01*
X13204732Y-66522639D01*
X13107439Y-66619932D01*
X13033119Y-66731160D01*
X12497904Y-66195945D01*
X12497902Y-66195946D01*
X12415838Y-66308899D01*
X12312720Y-66511277D01*
X12242530Y-66727296D01*
X12207000Y-66951627D01*
X7550500Y-66951627D01*
X7550500Y-57779387D01*
X7570185Y-57712348D01*
X7586819Y-57691706D01*
X8456898Y-56821627D01*
X12207000Y-56821627D01*
X12207000Y-57048772D01*
X12242530Y-57273103D01*
X12312719Y-57489120D01*
X12415836Y-57691497D01*
X12497904Y-57804452D01*
X12497905Y-57804453D01*
X13033118Y-57269239D01*
X13107439Y-57380468D01*
X13204732Y-57477761D01*
X13315959Y-57552080D01*
X12780745Y-58087294D01*
X12893704Y-58169363D01*
X12893710Y-58169367D01*
X13096077Y-58272479D01*
X13312096Y-58342669D01*
X13536428Y-58378200D01*
X13763572Y-58378200D01*
X13987903Y-58342669D01*
X14203922Y-58272479D01*
X14406295Y-58169364D01*
X14519252Y-58087294D01*
X14519253Y-58087294D01*
X13984039Y-57552081D01*
X14095268Y-57477761D01*
X14192561Y-57380468D01*
X14266881Y-57269239D01*
X14802094Y-57804453D01*
X14802094Y-57804452D01*
X14884164Y-57691495D01*
X14987281Y-57489120D01*
X15057469Y-57273103D01*
X15093000Y-57048772D01*
X15093000Y-56821627D01*
X15057469Y-56597296D01*
X14987279Y-56381277D01*
X14884167Y-56178910D01*
X14884163Y-56178904D01*
X14802094Y-56065946D01*
X14802094Y-56065945D01*
X14266880Y-56601159D01*
X14192561Y-56489932D01*
X14095268Y-56392639D01*
X13984039Y-56318318D01*
X14519253Y-55783105D01*
X14519252Y-55783104D01*
X14406297Y-55701036D01*
X14203922Y-55597920D01*
X13987903Y-55527730D01*
X13763572Y-55492200D01*
X13536428Y-55492200D01*
X13312096Y-55527730D01*
X13096077Y-55597920D01*
X12893699Y-55701038D01*
X12780746Y-55783102D01*
X12780745Y-55783104D01*
X13315960Y-56318318D01*
X13204732Y-56392639D01*
X13107439Y-56489932D01*
X13033119Y-56601160D01*
X12497904Y-56065945D01*
X12497902Y-56065946D01*
X12415838Y-56178899D01*
X12312720Y-56381277D01*
X12242530Y-56597296D01*
X12207000Y-56821627D01*
X8456898Y-56821627D01*
X10691706Y-54586819D01*
X10753029Y-54553334D01*
X10779387Y-54550500D01*
X14420413Y-54550500D01*
X14487452Y-54570185D01*
X14508094Y-54586819D01*
X15596672Y-55675397D01*
X15630157Y-55736720D01*
X15626922Y-55801396D01*
X15616020Y-55834946D01*
X15616020Y-55834949D01*
X15585500Y-56027643D01*
X15585500Y-56222756D01*
X15616019Y-56415450D01*
X15676311Y-56601007D01*
X15761160Y-56767532D01*
X15764884Y-56774840D01*
X15879562Y-56932680D01*
X16017520Y-57070638D01*
X16175360Y-57185316D01*
X16239589Y-57218042D01*
X16349192Y-57273888D01*
X16349194Y-57273888D01*
X16349197Y-57273890D01*
X16448657Y-57306206D01*
X16534749Y-57334180D01*
X16727444Y-57364700D01*
X16727449Y-57364700D01*
X16922556Y-57364700D01*
X17115250Y-57334180D01*
X17141964Y-57325500D01*
X17300803Y-57273890D01*
X17474640Y-57185316D01*
X17632480Y-57070638D01*
X17770438Y-56932680D01*
X17885116Y-56774840D01*
X17973690Y-56601003D01*
X18033980Y-56415450D01*
X18064500Y-56222756D01*
X18064500Y-56047643D01*
X21945500Y-56047643D01*
X21945500Y-56242756D01*
X21976019Y-56435450D01*
X22036311Y-56621007D01*
X22117892Y-56781118D01*
X22124884Y-56794840D01*
X22239562Y-56952680D01*
X22377520Y-57090638D01*
X22535360Y-57205316D01*
X22585719Y-57230975D01*
X22709192Y-57293888D01*
X22709194Y-57293888D01*
X22709197Y-57293890D01*
X22750746Y-57307390D01*
X22894749Y-57354180D01*
X23087444Y-57384700D01*
X23087449Y-57384700D01*
X23282556Y-57384700D01*
X23475250Y-57354180D01*
X23660803Y-57293890D01*
X23834640Y-57205316D01*
X23992480Y-57090638D01*
X24130438Y-56952680D01*
X24245116Y-56794840D01*
X24333690Y-56621003D01*
X24393980Y-56435450D01*
X24398721Y-56405519D01*
X24424500Y-56242756D01*
X24424500Y-56047643D01*
X24393980Y-55854949D01*
X24339031Y-55685836D01*
X24333690Y-55669397D01*
X24333688Y-55669394D01*
X24333688Y-55669392D01*
X24261507Y-55527730D01*
X24245116Y-55495560D01*
X24130438Y-55337720D01*
X23992480Y-55199762D01*
X23834640Y-55085084D01*
X23795388Y-55065084D01*
X23660807Y-54996511D01*
X23475250Y-54936219D01*
X23282556Y-54905700D01*
X23282551Y-54905700D01*
X23087449Y-54905700D01*
X23087444Y-54905700D01*
X22894749Y-54936219D01*
X22709192Y-54996511D01*
X22535359Y-55085084D01*
X22445305Y-55150512D01*
X22377520Y-55199762D01*
X22377518Y-55199764D01*
X22377517Y-55199764D01*
X22239564Y-55337717D01*
X22239564Y-55337718D01*
X22239562Y-55337720D01*
X22203429Y-55387453D01*
X22124884Y-55495559D01*
X22036311Y-55669392D01*
X21976019Y-55854949D01*
X21945500Y-56047643D01*
X18064500Y-56047643D01*
X18064500Y-56027643D01*
X18033980Y-55834949D01*
X17990469Y-55701038D01*
X17973690Y-55649397D01*
X17973688Y-55649394D01*
X17973688Y-55649392D01*
X17905941Y-55516432D01*
X17885116Y-55475560D01*
X17770438Y-55317720D01*
X17632480Y-55179762D01*
X17474640Y-55065084D01*
X17300807Y-54976511D01*
X17115250Y-54916219D01*
X16922556Y-54885700D01*
X16922551Y-54885700D01*
X16727449Y-54885700D01*
X16727444Y-54885700D01*
X16534749Y-54916220D01*
X16534746Y-54916220D01*
X16501196Y-54927122D01*
X16431355Y-54929117D01*
X16375197Y-54896872D01*
X15037816Y-53559491D01*
X15037815Y-53559490D01*
X14912285Y-53487016D01*
X14912286Y-53487016D01*
X14877282Y-53477637D01*
X14772275Y-53449500D01*
X10427525Y-53449500D01*
X10322517Y-53477637D01*
X10287514Y-53487016D01*
X10161986Y-53559489D01*
X10161983Y-53559491D01*
X6559491Y-57161983D01*
X6559489Y-57161986D01*
X6517144Y-57235330D01*
X6517143Y-57235332D01*
X6510813Y-57246297D01*
X6487016Y-57287515D01*
X6449500Y-57427525D01*
X1500000Y-57427525D01*
X1500000Y-51091618D01*
X15636000Y-51091618D01*
X15636000Y-51278781D01*
X15665277Y-51463626D01*
X15723108Y-51641615D01*
X15808076Y-51808372D01*
X15854747Y-51872608D01*
X15854748Y-51872609D01*
X16397804Y-51329552D01*
X16405667Y-51358894D01*
X16464910Y-51461506D01*
X16548694Y-51545290D01*
X16651306Y-51604533D01*
X16680646Y-51612394D01*
X16137589Y-52155451D01*
X16201827Y-52202123D01*
X16368584Y-52287091D01*
X16546573Y-52344922D01*
X16731419Y-52374200D01*
X16918581Y-52374200D01*
X17103426Y-52344922D01*
X17281415Y-52287091D01*
X17448172Y-52202123D01*
X17512409Y-52155451D01*
X16969353Y-51612394D01*
X16998694Y-51604533D01*
X17101306Y-51545290D01*
X17185090Y-51461506D01*
X17244333Y-51358894D01*
X17252194Y-51329553D01*
X17795250Y-51872609D01*
X17795251Y-51872608D01*
X17841923Y-51808372D01*
X17926891Y-51641615D01*
X17984722Y-51463626D01*
X18014000Y-51278781D01*
X18014000Y-51111418D01*
X21986000Y-51111418D01*
X21986000Y-51298581D01*
X22015277Y-51483426D01*
X22073108Y-51661415D01*
X22158076Y-51828172D01*
X22204747Y-51892408D01*
X22204748Y-51892409D01*
X22747804Y-51349352D01*
X22755667Y-51378694D01*
X22814910Y-51481306D01*
X22898694Y-51565090D01*
X23001306Y-51624333D01*
X23030646Y-51632194D01*
X22487589Y-52175251D01*
X22551827Y-52221923D01*
X22718584Y-52306891D01*
X22896573Y-52364722D01*
X23081419Y-52394000D01*
X23268581Y-52394000D01*
X23453426Y-52364722D01*
X23631415Y-52306891D01*
X23798172Y-52221923D01*
X23862408Y-52175251D01*
X23862409Y-52175250D01*
X23319353Y-51632194D01*
X23348694Y-51624333D01*
X23451306Y-51565090D01*
X23535090Y-51481306D01*
X23594333Y-51378694D01*
X23602194Y-51349353D01*
X24145250Y-51892409D01*
X24145251Y-51892408D01*
X24191923Y-51828172D01*
X24276891Y-51661415D01*
X24334722Y-51483426D01*
X24364000Y-51298581D01*
X24364000Y-51111418D01*
X24334722Y-50926573D01*
X24276891Y-50748584D01*
X24191923Y-50581827D01*
X24145251Y-50517590D01*
X24145251Y-50517589D01*
X23602194Y-51060646D01*
X23594333Y-51031306D01*
X23535090Y-50928694D01*
X23451306Y-50844910D01*
X23348694Y-50785667D01*
X23319352Y-50777804D01*
X23862409Y-50234748D01*
X23862408Y-50234747D01*
X23798172Y-50188076D01*
X23631415Y-50103108D01*
X23453426Y-50045277D01*
X23268581Y-50016000D01*
X23081419Y-50016000D01*
X22896573Y-50045277D01*
X22718584Y-50103108D01*
X22551831Y-50188074D01*
X22487590Y-50234747D01*
X23030647Y-50777804D01*
X23001306Y-50785667D01*
X22898694Y-50844910D01*
X22814910Y-50928694D01*
X22755667Y-51031306D01*
X22747804Y-51060647D01*
X22204747Y-50517590D01*
X22158074Y-50581831D01*
X22073108Y-50748584D01*
X22015277Y-50926573D01*
X21986000Y-51111418D01*
X18014000Y-51111418D01*
X18014000Y-51091618D01*
X17984722Y-50906773D01*
X17926891Y-50728784D01*
X17841923Y-50562027D01*
X17795251Y-50497790D01*
X17795251Y-50497789D01*
X17252194Y-51040846D01*
X17244333Y-51011506D01*
X17185090Y-50908894D01*
X17101306Y-50825110D01*
X16998694Y-50765867D01*
X16969352Y-50758004D01*
X17512409Y-50214947D01*
X17448172Y-50168276D01*
X17281415Y-50083308D01*
X17103426Y-50025477D01*
X16918581Y-49996200D01*
X16731419Y-49996200D01*
X16546573Y-50025477D01*
X16368584Y-50083308D01*
X16201831Y-50168274D01*
X16137590Y-50214947D01*
X16680647Y-50758004D01*
X16651306Y-50765867D01*
X16548694Y-50825110D01*
X16464910Y-50908894D01*
X16405667Y-51011506D01*
X16397804Y-51040847D01*
X15854747Y-50497790D01*
X15808074Y-50562031D01*
X15723108Y-50728784D01*
X15665277Y-50906773D01*
X15636000Y-51091618D01*
X1500000Y-51091618D01*
X1500000Y-18445513D01*
X10799500Y-18445513D01*
X10799500Y-18634486D01*
X10829059Y-18821118D01*
X10887454Y-19000836D01*
X10973240Y-19169199D01*
X11084310Y-19322073D01*
X11217927Y-19455690D01*
X11370801Y-19566760D01*
X11450347Y-19607290D01*
X11539163Y-19652545D01*
X11539165Y-19652545D01*
X11539168Y-19652547D01*
X11628734Y-19681649D01*
X11660803Y-19692069D01*
X11718478Y-19731507D01*
X11745676Y-19795866D01*
X11733761Y-19864712D01*
X11686516Y-19916188D01*
X11660803Y-19927931D01*
X11539163Y-19967454D01*
X11370800Y-20053240D01*
X11283579Y-20116610D01*
X11217927Y-20164310D01*
X11217925Y-20164312D01*
X11217924Y-20164312D01*
X11084312Y-20297924D01*
X11084312Y-20297925D01*
X11084310Y-20297927D01*
X11036610Y-20363579D01*
X10973240Y-20450800D01*
X10887454Y-20619163D01*
X10829059Y-20798881D01*
X10799500Y-20985513D01*
X10799500Y-21174486D01*
X10829059Y-21361118D01*
X10887454Y-21540836D01*
X10973240Y-21709199D01*
X11084310Y-21862073D01*
X11217927Y-21995690D01*
X11370801Y-22106760D01*
X11450347Y-22147290D01*
X11539163Y-22192545D01*
X11539165Y-22192545D01*
X11539168Y-22192547D01*
X11628734Y-22221649D01*
X11660803Y-22232069D01*
X11718478Y-22271507D01*
X11745676Y-22335866D01*
X11733761Y-22404712D01*
X11686516Y-22456188D01*
X11660803Y-22467931D01*
X11539163Y-22507454D01*
X11370800Y-22593240D01*
X11283579Y-22656610D01*
X11217927Y-22704310D01*
X11217925Y-22704312D01*
X11217924Y-22704312D01*
X11084312Y-22837924D01*
X11084312Y-22837925D01*
X11084310Y-22837927D01*
X11036610Y-22903579D01*
X10973240Y-22990800D01*
X10887454Y-23159163D01*
X10829059Y-23338881D01*
X10799500Y-23525513D01*
X10799500Y-23714486D01*
X10829059Y-23901118D01*
X10887454Y-24080836D01*
X10973240Y-24249199D01*
X11084310Y-24402073D01*
X11217927Y-24535690D01*
X11370801Y-24646760D01*
X11450347Y-24687290D01*
X11539163Y-24732545D01*
X11539165Y-24732545D01*
X11539168Y-24732547D01*
X11635497Y-24763846D01*
X11718881Y-24790940D01*
X11905514Y-24820500D01*
X11905519Y-24820500D01*
X12094486Y-24820500D01*
X12281118Y-24790940D01*
X12460832Y-24732547D01*
X12629199Y-24646760D01*
X12782073Y-24535690D01*
X12915690Y-24402073D01*
X13026760Y-24249199D01*
X13112547Y-24080832D01*
X13152069Y-23959195D01*
X13191507Y-23901521D01*
X13255866Y-23874323D01*
X13324712Y-23886238D01*
X13376188Y-23933482D01*
X13387931Y-23959196D01*
X13427454Y-24080836D01*
X13513240Y-24249199D01*
X13624310Y-24402073D01*
X13757927Y-24535690D01*
X13910801Y-24646760D01*
X13990347Y-24687290D01*
X14079163Y-24732545D01*
X14079165Y-24732545D01*
X14079168Y-24732547D01*
X14175497Y-24763846D01*
X14258881Y-24790940D01*
X14445514Y-24820500D01*
X14445519Y-24820500D01*
X14634486Y-24820500D01*
X14821118Y-24790940D01*
X15000832Y-24732547D01*
X15169199Y-24646760D01*
X15322073Y-24535690D01*
X15455690Y-24402073D01*
X15566760Y-24249199D01*
X15652547Y-24080832D01*
X15710940Y-23901118D01*
X15715184Y-23874323D01*
X15740500Y-23714486D01*
X15740500Y-23525513D01*
X15710940Y-23338881D01*
X15652545Y-23159163D01*
X15566759Y-22990800D01*
X15455690Y-22837927D01*
X15322073Y-22704310D01*
X15169199Y-22593240D01*
X15000836Y-22507454D01*
X14926472Y-22483291D01*
X14879195Y-22467930D01*
X14821521Y-22428493D01*
X14794323Y-22364134D01*
X14806238Y-22295288D01*
X14853482Y-22243812D01*
X14879194Y-22232069D01*
X15000832Y-22192547D01*
X15169199Y-22106760D01*
X15322073Y-21995690D01*
X15455690Y-21862073D01*
X15566760Y-21709199D01*
X15652547Y-21540832D01*
X15710940Y-21361118D01*
X15715184Y-21334323D01*
X15740500Y-21174486D01*
X15740500Y-20985513D01*
X15710940Y-20798881D01*
X15652545Y-20619163D01*
X15566759Y-20450800D01*
X15455690Y-20297927D01*
X15322073Y-20164310D01*
X15169199Y-20053240D01*
X15000836Y-19967454D01*
X14894883Y-19933028D01*
X14879195Y-19927930D01*
X14821521Y-19888493D01*
X14794323Y-19824134D01*
X14806238Y-19755288D01*
X14853482Y-19703812D01*
X14879194Y-19692069D01*
X15000832Y-19652547D01*
X15169199Y-19566760D01*
X15322073Y-19455690D01*
X15455690Y-19322073D01*
X15566760Y-19169199D01*
X15652547Y-19000832D01*
X15710940Y-18821118D01*
X15715184Y-18794323D01*
X15740500Y-18634486D01*
X15740500Y-18445513D01*
X15710940Y-18258881D01*
X15652545Y-18079163D01*
X15566759Y-17910800D01*
X15455690Y-17757927D01*
X15322073Y-17624310D01*
X15169199Y-17513240D01*
X15000836Y-17427454D01*
X14891501Y-17391929D01*
X14879195Y-17387930D01*
X14821521Y-17348493D01*
X14794323Y-17284134D01*
X14806238Y-17215288D01*
X14853482Y-17163812D01*
X14879194Y-17152069D01*
X15000832Y-17112547D01*
X15169199Y-17026760D01*
X15322073Y-16915690D01*
X15455690Y-16782073D01*
X15566760Y-16629199D01*
X15652547Y-16460832D01*
X15710940Y-16281118D01*
X15713297Y-16266238D01*
X15740500Y-16094486D01*
X15740500Y-15905513D01*
X15710940Y-15718881D01*
X15664248Y-15575181D01*
X15652547Y-15539168D01*
X15652545Y-15539165D01*
X15652545Y-15539163D01*
X15607290Y-15450347D01*
X15566760Y-15370801D01*
X15455690Y-15217927D01*
X15322073Y-15084310D01*
X15169199Y-14973240D01*
X15158197Y-14967634D01*
X15000836Y-14887454D01*
X14821118Y-14829059D01*
X14634486Y-14799500D01*
X14634481Y-14799500D01*
X14445519Y-14799500D01*
X14445514Y-14799500D01*
X14258881Y-14829059D01*
X14079163Y-14887454D01*
X13910800Y-14973240D01*
X13851350Y-15016434D01*
X13757927Y-15084310D01*
X13757925Y-15084312D01*
X13757924Y-15084312D01*
X13624312Y-15217924D01*
X13624312Y-15217925D01*
X13624310Y-15217927D01*
X13576610Y-15283579D01*
X13513240Y-15370800D01*
X13427454Y-15539163D01*
X13391930Y-15648495D01*
X13352492Y-15706170D01*
X13288133Y-15733368D01*
X13219287Y-15721453D01*
X13167811Y-15674208D01*
X13149999Y-15610176D01*
X13149999Y-15105214D01*
X13149997Y-15105191D01*
X13147091Y-15080130D01*
X13147090Y-15080126D01*
X13101788Y-14977525D01*
X13101785Y-14977520D01*
X13022479Y-14898214D01*
X13022474Y-14898211D01*
X12919876Y-14852910D01*
X12894794Y-14850000D01*
X12200000Y-14850000D01*
X12200000Y-15538120D01*
X12192993Y-15534075D01*
X12065826Y-15500000D01*
X11934174Y-15500000D01*
X11807007Y-15534075D01*
X11800000Y-15538120D01*
X11800000Y-14850000D01*
X11105214Y-14850000D01*
X11105191Y-14850002D01*
X11080130Y-14852908D01*
X11080126Y-14852909D01*
X10977525Y-14898211D01*
X10977520Y-14898214D01*
X10898214Y-14977520D01*
X10898211Y-14977525D01*
X10852910Y-15080122D01*
X10852910Y-15080124D01*
X10850000Y-15105205D01*
X10850000Y-15800000D01*
X11538120Y-15800000D01*
X11534075Y-15807007D01*
X11500000Y-15934174D01*
X11500000Y-16065826D01*
X11534075Y-16192993D01*
X11538120Y-16200000D01*
X10850001Y-16200000D01*
X10850001Y-16894785D01*
X10850002Y-16894808D01*
X10852908Y-16919869D01*
X10852909Y-16919873D01*
X10898211Y-17022474D01*
X10898214Y-17022479D01*
X10977520Y-17101785D01*
X10977525Y-17101788D01*
X11080123Y-17147089D01*
X11105206Y-17149999D01*
X11610174Y-17149999D01*
X11677213Y-17169683D01*
X11722968Y-17222487D01*
X11732912Y-17291646D01*
X11703887Y-17355202D01*
X11648494Y-17391929D01*
X11539167Y-17427452D01*
X11370800Y-17513240D01*
X11283579Y-17576610D01*
X11217927Y-17624310D01*
X11217925Y-17624312D01*
X11217924Y-17624312D01*
X11084312Y-17757924D01*
X11084312Y-17757925D01*
X11084310Y-17757927D01*
X11062814Y-17787514D01*
X10973240Y-17910800D01*
X10887454Y-18079163D01*
X10829059Y-18258881D01*
X10799500Y-18445513D01*
X1500000Y-18445513D01*
X1500000Y-4381995D01*
X2699500Y-4381995D01*
X2699500Y-4618004D01*
X2699501Y-4618020D01*
X2730306Y-4852010D01*
X2791394Y-5079993D01*
X2881714Y-5298045D01*
X2881719Y-5298056D01*
X2952677Y-5420957D01*
X2999727Y-5502450D01*
X2999729Y-5502453D01*
X2999730Y-5502454D01*
X3143406Y-5689697D01*
X3143412Y-5689704D01*
X3310295Y-5856587D01*
X3310301Y-5856592D01*
X3497550Y-6000273D01*
X3628918Y-6076118D01*
X3701943Y-6118280D01*
X3701948Y-6118282D01*
X3701951Y-6118284D01*
X3920007Y-6208606D01*
X4147986Y-6269693D01*
X4381989Y-6300500D01*
X4381996Y-6300500D01*
X4618004Y-6300500D01*
X4618011Y-6300500D01*
X4852014Y-6269693D01*
X5079993Y-6208606D01*
X5298049Y-6118284D01*
X5502450Y-6000273D01*
X5689699Y-5856592D01*
X5856592Y-5689699D01*
X6000273Y-5502450D01*
X6118284Y-5298049D01*
X6208606Y-5079993D01*
X6269693Y-4852014D01*
X6300500Y-4618011D01*
X6300500Y-4381995D01*
X93699500Y-4381995D01*
X93699500Y-4618004D01*
X93699501Y-4618020D01*
X93730306Y-4852010D01*
X93791394Y-5079993D01*
X93881714Y-5298045D01*
X93881719Y-5298056D01*
X93952677Y-5420957D01*
X93999727Y-5502450D01*
X93999729Y-5502453D01*
X93999730Y-5502454D01*
X94143406Y-5689697D01*
X94143412Y-5689704D01*
X94310295Y-5856587D01*
X94310301Y-5856592D01*
X94497550Y-6000273D01*
X94628918Y-6076118D01*
X94701943Y-6118280D01*
X94701948Y-6118282D01*
X94701951Y-6118284D01*
X94920007Y-6208606D01*
X95147986Y-6269693D01*
X95381989Y-6300500D01*
X95381996Y-6300500D01*
X95618004Y-6300500D01*
X95618011Y-6300500D01*
X95852014Y-6269693D01*
X96079993Y-6208606D01*
X96298049Y-6118284D01*
X96502450Y-6000273D01*
X96689699Y-5856592D01*
X96856592Y-5689699D01*
X97000273Y-5502450D01*
X97118284Y-5298049D01*
X97208606Y-5079993D01*
X97269693Y-4852014D01*
X97300500Y-4618011D01*
X97300500Y-4381989D01*
X97269693Y-4147986D01*
X97208606Y-3920007D01*
X97118284Y-3701951D01*
X97118282Y-3701948D01*
X97118280Y-3701943D01*
X97076118Y-3628918D01*
X97000273Y-3497550D01*
X96856592Y-3310301D01*
X96856587Y-3310295D01*
X96689704Y-3143412D01*
X96689697Y-3143406D01*
X96502454Y-2999730D01*
X96502453Y-2999729D01*
X96502450Y-2999727D01*
X96420957Y-2952677D01*
X96298056Y-2881719D01*
X96298045Y-2881714D01*
X96079993Y-2791394D01*
X95852010Y-2730306D01*
X95618020Y-2699501D01*
X95618017Y-2699500D01*
X95618011Y-2699500D01*
X95381989Y-2699500D01*
X95381983Y-2699500D01*
X95381979Y-2699501D01*
X95147989Y-2730306D01*
X94920006Y-2791394D01*
X94701954Y-2881714D01*
X94701943Y-2881719D01*
X94497545Y-2999730D01*
X94310302Y-3143406D01*
X94310295Y-3143412D01*
X94143412Y-3310295D01*
X94143406Y-3310302D01*
X93999730Y-3497545D01*
X93881719Y-3701943D01*
X93881714Y-3701954D01*
X93791394Y-3920006D01*
X93730306Y-4147989D01*
X93699501Y-4381979D01*
X93699500Y-4381995D01*
X6300500Y-4381995D01*
X6300500Y-4381989D01*
X6269693Y-4147986D01*
X6208606Y-3920007D01*
X6118284Y-3701951D01*
X6118282Y-3701948D01*
X6118280Y-3701943D01*
X6076118Y-3628918D01*
X6000273Y-3497550D01*
X5856592Y-3310301D01*
X5856587Y-3310295D01*
X5689704Y-3143412D01*
X5689697Y-3143406D01*
X5502454Y-2999730D01*
X5502453Y-2999729D01*
X5502450Y-2999727D01*
X5420957Y-2952677D01*
X5298056Y-2881719D01*
X5298045Y-2881714D01*
X5079993Y-2791394D01*
X4852010Y-2730306D01*
X4618020Y-2699501D01*
X4618017Y-2699500D01*
X4618011Y-2699500D01*
X4381989Y-2699500D01*
X4381983Y-2699500D01*
X4381979Y-2699501D01*
X4147989Y-2730306D01*
X3920006Y-2791394D01*
X3701954Y-2881714D01*
X3701943Y-2881719D01*
X3497545Y-2999730D01*
X3310302Y-3143406D01*
X3310295Y-3143412D01*
X3143412Y-3310295D01*
X3143406Y-3310302D01*
X2999730Y-3497545D01*
X2881719Y-3701943D01*
X2881714Y-3701954D01*
X2791394Y-3920006D01*
X2730306Y-4147989D01*
X2699501Y-4381979D01*
X2699500Y-4381995D01*
X1500000Y-4381995D01*
X1500000Y-1624000D01*
X1519685Y-1556961D01*
X1572489Y-1511206D01*
X1624000Y-1500000D01*
X98376000Y-1500000D01*
X98443039Y-1519685D01*
G37*
%TD.AperFunction*%
%TD*%
M02*
