M48
; DRILL file KiCad 10.0.6 date 2026-10-06T22:51:23
; FORMAT={-:-/ absolute / metric / decimal}
; #@! TF.CreationDate,2026-10-06T22:51:23+01:00
; #@! TF.GenerationSoftware,Kicad,Pcbnew,10.0.6
; #@! TF.FileFunction,MixedPlating,1,2
FMAT,2
METRIC
; #@! TA.AperFunction,Plated,PTH,ViaDrill
T1C0.400
; #@! TA.AperFunction,Plated,PTH,ComponentDrill
T2C0.889
; #@! TA.AperFunction,Plated,PTH,ComponentDrill
T3C0.900
; #@! TA.AperFunction,Plated,PTH,ComponentDrill
T4C1.000
; #@! TA.AperFunction,Plated,PTH,ComponentDrill
T5C1.397
; #@! TA.AperFunction,NonPlated,NPTH,ComponentDrill
T6C3.200
%
G90
G05
T1
X25.0Y-18.5
X25.5Y-13.5
X31.0Y-62.0
X31.5Y-19.0
X31.5Y-25.5
X37.54Y-26.0
X38.0Y-28.5
X40.5Y-20.5
X41.0Y-29.0
X43.0Y-44.5
X44.5Y-19.0
X46.5Y-38.5
X61.0Y-17.5
X80.0Y-25.0
X81.5Y-64.5
X84.5Y-68.0
X89.0Y-58.5
T2
X11.095Y-61.985
X11.095Y-64.525
X11.11Y-59.46
X17.475Y-70.875
X20.015Y-70.895
X22.555Y-70.875
T3
X16.825Y-51.185
X16.825Y-56.125
X23.175Y-51.205
X23.185Y-56.145
T4
X12.0Y-16.0
X12.0Y-18.54
X12.0Y-21.08
X12.0Y-23.62
X14.54Y-16.0
X14.54Y-18.54
X14.54Y-21.08
X14.54Y-23.62
X35.0Y-16.0
X35.0Y-33.78
X37.54Y-16.0
X37.54Y-33.78
X40.08Y-16.0
X40.08Y-33.78
X42.0Y-58.0
X42.0Y-60.54
X42.0Y-63.08
X42.0Y-65.62
X42.62Y-16.0
X42.62Y-33.78
X44.0Y-76.0
X45.16Y-16.0
X45.16Y-33.78
X46.54Y-76.0
X47.7Y-16.0
X47.7Y-33.78
X50.24Y-16.0
X50.24Y-33.78
X52.78Y-16.0
X52.78Y-33.78
X55.32Y-16.0
X55.32Y-33.78
X65.5Y-44.23
X65.5Y-46.77
X82.0Y-16.0
X82.0Y-18.54
X82.0Y-21.08
X82.0Y-23.62
X82.0Y-26.16
X82.0Y-28.7
X82.0Y-31.24
X87.96Y-51.5
X87.96Y-56.5
X87.96Y-61.0
X87.96Y-66.0
X88.0Y-70.5
X88.0Y-76.0
X90.5Y-51.5
X90.5Y-56.5
X90.5Y-61.0
X90.5Y-66.0
X90.54Y-70.5
X90.54Y-76.0
X93.04Y-51.5
X93.04Y-56.5
X93.04Y-61.0
X93.04Y-66.0
X93.08Y-70.5
T5
X13.65Y-56.935
X13.65Y-67.065
X26.35Y-56.92
X26.35Y-67.08
T6
X4.5Y-4.5
X4.5Y-80.5
X95.5Y-4.5
X95.5Y-80.5
M30
