%TF.GenerationSoftware,KiCad,Pcbnew,10.0.6*%
%TF.CreationDate,2026-10-08T17:15:46+01:00*%
%TF.ProjectId,Universal_Carrier,556e6976-6572-4736-916c-5f4361727269,V4.1 - Zero DRC Parity Clean*%
%TF.SameCoordinates,Original*%
%TF.FileFunction,AssemblyDrawing,Top*%
%FSLAX46Y46*%
G04 Gerber Fmt 4.6, Leading zero omitted, Abs format (unit mm)*
G04 Created by KiCad (PCBNEW 10.0.6) date 2026-10-08 17:15:46*
%MOMM*%
%LPD*%
G01*
G04 APERTURE LIST*
%ADD10C,0.140000*%
G04 APERTURE END LIST*
D10*
X78964286Y-27551934D02*
X78878572Y-27509077D01*
X78878572Y-27509077D02*
X78750000Y-27509077D01*
X78750000Y-27509077D02*
X78621429Y-27551934D01*
X78621429Y-27551934D02*
X78535714Y-27637648D01*
X78535714Y-27637648D02*
X78492857Y-27723362D01*
X78492857Y-27723362D02*
X78450000Y-27894791D01*
X78450000Y-27894791D02*
X78450000Y-28023362D01*
X78450000Y-28023362D02*
X78492857Y-28194791D01*
X78492857Y-28194791D02*
X78535714Y-28280505D01*
X78535714Y-28280505D02*
X78621429Y-28366220D01*
X78621429Y-28366220D02*
X78750000Y-28409077D01*
X78750000Y-28409077D02*
X78835714Y-28409077D01*
X78835714Y-28409077D02*
X78964286Y-28366220D01*
X78964286Y-28366220D02*
X79007143Y-28323362D01*
X79007143Y-28323362D02*
X79007143Y-28023362D01*
X79007143Y-28023362D02*
X78835714Y-28023362D01*
X79392857Y-28409077D02*
X79392857Y-27509077D01*
X79392857Y-27509077D02*
X79735714Y-27509077D01*
X79735714Y-27509077D02*
X79821429Y-27551934D01*
X79821429Y-27551934D02*
X79864286Y-27594791D01*
X79864286Y-27594791D02*
X79907143Y-27680505D01*
X79907143Y-27680505D02*
X79907143Y-27809077D01*
X79907143Y-27809077D02*
X79864286Y-27894791D01*
X79864286Y-27894791D02*
X79821429Y-27937648D01*
X79821429Y-27937648D02*
X79735714Y-27980505D01*
X79735714Y-27980505D02*
X79392857Y-27980505D01*
X80250000Y-28366220D02*
X80378572Y-28409077D01*
X80378572Y-28409077D02*
X80592857Y-28409077D01*
X80592857Y-28409077D02*
X80678572Y-28366220D01*
X80678572Y-28366220D02*
X80721429Y-28323362D01*
X80721429Y-28323362D02*
X80764286Y-28237648D01*
X80764286Y-28237648D02*
X80764286Y-28151934D01*
X80764286Y-28151934D02*
X80721429Y-28066220D01*
X80721429Y-28066220D02*
X80678572Y-28023362D01*
X80678572Y-28023362D02*
X80592857Y-27980505D01*
X80592857Y-27980505D02*
X80421429Y-27937648D01*
X80421429Y-27937648D02*
X80335714Y-27894791D01*
X80335714Y-27894791D02*
X80292857Y-27851934D01*
X80292857Y-27851934D02*
X80250000Y-27766220D01*
X80250000Y-27766220D02*
X80250000Y-27680505D01*
X80250000Y-27680505D02*
X80292857Y-27594791D01*
X80292857Y-27594791D02*
X80335714Y-27551934D01*
X80335714Y-27551934D02*
X80421429Y-27509077D01*
X80421429Y-27509077D02*
X80635714Y-27509077D01*
X80635714Y-27509077D02*
X80764286Y-27551934D01*
X80935715Y-28494791D02*
X81621429Y-28494791D01*
X82264286Y-28409077D02*
X81835714Y-28409077D01*
X81835714Y-28409077D02*
X81835714Y-27509077D01*
X83078571Y-28323362D02*
X83035714Y-28366220D01*
X83035714Y-28366220D02*
X82907142Y-28409077D01*
X82907142Y-28409077D02*
X82821428Y-28409077D01*
X82821428Y-28409077D02*
X82692857Y-28366220D01*
X82692857Y-28366220D02*
X82607142Y-28280505D01*
X82607142Y-28280505D02*
X82564285Y-28194791D01*
X82564285Y-28194791D02*
X82521428Y-28023362D01*
X82521428Y-28023362D02*
X82521428Y-27894791D01*
X82521428Y-27894791D02*
X82564285Y-27723362D01*
X82564285Y-27723362D02*
X82607142Y-27637648D01*
X82607142Y-27637648D02*
X82692857Y-27551934D01*
X82692857Y-27551934D02*
X82821428Y-27509077D01*
X82821428Y-27509077D02*
X82907142Y-27509077D01*
X82907142Y-27509077D02*
X83035714Y-27551934D01*
X83035714Y-27551934D02*
X83078571Y-27594791D01*
X83421428Y-27594791D02*
X83464285Y-27551934D01*
X83464285Y-27551934D02*
X83550000Y-27509077D01*
X83550000Y-27509077D02*
X83764285Y-27509077D01*
X83764285Y-27509077D02*
X83850000Y-27551934D01*
X83850000Y-27551934D02*
X83892857Y-27594791D01*
X83892857Y-27594791D02*
X83935714Y-27680505D01*
X83935714Y-27680505D02*
X83935714Y-27766220D01*
X83935714Y-27766220D02*
X83892857Y-27894791D01*
X83892857Y-27894791D02*
X83378571Y-28409077D01*
X83378571Y-28409077D02*
X83935714Y-28409077D01*
X84364285Y-28409077D02*
X84535714Y-28409077D01*
X84535714Y-28409077D02*
X84621428Y-28366220D01*
X84621428Y-28366220D02*
X84664285Y-28323362D01*
X84664285Y-28323362D02*
X84750000Y-28194791D01*
X84750000Y-28194791D02*
X84792857Y-28023362D01*
X84792857Y-28023362D02*
X84792857Y-27680505D01*
X84792857Y-27680505D02*
X84750000Y-27594791D01*
X84750000Y-27594791D02*
X84707143Y-27551934D01*
X84707143Y-27551934D02*
X84621428Y-27509077D01*
X84621428Y-27509077D02*
X84450000Y-27509077D01*
X84450000Y-27509077D02*
X84364285Y-27551934D01*
X84364285Y-27551934D02*
X84321428Y-27594791D01*
X84321428Y-27594791D02*
X84278571Y-27680505D01*
X84278571Y-27680505D02*
X84278571Y-27894791D01*
X84278571Y-27894791D02*
X84321428Y-27980505D01*
X84321428Y-27980505D02*
X84364285Y-28023362D01*
X84364285Y-28023362D02*
X84450000Y-28066220D01*
X84450000Y-28066220D02*
X84621428Y-28066220D01*
X84621428Y-28066220D02*
X84707143Y-28023362D01*
X84707143Y-28023362D02*
X84750000Y-27980505D01*
X84750000Y-27980505D02*
X84792857Y-27894791D01*
X85178571Y-28409077D02*
X85178571Y-27509077D01*
X85178571Y-27937648D02*
X85692857Y-27937648D01*
X85692857Y-28409077D02*
X85692857Y-27509077D01*
X85907143Y-28494791D02*
X86592857Y-28494791D01*
X86721428Y-27509077D02*
X87321428Y-27509077D01*
X87321428Y-27509077D02*
X86935714Y-28409077D01*
X87664285Y-28409077D02*
X87664285Y-27509077D01*
X87664285Y-27509077D02*
X88007142Y-27509077D01*
X88007142Y-27509077D02*
X88092857Y-27551934D01*
X88092857Y-27551934D02*
X88135714Y-27594791D01*
X88135714Y-27594791D02*
X88178571Y-27680505D01*
X88178571Y-27680505D02*
X88178571Y-27809077D01*
X88178571Y-27809077D02*
X88135714Y-27894791D01*
X88135714Y-27894791D02*
X88092857Y-27937648D01*
X88092857Y-27937648D02*
X88007142Y-27980505D01*
X88007142Y-27980505D02*
X87664285Y-27980505D01*
X88564285Y-28409077D02*
X88564285Y-27509077D01*
X88992856Y-28409077D02*
X88992856Y-27509077D01*
X88992856Y-27509077D02*
X89507142Y-28409077D01*
X89507142Y-28409077D02*
X89507142Y-27509077D01*
X7291428Y-26566220D02*
X7420000Y-26609077D01*
X7420000Y-26609077D02*
X7634285Y-26609077D01*
X7634285Y-26609077D02*
X7720000Y-26566220D01*
X7720000Y-26566220D02*
X7762857Y-26523362D01*
X7762857Y-26523362D02*
X7805714Y-26437648D01*
X7805714Y-26437648D02*
X7805714Y-26351934D01*
X7805714Y-26351934D02*
X7762857Y-26266220D01*
X7762857Y-26266220D02*
X7720000Y-26223362D01*
X7720000Y-26223362D02*
X7634285Y-26180505D01*
X7634285Y-26180505D02*
X7462857Y-26137648D01*
X7462857Y-26137648D02*
X7377142Y-26094791D01*
X7377142Y-26094791D02*
X7334285Y-26051934D01*
X7334285Y-26051934D02*
X7291428Y-25966220D01*
X7291428Y-25966220D02*
X7291428Y-25880505D01*
X7291428Y-25880505D02*
X7334285Y-25794791D01*
X7334285Y-25794791D02*
X7377142Y-25751934D01*
X7377142Y-25751934D02*
X7462857Y-25709077D01*
X7462857Y-25709077D02*
X7677142Y-25709077D01*
X7677142Y-25709077D02*
X7805714Y-25751934D01*
X8105714Y-25709077D02*
X8705714Y-26609077D01*
X8705714Y-25709077D02*
X8105714Y-26609077D01*
X9520000Y-26609077D02*
X9005714Y-26609077D01*
X9262857Y-26609077D02*
X9262857Y-25709077D01*
X9262857Y-25709077D02*
X9177143Y-25837648D01*
X9177143Y-25837648D02*
X9091428Y-25923362D01*
X9091428Y-25923362D02*
X9005714Y-25966220D01*
X9862857Y-25794791D02*
X9905714Y-25751934D01*
X9905714Y-25751934D02*
X9991429Y-25709077D01*
X9991429Y-25709077D02*
X10205714Y-25709077D01*
X10205714Y-25709077D02*
X10291429Y-25751934D01*
X10291429Y-25751934D02*
X10334286Y-25794791D01*
X10334286Y-25794791D02*
X10377143Y-25880505D01*
X10377143Y-25880505D02*
X10377143Y-25966220D01*
X10377143Y-25966220D02*
X10334286Y-26094791D01*
X10334286Y-26094791D02*
X9820000Y-26609077D01*
X9820000Y-26609077D02*
X10377143Y-26609077D01*
X10677143Y-25709077D02*
X11277143Y-25709077D01*
X11277143Y-25709077D02*
X10891429Y-26609077D01*
X11748572Y-26094791D02*
X11662857Y-26051934D01*
X11662857Y-26051934D02*
X11620000Y-26009077D01*
X11620000Y-26009077D02*
X11577143Y-25923362D01*
X11577143Y-25923362D02*
X11577143Y-25880505D01*
X11577143Y-25880505D02*
X11620000Y-25794791D01*
X11620000Y-25794791D02*
X11662857Y-25751934D01*
X11662857Y-25751934D02*
X11748572Y-25709077D01*
X11748572Y-25709077D02*
X11920000Y-25709077D01*
X11920000Y-25709077D02*
X12005715Y-25751934D01*
X12005715Y-25751934D02*
X12048572Y-25794791D01*
X12048572Y-25794791D02*
X12091429Y-25880505D01*
X12091429Y-25880505D02*
X12091429Y-25923362D01*
X12091429Y-25923362D02*
X12048572Y-26009077D01*
X12048572Y-26009077D02*
X12005715Y-26051934D01*
X12005715Y-26051934D02*
X11920000Y-26094791D01*
X11920000Y-26094791D02*
X11748572Y-26094791D01*
X11748572Y-26094791D02*
X11662857Y-26137648D01*
X11662857Y-26137648D02*
X11620000Y-26180505D01*
X11620000Y-26180505D02*
X11577143Y-26266220D01*
X11577143Y-26266220D02*
X11577143Y-26437648D01*
X11577143Y-26437648D02*
X11620000Y-26523362D01*
X11620000Y-26523362D02*
X11662857Y-26566220D01*
X11662857Y-26566220D02*
X11748572Y-26609077D01*
X11748572Y-26609077D02*
X11920000Y-26609077D01*
X11920000Y-26609077D02*
X12005715Y-26566220D01*
X12005715Y-26566220D02*
X12048572Y-26523362D01*
X12048572Y-26523362D02*
X12091429Y-26437648D01*
X12091429Y-26437648D02*
X12091429Y-26266220D01*
X12091429Y-26266220D02*
X12048572Y-26180505D01*
X12048572Y-26180505D02*
X12005715Y-26137648D01*
X12005715Y-26137648D02*
X11920000Y-26094791D01*
X12262858Y-26694791D02*
X12948572Y-26694791D01*
X13591429Y-26609077D02*
X13162857Y-26609077D01*
X13162857Y-26609077D02*
X13162857Y-25709077D01*
X14062857Y-25709077D02*
X14234285Y-25709077D01*
X14234285Y-25709077D02*
X14320000Y-25751934D01*
X14320000Y-25751934D02*
X14405714Y-25837648D01*
X14405714Y-25837648D02*
X14448571Y-26009077D01*
X14448571Y-26009077D02*
X14448571Y-26309077D01*
X14448571Y-26309077D02*
X14405714Y-26480505D01*
X14405714Y-26480505D02*
X14320000Y-26566220D01*
X14320000Y-26566220D02*
X14234285Y-26609077D01*
X14234285Y-26609077D02*
X14062857Y-26609077D01*
X14062857Y-26609077D02*
X13977143Y-26566220D01*
X13977143Y-26566220D02*
X13891428Y-26480505D01*
X13891428Y-26480505D02*
X13848571Y-26309077D01*
X13848571Y-26309077D02*
X13848571Y-26009077D01*
X13848571Y-26009077D02*
X13891428Y-25837648D01*
X13891428Y-25837648D02*
X13977143Y-25751934D01*
X13977143Y-25751934D02*
X14062857Y-25709077D01*
X15348571Y-26609077D02*
X15048571Y-26180505D01*
X14834285Y-26609077D02*
X14834285Y-25709077D01*
X14834285Y-25709077D02*
X15177142Y-25709077D01*
X15177142Y-25709077D02*
X15262857Y-25751934D01*
X15262857Y-25751934D02*
X15305714Y-25794791D01*
X15305714Y-25794791D02*
X15348571Y-25880505D01*
X15348571Y-25880505D02*
X15348571Y-26009077D01*
X15348571Y-26009077D02*
X15305714Y-26094791D01*
X15305714Y-26094791D02*
X15262857Y-26137648D01*
X15262857Y-26137648D02*
X15177142Y-26180505D01*
X15177142Y-26180505D02*
X14834285Y-26180505D01*
X15691428Y-26351934D02*
X16120000Y-26351934D01*
X15605714Y-26609077D02*
X15905714Y-25709077D01*
X15905714Y-25709077D02*
X16205714Y-26609077D01*
X16291429Y-26694791D02*
X16977143Y-26694791D01*
X17148571Y-25794791D02*
X17191428Y-25751934D01*
X17191428Y-25751934D02*
X17277143Y-25709077D01*
X17277143Y-25709077D02*
X17491428Y-25709077D01*
X17491428Y-25709077D02*
X17577143Y-25751934D01*
X17577143Y-25751934D02*
X17620000Y-25794791D01*
X17620000Y-25794791D02*
X17662857Y-25880505D01*
X17662857Y-25880505D02*
X17662857Y-25966220D01*
X17662857Y-25966220D02*
X17620000Y-26094791D01*
X17620000Y-26094791D02*
X17105714Y-26609077D01*
X17105714Y-26609077D02*
X17662857Y-26609077D01*
X17962857Y-26609077D02*
X18434286Y-26009077D01*
X17962857Y-26009077D02*
X18434286Y-26609077D01*
X19162857Y-26009077D02*
X19162857Y-26609077D01*
X18948571Y-25666220D02*
X18734285Y-26309077D01*
X18734285Y-26309077D02*
X19291428Y-26309077D01*
M02*
